<?xml version="1.0" standalone="no"?>
<!DOCTYPE svg PUBLIC "-//W3C//DTD SVG 1.1//EN" 
  "http://www.w3.org/Graphics/SVG/1.1/DTD/svg11.dtd">
<svg width="1024" height="1024" viewBox="0 0 1024 1024"
     xmlns="http://www.w3.org/2000/svg" version="1.1">
<desc>Boeing_747SP.blend, (Blender 3.3.9)</desc>
<polygon stroke="black" stroke-width="1" fill="rgb(204, 204, 204)" fill-opacity="1" points="594.564,473.544 280.456,73.378 351.493,80.295 830.985,473.544 " />
<polygon stroke="black" stroke-width="1" fill="rgb(204, 204, 204)" fill-opacity="1" points="830.277,942.024 297.508,520.444 313.093,548.775 792.585,942.024 " />
<polygon stroke="black" stroke-width="1" fill="rgb(204, 204, 204)" fill-opacity="1" points="556.224,942.024 242.056,541.858 206.537,538.399 236.220,587.997 448.101,942.024 " />
<polygon stroke="black" stroke-width="1" fill="rgb(204, 204, 204)" fill-opacity="1" points="648.286,535.636 646.657,535.956 520.843,536.401 451.428,536.647 451.032,536.491 450.636,536.336 " />
<polygon stroke="black" stroke-width="1" fill="rgb(204, 204, 204)" fill-opacity="1" points="256.977,44.279 280.456,73.378 244.937,69.919 209.418,66.461 178.047,36.593 " />
<polygon stroke="black" stroke-width="1" fill="rgb(204, 204, 204)" fill-opacity="1" points="608.257,1004.436 556.224,942.024 448.101,942.024 456.319,957.065 482.443,1004.881 " />
<polygon stroke="black" stroke-width="1" fill="rgb(204, 204, 204)" fill-opacity="1" points="889.473,1003.126 830.277,942.024 792.585,942.024 859.886,1003.545 " />
<polygon stroke="black" stroke-width="1" fill="rgb(204, 204, 204)" fill-opacity="1" points="646.657,535.956 594.564,473.544 830.985,473.544 898.286,535.065 " />
<polygon stroke="black" stroke-width="1" fill="rgb(204, 204, 204)" fill-opacity="1" points="859.886,1003.545 792.585,942.024 556.224,942.024 608.257,1004.436 " />
<polygon stroke="black" stroke-width="1" fill="rgb(204, 204, 204)" fill-opacity="1" points="335.908,51.964 351.493,80.295 280.456,73.378 256.977,44.279 " />
<polygon stroke="black" stroke-width="1" fill="rgb(204, 204, 204)" fill-opacity="1" points="927.873,534.646 898.286,535.065 646.657,535.956 648.286,535.636 " />
<polygon stroke="black" stroke-width="1" fill="rgb(204, 204, 204)" fill-opacity="1" points="792.585,942.024 313.093,548.775 242.056,541.858 556.224,942.024 " />
<polygon stroke="black" stroke-width="1" fill="rgb(204, 204, 204)" fill-opacity="1" points="898.286,535.065 927.873,534.646 648.286,535.636 646.657,535.956 " />
<polygon stroke="black" stroke-width="1" fill="rgb(204, 204, 204)" fill-opacity="1" points="313.093,548.775 297.508,520.444 218.577,512.759 242.056,541.858 " />
<polygon stroke="black" stroke-width="1" fill="rgb(204, 204, 204)" fill-opacity="1" points="898.286,535.065 830.985,473.544 868.677,473.544 927.873,534.646 " />
<polygon stroke="black" stroke-width="1" fill="rgb(204, 204, 204)" fill-opacity="1" points="242.056,541.858 218.577,512.759 139.647,505.073 171.018,534.941 206.537,538.399 " />
<polygon stroke="black" stroke-width="1" fill="rgb(204, 204, 204)" fill-opacity="1" points="646.657,535.956 648.286,535.636 450.636,536.336 451.748,536.646 520.843,536.401 " />
<polygon stroke="black" stroke-width="1" fill="rgb(204, 204, 204)" fill-opacity="1" points="830.985,473.544 351.493,80.295 335.908,51.964 868.677,473.544 " />
<polygon stroke="black" stroke-width="1" fill="rgb(204, 204, 204)" fill-opacity="1" points="193.507,593.172 236.220,587.997 206.537,538.399 171.018,534.941 " />
<polygon stroke="black" stroke-width="1" fill="rgb(204, 204, 204)" fill-opacity="1" points="174.557,595.468 193.507,593.172 171.018,534.941 139.647,505.073 " />
<polygon stroke="black" stroke-width="1" fill="rgb(204, 204, 204)" fill-opacity="1" points="482.443,1004.881 456.319,957.065 413.028,1005.127 " />
<polygon stroke="black" stroke-width="1" fill="rgb(204, 204, 204)" fill-opacity="1" points="520.843,536.401 496.148,491.201 486.501,473.544 594.564,473.544 646.657,535.956 " />
<polygon stroke="black" stroke-width="1" fill="rgb(204, 204, 204)" fill-opacity="1" points="486.501,473.544 274.562,119.420 244.937,69.919 280.456,73.378 594.564,473.544 " />
<polygon stroke="black" stroke-width="1" fill="rgb(204, 204, 204)" fill-opacity="1" points="231.896,124.662 212.957,126.988 178.047,36.593 209.418,66.461 " />
<polygon stroke="black" stroke-width="1" fill="rgb(204, 204, 204)" fill-opacity="1" points="274.562,119.420 231.896,124.662 209.418,66.461 244.937,69.919 " />
<polygon stroke="black" stroke-width="1" fill="rgb(204, 204, 204)" fill-opacity="1" points="451.748,536.646 496.148,491.201 520.843,536.401 " />
<polygon stroke="black" stroke-width="1" fill="rgb(204, 204, 204)" fill-opacity="1" points="450.636,536.336 451.032,536.491 409.667,536.481 " />
<polygon stroke="black" stroke-width="1" fill="rgb(204, 204, 204)" fill-opacity="1" points="451.748,536.646 450.636,536.336 409.667,536.481 381.864,536.736 395.029,536.847 " />
<polygon stroke="black" stroke-width="1" fill="rgb(204, 204, 204)" fill-opacity="1" points="231.907,124.692 212.957,126.988 231.901,124.677 " />
<polygon stroke="black" stroke-width="1" fill="rgb(204, 204, 204)" fill-opacity="1" points="274.620,119.517 231.907,124.692 231.901,124.677 274.591,119.468 " />
<polygon stroke="black" stroke-width="1" fill="rgb(204, 204, 204)" fill-opacity="1" points="486.501,473.544 274.620,119.517 274.591,119.468 486.501,473.544 " />
<polygon stroke="black" stroke-width="1" fill="rgb(204, 204, 204)" fill-opacity="1" points="494.719,488.585 486.501,473.544 486.501,473.544 495.433,489.893 " />
<polygon stroke="black" stroke-width="1" fill="rgb(204, 204, 204)" fill-opacity="1" points="451.428,536.647 494.719,488.585 495.433,489.893 451.588,536.646 " />
<polygon stroke="black" stroke-width="1" fill="rgb(204, 204, 204)" fill-opacity="1" points="381.864,536.736 409.667,536.481 368.699,536.626 " />
<polygon stroke="black" stroke-width="1" fill="rgb(204, 204, 204)" fill-opacity="1" points="495.433,489.893 486.501,473.544 486.501,473.544 496.148,491.201 " />
<polygon stroke="black" stroke-width="1" fill="rgb(204, 204, 204)" fill-opacity="1" points="451.588,536.646 495.433,489.893 496.148,491.201 451.748,536.646 " />
<polygon stroke="black" stroke-width="1" fill="rgb(204, 204, 204)" fill-opacity="1" points="409.667,536.481 451.032,536.491 451.428,536.647 395.029,536.847 368.699,536.626 " />
<polygon stroke="black" stroke-width="1" fill="rgb(204, 204, 204)" fill-opacity="1" points="486.501,473.544 274.591,119.468 274.562,119.420 486.501,473.544 " />
<polygon stroke="black" stroke-width="1" fill="rgb(204, 204, 204)" fill-opacity="1" points="231.901,124.677 212.957,126.988 231.896,124.662 " />
<polygon stroke="black" stroke-width="1" fill="rgb(204, 204, 204)" fill-opacity="1" points="274.591,119.468 231.901,124.677 231.896,124.662 274.562,119.420 " />

</svg>
