<?xml version="1.0" encoding="UTF-8" standalone="no"?>
<svg
   width="1024"
   height="1024"
   viewBox="0 0 1024 1024"
   version="1.1"
   id="svg40"
   sodipodi:docname="Vertical_stabilizer.svg"
   inkscape:version="1.3.2 (091e20ef0f, 2023-11-25, custom)"
   xml:space="preserve"
   xmlns:inkscape="http://www.inkscape.org/namespaces/inkscape"
   xmlns:sodipodi="http://sodipodi.sourceforge.net/DTD/sodipodi-0.dtd"
   xmlns:xlink="http://www.w3.org/1999/xlink"
   xmlns="http://www.w3.org/2000/svg"
   xmlns:svg="http://www.w3.org/2000/svg"><defs
     id="defs40"><linearGradient
       id="linearGradient168"
       inkscape:collect="always"><stop
         style="stop-color:#7a150e;stop-opacity:1;"
         offset="0"
         id="stop168" /><stop
         style="stop-color:#d01a1f;stop-opacity:1;"
         offset="1"
         id="stop169" /></linearGradient><style
       id="style1">.cls-2{fill:#0033a1;}</style><linearGradient
       id="linearGradient41"
       inkscape:collect="always"><stop
         style="stop-color:#404040;stop-opacity:1;"
         offset="0"
         id="stop39" /><stop
         style="stop-color:#ffffff;stop-opacity:1;"
         offset="0.5"
         id="stop40" /><stop
         style="stop-color:#404040;stop-opacity:1;"
         offset="1"
         id="stop41" /></linearGradient><linearGradient
       inkscape:collect="always"
       xlink:href="#linearGradient41"
       id="linearGradient25"
       x1="540.76953"
       y1="66.293945"
       x2="674.01758"
       y2="66.293945"
       gradientUnits="userSpaceOnUse" /><style
       id="style1-3">.cls-2{fill:#0033a1;}</style><inkscape:perspective
       sodipodi:type="inkscape:persp3d"
       inkscape:vp_x="0 : 133 : 1"
       inkscape:vp_y="0 : 1000 : 0"
       inkscape:vp_z="697.69098 : 133 : 1"
       inkscape:persp3d-origin="348.84549 : 88.666667 : 1"
       id="perspective58" /><style
       id="style1-6">
      .cls-1 {
        fill: #0081c6;
        stroke-width: 0px;
      }
    </style><style
       id="style1-36">.cls-2{fill:#0033a1;}</style><style
       id="style1-3-2">.cls-2{fill:#0033a1;}</style><inkscape:perspective
       sodipodi:type="inkscape:persp3d"
       inkscape:vp_x="0 : 133 : 1"
       inkscape:vp_y="0 : 1000 : 0"
       inkscape:vp_z="697.69098 : 133 : 1"
       inkscape:persp3d-origin="348.84549 : 88.666667 : 1"
       id="perspective58-9" /><linearGradient
       inkscape:collect="always"
       xlink:href="#linearGradient168"
       id="linearGradient169"
       x1="2902.7141"
       y1="182.56664"
       x2="2823.5891"
       y2="339.31662"
       gradientUnits="userSpaceOnUse" /><linearGradient
       inkscape:collect="always"
       xlink:href="#linearGradient168"
       id="linearGradient171"
       x1="2734.2695"
       y1="49.249512"
       x2="2728.8159"
       y2="169.75914"
       gradientUnits="userSpaceOnUse" /><linearGradient
       inkscape:collect="always"
       xlink:href="#linearGradient168"
       id="linearGradient175"
       x1="2696.7141"
       y1="129.99927"
       x2="2749.5454"
       y2="21.716999"
       gradientUnits="userSpaceOnUse" /><linearGradient
       inkscape:collect="always"
       xlink:href="#linearGradient168"
       id="linearGradient177"
       x1="2893.269"
       y1="224.04913"
       x2="2780.2349"
       y2="240.77835"
       gradientUnits="userSpaceOnUse" /><linearGradient
       inkscape:collect="always"
       xlink:href="#linearGradient168"
       id="linearGradient182"
       gradientUnits="userSpaceOnUse"
       x1="2902.7141"
       y1="182.56664"
       x2="2823.5891"
       y2="339.31662" /><linearGradient
       inkscape:collect="always"
       xlink:href="#linearGradient168"
       id="linearGradient183"
       gradientUnits="userSpaceOnUse"
       x1="2734.2695"
       y1="49.249512"
       x2="2728.8159"
       y2="169.75914" /><linearGradient
       inkscape:collect="always"
       xlink:href="#linearGradient168"
       id="linearGradient184"
       gradientUnits="userSpaceOnUse"
       x1="2696.7141"
       y1="129.99927"
       x2="2749.5454"
       y2="21.716999" /><linearGradient
       inkscape:collect="always"
       xlink:href="#linearGradient168"
       id="linearGradient185"
       gradientUnits="userSpaceOnUse"
       x1="2893.269"
       y1="224.04913"
       x2="2780.2349"
       y2="240.77835" /></defs><sodipodi:namedview
     id="namedview40"
     pagecolor="#505050"
     bordercolor="#ffffff"
     borderopacity="1"
     inkscape:showpageshadow="0"
     inkscape:pageopacity="0"
     inkscape:pagecheckerboard="1"
     inkscape:deskcolor="#d1d1d1"
     inkscape:zoom="0.17021662"
     inkscape:cx="1703.7114"
     inkscape:cy="96.935304"
     inkscape:window-width="1366"
     inkscape:window-height="724"
     inkscape:window-x="-1"
     inkscape:window-y="-1"
     inkscape:window-maximized="1"
     inkscape:current-layer="svg40" /><desc
     id="desc1">Boeing_747SP.blend, (Blender 3.3.9)</desc><rect
     style="fill:#ffffff;fill-opacity:1;stroke-width:15;stroke-linecap:square"
     id="rect1"
     width="1024"
     height="1024"
     x="0"
     y="0"
     rx="2.3779886"
     ry="2.3779886" /><path
     style="fill:#0d1419;fill-opacity:0.99607843;stroke:none;stroke-width:1px;stroke-linecap:butt;stroke-linejoin:miter;stroke-opacity:1"
     d="m 889.47266,1003.127 -566.44532,2 -148.4707,-409.65825 -34.91016,-90.39648 157.86133,15.37109 532.76953,421.58008 z"
     id="path2"
     sodipodi:nodetypes="ccccccc" /><path
     style="fill:#0d1419;fill-opacity:0.99607843;stroke:none;stroke-width:1px;stroke-linecap:butt;stroke-linejoin:miter;stroke-opacity:1"
     d="M 927.87305,534.64657 368.69922,536.62704 212.95703,126.99024 178.04687,36.59376 335.9082,51.964844 868.67773,473.54492 Z"
     id="path3"
     sodipodi:nodetypes="ccccccc" /><style
     type="text/css"
     id="style1-7">
	.st0{fill:#F01428;}
	.st1{fill:#2E2A25;}
</style><g
     id="g177"
     transform="matrix(-0.49627792,0,0,0.49627792,1792.2755,232.82423)"><path
       fill="#ffffff"
       d="m 2707.9641,440.56663 -5.625,-107.875 c -0.3493,-7.57774 6.3989,-13.53565 13.875,-12.25 l 107.375,18.875 -14.5,-40 c -1.2062,-3.26321 -0.201,-6.93225 2.5,-9.125 l 117.625,-95.25 -26.5,-12.375 c -3.7032,-1.74994 -5.5248,-5.98263 -4.25,-9.875 l 23.25,-71.5 -67.75,14.375 c -3.7843,0.78903 -7.6006,-1.19752 -9.125,-4.75 l -13.125,-30.874999 -52.875,56.749999 c -5.5869,5.89289 -15.409,0.8491 -13.875,-7.125 l 25.5,-131.499999 -40.875,23.625 c -4.0542,2.37614 -9.2728,0.82778 -11.375,-3.375 l -41.5,-81.5 -41.5,81.5 c -2.1022,4.20278 -7.3208,5.75114 -11.375,3.375 l -40.875,-23.625 25.5,131.499999 c 1.534,7.9741 -8.2881,13.01789 -13.875,7.125 l -52.875,-56.749999 -13.125,30.874999 c -1.5244,3.55248 -5.3407,5.53903 -9.125,4.75 l -67.75,-14.375 23.25,71.5 c 1.2748,3.89237 -0.5468,8.12506 -4.25,9.875 l -26.5,12.375 117.625,95.25 c 2.701,2.19275 3.7062,5.86179 2.5,9.125 l -14.5,40 107.375,-18.875 c 7.4761,-1.28565 14.2243,4.67226 13.875,12.25 l -5.625,107.875 z"
       id="path164"
       style="fill:#d01a1f;fill-opacity:1;stroke-width:0.125"
       sodipodi:nodetypes="cccccccccccccccccccccccccccccccccccccc" /><g
       id="g166"
       style="fill:#ffffff;stroke:none"><path
         style="fill:url(#linearGradient169);stroke:none;stroke-width:1px;stroke-linecap:butt;stroke-linejoin:miter;stroke-opacity:1"
         d="m 2696.7141,323.18189 225,-221.99026 -23.2554,71.51657 c -0.821,3.95924 -0.113,7.4589 4.2554,9.85843 l 26.5,12.375 -117.625,95.25 c -3.3913,2.97524 -3.2269,6.04282 -2.5,9.125 l 14.5,40 -107.375,-18.875 z"
         id="path166"
         sodipodi:nodetypes="cccccccccc" /><path
         style="fill:url(#linearGradient171);fill-opacity:1;stroke:none;stroke-width:1px;stroke-linecap:butt;stroke-linejoin:miter;stroke-opacity:1"
         d="M 2696.7141,-63.183369 V 323.18189 l 225,-221.99026 -67.75,14.375 c -3.6837,0.52899 -6.8842,-0.53167 -9.125,-4.75 l -13.125,-30.874999 -52.875,56.749999 c -5.0959,4.06782 -15.103,2.66513 -13.875,-7.125 l 25.5,-131.499999 -40.9186,23.650368 c -4.5112,1.950862 -8.3987,1.281252 -11.3314,-3.400368 z"
         id="path165"
         sodipodi:nodetypes="cccccccccccc" /></g><g
       id="g168"
       transform="matrix(-1,0,0,1,5393.4282,0)"
       style="fill:#ffffff;stroke:none"><path
         style="fill:url(#linearGradient175);stroke:none;stroke-width:1px;stroke-linecap:butt;stroke-linejoin:miter;stroke-opacity:1"
         d="M 2696.7141,-63.183369 V 323.18189 l 225,-221.99026 -67.75,14.375 c -3.6837,0.52899 -6.8842,-0.53167 -9.125,-4.75 l -13.125,-30.874999 -52.875,56.749999 c -5.0959,4.06782 -15.103,2.66513 -13.875,-7.125 l 25.5,-131.499999 -40.9186,23.650368 c -4.5112,1.950862 -8.3987,1.281252 -11.3314,-3.400368 z"
         id="path167"
         sodipodi:nodetypes="cccccccccccc" /><path
         style="fill:url(#linearGradient177);fill-opacity:1;stroke:none;stroke-width:1px;stroke-linecap:butt;stroke-linejoin:miter;stroke-opacity:1"
         d="m 2696.7141,323.18189 225,-221.99026 -23.2554,71.51657 c -0.821,3.95924 -0.113,7.4589 4.2554,9.85843 l 26.5,12.375 -117.625,95.25 c -3.3913,2.97524 -3.2269,6.04282 -2.5,9.125 l 14.5,40 -107.375,-18.875 z"
         id="path168"
         sodipodi:nodetypes="cccccccccc" /></g></g><g
     id="g182"
     transform="matrix(0.49627792,0,0,0.49627792,-925.42724,714.45931)"><path
       fill="#ffffff"
       d="m 2707.9641,440.56663 -5.625,-107.875 c -0.3493,-7.57774 6.3989,-13.53565 13.875,-12.25 l 107.375,18.875 -14.5,-40 c -1.2062,-3.26321 -0.201,-6.93225 2.5,-9.125 l 117.625,-95.25 -26.5,-12.375 c -3.7032,-1.74994 -5.5248,-5.98263 -4.25,-9.875 l 23.25,-71.5 -67.75,14.375 c -3.7843,0.78903 -7.6006,-1.19752 -9.125,-4.75 l -13.125,-30.874999 -52.875,56.749999 c -5.5869,5.89289 -15.409,0.8491 -13.875,-7.125 l 25.5,-131.499999 -40.875,23.625 c -4.0542,2.37614 -9.2728,0.82778 -11.375,-3.375 l -41.5,-81.5 -41.5,81.5 c -2.1022,4.20278 -7.3208,5.75114 -11.375,3.375 l -40.875,-23.625 25.5,131.499999 c 1.534,7.9741 -8.2881,13.01789 -13.875,7.125 l -52.875,-56.749999 -13.125,30.874999 c -1.5244,3.55248 -5.3407,5.53903 -9.125,4.75 l -67.75,-14.375 23.25,71.5 c 1.2748,3.89237 -0.5468,8.12506 -4.25,9.875 l -26.5,12.375 117.625,95.25 c 2.701,2.19275 3.7062,5.86179 2.5,9.125 l -14.5,40 107.375,-18.875 c 7.4761,-1.28565 14.2243,4.67226 13.875,12.25 l -5.625,107.875 z"
       id="path177"
       style="fill:#d01a1f;fill-opacity:1;stroke-width:0.125"
       sodipodi:nodetypes="cccccccccccccccccccccccccccccccccccccc" /><g
       id="g179"
       style="fill:#ffffff;stroke:none"><path
         style="fill:url(#linearGradient182);stroke:none;stroke-width:1px;stroke-linecap:butt;stroke-linejoin:miter;stroke-opacity:1"
         d="m 2696.7141,323.18189 225,-221.99026 -23.2554,71.51657 c -0.821,3.95924 -0.113,7.4589 4.2554,9.85843 l 26.5,12.375 -117.625,95.25 c -3.3913,2.97524 -3.2269,6.04282 -2.5,9.125 l 14.5,40 -107.375,-18.875 z"
         id="path178"
         sodipodi:nodetypes="cccccccccc" /><path
         style="fill:url(#linearGradient183);fill-opacity:1;stroke:none;stroke-width:1px;stroke-linecap:butt;stroke-linejoin:miter;stroke-opacity:1"
         d="M 2696.7141,-63.183369 V 323.18189 l 225,-221.99026 -67.75,14.375 c -3.6837,0.52899 -6.8842,-0.53167 -9.125,-4.75 l -13.125,-30.874999 -52.875,56.749999 c -5.0959,4.06782 -15.103,2.66513 -13.875,-7.125 l 25.5,-131.499999 -40.9186,23.650368 c -4.5112,1.950862 -8.3987,1.281252 -11.3314,-3.400368 z"
         id="path179"
         sodipodi:nodetypes="cccccccccccc" /></g><g
       id="g181"
       transform="matrix(-1,0,0,1,5393.4282,0)"
       style="fill:#ffffff;stroke:none"><path
         style="fill:url(#linearGradient184);stroke:none;stroke-width:1px;stroke-linecap:butt;stroke-linejoin:miter;stroke-opacity:1"
         d="M 2696.7141,-63.183369 V 323.18189 l 225,-221.99026 -67.75,14.375 c -3.6837,0.52899 -6.8842,-0.53167 -9.125,-4.75 l -13.125,-30.874999 -52.875,56.749999 c -5.0959,4.06782 -15.103,2.66513 -13.875,-7.125 l 25.5,-131.499999 -40.9186,23.650368 c -4.5112,1.950862 -8.3987,1.281252 -11.3314,-3.400368 z"
         id="path180"
         sodipodi:nodetypes="cccccccccccc" /><path
         style="fill:url(#linearGradient185);fill-opacity:1;stroke:none;stroke-width:1px;stroke-linecap:butt;stroke-linejoin:miter;stroke-opacity:1"
         d="m 2696.7141,323.18189 225,-221.99026 -23.2554,71.51657 c -0.821,3.95924 -0.113,7.4589 4.2554,9.85843 l 26.5,12.375 -117.625,95.25 c -3.3913,2.97524 -3.2269,6.04282 -2.5,9.125 l 14.5,40 -107.375,-18.875 z"
         id="path181"
         sodipodi:nodetypes="cccccccccc" /></g></g></svg>
