<?xml version="1.0" encoding="UTF-8" standalone="no"?>
<svg
   width="1024"
   height="1024"
   viewBox="0 0 1024 1024"
   version="1.1"
   id="svg178"
   sodipodi:docname="ENG1.svg"
   inkscape:version="1.3.2 (091e20ef0f, 2023-11-25, custom)"
   xmlns:inkscape="http://www.inkscape.org/namespaces/inkscape"
   xmlns:sodipodi="http://sodipodi.sourceforge.net/DTD/sodipodi-0.dtd"
   xmlns:xlink="http://www.w3.org/1999/xlink"
   xmlns="http://www.w3.org/2000/svg"
   xmlns:svg="http://www.w3.org/2000/svg">
  <defs
     id="defs178">
    <linearGradient
       id="linearGradient4"
       inkscape:collect="always">
      <stop
         style="stop-color:#cca300;stop-opacity:1;"
         offset="0"
         id="stop4" />
      <stop
         style="stop-color:#ffcc00;stop-opacity:0;"
         offset="1"
         id="stop5" />
    </linearGradient>
    <linearGradient
       inkscape:collect="always"
       xlink:href="#linearGradient41"
       id="linearGradient3"
       x1="124.22266"
       y1="87.394531"
       x2="251.23242"
       y2="87.394531"
       gradientUnits="userSpaceOnUse"
       gradientTransform="matrix(1.0265981,0,0,1.0265981,1136.9272,38.11883)" />
    <linearGradient
       id="linearGradient41"
       inkscape:collect="always">
      <stop
         style="stop-color:#404040;stop-opacity:1;"
         offset="0"
         id="stop39" />
      <stop
         style="stop-color:#ffffff;stop-opacity:1;"
         offset="0.5"
         id="stop40" />
      <stop
         style="stop-color:#404040;stop-opacity:1;"
         offset="1"
         id="stop41" />
    </linearGradient>
    <linearGradient
       inkscape:collect="always"
       xlink:href="#linearGradient41"
       id="linearGradient15"
       x1="630.27734"
       y1="573.76758"
       x2="780.63477"
       y2="573.76758"
       gradientUnits="userSpaceOnUse"
       gradientTransform="translate(1141.9204,40.44336)" />
    <linearGradient
       inkscape:collect="always"
       xlink:href="#linearGradient41"
       id="linearGradient19"
       x1="788.85547"
       y1="357.01074"
       x2="901.39453"
       y2="357.01074"
       gradientUnits="userSpaceOnUse"
       gradientTransform="translate(1141.9204,40.44336)" />
    <linearGradient
       inkscape:collect="always"
       xlink:href="#linearGradient41"
       id="linearGradient23"
       x1="788.85547"
       y1="845.18359"
       x2="939.2168"
       y2="845.18359"
       gradientUnits="userSpaceOnUse"
       gradientTransform="translate(1141.9204,40.44336)" />
    <linearGradient
       id="linearGradient9"
       inkscape:collect="always"
       gradientTransform="matrix(0.97812409,0,0,1.0223652,1141.9204,40.44336)"
       x1="523.58565"
       y1="1.3085606"
       x2="657.65748"
       y2="1.3085606"
       gradientUnits="userSpaceOnUse">
      <stop
         style="stop-color:#404040;stop-opacity:1;"
         offset="0"
         id="stop7" />
      <stop
         style="stop-color:#ffffff;stop-opacity:1;"
         offset="0.5"
         id="stop8" />
      <stop
         style="stop-color:#404040;stop-opacity:1;"
         offset="1"
         id="stop9" />
    </linearGradient>
    <linearGradient
       inkscape:collect="always"
       xlink:href="#linearGradient41"
       id="linearGradient21"
       x1="801.15625"
       y1="530.7627"
       x2="901.39453"
       y2="530.7627"
       gradientUnits="userSpaceOnUse"
       gradientTransform="translate(1141.9204,40.44336)" />
    <linearGradient
       inkscape:collect="always"
       xlink:href="#linearGradient41"
       id="linearGradient13"
       x1="521.64453"
       y1="572.1582"
       x2="622.05664"
       y2="572.1582"
       gradientUnits="userSpaceOnUse"
       gradientTransform="translate(1141.9204,40.44336)" />
    <radialGradient
       inkscape:collect="always"
       xlink:href="#linearGradient44"
       id="radialGradient25"
       cx="647.70605"
       cy="886.95996"
       fx="647.70605"
       fy="886.95996"
       r="132.92873"
       gradientTransform="translate(1141.9204,40.44329)"
       gradientUnits="userSpaceOnUse" />
    <linearGradient
       id="linearGradient44"
       inkscape:collect="always">
      <stop
         style="stop-color:#404040;stop-opacity:1;"
         offset="0"
         id="stop42" />
      <stop
         style="stop-color:#ffffff;stop-opacity:1;"
         offset="0.8990733"
         id="stop43" />
      <stop
         style="stop-color:#404040;stop-opacity:1;"
         offset="1"
         id="stop44" />
    </linearGradient>
    <linearGradient
       inkscape:collect="always"
       xlink:href="#linearGradient41"
       id="linearGradient17"
       x1="788.85547"
       y1="218.36523"
       x2="916.38086"
       y2="218.36523"
       gradientUnits="userSpaceOnUse"
       gradientTransform="matrix(1.038636,0,0,1.038636,1108.9787,32.00662)" />
    <linearGradient
       inkscape:collect="always"
       xlink:href="#linearGradient41"
       id="linearGradient11"
       x1="125.32227"
       y1="276.11621"
       x2="251.23242"
       y2="276.11621"
       gradientUnits="userSpaceOnUse"
       gradientTransform="matrix(1.0487139,0,0,1.0487139,1132.7487,26.99266)" />
    <linearGradient
       inkscape:collect="always"
       xlink:href="#linearGradient41"
       id="linearGradient24"
       x1="514.78516"
       y1="69.873047"
       x2="640.61719"
       y2="69.873047"
       gradientUnits="userSpaceOnUse"
       gradientTransform="matrix(1.0421744,0,0,1.0421744,-24.364202,-2.9468541)" />
    <radialGradient
       inkscape:collect="always"
       xlink:href="#linearGradient44"
       id="radialGradient181"
       cx="884.53418"
       cy="885.22754"
       fx="884.53418"
       fy="885.22754"
       r="137.67873"
       gradientTransform="matrix(1,0,0,1.0079442,0,-7.0324102)"
       gradientUnits="userSpaceOnUse" />
    <radialGradient
       inkscape:collect="always"
       xlink:href="#linearGradient9"
       id="radialGradient182"
       cx="206.68652"
       cy="817.03711"
       fx="206.68652"
       fy="817.03711"
       r="206.68652"
       gradientTransform="matrix(1,0,0,1.0013371,0,-1.0924779)"
       gradientUnits="userSpaceOnUse" />
    <linearGradient
       inkscape:collect="always"
       xlink:href="#linearGradient9"
       id="linearGradient183"
       x1="589.49609"
       y1="284.44727"
       x2="589.49609"
       y2="568.89648"
       gradientUnits="userSpaceOnUse" />
    <linearGradient
       inkscape:collect="always"
       xlink:href="#linearGradient9"
       id="linearGradient185"
       x1="589.49609"
       y1="16.35144"
       x2="589.49609"
       y2="277.87427"
       gradientUnits="userSpaceOnUse" />
    <linearGradient
       inkscape:collect="always"
       xlink:href="#linearGradient4"
       id="linearGradient5"
       x1="6.5273437"
       y1="289.17969"
       x2="321.99414"
       y2="289.17969"
       gradientUnits="userSpaceOnUse" />
    <linearGradient
       inkscape:collect="always"
       xlink:href="#linearGradient4"
       id="linearGradient6"
       gradientUnits="userSpaceOnUse"
       x1="6.5273437"
       y1="289.17969"
       x2="321.99414"
       y2="289.17969" />
  </defs>
  <sodipodi:namedview
     id="namedview178"
     pagecolor="#505050"
     bordercolor="#ffffff"
     borderopacity="1"
     inkscape:showpageshadow="0"
     inkscape:pageopacity="0"
     inkscape:pagecheckerboard="1"
     inkscape:deskcolor="#d1d1d1"
     inkscape:zoom="0.35355339"
     inkscape:cx="806.10173"
     inkscape:cy="654.78088"
     inkscape:window-width="1366"
     inkscape:window-height="724"
     inkscape:window-x="-1"
     inkscape:window-y="-1"
     inkscape:window-maximized="1"
     inkscape:current-layer="svg178" />
  <desc
     id="desc1">Boeing_747_Supertanker.blend, (Blender 3.3.9)</desc>
  <path
     id="polygon1"
     d="M 118.25391 154.9707 L 2.9394531 163.38477 L 5.6601562 219.80664 L 6.5429688 275.92969 L 6.4765625 331.72461 L 6.0039062 387.22266 L 5.4414062 442.46094 L 4.9003906 497.48242 L 4.2636719 552.38086 L 2.9394531 607.08008 L 112.37109 610.07422 L 219.33398 606.10742 L 324.62891 592.89258 L 319.75195 543.12891 L 317.01953 492.9082 L 315.95117 442.41211 L 316.36914 391.62891 L 318.3125 340.54688 L 321.99414 289.17969 L 327.81641 237.59961 L 336.42188 186.01172 L 226.31836 163.88477 L 118.25391 154.9707 z "
     style="fill:#ffffff" />
  <path
     id="polygon2"
     d="M 631.54297 568.89648 L 523.47656 577.81055 L 413.37305 599.9375 L 421.97852 651.52344 L 427.80078 703.10547 L 431.48242 754.47266 L 433.42578 805.55469 L 433.84375 856.33984 L 432.77539 906.83398 L 430.04492 957.05273 L 425.16797 1006.8164 L 530.46289 1020.0332 L 637.42383 1024 L 746.85547 1021.0059 L 745.53125 966.30664 L 744.89453 911.4082 L 744.35352 856.38477 L 743.79102 801.14844 L 743.31836 745.65039 L 743.25195 689.85352 L 744.13477 633.73242 L 746.85547 577.30859 L 631.54297 568.89648 z "
     style="fill:#ffffff" />
  <path
     id="polygon15"
     d="M 168.80078 610.07422 L 91.792969 641.95312 L 32.339844 701.46484 L 0 779.96289 L 0.41992188 865.71289 L 34.435547 945.51367 L 98.308594 1006.4043 L 182.70898 1024 L 263.55859 1020.3555 L 338.36328 986.00977 L 385.20703 920.43945 L 413.37305 849.65625 L 413.37305 771.90625 L 383.33594 698.61523 L 326.61914 641.51562 L 251.31641 610.14844 L 168.80078 610.07422 z M 222.63477 751.97461 L 247.08984 760.14844 L 266.33984 776.89258 L 277.47461 799.59375 L 278.75977 824.72852 L 269.60938 848.73242 L 251.30469 866.74609 L 228.58203 879.5957 L 203.0332 882.49219 L 178.59961 874.32617 L 159.85156 858.13281 L 149.09766 835.38867 L 147.42383 809.52148 L 155.90625 784.86133 L 173.22852 765.26367 L 196.6875 753.73242 L 222.63477 751.97461 z "
     style="fill:url(#radialGradient182)" />
  <path
     id="polygon17"
     d="M 418.49219 0 L 415.68945 35.412109 L 414.01758 71.099609 L 413.37305 106.86133 L 413.73633 142.37305 L 414.80859 177.89844 L 416.25781 213.41211 L 417.80273 248.92773 L 419.25391 284.44727 L 677.24414 274.48633 L 765.61914 270.69336 L 764.31445 241.85156 L 762.91992 213.00391 L 761.56836 184.13672 L 760.4668 155.23828 L 759.85742 126.30273 L 759.97656 97.351562 L 761.87109 68.279297 L 765.61914 39.378906 L 676.20508 24.642578 L 418.49219 0 z "
     style="fill:url(#linearGradient185)" />
  <path
     id="polygon18"
     d="M 419.25391 284.44727 L 417.80273 319.96875 L 416.25781 355.48242 L 414.80859 390.99805 L 413.73633 426.52148 L 413.37305 462.0332 L 414.01758 497.79492 L 415.69141 533.48242 L 418.49219 568.89648 L 676.20508 544.25391 L 765.61914 529.51562 L 761.87109 500.61719 L 759.97656 471.54492 L 759.85742 442.5918 L 760.4668 413.65625 L 761.56836 384.75781 L 762.91992 355.89258 L 764.31445 327.04492 L 765.61914 298.20117 L 677.24414 294.4082 L 419.25391 284.44727 z "
     style="fill:url(#linearGradient183)" />
  <path
     id="polygon49"
     d="M 880.14844 52.023438 L 834.6543 70.21875 L 797.83594 102.54688 L 773.91016 145.30664 L 765.61914 193.5957 L 773.91016 241.88672 L 797.83594 284.64648 L 834.6543 316.97461 L 880.14844 335.16992 L 888.46875 296.20703 L 855.49414 283.02148 L 828.80859 259.58984 L 811.46875 228.59766 L 805.45703 193.5957 L 811.46875 158.5957 L 828.80859 127.60352 L 855.49414 104.17188 L 888.46875 90.984375 L 880.14844 52.023438 z M 1002.998 52.023438 L 957.50586 70.21875 L 920.6875 102.54688 L 896.76172 145.30664 L 888.46875 193.5957 L 896.76172 241.88672 L 920.6875 284.64648 L 957.50586 316.97461 L 1002.998 335.16992 L 1011.3203 296.20703 L 978.3457 283.02148 L 951.66016 259.58984 L 934.31836 228.59766 L 928.30859 193.5957 L 934.31836 158.5957 L 951.66016 127.60352 L 978.3457 104.17188 L 1011.3203 90.984375 L 1002.998 52.023438 z " />
  <path
     id="polygon79"
     d="M 85.431641 6.390625 L 55.896484 7.7734375 L 29.546875 20.152344 L 10.087891 41.251953 L 0 67.789062 L 0.43359375 96.009766 L 11.240234 122.08203 L 31.037109 142.43359 L 57.273438 154.07031 L 86.373047 154.9707 L 114.0293 144.51172 L 135.76758 123.84766 L 147.77344 96.005859 L 147.77344 65.503906 L 135.66211 37.511719 L 113.58789 16.724609 L 85.431641 6.390625 z " />
  <path
     id="polygon84"
     d="M 808.86914 592.4668 L 780.27539 604.22461 L 758.42578 626.2168 L 746.85547 654.67773 L 747.01953 685.11328 L 758.66797 713.22266 L 780.40039 734.91016 L 808.65039 746.45508 L 838.97852 746.44531 L 867.19531 734.79297 L 888.9043 713.03906 L 900.50195 684.69922 L 900.50195 654.56836 L 889.30078 626.66406 L 868.10156 604.78711 L 839.74414 592.62695 L 808.86914 592.4668 z M 815.92578 628.53906 L 832.28906 628.76367 L 847.29688 634.90039 L 858.75 646.36914 L 864.88281 661.40625 L 864.73633 677.66016 L 858.33984 692.56641 L 847.03516 704.20312 L 832.09961 710.58594 L 815.79883 710.7207 L 800.82031 704.44141 L 789.18555 692.98828 L 782.76953 677.90234 L 782.89648 661.53711 L 789.26172 646.45508 L 800.94141 634.99609 L 815.92578 628.53906 z " />
  <path
     id="polygon115"
     d="M 857.1543 746.45508 L 806.55469 767.67383 L 768.00195 806.48828 L 747.05664 857 L 746.85547 911.97266 L 767.67773 963.05469 L 806.55859 1002.4141 L 857.46875 1024 L 912.83594 1023.9746 L 963.48047 1002.5801 L 1001.6426 963.67383 L 1022.2129 913.26172 L 1022.2129 858.47266 L 1001.7461 807.42188 L 963.13867 767.89062 L 912.21094 746.51562 L 857.1543 746.45508 z M 861.61133 768.49023 L 907.75781 768.5957 L 950.35742 786.61328 L 982.83008 819.67578 L 1000.1387 862.6875 L 1000.2969 908.93164 L 983.13281 951.50195 L 950.87109 984.10742 L 908.33203 1001.8613 L 862.00586 1001.7598 L 819.31445 983.73438 L 786.55469 950.66797 L 768.9668 907.73438 L 769.02734 861.45508 L 786.51172 818.82031 L 819.11719 786.2207 L 861.61133 768.49023 z "
     style="fill:url(#radialGradient181)" />
  <path
     id="polygon162"
     d="M 859.23633 335.16992 L 816.2832 352.96094 L 783.41016 385.83398 L 765.61914 428.78516 L 765.61914 475.27734 L 783.41016 518.23047 L 816.28516 551.10352 L 859.23633 568.89648 L 905.72852 568.89648 L 948.67969 551.10352 L 981.55469 518.23047 L 999.3457 475.27734 L 999.3457 428.78516 L 981.55469 385.83398 L 948.67969 352.96094 L 905.72852 335.16992 L 859.23633 335.16992 z M 872.7207 402.95703 L 892.24414 402.95703 L 910.28125 410.42773 L 924.08594 424.23242 L 931.55664 442.26953 L 931.55664 461.79492 L 924.08594 479.83008 L 910.28125 493.63672 L 892.24414 501.10742 L 872.7207 501.10742 L 854.68359 493.63672 L 840.87891 479.83008 L 833.40625 461.79492 L 833.40625 442.27148 L 840.87891 424.23242 L 854.68359 410.42773 L 872.7207 402.95703 z " />
  <rect
     style="fill:#cccccc;fill-opacity:1;stroke-width:15;stroke-linecap:square"
     id="rect1"
     width="1024"
     height="1024"
     x="1142.0542"
     y="41.781219"
     rx="2.3779886"
     ry="2.3779886" />
  <path
     id="polygon1-3"
     d="m 1198.9595,423.19922 -9.3809,102.5625 -2.5449,102.30859 -41.002,-1.08789 9.4961,106.85547 37.3985,0.99219 48.8574,0.53516 h 52.8808 l 48.8575,-0.53711 37.3886,-0.99024 12.2422,-106.85547 -40.9961,1.08789 -3.6972,-102.30859 -10.8868,-102.5625 -44.9668,0.49219 h -48.6738 z"
     style="fill:#cccccc;fill-opacity:1" />
  <path
     id="polygon4-6"
     d="m 1411.9829,746.45508 -10.1035,102.91016 -0.5059,102.34175 41.0606,2.0528 1.6699,105.91601 48.8848,0.6563 52.8769,-0.6563 48.8223,-1.873 37.334,-2.8028 16.455,-106.36721 -40.9335,3.0742 -7.2891,-102.34175 -15.2012,-102.91016 -44.9375,1.72266 -48.6699,0.60546 -44.9941,-0.60546 z"
     style="fill:#cccccc;fill-opacity:1" />
  <path
     id="polygon8-7"
     d="m 1167.1938,743.58594 -15.9179,103.21875 -5.2442,102.3047 40.9903,4.7559 8.6406,104.12111 48.8535,2.3457 h 52.8828 l 48.8613,-2.3457 5.8848,-104.12111 41.0078,-4.7559 -4.0957,-102.3047 -14.414,-103.21875 -34.4239,3.99219 -44.9746,2.16015 h -48.6738 l -44.9649,-2.16015 z"
     style="fill:#cccccc;fill-opacity:1" />
  <path
     id="polygon11-5"
     d="m 1464.3247,424.70508 -14.9531,102.75 -7.0469,102.30664 -40.9512,-2.48828 16.7012,106.64062 37.3476,2.26953 48.8301,1.51758 52.8809,0.53125 48.8769,-0.53125 1.4278,-106.27539 41.0449,-1.66406 -0.7461,-102.30664 -10.3476,-102.75 -34.4571,1.39648 -44.9883,0.49024 -48.6718,-0.49024 z"
     style="fill:#cccccc;fill-opacity:1" />
  <path
     id="polygon15-3"
     d="m 1393.9236,43.57263 -127.7714,0.004 0.9184,43.81489 v 47.41399 l -0.9184,43.79283 -1.6982,33.5048 127.7713,-0.004 1.6983,-33.50479 0.9183,-43.79284 V 87.38737 Z"
     style="fill:url(#linearGradient3);stroke-width:1.0266" />
  <path
     id="polygon18-5"
     d="m 1780.5259,442.16797 -4.5996,87.42969 -3.7286,255.9414 24.9512,0.5293 32.5957,0.18555 35.2793,-0.18555 32.5918,-0.5293 24.9395,-0.79101 -11.3067,-255.86328 -22.4453,0.71289 -6.6894,-87.42969 -26.3985,0.42773 -28.5761,0.15039 -26.4024,-0.15039 z"
     style="fill:url(#linearGradient15)" />
  <path
     id="polygon51-6"
     d="m 1489.018,167.4055 -42.0233,19.29312 -32.1612,35.64888 -17.4078,46.57701 v 50.4166 l 17.4078,46.577 32.1612,35.64889 42.0233,19.29313 h 45.4846 l 42.0213,-19.29313 32.1612,-35.64889 17.4057,-46.577 v -50.4166 l -17.4057,-46.57701 -32.1633,-35.64888 -42.0212,-19.29312 z m -0.9034,43.98913 h 29.6956 l 27.4361,12.5955 20.9979,23.27399 11.3655,30.4118 v 32.91377 l -11.3655,30.41182 -20.9979,23.27399 -27.4361,12.5955 h -29.6956 l -27.4361,-12.5955 -20.998,-23.27399 -11.3654,-30.41182 v -32.91377 l 11.3654,-30.4118 20.998,-23.27399 z"
     style="stroke-width:1.03576"
     sodipodi:nodetypes="cccccccccccccccccccccccccccccccccc" />
  <path
     id="polygon67-2"
     d="m 1934.8677,349.11133 -4.0918,87.68555 22.3242,2.91406 29.2246,2.73242 31.6816,2.13867 29.3086,1.21485 -7.1621,-88.58594 -26.3789,-1.09375 -28.5117,-1.92383 -26.3027,-2.46094 z"
     style="fill:url(#linearGradient19)" />
  <path
     id="polygon69-9"
     d="m 1988.3247,710.92188 -32.5977,1.5664 -24.9511,2.89453 5.08,256.47658 5.0567,88.47271 20.2109,-2.3418 26.4024,-1.2696 h 28.5761 l 26.3985,1.2696 20.2031,2.3418 8.4746,-88.47271 9.959,-256.47658 -24.9434,-2.89453 -32.5898,-1.5664 z"
     style="fill:url(#linearGradient23)" />
  <path
     id="polygon74-1"
     d="m 1953.1001,439.71094 -10.0234,256.22656 32.4726,3.03711 35.1992,2.375 32.5664,1.35156 V 445.79688 l -29.3086,-1.21485 -31.6816,-2.13867 z"
     style="fill:url(#linearGradient21)" />
  <path
     id="polygon75-2"
     d="m 1763.977,438.94922 -26.375,1.42187 -28.5625,0.9375 -26.3964,0.31641 -10.2168,88.07227 -8.8614,256.55664 32.5899,-0.38672 35.2597,-1.16016 32.5625,-1.75586 -1.1797,-256.22851 z"
     style="fill:url(#linearGradient13)" />
  <path
     id="polygon83-7"
     d="m 1250.6475,127.83789 -12.76,2.30993 -16.3421,4.1127 -17.4332,5.29111 -15.8755,5.65976 -11.897,5.17178 74.3078,118.59925 z"
     style="stroke-width:1.09104" />
  <path
     id="polygon99-0"
     d="m 1915.5552,261.50391 -18.4434,5.9375 v 16.69922 l 18.4434,5.93945 z m -18.086,36.79687 -0.3574,28.57422 0.3574,26.39844 21.4414,-16.66406 -0.207,-15.42774 0.207,-16.69726 z m 0.3028,63.19531 -0.6602,26.41993 0.6602,28.56836 22.8769,-6.4629 -0.3847,-16.69335 0.3847,-15.44141 z" />
  <path
     id="polygon100-9"
     d="m 1225.3723,266.92709 -27.3559,0.002 -25.2731,11.60346 -19.344,21.44124 -10.4678,28.01288 v 30.32155 l 10.4678,28.01287 19.344,21.44124 25.2731,11.60347 h 27.3559 l 25.2752,-11.60347 -12.2163,-32.89999 -12.4044,5.69565 h -13.4279 l -12.4061,-5.69558 -9.4939,-10.5244 -5.1404,-13.74995 V 335.7049 l 5.1404,-13.74995 9.4939,-10.5244 12.4061,-5.69565 h 13.4262 l 12.4061,5.69565 12.2163,-32.89792 z"
     style="stroke-width:1.06108"
     sodipodi:nodetypes="ccccccccccccccccccccccccc" />
  <path
     id="polygon117"
     d="m 2109.7505,445.4043 -58.2149,112.6582 15.0254,3.5 16.3399,3.44727 15.166,2.87109 11.6836,1.85352 z" />
  <path
     id="polygon120"
     d="m 2109.7895,577.95508 -11.7148,1.70898 -15.1855,2.78516 -16.3419,3.43555 -15.0117,3.56445 58.2539,113.25195 z" />
  <path
     id="polygon124"
     d="m 2115.0638,211.45327 -50.5641,124.0985 16.3678,3.65995 17.7541,3.76821 16.4422,3.30117 z"
     style="stroke-width:1.08694" />
  <path
     id="polygon130"
     d="m 1763.186,794.47461 -48.8574,20.23828 -37.3926,37.39258 -20.2383,48.85742 v 52.8828 l 20.2383,48.85741 37.3926,37.3926 48.8574,20.2364 h 52.8828 l 48.8575,-20.2364 37.3925,-37.3926 20.2364,-48.85741 v -52.8828 l -20.2364,-48.85742 -37.3945,-37.39258 -48.8555,-20.23828 z m 3.3477,16.83594 h 46.1855 l 42.67,17.67578 32.6562,32.65625 17.6758,42.66797 v 46.18554 l -17.6738,42.6699 -32.6582,32.65821 -42.67,17.6739 h -46.1855 l -42.668,-17.6739 -32.6582,-32.65821 -17.6738,-42.6699 V 904.3125 l 17.6738,-42.66992 32.6582,-32.65625 z"
     style="fill:url(#radialGradient25)" />
  <path
     id="polygon146"
     d="m 2051.5356,349.11133 27.625,75.50976 27.6075,-75.50976 -17.92,0.85937 h -19.3964 z"
     style="fill:#ffffff;fill-opacity:1" />
  <path
     id="polygon147"
     d="m 1928.3123,173.55728 2.1219,33.89361 1.1482,44.30229 v 47.96996 l -1.1482,44.33068 129.1824,0.006 1.1482,-44.33068 v -47.96998 l -1.1482,-44.30228 -2.1199,-33.8936 z"
     style="fill:url(#linearGradient17);stroke-width:1.03864" />
  <path
     id="polygon150"
     d="m 1264.1759,213.34626 0.9074,34.24501 0.4895,44.74649 v 48.43337 l -0.4895,44.7506 -0.9074,34.25116 h 130.6468 l 0.9074,-34.25116 0.4895,-44.7506 v -48.43337 l -0.4895,-44.74649 -0.9074,-34.24501 z"
     style="fill:url(#linearGradient11);stroke-width:1.04871" />
  <path
     id="polygon153"
     d="m 1654.0542,41.78123 2.1372,44.47153 v 48.1334 l -2.1373,44.46339 128.9997,0.002 2.1372,-44.46543 v -48.1334 l -2.1352,-44.47153 z"
     style="fill:url(#linearGradient9);stroke-width:1.04217" />
  <path
     id="polygon178-3"
     d="m 1748.7995,179.74387 -44.3441,18.36727 -33.9375,33.93754 -18.3673,44.34409 v 47.99563 l 18.3673,44.34409 33.9375,33.93958 44.3441,18.36727 h 47.9977 l 44.342,-18.36727 33.9396,-33.93958 18.3673,-44.34409 v -47.99563 l -18.3673,-44.34409 -33.9396,-33.93754 -44.342,-18.36727 z m 15.3095,76.95775 h 17.3786 l 16.0572,6.65111 12.2905,12.29052 6.6511,16.0589 v 17.37862 l -6.6511,16.05715 -12.2905,12.29052 -16.0572,6.65111 h -17.3803 l -16.0572,-6.65111 -12.2887,-12.29052 -6.6511,-16.05715 V 291.7004 l 6.6511,-16.05715 12.2887,-12.29052 z"
     style="stroke-width:1.03924"
     sodipodi:nodetypes="cccccccccccccccccccccccccccccccccc" />
  <path
     id="polygon194"
     d="m 2004.3498,85.97951 29.375,86.61129 46.7409,-86.61129 -15.1404,0.75907 -19.7832,0.2674 -21.4113,-0.2674 z"
     style="fill:#ffffff;fill-opacity:1;stroke-width:1.1041" />
  <path
     id="polygon198"
     d="m 1892.7496,81.21688 -13.2823,7.3059 -17.4953,9.27429 -19.045,9.82682 -17.696,8.88795 -13.6535,6.59365 81.1721,57.70694 z"
     style="fill:#ffffff;fill-opacity:1;stroke-width:1.10506" />
  <path
     id="polygon201"
     d="m 1927.1422,85.42001 46.5915,87.24787 29.6173,-87.24787 -19.809,0.61532 -21.4368,0.2159 -19.8046,-0.2159 z"
     style="fill:#ffffff;fill-opacity:1;stroke-width:1.10541" />
  <path
     style="fill:#000000;fill-opacity:1;stroke:none;stroke-width:1.10506px;stroke-linecap:butt;stroke-linejoin:miter;stroke-opacity:1"
     d="m 1852.1636,151.95896 40.586,-23.43238 v 52.28585 z"
     id="path25" />
  <path
     style="fill:#000000;fill-opacity:1;stroke:none;stroke-width:1.10541px;stroke-linecap:butt;stroke-linejoin:miter;stroke-opacity:1"
     d="m 1950.4379,129.04394 h 38.1044 l -14.8086,43.62394 z"
     id="path26" />
  <path
     style="fill:#000000;fill-opacity:1;stroke:none;stroke-width:1.1041px;stroke-linecap:butt;stroke-linejoin:miter;stroke-opacity:1"
     d="m 2019.0373,129.28515 h 38.0579 l -23.3704,43.30565 z"
     id="path27" />
  <path
     style="fill:#000000;fill-opacity:1;stroke:none;stroke-width:1px;stroke-linecap:butt;stroke-linejoin:miter;stroke-opacity:1"
     d="m 2065.3481,386.86621 h 27.6162 l -13.8037,37.75488 z"
     id="path28" />
  <g
     id="g1">
    <path
       style="fill:#aa0000;stroke:none;stroke-width:1px;stroke-linecap:butt;stroke-linejoin:miter;stroke-opacity:1"
       d="M 6.5090104,303.827 H 320.94432 L 5.0109404,486.23123 Z"
       id="path185" />
    <path
       style="color:#000000;fill:url(#linearGradient5);-inkscape-stroke:none"
       d="m 6.5273437,284.17969 v 10 H 321.99414 v -10 z"
       id="path1" />
  </g>
  <g
     id="g3"
     transform="matrix(-1,0,0,1,749.83225,433.73749)">
    <path
       style="fill:#aa0000;stroke:none;stroke-width:1px;stroke-linecap:butt;stroke-linejoin:miter;stroke-opacity:1"
       d="M 6.5090104,303.827 H 320.94432 L 5.0109404,486.23123 Z"
       id="path2" />
    <path
       style="color:#000000;fill:url(#linearGradient6);-inkscape-stroke:none"
       d="m 6.5273437,284.17969 v 10 H 321.99414 v -10 z"
       id="path3" />
  </g>
</svg>
