<?xml version="1.0" encoding="UTF-8" standalone="no"?>
<svg
   width="1024"
   height="1024"
   viewBox="0 0 1024 1024"
   version="1.1"
   id="svg40"
   sodipodi:docname="Vertical_stabilizer.svg"
   inkscape:version="1.3.2 (091e20ef0f, 2023-11-25, custom)"
   xmlns:inkscape="http://www.inkscape.org/namespaces/inkscape"
   xmlns:sodipodi="http://sodipodi.sourceforge.net/DTD/sodipodi-0.dtd"
   xmlns="http://www.w3.org/2000/svg"
   xmlns:svg="http://www.w3.org/2000/svg">
  <defs
     id="defs40" />
  <sodipodi:namedview
     id="namedview40"
     pagecolor="#505050"
     bordercolor="#ffffff"
     borderopacity="1"
     inkscape:showpageshadow="0"
     inkscape:pageopacity="0"
     inkscape:pagecheckerboard="1"
     inkscape:deskcolor="#d1d1d1"
     inkscape:zoom="0.24072265"
     inkscape:cx="1030.2313"
     inkscape:cy="434.10954"
     inkscape:window-width="1366"
     inkscape:window-height="724"
     inkscape:window-x="-1"
     inkscape:window-y="-1"
     inkscape:window-maximized="1"
     inkscape:current-layer="svg40" />
  <desc
     id="desc1">Boeing_747SP.blend, (Blender 3.3.9)</desc>
  <rect
     style="fill:#ffffff;fill-opacity:1;stroke-width:15;stroke-linecap:square"
     id="rect1"
     width="1024"
     height="1024"
     x="0"
     y="0"
     rx="2.3779886"
     ry="2.3779886" />
  <path
     id="polygon1"
     d="m 139.64648,505.07227 34.91016,90.39648 18.95117,-2.29687 42.71289,-5.17579 211.88086,354.02735 8.2168,15.04101 -43.29102,48.06255 69.41602,-0.2461 125.81445,-0.4454 251.62891,-0.8906 29.58594,-0.4179 -59.19532,-61.10356 -532.76953,-421.58008 -78.93164,-7.68359 z"
     style="fill:#ffffff;fill-opacity:1"
     sodipodi:nodetypes="ccccccccccccccc" />
  <path
     style="fill:#aa0000;stroke:none;stroke-width:1px;stroke-linecap:butt;stroke-linejoin:miter;stroke-opacity:1"
     d="m 859.88672,1003.5448 -529.58789,1.5627 -155.74219,-409.63875 -27.18181,-70.38466 142.47508,11.59764 z"
     id="path6"
     sodipodi:nodetypes="cccccc" />
  <path
     d="m 178.04688,36.59375 34.91015,90.39453 18.94922,-2.29687 42.71289,-5.17383 211.88281,354.02734 8.2168,15.04102 -43.00781,47.74609 -1.07422,0.004 -40.96875,0.14453 -40.96875,0.14648 13.16406,0.10938 13.16602,0.11133 56.71875,-0.20118 69.0957,-0.24609 125.8125,-0.44531 251.62891,-0.89063 29.58789,-0.41797 L 868.67773,473.54492 335.9082,51.964844 256.97656,44.279297 Z m 416.51757,436.95117 51.83203,62.09766 z"
     style="fill:#ffffff;fill-opacity:1"
     id="path1" />
  <path
     style="fill:#aa0000;stroke:none;stroke-width:1px;stroke-linecap:butt;stroke-linejoin:miter;stroke-opacity:1"
     d="M 898.28711,535.06443 368.69922,536.62704 212.95703,126.98828 185.77522,56.60362 328.2503,68.20126 Z"
     id="path4"
     sodipodi:nodetypes="cccccc" />
  <text
     xml:space="preserve"
     style="font-size:168.626px;line-height:0;font-family:'Open Sans';-inkscape-font-specification:'Open Sans';text-decoration-color:#000000;letter-spacing:0px;word-spacing:0px;fill:#ffffff;stroke-width:0.422702;-inkscape-stroke:none;stop-color:#000000"
     x="-751.17017"
     y="-36.890137"
     id="text5"
     transform="matrix(-0.70710678,-0.70710678,-0.70710678,0.70710678,0,0)"><tspan
       sodipodi:role="line"
       id="tspan5"
       x="-751.17017"
       y="-36.890137"
       style="font-style:normal;font-variant:normal;font-weight:normal;font-stretch:normal;font-size:168.626px;font-family:'Hemi Head';-inkscape-font-specification:'Hemi Head';fill:#ffffff;stroke-width:0.422702">944</tspan></text>
  <text
     xml:space="preserve"
     style="font-size:168.626px;line-height:0;font-family:'Open Sans';-inkscape-font-specification:'Open Sans';text-decoration-color:#000000;letter-spacing:0px;word-spacing:0px;fill:#ffffff;stroke-width:0.422702;-inkscape-stroke:none;stop-color:#000000"
     x="683.27002"
     y="328.82925"
     id="text6"
     transform="rotate(45)"><tspan
       sodipodi:role="line"
       id="tspan6"
       x="683.27002"
       y="328.82925"
       style="font-style:normal;font-variant:normal;font-weight:normal;font-stretch:normal;font-size:168.626px;font-family:'Hemi Head';-inkscape-font-specification:'Hemi Head';fill:#ffffff;stroke-width:0.422702">944</tspan></text>
</svg>
