<?xml version="1.0" standalone="no"?>
<!DOCTYPE svg PUBLIC "-//W3C//DTD SVG 1.1//EN" 
  "http://www.w3.org/Graphics/SVG/1.1/DTD/svg11.dtd">
<svg width="1024" height="1024" viewBox="0 0 1024 1024"
     xmlns="http://www.w3.org/2000/svg" version="1.1">
<desc>Boeing_747SP.blend, (Blender 3.3.9)</desc>
<polygon stroke="black" stroke-width="1" fill="rgb(204, 204, 204)" fill-opacity="1" points="18.487,221.111 36.356,222.539 260.021,27.394 271.114,0.758 " />
<polygon stroke="black" stroke-width="1" fill="rgb(204, 204, 204)" fill-opacity="1" points="588.687,666.081 597.878,661.429 607.834,145.621 595.673,120.964 " />
<polygon stroke="black" stroke-width="1" fill="rgb(204, 204, 204)" fill-opacity="1" points="253.946,898.041 242.304,873.134 200.678,909.426 207.478,949.508 " />
<polygon stroke="black" stroke-width="1" fill="rgb(204, 204, 204)" fill-opacity="1" points="539.624,675.925 496.242,150.201 453.992,114.726 425.702,323.512 396.400,547.792 " />
<polygon stroke="black" stroke-width="1" fill="rgb(204, 204, 204)" fill-opacity="1" points="263.495,332.291 260.021,27.394 36.356,222.539 129.260,449.326 " />
<polygon stroke="black" stroke-width="1" fill="rgb(204, 204, 204)" fill-opacity="1" points="507.608,124.656 525.387,115.174 489.069,84.679 452.750,54.185 457.174,68.234 " />
<polygon stroke="black" stroke-width="1" fill="rgb(204, 204, 204)" fill-opacity="1" points="547.647,462.738 542.215,465.607 547.565,1024.000 565.690,1015.196 " />
<polygon stroke="black" stroke-width="1" fill="rgb(204, 204, 204)" fill-opacity="1" points="629.601,1004.038 651.086,1024.000 651.086,816.985 631.890,820.454 " />
<polygon stroke="black" stroke-width="1" fill="rgb(204, 204, 204)" fill-opacity="1" points="618.878,527.805 627.618,529.217 627.618,507.594 619.157,507.626 " />
<polygon stroke="black" stroke-width="1" fill="rgb(204, 204, 204)" fill-opacity="1" points="242.304,873.134 263.061,357.648 133.461,478.556 167.238,699.133 200.678,909.426 " />
<polygon stroke="black" stroke-width="1" fill="rgb(204, 204, 204)" fill-opacity="1" points="541.978,702.528 539.624,675.925 396.400,547.792 392.782,577.258 " />
<polygon stroke="black" stroke-width="1" fill="rgb(204, 204, 204)" fill-opacity="1" points="588.751,693.239 597.975,686.789 597.878,661.429 588.687,666.081 " />
<polygon stroke="black" stroke-width="1" fill="rgb(204, 204, 204)" fill-opacity="1" points="597.301,1018.410 607.834,991.547 597.975,686.789 588.751,693.239 " />
<polygon stroke="black" stroke-width="1" fill="rgb(204, 204, 204)" fill-opacity="1" points="528.349,999.670 541.978,702.528 392.782,577.258 300.769,809.452 " />
<polygon stroke="black" stroke-width="1" fill="rgb(204, 204, 204)" fill-opacity="1" points="565.312,115.195 546.463,114.113 541.978,434.492 546.642,434.687 " />
<polygon stroke="black" stroke-width="1" fill="rgb(204, 204, 204)" fill-opacity="1" points="385.546,537.304 369.914,520.230 365.392,546.332 381.811,564.019 " />
<polygon stroke="black" stroke-width="1" fill="rgb(204, 204, 204)" fill-opacity="1" points="263.061,357.648 263.495,332.291 129.260,449.326 133.461,478.556 " />
<polygon stroke="black" stroke-width="1" fill="rgb(204, 204, 204)" fill-opacity="1" points="121.690,488.171 133.461,478.556 129.260,449.326 117.375,461.591 " />
<polygon stroke="black" stroke-width="1" fill="rgb(204, 204, 204)" fill-opacity="1" points="103.932,503.023 121.690,488.171 117.375,461.591 98.748,476.969 " />
<polygon stroke="black" stroke-width="1" fill="rgb(204, 204, 204)" fill-opacity="1" points="583.077,1024.000 597.301,1018.410 588.751,693.239 578.012,703.884 " />
<polygon stroke="black" stroke-width="1" fill="rgb(204, 204, 204)" fill-opacity="1" points="578.012,703.884 588.751,693.239 588.687,666.081 578.022,672.726 " />
<polygon stroke="black" stroke-width="1" fill="rgb(204, 204, 204)" fill-opacity="1" points="135.126,1024.000 171.302,986.754 198.011,958.458 188.543,967.408 " />
<polygon stroke="black" stroke-width="1" fill="rgb(204, 204, 204)" fill-opacity="1" points="271.114,906.161 253.946,898.041 207.478,949.508 203.515,959.031 235.333,937.358 " />
<polygon stroke="black" stroke-width="1" fill="rgb(204, 204, 204)" fill-opacity="1" points="578.022,672.726 588.687,666.081 595.673,120.964 578.338,113.204 " />
<polygon stroke="black" stroke-width="1" fill="rgb(204, 204, 204)" fill-opacity="1" points="644.865,609.969 629.601,633.748 631.890,816.577 644.865,816.985 " />
<polygon stroke="black" stroke-width="1" fill="rgb(204, 204, 204)" fill-opacity="1" points="396.400,547.792 385.546,537.304 381.811,564.019 392.782,577.258 " />
<polygon stroke="black" stroke-width="1" fill="rgb(204, 204, 204)" fill-opacity="1" points="578.012,140.023 565.312,115.195 546.642,434.687 553.170,436.438 " />
<polygon stroke="black" stroke-width="1" fill="rgb(204, 204, 204)" fill-opacity="1" points="553.170,436.438 546.642,434.687 547.647,462.738 554.517,463.111 " />
<polygon stroke="black" stroke-width="1" fill="rgb(204, 204, 204)" fill-opacity="1" points="300.769,809.452 285.173,808.976 541.978,1024.000 528.349,999.670 " />
<polygon stroke="black" stroke-width="1" fill="rgb(204, 204, 204)" fill-opacity="1" points="554.517,463.111 547.647,462.738 565.690,1015.196 578.012,990.098 " />
<polygon stroke="black" stroke-width="1" fill="rgb(204, 204, 204)" fill-opacity="1" points="496.242,150.201 507.608,124.656 457.174,68.234 453.992,114.726 " />
<polygon stroke="black" stroke-width="1" fill="rgb(204, 204, 204)" fill-opacity="1" points="441.747,55.567 457.174,68.234 387.382,0.000 " />
<polygon stroke="black" stroke-width="1" fill="rgb(204, 204, 204)" fill-opacity="1" points="199.552,968.555 203.515,959.031 171.302,986.754 135.126,1024.000 " />
<polygon stroke="black" stroke-width="1" fill="rgb(204, 204, 204)" fill-opacity="1" points="457.174,68.234 452.750,54.185 387.382,0.000 " />
<polygon stroke="black" stroke-width="1" fill="rgb(204, 204, 204)" fill-opacity="1" points="18.487,221.111 0.000,244.343 128.422,447.830 129.260,449.326 36.356,222.539 " />
<polygon stroke="black" stroke-width="1" fill="rgb(204, 204, 204)" fill-opacity="1" points="611.441,413.013 618.773,426.737 619.707,402.089 607.834,402.089 " />
<polygon stroke="black" stroke-width="1" fill="rgb(204, 204, 204)" fill-opacity="1" points="611.276,513.936 607.834,529.218 618.878,529.172 618.878,490.512 " />
<polygon stroke="black" stroke-width="1" fill="rgb(204, 204, 204)" fill-opacity="1" points="627.698,586.185 628.628,539.549 626.787,541.733 618.717,1022.182 629.601,1024.000 627.630,797.410 " />
<polygon stroke="black" stroke-width="1" fill="rgb(204, 204, 204)" fill-opacity="1" points="629.601,529.217 627.273,536.568 626.787,541.733 " />
<polygon stroke="black" stroke-width="1" fill="rgb(204, 204, 204)" fill-opacity="1" points="395.567,574.894 271.114,781.096 285.173,808.976 300.769,809.452 392.782,577.258 " />
<polygon stroke="black" stroke-width="1" fill="rgb(204, 204, 204)" fill-opacity="1" points="619.698,451.403 619.698,426.737 611.151,440.796 607.834,451.853 " />
<polygon stroke="black" stroke-width="1" fill="rgb(204, 204, 204)" fill-opacity="1" points="618.719,490.512 618.878,451.853 607.834,451.853 611.029,467.137 " />
<polygon stroke="black" stroke-width="1" fill="rgb(204, 204, 204)" fill-opacity="1" points="618.717,1022.182 626.787,541.733 624.946,543.918 623.466,584.543 615.684,797.344 607.834,1020.364 " />
<polygon stroke="black" stroke-width="1" fill="rgb(204, 204, 204)" fill-opacity="1" points="626.787,541.733 628.628,539.549 629.601,529.217 " />
<polygon stroke="black" stroke-width="1" fill="rgb(204, 204, 204)" fill-opacity="1" points="626.787,541.733 627.273,536.568 624.946,543.918 " />
<polygon stroke="black" stroke-width="1" fill="rgb(204, 204, 204)" fill-opacity="1" points="198.011,958.458 171.302,986.754 207.478,949.508 " />
<polygon stroke="black" stroke-width="1" fill="rgb(204, 204, 204)" fill-opacity="1" points="171.302,986.754 203.515,959.031 207.478,949.508 " />
<polygon stroke="black" stroke-width="1" fill="rgb(204, 204, 204)" fill-opacity="1" points="235.333,937.358 203.515,959.031 199.552,968.555 " />

</svg>
