<?xml version="1.0" encoding="UTF-8" standalone="no"?>
<svg
   width="1024"
   height="1024"
   viewBox="0 0 1024 1024"
   version="1.1"
   id="svg40"
   sodipodi:docname="Vertical_stabilizer.svg"
   inkscape:version="1.3.2 (091e20ef0f, 2023-11-25, custom)"
   xml:space="preserve"
   xmlns:inkscape="http://www.inkscape.org/namespaces/inkscape"
   xmlns:sodipodi="http://sodipodi.sourceforge.net/DTD/sodipodi-0.dtd"
   xmlns="http://www.w3.org/2000/svg"
   xmlns:svg="http://www.w3.org/2000/svg"><defs
     id="defs40"><inkscape:perspective
       sodipodi:type="inkscape:persp3d"
       inkscape:vp_x="177.27994 : 277.84749 : 1"
       inkscape:vp_y="4.4979686e-14 : 553.03945 : 0"
       inkscape:vp_z="591.41192 : 294.58928 : 1"
       inkscape:persp3d-origin="318.10666 : 197.58964 : 1"
       id="perspective2464" /></defs><sodipodi:namedview
     id="namedview40"
     pagecolor="#505050"
     bordercolor="#ffffff"
     borderopacity="1"
     inkscape:showpageshadow="0"
     inkscape:pageopacity="0"
     inkscape:pagecheckerboard="1"
     inkscape:deskcolor="#d1d1d1"
     inkscape:zoom="0.34043325"
     inkscape:cx="602.17385"
     inkscape:cy="556.64363"
     inkscape:window-width="1366"
     inkscape:window-height="724"
     inkscape:window-x="-1"
     inkscape:window-y="-1"
     inkscape:window-maximized="1"
     inkscape:current-layer="svg40" /><desc
     id="desc1">Boeing_747SP.blend, (Blender 3.3.9)</desc><rect
     style="fill:#ffffff;fill-opacity:1;stroke-width:15;stroke-linecap:square"
     id="rect1"
     width="1024"
     height="1024"
     x="0"
     y="0"
     rx="2.3779886"
     ry="2.3779886" /><path
     id="polygon1"
     d="m 139.64648,505.07227 34.91016,90.39648 18.95117,-2.29687 42.71289,-5.17579 211.88086,354.02735 8.2168,15.04101 -43.29102,48.06255 69.41602,-0.2461 125.81445,-0.4454 251.62891,-0.8906 29.58594,-0.4179 -59.19532,-61.10356 -532.76953,-421.58008 -78.93164,-7.68359 z"
     style="fill:#ffffff;fill-opacity:1"
     sodipodi:nodetypes="ccccccccccccccc" /><path
     d="m 178.04688,36.59375 34.91015,90.39453 18.94922,-2.29687 42.71289,-5.17383 211.88281,354.02734 8.2168,15.04102 -43.00781,47.74609 -1.07422,0.004 -40.96875,0.14453 -40.96875,0.14648 13.16406,0.10938 13.16602,0.11133 56.71875,-0.20118 69.0957,-0.24609 125.8125,-0.44531 251.62891,-0.89063 29.58789,-0.41797 L 868.67773,473.54492 335.9082,51.964844 256.97656,44.279297 Z m 416.51757,436.95117 51.83203,62.09766 z"
     style="fill:#ffffff;fill-opacity:1"
     id="path1" /><path
     style="fill:#ffffff;stroke:none;stroke-width:1px;stroke-linecap:butt;stroke-linejoin:miter;stroke-opacity:1"
     d="M 178.04688,36.59375 335.9082,51.964844 868.67773,473.54492 927.87305,534.64657 388.44629,536.79209 212.95703,126.98828 Z"
     id="path2" /><path
     style="fill:#ffffff;stroke:none;stroke-width:1px;stroke-linecap:butt;stroke-linejoin:miter;stroke-opacity:1"
     d="m 139.64648,505.00047 157.86133,15.37109 532.76952,421.58007 59.19533,61.10167 -539.42677,2.1455 -175.48926,-409.80381 z"
     id="path3" /><path
     style="fill:#d40000;stroke-width:1.72424"
     d="m 378.341,371.64476 -25.47071,-14.71752 0.4692,-31.15666 0.46895,-31.15668 21.55305,-12.3712 21.55304,-12.3712 0.86216,-26.34262 0.86208,-26.34261 26.8944,-15.24668 26.89455,-15.24667 26.9144,15.08101 26.91449,15.08099 0.0744,26.1754 0.0744,26.17541 23.27727,13.13908 23.27728,13.13908 v 29.9689 29.96891 l -4.74167,3.27987 c -6.71225,4.64313 -48.46825,27.99135 -50.05961,27.99135 -0.72656,0 -10.92672,-5.43137 -22.66704,-12.0697 -11.74039,-6.63834 -22.16656,-12.06972 -23.16919,-12.06972 -1.00265,0 -11.35361,5.43138 -23.00193,12.06972 -11.64831,6.63833 -22.15272,11.9953 -23.34312,11.90436 -1.19048,-0.0909 -13.62608,-6.7882 -27.6348,-14.88282 z m 19.41737,-25.04052 -0.0192,-15.94925 -12.85785,-7.32804 c -7.072,-4.03041 -13.65895,-7.32803 -14.63783,-7.32803 -1.09089,0 -1.77992,5.96716 -1.77992,15.41684 v 15.41682 l 14.22505,7.82865 c 7.82376,4.30575 14.41895,7.84297 14.65607,7.86045 0.23703,0.0176 0.4228,-7.14535 0.4128,-15.91744 z m 32.85928,8.03926 13.7136,-7.91001 V 330.4692 314.20493 l -9.05232,5.31076 c -4.97873,2.92092 -11.57392,6.5719 -14.65608,8.11332 l -5.60375,2.80257 v 16.06095 c 0,8.83354 0.0828,16.55896 0.34968,16.11485 0.35672,-0.59271 7.70632,-3.61338 15.24887,-7.96388 z m 58.54391,-8.12726 V 330.479 l -12.72511,-7.24005 c -6.99889,-3.98201 -13.20616,-7.24003 -13.79392,-7.24003 -0.58801,0 -1.06648,7.17717 -1.06352,15.94926 v 15.94924 l 13.35752,7.28654 c 7.34672,4.00758 13.55151,7.3052 13.78863,7.32803 0.23705,0.0228 0.43104,-7.17526 0.43104,-15.99575 z m 32.84096,8.12726 13.71361,-7.91001 V 330.4692 314.20493 l -9.05223,5.31076 c -4.97882,2.92092 -11.57401,6.5719 -14.65609,8.11332 l -5.60384,2.80257 v 16.06095 c 0,8.83354 0.42416,16.06097 0.94248,16.06097 0.51832,0 7.11352,-3.5595 14.65607,-7.91 z M 420.19181,308.6004 c 7.11248,-4.05034 12.69408,-8.11614 12.40351,-9.03512 -0.29071,-0.91901 -6.25831,-4.77455 -13.26167,-8.56789 l -12.7332,-6.89697 -10.87768,5.88776 c -19.29503,10.4436 -19.02792,9.14376 -3.71407,18.0667 7.44,4.33496 13.91504,7.88806 14.38919,7.89574 0.47416,0.007 6.68144,-3.29991 13.79392,-7.35022 z m 90.70041,0.40349 c 6.96951,-3.84727 13.08751,-7.66743 13.59552,-8.48928 1.03159,-1.66941 -23.19304,-15.59613 -26.91721,-15.47459 -1.30577,0.0426 -8.09999,3.44952 -15.09816,7.57093 l -12.72424,7.49347 13.58632,7.9161 c 7.47241,4.35387 13.87864,7.93012 14.23608,7.94726 0.35744,0.0172 6.35208,-3.11662 13.32169,-6.96389 z m -66.56096,-40.10231 v -16.06096 l -5.60385,-2.80256 c -3.08207,-1.54143 -9.67728,-5.19241 -14.656,-8.11333 l -9.05231,-5.31075 v 16.26044 16.26044 l 13.36287,7.83041 c 7.34961,4.30671 13.9448,7.86795 14.65609,7.91383 0.71128,0.0458 1.2932,-7.14399 1.2932,-15.97752 z m 32.32952,7.61115 12.5008,-7.2205 v -16.17644 -16.17645 l -13.79393,7.81515 -13.794,7.81513 v 16.29823 c 0,8.96401 0.58192,15.97582 1.29321,15.58177 0.71128,-0.39402 6.91856,-3.96563 13.79392,-7.93689 z m -9.3276,-46.4809 c 15.21024,-8.5015 15.52024,-7.12954 -4.03528,-17.85821 l -11.2076,-6.1488 -14.17688,8.13811 -14.17689,8.13812 14.17689,8.02706 c 7.7972,4.41489 14.58176,7.84496 15.07648,7.62239 0.4948,-0.22256 6.9492,-3.78596 14.34328,-7.91867 z"
     id="path2702"
     sodipodi:nodetypes="cccccccccccccccccccsssssccccscccscccccccccsccccscccscccccccccsccscccssccsscccscccccccccsccccccccscccccccsc" /><path
     style="fill:#d40000;stroke-width:1.72424"
     d="m 339.94061,840.05148 -25.47071,-14.71752 0.4692,-31.15666 0.46895,-31.15668 21.55305,-12.3712 21.55304,-12.3712 0.86216,-26.34262 0.86208,-26.34262 26.8944,-15.24667 26.89455,-15.24667 26.9144,15.08101 26.91449,15.08099 0.0744,26.1754 0.0744,26.1754 23.27727,13.13909 23.27728,13.13908 v 29.9689 29.96891 l -4.74167,3.27987 c -6.71225,4.64313 -48.46825,27.99135 -50.05961,27.99135 -0.72656,0 -10.92672,-5.43137 -22.66704,-12.0697 -11.74039,-6.63834 -22.16656,-12.06972 -23.16919,-12.06972 -1.00265,0 -11.35361,5.43138 -23.00193,12.06972 -11.64831,6.63833 -22.15272,11.9953 -23.34312,11.90436 -1.19048,-0.0909 -13.62608,-6.7882 -27.6348,-14.88283 z m 19.41737,-25.04052 -0.0192,-15.94925 -12.85785,-7.32804 c -7.072,-4.03041 -13.65895,-7.32803 -14.63783,-7.32803 -1.09089,0 -1.77992,5.96716 -1.77992,15.41684 v 15.41682 l 14.22505,7.82865 c 7.82376,4.30575 14.41895,7.84297 14.65607,7.86045 0.23703,0.0176 0.4228,-7.14535 0.4128,-15.91744 z m 32.85928,8.03926 13.7136,-7.91001 v -16.26429 -16.26427 l -9.05232,5.31076 c -4.97873,2.92092 -11.57392,6.5719 -14.65608,8.11332 l -5.60375,2.80257 v 16.06095 c 0,8.83354 0.0828,16.55896 0.34968,16.11485 0.35672,-0.59271 7.70632,-3.61338 15.24887,-7.96388 z m 58.54391,-8.12726 v -16.03724 l -12.72511,-7.24005 c -6.99889,-3.98201 -13.20616,-7.24003 -13.79392,-7.24003 -0.58801,0 -1.06648,7.17717 -1.06352,15.94926 v 15.94924 l 13.35752,7.28654 c 7.34672,4.00758 13.55151,7.3052 13.78863,7.32803 0.23705,0.0228 0.43104,-7.17526 0.43104,-15.99575 z m 32.84096,8.12726 13.71361,-7.91001 v -16.26429 -16.26427 l -9.05223,5.31076 c -4.97882,2.92092 -11.57401,6.5719 -14.65609,8.11332 l -5.60384,2.80257 v 16.06095 c 0,8.83354 0.42416,16.06097 0.94248,16.06097 0.51832,0 7.11352,-3.5595 14.65607,-7.91 z m -101.81071,-46.0431 c 7.11248,-4.05034 12.69408,-8.11614 12.40351,-9.03512 -0.29071,-0.91901 -6.25831,-4.77455 -13.26167,-8.56789 l -12.7332,-6.89697 -10.87768,5.88776 c -19.29503,10.4436 -19.02792,9.14376 -3.71407,18.0667 7.44,4.33496 13.91504,7.88806 14.38919,7.89574 0.47416,0.007 6.68144,-3.29991 13.79392,-7.35022 z m 90.70041,0.40349 c 6.96951,-3.84727 13.08751,-7.66743 13.59552,-8.48928 1.03159,-1.66941 -23.19304,-15.59613 -26.91721,-15.47459 -1.30577,0.0426 -8.09999,3.44952 -15.09816,7.57093 l -12.72424,7.49347 13.58632,7.9161 c 7.47241,4.35387 13.87864,7.93012 14.23608,7.94726 0.35744,0.0172 6.35208,-3.11662 13.32169,-6.96389 z M 405.93087,737.3083 v -16.06096 l -5.60385,-2.80256 c -3.08207,-1.54143 -9.67728,-5.19241 -14.656,-8.11333 l -9.05231,-5.31075 v 16.26044 16.26044 l 13.36287,7.83041 c 7.34961,4.30671 13.9448,7.86795 14.65609,7.91383 0.71128,0.0458 1.2932,-7.14399 1.2932,-15.97752 z m 32.32952,7.61115 12.5008,-7.2205 v -16.17644 -16.17645 l -13.79393,7.81515 -13.794,7.81513 v 16.29823 c 0,8.96401 0.58192,15.97582 1.29321,15.58177 0.71128,-0.39402 6.91856,-3.96563 13.79392,-7.93689 z m -9.3276,-46.4809 c 15.21024,-8.5015 15.52024,-7.12954 -4.03528,-17.85821 l -11.2076,-6.1488 -14.17688,8.13811 -14.17689,8.13812 14.17689,8.02706 c 7.7972,4.41489 14.58176,7.84496 15.07648,7.62239 0.4948,-0.22256 6.9492,-3.78596 14.34328,-7.91867 z"
     id="path4"
     sodipodi:nodetypes="cccccccccccccccccccsssssccccscccscccccccccsccccscccscccccccccsccscccssccsscccscccccccccsccccccccscccccccsc" /></svg>
