<?xml version="1.0" encoding="UTF-8" standalone="no"?>
<svg
   width="2048"
   height="2048"
   viewBox="0 0 2048 2048"
   version="1.1"
   id="svg44"
   sodipodi:docname="Left_wing_UV.svg"
   inkscape:version="1.3.2 (091e20ef0f, 2023-11-25, custom)"
   xmlns:inkscape="http://www.inkscape.org/namespaces/inkscape"
   xmlns:sodipodi="http://sodipodi.sourceforge.net/DTD/sodipodi-0.dtd"
   xmlns="http://www.w3.org/2000/svg"
   xmlns:svg="http://www.w3.org/2000/svg">
  <defs
     id="defs44" />
  <sodipodi:namedview
     id="namedview44"
     pagecolor="#505050"
     bordercolor="#ffffff"
     borderopacity="1"
     inkscape:showpageshadow="0"
     inkscape:pageopacity="0"
     inkscape:pagecheckerboard="1"
     inkscape:deskcolor="#d1d1d1"
     inkscape:zoom="0.24072266"
     inkscape:cx="1021.9229"
     inkscape:cy="1024"
     inkscape:window-width="1366"
     inkscape:window-height="724"
     inkscape:window-x="-1"
     inkscape:window-y="-1"
     inkscape:window-maximized="1"
     inkscape:current-layer="svg44" />
  <desc
     id="desc1">Boeing_747_100.blend, (Blender 3.3.9)</desc>
  <rect
     style="opacity:1;fill:#ffffff;stroke-width:10"
     id="rect44"
     width="2048"
     height="2048"
     x="0"
     y="0" />
  <polygon
     stroke="black"
     stroke-width="1"
     fill="rgb(204, 204, 204)"
     fill-opacity="1"
     points="37.061,1607.461 542.355,2048.000 520.202,1994.594 72.843,1604.427 "
     id="polygon1" />
  <polygon
     stroke="black"
     stroke-width="1"
     fill="rgb(204, 204, 204)"
     fill-opacity="1"
     points="1177.458,942.412 1191.445,2032.495 1215.769,1983.180 1195.826,951.772 "
     id="polygon2" />
  <polygon
     stroke="black"
     stroke-width="1"
     fill="rgb(204, 204, 204)"
     fill-opacity="1"
     points="508.022,253.456 415.075,150.572 401.478,230.721 484.737,303.270 "
     id="polygon3" />
  <polygon
     stroke="black"
     stroke-width="1"
     fill="rgb(204, 204, 204)"
     fill-opacity="1"
     points="1079.375,696.150 792.927,952.416 851.531,1400.975 908.110,1818.547 992.611,1747.598 "
     id="polygon4" />
  <polygon
     stroke="black"
     stroke-width="1"
     fill="rgb(204, 204, 204)"
     fill-opacity="1"
     points="527.167,1384.737 258.671,1150.782 72.843,1604.427 520.202,1994.594 "
     id="polygon5" />
  <polygon
     stroke="black"
     stroke-width="1"
     fill="rgb(204, 204, 204)"
     fill-opacity="1"
     points="1015.342,1798.688 914.474,1911.531 905.627,1939.630 1050.901,1817.653 "
     id="polygon6" />
  <polygon
     stroke="black"
     stroke-width="1"
     fill="rgb(204, 204, 204)"
     fill-opacity="1"
     points="1095.420,1350.749 1131.507,245.834 1095.257,228.226 1084.557,1345.011 "
     id="polygon7" />
  <polygon
     stroke="black"
     stroke-width="1"
     fill="rgb(204, 204, 204)"
     fill-opacity="1"
     points="1259.378,1673.894 1263.956,2041.062 1302.347,2048.000 1302.347,1633.969 "
     id="polygon8" />
  <polygon
     stroke="black"
     stroke-width="1"
     fill="rgb(204, 204, 204)"
     fill-opacity="1"
     points="1215.769,1021.409 1216.327,1061.766 1233.250,1061.831 1233.250,1018.584 "
     id="polygon9" />
  <polygon
     stroke="black"
     stroke-width="1"
     fill="rgb(204, 204, 204)"
     fill-opacity="1"
     points="484.737,303.270 401.478,230.721 334.612,651.238 267.071,1092.329 526.298,1334.032 "
     id="polygon10" />
  <polygon
     stroke="black"
     stroke-width="1"
     fill="rgb(204, 204, 204)"
     fill-opacity="1"
     points="1084.083,642.944 785.690,893.483 792.927,952.416 1079.375,696.150 "
     id="polygon11" />
  <polygon
     stroke="black"
     stroke-width="1"
     fill="rgb(204, 204, 204)"
     fill-opacity="1"
     points="1177.588,888.100 1177.458,942.412 1195.826,951.772 1196.020,901.061 "
     id="polygon12" />
  <polygon
     stroke="black"
     stroke-width="1"
     fill="rgb(204, 204, 204)"
     fill-opacity="1"
     points="1194.740,237.625 1177.588,888.100 1196.020,901.061 1215.769,291.483 "
     id="polygon13" />
  <polygon
     stroke="black"
     stroke-width="1"
     fill="rgb(204, 204, 204)"
     fill-opacity="1"
     points="1056.825,48.659 601.665,429.095 785.690,893.483 1084.083,642.944 "
     id="polygon14" />
  <polygon
     stroke="black"
     stroke-width="1"
     fill="rgb(204, 204, 204)"
     fill-opacity="1"
     points="1130.750,2045.835 1093.412,1406.853 1084.083,1407.243 1093.053,2048.000 "
     id="polygon15" />
  <polygon
     stroke="black"
     stroke-width="1"
     fill="rgb(204, 204, 204)"
     fill-opacity="1"
     points="771.219,973.393 763.749,919.962 730.911,955.336 739.956,1007.540 "
     id="polygon16" />
  <polygon
     stroke="black"
     stroke-width="1"
     fill="rgb(204, 204, 204)"
     fill-opacity="1"
     points="526.298,1334.032 267.071,1092.329 258.671,1150.782 527.167,1384.737 "
     id="polygon17" />
  <polygon
     stroke="black"
     stroke-width="1"
     fill="rgb(204, 204, 204)"
     fill-opacity="1"
     points="243.512,1073.172 234.881,1126.331 258.671,1150.782 267.071,1092.329 "
     id="polygon18" />
  <polygon
     stroke="black"
     stroke-width="1"
     fill="rgb(204, 204, 204)"
     fill-opacity="1"
     points="207.955,1043.636 197.583,1095.753 234.881,1126.331 243.512,1073.172 "
     id="polygon19" />
  <polygon
     stroke="black"
     stroke-width="1"
     fill="rgb(204, 204, 204)"
     fill-opacity="1"
     points="1166.367,226.161 1156.151,866.656 1177.588,888.100 1194.740,237.625 "
     id="polygon20" />
  <polygon
     stroke="black"
     stroke-width="1"
     fill="rgb(204, 204, 204)"
     fill-opacity="1"
     points="1156.151,866.656 1156.168,928.978 1177.458,942.412 1177.588,888.100 "
     id="polygon21" />
  <polygon
     stroke="black"
     stroke-width="1"
     fill="rgb(204, 204, 204)"
     fill-opacity="1"
     points="270.352,1.665 377.193,114.816 415.075,150.572 "
     id="polygon22" />
  <polygon
     stroke="black"
     stroke-width="1"
     fill="rgb(204, 204, 204)"
     fill-opacity="1"
     points="542.355,237.227 399.216,112.502 415.075,150.572 508.022,253.456 "
     id="polygon23" />
  <polygon
     stroke="black"
     stroke-width="1"
     fill="rgb(204, 204, 204)"
     fill-opacity="1"
     points="1156.168,928.978 1156.779,2048.000 1191.445,2032.495 1177.458,942.412 "
     id="polygon24" />
  <polygon
     stroke="black"
     stroke-width="1"
     fill="rgb(204, 204, 204)"
     fill-opacity="1"
     points="1289.905,1633.969 1289.905,1219.939 1263.956,1220.754 1259.378,1586.412 "
     id="polygon25" />
  <polygon
     stroke="black"
     stroke-width="1"
     fill="rgb(204, 204, 204)"
     fill-opacity="1"
     points="792.927,952.416 785.690,893.483 763.749,919.962 771.219,973.393 "
     id="polygon26" />
  <polygon
     stroke="black"
     stroke-width="1"
     fill="rgb(204, 204, 204)"
     fill-opacity="1"
     points="1156.151,1996.181 1106.467,1403.349 1093.412,1406.853 1130.750,2045.835 "
     id="polygon27" />
  <polygon
     stroke="black"
     stroke-width="1"
     fill="rgb(204, 204, 204)"
     fill-opacity="1"
     points="1106.467,1403.349 1109.161,1350.004 1095.420,1350.749 1093.412,1406.853 "
     id="polygon28" />
  <polygon
     stroke="black"
     stroke-width="1"
     fill="rgb(204, 204, 204)"
     fill-opacity="1"
     points="601.665,429.095 1056.825,48.659 1084.083,0.000 570.472,430.047 "
     id="polygon29" />
  <polygon
     stroke="black"
     stroke-width="1"
     fill="rgb(204, 204, 204)"
     fill-opacity="1"
     points="1109.161,1350.004 1156.151,296.030 1131.507,245.834 1095.420,1350.749 "
     id="polygon30" />
  <polygon
     stroke="black"
     stroke-width="1"
     fill="rgb(204, 204, 204)"
     fill-opacity="1"
     points="992.611,1747.598 908.110,1818.547 914.474,1911.531 1015.342,1798.688 "
     id="polygon31" />
  <polygon
     stroke="black"
     stroke-width="1"
     fill="rgb(204, 204, 204)"
     fill-opacity="1"
     points="883.621,1936.866 774.890,2048.000 914.474,1911.531 "
     id="polygon32" />
  <polygon
     stroke="black"
     stroke-width="1"
     fill="rgb(204, 204, 204)"
     fill-opacity="1"
     points="399.216,112.502 270.352,1.665 415.075,150.572 "
     id="polygon33" />
  <polygon
     stroke="black"
     stroke-width="1"
     fill="rgb(204, 204, 204)"
     fill-opacity="1"
     points="914.474,1911.531 774.890,2048.000 905.627,1939.630 "
     id="polygon34" />
  <polygon
     stroke="black"
     stroke-width="1"
     fill="rgb(204, 204, 204)"
     fill-opacity="1"
     points="37.061,1607.461 72.843,1604.427 258.671,1150.782 256.938,1154.011 0.000,1561.357 "
     id="polygon35" />
  <polygon
     stroke="black"
     stroke-width="1"
     fill="rgb(204, 204, 204)"
     fill-opacity="1"
     points="1245.647,831.017 1237.611,852.575 1261.340,853.474 1261.340,804.143 "
     id="polygon36" />
  <polygon
     stroke="black"
     stroke-width="1"
     fill="rgb(204, 204, 204)"
     fill-opacity="1"
     points="542.355,485.807 791.261,898.212 785.690,893.483 601.665,429.095 570.472,430.047 "
     id="polygon37" />
  <polygon
     stroke="black"
     stroke-width="1"
     fill="rgb(204, 204, 204)"
     fill-opacity="1"
     points="1244.495,1011.588 1259.698,1058.435 1259.698,981.115 1237.611,981.024 "
     id="polygon38" />
  <polygon
     stroke="black"
     stroke-width="1"
     fill="rgb(204, 204, 204)"
     fill-opacity="1"
     points="1237.611,2048.000 1232.537,2022.850 1228.952,2018.400 "
     id="polygon39" />
  <polygon
     stroke="black"
     stroke-width="1"
     fill="rgb(204, 204, 204)"
     fill-opacity="1"
     points="1261.340,903.704 1261.340,854.373 1237.611,853.474 1244.245,875.588 "
     id="polygon40" />
  <polygon
     stroke="black"
     stroke-width="1"
     fill="rgb(204, 204, 204)"
     fill-opacity="1"
     points="1259.698,981.024 1259.698,903.704 1244.127,950.392 1237.611,980.933 "
     id="polygon41" />
  <polygon
     stroke="black"
     stroke-width="1"
     fill="rgb(204, 204, 204)"
     fill-opacity="1"
     points="1237.611,1062.071 1253.750,2022.968 1257.432,2027.338 1255.573,1934.064 1255.437,1511.615 1259.378,1058.435 "
     id="polygon42" />
  <polygon
     stroke="black"
     stroke-width="1"
     fill="rgb(204, 204, 204)"
     fill-opacity="1"
     points="1232.537,2022.850 1237.611,1061.831 1215.769,1064.986 1221.620,1511.264 1227.786,1937.106 1228.952,2018.400 "
     id="polygon43" />
  <polygon
     stroke="black"
     stroke-width="1"
     fill="rgb(204, 204, 204)"
     fill-opacity="1"
     points="1253.750,2022.968 1259.378,2048.000 1257.432,2027.338 "
     id="polygon44" />
  <text
     xml:space="preserve"
     style="font-size:72px;line-height:0;font-family:'TeX Gyre Heros';-inkscape-font-specification:'TeX Gyre Heros';text-decoration-color:#000000;letter-spacing:0px;word-spacing:0px;fill:#000000;stroke-width:0.36097;-inkscape-stroke:none;stop-color:#000000"
     x="706.13019"
     y="-626.05817"
     id="text44"
     transform="rotate(105)"><tspan
       sodipodi:role="line"
       id="tspan44"
       x="706.13019"
       y="-626.05817"
       style="font-style:italic;font-variant:normal;font-weight:bold;font-stretch:normal;font-family:Verdana;-inkscape-font-specification:'Verdana Bold Italic'">YOUR LIVERY HERE</tspan></text>
  <text
     xml:space="preserve"
     style="font-size:72px;line-height:0;font-family:'TeX Gyre Heros';-inkscape-font-specification:'TeX Gyre Heros';text-decoration-color:#000000;letter-spacing:0px;word-spacing:0px;fill:#000000;stroke-width:0.36097;-inkscape-stroke:none;stop-color:#000000"
     x="353.03217"
     y="-900.71198"
     id="text45"
     transform="rotate(89.385449)"><tspan
       sodipodi:role="line"
       id="tspan45"
       x="353.03217"
       y="-900.71198"
       style="font-style:italic;font-variant:normal;font-weight:bold;font-stretch:normal;font-family:Verdana;-inkscape-font-specification:'Verdana Bold Italic'">YOUR LIVERY HERE</tspan></text>
</svg>
