<?xml version="1.0" encoding="UTF-8" standalone="no"?>
<svg
   width="1024"
   height="1024"
   viewBox="0 0 1024 1024"
   version="1.1"
   id="svg40"
   sodipodi:docname="Vertical_stabilizer.svg"
   inkscape:version="1.3.2 (091e20ef0f, 2023-11-25, custom)"
   xml:space="preserve"
   xmlns:inkscape="http://www.inkscape.org/namespaces/inkscape"
   xmlns:sodipodi="http://sodipodi.sourceforge.net/DTD/sodipodi-0.dtd"
   xmlns="http://www.w3.org/2000/svg"
   xmlns:svg="http://www.w3.org/2000/svg"><defs
     id="defs40" /><sodipodi:namedview
     id="namedview40"
     pagecolor="#505050"
     bordercolor="#ffffff"
     borderopacity="1"
     inkscape:showpageshadow="0"
     inkscape:pageopacity="0"
     inkscape:pagecheckerboard="1"
     inkscape:deskcolor="#d1d1d1"
     inkscape:zoom="0.45244108"
     inkscape:cx="678.54139"
     inkscape:cy="639.86232"
     inkscape:window-width="1366"
     inkscape:window-height="724"
     inkscape:window-x="-1"
     inkscape:window-y="-1"
     inkscape:window-maximized="1"
     inkscape:current-layer="svg40" /><desc
     id="desc1">Boeing_747SP.blend, (Blender 3.3.9)</desc><rect
     style="fill:#ffffff;fill-opacity:1;stroke-width:15;stroke-linecap:square"
     id="rect1"
     width="1024"
     height="1024"
     x="0"
     y="0"
     rx="2.3779886"
     ry="2.3779886" /><path
     id="polygon1"
     d="m 195.54492,587.02734 30.49331,78.96045 16.55346,-2.0063 37.30884,-4.521 185.07361,309.23947 7.17721,13.13817 -37.81382,41.98217 60.63347,-0.2149 109.89636,-0.3891 219.79272,-0.7779 25.84272,-0.3651 -51.70591,-53.37334 -465.36332,-368.24612 -68.94518,-6.71154 z"
     style="fill:#ffffff;fill-opacity:1;stroke-width:0.873485"
     sodipodi:nodetypes="ccccccccccccccc" /><path
     d="m 187.00781,93.074219 32.76195,84.856431 17.78318,-2.15615 40.08455,-4.85686 198.84458,332.33754 7.71118,14.11951 -40.36132,44.82089 -1.00812,0.004 -38.44773,0.13568 -38.44774,0.1375 12.35401,0.10268 12.35585,0.10451 53.22856,-0.18885 64.84389,-0.23102 118.07061,-0.41803 236.1449,-0.83606 27.7672,-0.39236 -55.55273,-57.3582 -499.98551,-395.75159 -74.07457,-7.21469 z m 390.88713,410.180961 48.64254,58.29319 z"
     style="fill:#ffffff;fill-opacity:1;stroke-width:0.938599"
     id="path1" /><path
     style="fill:#ffffff;fill-opacity:1;stroke:none;stroke-width:0.938599px;stroke-linecap:butt;stroke-linejoin:miter;stroke-opacity:1"
     d="m 219.76976,177.93065 57.86773,-7.01301 206.55576,346.45705 -40.36132,44.82089 -77.90359,0.27693 z"
     id="path2" /><path
     style="fill:#ffffff;fill-opacity:1;stroke:none;stroke-width:0.873485px;stroke-linecap:butt;stroke-linejoin:miter;stroke-opacity:1"
     d="m 226.03823,665.98779 53.8606,-6.52558 192.25252,322.37766 -37.56644,41.70573 -72.50905,0.2577 z"
     id="path5" /><style
     type="text/css"
     id="style1">
	.st0{fill:#007AC2;}
</style><g
     id="g8"
     transform="matrix(-1.8632459,0,0,1.8632459,671.3524,155.31287)"><path
       id="rect4"
       style="opacity:1;fill:#e6252a;fill-opacity:1;stroke-width:0.900742"
       d="m 121.57914,73.196049 -12.0897,30.097901 c -0.46691,1.1624 -6.65452,16.28128 -7.71994,18.93373 -1.08185,2.69333 -4.190935,9.42166 -6.603733,14.00535 -2.462305,4.67772 -6.595928,8.9955 -11.011214,12.14551 -6.656596,4.74903 -12.686564,5.32216 -12.686564,5.32216 h 12.71602 c 4.809493,0 14.320288,-1.6514 21.769731,-7.27243 6.36943,-4.80608 8.86798,-9.93998 11.08873,-14.51177 4.62929,-9.53016 9.46314,-21.7517 12.22302,-28.62255 L 141.3552,73.196049 Z m 22.72678,0 -12.0897,30.097901 c -4.42249,11.01001 -8.66979,22.00669 -14.36398,32.93908 -2.44196,4.68837 -5.66425,8.37873 -10.94404,12.14551 -5.74678,4.09991 -12.757874,5.24154 -12.757874,5.24154 0,0 2.532186,0.0806 9.798364,0.0806 6.5392,0 16.49573,-1.92098 24.10086,-7.52926 5.65526,-4.17038 9.09634,-9.09503 11.67887,-14.25494 4.77611,-9.5427 8.43049,-19.0792 12.26385,-28.62255 l 12.0897,-30.097901 z"
       sodipodi:nodetypes="csssscsssscccssscsssscc" /><path
       id="rect5"
       style="opacity:1;fill:#1175c0;fill-opacity:1;stroke-width:2.70686"
       d="M 76.531246,73.196049 56.651839,122.6876 c -2.125951,5.29274 -2.460586,9.21216 -2.507857,12.05973 -0.07306,4.40169 1.158261,8.98344 3.825606,12.02769 2.625502,2.9965 6.450727,5.42551 11.361064,5.42551 2.577815,0 4.144226,-0.38007 6.568591,-1.4242 1.652884,-0.71187 2.620512,-1.42317 2.620512,-1.42317 -6.157463,-5.18472 -7.229512,-10.75994 -5.331974,-18.04903 0.477938,-1.83593 2.600105,-7.68824 4.46381,-12.30209 L 96.154338,73.196049 Z m 22.59397,0 -21.183203,52.736311 c -2.712538,6.75296 -3.396637,8.81516 -2.622063,14.53814 0.308439,2.27889 2.592408,5.72383 5.00538,8.15454 3.385001,-2.1199 7.024794,-5.33512 9.152413,-8.15454 4.320196,-5.72497 8.909824,-17.01357 9.7932,-19.21279 L 118.57622,73.196049 Z"
       sodipodi:nodetypes="cssssscsscccsscsscc" /></g><g
     id="g4"
     transform="matrix(1.8632459,0,0,1.8632459,237.71364,630.25055)"><path
       id="path3"
       style="opacity:1;fill:#e6252a;fill-opacity:1;stroke-width:0.900742"
       d="m 121.57914,73.196049 -12.0897,30.097901 c -0.46691,1.1624 -6.65452,16.28128 -7.71994,18.93373 -1.08185,2.69333 -4.190935,9.42166 -6.603733,14.00535 -2.462305,4.67772 -6.595928,8.9955 -11.011214,12.14551 -6.656596,4.74903 -12.686564,5.32216 -12.686564,5.32216 h 12.71602 c 4.809493,0 14.320288,-1.6514 21.769731,-7.27243 6.36943,-4.80608 8.86798,-9.93998 11.08873,-14.51177 4.62929,-9.53016 9.46314,-21.7517 12.22302,-28.62255 L 141.3552,73.196049 Z m 22.72678,0 -12.0897,30.097901 c -4.42249,11.01001 -8.66979,22.00669 -14.36398,32.93908 -2.44196,4.68837 -5.66425,8.37873 -10.94404,12.14551 -5.74678,4.09991 -12.757874,5.24154 -12.757874,5.24154 0,0 2.532186,0.0806 9.798364,0.0806 6.5392,0 16.49573,-1.92098 24.10086,-7.52926 5.65526,-4.17038 9.09634,-9.09503 11.67887,-14.25494 4.77611,-9.5427 8.43049,-19.0792 12.26385,-28.62255 l 12.0897,-30.097901 z"
       sodipodi:nodetypes="csssscsssscccssscsssscc" /><path
       id="path4"
       style="opacity:1;fill:#1175c0;fill-opacity:1;stroke-width:2.70686"
       d="M 76.531246,73.196049 56.651839,122.6876 c -2.125951,5.29274 -2.460586,9.21216 -2.507857,12.05973 -0.07306,4.40169 1.158261,8.98344 3.825606,12.02769 2.625502,2.9965 6.450727,5.42551 11.361064,5.42551 2.577815,0 4.144226,-0.38007 6.568591,-1.4242 1.652884,-0.71187 2.620512,-1.42317 2.620512,-1.42317 -6.157463,-5.18472 -7.229512,-10.75994 -5.331974,-18.04903 0.477938,-1.83593 2.600105,-7.68824 4.46381,-12.30209 L 96.154338,73.196049 Z m 22.59397,0 -21.183203,52.736311 c -2.712538,6.75296 -3.396637,8.81516 -2.622063,14.53814 0.308439,2.27889 2.592408,5.72383 5.00538,8.15454 3.385001,-2.1199 7.024794,-5.33512 9.152413,-8.15454 4.320196,-5.72497 8.909824,-17.01357 9.7932,-19.21279 L 118.57622,73.196049 Z"
       sodipodi:nodetypes="cssssscsscccsscsscc" /></g></svg>
