<?xml version="1.0" encoding="UTF-8" standalone="no"?>
<svg
   width="1024"
   height="1024"
   viewBox="0 0 1024 1024"
   version="1.1"
   id="svg40"
   sodipodi:docname="Vertical_stabilizer.svg"
   inkscape:version="1.3.2 (091e20ef0f, 2023-11-25, custom)"
   xml:space="preserve"
   xmlns:inkscape="http://www.inkscape.org/namespaces/inkscape"
   xmlns:sodipodi="http://sodipodi.sourceforge.net/DTD/sodipodi-0.dtd"
   xmlns="http://www.w3.org/2000/svg"
   xmlns:svg="http://www.w3.org/2000/svg"><defs
     id="defs40" /><sodipodi:namedview
     id="namedview40"
     pagecolor="#505050"
     bordercolor="#ffffff"
     borderopacity="1"
     inkscape:showpageshadow="0"
     inkscape:pageopacity="0"
     inkscape:pagecheckerboard="1"
     inkscape:deskcolor="#d1d1d1"
     inkscape:zoom="0.34043325"
     inkscape:cx="960.54074"
     inkscape:cy="489.08267"
     inkscape:window-width="1366"
     inkscape:window-height="724"
     inkscape:window-x="-1"
     inkscape:window-y="-1"
     inkscape:window-maximized="1"
     inkscape:current-layer="svg40" /><desc
     id="desc1">Boeing_747SP.blend, (Blender 3.3.9)</desc><rect
     style="fill:#ffffff;fill-opacity:1;stroke-width:15;stroke-linecap:square"
     id="rect1"
     width="1024"
     height="1024"
     x="0"
     y="0"
     rx="2.3779886"
     ry="2.3779886" /><path
     id="polygon1"
     d="m 195.54492,587.02734 30.49331,78.96045 16.55346,-2.0063 37.30884,-4.521 185.07361,309.23947 7.17721,13.13817 -37.81382,41.98217 60.63347,-0.2149 109.89636,-0.3891 219.79272,-0.7779 25.84272,-0.3651 -51.70591,-53.37334 -465.36332,-368.24612 -68.94518,-6.71154 z"
     style="fill:#aa311e;fill-opacity:1;stroke-width:0.873485"
     sodipodi:nodetypes="ccccccccccccccc" /><path
     d="m 187.00781,93.074219 32.76195,84.856431 17.78318,-2.15615 40.08455,-4.85686 198.84458,332.33754 7.71118,14.11951 -40.36132,44.82089 -1.00812,0.004 -38.44773,0.13568 -38.44774,0.1375 12.35401,0.10268 12.35585,0.10451 53.22856,-0.18885 64.84389,-0.23102 118.07061,-0.41803 236.1449,-0.83606 27.7672,-0.39236 -55.55273,-57.3582 -499.98551,-395.75159 -74.07457,-7.21469 z m 390.88713,410.180961 48.64254,58.29319 z"
     style="fill:#aa311e;fill-opacity:1;stroke-width:0.938599"
     id="path1" /><path
     style="fill:#aa311e;fill-opacity:1;stroke:none;stroke-width:0.938599px;stroke-linecap:butt;stroke-linejoin:miter;stroke-opacity:1"
     d="m 219.76976,177.93065 57.86773,-7.01301 206.55576,346.45705 -40.36132,44.82089 -77.90359,0.27693 z"
     id="path2" /><path
     style="fill:#aa311e;fill-opacity:1;stroke:none;stroke-width:0.873485px;stroke-linecap:butt;stroke-linejoin:miter;stroke-opacity:1"
     d="m 226.03823,665.98779 53.8606,-6.52558 192.25252,322.37766 -37.56644,41.70573 -72.50905,0.2577 z"
     id="path5" /><style
     type="text/css"
     id="style1">
	.st0{fill:#007AC2;}
</style><path
     id="rect2"
     style="fill:#ffffff;stroke-width:2.18308;stroke-linecap:round"
     d="m 241.72024,98.40321 37.5386,3.65623 194.52616,460.03019 -37.53859,0.13291 z"
     sodipodi:nodetypes="ccccc" /><path
     id="path3"
     style="fill:#ffffff;stroke-width:2.18308;stroke-linecap:round"
     d="m 200.32573,127.56883 31.99692,4.4271 171.14428,430.34369 -37.53859,0.13289 z"
     sodipodi:nodetypes="ccccc" /><path
     style="fill:#ffffff;stroke:none;stroke-width:0.938599px;stroke-linecap:butt;stroke-linejoin:miter;stroke-opacity:1"
     d="M 254.42262,269.63746 H 539.99217 L 700.58165,396.74824 H 302.82386 Z"
     id="path4" /><path
     id="path6"
     style="fill:#ffffff;stroke-width:2.03163;stroke-linecap:round"
     d="m 246.46873,591.98764 34.93917,3.40211 181.05594,428.05725 -34.93919,0.1237 z"
     sodipodi:nodetypes="ccccc" /><path
     id="path7"
     style="fill:#ffffff;stroke-width:2.03163;stroke-linecap:round"
     d="m 207.94062,619.12619 29.78126,4.11941 159.29316,400.434 -34.93918,0.1237 z"
     sodipodi:nodetypes="ccccc" /><path
     style="fill:#ffffff;stroke:none;stroke-width:0.873485px;stroke-linecap:butt;stroke-linejoin:miter;stroke-opacity:1"
     d="M 258.2915,751.32079 H 524.08639 L 673.55564,869.59713 H 303.34113 Z"
     id="path8" /><g
     id="g10"
     transform="matrix(3.349422,0,0,3.3503827,-3732.7253,-1244.4354)"><path
       style="fill:#aa311e;fill-opacity:1;stroke:#ffffff;stroke-width:0.5;stroke-linecap:butt;stroke-linejoin:miter;stroke-dasharray:none;stroke-opacity:1"
       d="m 1267.7362,476.3432 -1.5347,-1.60186 -58.1985,1.23602 c 11.1123,-1.55059 23.2523,-1.20293 33.3369,-4.65176 -5.9526,-2.23937 -13.1369,-3.65935 -19.9184,-5.34733 h 25.5121 c 7.2269,1.40013 13.9677,3.96515 20.8026,6.30448 z"
       id="path9"
       sodipodi:nodetypes="cccccccc" /><path
       style="fill:#aa311e;fill-opacity:1;stroke:#fefefe;stroke-width:0.5;stroke-linecap:butt;stroke-linejoin:miter;stroke-dasharray:none;stroke-opacity:1"
       d="m 1252.8201,467.37497 4.9269,-2.33049 h 20.1796 l -14.8386,5.62608 z"
       id="path10" /></g><g
     id="g12"
     transform="matrix(3.1174866,0,0,3.1175249,-3447.5199,-657.52116)"><path
       style="fill:#aa311e;fill-opacity:1;stroke:#ffffff;stroke-width:0.5;stroke-linecap:butt;stroke-linejoin:miter;stroke-dasharray:none;stroke-opacity:1"
       d="m 1267.7362,476.3432 -1.5347,-1.60186 -58.1985,1.23602 c 11.1123,-1.55059 23.2523,-1.20293 33.3369,-4.65176 -5.9526,-2.23937 -13.1369,-3.65935 -19.9184,-5.34733 h 25.5121 c 7.2269,1.40013 13.9677,3.96515 20.8026,6.30448 z"
       id="path11"
       sodipodi:nodetypes="cccccccc" /><path
       style="fill:#aa311e;fill-opacity:1;stroke:#fefefe;stroke-width:0.5;stroke-linecap:butt;stroke-linejoin:miter;stroke-dasharray:none;stroke-opacity:1"
       d="m 1252.8201,467.37497 4.9269,-2.33049 h 20.1796 l -14.8386,5.62608 z"
       id="path12" /></g></svg>
