<?xml version="1.0" standalone="no"?>
<!DOCTYPE svg PUBLIC "-//W3C//DTD SVG 1.1//EN" 
  "http://www.w3.org/Graphics/SVG/1.1/DTD/svg11.dtd">
<svg width="2048" height="2048" viewBox="0 0 2048 2048"
     xmlns="http://www.w3.org/2000/svg" version="1.1">
<desc>Boeing_747_100.blend, (Blender 3.3.9)</desc>
<polygon stroke="black" stroke-width="1" fill="rgb(204, 204, 204)" fill-opacity="1" points="430.735,1099.369 226.292,1102.819 224.743,1220.150 438.667,1212.216 " />
<polygon stroke="black" stroke-width="1" fill="rgb(204, 204, 204)" fill-opacity="1" points="1273.298,1930.669 1491.062,1932.613 1489.788,1822.816 1273.737,1815.696 " />
<polygon stroke="black" stroke-width="1" fill="rgb(204, 204, 204)" fill-opacity="1" points="1273.737,1815.696 1489.788,1822.816 1488.707,1712.771 1273.345,1702.958 " />
<polygon stroke="black" stroke-width="1" fill="rgb(204, 204, 204)" fill-opacity="1" points="1273.345,1702.958 1488.707,1712.771 1487.582,1602.295 1272.030,1591.629 " />
<polygon stroke="black" stroke-width="1" fill="rgb(204, 204, 204)" fill-opacity="1" points="1272.030,1591.629 1487.582,1602.295 1486.638,1491.300 1269.919,1480.887 " />
<polygon stroke="black" stroke-width="1" fill="rgb(204, 204, 204)" fill-opacity="1" points="1269.919,1480.887 1486.638,1491.300 1486.504,1379.709 1267.323,1369.615 " />
<polygon stroke="black" stroke-width="1" fill="rgb(204, 204, 204)" fill-opacity="1" points="1267.323,1369.615 1486.504,1379.709 1488.270,1267.464 1264.762,1256.094 " />
<polygon stroke="black" stroke-width="1" fill="rgb(204, 204, 204)" fill-opacity="1" points="1264.762,1256.094 1488.270,1267.464 1493.711,1154.619 1263.083,1137.791 " />
<polygon stroke="black" stroke-width="1" fill="rgb(204, 204, 204)" fill-opacity="1" points="236.507,309.941 5.879,326.769 11.320,439.614 234.828,428.243 " />
<polygon stroke="black" stroke-width="1" fill="rgb(204, 204, 204)" fill-opacity="1" points="234.828,428.243 11.320,439.614 13.086,551.859 232.267,541.765 " />
<polygon stroke="black" stroke-width="1" fill="rgb(204, 204, 204)" fill-opacity="1" points="232.267,541.765 13.086,551.859 12.952,663.450 229.671,653.037 " />
<polygon stroke="black" stroke-width="1" fill="rgb(204, 204, 204)" fill-opacity="1" points="229.671,653.037 12.952,663.450 12.008,774.445 227.561,763.778 " />
<polygon stroke="black" stroke-width="1" fill="rgb(204, 204, 204)" fill-opacity="1" points="227.561,763.778 12.008,774.445 10.883,884.921 226.245,875.108 " />
<polygon stroke="black" stroke-width="1" fill="rgb(204, 204, 204)" fill-opacity="1" points="226.245,875.108 10.883,884.921 9.802,994.966 225.853,987.847 " />
<polygon stroke="black" stroke-width="1" fill="rgb(204, 204, 204)" fill-opacity="1" points="357.200,1748.652 319.701,1716.265 68.870,1891.029 196.617,2012.810 " />
<polygon stroke="black" stroke-width="1" fill="rgb(204, 204, 204)" fill-opacity="1" points="225.853,987.847 9.802,994.966 8.529,1104.763 226.292,1102.819 " />
<polygon stroke="black" stroke-width="1" fill="rgb(204, 204, 204)" fill-opacity="1" points="826.748,213.723 1342.796,244.530 1342.330,176.127 828.034,142.201 " />
<polygon stroke="black" stroke-width="1" fill="rgb(204, 204, 204)" fill-opacity="1" points="832.515,710.966 1348.942,710.804 1351.824,649.847 835.605,639.936 " />
<polygon stroke="black" stroke-width="1" fill="rgb(204, 204, 204)" fill-opacity="1" points="425.907,989.130 225.853,987.847 226.292,1102.819 430.735,1099.369 " />
<polygon stroke="black" stroke-width="1" fill="rgb(204, 204, 204)" fill-opacity="1" points="423.590,880.456 226.245,875.108 225.853,987.847 425.907,989.130 " />
<polygon stroke="black" stroke-width="1" fill="rgb(204, 204, 204)" fill-opacity="1" points="423.564,772.444 227.561,763.778 226.245,875.108 423.590,880.456 " />
<polygon stroke="black" stroke-width="1" fill="rgb(204, 204, 204)" fill-opacity="1" points="425.894,664.311 229.671,653.037 227.561,763.778 423.564,772.444 " />
<polygon stroke="black" stroke-width="1" fill="rgb(204, 204, 204)" fill-opacity="1" points="430.910,555.133 232.267,541.765 229.671,653.037 425.894,664.311 " />
<polygon stroke="black" stroke-width="1" fill="rgb(204, 204, 204)" fill-opacity="1" points="439.310,443.615 234.828,428.243 232.267,541.765 430.910,555.133 " />
<polygon stroke="black" stroke-width="1" fill="rgb(204, 204, 204)" fill-opacity="1" points="452.637,327.769 236.507,309.941 234.828,428.243 439.310,443.615 " />
<polygon stroke="black" stroke-width="1" fill="rgb(204, 204, 204)" fill-opacity="1" points="1060.281,1271.465 1264.762,1256.094 1263.083,1137.791 1046.953,1155.619 " />
<polygon stroke="black" stroke-width="1" fill="rgb(204, 204, 204)" fill-opacity="1" points="1068.681,1382.983 1267.323,1369.615 1264.762,1256.094 1060.281,1271.465 " />
<polygon stroke="black" stroke-width="1" fill="rgb(204, 204, 204)" fill-opacity="1" points="1073.696,1492.161 1269.919,1480.887 1267.323,1369.615 1068.681,1382.983 " />
<polygon stroke="black" stroke-width="1" fill="rgb(204, 204, 204)" fill-opacity="1" points="1076.026,1600.294 1272.030,1591.629 1269.919,1480.887 1073.696,1492.161 " />
<polygon stroke="black" stroke-width="1" fill="rgb(204, 204, 204)" fill-opacity="1" points="1076.000,1708.306 1273.345,1702.958 1272.030,1591.629 1076.026,1600.294 " />
<polygon stroke="black" stroke-width="1" fill="rgb(204, 204, 204)" fill-opacity="1" points="1073.684,1816.980 1273.737,1815.696 1273.345,1702.958 1076.000,1708.306 " />
<polygon stroke="black" stroke-width="1" fill="rgb(204, 204, 204)" fill-opacity="1" points="1068.855,1927.219 1273.298,1930.669 1273.737,1815.696 1073.684,1816.980 " />
<polygon stroke="black" stroke-width="1" fill="rgb(204, 204, 204)" fill-opacity="1" points="850.334,2013.634 1060.923,2040.066 1068.855,1927.219 860.088,1914.106 " />
<polygon stroke="black" stroke-width="1" fill="rgb(204, 204, 204)" fill-opacity="1" points="860.088,1914.106 1068.855,1927.219 1073.684,1816.980 865.551,1813.667 " />
<polygon stroke="black" stroke-width="1" fill="rgb(204, 204, 204)" fill-opacity="1" points="865.551,1813.667 1073.684,1816.980 1076.000,1708.306 867.689,1712.677 " />
<polygon stroke="black" stroke-width="1" fill="rgb(204, 204, 204)" fill-opacity="1" points="867.689,1712.677 1076.000,1708.306 1076.026,1600.294 866.853,1611.109 " />
<polygon stroke="black" stroke-width="1" fill="rgb(204, 204, 204)" fill-opacity="1" points="866.853,1611.109 1076.026,1600.294 1073.696,1492.161 862.966,1508.943 " />
<polygon stroke="black" stroke-width="1" fill="rgb(204, 204, 204)" fill-opacity="1" points="862.966,1508.943 1073.696,1492.161 1068.681,1382.983 855.600,1406.209 " />
<polygon stroke="black" stroke-width="1" fill="rgb(204, 204, 204)" fill-opacity="1" points="855.600,1406.209 1068.681,1382.983 1060.281,1271.465 843.958,1303.048 " />
<polygon stroke="black" stroke-width="1" fill="rgb(204, 204, 204)" fill-opacity="1" points="843.958,1303.048 1060.281,1271.465 1046.953,1155.619 826.748,1199.874 " />
<polygon stroke="black" stroke-width="1" fill="rgb(204, 204, 204)" fill-opacity="1" points="672.842,372.024 452.637,327.769 439.310,443.615 655.633,475.198 " />
<polygon stroke="black" stroke-width="1" fill="rgb(204, 204, 204)" fill-opacity="1" points="655.633,475.198 439.310,443.615 430.910,555.133 643.990,578.359 " />
<polygon stroke="black" stroke-width="1" fill="rgb(204, 204, 204)" fill-opacity="1" points="643.990,578.359 430.910,555.133 425.894,664.311 636.625,681.094 " />
<polygon stroke="black" stroke-width="1" fill="rgb(204, 204, 204)" fill-opacity="1" points="636.625,681.094 425.894,664.311 423.564,772.444 632.737,783.259 " />
<polygon stroke="black" stroke-width="1" fill="rgb(204, 204, 204)" fill-opacity="1" points="632.737,783.259 423.564,772.444 423.590,880.456 631.901,884.827 " />
<polygon stroke="black" stroke-width="1" fill="rgb(204, 204, 204)" fill-opacity="1" points="631.901,884.827 423.590,880.456 425.907,989.130 634.039,985.817 " />
<polygon stroke="black" stroke-width="1" fill="rgb(204, 204, 204)" fill-opacity="1" points="634.039,985.817 425.907,989.130 430.735,1099.369 639.502,1086.256 " />
<polygon stroke="black" stroke-width="1" fill="rgb(204, 204, 204)" fill-opacity="1" points="639.502,1086.256 430.735,1099.369 438.667,1212.216 649.256,1185.783 " />
<polygon stroke="black" stroke-width="1" fill="rgb(204, 204, 204)" fill-opacity="1" points="1956.692,208.344 2022.640,181.968 2005.998,104.048 1915.011,140.437 " />
<polygon stroke="black" stroke-width="1" fill="rgb(204, 204, 204)" fill-opacity="1" points="1903.319,255.208 1956.692,208.344 1915.011,140.437 1841.373,205.094 " />
<polygon stroke="black" stroke-width="1" fill="rgb(204, 204, 204)" fill-opacity="1" points="1868.637,317.191 1903.319,255.208 1841.373,205.094 1793.522,290.612 " />
<polygon stroke="black" stroke-width="1" fill="rgb(204, 204, 204)" fill-opacity="1" points="1856.617,387.193 1868.637,317.191 1793.522,290.612 1776.939,387.193 " />
<polygon stroke="black" stroke-width="1" fill="rgb(204, 204, 204)" fill-opacity="1" points="1868.637,457.195 1856.617,387.193 1776.939,387.193 1793.523,483.774 " />
<polygon stroke="black" stroke-width="1" fill="rgb(204, 204, 204)" fill-opacity="1" points="1903.319,519.178 1868.637,457.195 1793.523,483.774 1841.374,569.291 " />
<polygon stroke="black" stroke-width="1" fill="rgb(204, 204, 204)" fill-opacity="1" points="1956.692,566.042 1903.319,519.178 1841.374,569.291 1915.011,633.948 " />
<polygon stroke="black" stroke-width="1" fill="rgb(204, 204, 204)" fill-opacity="1" points="2022.640,592.417 1956.692,566.042 1915.011,633.948 2005.999,670.338 " />
<polygon stroke="black" stroke-width="1" fill="rgb(204, 204, 204)" fill-opacity="1" points="1710.991,208.344 1776.939,181.969 1760.298,104.048 1669.310,140.437 " />
<polygon stroke="black" stroke-width="1" fill="rgb(204, 204, 204)" fill-opacity="1" points="1657.618,255.207 1710.991,208.344 1669.310,140.437 1595.672,205.094 " />
<polygon stroke="black" stroke-width="1" fill="rgb(204, 204, 204)" fill-opacity="1" points="1622.936,317.190 1657.618,255.207 1595.672,205.094 1547.821,290.611 " />
<polygon stroke="black" stroke-width="1" fill="rgb(204, 204, 204)" fill-opacity="1" points="1610.916,387.193 1622.936,317.190 1547.821,290.611 1531.238,387.193 " />
<polygon stroke="black" stroke-width="1" fill="rgb(204, 204, 204)" fill-opacity="1" points="1622.936,457.195 1610.916,387.193 1531.238,387.193 1547.822,483.774 " />
<polygon stroke="black" stroke-width="1" fill="rgb(204, 204, 204)" fill-opacity="1" points="1657.618,519.178 1622.936,457.195 1547.822,483.774 1595.673,569.291 " />
<polygon stroke="black" stroke-width="1" fill="rgb(204, 204, 204)" fill-opacity="1" points="1710.991,566.042 1657.618,519.178 1595.673,569.291 1669.310,633.948 " />
<polygon stroke="black" stroke-width="1" fill="rgb(204, 204, 204)" fill-opacity="1" points="1776.939,592.417 1710.991,566.042 1669.310,633.948 1760.298,670.338 " />
<polygon stroke="black" stroke-width="1" fill="rgb(204, 204, 204)" fill-opacity="1" points="835.605,639.936 1351.824,649.847 1354.489,588.819 838.508,568.896 " />
<polygon stroke="black" stroke-width="1" fill="rgb(204, 204, 204)" fill-opacity="1" points="836.986,0.000 831.381,70.827 1345.739,112.814 1352.411,49.284 " />
<polygon stroke="black" stroke-width="1" fill="rgb(204, 204, 204)" fill-opacity="1" points="835.605,497.854 1351.823,487.945 1348.942,426.986 832.515,426.825 " />
<polygon stroke="black" stroke-width="1" fill="rgb(204, 204, 204)" fill-opacity="1" points="831.381,70.827 828.034,142.201 1342.330,176.127 1345.739,112.814 " />
<polygon stroke="black" stroke-width="1" fill="rgb(204, 204, 204)" fill-opacity="1" points="829.616,355.795 1346.153,366.093 1343.924,305.266 827.472,284.747 " />
<polygon stroke="black" stroke-width="1" fill="rgb(204, 204, 204)" fill-opacity="1" points="826.748,924.068 828.034,995.590 1342.331,961.664 1342.796,893.261 " />
<polygon stroke="black" stroke-width="1" fill="rgb(204, 204, 204)" fill-opacity="1" points="827.472,284.747 1343.924,305.266 1342.796,244.530 826.748,213.723 " />
<polygon stroke="black" stroke-width="1" fill="rgb(204, 204, 204)" fill-opacity="1" points="826.748,924.068 1342.796,893.261 1343.924,832.525 827.473,853.044 " />
<polygon stroke="black" stroke-width="1" fill="rgb(204, 204, 204)" fill-opacity="1" points="1060.923,2040.066 1274.847,2048.000 1273.298,1930.669 1068.855,1927.219 " />
<polygon stroke="black" stroke-width="1" fill="rgb(204, 204, 204)" fill-opacity="1" points="827.473,853.044 1343.924,832.525 1346.154,771.699 829.616,781.996 " />
<polygon stroke="black" stroke-width="1" fill="rgb(204, 204, 204)" fill-opacity="1" points="829.616,781.996 1346.154,771.699 1348.942,710.804 832.515,710.966 " />
<polygon stroke="black" stroke-width="1" fill="rgb(204, 204, 204)" fill-opacity="1" points="828.034,995.590 831.381,1066.964 1345.740,1024.977 1342.331,961.664 " />
<polygon stroke="black" stroke-width="1" fill="rgb(204, 204, 204)" fill-opacity="1" points="832.515,426.825 1348.942,426.986 1346.153,366.093 829.616,355.795 " />
<polygon stroke="black" stroke-width="1" fill="rgb(204, 204, 204)" fill-opacity="1" points="831.381,1066.964 836.986,1137.791 1352.411,1088.507 1345.740,1024.977 " />
<polygon stroke="black" stroke-width="1" fill="rgb(204, 204, 204)" fill-opacity="1" points="271.324,75.021 138.472,163.530 295.547,131.008 " />
<polygon stroke="black" stroke-width="1" fill="rgb(204, 204, 204)" fill-opacity="1" points="1342.331,961.664 1345.740,1024.977 1523.744,1001.234 1519.952,943.088 " />
<polygon stroke="black" stroke-width="1" fill="rgb(204, 204, 204)" fill-opacity="1" points="1345.740,1024.977 1352.411,1088.507 1531.238,1059.032 1523.744,1001.234 " />
<polygon stroke="black" stroke-width="1" fill="rgb(204, 204, 204)" fill-opacity="1" points="1352.411,49.284 1345.739,112.814 1523.744,136.557 1531.238,78.758 " />
<polygon stroke="black" stroke-width="1" fill="rgb(204, 204, 204)" fill-opacity="1" points="1345.739,112.814 1342.330,176.127 1519.952,194.703 1523.744,136.557 " />
<polygon stroke="black" stroke-width="1" fill="rgb(204, 204, 204)" fill-opacity="1" points="1717.500,1292.740 1729.763,1322.815 1801.004,1309.136 1778.600,1253.328 " />
<polygon stroke="black" stroke-width="1" fill="rgb(204, 204, 204)" fill-opacity="1" points="1694.591,1269.800 1717.500,1292.740 1778.600,1253.328 1736.204,1209.573 " />
<polygon stroke="black" stroke-width="1" fill="rgb(204, 204, 204)" fill-opacity="1" points="1664.578,1257.527 1694.591,1269.800 1736.204,1209.573 1679.489,1185.254 " />
<polygon stroke="black" stroke-width="1" fill="rgb(204, 204, 204)" fill-opacity="1" points="1631.851,1257.077 1664.578,1257.527 1679.489,1185.254 1617.737,1184.933 " />
<polygon stroke="black" stroke-width="1" fill="rgb(204, 204, 204)" fill-opacity="1" points="1601.884,1269.992 1631.851,1257.077 1617.737,1184.933 1560.551,1208.447 " />
<polygon stroke="black" stroke-width="1" fill="rgb(204, 204, 204)" fill-opacity="1" points="1578.524,1292.913 1601.884,1269.992 1560.551,1208.447 1516.852,1252.435 " />
<polygon stroke="black" stroke-width="1" fill="rgb(204, 204, 204)" fill-opacity="1" points="1565.791,1323.076 1578.524,1292.913 1516.852,1252.435 1493.711,1309.354 " />
<polygon stroke="black" stroke-width="1" fill="rgb(204, 204, 204)" fill-opacity="1" points="1565.541,1355.804 1565.791,1323.076 1493.711,1309.354 1494.039,1370.227 " />
<polygon stroke="black" stroke-width="1" fill="rgb(204, 204, 204)" fill-opacity="1" points="1578.373,1385.976 1565.541,1355.804 1494.039,1370.227 1517.336,1426.446 " />
<polygon stroke="black" stroke-width="1" fill="rgb(204, 204, 204)" fill-opacity="1" points="1601.642,1408.884 1578.373,1385.976 1517.336,1426.446 1560.799,1469.821 " />
<polygon stroke="black" stroke-width="1" fill="rgb(204, 204, 204)" fill-opacity="1" points="1631.596,1421.443 1601.642,1408.884 1560.799,1469.821 1617.302,1492.909 " />
<polygon stroke="black" stroke-width="1" fill="rgb(204, 204, 204)" fill-opacity="1" points="1664.200,1421.170 1631.596,1421.443 1617.302,1492.909 1677.957,1492.892 " />
<polygon stroke="black" stroke-width="1" fill="rgb(204, 204, 204)" fill-opacity="1" points="1694.070,1408.406 1664.200,1421.170 1677.957,1492.892 1734.390,1469.586 " />
<polygon stroke="black" stroke-width="1" fill="rgb(204, 204, 204)" fill-opacity="1" points="1716.679,1385.133 1694.070,1408.406 1734.390,1469.586 1777.810,1426.077 " />
<polygon stroke="black" stroke-width="1" fill="rgb(204, 204, 204)" fill-opacity="1" points="1729.472,1355.322 1716.679,1385.133 1777.810,1426.077 1801.004,1369.400 " />
<polygon stroke="black" stroke-width="1" fill="rgb(204, 204, 204)" fill-opacity="1" points="1729.763,1322.815 1729.472,1355.322 1801.004,1369.400 1801.004,1309.136 " />
<polygon stroke="black" stroke-width="1" fill="rgb(204, 204, 204)" fill-opacity="1" points="227.176,33.447 138.472,163.530 271.324,75.021 " />
<polygon stroke="black" stroke-width="1" fill="rgb(204, 204, 204)" fill-opacity="1" points="170.863,12.781 138.472,163.530 227.176,33.447 " />
<polygon stroke="black" stroke-width="1" fill="rgb(204, 204, 204)" fill-opacity="1" points="111.794,15.546 138.472,163.530 170.863,12.781 " />
<polygon stroke="black" stroke-width="1" fill="rgb(204, 204, 204)" fill-opacity="1" points="295.547,131.008 138.472,163.530 295.547,192.011 " />
<polygon stroke="black" stroke-width="1" fill="rgb(204, 204, 204)" fill-opacity="1" points="295.547,192.011 138.472,163.530 271.535,247.697 " />
<polygon stroke="black" stroke-width="1" fill="rgb(204, 204, 204)" fill-opacity="1" points="271.535,247.697 138.472,163.530 228.058,289.024 " />
<polygon stroke="black" stroke-width="1" fill="rgb(204, 204, 204)" fill-opacity="1" points="228.058,289.024 138.472,163.530 172.747,309.941 " />
<polygon stroke="black" stroke-width="1" fill="rgb(204, 204, 204)" fill-opacity="1" points="172.747,309.941 138.472,163.530 114.547,308.142 " />
<polygon stroke="black" stroke-width="1" fill="rgb(204, 204, 204)" fill-opacity="1" points="114.547,308.142 138.472,163.530 62.074,284.868 " />
<polygon stroke="black" stroke-width="1" fill="rgb(204, 204, 204)" fill-opacity="1" points="62.074,284.868 138.472,163.530 22.483,244.167 " />
<polygon stroke="black" stroke-width="1" fill="rgb(204, 204, 204)" fill-opacity="1" points="22.483,244.167 138.472,163.530 0.868,192.020 " />
<polygon stroke="black" stroke-width="1" fill="rgb(204, 204, 204)" fill-opacity="1" points="0.868,192.020 138.472,163.530 0.000,135.578 " />
<polygon stroke="black" stroke-width="1" fill="rgb(204, 204, 204)" fill-opacity="1" points="0.000,135.578 138.472,163.530 20.175,82.502 " />
<polygon stroke="black" stroke-width="1" fill="rgb(204, 204, 204)" fill-opacity="1" points="20.175,82.502 138.472,163.530 59.093,40.306 " />
<polygon stroke="black" stroke-width="1" fill="rgb(204, 204, 204)" fill-opacity="1" points="111.794,15.546 59.093,40.306 138.472,163.530 " />
<polygon stroke="black" stroke-width="1" fill="rgb(204, 204, 204)" fill-opacity="1" points="1984.608,1915.066 1914.268,1986.551 1926.960,2005.162 2003.286,1927.347 " />
<polygon stroke="black" stroke-width="1" fill="rgb(204, 204, 204)" fill-opacity="1" points="1914.268,1986.551 1821.164,2025.619 1825.669,2047.950 1926.960,2005.162 " />
<polygon stroke="black" stroke-width="1" fill="rgb(204, 204, 204)" fill-opacity="1" points="1821.164,2025.619 1719.517,2025.699 1714.938,2048.000 1825.669,2047.950 " />
<polygon stroke="black" stroke-width="1" fill="rgb(204, 204, 204)" fill-opacity="1" points="1719.517,2025.699 1625.928,1986.017 1613.115,2004.828 1714.938,2048.000 " />
<polygon stroke="black" stroke-width="1" fill="rgb(204, 204, 204)" fill-opacity="1" points="1625.928,1986.017 1554.350,1913.624 1535.356,1926.110 1613.115,2004.828 " />
<polygon stroke="black" stroke-width="1" fill="rgb(204, 204, 204)" fill-opacity="1" points="1554.350,1913.624 1515.964,1819.662 1493.711,1823.944 1535.356,1926.110 " />
<polygon stroke="black" stroke-width="1" fill="rgb(204, 204, 204)" fill-opacity="1" points="1515.964,1819.662 1516.228,1718.473 1494.113,1713.999 1493.711,1823.944 " />
<polygon stroke="black" stroke-width="1" fill="rgb(204, 204, 204)" fill-opacity="1" points="1516.228,1718.473 1554.680,1625.419 1536.002,1612.978 1494.113,1713.999 " />
<polygon stroke="black" stroke-width="1" fill="rgb(204, 204, 204)" fill-opacity="1" points="1554.680,1625.419 1625.735,1554.028 1613.109,1535.349 1536.002,1612.978 " />
<polygon stroke="black" stroke-width="1" fill="rgb(204, 204, 204)" fill-opacity="1" points="1625.735,1554.028 1718.758,1515.167 1714.311,1492.909 1613.109,1535.349 " />
<polygon stroke="black" stroke-width="1" fill="rgb(204, 204, 204)" fill-opacity="1" points="1718.758,1515.167 1819.863,1515.257 1824.420,1493.032 1714.311,1492.909 " />
<polygon stroke="black" stroke-width="1" fill="rgb(204, 204, 204)" fill-opacity="1" points="1819.863,1515.257 1913.442,1554.540 1926.277,1535.782 1824.420,1493.032 " />
<polygon stroke="black" stroke-width="1" fill="rgb(204, 204, 204)" fill-opacity="1" points="1913.442,1554.540 1984.463,1627.195 2003.494,1614.844 1926.277,1535.782 " />
<polygon stroke="black" stroke-width="1" fill="rgb(204, 204, 204)" fill-opacity="1" points="1984.463,1627.195 2022.233,1721.197 2044.424,1716.945 2003.494,1614.844 " />
<polygon stroke="black" stroke-width="1" fill="rgb(204, 204, 204)" fill-opacity="1" points="2022.233,1721.197 2022.369,1822.174 2044.424,1826.522 2044.424,1716.945 " />
<polygon stroke="black" stroke-width="1" fill="rgb(204, 204, 204)" fill-opacity="1" points="2022.369,1822.174 1984.608,1915.066 2003.286,1927.347 2044.424,1826.522 " />
<polygon stroke="black" stroke-width="1" fill="rgb(204, 204, 204)" fill-opacity="1" points="494.180,1520.297 532.678,1553.783 766.670,1397.233 653.238,1283.031 " />
<polygon stroke="black" stroke-width="1" fill="rgb(204, 204, 204)" fill-opacity="1" points="406.066,1764.984 357.200,1748.652 196.617,2012.810 365.419,2048.000 " />
<polygon stroke="black" stroke-width="1" fill="rgb(204, 204, 204)" fill-opacity="1" points="445.271,1503.949 494.180,1520.297 653.238,1283.031 502.632,1220.296 " />
<polygon stroke="black" stroke-width="1" fill="rgb(204, 204, 204)" fill-opacity="1" points="457.165,1759.193 406.066,1764.984 365.419,2048.000 527.116,2040.709 " />
<polygon stroke="black" stroke-width="1" fill="rgb(204, 204, 204)" fill-opacity="1" points="393.373,1507.464 445.271,1503.949 502.632,1220.296 337.602,1220.150 " />
<polygon stroke="black" stroke-width="1" fill="rgb(204, 204, 204)" fill-opacity="1" points="502.610,1733.492 457.165,1759.193 527.116,2040.709 676.727,1972.018 " />
<polygon stroke="black" stroke-width="1" fill="rgb(204, 204, 204)" fill-opacity="1" points="311.812,1569.724 346.458,1530.525 183.585,1283.908 64.679,1402.929 " />
<polygon stroke="black" stroke-width="1" fill="rgb(204, 204, 204)" fill-opacity="1" points="346.458,1530.525 393.373,1507.464 337.602,1220.150 183.585,1283.908 " />
<polygon stroke="black" stroke-width="1" fill="rgb(204, 204, 204)" fill-opacity="1" points="539.218,1697.466 502.610,1733.492 676.727,1972.018 770.416,1840.878 " />
<polygon stroke="black" stroke-width="1" fill="rgb(204, 204, 204)" fill-opacity="1" points="294.847,1619.042 311.812,1569.724 64.679,1402.929 0.000,1559.925 " />
<polygon stroke="black" stroke-width="1" fill="rgb(204, 204, 204)" fill-opacity="1" points="557.520,1649.457 539.218,1697.466 770.416,1840.878 826.748,1699.313 " />
<polygon stroke="black" stroke-width="1" fill="rgb(204, 204, 204)" fill-opacity="1" points="298.197,1670.777 294.847,1619.042 0.000,1559.925 0.839,1731.425 " />
<polygon stroke="black" stroke-width="1" fill="rgb(204, 204, 204)" fill-opacity="1" points="554.948,1599.186 557.520,1649.457 826.748,1699.313 826.748,1543.812 " />
<polygon stroke="black" stroke-width="1" fill="rgb(204, 204, 204)" fill-opacity="1" points="319.701,1716.265 298.197,1670.777 0.839,1731.425 68.870,1891.029 " />
<polygon stroke="black" stroke-width="1" fill="rgb(204, 204, 204)" fill-opacity="1" points="532.678,1553.783 554.948,1599.186 826.748,1543.812 766.670,1397.233 " />
<polygon stroke="black" stroke-width="1" fill="rgb(204, 204, 204)" fill-opacity="1" points="2000.593,1817.864 1966.263,1903.001 1984.608,1915.066 2022.369,1822.174 " />
<polygon stroke="black" stroke-width="1" fill="rgb(204, 204, 204)" fill-opacity="1" points="2000.278,1725.375 2000.593,1817.864 2022.369,1822.174 2022.233,1721.197 " />
<polygon stroke="black" stroke-width="1" fill="rgb(204, 204, 204)" fill-opacity="1" points="1965.661,1639.353 2000.278,1725.375 2022.233,1721.197 1984.463,1627.195 " />
<polygon stroke="black" stroke-width="1" fill="rgb(204, 204, 204)" fill-opacity="1" points="1900.716,1573.228 1965.661,1639.353 1984.463,1627.195 1913.442,1554.540 " />
<polygon stroke="black" stroke-width="1" fill="rgb(204, 204, 204)" fill-opacity="1" points="1815.513,1537.190 1900.716,1573.228 1913.442,1554.540 1819.863,1515.257 " />
<polygon stroke="black" stroke-width="1" fill="rgb(204, 204, 204)" fill-opacity="1" points="1723.222,1536.980 1815.513,1537.190 1819.863,1515.257 1718.758,1515.167 " />
<polygon stroke="black" stroke-width="1" fill="rgb(204, 204, 204)" fill-opacity="1" points="1638.234,1572.440 1723.222,1536.980 1718.758,1515.167 1625.735,1554.028 " />
<polygon stroke="black" stroke-width="1" fill="rgb(204, 204, 204)" fill-opacity="1" points="1573.024,1637.641 1638.234,1572.440 1625.735,1554.028 1554.680,1625.419 " />
<polygon stroke="black" stroke-width="1" fill="rgb(204, 204, 204)" fill-opacity="1" points="1538.054,1722.913 1573.024,1637.641 1554.680,1625.419 1516.228,1718.473 " />
<polygon stroke="black" stroke-width="1" fill="rgb(204, 204, 204)" fill-opacity="1" points="1537.932,1815.469 1538.054,1722.913 1516.228,1718.473 1515.964,1819.662 " />
<polygon stroke="black" stroke-width="1" fill="rgb(204, 204, 204)" fill-opacity="1" points="1573.110,1901.335 1537.932,1815.469 1515.964,1819.662 1554.350,1913.624 " />
<polygon stroke="black" stroke-width="1" fill="rgb(204, 204, 204)" fill-opacity="1" points="1638.630,1967.471 1573.110,1901.335 1554.350,1913.624 1625.928,1986.017 " />
<polygon stroke="black" stroke-width="1" fill="rgb(204, 204, 204)" fill-opacity="1" points="1724.010,2003.518 1638.630,1967.471 1625.928,1986.017 1719.517,2025.699 " />
<polygon stroke="black" stroke-width="1" fill="rgb(204, 204, 204)" fill-opacity="1" points="1816.664,2003.721 1724.010,2003.518 1719.517,2025.699 1821.164,2025.619 " />
<polygon stroke="black" stroke-width="1" fill="rgb(204, 204, 204)" fill-opacity="1" points="1901.742,1968.215 1816.664,2003.721 1821.164,2025.619 1914.268,1986.551 " />
<polygon stroke="black" stroke-width="1" fill="rgb(204, 204, 204)" fill-opacity="1" points="1966.263,1903.001 1901.742,1968.215 1914.268,1986.551 1984.608,1915.066 " />
<polygon stroke="black" stroke-width="1" fill="rgb(204, 204, 204)" fill-opacity="1" points="1745.441,805.914 1784.488,805.914 1820.562,820.857 1848.172,848.466 1863.114,884.541 1863.114,923.587 1848.172,959.661 1820.562,987.271 1784.488,1002.214 1745.442,1002.214 1709.367,987.272 1681.757,959.661 1666.815,923.587 1531.238,950.555 1566.821,1036.460 1632.569,1102.208 1718.474,1137.791 1811.456,1137.791 1897.360,1102.208 1963.108,1036.460 1998.691,950.555 1998.691,857.573 1963.108,771.669 1897.360,705.920 1811.456,670.338 1718.473,670.338 1632.569,705.921 1566.821,771.669 1681.757,848.467 1709.367,820.857 " />
<polygon stroke="black" stroke-width="1" fill="rgb(204, 204, 204)" fill-opacity="1" points="838.507,568.896 1354.489,548.973 1351.823,487.945 835.605,497.854 " />
<polygon stroke="black" stroke-width="1" fill="rgb(204, 204, 204)" fill-opacity="1" points="1666.815,884.541 1681.757,848.467 1566.821,771.669 1531.238,857.573 1531.238,950.555 1666.815,923.587 " />
<polygon stroke="black" stroke-width="1" fill="rgb(204, 204, 204)" fill-opacity="1" points="1346.153,366.093 1348.942,426.986 1525.837,426.007 1523.135,368.274 " />
<polygon stroke="black" stroke-width="1" fill="rgb(204, 204, 204)" fill-opacity="1" points="1348.942,426.986 1351.823,487.945 1528.628,483.703 1525.837,426.007 " />
<polygon stroke="black" stroke-width="1" fill="rgb(204, 204, 204)" fill-opacity="1" points="1342.796,244.530 1343.924,305.266 1520.934,310.479 1519.716,252.607 " />
<polygon stroke="black" stroke-width="1" fill="rgb(204, 204, 204)" fill-opacity="1" points="1351.823,487.945 1354.489,548.973 1531.238,541.387 1528.628,483.703 " />
<polygon stroke="black" stroke-width="1" fill="rgb(204, 204, 204)" fill-opacity="1" points="1342.330,176.127 1342.796,244.530 1519.716,252.607 1519.952,194.703 " />
<polygon stroke="black" stroke-width="1" fill="rgb(204, 204, 204)" fill-opacity="1" points="1343.924,305.266 1346.153,366.093 1523.135,368.274 1520.934,310.479 " />
<polygon stroke="black" stroke-width="1" fill="rgb(204, 204, 204)" fill-opacity="1" points="1342.796,893.261 1342.331,961.664 1519.952,943.088 1519.715,885.185 " />
<polygon stroke="black" stroke-width="1" fill="rgb(204, 204, 204)" fill-opacity="1" points="1346.154,771.699 1343.924,832.525 1520.934,827.312 1523.135,769.516 " />
<polygon stroke="black" stroke-width="1" fill="rgb(204, 204, 204)" fill-opacity="1" points="1348.942,710.804 1346.154,771.699 1523.135,769.516 1525.838,711.784 " />
<polygon stroke="black" stroke-width="1" fill="rgb(204, 204, 204)" fill-opacity="1" points="1354.489,588.819 1351.824,649.847 1528.628,654.089 1531.238,596.403 " />
<polygon stroke="black" stroke-width="1" fill="rgb(204, 204, 204)" fill-opacity="1" points="1343.924,832.525 1342.796,893.261 1519.715,885.185 1520.934,827.312 " />
<polygon stroke="black" stroke-width="1" fill="rgb(204, 204, 204)" fill-opacity="1" points="1351.824,649.847 1348.942,710.804 1525.838,711.784 1528.628,654.089 " />
<polygon stroke="black" stroke-width="1" fill="rgb(204, 204, 204)" fill-opacity="1" points="224.743,1220.150 226.292,1102.819 8.529,1104.763 5.880,1214.160 " />
<polygon stroke="black" stroke-width="1" fill="rgb(204, 204, 204)" fill-opacity="1" points="1273.298,1930.669 1274.847,2048.000 1493.711,2042.010 1491.062,1932.613 " />

</svg>
