<?xml version="1.0" encoding="UTF-8" standalone="no"?>
<svg
   width="2048"
   height="2048"
   viewBox="0 0 2048 2048"
   version="1.1"
   id="svg48"
   sodipodi:docname="Right_wing.svg"
   inkscape:version="1.3.2 (091e20ef0f, 2023-11-25, custom)"
   xmlns:inkscape="http://www.inkscape.org/namespaces/inkscape"
   xmlns:sodipodi="http://sodipodi.sourceforge.net/DTD/sodipodi-0.dtd"
   xmlns="http://www.w3.org/2000/svg"
   xmlns:svg="http://www.w3.org/2000/svg">
  <defs
     id="defs48" />
  <sodipodi:namedview
     id="namedview48"
     pagecolor="#505050"
     bordercolor="#ffffff"
     borderopacity="1"
     inkscape:showpageshadow="0"
     inkscape:pageopacity="0"
     inkscape:pagecheckerboard="1"
     inkscape:deskcolor="#d1d1d1"
     inkscape:zoom="0.23091888"
     inkscape:cx="1022.0039"
     inkscape:cy="1019.8386"
     inkscape:window-width="1366"
     inkscape:window-height="724"
     inkscape:window-x="-1"
     inkscape:window-y="-1"
     inkscape:window-maximized="1"
     inkscape:current-layer="svg48" />
  <desc
     id="desc1">Boeing_747_8.blend, (Blender 3.3.9)</desc>
  <rect
     style="opacity:1;fill:#ffffff;stroke-width:50"
     id="rect49"
     width="2048"
     height="2048"
     x="0"
     y="0" />
  <polygon
     stroke="black"
     stroke-width="1"
     fill="rgb(204, 204, 204)"
     fill-opacity="1"
     points="36.974,442.222 72.712,445.078 520.043,54.788 542.228,1.515 "
     id="polygon1" />
  <polygon
     stroke="black"
     stroke-width="1"
     fill="rgb(204, 204, 204)"
     fill-opacity="1"
     points="1177.373,1332.163 1195.755,1322.859 1215.668,291.242 1191.345,241.928 "
     id="polygon2" />
  <polygon
     stroke="black"
     stroke-width="1"
     fill="rgb(204, 204, 204)"
     fill-opacity="1"
     points="507.892,1796.082 484.608,1746.269 401.357,1818.852 414.957,1899.016 "
     id="polygon3" />
  <polygon
     stroke="black"
     stroke-width="1"
     fill="rgb(204, 204, 204)"
     fill-opacity="1"
     points="1079.249,1351.850 992.484,300.402 907.983,229.453 851.404,647.025 792.800,1095.584 "
     id="polygon4" />
  <polygon
     stroke="black"
     stroke-width="1"
     fill="rgb(204, 204, 204)"
     fill-opacity="1"
     points="526.989,664.583 520.043,54.788 72.712,445.078 258.520,898.652 "
     id="polygon5" />
  <polygon
     stroke="black"
     stroke-width="1"
     fill="rgb(204, 204, 204)"
     fill-opacity="1"
     points="1015.215,249.312 1050.775,230.347 978.137,169.359 905.500,108.370 914.347,136.469 "
     id="polygon6" />
  <polygon
     stroke="black"
     stroke-width="1"
     fill="rgb(204, 204, 204)"
     fill-opacity="1"
     points="1095.293,925.477 1084.430,931.215 1095.130,2048.000 1131.380,2030.391 "
     id="polygon7" />
  <polygon
     stroke="black"
     stroke-width="1"
     fill="rgb(204, 204, 204)"
     fill-opacity="1"
     points="1259.202,2008.076 1302.171,2048.000 1302.171,1633.969 1263.780,1640.908 "
     id="polygon8" />
  <polygon
     stroke="black"
     stroke-width="1"
     fill="rgb(204, 204, 204)"
     fill-opacity="1"
     points="1237.755,1055.610 1255.236,1058.435 1255.236,1015.188 1238.313,1015.253 "
     id="polygon9" />
  <polygon
     stroke="black"
     stroke-width="1"
     fill="rgb(204, 204, 204)"
     fill-opacity="1"
     points="484.608,1746.269 526.122,715.295 266.922,957.111 334.476,1398.267 401.357,1818.852 "
     id="polygon10" />
  <polygon
     stroke="black"
     stroke-width="1"
     fill="rgb(204, 204, 204)"
     fill-opacity="1"
     points="1083.956,1405.056 1079.249,1351.850 792.800,1095.584 785.563,1154.517 "
     id="polygon11" />
  <polygon
     stroke="black"
     stroke-width="1"
     fill="rgb(204, 204, 204)"
     fill-opacity="1"
     points="1177.502,1386.478 1195.951,1373.578 1195.755,1322.859 1177.373,1332.163 "
     id="polygon12" />
  <polygon
     stroke="black"
     stroke-width="1"
     fill="rgb(204, 204, 204)"
     fill-opacity="1"
     points="1194.603,2036.819 1215.668,1983.094 1195.951,1373.578 1177.502,1386.478 "
     id="polygon13" />
  <polygon
     stroke="black"
     stroke-width="1"
     fill="rgb(204, 204, 204)"
     fill-opacity="1"
     points="1056.698,1999.341 1083.956,1405.056 785.563,1154.517 601.539,1618.904 "
     id="polygon14" />
  <polygon
     stroke="black"
     stroke-width="1"
     fill="rgb(204, 204, 204)"
     fill-opacity="1"
     points="1130.623,230.391 1092.926,228.226 1083.956,868.983 1093.285,869.373 "
     id="polygon15" />
  <polygon
     stroke="black"
     stroke-width="1"
     fill="rgb(204, 204, 204)"
     fill-opacity="1"
     points="771.092,1074.607 739.829,1040.460 730.784,1092.664 763.622,1128.038 "
     id="polygon16" />
  <polygon
     stroke="black"
     stroke-width="1"
     fill="rgb(204, 204, 204)"
     fill-opacity="1"
     points="526.122,715.295 526.989,664.583 258.520,898.652 266.922,957.111 "
     id="polygon17" />
  <polygon
     stroke="black"
     stroke-width="1"
     fill="rgb(204, 204, 204)"
     fill-opacity="1"
     points="243.381,976.341 266.922,957.111 258.520,898.652 234.750,923.182 "
     id="polygon18" />
  <polygon
     stroke="black"
     stroke-width="1"
     fill="rgb(204, 204, 204)"
     fill-opacity="1"
     points="207.864,1006.046 243.381,976.341 234.750,923.182 197.495,953.939 "
     id="polygon19" />
  <polygon
     stroke="black"
     stroke-width="1"
     fill="rgb(204, 204, 204)"
     fill-opacity="1"
     points="1166.154,2048.000 1194.603,2036.819 1177.502,1386.478 1156.024,1407.768 "
     id="polygon20" />
  <polygon
     stroke="black"
     stroke-width="1"
     fill="rgb(204, 204, 204)"
     fill-opacity="1"
     points="1156.024,1407.768 1177.502,1386.478 1177.373,1332.163 1156.043,1345.451 "
     id="polygon21" />
  <polygon
     stroke="black"
     stroke-width="1"
     fill="rgb(204, 204, 204)"
     fill-opacity="1"
     points="270.253,2048.000 342.605,1973.508 396.021,1916.916 377.086,1934.817 "
     id="polygon22" />
  <polygon
     stroke="black"
     stroke-width="1"
     fill="rgb(204, 204, 204)"
     fill-opacity="1"
     points="542.228,1812.323 507.892,1796.082 414.957,1899.016 407.030,1918.062 470.666,1874.716 "
     id="polygon23" />
  <polygon
     stroke="black"
     stroke-width="1"
     fill="rgb(204, 204, 204)"
     fill-opacity="1"
     points="1156.043,1345.451 1177.373,1332.163 1191.345,241.928 1156.676,226.409 "
     id="polygon24" />
  <polygon
     stroke="black"
     stroke-width="1"
     fill="rgb(204, 204, 204)"
     fill-opacity="1"
     points="1289.729,1219.938 1259.202,1267.496 1263.780,1633.153 1289.729,1633.969 "
     id="polygon25" />
  <polygon
     stroke="black"
     stroke-width="1"
     fill="rgb(204, 204, 204)"
     fill-opacity="1"
     points="792.800,1095.584 771.092,1074.607 763.622,1128.038 785.563,1154.517 "
     id="polygon26" />
  <polygon
     stroke="black"
     stroke-width="1"
     fill="rgb(204, 204, 204)"
     fill-opacity="1"
     points="1156.024,280.045 1130.623,230.391 1093.285,869.373 1106.340,872.877 "
     id="polygon27" />
  <polygon
     stroke="black"
     stroke-width="1"
     fill="rgb(204, 204, 204)"
     fill-opacity="1"
     points="1106.340,872.877 1093.285,869.373 1095.293,925.477 1109.034,926.222 "
     id="polygon28" />
  <polygon
     stroke="black"
     stroke-width="1"
     fill="rgb(204, 204, 204)"
     fill-opacity="1"
     points="601.539,1618.904 570.345,1617.952 1083.956,2048.000 1056.698,1999.341 "
     id="polygon29" />
  <polygon
     stroke="black"
     stroke-width="1"
     fill="rgb(204, 204, 204)"
     fill-opacity="1"
     points="1109.034,926.222 1095.293,925.477 1131.380,2030.391 1156.024,1980.196 "
     id="polygon30" />
  <polygon
     stroke="black"
     stroke-width="1"
     fill="rgb(204, 204, 204)"
     fill-opacity="1"
     points="992.484,300.402 1015.215,249.312 914.347,136.469 907.983,229.453 "
     id="polygon31" />
  <polygon
     stroke="black"
     stroke-width="1"
     fill="rgb(204, 204, 204)"
     fill-opacity="1"
     points="883.495,111.134 914.347,136.469 774.763,0.000 "
     id="polygon32" />
  <polygon
     stroke="black"
     stroke-width="1"
     fill="rgb(204, 204, 204)"
     fill-opacity="1"
     points="399.103,1937.109 407.030,1918.062 342.605,1973.508 270.253,2048.000 "
     id="polygon33" />
  <polygon
     stroke="black"
     stroke-width="1"
     fill="rgb(204, 204, 204)"
     fill-opacity="1"
     points="914.347,136.469 905.500,108.370 774.763,0.000 "
     id="polygon34" />
  <polygon
     stroke="black"
     stroke-width="1"
     fill="rgb(204, 204, 204)"
     fill-opacity="1"
     points="36.974,442.222 0.000,488.686 256.845,895.660 258.520,898.652 72.712,445.078 "
     id="polygon35" />
  <polygon
     stroke="black"
     stroke-width="1"
     fill="rgb(204, 204, 204)"
     fill-opacity="1"
     points="1222.882,826.026 1237.546,853.475 1239.413,804.179 1215.668,804.179 "
     id="polygon36" />
  <polygon
     stroke="black"
     stroke-width="1"
     fill="rgb(204, 204, 204)"
     fill-opacity="1"
     points="1222.551,1027.871 1215.668,1058.435 1237.755,1058.344 1237.755,981.024 "
     id="polygon37" />
  <polygon
     stroke="black"
     stroke-width="1"
     fill="rgb(204, 204, 204)"
     fill-opacity="1"
     points="1255.397,1172.370 1257.257,1079.097 1253.574,1083.467 1237.435,2044.364 1259.202,2048.000 1255.260,1594.820 "
     id="polygon38" />
  <polygon
     stroke="black"
     stroke-width="1"
     fill="rgb(204, 204, 204)"
     fill-opacity="1"
     points="1259.202,1058.435 1254.547,1073.136 1253.574,1083.467 "
     id="polygon39" />
  <polygon
     stroke="black"
     stroke-width="1"
     fill="rgb(204, 204, 204)"
     fill-opacity="1"
     points="791.134,1149.788 542.228,1562.193 570.345,1617.952 601.539,1618.904 785.563,1154.517 "
     id="polygon40" />
  <polygon
     stroke="black"
     stroke-width="1"
     fill="rgb(204, 204, 204)"
     fill-opacity="1"
     points="1239.396,902.806 1239.396,853.475 1222.302,881.591 1215.668,903.705 "
     id="polygon41" />
  <polygon
     stroke="black"
     stroke-width="1"
     fill="rgb(204, 204, 204)"
     fill-opacity="1"
     points="1237.437,981.024 1237.755,903.705 1215.668,903.705 1222.058,934.273 "
     id="polygon42" />
  <polygon
     stroke="black"
     stroke-width="1"
     fill="rgb(204, 204, 204)"
     fill-opacity="1"
     points="1237.435,2044.364 1253.574,1083.467 1249.892,1087.836 1246.932,1169.086 1231.368,1594.688 1215.668,2040.727 "
     id="polygon43" />
  <polygon
     stroke="black"
     stroke-width="1"
     fill="rgb(204, 204, 204)"
     fill-opacity="1"
     points="1253.574,1083.467 1257.257,1079.097 1259.202,1058.435 "
     id="polygon44" />
  <polygon
     stroke="black"
     stroke-width="1"
     fill="rgb(204, 204, 204)"
     fill-opacity="1"
     points="1253.574,1083.467 1254.547,1073.136 1249.892,1087.836 "
     id="polygon45" />
  <polygon
     stroke="black"
     stroke-width="1"
     fill="rgb(204, 204, 204)"
     fill-opacity="1"
     points="396.021,1916.916 342.605,1973.508 414.957,1899.016 "
     id="polygon46" />
  <polygon
     stroke="black"
     stroke-width="1"
     fill="rgb(204, 204, 204)"
     fill-opacity="1"
     points="342.605,1973.508 407.030,1918.062 414.957,1899.016 "
     id="polygon47" />
  <polygon
     stroke="black"
     stroke-width="1"
     fill="rgb(204, 204, 204)"
     fill-opacity="1"
     points="470.666,1874.716 407.030,1918.062 399.103,1937.109 "
     id="polygon48" />
  <text
     xml:space="preserve"
     style="font-size:72px;line-height:0;font-family:'TeX Gyre Heros';-inkscape-font-specification:'TeX Gyre Heros';text-decoration-color:#000000;letter-spacing:0px;word-spacing:0px;fill:#000000;stroke-width:0.36097;-inkscape-stroke:none;stop-color:#000000"
     x="470.65268"
     y="-95.608467"
     id="text48"
     transform="rotate(75)"><tspan
       sodipodi:role="line"
       id="tspan48"
       x="470.65268"
       y="-95.608467"
       style="font-style:italic;font-variant:normal;font-weight:bold;font-stretch:normal;font-family:Verdana;-inkscape-font-specification:'Verdana Bold Italic'">YOUR LIVERY HERE</tspan></text>
  <text
     xml:space="preserve"
     style="font-size:72px;line-height:0;font-family:'TeX Gyre Heros';-inkscape-font-specification:'TeX Gyre Heros';text-decoration-color:#000000;letter-spacing:0px;word-spacing:0px;fill:#000000;stroke-width:0.36097;-inkscape-stroke:none;stop-color:#000000"
     x="793.07544"
     y="-897.47906"
     id="text49"
     transform="rotate(89.388792)"><tspan
       sodipodi:role="line"
       id="tspan49"
       x="793.07544"
       y="-897.47906"
       style="font-style:italic;font-variant:normal;font-weight:bold;font-stretch:normal;font-family:Verdana;-inkscape-font-specification:'Verdana Bold Italic'">YOUR LIVERY HERE</tspan></text>
</svg>
