<?xml version="1.0" encoding="UTF-8" standalone="no"?>
<svg
   width="1024"
   height="1024"
   viewBox="0 0 1024 1024"
   version="1.1"
   id="svg208"
   sodipodi:docname="ENG1.svg"
   inkscape:version="1.3.2 (091e20ef0f, 2023-11-25, custom)"
   xml:space="preserve"
   xmlns:inkscape="http://www.inkscape.org/namespaces/inkscape"
   xmlns:sodipodi="http://sodipodi.sourceforge.net/DTD/sodipodi-0.dtd"
   xmlns:xlink="http://www.w3.org/1999/xlink"
   xmlns="http://www.w3.org/2000/svg"
   xmlns:svg="http://www.w3.org/2000/svg"><defs
     id="defs208"><linearGradient
       id="linearGradient41"
       inkscape:collect="always"><stop
         style="stop-color:#404040;stop-opacity:1;"
         offset="0"
         id="stop39" /><stop
         style="stop-color:#ffffff;stop-opacity:1;"
         offset="0.5"
         id="stop40" /><stop
         style="stop-color:#404040;stop-opacity:1;"
         offset="1"
         id="stop41" /></linearGradient><linearGradient
       id="linearGradient44"
       inkscape:collect="always"><stop
         style="stop-color:#404040;stop-opacity:1;"
         offset="0"
         id="stop42" /><stop
         style="stop-color:#ffffff;stop-opacity:1;"
         offset="0.8990733"
         id="stop43" /><stop
         style="stop-color:#404040;stop-opacity:1;"
         offset="1"
         id="stop44" /></linearGradient><linearGradient
       inkscape:collect="always"
       xlink:href="#linearGradient41"
       id="linearGradient25"
       x1="540.76953"
       y1="66.293945"
       x2="674.01758"
       y2="66.293945"
       gradientUnits="userSpaceOnUse" /><radialGradient
       inkscape:collect="always"
       xlink:href="#linearGradient9-9"
       id="radialGradient182"
       cx="206.68652"
       cy="817.03711"
       fx="206.68652"
       fy="817.03711"
       r="206.68652"
       gradientTransform="matrix(1,0,0,1.0013371,0,-1.092478)"
       gradientUnits="userSpaceOnUse" /><linearGradient
       id="linearGradient9-9"
       inkscape:collect="always"
       gradientTransform="matrix(0.97812409,0,0,1.0223652,1141.9204,40.44336)"
       x1="523.58563"
       y1="1.3085606"
       x2="657.65747"
       y2="1.3085606"
       gradientUnits="userSpaceOnUse"><stop
         style="stop-color:#404040;stop-opacity:1;"
         offset="0"
         id="stop7" /><stop
         style="stop-color:#ffffff;stop-opacity:1;"
         offset="0.5"
         id="stop8" /><stop
         style="stop-color:#404040;stop-opacity:1;"
         offset="1"
         id="stop9" /></linearGradient><linearGradient
       inkscape:collect="always"
       xlink:href="#linearGradient9-9"
       id="linearGradient185"
       x1="589.49609"
       y1="16.35144"
       x2="589.49609"
       y2="277.87427"
       gradientUnits="userSpaceOnUse" /><linearGradient
       inkscape:collect="always"
       xlink:href="#linearGradient9-9"
       id="linearGradient183"
       x1="589.49609"
       y1="284.44727"
       x2="589.49609"
       y2="568.89648"
       gradientUnits="userSpaceOnUse" /><radialGradient
       inkscape:collect="always"
       xlink:href="#linearGradient44"
       id="radialGradient181"
       cx="884.53418"
       cy="885.22754"
       fx="884.53418"
       fy="885.22754"
       r="137.67873"
       gradientTransform="matrix(1,0,0,1.0079442,0,-7.03241)"
       gradientUnits="userSpaceOnUse" /><style
       id="style1">.cls-2{fill:#0033a1;}</style><inkscape:perspective
       sodipodi:type="inkscape:persp3d"
       inkscape:vp_x="0 : 133 : 1"
       inkscape:vp_y="0 : 1000 : 0"
       inkscape:vp_z="697.69098 : 133 : 1"
       inkscape:persp3d-origin="348.84549 : 88.666667 : 1"
       id="perspective58" /><style
       id="style1-6">
      .cls-1 {
        fill: #0081c6;
        stroke-width: 0px;
      }
    </style></defs><sodipodi:namedview
     id="namedview208"
     pagecolor="#505050"
     bordercolor="#ffffff"
     borderopacity="1"
     inkscape:showpageshadow="0"
     inkscape:pageopacity="0"
     inkscape:pagecheckerboard="1"
     inkscape:deskcolor="#d1d1d1"
     inkscape:zoom="0.41496856"
     inkscape:cx="679.56956"
     inkscape:cy="466.30039"
     inkscape:window-width="1366"
     inkscape:window-height="724"
     inkscape:window-x="-1"
     inkscape:window-y="-1"
     inkscape:window-maximized="1"
     inkscape:current-layer="svg208" /><desc
     id="desc1">Boeing_747SP.blend, (Blender 3.3.9)</desc><rect
     style="fill:#cccccc;fill-opacity:1;stroke-width:15;stroke-linecap:square"
     id="rect1"
     width="1024"
     height="1024"
     x="0"
     y="0"
     rx="2.3779886"
     ry="2.3779886" /><path
     id="polygon1-9"
     d="m 118.25391,154.9707 -115.314457,8.41407 2.720703,56.42187 0.882813,56.12305 -0.06641,55.79492 -0.472656,55.49805 -0.5625,55.23828 -0.541016,55.02148 -0.636719,54.89844 -1.324219,54.69922 109.431641,2.99414 106.96289,-3.9668 105.29493,-13.21484 -4.87696,-49.76367 -2.73242,-50.22071 -1.06836,-50.49609 0.41797,-50.7832 1.94336,-51.08203 3.68164,-51.36719 5.82227,-51.58008 8.60547,-51.58789 -110.10352,-22.12695 z"
     style="fill:#ffffff;fill-opacity:1" /><path
     id="polygon2"
     d="m 631.54297,568.89648 -108.06641,8.91407 -110.10351,22.12695 8.60547,51.58594 5.82226,51.58203 3.68164,51.36719 1.94336,51.08203 0.41797,50.78515 -1.06836,50.49414 -2.73047,50.21875 -4.87695,49.76367 105.29492,13.2168 106.96094,3.9668 109.43164,-2.9941 -1.32422,-54.69926 -0.63672,-54.89844 -0.54101,-55.02343 -0.5625,-55.23633 -0.47266,-55.49805 -0.0664,-55.79687 0.88282,-56.1211 2.7207,-56.42383 z"
     style="fill:#ffffff;fill-opacity:1" /><path
     id="polygon15-2"
     d="M 168.80078,610.07422 91.79297,641.95312 32.339844,701.46484 0,779.96289 l 0.419922,85.75 34.015625,79.80078 63.873043,60.89063 84.40039,17.5957 80.84961,-3.6445 74.80469,-34.34573 46.84375,-65.57032 28.16602,-70.7832 v -77.75 l -30.03711,-73.29102 -56.7168,-57.09961 -75.30273,-31.36718 z m 53.83399,141.90039 24.45507,8.17383 19.25,16.74414 11.13477,22.70117 1.28516,25.13477 -9.15039,24.0039 -18.30469,18.01367 -22.72266,12.84961 -25.54883,2.89649 -24.43359,-8.16602 -18.74805,-16.19336 -10.7539,-22.74414 -1.67383,-25.86719 8.48242,-24.66015 17.32227,-19.59766 23.45898,-11.53125 z"
     style="fill:url(#radialGradient182)" /><path
     id="polygon17"
     d="m 418.49219,0 -2.80274,35.412109 -1.67187,35.6875 -0.64453,35.761721 0.36328,35.51172 1.07226,35.52539 1.44922,35.51367 1.54492,35.51562 1.45118,35.51954 257.99023,-9.96094 88.375,-3.79297 -1.30469,-28.8418 -1.39453,-28.84765 -1.35156,-28.86719 -1.10156,-28.89844 -0.60938,-28.93555 0.11914,-28.951168 1.89453,-29.072265 3.74805,-28.900391 -89.41406,-14.736328 z"
     style="fill:url(#linearGradient185)" /><path
     id="polygon18-2"
     d="m 419.25391,284.44727 -1.45118,35.52148 -1.54492,35.51367 -1.44922,35.51563 -1.07226,35.52343 -0.36328,35.51172 0.64453,35.76172 1.67383,35.6875 2.80078,35.41406 257.71289,-24.64257 89.41406,-14.73829 -3.74805,-28.89843 -1.89453,-29.07227 -0.11914,-28.95312 0.60938,-28.93555 1.10156,-28.89844 1.35156,-28.86523 1.39453,-28.84766 1.30469,-28.84375 -88.375,-3.79297 z"
     style="fill:url(#linearGradient183)" /><path
     id="polygon49"
     d="m 880.14844,52.023438 -45.49414,18.195312 -36.81836,32.32813 -23.92578,42.75976 -8.29102,48.28906 8.29102,48.29102 23.92578,42.75976 36.81836,32.32813 45.49414,18.19531 8.32031,-38.96289 -32.97461,-13.18555 -26.68555,-23.43164 -17.33984,-30.99218 -6.01172,-35.00196 6.01172,-35 17.33984,-30.99218 26.68555,-23.43164 32.97461,-13.187505 z m 122.84956,0 -45.49214,18.195312 -36.81836,32.32813 -23.92578,42.75976 -8.29297,48.28906 8.29297,48.29102 23.92578,42.75976 36.81836,32.32813 45.49214,18.19531 8.3223,-38.96289 -32.9746,-13.18555 -26.68554,-23.43164 -17.3418,-30.99218 -6.00977,-35.00196 6.00977,-35 17.3418,-30.99218 26.68554,-23.43164 32.9746,-13.187505 z" /><path
     id="polygon79"
     d="M 85.43164,6.390625 55.896484,7.773438 29.546875,20.152344 10.087891,41.251953 0,67.789062 l 0.433594,28.220704 10.80664,26.072264 19.796875,20.35156 26.236329,11.63672 29.099612,0.90039 27.65625,-10.45898 21.73828,-20.66406 12.00586,-27.841801 V 65.503906 L 135.66211,37.511719 113.58789,16.724609 Z" /><path
     id="polygon84"
     d="m 808.86914,592.4668 -28.59375,11.75781 -21.84961,21.99219 -11.57031,28.46093 0.16406,30.43555 11.64844,28.10938 21.73242,21.6875 28.25,11.54492 30.32813,-0.01 28.21679,-11.65234 21.70899,-21.75391 11.59765,-28.33984 v -30.13086 l -11.20117,-27.9043 -21.19922,-21.87695 -28.35742,-12.16016 z m 7.05664,36.07226 16.36328,0.22461 15.00782,6.13672 11.45312,11.46875 6.13281,15.03711 -0.14648,16.25391 -6.39649,14.90625 -11.30468,11.63671 -14.93555,6.38282 -16.30078,0.13476 -14.97852,-6.27929 -11.63476,-11.45313 -6.41602,-15.08594 0.12695,-16.36523 6.36524,-15.08203 11.67969,-11.45899 z" /><path
     id="polygon115"
     d="M 857.1543,746.45508 806.55469,767.67383 768.00195,806.48828 747.05664,857 l -0.20117,54.97266 20.82226,51.08203 38.88086,39.35941 50.91016,21.5859 55.36719,-0.025 50.64453,-21.3945 38.16213,-38.90627 20.5703,-50.41211 v -54.78906 l -20.4668,-51.05078 -38.60743,-39.53126 -50.92773,-21.375 z m 4.45703,22.03515 46.14648,0.10547 42.59961,18.01758 32.47268,33.0625 17.3086,43.01172 0.1582,46.24414 -17.1641,42.57031 -32.26171,32.60547 -42.53906,17.75388 -46.32617,-0.1015 -42.69141,-18.02542 -32.75976,-33.06641 -17.58789,-42.93359 0.0605,-46.2793 17.48438,-42.63477 32.60547,-32.59961 z"
     style="fill:url(#radialGradient181)" /><path
     id="polygon162"
     d="m 859.23633,335.16992 -42.95313,17.79102 -32.87304,32.87304 -17.79102,42.95118 v 46.49218 l 17.79102,42.95313 32.875,32.87305 42.95117,17.79296 h 46.49219 l 42.95117,-17.79296 32.87501,-32.87305 17.791,-42.95313 v -46.49218 l -17.791,-42.95118 -32.87501,-32.87304 -42.95117,-17.79102 z m 13.48437,67.78711 h 19.52344 l 18.03711,7.4707 13.80469,13.80469 7.4707,18.03711 v 19.52539 l -7.4707,18.03516 -13.80469,13.80664 -18.03711,7.4707 H 872.7207 l -18.03711,-7.4707 -13.80468,-13.80664 -7.47266,-18.03516 v -19.52344 l 7.47266,-18.03906 13.80468,-13.80469 z" /><g
     id="g3"
     transform="matrix(-1,0,0,1,749.83225,433.73749)" /></svg>
