<?xml version="1.0" encoding="UTF-8" standalone="no"?>
<svg
   width="1024"
   height="1024"
   viewBox="0 0 1024 1024"
   version="1.1"
   id="svg178"
   sodipodi:docname="ENG1.svg"
   inkscape:version="1.3.2 (091e20ef0f, 2023-11-25, custom)"
   xmlns:inkscape="http://www.inkscape.org/namespaces/inkscape"
   xmlns:sodipodi="http://sodipodi.sourceforge.net/DTD/sodipodi-0.dtd"
   xmlns:xlink="http://www.w3.org/1999/xlink"
   xmlns="http://www.w3.org/2000/svg"
   xmlns:svg="http://www.w3.org/2000/svg">
  <defs
     id="defs178">
    <linearGradient
       id="linearGradient41"
       inkscape:collect="always">
      <stop
         style="stop-color:#404040;stop-opacity:1;"
         offset="0"
         id="stop39" />
      <stop
         style="stop-color:#ffffff;stop-opacity:1;"
         offset="0.5"
         id="stop40" />
      <stop
         style="stop-color:#404040;stop-opacity:1;"
         offset="1"
         id="stop41" />
    </linearGradient>
    <linearGradient
       id="linearGradient9"
       inkscape:collect="always"
       gradientTransform="matrix(0.97812409,0,0,1.0223652,1141.9204,40.44336)"
       x1="523.58565"
       y1="1.3085606"
       x2="657.65748"
       y2="1.3085606"
       gradientUnits="userSpaceOnUse">
      <stop
         style="stop-color:#404040;stop-opacity:1;"
         offset="0"
         id="stop7" />
      <stop
         style="stop-color:#ffffff;stop-opacity:1;"
         offset="0.5"
         id="stop8" />
      <stop
         style="stop-color:#404040;stop-opacity:1;"
         offset="1"
         id="stop9" />
    </linearGradient>
    <linearGradient
       id="linearGradient44"
       inkscape:collect="always">
      <stop
         style="stop-color:#404040;stop-opacity:1;"
         offset="0"
         id="stop42" />
      <stop
         style="stop-color:#ffffff;stop-opacity:1;"
         offset="0.8990733"
         id="stop43" />
      <stop
         style="stop-color:#404040;stop-opacity:1;"
         offset="1"
         id="stop44" />
    </linearGradient>
    <linearGradient
       inkscape:collect="always"
       xlink:href="#linearGradient41"
       id="linearGradient24"
       x1="514.78516"
       y1="69.873047"
       x2="640.61719"
       y2="69.873047"
       gradientUnits="userSpaceOnUse"
       gradientTransform="matrix(1.0421744,0,0,1.0421744,-24.364202,-2.9468541)" />
    <radialGradient
       inkscape:collect="always"
       xlink:href="#linearGradient44"
       id="radialGradient181"
       cx="884.53418"
       cy="885.22754"
       fx="884.53418"
       fy="885.22754"
       r="137.67873"
       gradientTransform="matrix(1,0,0,1.0079442,0,-7.0324102)"
       gradientUnits="userSpaceOnUse" />
    <radialGradient
       inkscape:collect="always"
       xlink:href="#linearGradient9"
       id="radialGradient182"
       cx="206.68652"
       cy="817.03711"
       fx="206.68652"
       fy="817.03711"
       r="206.68652"
       gradientTransform="matrix(1,0,0,1.0013371,0,-1.0924779)"
       gradientUnits="userSpaceOnUse" />
    <linearGradient
       inkscape:collect="always"
       xlink:href="#linearGradient9"
       id="linearGradient183"
       x1="589.49609"
       y1="284.44727"
       x2="589.49609"
       y2="568.89648"
       gradientUnits="userSpaceOnUse" />
    <linearGradient
       inkscape:collect="always"
       xlink:href="#linearGradient9"
       id="linearGradient185"
       x1="589.49609"
       y1="16.35144"
       x2="589.49609"
       y2="277.87427"
       gradientUnits="userSpaceOnUse" />
  </defs>
  <sodipodi:namedview
     id="namedview178"
     pagecolor="#505050"
     bordercolor="#ffffff"
     borderopacity="1"
     inkscape:showpageshadow="0"
     inkscape:pageopacity="0"
     inkscape:pagecheckerboard="1"
     inkscape:deskcolor="#d1d1d1"
     inkscape:zoom="0.48144531"
     inkscape:cx="510.96146"
     inkscape:cy="512"
     inkscape:window-width="1366"
     inkscape:window-height="724"
     inkscape:window-x="-1"
     inkscape:window-y="-1"
     inkscape:window-maximized="1"
     inkscape:current-layer="svg178" />
  <desc
     id="desc1">Boeing_747_Supertanker.blend, (Blender 3.3.9)</desc>
  <rect
     style="opacity:1;fill:#ffffff;stroke-width:20"
     id="rect1"
     width="1024"
     height="1024"
     x="0"
     y="0" />
  <path
     id="polygon1"
     d="M 118.25391 154.9707 L 2.9394531 163.38477 L 5.6601562 219.80664 L 6.5429688 275.92969 L 6.4765625 331.72461 L 6.0039062 387.22266 L 5.4414062 442.46094 L 4.9003906 497.48242 L 4.2636719 552.38086 L 2.9394531 607.08008 L 112.37109 610.07422 L 219.33398 606.10742 L 324.62891 592.89258 L 319.75195 543.12891 L 317.01953 492.9082 L 315.95117 442.41211 L 316.36914 391.62891 L 318.3125 340.54688 L 321.99414 289.17969 L 327.81641 237.59961 L 336.42188 186.01172 L 226.31836 163.88477 L 118.25391 154.9707 z "
     style="fill:#b3b3b3" />
  <path
     id="polygon2"
     d="M 631.54297 568.89648 L 523.47656 577.81055 L 413.37305 599.9375 L 421.97852 651.52344 L 427.80078 703.10547 L 431.48242 754.47266 L 433.42578 805.55469 L 433.84375 856.33984 L 432.77539 906.83398 L 430.04492 957.05273 L 425.16797 1006.8164 L 530.46289 1020.0332 L 637.42383 1024 L 746.85547 1021.0059 L 745.53125 966.30664 L 744.89453 911.4082 L 744.35352 856.38477 L 743.79102 801.14844 L 743.31836 745.65039 L 743.25195 689.85352 L 744.13477 633.73242 L 746.85547 577.30859 L 631.54297 568.89648 z "
     style="fill:#b3b3b3" />
  <path
     id="polygon15"
     d="M 168.80078 610.07422 L 91.792969 641.95312 L 32.339844 701.46484 L 0 779.96289 L 0.41992188 865.71289 L 34.435547 945.51367 L 98.308594 1006.4043 L 182.70898 1024 L 263.55859 1020.3555 L 338.36328 986.00977 L 385.20703 920.43945 L 413.37305 849.65625 L 413.37305 771.90625 L 383.33594 698.61523 L 326.61914 641.51562 L 251.31641 610.14844 L 168.80078 610.07422 z M 222.63477 751.97461 L 247.08984 760.14844 L 266.33984 776.89258 L 277.47461 799.59375 L 278.75977 824.72852 L 269.60938 848.73242 L 251.30469 866.74609 L 228.58203 879.5957 L 203.0332 882.49219 L 178.59961 874.32617 L 159.85156 858.13281 L 149.09766 835.38867 L 147.42383 809.52148 L 155.90625 784.86133 L 173.22852 765.26367 L 196.6875 753.73242 L 222.63477 751.97461 z "
     style="fill:url(#radialGradient182)" />
  <path
     id="polygon17"
     d="M 418.49219 0 L 415.68945 35.412109 L 414.01758 71.099609 L 413.37305 106.86133 L 413.73633 142.37305 L 414.80859 177.89844 L 416.25781 213.41211 L 417.80273 248.92773 L 419.25391 284.44727 L 677.24414 274.48633 L 765.61914 270.69336 L 764.31445 241.85156 L 762.91992 213.00391 L 761.56836 184.13672 L 760.4668 155.23828 L 759.85742 126.30273 L 759.97656 97.351562 L 761.87109 68.279297 L 765.61914 39.378906 L 676.20508 24.642578 L 418.49219 0 z "
     style="fill:url(#linearGradient185)" />
  <path
     id="polygon18"
     d="M 419.25391 284.44727 L 417.80273 319.96875 L 416.25781 355.48242 L 414.80859 390.99805 L 413.73633 426.52148 L 413.37305 462.0332 L 414.01758 497.79492 L 415.69141 533.48242 L 418.49219 568.89648 L 676.20508 544.25391 L 765.61914 529.51562 L 761.87109 500.61719 L 759.97656 471.54492 L 759.85742 442.5918 L 760.4668 413.65625 L 761.56836 384.75781 L 762.91992 355.89258 L 764.31445 327.04492 L 765.61914 298.20117 L 677.24414 294.4082 L 419.25391 284.44727 z "
     style="fill:url(#linearGradient183)" />
  <path
     id="polygon49"
     d="M 880.14844 52.023438 L 834.6543 70.21875 L 797.83594 102.54688 L 773.91016 145.30664 L 765.61914 193.5957 L 773.91016 241.88672 L 797.83594 284.64648 L 834.6543 316.97461 L 880.14844 335.16992 L 888.46875 296.20703 L 855.49414 283.02148 L 828.80859 259.58984 L 811.46875 228.59766 L 805.45703 193.5957 L 811.46875 158.5957 L 828.80859 127.60352 L 855.49414 104.17188 L 888.46875 90.984375 L 880.14844 52.023438 z M 1002.998 52.023438 L 957.50586 70.21875 L 920.6875 102.54688 L 896.76172 145.30664 L 888.46875 193.5957 L 896.76172 241.88672 L 920.6875 284.64648 L 957.50586 316.97461 L 1002.998 335.16992 L 1011.3203 296.20703 L 978.3457 283.02148 L 951.66016 259.58984 L 934.31836 228.59766 L 928.30859 193.5957 L 934.31836 158.5957 L 951.66016 127.60352 L 978.3457 104.17188 L 1011.3203 90.984375 L 1002.998 52.023438 z " />
  <path
     id="polygon79"
     d="M 85.431641 6.390625 L 55.896484 7.7734375 L 29.546875 20.152344 L 10.087891 41.251953 L 0 67.789062 L 0.43359375 96.009766 L 11.240234 122.08203 L 31.037109 142.43359 L 57.273438 154.07031 L 86.373047 154.9707 L 114.0293 144.51172 L 135.76758 123.84766 L 147.77344 96.005859 L 147.77344 65.503906 L 135.66211 37.511719 L 113.58789 16.724609 L 85.431641 6.390625 z " />
  <path
     id="polygon84"
     d="M 808.86914 592.4668 L 780.27539 604.22461 L 758.42578 626.2168 L 746.85547 654.67773 L 747.01953 685.11328 L 758.66797 713.22266 L 780.40039 734.91016 L 808.65039 746.45508 L 838.97852 746.44531 L 867.19531 734.79297 L 888.9043 713.03906 L 900.50195 684.69922 L 900.50195 654.56836 L 889.30078 626.66406 L 868.10156 604.78711 L 839.74414 592.62695 L 808.86914 592.4668 z M 815.92578 628.53906 L 832.28906 628.76367 L 847.29688 634.90039 L 858.75 646.36914 L 864.88281 661.40625 L 864.73633 677.66016 L 858.33984 692.56641 L 847.03516 704.20312 L 832.09961 710.58594 L 815.79883 710.7207 L 800.82031 704.44141 L 789.18555 692.98828 L 782.76953 677.90234 L 782.89648 661.53711 L 789.26172 646.45508 L 800.94141 634.99609 L 815.92578 628.53906 z " />
  <path
     id="polygon115"
     d="M 857.1543 746.45508 L 806.55469 767.67383 L 768.00195 806.48828 L 747.05664 857 L 746.85547 911.97266 L 767.67773 963.05469 L 806.55859 1002.4141 L 857.46875 1024 L 912.83594 1023.9746 L 963.48047 1002.5801 L 1001.6426 963.67383 L 1022.2129 913.26172 L 1022.2129 858.47266 L 1001.7461 807.42188 L 963.13867 767.89062 L 912.21094 746.51562 L 857.1543 746.45508 z M 861.61133 768.49023 L 907.75781 768.5957 L 950.35742 786.61328 L 982.83008 819.67578 L 1000.1387 862.6875 L 1000.2969 908.93164 L 983.13281 951.50195 L 950.87109 984.10742 L 908.33203 1001.8613 L 862.00586 1001.7598 L 819.31445 983.73438 L 786.55469 950.66797 L 768.9668 907.73438 L 769.02734 861.45508 L 786.51172 818.82031 L 819.11719 786.2207 L 861.61133 768.49023 z "
     style="fill:url(#radialGradient181)" />
  <path
     id="polygon162"
     d="M 859.23633 335.16992 L 816.2832 352.96094 L 783.41016 385.83398 L 765.61914 428.78516 L 765.61914 475.27734 L 783.41016 518.23047 L 816.28516 551.10352 L 859.23633 568.89648 L 905.72852 568.89648 L 948.67969 551.10352 L 981.55469 518.23047 L 999.3457 475.27734 L 999.3457 428.78516 L 981.55469 385.83398 L 948.67969 352.96094 L 905.72852 335.16992 L 859.23633 335.16992 z M 872.7207 402.95703 L 892.24414 402.95703 L 910.28125 410.42773 L 924.08594 424.23242 L 931.55664 442.26953 L 931.55664 461.79492 L 924.08594 479.83008 L 910.28125 493.63672 L 892.24414 501.10742 L 872.7207 501.10742 L 854.68359 493.63672 L 840.87891 479.83008 L 833.40625 461.79492 L 833.40625 442.27148 L 840.87891 424.23242 L 854.68359 410.42773 L 872.7207 402.95703 z " />
</svg>
