<?xml version="1.0" encoding="UTF-8" standalone="no"?>
<svg
   width="1024"
   height="1024"
   viewBox="0 0 1024 1024"
   version="1.1"
   id="svg47"
   sodipodi:docname="Right_wing.svg"
   inkscape:version="1.3.2 (091e20ef0f, 2023-11-25, custom)"
   xmlns:inkscape="http://www.inkscape.org/namespaces/inkscape"
   xmlns:sodipodi="http://sodipodi.sourceforge.net/DTD/sodipodi-0.dtd"
   xmlns:xlink="http://www.w3.org/1999/xlink"
   xmlns="http://www.w3.org/2000/svg"
   xmlns:svg="http://www.w3.org/2000/svg">
  <defs
     id="defs47">
    <linearGradient
       id="linearGradient45"
       inkscape:collect="always">
      <stop
         style="stop-color:#808080;stop-opacity:1;"
         offset="0"
         id="stop45" />
      <stop
         style="stop-color:#d8d8d8;stop-opacity:1;"
         offset="0.5"
         id="stop47" />
      <stop
         style="stop-color:#808080;stop-opacity:1;"
         offset="1"
         id="stop46" />
    </linearGradient>
    <linearGradient
       inkscape:collect="always"
       xlink:href="#linearGradient45"
       id="linearGradient2"
       x1="575.59998"
       y1="222.9675"
       x2="601.59497"
       y2="222.9675"
       gradientUnits="userSpaceOnUse" />
    <linearGradient
       inkscape:collect="always"
       xlink:href="#linearGradient45"
       id="linearGradient4"
       x1="582.19897"
       y1="724.25153"
       x2="615.66699"
       y2="724.25153"
       gradientUnits="userSpaceOnUse" />
    <linearGradient
       inkscape:collect="always"
       xlink:href="#linearGradient45"
       id="linearGradient6"
       x1="575.91998"
       y1="724.25153"
       x2="595.39099"
       y2="724.25153"
       gradientUnits="userSpaceOnUse" />
    <linearGradient
       inkscape:collect="always"
       xlink:href="#linearGradient45"
       id="linearGradient8"
       x1="581.10498"
       y1="223.89799"
       x2="615.66699"
       y2="223.89799"
       gradientUnits="userSpaceOnUse" />
    <linearGradient
       inkscape:collect="always"
       xlink:href="#linearGradient45"
       id="linearGradient10"
       x1="581.10498"
       y1="409.60751"
       x2="589.75403"
       y2="409.60751"
       gradientUnits="userSpaceOnUse" />
    <linearGradient
       inkscape:collect="always"
       xlink:href="#linearGradient45"
       id="linearGradient12"
       x1="626.85602"
       y1="224.7435"
       x2="646.90698"
       y2="224.7435"
       gradientUnits="userSpaceOnUse" />
    <linearGradient
       inkscape:collect="always"
       xlink:href="#linearGradient45"
       id="linearGradient14"
       x1="617.38599"
       y1="231.9315"
       x2="637.46503"
       y2="231.9315"
       gradientUnits="userSpaceOnUse" />
    <linearGradient
       inkscape:collect="always"
       xlink:href="#linearGradient45"
       id="linearGradient16"
       x1="637.46503"
       y1="411.48199"
       x2="646.96002"
       y2="411.48199"
       gradientUnits="userSpaceOnUse" />
    <linearGradient
       inkscape:collect="always"
       xlink:href="#linearGradient45"
       id="linearGradient18"
       x1="628.508"
       y1="420.173"
       x2="637.49298"
       y2="420.173"
       gradientUnits="userSpaceOnUse" />
    <linearGradient
       inkscape:collect="always"
       xlink:href="#linearGradient45"
       id="linearGradient20"
       x1="615.66699"
       y1="728.04352"
       x2="637.49298"
       y2="728.04352"
       gradientUnits="userSpaceOnUse" />
    <linearGradient
       inkscape:collect="always"
       xlink:href="#linearGradient45"
       id="linearGradient22"
       x1="634.96002"
       y1="724.16602"
       x2="646.96002"
       y2="724.16602"
       gradientUnits="userSpaceOnUse" />
  </defs>
  <sodipodi:namedview
     id="namedview47"
     pagecolor="#505050"
     bordercolor="#ffffff"
     borderopacity="1"
     inkscape:showpageshadow="0"
     inkscape:pageopacity="0"
     inkscape:pagecheckerboard="1"
     inkscape:deskcolor="#d1d1d1"
     inkscape:zoom="0.30065062"
     inkscape:cx="645.26726"
     inkscape:cy="607.01688"
     inkscape:window-width="1366"
     inkscape:window-height="724"
     inkscape:window-x="-1"
     inkscape:window-y="-1"
     inkscape:window-maximized="1"
     inkscape:current-layer="svg47" />
  <desc
     id="desc1">Boeing_747_Supertanker.blend, (Blender 3.3.9)</desc>
  <rect
     style="fill:#ffffff;stroke:none;stroke-width:12;stroke-linecap:square"
     id="rect48"
     width="1024"
     height="1024"
     x="0"
     y="0" />
  <polygon
     stroke="black"
     stroke-width="1"
     fill="rgb(204, 204, 204)"
     fill-opacity="1"
     points="311.541,246.576 332.409,248.221 565.884,33.137 575.599,3.807 "
     id="polygon1"
     style="stroke:none;fill:#ffffff" />
  <polygon
     stroke="black"
     stroke-width="1"
     fill="rgb(204, 204, 204)"
     fill-opacity="1"
     points="637.493,432.087 628.524,437.392 615.667,990.395 634.960,1024.000 "
     id="polygon2"
     style="stroke:none;fill:url(#linearGradient20)" />
  <polygon
     stroke="black"
     stroke-width="1"
     fill="rgb(204, 204, 204)"
     fill-opacity="1"
     points="575.599,974.180 556.587,940.415 512.987,980.373 521.238,1024.000 "
     id="polygon3"
     style="stroke:none;fill:#ffffff" />
  <polygon
     stroke="black"
     stroke-width="1"
     fill="rgb(204, 204, 204)"
     fill-opacity="1"
     points="285.684,650.676 238.049,87.678 192.924,49.238 163.401,272.236 132.699,511.939 "
     id="polygon4"
     style="stroke:none;fill:#ffffff" />
  <polygon
     stroke="black"
     stroke-width="1"
     fill="rgb(204, 204, 204)"
     fill-opacity="1"
     points="574.273,360.349 565.884,33.137 332.409,248.221 433.671,489.207 "
     id="polygon5"
     style="stroke:none;fill:#ffffff" />
  <polygon
     stroke="black"
     stroke-width="1"
     fill="rgb(204, 204, 204)"
     fill-opacity="1"
     points="582.199,424.503 575.920,427.959 582.565,1013.283 595.391,1024.000 "
     id="polygon6"
     style="stroke:none;fill:url(#linearGradient6)" />
  <polygon
     stroke="black"
     stroke-width="1"
     fill="rgb(204, 204, 204)"
     fill-opacity="1"
     points="646.960,991.741 668.514,1024.000 668.514,616.955 649.468,631.512 "
     id="polygon7"
     style="stroke:none;fill:#ffffff" />
  <polygon
     stroke="black"
     stroke-width="1"
     fill="rgb(204, 204, 204)"
     fill-opacity="1"
     points="695.666,711.188 686.603,708.715 687.114,731.854 695.666,732.749 "
     id="polygon8"
     style="stroke:none;fill:#ffffff" />
  <polygon
     stroke="black"
     stroke-width="1"
     fill="rgb(204, 204, 204)"
     fill-opacity="1"
     points="556.587,940.415 574.063,387.538 438.384,520.427 475.962,755.922 512.987,980.373 "
     id="polygon9"
     style="stroke:none;fill:#ffffff" />
  <polygon
     stroke="black"
     stroke-width="1"
     fill="rgb(204, 204, 204)"
     fill-opacity="1"
     points="288.225,679.204 285.684,650.676 132.699,511.939 128.881,543.465 "
     id="polygon10"
     style="stroke:none;fill:#ffffff" />
  <polygon
     stroke="black"
     stroke-width="1"
     fill="rgb(204, 204, 204)"
     fill-opacity="1"
     points="637.465,402.954 628.508,410.202 628.524,437.392 637.493,432.087 "
     id="polygon11"
     style="stroke:none;fill:url(#linearGradient18)" />
  <polygon
     stroke="black"
     stroke-width="1"
     fill="rgb(204, 204, 204)"
     fill-opacity="1"
     points="626.856,53.661 617.386,83.071 628.508,410.202 637.465,402.954 "
     id="polygon12"
     style="stroke:none;fill:url(#linearGradient14)" />
  <polygon
     stroke="black"
     stroke-width="1"
     fill="rgb(204, 204, 204)"
     fill-opacity="1"
     points="273.152,998.284 288.225,679.204 128.881,543.465 29.877,792.368 "
     id="polygon13"
     style="stroke:none;fill:#ffffff" />
  <polygon
     stroke="black"
     stroke-width="1"
     fill="rgb(204, 204, 204)"
     fill-opacity="1"
     points="601.595,51.628 580.371,51.274 575.600,394.661 581.105,394.442 "
     id="polygon14"
     style="stroke:none;fill:url(#linearGradient2)" />
  <polygon
     stroke="black"
     stroke-width="1"
     fill="rgb(204, 204, 204)"
     fill-opacity="1"
     points="121.327,500.374 105.103,481.458 100.367,509.320 117.397,528.936 "
     id="polygon15"
     style="stroke:none;fill:#ffffff" />
  <polygon
     stroke="black"
     stroke-width="1"
     fill="rgb(204, 204, 204)"
     fill-opacity="1"
     points="574.063,387.538 574.273,360.349 433.671,489.207 438.384,520.427 "
     id="polygon16"
     style="stroke:none;fill:#ffffff" />
  <polygon
     stroke="black"
     stroke-width="1"
     fill="rgb(204, 204, 204)"
     fill-opacity="1"
     points="425.309,530.820 438.384,520.427 433.671,489.207 420.439,502.426 "
     id="polygon17"
     style="stroke:none;fill:#ffffff" />
  <polygon
     stroke="black"
     stroke-width="1"
     fill="rgb(204, 204, 204)"
     fill-opacity="1"
     points="404.888,546.672 425.309,530.820 420.439,502.426 398.990,518.830 "
     id="polygon18"
     style="stroke:none;fill:#ffffff" />
  <polygon
     stroke="black"
     stroke-width="1"
     fill="rgb(204, 204, 204)"
     fill-opacity="1"
     points="638.417,46.533 626.856,53.661 637.465,402.954 646.907,390.877 "
     id="polygon19"
     style="stroke:none;fill:url(#linearGradient12)" />
  <polygon
     stroke="black"
     stroke-width="1"
     fill="rgb(204, 204, 204)"
     fill-opacity="1"
     points="646.907,390.877 637.465,402.954 637.493,432.087 646.960,424.332 "
     id="polygon20"
     style="stroke:none;fill:url(#linearGradient16)" />
  <polygon
     stroke="black"
     stroke-width="1"
     fill="rgb(204, 204, 204)"
     fill-opacity="1"
     points="646.960,424.332 637.493,432.087 634.960,1024.000 646.960,1012.734 "
     id="polygon21"
     style="stroke:none;fill:url(#linearGradient22)" />
  <polygon
     stroke="black"
     stroke-width="1"
     fill="rgb(204, 204, 204)"
     fill-opacity="1"
     points="686.603,616.955 668.514,649.089 671.022,1009.322 686.603,1024.000 "
     id="polygon22"
     style="stroke:none;fill:#ffffff" />
  <polygon
     stroke="black"
     stroke-width="1"
     fill="rgb(204, 204, 204)"
     fill-opacity="1"
     points="132.699,511.939 121.327,500.374 117.397,528.936 128.881,543.465 "
     id="polygon23"
     style="stroke:none;fill:#ffffff" />
  <polygon
     stroke="black"
     stroke-width="1"
     fill="rgb(204, 204, 204)"
     fill-opacity="1"
     points="615.667,77.905 601.595,51.628 581.105,394.442 588.313,396.168 "
     id="polygon24"
     style="stroke:none;fill:url(#linearGradient8)" />
  <polygon
     stroke="black"
     stroke-width="1"
     fill="rgb(204, 204, 204)"
     fill-opacity="1"
     points="588.313,396.168 581.105,394.442 582.199,424.503 589.754,424.773 "
     id="polygon25"
     style="stroke:none;fill:url(#linearGradient10)" />
  <polygon
     stroke="black"
     stroke-width="1"
     fill="rgb(204, 204, 204)"
     fill-opacity="1"
     points="29.877,792.368 13.804,791.143 288.225,1024.000 273.152,998.284 "
     id="polygon26"
     style="stroke:none;fill:#ffffff" />
  <polygon
     stroke="black"
     stroke-width="1"
     fill="rgb(204, 204, 204)"
     fill-opacity="1"
     points="589.754,424.773 582.199,424.503 595.391,1024.000 615.667,989.188 "
     id="polygon27"
     style="stroke:none;fill:url(#linearGradient4)" />
  <polygon
     stroke="black"
     stroke-width="1"
     fill="rgb(204, 204, 204)"
     fill-opacity="1"
     points="238.049,87.678 256.969,52.110 195.796,0.000 192.924,49.238 "
     id="polygon28"
     style="stroke:none;fill:#ffffff" />
  <polygon
     stroke="black"
     stroke-width="1"
     fill="rgb(204, 204, 204)"
     fill-opacity="1"
     points="311.541,246.576 288.225,270.794 429.988,486.827 433.671,489.207 332.409,248.221 "
     id="polygon29"
     style="stroke:none;fill:#ffffff" />
  <polygon
     stroke="black"
     stroke-width="1"
     fill="rgb(204, 204, 204)"
     fill-opacity="1"
     points="690.712,997.668 699.271,1024.000 699.271,979.293 686.603,979.150 "
     id="polygon30"
     style="stroke:none;fill:#ffffff" />
  <polygon
     stroke="black"
     stroke-width="1"
     fill="rgb(204, 204, 204)"
     fill-opacity="1"
     points="690.314,918.020 686.603,934.446 698.392,934.389 698.392,892.831 "
     id="polygon31"
     style="stroke:none;fill:#ffffff" />
  <polygon
     stroke="black"
     stroke-width="1"
     fill="rgb(204, 204, 204)"
     fill-opacity="1"
     points="132.596,540.233 0.000,759.930 13.804,791.143 29.877,792.368 128.881,543.465 "
     id="polygon32"
     style="stroke:none;fill:#ffffff" />
  <polygon
     stroke="black"
     stroke-width="1"
     fill="rgb(204, 204, 204)"
     fill-opacity="1"
     points="686.603,934.446 687.109,979.150 695.757,952.916 699.271,934.446 "
     id="polygon33"
     style="stroke:none;fill:#ffffff" />
  <polygon
     stroke="black"
     stroke-width="1"
     fill="rgb(204, 204, 204)"
     fill-opacity="1"
     points="698.392,892.831 698.392,851.272 686.603,851.329 690.046,867.739 "
     id="polygon34"
     style="stroke:none;fill:#ffffff" />
  <polygon
     stroke="black"
     stroke-width="1"
     fill="rgb(204, 204, 204)"
     fill-opacity="1"
     points="692.767,851.222 692.667,834.762 691.847,834.805 691.689,851.272 "
     id="polygon35"
     style="stroke:none;fill:#ffffff" />
  <polygon
     stroke="black"
     stroke-width="1"
     fill="rgb(204, 204, 204)"
     fill-opacity="1"
     points="647.276,342.250 647.459,358.786 696.795,438.673 696.772,432.064 "
     id="polygon36"
     style="stroke:none;fill:#ffffff" />
  <polygon
     stroke="black"
     stroke-width="1"
     fill="rgb(204, 204, 204)"
     fill-opacity="1"
     points="687.067,732.749 686.603,754.190 690.521,754.262 689.355,732.796 "
     id="polygon37"
     style="stroke:none;fill:#ffffff" />
  <polygon
     stroke="black"
     stroke-width="1"
     fill="rgb(204, 204, 204)"
     fill-opacity="1"
     points="686.603,834.549 687.405,851.243 688.509,851.272 690.521,834.621 "
     id="polygon38"
     style="stroke:none;fill:#ffffff" />
  <polygon
     stroke="black"
     stroke-width="1"
     fill="rgb(204, 204, 204)"
     fill-opacity="1"
     points="686.603,754.190 686.603,834.549 690.521,834.621 690.521,754.262 "
     id="polygon39"
     style="stroke:none;fill:#ffffff" />
  <polygon
     stroke="black"
     stroke-width="1"
     fill="rgb(204, 204, 204)"
     fill-opacity="1"
     points="692.495,761.025 692.767,732.963 690.522,733.049 691.675,761.068 "
     id="polygon40"
     style="stroke:none;fill:#ffffff" />
  <polygon
     stroke="black"
     stroke-width="1"
     fill="rgb(204, 204, 204)"
     fill-opacity="1"
     points="692.667,834.762 692.495,761.025 691.675,761.068 691.847,834.805 "
     id="polygon41"
     style="stroke:none;fill:#ffffff" />
  <polygon
     stroke="black"
     stroke-width="1"
     fill="rgb(204, 204, 204)"
     fill-opacity="1"
     points="686.603,669.992 686.603,702.062 689.429,708.715 689.690,702.127 689.690,672.632 688.240,661.430 "
     id="polygon42"
     style="stroke:none;fill:#aa0000;fill-opacity:1" />
  <polygon
     stroke="black"
     stroke-width="1"
     fill="rgb(204, 204, 204)"
     fill-opacity="1"
     points="647.656,432.792 646.960,460.867 696.873,479.538 696.873,468.275 "
     id="polygon43"
     style="stroke:none;fill:#ffffff" />
  <polygon
     stroke="black"
     stroke-width="1"
     fill="rgb(204, 204, 204)"
     fill-opacity="1"
     points="697.687,576.637 697.687,496.144 646.966,576.164 646.966,608.362 "
     id="polygon44"
     style="stroke:none;fill:#ffffff" />
  <polygon
     stroke="black"
     stroke-width="1"
     fill="rgb(204, 204, 204)"
     fill-opacity="1"
     points="647.459,358.786 647.656,432.792 696.873,468.275 696.795,438.673 "
     id="polygon45"
     style="stroke:none;fill:#ffffff" />
  <polygon
     stroke="black"
     stroke-width="1"
     fill="rgb(204, 204, 204)"
     fill-opacity="1"
     points="696.846,598.182 697.687,576.637 646.966,608.362 646.964,616.955 "
     id="polygon46"
     style="stroke:none;fill:#ffffff" />
  <polygon
     stroke="black"
     stroke-width="1"
     fill="rgb(204, 204, 204)"
     fill-opacity="1"
     points="697.687,496.144 696.232,479.538 646.960,569.479 646.966,576.164 "
     id="polygon47"
     style="stroke:none;fill:#ffffff" />
  <path
     style="fill:#aa0000;stroke:none;stroke-width:1px;stroke-linecap:butt;stroke-linejoin:miter;stroke-opacity:1"
     d="M 655.37948,356.95433 646.96,460.867 l 49.913,18.671 -0.101,-47.474 z"
     id="path47" />
  <path
     style="fill:#aa0000;stroke:none;stroke-width:1px;stroke-linecap:butt;stroke-linejoin:miter;stroke-opacity:1"
     d="m 688.45752,493.72952 8.41948,104.55448 -49.913,18.671 0.101,-47.474 z"
     id="path48"
     sodipodi:nodetypes="ccccc" />
</svg>
