<?xml version="1.0" encoding="UTF-8" standalone="no"?>
<svg
   width="1024"
   height="1024"
   viewBox="0 0 1024 1024"
   version="1.1"
   id="svg40"
   sodipodi:docname="Vertical_stabilizer.svg"
   inkscape:version="1.3.2 (091e20ef0f, 2023-11-25, custom)"
   xml:space="preserve"
   xmlns:inkscape="http://www.inkscape.org/namespaces/inkscape"
   xmlns:sodipodi="http://sodipodi.sourceforge.net/DTD/sodipodi-0.dtd"
   xmlns="http://www.w3.org/2000/svg"
   xmlns:svg="http://www.w3.org/2000/svg"><defs
     id="defs40" /><sodipodi:namedview
     id="namedview40"
     pagecolor="#505050"
     bordercolor="#ffffff"
     borderopacity="1"
     inkscape:showpageshadow="0"
     inkscape:pageopacity="0"
     inkscape:pagecheckerboard="1"
     inkscape:deskcolor="#d1d1d1"
     inkscape:zoom="0.48144531"
     inkscape:cx="510.96146"
     inkscape:cy="512"
     inkscape:window-width="1366"
     inkscape:window-height="724"
     inkscape:window-x="-1"
     inkscape:window-y="-1"
     inkscape:window-maximized="1"
     inkscape:current-layer="svg40" /><desc
     id="desc1">Boeing_747SP.blend, (Blender 3.3.9)</desc><rect
     style="fill:#ffffff;fill-opacity:1;stroke-width:15;stroke-linecap:square"
     id="rect1"
     width="1024"
     height="1024"
     x="0"
     y="0"
     rx="2.3779886"
     ry="2.3779886" /><path
     id="polygon1"
     d="m 195.54492,587.02734 30.49381,79.00598 16.55374,-2.00745 37.30946,-4.52361 185.07668,309.4178 7.17733,13.14575 -37.81445,42.00639 60.63448,-0.2151 109.89818,-0.3893 219.79638,-0.7783 25.84314,-0.3653 -51.70676,-53.40414 -465.37105,-368.45848 -68.94633,-6.71541 z"
     style="fill:#ffffff;fill-opacity:1;stroke-width:0.873744"
     sodipodi:nodetypes="ccccccccccccccc" /><path
     d="m 187.00781,93.074219 32.8467,84.851841 17.82918,-2.15604 40.18824,-4.85659 199.35896,332.31956 7.73113,14.11875 -40.46573,44.81846 -1.01073,0.004 -38.54719,0.13566 -38.54719,0.1375 12.38597,0.10268 12.38781,0.1045 53.36625,-0.18884 65.01162,-0.231 118.37605,-0.41801 236.75576,-0.83602 27.83903,-0.39234 -55.69644,-57.3551 -501.27888,-395.73018 -74.26619,-7.2143 z m 391.89828,410.158771 48.76837,58.29004 z"
     style="fill:#ffffff;fill-opacity:1;stroke-width:0.939787"
     id="path1" /><g
     style="fill-rule:evenodd;image-rendering:optimizeQuality;shape-rendering:geometricPrecision;text-rendering:geometricPrecision"
     id="g1"
     transform="matrix(-0.1953125,0,0,0.1953125,524.62172,262.07321)"><path
       d="M 0,0 H 1024 V 768 H 0 Z"
       fill="#3d8e33"
       id="path1-3" /><g
       fill="#ffffff"
       id="g14"><path
         d="M 653,685 C 517,653 415,530 415,384 415,238 517,115 653,83 630,77 606,74 581,74 410,74 271,213 271,384 c 0,171 139,310 310,310 25,0 49,-3 72,-9 z"
         id="path2" /><path
         d="m 677,119 14,45 h 46 l -37,27 14,44 -37,-27 -38,27 15,-44 -38,-27 h 46 z m -7,23"
         id="path3" /><path
         d="m 677,254 14,44 h 46 l -37,27 14,44 -37,-27 -38,27 15,-44 -38,-27 h 46 z m -7,22"
         id="path4" /><path
         d="m 677,390 14,44 h 46 l -37,27 14,44 -37,-27 -38,27 15,-44 -38,-27 h 46 z m -7,22"
         id="path5" /><path
         d="m 677,526 14,44 h 46 l -37,27 14,44 -37,-27 -38,27 15,-44 -38,-27 h 46 z m -7,22"
         id="path6" /><path
         d="m 938,85 c 8,-6 28,-19 31,-22 1,4 0,5 0,5 -3,5 -28,20 -32,22 1,-2 1,-3 1,-5 z"
         id="path7" /><path
         d="m 961,80 c 0,1 7,-6 7,-6 1,8 3,20 6,24 3,4 13,7 4,23 3,-14 -6,-18 -6,-19 6,63 2,73 -4,83 3,-39 0,-64 -7,-105 z"
         id="path8" /><path
         d="m 842,123 c 3,1 -6,22 6,26 12,3 24,-42 35,-38 15,5 -20,66 14,67 23,0 15,-16 15,-69 0,0 5,-6 6,-6 4,55 0,76 19,76 31,0 5,-49 6,-61 0,0 7,-17 7,-14 1,19 10,9 12,39 -6,-6 0,-8 -10,-19 5,25 15,64 -8,69 -12,4 -18,0 -26,-15 -6,17 -18,16 -26,15 -36,-8 -2,-66 -13,-68 -11,-2 -15,41 -32,36 -17,-5 -8,-38 -5,-38 z"
         id="path9" /><path
         d="m 907,74 c 0,8 -2,13 3,13 5,1 3,-8 3,-13 l 3,-3 c 1,13 1,17 4,17 5,0 3,-5 2,-13 l 3,-4 c 1,4 4,7 4,7 h -3 c 0,5 3,16 -6,15 -3,0 -4,0 -6,-2 -2,2 -4,3 -6,3 -7,-1 -5,-19 -1,-20 z"
         id="path10" /><path
         d="m 878,74 c -5,5 -1,7 2,7 4,-4 5,-7 4,-8 -1,-1 -3,-1 -6,1 z m -3,-1 c -6,6 -2,11 1,12 -3,2 -8,5 -19,11 1,0 3,1 5,0 7,-3 15,-8 19,-11 1,0 3,1 5,2 0,-3 2,-4 -2,-5 4,-4 6,-13 1,-13 -4,0 -8,1 -10,4 z"
         id="path11" /><path
         d="m 912,48 c 0,-1 3,-6 4,-7 6,15 1,24 -2,27 2,-13 -1,-18 -2,-20 z"
         id="path12" /><path
         d="m 84,586 c 0,4 -1,9 -1,13 11,16 25,47 23,52 -7,16 -29,36 -45,39 -17,2 -15,-15 -9,-37 -14,31 -11,47 4,51 11,3 44,-16 55,-45 5,18 14,31 28,37 27,9 41,5 49,2 -5,1 -17,2 -22,-2 -1,-2 -1,-5 -2,-7 -11,-2 -19,-6 -23,-10 1,-6 30,-20 68,-35 8,-4 6,-7 8,-14 -32,6 -56,9 -85,10 9.32,-7.988 19.543,-14.64 29.75,-19.969 5.256,3.756 11.044,6.168 14.25,6.969 -7,-4 -9,-6 -9,-6 v -3.594 A 166.378,166.378 0 0 1 177,613 c 6,-5 5,-9 5,-13 -5,-9 -27,-15 -30,-5 -2.928,6.587 -1.572,12.372 1.719,17.156 C 143.23,618.792 133.11,626.611 123,636 c -3,0 -4,3 -5,6 0,4 -1,8 -1,12 14,-1 31,-2 46,-3 -15,9 -29,19 -27,30 -26,-10 -18,-63 -52,-95 z m 73.844,15.188 C 160.563,601.047 163,602.75 166,605 a 192.565,192.565 0 0 0 -6.844,3.844 C 155.081,604.328 153.656,602 155,602 c 1,-0.5 1.938,-0.766 2.844,-0.813 z"
         id="path13" /><path
         d="m 123,595 c -2,-5 0,-7 2,-1 4,10 10,8 5,0 -4,-5 -2,-8 3,-1 2,4 4,8 0,12 -3,2 -6,1 -8,-2 -1,5 -9,5 -10,1 -2,-11 0,-17 2,-5 2,5 9,5 6,-4 z"
         id="path14" /></g></g><g
     style="fill-rule:evenodd;image-rendering:optimizeQuality;shape-rendering:geometricPrecision;text-rendering:geometricPrecision"
     id="g29"
     transform="matrix(0.1953125,0,0,0.1953125,324.62172,770.0031)"><path
       d="M 0,0 H 1024 V 768 H 0 Z"
       fill="#3d8e33"
       id="path15" /><g
       fill="#ffffff"
       id="g28"><path
         d="M 653,685 C 517,653 415,530 415,384 415,238 517,115 653,83 630,77 606,74 581,74 410,74 271,213 271,384 c 0,171 139,310 310,310 25,0 49,-3 72,-9 z"
         id="path16" /><path
         d="m 677,119 14,45 h 46 l -37,27 14,44 -37,-27 -38,27 15,-44 -38,-27 h 46 z m -7,23"
         id="path17" /><path
         d="m 677,254 14,44 h 46 l -37,27 14,44 -37,-27 -38,27 15,-44 -38,-27 h 46 z m -7,22"
         id="path18" /><path
         d="m 677,390 14,44 h 46 l -37,27 14,44 -37,-27 -38,27 15,-44 -38,-27 h 46 z m -7,22"
         id="path19" /><path
         d="m 677,526 14,44 h 46 l -37,27 14,44 -37,-27 -38,27 15,-44 -38,-27 h 46 z m -7,22"
         id="path20" /><path
         d="m 938,85 c 8,-6 28,-19 31,-22 1,4 0,5 0,5 -3,5 -28,20 -32,22 1,-2 1,-3 1,-5 z"
         id="path21" /><path
         d="m 961,80 c 0,1 7,-6 7,-6 1,8 3,20 6,24 3,4 13,7 4,23 3,-14 -6,-18 -6,-19 6,63 2,73 -4,83 3,-39 0,-64 -7,-105 z"
         id="path22" /><path
         d="m 842,123 c 3,1 -6,22 6,26 12,3 24,-42 35,-38 15,5 -20,66 14,67 23,0 15,-16 15,-69 0,0 5,-6 6,-6 4,55 0,76 19,76 31,0 5,-49 6,-61 0,0 7,-17 7,-14 1,19 10,9 12,39 -6,-6 0,-8 -10,-19 5,25 15,64 -8,69 -12,4 -18,0 -26,-15 -6,17 -18,16 -26,15 -36,-8 -2,-66 -13,-68 -11,-2 -15,41 -32,36 -17,-5 -8,-38 -5,-38 z"
         id="path23" /><path
         d="m 907,74 c 0,8 -2,13 3,13 5,1 3,-8 3,-13 l 3,-3 c 1,13 1,17 4,17 5,0 3,-5 2,-13 l 3,-4 c 1,4 4,7 4,7 h -3 c 0,5 3,16 -6,15 -3,0 -4,0 -6,-2 -2,2 -4,3 -6,3 -7,-1 -5,-19 -1,-20 z"
         id="path24" /><path
         d="m 878,74 c -5,5 -1,7 2,7 4,-4 5,-7 4,-8 -1,-1 -3,-1 -6,1 z m -3,-1 c -6,6 -2,11 1,12 -3,2 -8,5 -19,11 1,0 3,1 5,0 7,-3 15,-8 19,-11 1,0 3,1 5,2 0,-3 2,-4 -2,-5 4,-4 6,-13 1,-13 -4,0 -8,1 -10,4 z"
         id="path25" /><path
         d="m 912,48 c 0,-1 3,-6 4,-7 6,15 1,24 -2,27 2,-13 -1,-18 -2,-20 z"
         id="path26" /><path
         d="m 84,586 c 0,4 -1,9 -1,13 11,16 25,47 23,52 -7,16 -29,36 -45,39 -17,2 -15,-15 -9,-37 -14,31 -11,47 4,51 11,3 44,-16 55,-45 5,18 14,31 28,37 27,9 41,5 49,2 -5,1 -17,2 -22,-2 -1,-2 -1,-5 -2,-7 -11,-2 -19,-6 -23,-10 1,-6 30,-20 68,-35 8,-4 6,-7 8,-14 -32,6 -56,9 -85,10 9.32,-7.988 19.543,-14.64 29.75,-19.969 5.256,3.756 11.044,6.168 14.25,6.969 -7,-4 -9,-6 -9,-6 v -3.594 A 166.378,166.378 0 0 1 177,613 c 6,-5 5,-9 5,-13 -5,-9 -27,-15 -30,-5 -2.928,6.587 -1.572,12.372 1.719,17.156 C 143.23,618.792 133.11,626.611 123,636 c -3,0 -4,3 -5,6 0,4 -1,8 -1,12 14,-1 31,-2 46,-3 -15,9 -29,19 -27,30 -26,-10 -18,-63 -52,-95 z m 73.844,15.188 C 160.563,601.047 163,602.75 166,605 a 192.565,192.565 0 0 0 -6.844,3.844 C 155.081,604.328 153.656,602 155,602 c 1,-0.5 1.938,-0.766 2.844,-0.813 z"
         id="path27" /><path
         d="m 123,595 c -2,-5 0,-7 2,-1 4,10 10,8 5,0 -4,-5 -2,-8 3,-1 2,4 4,8 0,12 -3,2 -6,1 -8,-2 -1,5 -9,5 -10,1 -2,-11 0,-17 2,-5 2,5 9,5 6,-4 z"
         id="path28" /></g></g></svg>
