<?xml version="1.0" encoding="UTF-8" standalone="no"?>
<svg
   width="1024"
   height="1024"
   viewBox="0 0 1024 1024"
   version="1.1"
   id="svg40"
   sodipodi:docname="Vertical_stabilizer.svg"
   inkscape:version="1.3.2 (091e20ef0f, 2023-11-25, custom)"
   xml:space="preserve"
   xmlns:inkscape="http://www.inkscape.org/namespaces/inkscape"
   xmlns:sodipodi="http://sodipodi.sourceforge.net/DTD/sodipodi-0.dtd"
   xmlns="http://www.w3.org/2000/svg"
   xmlns:svg="http://www.w3.org/2000/svg"><defs
     id="defs40"><inkscape:perspective
       sodipodi:type="inkscape:persp3d"
       inkscape:vp_x="0 : 154.20816 : 1"
       inkscape:vp_y="0 : 1000 : 0"
       inkscape:vp_z="850.39423 : 154.20816 : 1"
       inkscape:persp3d-origin="425.19711 : 102.80544 : 1"
       id="perspective35" /></defs><sodipodi:namedview
     id="namedview40"
     pagecolor="#505050"
     bordercolor="#ffffff"
     borderopacity="1"
     inkscape:showpageshadow="0"
     inkscape:pageopacity="0"
     inkscape:pagecheckerboard="1"
     inkscape:deskcolor="#d1d1d1"
     inkscape:zoom="0.3266763"
     inkscape:cx="1444.8554"
     inkscape:cy="567.8404"
     inkscape:window-width="1366"
     inkscape:window-height="724"
     inkscape:window-x="-1"
     inkscape:window-y="-1"
     inkscape:window-maximized="1"
     inkscape:current-layer="svg40" /><desc
     id="desc1">Boeing_747SP.blend, (Blender 3.3.9)</desc><rect
     style="fill:#b8b9b1;fill-opacity:1;stroke-width:15;stroke-linecap:square"
     id="rect1"
     width="1024"
     height="1024"
     x="0"
     y="0"
     rx="2.3779886"
     ry="2.3779886" /><path
     id="polygon1"
     d="m 195.54492,587.02734 30.49381,79.00598 16.55374,-2.00745 37.30946,-4.52361 185.07668,309.4178 7.17733,13.14575 -37.81445,42.00639 60.63448,-0.2151 109.89818,-0.3893 219.79638,-0.7783 25.84314,-0.3653 -51.70676,-53.40414 -465.37105,-368.45848 -68.94633,-6.71541 z"
     style="fill:#b8b9b1;fill-opacity:1;stroke-width:0.873744"
     sodipodi:nodetypes="ccccccccccccccc" /><path
     d="m 187.00781,93.074219 32.8467,84.851841 17.82918,-2.15604 40.18824,-4.85659 199.35896,332.31956 7.73113,14.11875 -40.46573,44.81846 -1.01073,0.004 -38.54719,0.13566 -38.54719,0.1375 12.38597,0.10268 12.38781,0.1045 53.36625,-0.18884 65.01162,-0.231 118.37605,-0.41801 236.75576,-0.83602 27.83903,-0.39234 -55.69644,-57.3551 -501.27888,-395.73018 -74.26619,-7.2143 z m 391.89828,410.158771 48.76837,58.29004 z"
     style="fill:#b8b9b1;fill-opacity:1;stroke-width:0.939787"
     id="path1" /><g
     id="g20"
     transform="matrix(0.00769231,0,0,0.00769231,239.0396,612.29628)"><rect
       width="7410"
       height="3900"
       fill="#b22234"
       id="rect3"
       x="0"
       y="0" /><path
       d="m 0,450 h 7410 m 0,600 H 0 m 0,600 h 7410 m 0,600 H 0 m 0,600 h 7410 m 0,600 H 0"
       stroke="#ffffff"
       stroke-width="300"
       id="path3" /><rect
       width="2964"
       height="2100"
       fill="#3c3b6e"
       id="rect4"
       x="0"
       y="0" /><g
       fill="#ffffff"
       id="g19"><g
         id="g16"><g
           id="g15"><g
             id="g14"><g
               id="g13"><path
                 id="path4"
                 d="M 247,90 317.53423,307.08204 132.87322,172.91796 H 361.12678 L 176.46577,307.08204 Z" /><path
                 id="use11"
                 d="M 247,510 317.53423,727.08204 132.87322,592.91796 H 361.12678 L 176.46577,727.08204 Z" /><path
                 id="use12"
                 d="m 247,930 70.53423,217.082 -184.66101,-134.164 h 228.25356 l -184.66101,134.164 z" /><path
                 id="use13"
                 d="m 247,1350 70.53423,217.082 -184.66101,-134.164 h 228.25356 l -184.66101,134.164 z" /></g><path
               id="use14"
               d="m 247,1770 70.53423,217.082 -184.66101,-134.164 h 228.25356 l -184.66101,134.164 z" /></g><g
             id="use15"
             transform="translate(247,210)"><path
               id="path106"
               d="M 247,90 317.53423,307.08204 132.87322,172.91796 H 361.12678 L 176.46577,307.08204 Z" /><path
               id="use107"
               d="M 247,510 317.53423,727.08204 132.87322,592.91796 H 361.12678 L 176.46577,727.08204 Z" /><path
               id="use108"
               d="m 247,930 70.53423,217.082 -184.66101,-134.164 h 228.25356 l -184.66101,134.164 z" /><path
               id="use109"
               d="m 247,1350 70.53423,217.082 -184.66101,-134.164 h 228.25356 l -184.66101,134.164 z" /></g></g><g
           id="use16"
           transform="translate(494)"><g
             id="g60"><g
               id="g59"><path
                 id="path56"
                 d="M 247,90 317.53423,307.08204 132.87322,172.91796 H 361.12678 L 176.46577,307.08204 Z" /><path
                 id="use57"
                 d="M 247,510 317.53423,727.08204 132.87322,592.91796 H 361.12678 L 176.46577,727.08204 Z" /><path
                 id="use58"
                 d="m 247,930 70.53423,217.082 -184.66101,-134.164 h 228.25356 l -184.66101,134.164 z" /><path
                 id="use59"
                 d="m 247,1350 70.53423,217.082 -184.66101,-134.164 h 228.25356 l -184.66101,134.164 z" /></g><path
               id="use60"
               d="m 247,1770 70.53423,217.082 -184.66101,-134.164 h 228.25356 l -184.66101,134.164 z" /></g><g
             id="use61"
             transform="translate(247,210)"><path
               id="path127"
               d="M 247,90 317.53423,307.08204 132.87322,172.91796 H 361.12678 L 176.46577,307.08204 Z" /><path
               id="use128"
               d="M 247,510 317.53423,727.08204 132.87322,592.91796 H 361.12678 L 176.46577,727.08204 Z" /><path
               id="use129"
               d="m 247,930 70.53423,217.082 -184.66101,-134.164 h 228.25356 l -184.66101,134.164 z" /><path
               id="use130"
               d="m 247,1350 70.53423,217.082 -184.66101,-134.164 h 228.25356 l -184.66101,134.164 z" /></g></g></g><g
         id="use17"
         transform="translate(988)"><g
           id="g39"><g
             id="g38"><g
               id="g37"><path
                 id="path34"
                 d="M 247,90 317.53423,307.08204 132.87322,172.91796 H 361.12678 L 176.46577,307.08204 Z" /><path
                 id="use35"
                 d="M 247,510 317.53423,727.08204 132.87322,592.91796 H 361.12678 L 176.46577,727.08204 Z" /><path
                 id="use36"
                 d="m 247,930 70.53423,217.082 -184.66101,-134.164 h 228.25356 l -184.66101,134.164 z" /><path
                 id="use37"
                 d="m 247,1350 70.53423,217.082 -184.66101,-134.164 h 228.25356 l -184.66101,134.164 z" /></g><path
               id="use38"
               d="m 247,1770 70.53423,217.082 -184.66101,-134.164 h 228.25356 l -184.66101,134.164 z" /></g><g
             id="use39"
             transform="translate(247,210)"><path
               id="path115"
               d="M 247,90 317.53423,307.08204 132.87322,172.91796 H 361.12678 L 176.46577,307.08204 Z" /><path
               id="use116"
               d="M 247,510 317.53423,727.08204 132.87322,592.91796 H 361.12678 L 176.46577,727.08204 Z" /><path
               id="use117"
               d="m 247,930 70.53423,217.082 -184.66101,-134.164 h 228.25356 l -184.66101,134.164 z" /><path
               id="use118"
               d="m 247,1350 70.53423,217.082 -184.66101,-134.164 h 228.25356 l -184.66101,134.164 z" /></g></g><g
           id="use40"
           transform="translate(494)"><g
             id="g85"><g
               id="g84"><path
                 id="path81"
                 d="M 247,90 317.53423,307.08204 132.87322,172.91796 H 361.12678 L 176.46577,307.08204 Z" /><path
                 id="use82"
                 d="M 247,510 317.53423,727.08204 132.87322,592.91796 H 361.12678 L 176.46577,727.08204 Z" /><path
                 id="use83"
                 d="m 247,930 70.53423,217.082 -184.66101,-134.164 h 228.25356 l -184.66101,134.164 z" /><path
                 id="use84"
                 d="m 247,1350 70.53423,217.082 -184.66101,-134.164 h 228.25356 l -184.66101,134.164 z" /></g><path
               id="use85"
               d="m 247,1770 70.53423,217.082 -184.66101,-134.164 h 228.25356 l -184.66101,134.164 z" /></g><g
             id="use86"
             transform="translate(247,210)"><path
               id="path142"
               d="M 247,90 317.53423,307.08204 132.87322,172.91796 H 361.12678 L 176.46577,307.08204 Z" /><path
               id="use143"
               d="M 247,510 317.53423,727.08204 132.87322,592.91796 H 361.12678 L 176.46577,727.08204 Z" /><path
               id="use144"
               d="m 247,930 70.53423,217.082 -184.66101,-134.164 h 228.25356 l -184.66101,134.164 z" /><path
               id="use145"
               d="m 247,1350 70.53423,217.082 -184.66101,-134.164 h 228.25356 l -184.66101,134.164 z" /></g></g></g><g
         id="use18"
         transform="translate(1976)"><g
           id="g65"><g
             id="g64"><path
               id="path61"
               d="M 247,90 317.53423,307.08204 132.87322,172.91796 H 361.12678 L 176.46577,307.08204 Z" /><path
               id="use62"
               d="M 247,510 317.53423,727.08204 132.87322,592.91796 H 361.12678 L 176.46577,727.08204 Z" /><path
               id="use63"
               d="m 247,930 70.53423,217.082 -184.66101,-134.164 h 228.25356 l -184.66101,134.164 z" /><path
               id="use64"
               d="m 247,1350 70.53423,217.082 -184.66101,-134.164 h 228.25356 l -184.66101,134.164 z" /></g><path
             id="use65"
             d="m 247,1770 70.53423,217.082 -184.66101,-134.164 h 228.25356 l -184.66101,134.164 z" /></g><g
           id="use66"
           transform="translate(247,210)"><path
             id="path130"
             d="M 247,90 317.53423,307.08204 132.87322,172.91796 H 361.12678 L 176.46577,307.08204 Z" /><path
             id="use131"
             d="M 247,510 317.53423,727.08204 132.87322,592.91796 H 361.12678 L 176.46577,727.08204 Z" /><path
             id="use132"
             d="m 247,930 70.53423,217.082 -184.66101,-134.164 h 228.25356 l -184.66101,134.164 z" /><path
             id="use133"
             d="m 247,1350 70.53423,217.082 -184.66101,-134.164 h 228.25356 l -184.66101,134.164 z" /></g></g><g
         id="use19"
         transform="translate(2470)"><g
           id="g98"><path
             id="path95"
             d="M 247,90 317.53423,307.08204 132.87322,172.91796 H 361.12678 L 176.46577,307.08204 Z" /><path
             id="use96"
             d="M 247,510 317.53423,727.08204 132.87322,592.91796 H 361.12678 L 176.46577,727.08204 Z" /><path
             id="use97"
             d="m 247,930 70.53423,217.082 -184.66101,-134.164 h 228.25356 l -184.66101,134.164 z" /><path
             id="use98"
             d="m 247,1350 70.53423,217.082 -184.66101,-134.164 h 228.25356 l -184.66101,134.164 z" /></g><path
           id="use99"
           d="m 247,1770 70.53423,217.082 -184.66101,-134.164 h 228.25356 l -184.66101,134.164 z" /></g></g></g><g
     id="g30"
     transform="matrix(-0.00769231,0,0,0.00769231,286.10252,118.60299)"><rect
       width="7410"
       height="3900"
       fill="#b22234"
       id="rect20"
       x="0"
       y="0" /><path
       d="m 0,450 h 7410 m 0,600 H 0 m 0,600 h 7410 m 0,600 H 0 m 0,600 h 7410 m 0,600 H 0"
       stroke="#ffffff"
       stroke-width="300"
       id="path20" /><rect
       width="2964"
       height="2100"
       fill="#3c3b6e"
       id="rect21"
       x="0"
       y="0" /><g
       fill="#ffffff"
       id="g29"><g
         id="g26"><g
           id="g25"><g
             id="g24"><g
               id="g23"><path
                 id="path21"
                 d="M 247,90 317.53423,307.08204 132.87322,172.91796 H 361.12678 L 176.46577,307.08204 Z" /><path
                 id="use21"
                 d="M 247,510 317.53423,727.08204 132.87322,592.91796 H 361.12678 L 176.46577,727.08204 Z" /><path
                 id="use22"
                 d="m 247,930 70.53423,217.082 -184.66101,-134.164 h 228.25356 l -184.66101,134.164 z" /><path
                 id="use23"
                 d="m 247,1350 70.53423,217.082 -184.66101,-134.164 h 228.25356 l -184.66101,134.164 z" /></g><path
               id="use24"
               d="m 247,1770 70.53423,217.082 -184.66101,-134.164 h 228.25356 l -184.66101,134.164 z" /></g><g
             id="use25"
             transform="translate(247,210)"><path
               id="path109"
               d="M 247,90 317.53423,307.08204 132.87322,172.91796 H 361.12678 L 176.46577,307.08204 Z" /><path
               id="use110"
               d="M 247,510 317.53423,727.08204 132.87322,592.91796 H 361.12678 L 176.46577,727.08204 Z" /><path
               id="use111"
               d="m 247,930 70.53423,217.082 -184.66101,-134.164 h 228.25356 l -184.66101,134.164 z" /><path
               id="use112"
               d="m 247,1350 70.53423,217.082 -184.66101,-134.164 h 228.25356 l -184.66101,134.164 z" /></g></g><g
           id="use26"
           transform="translate(494)"><g
             id="g70"><g
               id="g69"><path
                 id="path66"
                 d="M 247,90 317.53423,307.08204 132.87322,172.91796 H 361.12678 L 176.46577,307.08204 Z" /><path
                 id="use67"
                 d="M 247,510 317.53423,727.08204 132.87322,592.91796 H 361.12678 L 176.46577,727.08204 Z" /><path
                 id="use68"
                 d="m 247,930 70.53423,217.082 -184.66101,-134.164 h 228.25356 l -184.66101,134.164 z" /><path
                 id="use69"
                 d="m 247,1350 70.53423,217.082 -184.66101,-134.164 h 228.25356 l -184.66101,134.164 z" /></g><path
               id="use70"
               d="m 247,1770 70.53423,217.082 -184.66101,-134.164 h 228.25356 l -184.66101,134.164 z" /></g><g
             id="use71"
             transform="translate(247,210)"><path
               id="path133"
               d="M 247,90 317.53423,307.08204 132.87322,172.91796 H 361.12678 L 176.46577,307.08204 Z" /><path
               id="use134"
               d="M 247,510 317.53423,727.08204 132.87322,592.91796 H 361.12678 L 176.46577,727.08204 Z" /><path
               id="use135"
               d="m 247,930 70.53423,217.082 -184.66101,-134.164 h 228.25356 l -184.66101,134.164 z" /><path
               id="use136"
               d="m 247,1350 70.53423,217.082 -184.66101,-134.164 h 228.25356 l -184.66101,134.164 z" /></g></g></g><g
         id="use27"
         transform="translate(988)"><g
           id="g45"><g
             id="g44"><g
               id="g43"><path
                 id="path40"
                 d="M 247,90 317.53423,307.08204 132.87322,172.91796 H 361.12678 L 176.46577,307.08204 Z" /><path
                 id="use41"
                 d="M 247,510 317.53423,727.08204 132.87322,592.91796 H 361.12678 L 176.46577,727.08204 Z" /><path
                 id="use42"
                 d="m 247,930 70.53423,217.082 -184.66101,-134.164 h 228.25356 l -184.66101,134.164 z" /><path
                 id="use43"
                 d="m 247,1350 70.53423,217.082 -184.66101,-134.164 h 228.25356 l -184.66101,134.164 z" /></g><path
               id="use44"
               d="m 247,1770 70.53423,217.082 -184.66101,-134.164 h 228.25356 l -184.66101,134.164 z" /></g><g
             id="use45"
             transform="translate(247,210)"><path
               id="path118"
               d="M 247,90 317.53423,307.08204 132.87322,172.91796 H 361.12678 L 176.46577,307.08204 Z" /><path
               id="use119"
               d="M 247,510 317.53423,727.08204 132.87322,592.91796 H 361.12678 L 176.46577,727.08204 Z" /><path
               id="use120"
               d="m 247,930 70.53423,217.082 -184.66101,-134.164 h 228.25356 l -184.66101,134.164 z" /><path
               id="use121"
               d="m 247,1350 70.53423,217.082 -184.66101,-134.164 h 228.25356 l -184.66101,134.164 z" /></g></g><g
           id="use46"
           transform="translate(494)"><g
             id="g90"><g
               id="g89"><path
                 id="path86"
                 d="M 247,90 317.53423,307.08204 132.87322,172.91796 H 361.12678 L 176.46577,307.08204 Z" /><path
                 id="use87"
                 d="M 247,510 317.53423,727.08204 132.87322,592.91796 H 361.12678 L 176.46577,727.08204 Z" /><path
                 id="use88"
                 d="m 247,930 70.53423,217.082 -184.66101,-134.164 h 228.25356 l -184.66101,134.164 z" /><path
                 id="use89"
                 d="m 247,1350 70.53423,217.082 -184.66101,-134.164 h 228.25356 l -184.66101,134.164 z" /></g><path
               id="use90"
               d="m 247,1770 70.53423,217.082 -184.66101,-134.164 h 228.25356 l -184.66101,134.164 z" /></g><g
             id="use91"
             transform="translate(247,210)"><path
               id="path145"
               d="M 247,90 317.53423,307.08204 132.87322,172.91796 H 361.12678 L 176.46577,307.08204 Z" /><path
               id="use146"
               d="M 247,510 317.53423,727.08204 132.87322,592.91796 H 361.12678 L 176.46577,727.08204 Z" /><path
               id="use147"
               d="m 247,930 70.53423,217.082 -184.66101,-134.164 h 228.25356 l -184.66101,134.164 z" /><path
               id="use148"
               d="m 247,1350 70.53423,217.082 -184.66101,-134.164 h 228.25356 l -184.66101,134.164 z" /></g></g></g><g
         id="use28"
         transform="translate(1976)"><g
           id="g75"><g
             id="g74"><path
               id="path71"
               d="M 247,90 317.53423,307.08204 132.87322,172.91796 H 361.12678 L 176.46577,307.08204 Z" /><path
               id="use72"
               d="M 247,510 317.53423,727.08204 132.87322,592.91796 H 361.12678 L 176.46577,727.08204 Z" /><path
               id="use73"
               d="m 247,930 70.53423,217.082 -184.66101,-134.164 h 228.25356 l -184.66101,134.164 z" /><path
               id="use74"
               d="m 247,1350 70.53423,217.082 -184.66101,-134.164 h 228.25356 l -184.66101,134.164 z" /></g><path
             id="use75"
             d="m 247,1770 70.53423,217.082 -184.66101,-134.164 h 228.25356 l -184.66101,134.164 z" /></g><g
           id="use76"
           transform="translate(247,210)"><path
             id="path136"
             d="M 247,90 317.53423,307.08204 132.87322,172.91796 H 361.12678 L 176.46577,307.08204 Z" /><path
             id="use137"
             d="M 247,510 317.53423,727.08204 132.87322,592.91796 H 361.12678 L 176.46577,727.08204 Z" /><path
             id="use138"
             d="m 247,930 70.53423,217.082 -184.66101,-134.164 h 228.25356 l -184.66101,134.164 z" /><path
             id="use139"
             d="m 247,1350 70.53423,217.082 -184.66101,-134.164 h 228.25356 l -184.66101,134.164 z" /></g></g><g
         id="use29"
         transform="translate(2470)"><g
           id="g102"><path
             id="path99"
             d="M 247,90 317.53423,307.08204 132.87322,172.91796 H 361.12678 L 176.46577,307.08204 Z" /><path
             id="use100"
             d="M 247,510 317.53423,727.08204 132.87322,592.91796 H 361.12678 L 176.46577,727.08204 Z" /><path
             id="use101"
             d="m 247,930 70.53423,217.082 -184.66101,-134.164 h 228.25356 l -184.66101,134.164 z" /><path
             id="use102"
             d="m 247,1350 70.53423,217.082 -184.66101,-134.164 h 228.25356 l -184.66101,134.164 z" /></g><path
           id="use103"
           d="m 247,1770 70.53423,217.082 -184.66101,-134.164 h 228.25356 l -184.66101,134.164 z" /></g></g></g><g
     id="g3862"
     transform="matrix(0.85107544,0,0,0.85107544,74.60427,248.55676)"><path
       sodipodi:nodetypes="cccccccccccccc"
       inkscape:connector-curvature="0"
       id="path5880"
       style="fill:#e01b22;fill-opacity:1;fill-rule:nonzero;stroke:none;stroke-width:1.55783"
       d="M 360.57258,210.2476 H 334.79486 L 376.54059,93.185181 h 28.23012 L 446.02597,210.2476 h -26.5952 l -7.5208,-24.14279 H 368.7473 Z m 14.66005,-44.36168 h 29.86506 l -14.55106,-46.32355 h -0.2725 z" /><path
       sodipodi:nodetypes="cccccccccccccc"
       inkscape:connector-curvature="0"
       id="path5882"
       style="fill:#004281;fill-opacity:1;fill-rule:nonzero;stroke:none;stroke-width:1.55783"
       d="M 471.80368,210.2476 H 446.02597 L 487.77165,93.185181 h 28.23016 l 41.2552,117.062419 h -26.59518 l -7.52076,-24.14279 H 479.9239 Z m 14.66001,-44.36168 h 29.81062 l -14.49657,-46.32355 h -0.32699 z" /><path
       sodipodi:nodetypes="cccccccccccccccccccccccccccccccccccccccccccccccccccccccccccccccccc"
       inkscape:connector-curvature="0"
       d="m 429.40397,128.77256 -0.98101,-1.58044 -1.19895,1.58044 h -4.68687 l 10.1367,-15.31399 5.61334,15.31399 h -2.88839 l -1.03546,-1.63494 -1.1445,1.63494 z m 38.42132,2.01647 c 0.27248,0.98095 0.1635,2.2889 -0.87196,3.8694 0.1635,2.01642 0.0545,2.83387 -0.59948,3.65135 -0.59953,0.54497 -1.199,0.81747 -2.01647,0.76297 0.16349,-0.59948 0.16349,-1.47144 0,-1.74394 -2.72489,-3.43341 -8.71969,-10.40917 -8.71969,-10.40917 h -3.10644 l -2.99743,7.57523 1.199,2.07098 c 0,0 2.83389,-0.0545 3.97835,0 0.27248,0.0545 0.43597,0.27249 0.65397,0.65398 v 1.14444 c -0.16349,-0.21799 -0.59948,-0.38148 -0.87196,-0.43598 -2.94289,0 -4.85036,0 -7.57525,0.10905 l -0.98096,0.43598 c -0.32699,-0.98097 0.43598,-1.90742 1.19895,-1.90742 0.49048,0 1.14446,0.0545 0.98096,-0.43599 -0.32699,-0.54498 -0.54497,-0.87197 -0.98096,-1.41694 H 443.628 c -3.26986,-9.64621 -6.75778,-19.29243 -9.7007,-29.04764 1.1445,0 2.94292,-0.59948 2.94292,-0.59948 0,0 -3.4879,-1.36245 -4.19638,-3.21542 -0.70847,-1.79842 -3.10637,-8.392707 -3.10637,-8.392707 0,0 2.01642,-0.163494 2.83389,-0.599483 -1.08997,-0.762962 -3.76035,-1.743973 -4.25088,-2.997433 -1.41695,-3.596854 -2.28892,-7.193754 -2.28892,-7.193754 0,0 3.37892,-0.272495 2.94294,-0.490482 -1.90748,-0.871963 -4.35987,-3.269928 -4.35987,-3.269928 0,0 -2.39797,-6.539778 -2.28897,-6.594287 0.21799,-0.05452 3.26993,0.05452 3.26993,0.05452 -0.76298,-1.689433 -3.26993,-2.561458 -2.61595,-4.686866 0.70851,-2.72489 1.90747,-5.558829 2.39795,-7.248262 l 1.90743,1.198951 c -0.218,-1.144458 -0.81747,-4.795852 -0.81747,-4.795852 l 2.56145,-7.357263 1.90742,1.307952 -0.59947,-4.904853 4.03289,-10.681669 10.84516,30.628069 22.78029,64.962017 z m 9.64622,-66.160957 c 1.03545,3.705855 1.03545,5.667831 -0.32699,10.027646 L 464.99136,110.57014 451.96628,74.165237 c 0,0 1.52594,-4.141829 2.3979,-6.321791 0.59947,0 1.85297,1.416938 1.85297,1.416938 0,0 -1.417,-4.196321 -0.92651,-5.068347 l 2.01646,-5.013792 2.07093,1.362446 c -0.43599,-1.198952 -1.08996,-3.978397 -1.08996,-3.978397 l 1.90742,-5.831309 2.17996,1.035457 c 0,0 -1.47148,-4.087398 -1.08995,-4.686866 l 5.01385,-13.079571 c 4.03283,9.864198 7.46625,20.491374 11.17216,30.628068 z"
       style="fill:#004281;fill-opacity:1;fill-rule:nonzero;stroke:none;stroke-width:1.55783"
       id="path5904" /></g><g
     id="g6"
     transform="matrix(0.85107544,0,0,0.85107544,74.60427,751.49348)"><path
       sodipodi:nodetypes="cccccccccccccc"
       inkscape:connector-curvature="0"
       id="path2"
       style="fill:#e01b22;fill-opacity:1;fill-rule:nonzero;stroke:none;stroke-width:1.55783"
       d="M 360.57258,210.2476 H 334.79486 L 376.54059,93.185181 h 28.23012 L 446.02597,210.2476 h -26.5952 l -7.5208,-24.14279 H 368.7473 Z m 14.66005,-44.36168 h 29.86506 l -14.55106,-46.32355 h -0.2725 z" /><path
       sodipodi:nodetypes="cccccccccccccc"
       inkscape:connector-curvature="0"
       id="path5"
       style="fill:#004281;fill-opacity:1;fill-rule:nonzero;stroke:none;stroke-width:1.55783"
       d="M 471.80368,210.2476 H 446.02597 L 487.77165,93.185181 h 28.23016 l 41.2552,117.062419 h -26.59518 l -7.52076,-24.14279 H 479.9239 Z m 14.66001,-44.36168 h 29.81062 l -14.49657,-46.32355 h -0.32699 z" /><path
       sodipodi:nodetypes="cccccccccccccccccccccccccccccccccccccccccccccccccccccccccccccccccc"
       inkscape:connector-curvature="0"
       d="m 429.40397,128.77256 -0.98101,-1.58044 -1.19895,1.58044 h -4.68687 l 10.1367,-15.31399 5.61334,15.31399 h -2.88839 l -1.03546,-1.63494 -1.1445,1.63494 z m 38.42132,2.01647 c 0.27248,0.98095 0.1635,2.2889 -0.87196,3.8694 0.1635,2.01642 0.0545,2.83387 -0.59948,3.65135 -0.59953,0.54497 -1.199,0.81747 -2.01647,0.76297 0.16349,-0.59948 0.16349,-1.47144 0,-1.74394 -2.72489,-3.43341 -8.71969,-10.40917 -8.71969,-10.40917 h -3.10644 l -2.99743,7.57523 1.199,2.07098 c 0,0 2.83389,-0.0545 3.97835,0 0.27248,0.0545 0.43597,0.27249 0.65397,0.65398 v 1.14444 c -0.16349,-0.21799 -0.59948,-0.38148 -0.87196,-0.43598 -2.94289,0 -4.85036,0 -7.57525,0.10905 l -0.98096,0.43598 c -0.32699,-0.98097 0.43598,-1.90742 1.19895,-1.90742 0.49048,0 1.14446,0.0545 0.98096,-0.43599 -0.32699,-0.54498 -0.54497,-0.87197 -0.98096,-1.41694 H 443.628 c -3.26986,-9.64621 -6.75778,-19.29243 -9.7007,-29.04764 1.1445,0 2.94292,-0.59948 2.94292,-0.59948 0,0 -3.4879,-1.36245 -4.19638,-3.21542 -0.70847,-1.79842 -3.10637,-8.392707 -3.10637,-8.392707 0,0 2.01642,-0.163494 2.83389,-0.599483 -1.08997,-0.762962 -3.76035,-1.743973 -4.25088,-2.997433 -1.41695,-3.596854 -2.28892,-7.193754 -2.28892,-7.193754 0,0 3.37892,-0.272495 2.94294,-0.490482 -1.90748,-0.871963 -4.35987,-3.269928 -4.35987,-3.269928 0,0 -2.39797,-6.539778 -2.28897,-6.594287 0.21799,-0.05452 3.26993,0.05452 3.26993,0.05452 -0.76298,-1.689433 -3.26993,-2.561458 -2.61595,-4.686866 0.70851,-2.72489 1.90747,-5.558829 2.39795,-7.248262 l 1.90743,1.198951 c -0.218,-1.144458 -0.81747,-4.795852 -0.81747,-4.795852 l 2.56145,-7.357263 1.90742,1.307952 -0.59947,-4.904853 4.03289,-10.681669 10.84516,30.628069 22.78029,64.962017 z m 9.64622,-66.160957 c 1.03545,3.705855 1.03545,5.667831 -0.32699,10.027646 L 464.99136,110.57014 451.96628,74.165237 c 0,0 1.52594,-4.141829 2.3979,-6.321791 0.59947,0 1.85297,1.416938 1.85297,1.416938 0,0 -1.417,-4.196321 -0.92651,-5.068347 l 2.01646,-5.013792 2.07093,1.362446 c -0.43599,-1.198952 -1.08996,-3.978397 -1.08996,-3.978397 l 1.90742,-5.831309 2.17996,1.035457 c 0,0 -1.47148,-4.087398 -1.08995,-4.686866 l 5.01385,-13.079571 c 4.03283,9.864198 7.46625,20.491374 11.17216,30.628068 z"
       style="fill:#004281;fill-opacity:1;fill-rule:nonzero;stroke:none;stroke-width:1.55783"
       id="path6" /></g><style
     type="text/css"
     id="style1">
	.st0{fill:#007AC2;}
</style></svg>
