<?xml version="1.0" encoding="UTF-8" standalone="no"?>
<svg
   width="2048"
   height="2048"
   viewBox="0 0 2048 2048"
   version="1.1"
   id="svg311"
   sodipodi:docname="Fuselage_norm.svg"
   xml:space="preserve"
   inkscape:version="1.3.2 (091e20ef0f, 2023-11-25, custom)"
   xmlns:inkscape="http://www.inkscape.org/namespaces/inkscape"
   xmlns:sodipodi="http://sodipodi.sourceforge.net/DTD/sodipodi-0.dtd"
   xmlns:xlink="http://www.w3.org/1999/xlink"
   xmlns="http://www.w3.org/2000/svg"
   xmlns:svg="http://www.w3.org/2000/svg"><defs
     id="defs311"><style
       id="style1">.cls-2{fill:#0033a1;}</style><linearGradient
       id="linearGradient308"
       inkscape:collect="always"><stop
         style="stop-color:#1f1f1f;stop-opacity:1;"
         offset="0"
         id="stop308" /><stop
         style="stop-color:#80baff;stop-opacity:1;"
         offset="1"
         id="stop309" /></linearGradient><linearGradient
       id="linearGradient78"
       inkscape:collect="always"
       gradientTransform="matrix(0.88556225,0,0,1.1292261,-2213.67,152.24062)"
       x1="429.96899"
       y1="986.39227"
       x2="429.96899"
       y2="976.63869"
       gradientUnits="userSpaceOnUse"><stop
         style="stop-color:#1f1f1f;stop-opacity:1;"
         offset="0"
         id="stop77" /><stop
         style="stop-color:#80baff;stop-opacity:1;"
         offset="1"
         id="stop78" /></linearGradient><linearGradient
       inkscape:collect="always"
       xlink:href="#linearGradient308"
       id="linearGradient424"
       gradientUnits="userSpaceOnUse"
       gradientTransform="matrix(1.5005989,0,0,1.5005989,-1946.6487,282.571)"
       x1="989.22986"
       y1="654.32733"
       x2="989.22986"
       y2="648.26239" /><linearGradient
       inkscape:collect="always"
       xlink:href="#linearGradient308"
       id="linearGradient430"
       gradientUnits="userSpaceOnUse"
       gradientTransform="matrix(1.5005989,0,0,1.5005989,-2229.2753,281.49285)"
       x1="989.22986"
       y1="654.32733"
       x2="989.22986"
       y2="648.26239" /><linearGradient
       inkscape:collect="always"
       xlink:href="#linearGradient308"
       id="linearGradient432"
       gradientUnits="userSpaceOnUse"
       gradientTransform="matrix(1.5005989,0,0,1.5005989,-2063.2543,211.89096)"
       x1="989.22986"
       y1="654.32733"
       x2="989.22986"
       y2="648.26239" /><linearGradient
       inkscape:collect="always"
       xlink:href="#linearGradient308"
       id="linearGradient449"
       gradientUnits="userSpaceOnUse"
       gradientTransform="matrix(1.5005989,0,0,1.5005989,-2589.2314,283.30691)"
       x1="989.22986"
       y1="654.32733"
       x2="989.22986"
       y2="648.26239" /><linearGradient
       inkscape:collect="always"
       xlink:href="#linearGradient78"
       id="linearGradient489"
       gradientUnits="userSpaceOnUse"
       gradientTransform="matrix(0.88556225,0,0,1.1292261,-2213.67,152.24062)"
       x1="429.96899"
       y1="986.39227"
       x2="429.96899"
       y2="976.63869" /><linearGradient
       inkscape:collect="always"
       xlink:href="#linearGradient308"
       id="linearGradient501"
       gradientUnits="userSpaceOnUse"
       gradientTransform="matrix(1.5005989,0,0,1.5005989,-2080.5291,211.89096)"
       x1="989.22986"
       y1="654.32733"
       x2="989.22986"
       y2="648.26239" /><linearGradient
       inkscape:collect="always"
       xlink:href="#linearGradient308"
       id="linearGradient502"
       gradientUnits="userSpaceOnUse"
       gradientTransform="matrix(1.5005989,0,0,1.5005989,-2097.8039,211.89096)"
       x1="989.22986"
       y1="654.32733"
       x2="989.22986"
       y2="648.26239" /><linearGradient
       inkscape:collect="always"
       xlink:href="#linearGradient308"
       id="linearGradient125"
       gradientUnits="userSpaceOnUse"
       gradientTransform="matrix(1.5005989,0,0,1.5005989,-1946.6487,282.571)"
       x1="989.22986"
       y1="654.32733"
       x2="989.22986"
       y2="648.26239" /><linearGradient
       inkscape:collect="always"
       xlink:href="#linearGradient308"
       id="linearGradient131"
       gradientUnits="userSpaceOnUse"
       gradientTransform="matrix(1.5005989,0,0,1.5005989,-2229.2753,281.49285)"
       x1="989.22986"
       y1="654.32733"
       x2="989.22986"
       y2="648.26239" /><linearGradient
       inkscape:collect="always"
       xlink:href="#linearGradient308"
       id="linearGradient133"
       gradientUnits="userSpaceOnUse"
       gradientTransform="matrix(1.5005989,0,0,1.5005989,-2063.2543,211.89096)"
       x1="989.22986"
       y1="654.32733"
       x2="989.22986"
       y2="648.26239" /><linearGradient
       inkscape:collect="always"
       xlink:href="#linearGradient308"
       id="linearGradient150"
       gradientUnits="userSpaceOnUse"
       gradientTransform="matrix(1.5005989,0,0,1.5005989,-2589.2314,283.30691)"
       x1="989.22986"
       y1="654.32733"
       x2="989.22986"
       y2="648.26239" /><linearGradient
       inkscape:collect="always"
       xlink:href="#linearGradient78"
       id="linearGradient190"
       gradientUnits="userSpaceOnUse"
       gradientTransform="matrix(0.88556225,0,0,1.1292261,-2213.67,152.24062)"
       x1="429.96899"
       y1="986.39227"
       x2="429.96899"
       y2="976.63869" /><linearGradient
       inkscape:collect="always"
       xlink:href="#linearGradient308"
       id="linearGradient202"
       gradientUnits="userSpaceOnUse"
       gradientTransform="matrix(1.5005989,0,0,1.5005989,-2080.5291,211.89096)"
       x1="989.22986"
       y1="654.32733"
       x2="989.22986"
       y2="648.26239" /><linearGradient
       inkscape:collect="always"
       xlink:href="#linearGradient308"
       id="linearGradient203"
       gradientUnits="userSpaceOnUse"
       gradientTransform="matrix(1.5005989,0,0,1.5005989,-2097.8039,211.89096)"
       x1="989.22986"
       y1="654.32733"
       x2="989.22986"
       y2="648.26239" /></defs><sodipodi:namedview
     id="namedview311"
     pagecolor="#505050"
     bordercolor="#ffffff"
     borderopacity="1"
     inkscape:showpageshadow="0"
     inkscape:pageopacity="0"
     inkscape:pagecheckerboard="1"
     inkscape:deskcolor="#d1d1d1"
     inkscape:zoom="0.22998047"
     inkscape:cx="1021.8259"
     inkscape:cy="1024"
     inkscape:window-width="1366"
     inkscape:window-height="702"
     inkscape:window-x="0"
     inkscape:window-y="0"
     inkscape:window-maximized="1"
     inkscape:current-layer="svg311"
     showguides="true" /><desc
     id="desc1">Boeing_747_400.blend, (Blender 3.3.9)</desc><rect
     style="fill:#ffffff;stroke-width:50;stroke-linecap:square"
     id="rect311-2"
     width="2048"
     height="2048"
     x="0"
     y="0"
     rx="0"
     ry="0" /><path
     id="polygon1-9"
     d="m 1364.623,648.16797 -264.1269,30.31055 -28.4004,1.77539 -401.18945,-5.02344 -110.11719,-0.0937 -110.11523,-0.35352 -380.818361,0.0977 -8.785157,2.07617 -8.787109,7.51367 -6.423828,11.1875 v 1.11914 3.3418 2.35547 4.9375 3.6875 3.125 2.08789 0.73438 l 6.423828,10.19726 8.787109,6.84961 8.785157,1.89453 380.818361,84.28906 110.11523,21.16797 110.11719,14.38672 401.19145,-6.44922 28.3984,-0.0176 264.1269,2.16602 377.9434,-5.91602 32.9707,-1.67382 v -6.69336 l 32.9707,-1.61524 26.9844,-2.74219 26.9863,-3.83984 v 5.68164 l 23.3418,-4.63281 46.6895,-15.93945 46.6875,-23.18164 11.4726,-8.73633 11.4707,-9.76758 v -0.69922 -1.99023 -2.97657 -3.51171 -4.70313 -2.24219 -3.18359 -1.06641 l -11.4707,-10.71484 -11.4726,-7.85547 -46.6875,-23.97461 -46.6895,-25.61719 -16.5801,-10.6289 -6.7617,-4.33399 -26.9863,-14.77344 -26.9844,-5.46484 -65.9414,0.008 z m 470.8692,24.90039 12.7383,0.0117 v 14.11914 l -12.7363,-0.12891 z m 14.0918,0.0977 2.7207,0.17382 7.1973,3.88477 14.6269,9.01172 -11.6504,0.78906 -12.8926,0.1582 z m 4.6972,0.29882 8.1973,0.0352 5.6406,0.14453 16.2168,10.39063 -7.9043,2.04492 -13.9531,-8.4336 z"
     style="fill:#ffffff" /><g
     id="g410"
     transform="translate(2169.7306,-506.82111)"><path
       id="path283"
       style="fill:none;stroke:#080000;stroke-width:2.05666;stroke-linecap:square"
       d="m -603.6017,1279.5288 h 61.8039 c 5.0358,0 9.09,3.5387 9.09,7.9343 v 48.7837 c 0,4.3957 -4.0542,7.9343 -9.09,7.9343 h -61.8039 c -5.0358,0 -9.0898,-3.5386 -9.0898,-7.9343 v -48.7837 c 0,-4.3956 4.054,-7.9343 9.0898,-7.9343 z"
       sodipodi:nodetypes="sssssssss" /><rect
       style="fill:none;stroke:#080000;stroke-width:1.5006;stroke-linecap:square;stroke-dasharray:none;stroke-opacity:1"
       id="rect283"
       width="31.14547"
       height="60.682007"
       x="-471.69577"
       y="1230.355"
       rx="6.1963267"
       ry="6.1963267" /><rect
       style="fill:none;stroke:#080000;stroke-width:1.5006;stroke-linecap:square;stroke-dasharray:none;stroke-opacity:1"
       id="rect284"
       width="31.14547"
       height="60.682007"
       x="-653.52979"
       y="1168.0239"
       rx="6.1963267"
       ry="6.1963267" /><rect
       style="fill:none;stroke:#080000;stroke-width:1.5006;stroke-linecap:square;stroke-dasharray:none;stroke-opacity:1"
       id="rect285"
       width="31.14547"
       height="60.682007"
       x="-754.02045"
       y="1230.1989"
       rx="6.1963267"
       ry="6.1963267" /><rect
       style="fill:none;stroke:#080000;stroke-width:1.5006;stroke-linecap:square;stroke-dasharray:none;stroke-opacity:1"
       id="rect286"
       width="31.14547"
       height="60.682007"
       x="-1115.2826"
       y="1230.355"
       rx="6.1963267"
       ry="6.1963267" /><rect
       style="fill:none;stroke:#080000;stroke-width:1.5006;stroke-linecap:square;stroke-dasharray:none;stroke-opacity:1"
       id="rect287"
       width="31.14547"
       height="60.682007"
       x="-1419.6461"
       y="1230.355"
       rx="6.1963267"
       ry="6.1963267" /><rect
       style="fill:url(#linearGradient424);fill-opacity:1;stroke:#080000;stroke-width:1.5006;stroke-linecap:square;stroke-dasharray:none;stroke-opacity:1"
       id="rect302"
       width="7.1368136"
       height="9.5134115"
       x="-466.24509"
       y="1255.1008"
       rx="3.5684068"
       ry="3.5684068" /><rect
       style="fill:url(#linearGradient430);fill-opacity:1;stroke:#080000;stroke-width:1.5006;stroke-linecap:square;stroke-dasharray:none;stroke-opacity:1"
       id="rect308"
       width="7.1368136"
       height="9.5134115"
       x="-748.87152"
       y="1254.0227"
       rx="3.5684068"
       ry="3.5684068" /><rect
       style="fill:url(#linearGradient432);fill-opacity:1;stroke:#080000;stroke-width:1.5006;stroke-linecap:square;stroke-dasharray:none;stroke-opacity:1"
       id="rect310"
       width="7.1368136"
       height="9.5134115"
       x="-582.85028"
       y="1184.4208"
       rx="3.5684068"
       ry="3.5684068" /><rect
       style="fill:url(#linearGradient449);fill-opacity:1;stroke:#080000;stroke-width:1.5006;stroke-linecap:square;stroke-dasharray:none;stroke-opacity:1"
       id="rect342"
       width="7.1368136"
       height="9.5134115"
       x="-1108.8276"
       y="1255.8368"
       rx="3.5684068"
       ry="3.5684068" /><rect
       style="fill:none;stroke:#080000;stroke-width:1.5006;stroke-linecap:square;stroke-dasharray:none;stroke-opacity:1"
       id="rect358"
       width="31.14547"
       height="60.682007"
       x="-1846.3766"
       y="1230.355"
       rx="6.1963267"
       ry="6.1963267" /><rect
       style="fill:url(#linearGradient489);fill-opacity:1;stroke:#080000;stroke-width:1.5006;stroke-linecap:square;stroke-dasharray:none;stroke-opacity:1"
       id="rect385"
       width="7.1368136"
       height="9.5134115"
       x="-1840.7928"
       y="1255.8368"
       rx="3.5684068"
       ry="3.5684068" /><path
       style="fill:none;stroke:#000000;stroke-width:2.00976px;stroke-linecap:butt;stroke-linejoin:miter;stroke-opacity:1"
       d="m -1824.8922,1254.9805 v 11.4546"
       id="path385" /><path
       style="fill:none;stroke:#000000;stroke-width:2.00976px;stroke-linecap:butt;stroke-linejoin:miter;stroke-opacity:1"
       d="m -1398.9515,1254.9358 v 11.4546"
       id="path386" /><path
       style="fill:none;stroke:#000000;stroke-width:2.00976px;stroke-linecap:butt;stroke-linejoin:miter;stroke-opacity:1"
       d="m -1094.8581,1254.9085 v 11.4546"
       id="path387" /><path
       style="fill:none;stroke:#000000;stroke-width:2.00976px;stroke-linecap:butt;stroke-linejoin:miter;stroke-opacity:1"
       d="m -733.3412,1253.7829 v 11.4546"
       id="path388" /><path
       style="fill:none;stroke:#000000;stroke-width:2.00976px;stroke-linecap:butt;stroke-linejoin:miter;stroke-opacity:1"
       d="m -449.9737,1255.0131 v 11.4546"
       id="path389" /><path
       id="path390"
       style="fill:none;stroke:#080000;stroke-width:1.91064;stroke-linecap:square"
       d="m -1552.173,1279.548 h 53.3711 c 4.3486,0 7.8496,3.5366 7.8496,7.9296 v 48.7547 c 0,4.393 -3.501,7.9296 -7.8496,7.9296 h -53.3711 c -4.3486,0 -7.8495,-3.5366 -7.8495,-7.9296 v -48.7547 c 0,-4.393 3.5009,-7.9296 7.8495,-7.9296 z"
       sodipodi:nodetypes="sssssssss" /><rect
       style="fill:url(#linearGradient501);fill-opacity:1;stroke:#080000;stroke-width:1.5006;stroke-linecap:square;stroke-dasharray:none;stroke-opacity:1"
       id="rect401"
       width="7.1368136"
       height="9.5134115"
       x="-600.12512"
       y="1184.4208"
       rx="3.5684068"
       ry="3.5684068" /><rect
       style="fill:url(#linearGradient502);fill-opacity:1;stroke:#080000;stroke-width:1.5006;stroke-linecap:square;stroke-dasharray:none;stroke-opacity:1"
       id="rect402"
       width="7.1368136"
       height="9.5134115"
       x="-617.39996"
       y="1184.4208"
       rx="3.5684068"
       ry="3.5684068" /></g><path
     id="path114"
     d="m 1364.623,1160.4429 -264.1269,30.3106 -28.4004,1.7753 -401.18945,-5.0234 -110.11719,-0.094 -110.11523,-0.3535 -380.818361,0.098 -8.785157,2.0762 -8.787109,7.5136 -6.423828,11.1875 v 1.1192 3.3418 2.3554 4.9375 3.6875 3.125 2.0879 0.7344 l 6.423828,10.1973 8.787109,6.8496 8.785157,1.8945 380.818361,84.2891 110.11523,21.1679 110.11719,14.3868 401.19145,-6.4493 28.3984,-0.018 264.1269,2.1661 377.9434,-5.9161 32.9707,-1.6738 v -6.6933 l 32.9707,-1.6153 26.9844,-2.7422 26.9863,-3.8398 v 5.6816 l 23.3418,-4.6328 46.6895,-15.9394 46.6875,-23.1817 11.4726,-8.7363 11.4707,-9.7676 v -0.6992 -1.9902 -2.9766 -3.5117 -4.7031 -2.2422 -3.1836 -1.0664 l -11.4707,-10.7149 -11.4726,-7.8554 -46.6875,-23.9747 -46.6895,-25.6171 -16.5801,-10.6289 -6.7617,-4.334 -26.9863,-14.7735 -26.9844,-5.4648 -65.9414,0.01 z m 470.8692,24.9004 12.7383,0.012 v 14.1191 l -12.7363,-0.1289 z m 14.0918,0.098 2.7207,0.1738 7.1973,3.8848 14.6269,9.0117 -11.6504,0.7891 -12.8926,0.1582 z m 4.6972,0.2988 8.1973,0.035 5.6406,0.1445 16.2168,10.3907 -7.9043,2.0449 -13.9531,-8.4336 z"
     style="fill:#ffffff" /><g
     id="g111"
     transform="translate(2169.7306,5.9194674)"><path
       id="path1"
       style="fill:none;stroke:#080000;stroke-width:2.05666;stroke-linecap:square"
       d="m -603.6017,1279.5288 h 61.8039 c 5.0358,0 9.09,3.5387 9.09,7.9343 v 48.7837 c 0,4.3957 -4.0542,7.9343 -9.09,7.9343 h -61.8039 c -5.0358,0 -9.0898,-3.5386 -9.0898,-7.9343 v -48.7837 c 0,-4.3956 4.054,-7.9343 9.0898,-7.9343 z"
       sodipodi:nodetypes="sssssssss" /><rect
       style="fill:none;stroke:#080000;stroke-width:1.5006;stroke-linecap:square;stroke-dasharray:none;stroke-opacity:1"
       id="rect1"
       width="31.14547"
       height="60.682007"
       x="-471.69577"
       y="1230.355"
       rx="6.1963267"
       ry="6.1963267" /><rect
       style="fill:none;stroke:#080000;stroke-width:1.5006;stroke-linecap:square;stroke-dasharray:none;stroke-opacity:1"
       id="rect2"
       width="31.14547"
       height="60.682007"
       x="-653.52979"
       y="1168.0239"
       rx="6.1963267"
       ry="6.1963267" /><rect
       style="fill:none;stroke:#080000;stroke-width:1.5006;stroke-linecap:square;stroke-dasharray:none;stroke-opacity:1"
       id="rect3"
       width="31.14547"
       height="60.682007"
       x="-754.02045"
       y="1230.1989"
       rx="6.1963267"
       ry="6.1963267" /><rect
       style="fill:none;stroke:#080000;stroke-width:1.5006;stroke-linecap:square;stroke-dasharray:none;stroke-opacity:1"
       id="rect4"
       width="31.14547"
       height="60.682007"
       x="-1115.2826"
       y="1230.355"
       rx="6.1963267"
       ry="6.1963267" /><rect
       style="fill:none;stroke:#080000;stroke-width:1.5006;stroke-linecap:square;stroke-dasharray:none;stroke-opacity:1"
       id="rect5"
       width="31.14547"
       height="60.682007"
       x="-1419.6461"
       y="1230.355"
       rx="6.1963267"
       ry="6.1963267" /><rect
       style="fill:url(#linearGradient125);fill-opacity:1;stroke:#080000;stroke-width:1.5006;stroke-linecap:square;stroke-dasharray:none;stroke-opacity:1"
       id="rect20"
       width="7.1368136"
       height="9.5134115"
       x="-466.24509"
       y="1255.1008"
       rx="3.5684068"
       ry="3.5684068" /><rect
       style="fill:url(#linearGradient131);fill-opacity:1;stroke:#080000;stroke-width:1.5006;stroke-linecap:square;stroke-dasharray:none;stroke-opacity:1"
       id="rect26"
       width="7.1368136"
       height="9.5134115"
       x="-748.87152"
       y="1254.0227"
       rx="3.5684068"
       ry="3.5684068" /><rect
       style="fill:url(#linearGradient133);fill-opacity:1;stroke:#080000;stroke-width:1.5006;stroke-linecap:square;stroke-dasharray:none;stroke-opacity:1"
       id="rect28"
       width="7.1368136"
       height="9.5134115"
       x="-582.85028"
       y="1184.4208"
       rx="3.5684068"
       ry="3.5684068" /><rect
       style="fill:url(#linearGradient150);fill-opacity:1;stroke:#080000;stroke-width:1.5006;stroke-linecap:square;stroke-dasharray:none;stroke-opacity:1"
       id="rect45"
       width="7.1368136"
       height="9.5134115"
       x="-1108.8276"
       y="1255.8368"
       rx="3.5684068"
       ry="3.5684068" /><rect
       style="fill:none;stroke:#080000;stroke-width:1.5006;stroke-linecap:square;stroke-dasharray:none;stroke-opacity:1"
       id="rect60"
       width="31.14547"
       height="60.682007"
       x="-1846.3766"
       y="1230.355"
       rx="6.1963267"
       ry="6.1963267" /><rect
       style="fill:url(#linearGradient190);fill-opacity:1;stroke:#080000;stroke-width:1.5006;stroke-linecap:square;stroke-dasharray:none;stroke-opacity:1"
       id="rect86"
       width="7.1368136"
       height="9.5134115"
       x="-1840.7928"
       y="1255.8368"
       rx="3.5684068"
       ry="3.5684068" /><path
       style="fill:none;stroke:#000000;stroke-width:2.00976px;stroke-linecap:butt;stroke-linejoin:miter;stroke-opacity:1"
       d="m -1824.8922,1254.9805 v 11.4546"
       id="path86" /><path
       style="fill:none;stroke:#000000;stroke-width:2.00976px;stroke-linecap:butt;stroke-linejoin:miter;stroke-opacity:1"
       d="m -1398.9515,1254.9358 v 11.4546"
       id="path87" /><path
       style="fill:none;stroke:#000000;stroke-width:2.00976px;stroke-linecap:butt;stroke-linejoin:miter;stroke-opacity:1"
       d="m -1094.8581,1254.9085 v 11.4546"
       id="path88" /><path
       style="fill:none;stroke:#000000;stroke-width:2.00976px;stroke-linecap:butt;stroke-linejoin:miter;stroke-opacity:1"
       d="m -733.3412,1253.7829 v 11.4546"
       id="path89" /><path
       style="fill:none;stroke:#000000;stroke-width:2.00976px;stroke-linecap:butt;stroke-linejoin:miter;stroke-opacity:1"
       d="m -449.9737,1255.0131 v 11.4546"
       id="path90" /><path
       id="path91"
       style="fill:none;stroke:#080000;stroke-width:1.91064;stroke-linecap:square"
       d="m -1552.173,1279.548 h 53.3711 c 4.3486,0 7.8496,3.5366 7.8496,7.9296 v 48.7547 c 0,4.393 -3.501,7.9296 -7.8496,7.9296 h -53.3711 c -4.3486,0 -7.8495,-3.5366 -7.8495,-7.9296 v -48.7547 c 0,-4.393 3.5009,-7.9296 7.8495,-7.9296 z"
       sodipodi:nodetypes="sssssssss" /><rect
       style="fill:url(#linearGradient202);fill-opacity:1;stroke:#080000;stroke-width:1.5006;stroke-linecap:square;stroke-dasharray:none;stroke-opacity:1"
       id="rect102"
       width="7.1368136"
       height="9.5134115"
       x="-600.12512"
       y="1184.4208"
       rx="3.5684068"
       ry="3.5684068" /><rect
       style="fill:url(#linearGradient203);fill-opacity:1;stroke:#080000;stroke-width:1.5006;stroke-linecap:square;stroke-dasharray:none;stroke-opacity:1"
       id="rect103"
       width="7.1368136"
       height="9.5134115"
       x="-617.39996"
       y="1184.4208"
       rx="3.5684068"
       ry="3.5684068" /></g></svg>
