<?xml version="1.0" encoding="UTF-8" standalone="no"?>
<svg
   width="1024"
   height="1024"
   viewBox="0 0 1024 1024"
   version="1.1"
   id="svg40"
   sodipodi:docname="Vertical_stabilizer.svg"
   inkscape:version="1.3.2 (091e20ef0f, 2023-11-25, custom)"
   xml:space="preserve"
   xmlns:inkscape="http://www.inkscape.org/namespaces/inkscape"
   xmlns:sodipodi="http://sodipodi.sourceforge.net/DTD/sodipodi-0.dtd"
   xmlns="http://www.w3.org/2000/svg"
   xmlns:svg="http://www.w3.org/2000/svg"><defs
     id="defs40" /><sodipodi:namedview
     id="namedview40"
     pagecolor="#505050"
     bordercolor="#ffffff"
     borderopacity="1"
     inkscape:showpageshadow="0"
     inkscape:pageopacity="0"
     inkscape:pagecheckerboard="1"
     inkscape:deskcolor="#d1d1d1"
     inkscape:zoom="0.24072266"
     inkscape:cx="793.44422"
     inkscape:cy="355.18053"
     inkscape:window-width="1366"
     inkscape:window-height="724"
     inkscape:window-x="-1"
     inkscape:window-y="-1"
     inkscape:window-maximized="0"
     inkscape:current-layer="svg40" /><desc
     id="desc1">Boeing_747SP.blend, (Blender 3.3.9)</desc><rect
     style="fill:#ffffff;fill-opacity:1;stroke-width:15;stroke-linecap:square"
     id="rect1"
     width="1024"
     height="1024"
     x="0"
     y="0"
     rx="2.3779886"
     ry="2.3779886" /><path
     id="polygon1"
     d="m 139.64648,505.07227 34.91016,90.39648 18.95117,-2.29687 42.71289,-5.17579 211.88086,354.02735 8.2168,15.04101 -43.29102,48.06255 69.41602,-0.2461 125.81445,-0.4454 251.62891,-0.8906 29.58594,-0.4179 -59.19532,-61.10356 -532.76953,-421.58008 -78.93164,-7.68359 z"
     style="fill:#ffffff;fill-opacity:1"
     sodipodi:nodetypes="ccccccccccccccc" /><path
     d="m 178.04688,36.59375 34.91015,90.39453 18.94922,-2.29687 42.71289,-5.17383 211.88281,354.02734 8.2168,15.04102 -43.00781,47.74609 -1.07422,0.004 -40.96875,0.14453 -40.96875,0.14648 13.16406,0.10938 13.16602,0.11133 56.71875,-0.20118 69.0957,-0.24609 125.8125,-0.44531 251.62891,-0.89063 29.58789,-0.41797 L 868.67773,473.54492 335.9082,51.964844 256.97656,44.279297 Z m 416.51757,436.95117 51.83203,62.09766 z"
     style="fill:#ffffff;fill-opacity:1"
     id="path1" /><path
     style="fill:#301506;stroke:none;stroke-width:1px;stroke-linecap:butt;stroke-linejoin:miter;stroke-opacity:1;fill-opacity:1"
     d="m 178.04688,36.59375 157.86132,15.371094 532.76953,421.580076 59.19532,61.10165 -559.17383,1.98047 z"
     id="path2" /><path
     style="fill:#301506;stroke:none;stroke-width:1px;stroke-linecap:butt;stroke-linejoin:miter;stroke-opacity:1;fill-opacity:1"
     d="m 139.43555,505.1203 157.86132,15.3711 532.76953,421.58007 59.19532,61.10163 -559.17383,1.9805 z"
     id="path3" /><g
     transform="matrix(-5.1246983,0,0,-5.1246983,740.13409,3198.0265)"
     id="g2"><path
       d="m 38.962,567.66 0.17739,-20.134 4.5235,-5.5879 13.571,-7.1844 16.675,8.1601 3.4592,8.2488 -0.35478,26.698 -12.595,0.35478 -13.127,-2.1287 -11.974,-6.9183 z"
       fill-rule="evenodd"
       fill="#301506"
       id="path1-3" /><path
       d="M 25.619,0 C 15.738,0 7.119,1.913 0,5.6855 v 30.16 c 0,6.3462 2.3845,11.653 6.8945,15.35 4.1875,3.435 17.138,9.0957 18.725,9.7832 1.505,-0.655 14.609,-6.4032 18.73,-9.7832 4.5075,-3.695 6.8926,-9.0034 6.8926,-15.35 V 5.6855 C 44.1221,1.9125 35.5031,-5e-4 25.6181,-5e-4 Z M 40.25,5.8398 c 2.9466,0.038525 5.8399,0.22055 8.6367,0.48047 v 29.525 c 0,5.6738 -2.0588,10.257 -6.0312,13.529 -3.5488,2.9225 -14.25,7.717 -17.236,9.0332 -3.026,-1.334 -13.754,-6.189 -17.239,-9.032 -3.9489,-3.216 -6.0275,-7.908 -6.0275,-13.529 v -17.252 c 11.348,-10.407 25.128,-12.921 37.896,-12.754 z m -13.963,13.748 c -2.4312,0 -4.3928,0.54344 -6.0078,1.5859 v 29.049 h 4.459 v -9.3848 c 0.445,0.13125 1.0909,0.25391 2.0059,0.25391 4.9462,0 7.7891,-4.4588 7.7891,-10.969 0,-6.4975 -2.9273,-10.535 -8.2461,-10.535 z m 15.236,0 c -2.9325,0.085 -5.9992,2.2093 -5.9805,5.8105 0.0075,2.3712 0.66484,4.1445 4.3398,6.3008 1.9612,1.1512 2.7514,1.9098 2.7852,3.3086 0.0375,1.555 -1.0369,2.4926 -2.6719,2.4863 -1.4225,-0.01125 -3.123,-0.8007 -4.2617,-1.8145 v 4.1035 c 1.3962,0.8325 3.1384,1.3828 4.8984,1.3828 4.405,0 6.372,-3.1116 6.457,-5.9629 0.08375,-2.5988 -0.63438,-4.5652 -4.3594,-6.7539 -1.6625,-0.975 -2.9754,-1.6158 -2.9316,-3.2383 0.04375,-1.5838 1.3586,-2.1402 2.6211,-2.1289 1.5575,0.01375 3.0641,0.87633 3.9941,1.8301 v -3.875 C 45.62975,20.43315 43.9704,19.5127 41.5229,19.5877 Z M 4.63,20.03897 v 14.012 c 0,4.7238 2.2345,7.1152 6.6445,7.1152 2.7288,0 5.0143,-0.63156 6.7168,-1.7891 v -19.338 h -4.4492 v 16.801 c -0.485,0.3325 -1.2044,0.54492 -2.1094,0.54492 -2.0425,0 -2.3477,-1.873 -2.3477,-3.1367 v -14.209 H 4.6299 Z m 21.687,3.1387 c 2.5862,0 3.6582,2.0648 3.6582,7.0586 10e-7,4.8725 -1.226,7.2266 -3.791,7.2266 -0.60375,0 -1.1285,-0.14953 -1.4473,-0.26953 v -13.693 c 0.36125,-0.18 0.97508,-0.32227 1.5801,-0.32227 z"
       transform="matrix(0.8,0,0,-0.8,37.897,582.21)"
       fill="#fab80a"
       id="path2-6" /></g><g
     transform="matrix(5.1246983,0,0,-5.1246983,110.0577,3666.505)"
     id="g5"><path
       d="m 38.962,567.66 0.17739,-20.134 4.5235,-5.5879 13.571,-7.1844 16.675,8.1601 3.4592,8.2488 -0.35478,26.698 -12.595,0.35478 -13.127,-2.1287 -11.974,-6.9183 z"
       fill-rule="evenodd"
       fill="#301506"
       id="path4" /><path
       d="M 25.619,0 C 15.738,0 7.119,1.913 0,5.6855 v 30.16 c 0,6.3462 2.3845,11.653 6.8945,15.35 4.1875,3.435 17.138,9.0957 18.725,9.7832 1.505,-0.655 14.609,-6.4032 18.73,-9.7832 4.5075,-3.695 6.8926,-9.0034 6.8926,-15.35 V 5.6855 C 44.1221,1.9125 35.5031,-5e-4 25.6181,-5e-4 Z M 40.25,5.8398 c 2.9466,0.038525 5.8399,0.22055 8.6367,0.48047 v 29.525 c 0,5.6738 -2.0588,10.257 -6.0312,13.529 -3.5488,2.9225 -14.25,7.717 -17.236,9.0332 -3.026,-1.334 -13.754,-6.189 -17.239,-9.032 -3.9489,-3.216 -6.0275,-7.908 -6.0275,-13.529 v -17.252 c 11.348,-10.407 25.128,-12.921 37.896,-12.754 z m -13.963,13.748 c -2.4312,0 -4.3928,0.54344 -6.0078,1.5859 v 29.049 h 4.459 v -9.3848 c 0.445,0.13125 1.0909,0.25391 2.0059,0.25391 4.9462,0 7.7891,-4.4588 7.7891,-10.969 0,-6.4975 -2.9273,-10.535 -8.2461,-10.535 z m 15.236,0 c -2.9325,0.085 -5.9992,2.2093 -5.9805,5.8105 0.0075,2.3712 0.66484,4.1445 4.3398,6.3008 1.9612,1.1512 2.7514,1.9098 2.7852,3.3086 0.0375,1.555 -1.0369,2.4926 -2.6719,2.4863 -1.4225,-0.01125 -3.123,-0.8007 -4.2617,-1.8145 v 4.1035 c 1.3962,0.8325 3.1384,1.3828 4.8984,1.3828 4.405,0 6.372,-3.1116 6.457,-5.9629 0.08375,-2.5988 -0.63438,-4.5652 -4.3594,-6.7539 -1.6625,-0.975 -2.9754,-1.6158 -2.9316,-3.2383 0.04375,-1.5838 1.3586,-2.1402 2.6211,-2.1289 1.5575,0.01375 3.0641,0.87633 3.9941,1.8301 v -3.875 C 45.62975,20.43315 43.9704,19.5127 41.5229,19.5877 Z M 4.63,20.03897 v 14.012 c 0,4.7238 2.2345,7.1152 6.6445,7.1152 2.7288,0 5.0143,-0.63156 6.7168,-1.7891 v -19.338 h -4.4492 v 16.801 c -0.485,0.3325 -1.2044,0.54492 -2.1094,0.54492 -2.0425,0 -2.3477,-1.873 -2.3477,-3.1367 v -14.209 H 4.6299 Z m 21.687,3.1387 c 2.5862,0 3.6582,2.0648 3.6582,7.0586 10e-7,4.8725 -1.226,7.2266 -3.791,7.2266 -0.60375,0 -1.1285,-0.14953 -1.4473,-0.26953 v -13.693 c 0.36125,-0.18 0.97508,-0.32227 1.5801,-0.32227 z"
       transform="matrix(0.8,0,0,-0.8,37.897,582.21)"
       fill="#fab80a"
       id="path5" /></g></svg>
