<?xml version="1.0" encoding="UTF-8" standalone="no"?>
<svg
   width="2048"
   height="2048"
   viewBox="0 0 2048 2048"
   version="1.1"
   id="svg311"
   sodipodi:docname="Fuselage.svg"
   xml:space="preserve"
   inkscape:version="1.3.2 (091e20ef0f, 2023-11-25, custom)"
   xmlns:inkscape="http://www.inkscape.org/namespaces/inkscape"
   xmlns:sodipodi="http://sodipodi.sourceforge.net/DTD/sodipodi-0.dtd"
   xmlns:xlink="http://www.w3.org/1999/xlink"
   xmlns="http://www.w3.org/2000/svg"
   xmlns:svg="http://www.w3.org/2000/svg"><defs
     id="defs311"><style
       id="style1">.cls-2{fill:#0033a1;}</style><linearGradient
       id="linearGradient308"
       inkscape:collect="always"><stop
         style="stop-color:#1f1f1f;stop-opacity:1;"
         offset="0"
         id="stop308" /><stop
         style="stop-color:#80baff;stop-opacity:1;"
         offset="1"
         id="stop309" /></linearGradient><linearGradient
       id="linearGradient78"
       inkscape:collect="always"
       gradientTransform="matrix(0.88556225,0,0,1.1292261,-2213.67,152.24062)"
       x1="429.96899"
       y1="986.39227"
       x2="429.96899"
       y2="976.63869"
       gradientUnits="userSpaceOnUse"><stop
         style="stop-color:#1f1f1f;stop-opacity:1;"
         offset="0"
         id="stop77" /><stop
         style="stop-color:#80baff;stop-opacity:1;"
         offset="1"
         id="stop78" /></linearGradient><linearGradient
       inkscape:collect="always"
       xlink:href="#linearGradient308"
       id="linearGradient424"
       gradientUnits="userSpaceOnUse"
       gradientTransform="matrix(1.5005989,0,0,1.5005989,-1946.6487,282.571)"
       x1="989.22986"
       y1="654.32733"
       x2="989.22986"
       y2="648.26239" /><linearGradient
       inkscape:collect="always"
       xlink:href="#linearGradient308"
       id="linearGradient430"
       gradientUnits="userSpaceOnUse"
       gradientTransform="matrix(1.5005989,0,0,1.5005989,-2229.2753,281.49285)"
       x1="989.22986"
       y1="654.32733"
       x2="989.22986"
       y2="648.26239" /><linearGradient
       inkscape:collect="always"
       xlink:href="#linearGradient308"
       id="linearGradient431"
       gradientUnits="userSpaceOnUse"
       gradientTransform="matrix(1.5005989,0,0,1.5005989,-1942.3301,211.97897)"
       x1="989.22986"
       y1="654.32733"
       x2="989.22986"
       y2="648.26239" /><linearGradient
       inkscape:collect="always"
       xlink:href="#linearGradient308"
       id="linearGradient449"
       gradientUnits="userSpaceOnUse"
       gradientTransform="matrix(1.5005989,0,0,1.5005989,-2589.2314,283.30691)"
       x1="989.22986"
       y1="654.32733"
       x2="989.22986"
       y2="648.26239" /><linearGradient
       inkscape:collect="always"
       xlink:href="#linearGradient78"
       id="linearGradient489"
       gradientUnits="userSpaceOnUse"
       gradientTransform="matrix(0.88556225,0,0,1.1292261,-2213.67,152.24062)"
       x1="429.96899"
       y1="986.39227"
       x2="429.96899"
       y2="976.63869" /><linearGradient
       inkscape:collect="always"
       xlink:href="#linearGradient308"
       id="linearGradient495"
       gradientUnits="userSpaceOnUse"
       gradientTransform="matrix(1.5005989,0,0,1.5005989,-1976.8798,211.97897)"
       x1="989.22986"
       y1="654.32733"
       x2="989.22986"
       y2="648.26239" /><linearGradient
       inkscape:collect="always"
       xlink:href="#linearGradient308"
       id="linearGradient496"
       gradientUnits="userSpaceOnUse"
       gradientTransform="matrix(1.5005989,0,0,1.5005989,-1959.6049,211.97897)"
       x1="989.22986"
       y1="654.32733"
       x2="989.22986"
       y2="648.26239" /><linearGradient
       inkscape:collect="always"
       xlink:href="#linearGradient308"
       id="linearGradient125"
       gradientUnits="userSpaceOnUse"
       gradientTransform="matrix(1.5005989,0,0,1.5005989,-1946.6487,282.571)"
       x1="989.22986"
       y1="654.32733"
       x2="989.22986"
       y2="648.26239" /><linearGradient
       inkscape:collect="always"
       xlink:href="#linearGradient308"
       id="linearGradient131"
       gradientUnits="userSpaceOnUse"
       gradientTransform="matrix(1.5005989,0,0,1.5005989,-2229.2753,281.49285)"
       x1="989.22986"
       y1="654.32733"
       x2="989.22986"
       y2="648.26239" /><linearGradient
       inkscape:collect="always"
       xlink:href="#linearGradient308"
       id="linearGradient132"
       gradientUnits="userSpaceOnUse"
       gradientTransform="matrix(1.5005989,0,0,1.5005989,-1942.3301,211.97897)"
       x1="989.22986"
       y1="654.32733"
       x2="989.22986"
       y2="648.26239" /><linearGradient
       inkscape:collect="always"
       xlink:href="#linearGradient308"
       id="linearGradient150"
       gradientUnits="userSpaceOnUse"
       gradientTransform="matrix(1.5005989,0,0,1.5005989,-2589.2314,283.30691)"
       x1="989.22986"
       y1="654.32733"
       x2="989.22986"
       y2="648.26239" /><linearGradient
       inkscape:collect="always"
       xlink:href="#linearGradient78"
       id="linearGradient190"
       gradientUnits="userSpaceOnUse"
       gradientTransform="matrix(0.88556225,0,0,1.1292261,-2213.67,152.24062)"
       x1="429.96899"
       y1="986.39227"
       x2="429.96899"
       y2="976.63869" /><linearGradient
       inkscape:collect="always"
       xlink:href="#linearGradient308"
       id="linearGradient196"
       gradientUnits="userSpaceOnUse"
       gradientTransform="matrix(1.5005989,0,0,1.5005989,-1976.8798,211.97897)"
       x1="989.22986"
       y1="654.32733"
       x2="989.22986"
       y2="648.26239" /><linearGradient
       inkscape:collect="always"
       xlink:href="#linearGradient308"
       id="linearGradient197"
       gradientUnits="userSpaceOnUse"
       gradientTransform="matrix(1.5005989,0,0,1.5005989,-1959.6049,211.97897)"
       x1="989.22986"
       y1="654.32733"
       x2="989.22986"
       y2="648.26239" /><g
       id="s"><g
         id="c"><path
           id="t"
           d="M0,0v1h0.5z"
           transform="translate(0,-1)rotate(18)" /><use
           xlink:href="#t"
           transform="scale(-1,1)"
           id="use1" /></g><g
         id="a"><use
           xlink:href="#c"
           transform="rotate(72)"
           id="use2" /><use
           xlink:href="#c"
           transform="rotate(144)"
           id="use3" /></g><use
         xlink:href="#a"
         transform="scale(-1,1)"
         id="use4" /></g></defs><sodipodi:namedview
     id="namedview311"
     pagecolor="#505050"
     bordercolor="#ffffff"
     borderopacity="1"
     inkscape:showpageshadow="0"
     inkscape:pageopacity="0"
     inkscape:pagecheckerboard="1"
     inkscape:deskcolor="#d1d1d1"
     inkscape:zoom="0.24072266"
     inkscape:cx="1242.0933"
     inkscape:cy="1111.2373"
     inkscape:window-width="1366"
     inkscape:window-height="724"
     inkscape:window-x="-1"
     inkscape:window-y="-1"
     inkscape:window-maximized="1"
     inkscape:current-layer="svg311"
     showguides="true" /><desc
     id="desc1">Boeing_747_400.blend, (Blender 3.3.9)</desc><rect
     style="fill:#ffffff;stroke-width:50;stroke-linecap:square"
     id="rect311-2"
     width="2048"
     height="2048"
     x="0"
     y="0"
     rx="0"
     ry="0" /><path
     id="polygon1-9"
     d="m 1364.623,648.16797 -264.1269,30.31055 -28.4004,1.77539 -401.18945,-5.02344 -110.11719,-0.0937 -110.11523,-0.35352 -380.818361,0.0977 -8.785157,2.07617 -8.787109,7.51367 -6.423828,11.1875 v 1.11914 3.3418 2.35547 4.9375 3.6875 3.125 2.08789 0.73438 l 6.423828,10.19726 8.787109,6.84961 8.785157,1.89453 380.818361,84.28906 110.11523,21.16797 110.11719,14.38672 401.19145,-6.44922 28.3984,-0.0176 264.1269,2.16602 377.9434,-5.91602 32.9707,-1.67382 v -6.69336 l 32.9707,-1.61524 26.9844,-2.74219 26.9863,-3.83984 v 5.68164 l 23.3418,-4.63281 46.6895,-15.93945 46.6875,-23.18164 11.4726,-8.73633 11.4707,-9.76758 v -0.69922 -1.99023 -2.97657 -3.51171 -4.70313 -2.24219 -3.18359 -1.06641 l -11.4707,-10.71484 -11.4726,-7.85547 -46.6875,-23.97461 -46.6895,-25.61719 -16.5801,-10.6289 -6.7617,-4.33399 -26.9863,-14.77344 -26.9844,-5.46484 -65.9414,0.008 z m 470.8692,24.90039 12.7383,0.0117 v 14.11914 l -12.7363,-0.12891 z m 14.0918,0.0977 2.7207,0.17382 7.1973,3.88477 14.6269,9.01172 -11.6504,0.78906 -12.8926,0.1582 z m 4.6972,0.29882 8.1973,0.0352 5.6406,0.14453 16.2168,10.39063 -7.9043,2.04492 -13.9531,-8.4336 z"
     style="fill:#ffffff" /><g
     id="g1"
     transform="translate(-15.146583,-517.45736)"><path
       style="color:#000000;fill:#00a3e0;fill-opacity:1;-inkscape-stroke:none"
       d="m 72.671292,1248.7874 3.545603,2.7638 55.508905,12.2362 h 1120.5407 v -15 z"
       id="path4"
       sodipodi:nodetypes="cccccc" /><path
       style="font-style:normal;font-weight:normal;font-size:40px;font-family:'Bitstream Vera Sans';fill:#000000;fill-opacity:1;stroke:none;stroke-width:2.00478px;stroke-linecap:butt;stroke-linejoin:miter;stroke-opacity:1"
       d="m 1657.9794,1238.1648 14.8592,2.6357 c 0.5007,-2.9168 1.6361,-5.1133 3.4063,-6.5894 1.7702,-1.4759 4.0681,-2.214 6.8931,-2.214 3.7552,0 6.7502,1.274 8.9853,3.8218 2.2353,2.5479 3.3528,6.809 3.3528,12.7835 0,6.642 -1.1354,11.3336 -3.4064,14.0747 -2.2709,2.7413 -5.3195,4.1119 -9.1461,4.1119 -2.8611,0 -5.2035,-0.7997 -7.0274,-2.3986 -1.8238,-1.599 -3.1113,-4.349 -3.8623,-8.2499 l -14.8056,2.4776 c 1.5378,6.6772 4.4882,11.7203 8.8512,15.1292 4.363,3.4088 10.2101,5.1133 17.5413,5.1133 8.3327,0 14.9756,-2.583 19.9287,-7.7491 4.9531,-5.1661 7.4296,-12.3177 7.4296,-21.4549 0,-9.2427 -2.4854,-16.4383 -7.4564,-21.5868 -4.9711,-5.1485 -11.6942,-7.7227 -20.1701,-7.7227 -6.9378,0 -12.4541,1.4672 -16.549,4.4016 -4.0946,2.9347 -7.0362,7.4065 -8.8242,13.4161 z m -22.7451,0.527 13.6793,-2.4248 c -1.538,-5.412 -4.1843,-9.4183 -7.9393,-12.019 -3.7551,-2.6005 -9.334,-3.9009 -16.7369,-3.9009 -6.7232,0 -11.7299,0.782 -15.0202,2.3457 -3.2901,1.5641 -5.6057,3.5496 -6.9468,5.9569 -1.341,2.4074 -2.0115,6.8266 -2.0117,13.2579 l 0.1602,17.2905 c 0,4.9199 -0.2414,8.5484 -0.7242,10.8855 -0.4828,2.337 -1.3859,4.8411 -2.709,7.5118 h 14.9128 c 0.3935,-0.9839 0.8763,-2.4424 1.4485,-4.3754 0.2504,-0.8785 0.4291,-1.4583 0.5364,-1.7394 2.5749,2.46 5.3286,4.305 8.2611,5.535 2.9325,1.23 6.0617,1.845 9.3877,1.845 5.865,0 10.4873,-1.5639 13.8668,-4.6917 3.3796,-3.1277 5.0694,-7.0812 5.0694,-11.8607 0,-3.1629 -0.769,-5.9831 -2.3067,-8.4609 -1.5378,-2.4775 -3.6925,-4.3751 -6.464,-5.6931 -2.7716,-1.3178 -6.7682,-2.4689 -11.9895,-3.4528 -7.0452,-1.3003 -11.9267,-2.5127 -14.6446,-3.6373 v -1.4761 c 0,-2.8465 0.7153,-4.876 2.1458,-6.0885 1.4304,-1.2125 4.1304,-1.8187 8.1002,-1.8187 2.682,0 4.7742,0.5185 6.2762,1.5551 1.5021,1.0367 2.7179,2.8554 3.6477,5.4559 z m -20.1698,12.0191 c 1.9312,0.6326 4.9887,1.3881 9.1729,2.2666 4.1842,0.8787 6.9201,1.7397 8.2076,2.5832 1.9669,1.3705 2.9503,3.1101 2.9503,5.2187 0,2.0735 -0.7868,3.8659 -2.3604,5.377 -1.5735,1.5111 -3.5761,2.2666 -6.008,2.2666 -2.718,0 -5.3107,-0.8785 -7.7783,-2.6357 -1.8238,-1.3354 -3.0219,-2.9696 -3.5941,-4.9024 -0.3934,-1.2652 -0.59,-3.6726 -0.59,-7.222 z m -44.1488,26.8845 h 15.0739 v -55.9831 h -14.001 v 7.9599 c -2.396,-3.7603 -4.5507,-6.2379 -6.4642,-7.4327 -1.9131,-1.1948 -4.0857,-1.7924 -6.5176,-1.7924 -3.4331,0 -6.7411,0.9313 -9.9241,2.7939 l 4.6671,12.9151 c 2.539,-1.6165 4.8994,-2.4248 7.0809,-2.4248 2.1101,0 3.8981,0.5711 5.3643,1.7131 1.4663,1.1423 2.6197,3.2069 3.4601,6.1941 0.8404,2.9872 1.2606,9.2427 1.2606,18.7664 z m -26.8754,3.6902 -17.2196,2.0557 c -0.286,1.9681 -0.9477,3.3211 -1.9849,4.0591 -1.4305,1.0544 -3.6834,1.5814 -6.7591,1.5814 -3.9338,0 -6.8842,-0.5798 -8.8512,-1.7396 -1.3231,-0.7731 -2.3244,-2.0207 -3.0039,-3.7427 -0.465,-1.23 -0.6974,-3.4967 -0.6974,-6.8002 v -8.1707 c 4.506,6.0446 10.1924,9.0668 17.0587,9.0668 7.6531,0 13.7148,-3.1804 18.185,-9.5413 3.5049,-5.0255 5.2572,-11.281 5.2572,-18.7666 0,-9.3831 -2.2978,-16.5523 -6.8932,-21.5077 -4.5955,-4.9551 -10.3084,-7.4327 -17.1391,-7.4327 -7.0452,0 -12.8566,3.04 -17.4342,9.1196 v -7.8544 h -14.1084 v 50.2372 c 2e-4,6.607 0.5544,11.5446 1.663,14.8129 1.1088,3.2683 2.6645,5.8339 4.6671,7.6964 2.0026,1.8626 4.676,3.321 8.0197,4.3754 3.3438,1.0543 7.5726,1.5813 12.6867,1.5813 9.6558,0 16.5044,-1.6254 20.5455,-4.8761 4.0411,-3.2507 6.0617,-7.3713 6.0617,-12.3616 0,-0.492 -0.017,-1.0895 -0.054,-1.7922 z m -13.4645,-32.8414 c 0,5.9392 -1.1713,10.2881 -3.5137,13.0468 -2.3425,2.7589 -5.2302,4.1381 -8.6635,4.1381 -3.6835,0 -6.7947,-1.4144 -9.334,-4.2435 -2.5391,-2.829 -3.8086,-7.0198 -3.8086,-12.5725 0,-5.7985 1.2159,-10.1037 3.6477,-12.9151 2.4319,-2.8115 5.5074,-4.2172 9.2267,-4.2172 3.612,0 6.5892,1.3794 8.9317,4.1381 2.3424,2.7589 3.5137,6.9672 3.5137,12.6253 z m -51.6052,0.3689 c 0,-4.92 -1.2338,-9.6818 -3.7015,-14.2857 -2.4674,-4.6037 -5.9632,-8.1181 -10.4873,-10.5429 -4.5239,-2.4248 -9.5753,-3.6374 -15.1543,-3.6374 -8.6187,0 -15.6817,2.75 -21.1891,8.25 -5.5075,5.4998 -8.2611,12.4494 -8.2611,20.8486 0,8.4696 2.7804,15.4894 8.3415,21.0595 5.5611,5.5704 12.5616,8.3554 21.0014,8.3554 5.2213,0 10.2014,-1.1597 14.9397,-3.4791 4.7387,-2.3196 8.3418,-5.7196 10.8092,-10.2003 2.4677,-4.4809 3.7015,-9.9368 3.7015,-16.3681 z m -15.4493,0.7907 c 0,5.5528 -1.3411,9.805 -4.0234,12.757 -2.682,2.9521 -5.99,4.4282 -9.924,4.4282 -3.9339,0 -7.2329,-1.4761 -9.8973,-4.4282 -2.6641,-2.952 -3.9964,-7.2394 -3.9964,-12.8623 0,-5.4824 1.3323,-9.6996 3.9964,-12.6517 2.6644,-2.952 5.9634,-4.4279 9.8973,-4.4281 3.934,2e-4 7.242,1.4761 9.924,4.4281 2.6823,2.9521 4.0234,7.2045 4.0234,12.757 z m -55.1994,27.9916 v -77.2799 h -15.0738 v 77.2799 z m -67.9664,0 v -8.3816 c 2.0744,2.9872 4.8012,5.3418 8.1806,7.0638 3.3797,1.7221 6.947,2.583 10.702,2.583 3.8265,0 7.2598,-0.8258 10.2996,-2.4776 3.0398,-1.6517 5.2391,-3.9711 6.5981,-6.9583 1.3589,-2.9872 2.0385,-7.1165 2.0385,-12.3881 v -35.4243 h -15.074 v 25.7249 c 2e-4,7.872 -0.2771,12.6955 -0.8313,14.4701 -0.5544,1.7748 -1.5646,3.1805 -3.0309,4.2172 -1.4662,1.0369 -3.3258,1.5552 -5.5789,1.5552 -2.5749,0 -4.8817,-0.6941 -6.9202,-2.0822 -2.0383,-1.3882 -3.433,-3.1102 -4.1841,-5.1661 -0.751,-2.0559 -1.1265,-7.0902 -1.1265,-15.1029 v -23.6162 h -15.0738 v 55.9831 z m -22.423,0 -20.5455,-28.8349 19.6872,-27.1482 h -18.3998 l -10.085,15.3927 -10.6213,-15.3927 h -17.7024 l 19.3116,26.5156 -21.0819,29.4675 h 18.5071 l 11.5869,-17.3431 11.6944,17.3431 z"
       id="flowRoot2704-3" /><path
       style="color:#000000;fill:#ef3340;fill-opacity:1;-inkscape-stroke:none"
       d="m 61.005958,1231.2796 v 3.2247 l 6.423828,10.1973 2.025493,1.5789 1182.811221,-9e-4 v -15 H 525.4663 l -213.99945,-38.9994 -226.464798,0.058 -8.785157,2.0762 -8.787109,7.5137 -6.423828,11.1875 z"
       id="path5"
       sodipodi:nodetypes="ccccccccccccc" /></g><g
     id="g410"
     transform="translate(2169.7306,-506.82111)"><path
       id="path283"
       style="fill:none;stroke:#080000;stroke-width:2.05666;stroke-linecap:square"
       d="m -603.6017,1279.5288 h 61.8039 c 5.0358,0 9.09,3.5387 9.09,7.9343 v 48.7837 c 0,4.3957 -4.0542,7.9343 -9.09,7.9343 h -61.8039 c -5.0358,0 -9.0898,-3.5386 -9.0898,-7.9343 v -48.7837 c 0,-4.3956 4.054,-7.9343 9.0898,-7.9343 z"
       sodipodi:nodetypes="sssssssss" /><rect
       style="fill:none;stroke:#080000;stroke-width:1.5006;stroke-linecap:square;stroke-dasharray:none;stroke-opacity:1"
       id="rect283"
       width="31.14547"
       height="60.682007"
       x="-471.69577"
       y="1230.355"
       rx="6.1963267"
       ry="6.1963267" /><rect
       style="fill:none;stroke:#080000;stroke-width:1.5006;stroke-linecap:square;stroke-dasharray:none;stroke-opacity:1"
       id="rect284"
       width="31.14547"
       height="60.682007"
       x="-653.52979"
       y="1168.0239"
       rx="6.1963267"
       ry="6.1963267" /><rect
       style="fill:none;stroke:#080000;stroke-width:1.5006;stroke-linecap:square;stroke-dasharray:none;stroke-opacity:1"
       id="rect285"
       width="31.14547"
       height="60.682007"
       x="-754.02045"
       y="1230.1989"
       rx="6.1963267"
       ry="6.1963267" /><rect
       style="fill:none;stroke:#080000;stroke-width:1.5006;stroke-linecap:square;stroke-dasharray:none;stroke-opacity:1"
       id="rect286"
       width="31.14547"
       height="60.682007"
       x="-1115.2826"
       y="1230.355"
       rx="6.1963267"
       ry="6.1963267" /><rect
       style="fill:none;stroke:#080000;stroke-width:1.5006;stroke-linecap:square;stroke-dasharray:none;stroke-opacity:1"
       id="rect287"
       width="31.14547"
       height="60.682007"
       x="-1419.6461"
       y="1230.355"
       rx="6.1963267"
       ry="6.1963267" /><rect
       style="fill:url(#linearGradient424);fill-opacity:1;stroke:#080000;stroke-width:1.5006;stroke-linecap:square;stroke-dasharray:none;stroke-opacity:1"
       id="rect302"
       width="7.1368136"
       height="9.5134115"
       x="-466.24509"
       y="1255.1008"
       rx="3.5684068"
       ry="3.5684068" /><rect
       style="fill:url(#linearGradient430);fill-opacity:1;stroke:#080000;stroke-width:1.5006;stroke-linecap:square;stroke-dasharray:none;stroke-opacity:1"
       id="rect308"
       width="7.1368136"
       height="9.5134115"
       x="-748.87152"
       y="1254.0227"
       rx="3.5684068"
       ry="3.5684068" /><rect
       style="fill:url(#linearGradient431);fill-opacity:1;stroke:#080000;stroke-width:1.5006;stroke-linecap:square;stroke-dasharray:none;stroke-opacity:1"
       id="rect309"
       width="7.1368136"
       height="9.5134115"
       x="-461.92639"
       y="1184.5087"
       rx="3.5684068"
       ry="3.5684068" /><rect
       style="fill:url(#linearGradient449);fill-opacity:1;stroke:#080000;stroke-width:1.5006;stroke-linecap:square;stroke-dasharray:none;stroke-opacity:1"
       id="rect342"
       width="7.1368136"
       height="9.5134115"
       x="-1108.8276"
       y="1255.8368"
       rx="3.5684068"
       ry="3.5684068" /><rect
       style="fill:none;stroke:#080000;stroke-width:1.5006;stroke-linecap:square;stroke-dasharray:none;stroke-opacity:1"
       id="rect358"
       width="31.14547"
       height="60.682007"
       x="-1846.3766"
       y="1230.355"
       rx="6.1963267"
       ry="6.1963267" /><rect
       style="fill:url(#linearGradient489);fill-opacity:1;stroke:#080000;stroke-width:1.5006;stroke-linecap:square;stroke-dasharray:none;stroke-opacity:1"
       id="rect385"
       width="7.1368136"
       height="9.5134115"
       x="-1840.7928"
       y="1255.8368"
       rx="3.5684068"
       ry="3.5684068" /><path
       style="fill:none;stroke:#000000;stroke-width:2.00976px;stroke-linecap:butt;stroke-linejoin:miter;stroke-opacity:1"
       d="m -1824.8922,1254.9805 v 11.4546"
       id="path385" /><path
       style="fill:none;stroke:#000000;stroke-width:2.00976px;stroke-linecap:butt;stroke-linejoin:miter;stroke-opacity:1"
       d="m -1398.9515,1254.9358 v 11.4546"
       id="path386" /><path
       style="fill:none;stroke:#000000;stroke-width:2.00976px;stroke-linecap:butt;stroke-linejoin:miter;stroke-opacity:1"
       d="m -1094.8581,1254.9085 v 11.4546"
       id="path387" /><path
       style="fill:none;stroke:#000000;stroke-width:2.00976px;stroke-linecap:butt;stroke-linejoin:miter;stroke-opacity:1"
       d="m -733.3412,1253.7829 v 11.4546"
       id="path388" /><path
       style="fill:none;stroke:#000000;stroke-width:2.00976px;stroke-linecap:butt;stroke-linejoin:miter;stroke-opacity:1"
       d="m -449.9737,1255.0131 v 11.4546"
       id="path389" /><path
       id="path390"
       style="fill:none;stroke:#080000;stroke-width:1.91064;stroke-linecap:square"
       d="m -1552.173,1279.548 h 53.3711 c 4.3486,0 7.8496,3.5366 7.8496,7.9296 v 48.7547 c 0,4.393 -3.501,7.9296 -7.8496,7.9296 h -53.3711 c -4.3486,0 -7.8495,-3.5366 -7.8495,-7.9296 v -48.7547 c 0,-4.393 3.5009,-7.9296 7.8495,-7.9296 z"
       sodipodi:nodetypes="sssssssss" /><rect
       style="fill:url(#linearGradient495);fill-opacity:1;stroke:#080000;stroke-width:1.5006;stroke-linecap:square;stroke-dasharray:none;stroke-opacity:1"
       id="rect395"
       width="7.1368136"
       height="9.5134115"
       x="-496.47607"
       y="1184.5087"
       rx="3.5684068"
       ry="3.5684068" /><rect
       style="fill:url(#linearGradient496);fill-opacity:1;stroke:#080000;stroke-width:1.5006;stroke-linecap:square;stroke-dasharray:none;stroke-opacity:1"
       id="rect396"
       width="7.1368136"
       height="9.5134115"
       x="-479.20123"
       y="1184.5087"
       rx="3.5684068"
       ry="3.5684068" /></g><path
     id="path114"
     d="m 1364.623,1160.4429 -264.1269,30.3106 -28.4004,1.7753 -401.18945,-5.0234 -110.11719,-0.094 -110.11523,-0.3535 -380.818361,0.098 -8.785157,2.0762 -8.787109,7.5136 -6.423828,11.1875 v 1.1192 3.3418 2.3554 4.9375 3.6875 3.125 2.0879 0.7344 l 6.423828,10.1973 8.787109,6.8496 8.785157,1.8945 380.818361,84.2891 110.11523,21.1679 110.11719,14.3868 401.19145,-6.4493 28.3984,-0.018 264.1269,2.1661 377.9434,-5.9161 32.9707,-1.6738 v -6.6933 l 32.9707,-1.6153 26.9844,-2.7422 26.9863,-3.8398 v 5.6816 l 23.3418,-4.6328 46.6895,-15.9394 46.6875,-23.1817 11.4726,-8.7363 11.4707,-9.7676 v -0.6992 -1.9902 -2.9766 -3.5117 -4.7031 -2.2422 -3.1836 -1.0664 l -11.4707,-10.7149 -11.4726,-7.8554 -46.6875,-23.9747 -46.6895,-25.6171 -16.5801,-10.6289 -6.7617,-4.334 -26.9863,-14.7735 -26.9844,-5.4648 -65.9414,0.01 z m 470.8692,24.9004 12.7383,0.012 v 14.1191 l -12.7363,-0.1289 z m 14.0918,0.098 2.7207,0.1738 7.1973,3.8848 14.6269,9.0117 -11.6504,0.7891 -12.8926,0.1582 z m 4.6972,0.2988 8.1973,0.035 5.6406,0.1445 16.2168,10.3907 -7.9043,2.0449 -13.9531,-8.4336 z"
     style="fill:#ffffff" /><g
     id="g6"
     transform="translate(-15.146583,-5.1824169)"><path
       style="color:#000000;fill:#00a3e0;fill-opacity:1;-inkscape-stroke:none"
       d="m 72.671292,1248.7874 3.545603,2.7638 55.508905,12.2362 1120.5407,0 v -15 z"
       id="path2"
       sodipodi:nodetypes="cccccc" /><path
       style="font-style:normal;font-weight:normal;font-size:40px;font-family:'Bitstream Vera Sans';fill:#000000;fill-opacity:1;stroke:none;stroke-width:2.00478px;stroke-linecap:butt;stroke-linejoin:miter;stroke-opacity:1"
       d="m 1311.4951,1238.1648 -14.8592,2.6357 c -0.5007,-2.9168 -1.6361,-5.1133 -3.4063,-6.5894 -1.7702,-1.4759 -4.0681,-2.214 -6.8931,-2.214 -3.7552,0 -6.7502,1.274 -8.9853,3.8218 -2.2353,2.5479 -3.3528,6.809 -3.3528,12.7835 0,6.642 1.1354,11.3336 3.4064,14.0747 2.2709,2.7413 5.3195,4.1119 9.1461,4.1119 2.8611,0 5.2035,-0.7997 7.0274,-2.3986 1.8238,-1.599 3.1113,-4.349 3.8623,-8.2499 l 14.8056,2.4776 c -1.5378,6.6772 -4.4882,11.7203 -8.8512,15.1292 -4.363,3.4088 -10.2101,5.1133 -17.5413,5.1133 -8.3327,0 -14.9756,-2.583 -19.9287,-7.7491 -4.9531,-5.1661 -7.4296,-12.3177 -7.4296,-21.4549 0,-9.2427 2.4854,-16.4383 7.4564,-21.5868 4.9711,-5.1485 11.6942,-7.7227 20.1701,-7.7227 6.9378,0 12.4541,1.4672 16.549,4.4016 4.0946,2.9347 7.0362,7.4065 8.8242,13.4161 z m 22.7451,0.527 -13.6793,-2.4248 c 1.538,-5.412 4.1843,-9.4183 7.9393,-12.019 3.7551,-2.6005 9.334,-3.9009 16.7369,-3.9009 6.7232,0 11.7299,0.782 15.0202,2.3457 3.2901,1.5641 5.6057,3.5496 6.9468,5.9569 1.341,2.4074 2.0115,6.8266 2.0117,13.2579 l -0.1602,17.2905 c 0,4.9199 0.2414,8.5484 0.7242,10.8855 0.4828,2.337 1.3859,4.8411 2.709,7.5118 h -14.9128 c -0.3935,-0.9839 -0.8763,-2.4424 -1.4485,-4.3754 -0.2504,-0.8785 -0.4291,-1.4583 -0.5364,-1.7394 -2.5749,2.46 -5.3286,4.305 -8.2611,5.535 -2.9325,1.23 -6.0617,1.845 -9.3877,1.845 -5.865,0 -10.4873,-1.5639 -13.8668,-4.6917 -3.3796,-3.1277 -5.0694,-7.0812 -5.0694,-11.8607 0,-3.1629 0.769,-5.9831 2.3067,-8.4609 1.5378,-2.4775 3.6925,-4.3751 6.464,-5.6931 2.7716,-1.3178 6.7682,-2.4689 11.9895,-3.4528 7.0452,-1.3003 11.9267,-2.5127 14.6446,-3.6373 v -1.4761 c 0,-2.8465 -0.7153,-4.876 -2.1458,-6.0885 -1.4304,-1.2125 -4.1304,-1.8187 -8.1002,-1.8187 -2.682,0 -4.7742,0.5185 -6.2762,1.5551 -1.5021,1.0367 -2.7179,2.8554 -3.6477,5.4559 z m 20.1698,12.0191 c -1.9312,0.6326 -4.9887,1.3881 -9.1729,2.2666 -4.1842,0.8787 -6.9201,1.7397 -8.2076,2.5832 -1.9669,1.3705 -2.9503,3.1101 -2.9503,5.2187 0,2.0735 0.7868,3.8659 2.3604,5.377 1.5735,1.5111 3.5761,2.2666 6.008,2.2666 2.718,0 5.3107,-0.8785 7.7783,-2.6357 1.8238,-1.3354 3.0219,-2.9696 3.5941,-4.9024 0.3934,-1.2652 0.59,-3.6726 0.59,-7.222 z m 44.1488,26.8845 h -15.0739 v -55.9831 h 14.001 v 7.9599 c 2.396,-3.7603 4.5507,-6.2379 6.4642,-7.4327 1.9131,-1.1948 4.0857,-1.7924 6.5176,-1.7924 3.4331,0 6.7411,0.9313 9.9241,2.7939 l -4.6671,12.9151 c -2.539,-1.6165 -4.8994,-2.4248 -7.0809,-2.4248 -2.1101,0 -3.8981,0.5711 -5.3643,1.7131 -1.4663,1.1423 -2.6197,3.2069 -3.4601,6.1941 -0.8404,2.9872 -1.2606,9.2427 -1.2606,18.7664 z m 26.8754,3.6902 17.2196,2.0557 c 0.286,1.9681 0.9477,3.3211 1.9849,4.0591 1.4305,1.0544 3.6834,1.5814 6.7591,1.5814 3.9338,0 6.8842,-0.5798 8.8512,-1.7396 1.3231,-0.7731 2.3244,-2.0207 3.0039,-3.7427 0.465,-1.23 0.6974,-3.4967 0.6974,-6.8002 v -8.1707 c -4.506,6.0446 -10.1924,9.0668 -17.0587,9.0668 -7.6531,0 -13.7148,-3.1804 -18.185,-9.5413 -3.5049,-5.0255 -5.2572,-11.281 -5.2572,-18.7666 0,-9.3831 2.2978,-16.5523 6.8932,-21.5077 4.5955,-4.9551 10.3084,-7.4327 17.1391,-7.4327 7.0452,0 12.8566,3.04 17.4342,9.1196 v -7.8544 h 14.1084 v 50.2372 c -2e-4,6.607 -0.5544,11.5446 -1.663,14.8129 -1.1088,3.2683 -2.6645,5.8339 -4.6671,7.6964 -2.0026,1.8626 -4.676,3.321 -8.0197,4.3754 -3.3438,1.0543 -7.5726,1.5813 -12.6867,1.5813 -9.6558,0 -16.5044,-1.6254 -20.5455,-4.8761 -4.0411,-3.2507 -6.0617,-7.3713 -6.0617,-12.3616 0,-0.492 0.017,-1.0895 0.054,-1.7922 z m 13.4645,-32.8414 c 0,5.9392 1.1713,10.2881 3.5137,13.0468 2.3425,2.7589 5.2302,4.1381 8.6635,4.1381 3.6835,0 6.7947,-1.4144 9.334,-4.2435 2.5391,-2.829 3.8086,-7.0198 3.8086,-12.5725 0,-5.7985 -1.2159,-10.1037 -3.6477,-12.9151 -2.4319,-2.8115 -5.5074,-4.2172 -9.2267,-4.2172 -3.612,0 -6.5892,1.3794 -8.9317,4.1381 -2.3424,2.7589 -3.5137,6.9672 -3.5137,12.6253 z m 51.6052,0.3689 c 0,-4.92 1.2338,-9.6818 3.7015,-14.2857 2.4674,-4.6037 5.9632,-8.1181 10.4873,-10.5429 4.5239,-2.4248 9.5753,-3.6374 15.1543,-3.6374 8.6187,0 15.6817,2.75 21.1891,8.25 5.5075,5.4998 8.2611,12.4494 8.2611,20.8486 0,8.4696 -2.7804,15.4894 -8.3415,21.0595 -5.5611,5.5704 -12.5616,8.3554 -21.0014,8.3554 -5.2213,0 -10.2014,-1.1597 -14.9397,-3.4791 -4.7387,-2.3196 -8.3418,-5.7196 -10.8092,-10.2003 -2.4677,-4.4809 -3.7015,-9.9368 -3.7015,-16.3681 z m 15.4493,0.7907 c 0,5.5528 1.3411,9.805 4.0234,12.757 2.682,2.9521 5.99,4.4282 9.924,4.4282 3.9339,0 7.2329,-1.4761 9.8973,-4.4282 2.6641,-2.952 3.9964,-7.2394 3.9964,-12.8623 0,-5.4824 -1.3323,-9.6996 -3.9964,-12.6517 -2.6644,-2.952 -5.9634,-4.4279 -9.8973,-4.4281 -3.934,2e-4 -7.242,1.4761 -9.924,4.4281 -2.6823,2.9521 -4.0234,7.2045 -4.0234,12.757 z m 55.1994,27.9916 v -77.2799 h 15.0738 v 77.2799 z m 67.9664,0 v -8.3816 c -2.0744,2.9872 -4.8012,5.3418 -8.1806,7.0638 -3.3797,1.7221 -6.947,2.583 -10.702,2.583 -3.8265,0 -7.2598,-0.8258 -10.2996,-2.4776 -3.0398,-1.6517 -5.2391,-3.9711 -6.5981,-6.9583 -1.3589,-2.9872 -2.0385,-7.1165 -2.0385,-12.3881 v -35.4243 h 15.074 v 25.7249 c -2e-4,7.872 0.2771,12.6955 0.8313,14.4701 0.5544,1.7748 1.5646,3.1805 3.0309,4.2172 1.4662,1.0369 3.3258,1.5552 5.5789,1.5552 2.5749,0 4.8817,-0.6941 6.9202,-2.0822 2.0383,-1.3882 3.433,-3.1102 4.1841,-5.1661 0.751,-2.0559 1.1265,-7.0902 1.1265,-15.1029 v -23.6162 h 15.0738 v 55.9831 z m 22.423,0 20.5455,-28.8349 -19.6872,-27.1482 h 18.3998 l 10.085,15.3927 10.6213,-15.3927 h 17.7024 l -19.3116,26.5156 21.0819,29.4675 h -18.5071 l -11.5869,-17.3431 -11.6944,17.3431 z"
       id="path3" /><path
       style="color:#000000;fill:#ef3340;fill-opacity:1;-inkscape-stroke:none"
       d="m 61.005955,1231.2797 v 3.2247 l 6.42383,10.1973 2.02549,1.5789 1182.811225,-9e-4 v -15 H 525.46629 l -213.99945,-38.9994 -226.464795,0.058 -8.78515,2.0762 -8.78711,7.5137 -6.42383,11.1875 z"
       id="path5-6"
       sodipodi:nodetypes="ccccccccccccc" /></g><g
     id="g111"
     transform="translate(2169.7306,5.9194674)"><path
       id="path1"
       style="fill:none;stroke:#080000;stroke-width:2.05666;stroke-linecap:square"
       d="m -603.6017,1279.5288 h 61.8039 c 5.0358,0 9.09,3.5387 9.09,7.9343 v 48.7837 c 0,4.3957 -4.0542,7.9343 -9.09,7.9343 h -61.8039 c -5.0358,0 -9.0898,-3.5386 -9.0898,-7.9343 v -48.7837 c 0,-4.3956 4.054,-7.9343 9.0898,-7.9343 z"
       sodipodi:nodetypes="sssssssss" /><rect
       style="fill:none;stroke:#080000;stroke-width:1.5006;stroke-linecap:square;stroke-dasharray:none;stroke-opacity:1"
       id="rect1"
       width="31.14547"
       height="60.682007"
       x="-471.69577"
       y="1230.355"
       rx="6.1963267"
       ry="6.1963267" /><rect
       style="fill:none;stroke:#080000;stroke-width:1.5006;stroke-linecap:square;stroke-dasharray:none;stroke-opacity:1"
       id="rect2"
       width="31.14547"
       height="60.682007"
       x="-653.52979"
       y="1168.0239"
       rx="6.1963267"
       ry="6.1963267" /><rect
       style="fill:none;stroke:#080000;stroke-width:1.5006;stroke-linecap:square;stroke-dasharray:none;stroke-opacity:1"
       id="rect3"
       width="31.14547"
       height="60.682007"
       x="-754.02045"
       y="1230.1989"
       rx="6.1963267"
       ry="6.1963267" /><rect
       style="fill:none;stroke:#080000;stroke-width:1.5006;stroke-linecap:square;stroke-dasharray:none;stroke-opacity:1"
       id="rect4"
       width="31.14547"
       height="60.682007"
       x="-1115.2826"
       y="1230.355"
       rx="6.1963267"
       ry="6.1963267" /><rect
       style="fill:none;stroke:#080000;stroke-width:1.5006;stroke-linecap:square;stroke-dasharray:none;stroke-opacity:1"
       id="rect5"
       width="31.14547"
       height="60.682007"
       x="-1419.6461"
       y="1230.355"
       rx="6.1963267"
       ry="6.1963267" /><rect
       style="fill:url(#linearGradient125);fill-opacity:1;stroke:#080000;stroke-width:1.5006;stroke-linecap:square;stroke-dasharray:none;stroke-opacity:1"
       id="rect20"
       width="7.1368136"
       height="9.5134115"
       x="-466.24509"
       y="1255.1008"
       rx="3.5684068"
       ry="3.5684068" /><rect
       style="fill:url(#linearGradient131);fill-opacity:1;stroke:#080000;stroke-width:1.5006;stroke-linecap:square;stroke-dasharray:none;stroke-opacity:1"
       id="rect26"
       width="7.1368136"
       height="9.5134115"
       x="-748.87152"
       y="1254.0227"
       rx="3.5684068"
       ry="3.5684068" /><rect
       style="fill:url(#linearGradient132);fill-opacity:1;stroke:#080000;stroke-width:1.5006;stroke-linecap:square;stroke-dasharray:none;stroke-opacity:1"
       id="rect27"
       width="7.1368136"
       height="9.5134115"
       x="-461.92639"
       y="1184.5087"
       rx="3.5684068"
       ry="3.5684068" /><rect
       style="fill:url(#linearGradient150);fill-opacity:1;stroke:#080000;stroke-width:1.5006;stroke-linecap:square;stroke-dasharray:none;stroke-opacity:1"
       id="rect45"
       width="7.1368136"
       height="9.5134115"
       x="-1108.8276"
       y="1255.8368"
       rx="3.5684068"
       ry="3.5684068" /><rect
       style="fill:none;stroke:#080000;stroke-width:1.5006;stroke-linecap:square;stroke-dasharray:none;stroke-opacity:1"
       id="rect60"
       width="31.14547"
       height="60.682007"
       x="-1846.3766"
       y="1230.355"
       rx="6.1963267"
       ry="6.1963267" /><rect
       style="fill:url(#linearGradient190);fill-opacity:1;stroke:#080000;stroke-width:1.5006;stroke-linecap:square;stroke-dasharray:none;stroke-opacity:1"
       id="rect86"
       width="7.1368136"
       height="9.5134115"
       x="-1840.7928"
       y="1255.8368"
       rx="3.5684068"
       ry="3.5684068" /><path
       style="fill:none;stroke:#000000;stroke-width:2.00976px;stroke-linecap:butt;stroke-linejoin:miter;stroke-opacity:1"
       d="m -1824.8922,1254.9805 v 11.4546"
       id="path86" /><path
       style="fill:none;stroke:#000000;stroke-width:2.00976px;stroke-linecap:butt;stroke-linejoin:miter;stroke-opacity:1"
       d="m -1398.9515,1254.9358 v 11.4546"
       id="path87" /><path
       style="fill:none;stroke:#000000;stroke-width:2.00976px;stroke-linecap:butt;stroke-linejoin:miter;stroke-opacity:1"
       d="m -1094.8581,1254.9085 v 11.4546"
       id="path88" /><path
       style="fill:none;stroke:#000000;stroke-width:2.00976px;stroke-linecap:butt;stroke-linejoin:miter;stroke-opacity:1"
       d="m -733.3412,1253.7829 v 11.4546"
       id="path89" /><path
       style="fill:none;stroke:#000000;stroke-width:2.00976px;stroke-linecap:butt;stroke-linejoin:miter;stroke-opacity:1"
       d="m -449.9737,1255.0131 v 11.4546"
       id="path90" /><path
       id="path91"
       style="fill:none;stroke:#080000;stroke-width:1.91064;stroke-linecap:square"
       d="m -1552.173,1279.548 h 53.3711 c 4.3486,0 7.8496,3.5366 7.8496,7.9296 v 48.7547 c 0,4.393 -3.501,7.9296 -7.8496,7.9296 h -53.3711 c -4.3486,0 -7.8495,-3.5366 -7.8495,-7.9296 v -48.7547 c 0,-4.393 3.5009,-7.9296 7.8495,-7.9296 z"
       sodipodi:nodetypes="sssssssss" /><rect
       style="fill:url(#linearGradient196);fill-opacity:1;stroke:#080000;stroke-width:1.5006;stroke-linecap:square;stroke-dasharray:none;stroke-opacity:1"
       id="rect96"
       width="7.1368136"
       height="9.5134115"
       x="-496.47607"
       y="1184.5087"
       rx="3.5684068"
       ry="3.5684068" /><rect
       style="fill:url(#linearGradient197);fill-opacity:1;stroke:#080000;stroke-width:1.5006;stroke-linecap:square;stroke-dasharray:none;stroke-opacity:1"
       id="rect97"
       width="7.1368136"
       height="9.5134115"
       x="-479.20123"
       y="1184.5087"
       rx="3.5684068"
       ry="3.5684068" /></g><g
     id="g2"
     transform="matrix(0.03703704,0,0,0.03703704,1605.0011,672.44426)"><rect
       fill="#003399"
       width="810"
       height="540"
       id="rect4-6"
       x="0"
       y="0" /><g
       fill="#ffcc00"
       transform="matrix(30,0,0,30,405,270)"
       id="g12"><use
         xlink:href="#s"
         y="-6"
         id="use5" /><use
         xlink:href="#s"
         y="6"
         id="use6" /><g
         id="l"><use
           xlink:href="#s"
           x="-6"
           id="use7" /><use
           xlink:href="#s"
           transform="rotate(-144,-2.3441661,-2.1106967)"
           id="use8" /><use
           xlink:href="#s"
           transform="rotate(144,-2.1106967,-2.3441661)"
           id="use9" /><use
           xlink:href="#s"
           transform="rotate(72,-4.6626491,-2.0759451)"
           id="use10" /><use
           xlink:href="#s"
           transform="rotate(72,-5.0759451,0.53350333)"
           id="use11" /></g><use
         xlink:href="#l"
         transform="scale(-1,1)"
         id="use12" /></g></g><g
     id="g21"
     transform="matrix(0.03703704,0,0,0.03703704,1605.0011,1185.1331)"><rect
       fill="#003399"
       width="810"
       height="540"
       id="rect6"
       x="0"
       y="0" /><g
       fill="#ffcc00"
       transform="matrix(30,0,0,30,405,270)"
       id="g20"><use
         xlink:href="#s"
         y="-6"
         id="use13" /><use
         xlink:href="#s"
         y="6"
         id="use14" /><g
         id="g19"><use
           xlink:href="#s"
           x="-6"
           id="use15" /><use
           xlink:href="#s"
           transform="rotate(-144,-2.3441661,-2.1106967)"
           id="use16" /><use
           xlink:href="#s"
           transform="rotate(144,-2.1106967,-2.3441661)"
           id="use17" /><use
           xlink:href="#s"
           transform="rotate(72,-4.6626491,-2.0759451)"
           id="use18" /><use
           xlink:href="#s"
           transform="rotate(72,-5.0759451,0.53350333)"
           id="use19" /></g><use
         xlink:href="#l"
         transform="scale(-1,1)"
         id="use20" /></g></g></svg>
