<?xml version="1.0" encoding="UTF-8" standalone="no"?>
<svg
   width="2048"
   height="2048"
   viewBox="0 0 2048 2048"
   version="1.1"
   id="svg311"
   sodipodi:docname="Fuselage.svg"
   xml:space="preserve"
   inkscape:version="1.3.2 (091e20ef0f, 2023-11-25, custom)"
   xmlns:inkscape="http://www.inkscape.org/namespaces/inkscape"
   xmlns:sodipodi="http://sodipodi.sourceforge.net/DTD/sodipodi-0.dtd"
   xmlns:xlink="http://www.w3.org/1999/xlink"
   xmlns="http://www.w3.org/2000/svg"
   xmlns:svg="http://www.w3.org/2000/svg"><defs
     id="defs311"><style
       id="style1">.cls-2{fill:#0033a1;}</style><linearGradient
       id="linearGradient308"
       inkscape:collect="always"><stop
         style="stop-color:#1f1f1f;stop-opacity:1;"
         offset="0"
         id="stop308" /><stop
         style="stop-color:#80baff;stop-opacity:1;"
         offset="1"
         id="stop309" /></linearGradient><linearGradient
       inkscape:collect="always"
       xlink:href="#linearGradient308"
       id="linearGradient327"
       gradientUnits="userSpaceOnUse"
       gradientTransform="matrix(1.5005989,0,0,1.5005989,-1946.6487,282.571)"
       x1="989.22986"
       y1="654.32733"
       x2="989.22986"
       y2="648.26239" /><linearGradient
       inkscape:collect="always"
       xlink:href="#linearGradient308"
       id="linearGradient344"
       gradientUnits="userSpaceOnUse"
       gradientTransform="matrix(1.5005989,0,0,1.5005989,-2229.2753,281.49285)"
       x1="989.22986"
       y1="654.32733"
       x2="989.22986"
       y2="648.26239" /><linearGradient
       inkscape:collect="always"
       xlink:href="#linearGradient308"
       id="linearGradient381"
       gradientUnits="userSpaceOnUse"
       gradientTransform="matrix(1.5005989,0,0,1.5005989,-2063.2543,211.89096)"
       x1="989.22986"
       y1="654.32733"
       x2="989.22986"
       y2="648.26239" /><linearGradient
       id="linearGradient78"
       inkscape:collect="always"
       gradientTransform="matrix(0.88556225,0,0,1.1292261,-2213.67,152.24062)"
       x1="429.96899"
       y1="986.39227"
       x2="429.96899"
       y2="976.63869"
       gradientUnits="userSpaceOnUse"><stop
         style="stop-color:#1f1f1f;stop-opacity:1;"
         offset="0"
         id="stop77" /><stop
         style="stop-color:#80baff;stop-opacity:1;"
         offset="1"
         id="stop78" /></linearGradient><linearGradient
       inkscape:collect="always"
       xlink:href="#linearGradient308"
       id="linearGradient27"
       gradientUnits="userSpaceOnUse"
       gradientTransform="matrix(1.5005989,0,0,1.5005989,-2589.2314,283.30691)"
       x1="989.22986"
       y1="654.32733"
       x2="989.22986"
       y2="648.26239" /><linearGradient
       inkscape:collect="always"
       xlink:href="#linearGradient308"
       id="linearGradient261"
       gradientUnits="userSpaceOnUse"
       gradientTransform="matrix(1.5005989,0,0,1.5005989,-2028.7042,211.97897)"
       x1="989.22986"
       y1="654.32733"
       x2="989.22986"
       y2="648.26239" /><linearGradient
       inkscape:collect="always"
       xlink:href="#linearGradient308"
       id="linearGradient262"
       gradientUnits="userSpaceOnUse"
       gradientTransform="matrix(1.5005989,0,0,1.5005989,-2045.979,211.97897)"
       x1="989.22986"
       y1="654.32733"
       x2="989.22986"
       y2="648.26239" /><linearGradient
       inkscape:collect="always"
       xlink:href="#linearGradient308"
       id="linearGradient263"
       gradientUnits="userSpaceOnUse"
       gradientTransform="matrix(1.5005989,0,0,1.5005989,-2080.5291,211.89096)"
       x1="989.22986"
       y1="654.32733"
       x2="989.22986"
       y2="648.26239" /><linearGradient
       inkscape:collect="always"
       xlink:href="#linearGradient308"
       id="linearGradient264"
       gradientUnits="userSpaceOnUse"
       gradientTransform="matrix(1.5005989,0,0,1.5005989,-2097.8039,211.89096)"
       x1="989.22986"
       y1="654.32733"
       x2="989.22986"
       y2="648.26239" /><linearGradient
       inkscape:collect="always"
       xlink:href="#linearGradient308"
       id="linearGradient265"
       gradientUnits="userSpaceOnUse"
       gradientTransform="matrix(1.5005989,0,0,1.5005989,-2146.0549,211.89096)"
       x1="989.22986"
       y1="654.32733"
       x2="989.22986"
       y2="648.26239" /><linearGradient
       inkscape:collect="always"
       xlink:href="#linearGradient308"
       id="linearGradient424"
       gradientUnits="userSpaceOnUse"
       gradientTransform="matrix(1.5005989,0,0,1.5005989,-1946.6487,282.571)"
       x1="989.22986"
       y1="654.32733"
       x2="989.22986"
       y2="648.26239" /><linearGradient
       inkscape:collect="always"
       xlink:href="#linearGradient308"
       id="linearGradient430"
       gradientUnits="userSpaceOnUse"
       gradientTransform="matrix(1.5005989,0,0,1.5005989,-2229.2753,281.49285)"
       x1="989.22986"
       y1="654.32733"
       x2="989.22986"
       y2="648.26239" /><linearGradient
       inkscape:collect="always"
       xlink:href="#linearGradient308"
       id="linearGradient432"
       gradientUnits="userSpaceOnUse"
       gradientTransform="matrix(1.5005989,0,0,1.5005989,-2063.2543,211.89096)"
       x1="989.22986"
       y1="654.32733"
       x2="989.22986"
       y2="648.26239" /><linearGradient
       inkscape:collect="always"
       xlink:href="#linearGradient308"
       id="linearGradient449"
       gradientUnits="userSpaceOnUse"
       gradientTransform="matrix(1.5005989,0,0,1.5005989,-2589.2314,283.30691)"
       x1="989.22986"
       y1="654.32733"
       x2="989.22986"
       y2="648.26239" /><linearGradient
       inkscape:collect="always"
       xlink:href="#linearGradient78"
       id="linearGradient489"
       gradientUnits="userSpaceOnUse"
       gradientTransform="matrix(0.88556225,0,0,1.1292261,-2213.67,152.24062)"
       x1="429.96899"
       y1="986.39227"
       x2="429.96899"
       y2="976.63869" /><linearGradient
       inkscape:collect="always"
       xlink:href="#linearGradient308"
       id="linearGradient499"
       gradientUnits="userSpaceOnUse"
       gradientTransform="matrix(1.5005989,0,0,1.5005989,-2028.7042,211.97897)"
       x1="989.22986"
       y1="654.32733"
       x2="989.22986"
       y2="648.26239" /><linearGradient
       inkscape:collect="always"
       xlink:href="#linearGradient308"
       id="linearGradient500"
       gradientUnits="userSpaceOnUse"
       gradientTransform="matrix(1.5005989,0,0,1.5005989,-2045.979,211.97897)"
       x1="989.22986"
       y1="654.32733"
       x2="989.22986"
       y2="648.26239" /><linearGradient
       inkscape:collect="always"
       xlink:href="#linearGradient308"
       id="linearGradient501"
       gradientUnits="userSpaceOnUse"
       gradientTransform="matrix(1.5005989,0,0,1.5005989,-2080.5291,211.89096)"
       x1="989.22986"
       y1="654.32733"
       x2="989.22986"
       y2="648.26239" /><linearGradient
       inkscape:collect="always"
       xlink:href="#linearGradient308"
       id="linearGradient502"
       gradientUnits="userSpaceOnUse"
       gradientTransform="matrix(1.5005989,0,0,1.5005989,-2097.8039,211.89096)"
       x1="989.22986"
       y1="654.32733"
       x2="989.22986"
       y2="648.26239" /><linearGradient
       inkscape:collect="always"
       xlink:href="#linearGradient308"
       id="linearGradient503"
       gradientUnits="userSpaceOnUse"
       gradientTransform="matrix(1.5005989,0,0,1.5005989,-2146.0549,211.89096)"
       x1="989.22986"
       y1="654.32733"
       x2="989.22986"
       y2="648.26239" /><style
       id="style1-3">.cls-2{fill:#0033a1;}</style><inkscape:perspective
       sodipodi:type="inkscape:persp3d"
       inkscape:vp_x="0 : 133 : 1"
       inkscape:vp_y="0 : 1000 : 0"
       inkscape:vp_z="697.69098 : 133 : 1"
       inkscape:persp3d-origin="348.84549 : 88.666667 : 1"
       id="perspective58" /><clipPath
       id="a"><path
         id="path5695"
         d="m 714.047,23.099 99.853,0 0,34.16 -99.853,0 0,-34.16 z" /></clipPath><style
       id="style1-35">.cls-2{fill:#0033a1;}</style><style
       id="style1-36">.cls-1{fill:#002663;}.cls-2{fill:#ffb608;}</style></defs><sodipodi:namedview
     id="namedview311"
     pagecolor="#505050"
     bordercolor="#ffffff"
     borderopacity="1"
     inkscape:showpageshadow="0"
     inkscape:pageopacity="0"
     inkscape:pagecheckerboard="1"
     inkscape:deskcolor="#d1d1d1"
     inkscape:zoom="0.1767767"
     inkscape:cx="1889.3893"
     inkscape:cy="760.84689"
     inkscape:window-width="1366"
     inkscape:window-height="724"
     inkscape:window-x="-1"
     inkscape:window-y="-1"
     inkscape:window-maximized="1"
     inkscape:current-layer="svg311"
     showguides="true" /><desc
     id="desc1">Boeing_747_400.blend, (Blender 3.3.9)</desc><rect
     style="fill:#ffffff;stroke-width:10;stroke-linecap:square"
     id="rect1"
     width="2048"
     height="2048"
     x="0"
     y="0" /><path
     id="polygon1"
     d="M 1810.0234 637.69727 L 1737.2344 637.70703 L 1392.9238 643.51172 L 1188.4121 670.52734 L 1157.0625 672.48438 L 714.20117 666.94141 L 592.64648 666.83789 L 471.09375 666.44922 L 50.71875 666.55469 L 41.019531 668.84961 L 31.322266 677.14062 L 24.230469 689.49023 L 24.230469 690.72656 L 24.230469 694.41797 L 24.230469 697.01367 L 24.230469 702.46484 L 24.230469 706.53516 L 24.230469 709.98438 L 24.230469 712.28906 L 24.230469 713.09961 L 31.322266 724.35938 L 41.019531 731.91992 L 50.71875 734.00977 L 471.09375 827.05469 L 592.64648 850.42188 L 714.20117 866.30273 L 1157.0625 859.18164 L 1188.4121 859.16406 L 1392.9238 862.15234 L 1737.2344 855.02539 L 1773.6289 853.17773 L 1773.6289 845.78711 L 1810.0234 844.00391 L 1839.8125 840.97852 L 1869.6016 836.73633 L 1869.6016 843.01172 L 1895.3672 837.89648 L 1946.9062 820.30078 L 1998.4453 794.71289 L 2011.1074 785.06836 L 2023.7695 774.28516 L 2023.7695 773.51367 L 2023.7695 771.31836 L 2023.7695 768.03125 L 2023.7695 764.1543 L 2023.7695 758.96289 L 2023.7695 756.48828 L 2023.7695 752.97461 L 2023.7695 751.79688 L 2011.1074 739.96875 L 1998.4453 731.29883 L 1946.9062 704.83398 L 1895.3672 676.55469 L 1877.0645 664.82227 L 1869.6016 660.03711 L 1839.8125 643.72852 L 1810.0234 637.69727 z M 1839.8125 664.55469 L 1853.873 664.56836 L 1853.8711 680.15234 L 1839.8125 680.01172 L 1839.8125 664.55469 z M 1855.3672 664.66211 L 1858.3691 664.85352 L 1866.3145 669.14258 L 1882.4629 679.0918 L 1869.6016 679.96289 L 1855.3672 680.13477 L 1855.3672 664.66211 z M 1860.5527 664.99219 L 1869.6016 665.03125 L 1875.8281 665.19141 L 1893.7285 676.66016 L 1885.0039 678.91992 L 1869.6016 669.60742 L 1860.5527 664.99219 z "
     style="fill:#ffffff" /><path
     style="fill:#002663;fill-opacity:1"
     d="M 714.20117,866.30273 492.9621,666.51914 l -442.24335,0.0356 -9.699219,2.29492 -9.697265,8.29101 -7.091797,12.34961 v 23.60938 l 7.091797,11.25977 9.697265,7.56054 430.074219,95.13477 121.55273,23.36719 z"
     id="path14" /><g
     id="g14"
     transform="matrix(-2.3045186,0,0,2.3045186,8062.5357,-250.41984)"><g
       id="g8"
       style="fill:#ffb608;fill-opacity:1"><path
         class="cls-1"
         d="m 3035.32,425.53 h 14.42 l -13.42,29.43 h -14.42 z"
         id="path6"
         style="fill:#ffb608;fill-opacity:1" /><path
         class="cls-1"
         d="m 3076.34,442.02 6.29,12.93 h -16.3 l -3.8,-12.15 h -0.1 l -5.52,12.13 h -14.44 l 13.42,-29.43 h 22.32 c 8.34,0 12.21,2 9.25,9.52 -2.18,5.6 -6.25,6.61 -11.13,7 v 0.08 m -11.85,-3.59 h 3 a 5.27,5.27 0 0 0 5,-3.16 c 1,-2.11 -0.45,-2.76 -2.65,-2.76 h -2.62 z"
         id="path7"
         style="fill:#ffb608;fill-opacity:1" /><path
         class="cls-1"
         d="m 3000.65,425.67 h 21.71 l -2.8,29.28 h -16.18 l 0.89,-4.17 h -8.83 l -3.09,4.17 h -16.29 z m -0.65,18.46 h 5.85 l 2.33,-11 h -0.13 z"
         id="path8"
         style="fill:#ffb608;fill-opacity:1" /></g><g
       id="g13"><path
         class="cls-1"
         d="m 2822.55,424.61 h 39.69 l -3.34,7.23 h -12.69 l -10.7,23.11 h -15.31 l 10.69,-23.11 H 2819 Z"
         id="path9"
         style="fill:#002663" /><path
         class="cls-1"
         d="M 2861.66,424.62 H 2877 l -10.72,23.11 h 14.21 l -3.35,7.22 h -29.53 z"
         id="path10"
         style="fill:#002663" /><path
         class="cls-1"
         d="m 2899.44,424.71 h 22.36 l -2.85,30.24 h -16.7 l 0.91,-4.35 h -9.09 l -3.18,4.35 h -16.79 z m -0.64,19 h 6 l 2.36,-11.3 h -0.12 z"
         id="path11"
         style="fill:#002663" /><path
         class="cls-1"
         d="m 2953.46,433.56 a 2.57,2.57 0 0 0 0,-2.18 c -0.32,-0.54 -1,-0.86 -2.22,-0.86 -2.41,0 -3.65,0.75 -4.41,2.5 -2.41,5.43 23.6,-0.78 18.17,11.7 -3.11,7.1 -10.19,10.7 -25.31,10.69 -8.24,0 -20.05,-1.3 -16.46,-9.45 h 16.46 a 2.25,2.25 0 0 0 -0.16,2.13 c 0.33,0.54 1.12,0.82 2.38,0.82 2.55,0 4.19,-1.2 4.65,-2.24 2.24,-5.12 -22.48,-0.87 -17.33,-12.61 2.94,-6.68 9.51,-9.94 23.87,-9.94 12.1,0 19.47,1.63 16,9.45 z"
         id="path12"
         style="fill:#002663" /><path
         class="cls-1"
         d="m 2791.45,420 h 24.85 l -3.47,34.87 h -18.54 l 1.07,-4.94 h -10.12 l -3.58,5 H 2763 Z m -0.88,22 h 6.71 l 2.72,-13 h -0.13 z"
         id="path13"
         style="fill:#002663" /></g></g><path
     id="polygon122"
     d="M 1810.0234 1149.6973 L 1737.2344 1149.707 L 1392.9238 1155.5117 L 1188.4121 1182.5273 L 1157.0625 1184.4844 L 714.20117 1178.9414 L 592.64648 1178.8379 L 471.09375 1178.4492 L 50.71875 1178.5547 L 41.019531 1180.8496 L 31.322266 1189.1406 L 31.322266 1191.6113 L 24.230469 1202.7266 L 24.230469 1206.418 L 31.322266 1198.9922 L 31.322266 1204.1875 L 24.230469 1209.0137 L 24.230469 1214.4648 L 24.230469 1218.5352 L 24.230469 1221.9844 L 24.230469 1224.2891 L 31.322266 1234.7402 L 31.322266 1236.3594 L 41.019531 1243.9199 L 50.71875 1246.0098 L 471.09375 1339.0547 L 592.64648 1362.4219 L 714.20117 1378.3027 L 1157.0625 1371.1816 L 1188.4121 1371.1641 L 1392.9238 1374.1523 L 1737.2344 1367.0254 L 1773.6289 1365.1777 L 1773.6289 1357.7871 L 1810.0234 1356.0039 L 1839.8125 1352.9785 L 1869.6016 1348.7363 L 1869.6016 1355.0117 L 1895.3672 1349.8965 L 1946.9062 1332.3008 L 1998.4453 1306.7129 L 2011.1074 1297.0684 L 2023.7695 1286.2852 L 2023.7695 1285.5137 L 2023.7695 1283.3184 L 2023.7695 1280.0312 L 2023.7695 1276.1543 L 2023.7695 1270.9629 L 2023.7695 1268.4883 L 2023.7695 1264.9746 L 2023.7695 1263.7969 L 2011.1074 1251.9688 L 1998.4453 1243.2988 L 1946.9062 1216.834 L 1895.3672 1188.5547 L 1877.0645 1176.8223 L 1869.6016 1172.0371 L 1839.8125 1155.7285 L 1810.0234 1149.6973 z M 1839.8125 1176.5547 L 1853.873 1176.5684 L 1853.8711 1192.1523 L 1839.8125 1192.0117 L 1839.8125 1176.5547 z M 1855.3672 1176.6621 L 1858.3691 1176.8535 L 1866.3145 1181.1426 L 1882.4629 1191.0918 L 1869.6016 1191.9629 L 1855.3672 1192.1348 L 1855.3672 1176.6621 z M 1860.5527 1176.9922 L 1869.6016 1177.0312 L 1875.8281 1177.1914 L 1893.7285 1188.6602 L 1885.0039 1190.9199 L 1869.6016 1181.6074 L 1860.5527 1176.9922 z "
     style="fill:#ffffff" /><path
     style="fill:#002663;fill-opacity:1"
     d="m 714.20117,1378.3023 -221.23907,-199.7836 -442.24335,0.036 -9.699219,2.2949 -9.697265,8.291 -7.091797,12.3496 v 23.6094 l 7.091797,11.2598 9.697265,7.5605 430.074219,95.1348 121.55273,23.3672 z"
     id="path28" /><g
     id="g5"
     transform="matrix(2.3045186,0,0,2.3045186,-5422.2341,264.81999)"><g
       id="g3"
       style="fill:#ffb608;fill-opacity:1"><path
         class="cls-1"
         d="m 3035.32,425.53 h 14.42 l -13.42,29.43 h -14.42 z"
         id="path20-3"
         style="fill:#ffb608;fill-opacity:1" /><path
         class="cls-1"
         d="m 3076.34,442.02 6.29,12.93 h -16.3 l -3.8,-12.15 h -0.1 l -5.52,12.13 h -14.44 l 13.42,-29.43 h 22.32 c 8.34,0 12.21,2 9.25,9.52 -2.18,5.6 -6.25,6.61 -11.13,7 v 0.08 m -11.85,-3.59 h 3 a 5.27,5.27 0 0 0 5,-3.16 c 1,-2.11 -0.45,-2.76 -2.65,-2.76 h -2.62 z"
         id="path21-6"
         style="fill:#ffb608;fill-opacity:1" /><path
         class="cls-1"
         d="m 3000.65,425.67 h 21.71 l -2.8,29.28 h -16.18 l 0.89,-4.17 h -8.83 l -3.09,4.17 h -16.29 z m -0.65,18.46 h 5.85 l 2.33,-11 h -0.13 z"
         id="path26-1"
         style="fill:#ffb608;fill-opacity:1" /></g><g
       id="g4"><path
         class="cls-1"
         d="m 2822.55,424.61 h 39.69 l -3.34,7.23 h -12.69 l -10.7,23.11 h -15.31 l 10.69,-23.11 H 2819 Z"
         id="path22-0"
         style="fill:#002663" /><path
         class="cls-1"
         d="M 2861.66,424.62 H 2877 l -10.72,23.11 h 14.21 l -3.35,7.22 h -29.53 z"
         id="path23-6"
         style="fill:#002663" /><path
         class="cls-1"
         d="m 2899.44,424.71 h 22.36 l -2.85,30.24 h -16.7 l 0.91,-4.35 h -9.09 l -3.18,4.35 h -16.79 z m -0.64,19 h 6 l 2.36,-11.3 h -0.12 z"
         id="path24-2"
         style="fill:#002663" /><path
         class="cls-1"
         d="m 2953.46,433.56 a 2.57,2.57 0 0 0 0,-2.18 c -0.32,-0.54 -1,-0.86 -2.22,-0.86 -2.41,0 -3.65,0.75 -4.41,2.5 -2.41,5.43 23.6,-0.78 18.17,11.7 -3.11,7.1 -10.19,10.7 -25.31,10.69 -8.24,0 -20.05,-1.3 -16.46,-9.45 h 16.46 a 2.25,2.25 0 0 0 -0.16,2.13 c 0.33,0.54 1.12,0.82 2.38,0.82 2.55,0 4.19,-1.2 4.65,-2.24 2.24,-5.12 -22.48,-0.87 -17.33,-12.61 2.94,-6.68 9.51,-9.94 23.87,-9.94 12.1,0 19.47,1.63 16,9.45 z"
         id="path25-6"
         style="fill:#002663" /><path
         class="cls-1"
         d="m 2791.45,420 h 24.85 l -3.47,34.87 h -18.54 l 1.07,-4.94 h -10.12 l -3.58,5 H 2763 Z m -0.88,22 h 6.71 l 2.72,-13 h -0.13 z"
         id="path27-8"
         style="fill:#002663" /></g></g><g
     id="g2"
     transform="translate(2167.5969)"><rect
       style="fill:none;stroke:#080000;stroke-width:1.5006;stroke-linecap:square;stroke-dasharray:none;stroke-opacity:1"
       id="rect5"
       width="31.14547"
       height="60.682007"
       x="-471.69577"
       y="1230.355"
       rx="6.1963267"
       ry="6.1963267" /><rect
       style="fill:none;stroke:#080000;stroke-width:1.5006;stroke-linecap:square;stroke-dasharray:none;stroke-opacity:1"
       id="rect5-6"
       width="31.14547"
       height="60.682007"
       x="-653.52979"
       y="1168.0239"
       rx="6.1963267"
       ry="6.1963267" /><rect
       style="fill:none;stroke:#080000;stroke-width:1.5006;stroke-linecap:square;stroke-dasharray:none;stroke-opacity:1"
       id="rect6"
       width="31.14547"
       height="60.682007"
       x="-754.02045"
       y="1230.1989"
       rx="6.1963267"
       ry="6.1963267" /><rect
       style="fill:none;stroke:#080000;stroke-width:1.5006;stroke-linecap:square;stroke-dasharray:none;stroke-opacity:1"
       id="rect7"
       width="31.14547"
       height="60.682007"
       x="-1115.2826"
       y="1230.355"
       rx="6.1963267"
       ry="6.1963267" /><rect
       style="fill:none;stroke:#080000;stroke-width:1.5006;stroke-linecap:square;stroke-dasharray:none;stroke-opacity:1"
       id="rect8"
       width="31.14547"
       height="60.682007"
       x="-1419.6461"
       y="1230.355"
       rx="6.1963267"
       ry="6.1963267" /><rect
       style="fill:url(#linearGradient327);fill-opacity:1;stroke:#080000;stroke-width:1.5006;stroke-linecap:square;stroke-dasharray:none;stroke-opacity:1"
       id="rect326"
       width="7.1368136"
       height="9.5134115"
       x="-466.24509"
       y="1255.1008"
       rx="3.5684068"
       ry="3.5684068" /><rect
       style="fill:url(#linearGradient344);fill-opacity:1;stroke:#080000;stroke-width:1.5006;stroke-linecap:square;stroke-dasharray:none;stroke-opacity:1"
       id="rect344"
       width="7.1368136"
       height="9.5134115"
       x="-748.87152"
       y="1254.0227"
       rx="3.5684068"
       ry="3.5684068" /><rect
       style="fill:url(#linearGradient381);fill-opacity:1;stroke:#080000;stroke-width:1.5006;stroke-linecap:square;stroke-dasharray:none;stroke-opacity:1"
       id="rect380"
       width="7.1368136"
       height="9.5134115"
       x="-582.85028"
       y="1184.4208"
       rx="3.5684068"
       ry="3.5684068" /><rect
       style="fill:url(#linearGradient27);fill-opacity:1;stroke:#080000;stroke-width:1.5006;stroke-linecap:square;stroke-dasharray:none;stroke-opacity:1"
       id="rect27"
       width="7.1368136"
       height="9.5134115"
       x="-1108.8276"
       y="1255.8368"
       rx="3.5684068"
       ry="3.5684068" /><rect
       style="fill:none;stroke:#080000;stroke-width:1.5006;stroke-linecap:square;stroke-dasharray:none;stroke-opacity:1"
       id="rect43"
       width="31.14547"
       height="60.682007"
       x="-1846.3766"
       y="1230.355"
       rx="6.1963267"
       ry="6.1963267" /><rect
       style="fill:url(#linearGradient78);fill-opacity:1;stroke:#080000;stroke-width:1.5006;stroke-linecap:square;stroke-dasharray:none;stroke-opacity:1"
       id="rect77"
       width="7.1368136"
       height="9.5134115"
       x="-1840.7928"
       y="1255.8368"
       rx="3.5684068"
       ry="3.5684068" /><path
       style="fill:none;stroke:#000000;stroke-width:2.00976px;stroke-linecap:butt;stroke-linejoin:miter;stroke-opacity:1"
       d="m -1824.8922,1254.9805 v 11.4546"
       id="path78" /><path
       style="fill:none;stroke:#000000;stroke-width:2.00976px;stroke-linecap:butt;stroke-linejoin:miter;stroke-opacity:1"
       d="m -1398.9515,1254.9358 v 11.4546"
       id="path78-5" /><path
       style="fill:none;stroke:#000000;stroke-width:2.00976px;stroke-linecap:butt;stroke-linejoin:miter;stroke-opacity:1"
       d="m -1094.8581,1254.9085 v 11.4546"
       id="path78-56" /><path
       style="fill:none;stroke:#000000;stroke-width:2.00976px;stroke-linecap:butt;stroke-linejoin:miter;stroke-opacity:1"
       d="m -733.3412,1253.7829 v 11.4546"
       id="path78-9" /><path
       style="fill:none;stroke:#000000;stroke-width:2.00976px;stroke-linecap:butt;stroke-linejoin:miter;stroke-opacity:1"
       d="m -449.9737,1255.0131 v 11.4546"
       id="path78-2" /><path
       id="path79"
       style="fill:none;stroke:#080000;stroke-width:1.91064;stroke-linecap:square"
       d="m -1552.173,1295.0061 h 53.3711 c 4.3486,0 7.8496,3.5366 7.8496,7.9296 v 48.7547 c 0,4.393 -3.501,7.9296 -7.8496,7.9296 h -53.3711 c -4.3486,0 -7.8495,-3.5366 -7.8495,-7.9296 v -48.7547 c 0,-4.393 3.5009,-7.9296 7.8495,-7.9296 z"
       sodipodi:nodetypes="sssssssss" /><rect
       style="fill:url(#linearGradient261);fill-opacity:1;stroke:#080000;stroke-width:1.5006;stroke-linecap:square;stroke-dasharray:none;stroke-opacity:1"
       id="rect261"
       width="7.1368136"
       height="9.5134115"
       x="-548.3006"
       y="1184.5087"
       rx="3.5684068"
       ry="3.5684068" /><rect
       style="fill:url(#linearGradient262);fill-opacity:1;stroke:#080000;stroke-width:1.5006;stroke-linecap:square;stroke-dasharray:none;stroke-opacity:1"
       id="rect262"
       width="7.1368136"
       height="9.5134115"
       x="-565.57544"
       y="1184.5087"
       rx="3.5684068"
       ry="3.5684068" /><rect
       style="fill:url(#linearGradient263);fill-opacity:1;stroke:#080000;stroke-width:1.5006;stroke-linecap:square;stroke-dasharray:none;stroke-opacity:1"
       id="rect263"
       width="7.1368136"
       height="9.5134115"
       x="-600.12512"
       y="1184.4208"
       rx="3.5684068"
       ry="3.5684068" /><rect
       style="fill:url(#linearGradient264);fill-opacity:1;stroke:#080000;stroke-width:1.5006;stroke-linecap:square;stroke-dasharray:none;stroke-opacity:1"
       id="rect264"
       width="7.1368136"
       height="9.5134115"
       x="-617.39996"
       y="1184.4208"
       rx="3.5684068"
       ry="3.5684068" /><rect
       style="fill:url(#linearGradient265);fill-opacity:1;stroke:#080000;stroke-width:1.5006;stroke-linecap:square;stroke-dasharray:none;stroke-opacity:1"
       id="rect265"
       width="7.1368136"
       height="9.5134115"
       x="-665.65094"
       y="1184.4208"
       rx="3.5684068"
       ry="3.5684068" /></g><g
     id="g410"
     transform="translate(2167.5969,-511.97058)"><rect
       style="fill:none;stroke:#080000;stroke-width:1.5006;stroke-linecap:square;stroke-dasharray:none;stroke-opacity:1"
       id="rect283"
       width="31.14547"
       height="60.682007"
       x="-471.69577"
       y="1230.355"
       rx="6.1963267"
       ry="6.1963267" /><rect
       style="fill:none;stroke:#080000;stroke-width:1.5006;stroke-linecap:square;stroke-dasharray:none;stroke-opacity:1"
       id="rect284"
       width="31.14547"
       height="60.682007"
       x="-653.52979"
       y="1168.0239"
       rx="6.1963267"
       ry="6.1963267" /><rect
       style="fill:none;stroke:#080000;stroke-width:1.5006;stroke-linecap:square;stroke-dasharray:none;stroke-opacity:1"
       id="rect285"
       width="31.14547"
       height="60.682007"
       x="-754.02045"
       y="1230.1989"
       rx="6.1963267"
       ry="6.1963267" /><rect
       style="fill:none;stroke:#080000;stroke-width:1.5006;stroke-linecap:square;stroke-dasharray:none;stroke-opacity:1"
       id="rect286"
       width="31.14547"
       height="60.682007"
       x="-1115.2826"
       y="1230.355"
       rx="6.1963267"
       ry="6.1963267" /><rect
       style="fill:none;stroke:#080000;stroke-width:1.5006;stroke-linecap:square;stroke-dasharray:none;stroke-opacity:1"
       id="rect287"
       width="31.14547"
       height="60.682007"
       x="-1419.6461"
       y="1230.355"
       rx="6.1963267"
       ry="6.1963267" /><rect
       style="fill:url(#linearGradient424);fill-opacity:1;stroke:#080000;stroke-width:1.5006;stroke-linecap:square;stroke-dasharray:none;stroke-opacity:1"
       id="rect302"
       width="7.1368136"
       height="9.5134115"
       x="-466.24509"
       y="1255.1008"
       rx="3.5684068"
       ry="3.5684068" /><rect
       style="fill:url(#linearGradient430);fill-opacity:1;stroke:#080000;stroke-width:1.5006;stroke-linecap:square;stroke-dasharray:none;stroke-opacity:1"
       id="rect308"
       width="7.1368136"
       height="9.5134115"
       x="-748.87152"
       y="1254.0227"
       rx="3.5684068"
       ry="3.5684068" /><rect
       style="fill:url(#linearGradient432);fill-opacity:1;stroke:#080000;stroke-width:1.5006;stroke-linecap:square;stroke-dasharray:none;stroke-opacity:1"
       id="rect310"
       width="7.1368136"
       height="9.5134115"
       x="-582.85028"
       y="1184.4208"
       rx="3.5684068"
       ry="3.5684068" /><rect
       style="fill:url(#linearGradient449);fill-opacity:1;stroke:#080000;stroke-width:1.5006;stroke-linecap:square;stroke-dasharray:none;stroke-opacity:1"
       id="rect342"
       width="7.1368136"
       height="9.5134115"
       x="-1108.8276"
       y="1255.8368"
       rx="3.5684068"
       ry="3.5684068" /><rect
       style="fill:none;stroke:#080000;stroke-width:1.5006;stroke-linecap:square;stroke-dasharray:none;stroke-opacity:1"
       id="rect358"
       width="31.14547"
       height="60.682007"
       x="-1846.3766"
       y="1230.355"
       rx="6.1963267"
       ry="6.1963267" /><rect
       style="fill:url(#linearGradient489);fill-opacity:1;stroke:#080000;stroke-width:1.5006;stroke-linecap:square;stroke-dasharray:none;stroke-opacity:1"
       id="rect385"
       width="7.1368136"
       height="9.5134115"
       x="-1840.7928"
       y="1255.8368"
       rx="3.5684068"
       ry="3.5684068" /><path
       style="fill:none;stroke:#000000;stroke-width:2.00976px;stroke-linecap:butt;stroke-linejoin:miter;stroke-opacity:1"
       d="m -1824.8922,1254.9805 v 11.4546"
       id="path385" /><path
       style="fill:none;stroke:#000000;stroke-width:2.00976px;stroke-linecap:butt;stroke-linejoin:miter;stroke-opacity:1"
       d="m -1398.9515,1254.9358 v 11.4546"
       id="path386" /><path
       style="fill:none;stroke:#000000;stroke-width:2.00976px;stroke-linecap:butt;stroke-linejoin:miter;stroke-opacity:1"
       d="m -1094.8581,1254.9085 v 11.4546"
       id="path387" /><path
       style="fill:none;stroke:#000000;stroke-width:2.00976px;stroke-linecap:butt;stroke-linejoin:miter;stroke-opacity:1"
       d="m -733.3412,1253.7829 v 11.4546"
       id="path388" /><path
       style="fill:none;stroke:#000000;stroke-width:2.00976px;stroke-linecap:butt;stroke-linejoin:miter;stroke-opacity:1"
       d="m -449.9737,1255.0131 v 11.4546"
       id="path389" /><path
       id="path390"
       style="fill:none;stroke:#080000;stroke-width:1.91064;stroke-linecap:square"
       d="m -1552.173,1295.0061 h 53.3711 c 4.3486,0 7.8496,3.5366 7.8496,7.9296 v 48.7547 c 0,4.393 -3.501,7.9296 -7.8496,7.9296 h -53.3711 c -4.3486,0 -7.8495,-3.5366 -7.8495,-7.9296 v -48.7547 c 0,-4.393 3.5009,-7.9296 7.8495,-7.9296 z"
       sodipodi:nodetypes="sssssssss" /><rect
       style="fill:url(#linearGradient499);fill-opacity:1;stroke:#080000;stroke-width:1.5006;stroke-linecap:square;stroke-dasharray:none;stroke-opacity:1"
       id="rect399"
       width="7.1368136"
       height="9.5134115"
       x="-548.3006"
       y="1184.5087"
       rx="3.5684068"
       ry="3.5684068" /><rect
       style="fill:url(#linearGradient500);fill-opacity:1;stroke:#080000;stroke-width:1.5006;stroke-linecap:square;stroke-dasharray:none;stroke-opacity:1"
       id="rect400"
       width="7.1368136"
       height="9.5134115"
       x="-565.57544"
       y="1184.5087"
       rx="3.5684068"
       ry="3.5684068" /><rect
       style="fill:url(#linearGradient501);fill-opacity:1;stroke:#080000;stroke-width:1.5006;stroke-linecap:square;stroke-dasharray:none;stroke-opacity:1"
       id="rect401"
       width="7.1368136"
       height="9.5134115"
       x="-600.12512"
       y="1184.4208"
       rx="3.5684068"
       ry="3.5684068" /><rect
       style="fill:url(#linearGradient502);fill-opacity:1;stroke:#080000;stroke-width:1.5006;stroke-linecap:square;stroke-dasharray:none;stroke-opacity:1"
       id="rect402"
       width="7.1368136"
       height="9.5134115"
       x="-617.39996"
       y="1184.4208"
       rx="3.5684068"
       ry="3.5684068" /><rect
       style="fill:url(#linearGradient503);fill-opacity:1;stroke:#080000;stroke-width:1.5006;stroke-linecap:square;stroke-dasharray:none;stroke-opacity:1"
       id="rect403"
       width="7.1368136"
       height="9.5134115"
       x="-665.65094"
       y="1184.4208"
       rx="3.5684068"
       ry="3.5684068" /></g><path
     id="rect3-4"
     style="fill:none;stroke:#080000;stroke-width:2.05666;stroke-linecap:square"
     d="m 1563.9952,1294.9869 h 61.8039 c 5.0358,0 9.09,3.5387 9.09,7.9343 v 48.7837 c 0,4.3957 -4.0542,7.9343 -9.09,7.9343 h -61.8039 c -5.0358,0 -9.0898,-3.5386 -9.0898,-7.9343 v -48.7837 c 0,-4.3956 4.054,-7.9343 9.0898,-7.9343 z"
     sodipodi:nodetypes="sssssssss" /><path
     id="path283"
     style="fill:none;stroke:#080000;stroke-width:2.05666;stroke-linecap:square"
     d="m 1563.9952,783.01626 h 61.8039 c 5.0358,0 9.09,3.5387 9.09,7.9343 v 48.7837 c 0,4.3957 -4.0542,7.9343 -9.09,7.9343 h -61.8039 c -5.0358,0 -9.0898,-3.5386 -9.0898,-7.9343 v -48.7837 c 0,-4.3956 4.054,-7.9343 9.0898,-7.9343 z"
     sodipodi:nodetypes="sssssssss" /></svg>
