<?xml version="1.0" encoding="UTF-8" standalone="no"?>
<svg
   width="2048"
   height="2048"
   viewBox="0 0 2048 2048"
   version="1.1"
   id="svg311"
   sodipodi:docname="Fuselage_norm.svg"
   inkscape:version="1.3.2 (091e20ef0f, 2023-11-25, custom)"
   xml:space="preserve"
   xmlns:inkscape="http://www.inkscape.org/namespaces/inkscape"
   xmlns:sodipodi="http://sodipodi.sourceforge.net/DTD/sodipodi-0.dtd"
   xmlns="http://www.w3.org/2000/svg"
   xmlns:svg="http://www.w3.org/2000/svg"><defs
     id="defs311"><style
       id="style1">.cls-2{fill:#0033a1;}</style></defs><sodipodi:namedview
     id="namedview311"
     pagecolor="#505050"
     bordercolor="#ffffff"
     borderopacity="1"
     inkscape:showpageshadow="0"
     inkscape:pageopacity="0"
     inkscape:pagecheckerboard="1"
     inkscape:deskcolor="#d1d1d1"
     showguides="true"
     inkscape:zoom="0.17054908"
     inkscape:cx="2832.0294"
     inkscape:cy="999.71225"
     inkscape:window-width="1366"
     inkscape:window-height="724"
     inkscape:window-x="-1"
     inkscape:window-y="-1"
     inkscape:window-maximized="1"
     inkscape:current-layer="svg311" /><desc
     id="desc1">Boeing_747_100.blend, (Blender 3.3.9)</desc><rect
     style="fill:#ffffff;stroke-width:10;stroke-linecap:square"
     id="rect1"
     width="2048"
     height="2048"
     x="0"
     y="0" /><path
     id="polygon1"
     d="m 1810.0234,637.69727 -72.789,0.01 -344.3106,5.80469 -204.5117,27.01562 -31.3496,1.95704 -442.86133,-5.54297 -121.55469,-0.10352 -121.55273,-0.38867 -420.375,0.10547 -9.699219,2.29492 -9.697265,8.29101 -7.091797,12.34961 v 1.23633 3.69141 2.5957 5.45117 4.07032 3.44922 2.30468 0.81055 l 7.091797,11.25977 9.697265,7.56054 9.699219,2.08985 420.375,93.04492 121.55273,23.36719 121.55469,15.88085 442.86133,-7.12109 31.3496,-0.0176 204.5117,2.98828 344.3106,-7.12695 36.3945,-1.84766 v -7.39062 l 36.3945,-1.7832 29.7891,-3.02539 29.7891,-4.24219 v 6.27539 l 25.7656,-5.11524 51.539,-17.5957 51.5391,-25.58789 12.6621,-9.64453 12.6621,-10.7832 v -0.77149 -2.19531 -3.28711 -3.87695 -5.19141 -2.47461 -3.51367 -1.17773 l -12.6621,-11.82813 -12.6621,-8.66992 -51.5391,-26.46485 -51.539,-28.27929 -18.3027,-11.73242 -7.4629,-4.78516 -29.7891,-16.30859 z m 29.7891,26.85742 14.0605,0.0137 v 15.58398 l -14.0586,-0.14062 z m 15.5547,0.10742 3.0019,0.19141 7.9454,4.28906 16.1484,9.94922 -12.8613,0.87109 -14.2344,0.17188 z m 5.1855,0.33008 9.0489,0.0391 6.2265,0.16016 17.9004,11.46875 -8.7246,2.25976 -15.4023,-9.3125 z"
     style="fill:#ffffff" /><path
     id="polygon122"
     d="m 1810.0234,1149.6973 -72.789,0.01 -344.3106,5.8047 -204.5117,27.0156 -31.3496,1.9571 -442.86133,-5.543 -121.55469,-0.1035 -121.55273,-0.3887 -420.375,0.1055 -9.699219,2.2949 -9.697265,8.291 v 2.4707 l -7.091797,11.1153 v 3.6914 l 7.091797,-7.4258 v 5.1953 l -7.091797,4.8262 v 5.4511 4.0704 3.4492 2.3047 l 7.091797,10.4511 v 1.6192 l 9.697265,7.5605 9.699219,2.0899 420.375,93.0449 121.55273,23.3672 121.55469,15.8808 442.86133,-7.1211 31.3496,-0.017 204.5117,2.9882 344.3106,-7.1269 36.3945,-1.8477 v -7.3906 l 36.3945,-1.7832 29.7891,-3.0254 29.7891,-4.2422 v 6.2754 l 25.7656,-5.1152 51.539,-17.5957 51.5391,-25.5879 12.6621,-9.6445 12.6621,-10.7832 v -0.7715 -2.1953 -3.2872 -3.8769 -5.1914 -2.4746 -3.5137 -1.1777 l -12.6621,-11.8281 -12.6621,-8.67 -51.5391,-26.4648 -51.539,-28.2793 -18.3027,-11.7324 -7.4629,-4.7852 -29.7891,-16.3086 z m 29.7891,26.8574 14.0605,0.014 v 15.5839 l -14.0586,-0.1406 z m 15.5547,0.1074 3.0019,0.1914 7.9454,4.2891 16.1484,9.9492 -12.8613,0.8711 -14.2344,0.1719 z m 5.1855,0.3301 9.0489,0.039 6.2265,0.1602 17.9004,11.4688 -8.7246,2.2597 -15.4023,-9.3125 z"
     style="fill:#ffffff" /><path
     class="cls-2"
     d="m 1487.2844,1323.0353 a 17.466081,17.466081 0 0 0 -6.179,-21.9294 c 2.7993,-2.8766 5.8307,-5.7274 9.0298,-8.4492 a 78.687664,78.687664 0 0 0 -10.5906,7.5463 17.466081,17.466081 0 0 0 -21.3231,26.8699 c -3.341,7.2366 -3.8699,13.0415 -0.9803,15.0022 3.1604,2.1026 10.023,-1.7156 14.1895,-7.9204 0,0 -6.3724,5.7404 -9.8682,4.4246 -2.1542,-0.8127 -2.1542,-4.115 -0.387,-8.8362 a 17.466081,17.466081 0 0 0 22.6002,-1.6512 l 0.6192,1.161 c 7.6107,-0.6192 30.327,-1.2255 30.327,-1.2255 -0.052,-1.0706 -15.0926,-0.039 -27.4375,-4.9921 z m -31.1913,-7.3657 a 15.376343,15.376343 0 0 1 21.7358,-13.9832 83.744314,83.744314 0 0 0 -18.5883,23.3096 15.298946,15.298946 0 0 1 -3.1475,-9.3264 z m 15.3634,15.3634 a 15.298946,15.298946 0 0 1 -9.507,-3.2894 c 3.0443,-6.8626 9.2361,-16.0729 17.6854,-25.0768 a 15.363444,15.363444 0 0 1 5.7145,19.5429 28.069567,28.069567 0 0 1 -7.3012,-4.76 l 4.631,8.6944 a 15.311845,15.311845 0 0 1 -11.2227,4.8889 z"
     id="path1"
     style="fill:#ffffff;stroke:none;stroke-width:1.28996" /><polygon
     class="cls-2"
     points="105.72,19.91 98.04,19.91 100.07,17.21 107.76,17.21 109.96,14.28 102.28,14.28 104.17,11.77 111.86,11.77 114.07,8.84 98.73,8.84 88.18,22.84 103.52,22.84 "
     id="polygon1-3"
     style="fill:#ffffff;stroke:none"
     transform="matrix(1.2899617,0,0,1.2899617,1452.4554,1291.8698)" /><polygon
     class="cls-2"
     points="107.86,22.84 115.52,22.84 126.06,8.84 118.41,8.84 "
     id="polygon2-6"
     style="fill:#ffffff;stroke:none"
     transform="matrix(1.2899617,0,0,1.2899617,1452.4554,1291.8698)" /><polygon
     class="cls-2"
     points="138.56,15.94 136.92,8.84 130.94,8.84 120.39,22.84 125.45,22.84 130.75,15.81 132.38,22.84 138.42,22.84 148.97,8.84 143.91,8.84 "
     id="polygon3-7"
     style="fill:#ffffff;stroke:none"
     transform="matrix(1.2899617,0,0,1.2899617,1452.4554,1291.8698)" /><path
     class="cls-2"
     d="m 1670.3686,1303.2731 h -15.8665 a 8.2944537,8.2944537 0 0 0 -6.6433,3.3152 l -8.1913,10.8743 a 2.3864291,2.3864291 0 0 0 -0.4901,1.4577 2.425128,2.425128 0 0 0 2.4122,2.4251 h 15.8665 a 8.3073533,8.3073533 0 0 0 6.6562,-3.3152 l 1.9737,-2.5799 h 2.2961 l 2.8637,-3.8699 h -12.1514 l -3.8699,5.0954 a 2.154236,2.154236 0 0 1 -1.7286,0.8642 h -2.7992 a 0.63208123,0.63208123 0 0 1 -0.6321,-0.632 0.59338238,0.59338238 0 0 1 0.129,-0.3741 l 6.4498,-8.6428 a 2.1413364,2.1413364 0 0 1 1.7286,-0.8643 h 2.7992 a 0.63208123,0.63208123 0 0 1 0.6321,0.6321 0.65788047,0.65788047 0 0 1 -0.129,0.3741 l -1.0578,1.4061 h 9.8553 l 1.7415,-2.322 a 2.4122284,2.4122284 0 0 0 -1.935,-3.8698 z"
     id="path3"
     style="fill:#ffffff;stroke:none;stroke-width:1.28996" /><path
     class="cls-2"
     d="m 1571.7124,1305.6982 a 2.4122284,2.4122284 0 0 0 -2.4123,-2.4122 h -15.8665 a 8.3073533,8.3073533 0 0 0 -6.6562,3.3152 l -8.1913,10.8743 a 2.425128,2.425128 0 0 0 1.935,3.8699 h 15.8665 a 8.3073533,8.3073533 0 0 0 6.6562,-3.3152 l 8.1913,-10.8744 a 2.3993288,2.3993288 0 0 0 0.4773,-1.4576 z m -11.0292,2.3606 -6.4498,8.6299 a 2.1413364,2.1413364 0 0 1 -1.7286,0.8642 h -2.8508 a 0.63208123,0.63208123 0 0 1 -0.5031,-1.0061 l 6.4498,-8.6428 a 2.1800353,2.1800353 0 0 1 1.7286,-0.8643 h 2.7992 a 0.63208123,0.63208123 0 0 1 0.6321,0.6321 0.65788047,0.65788047 0 0 1 -0.129,0.3741 z"
     id="path4"
     style="fill:#ffffff;stroke:none;stroke-width:1.28996" /><path
     class="cls-2"
     d="m 1534.3938,1312.7414 a 8.2944537,8.2944537 0 0 0 4.7986,-3.1088 l 1.8834,-2.4897 a 2.4122284,2.4122284 0 0 0 -1.935,-3.8698 h -20.0202 l -13.6091,18.0594 h 20.7168 a 8.3073533,8.3073533 0 0 0 6.6562,-3.3152 l 1.9221,-2.5799 a 1.8962437,1.8962437 0 0 0 0.3869,-1.161 1.9478422,1.9478422 0 0 0 -0.7868,-1.5608 z m -9.1588,2.3477 -1.2254,1.6254 a 2.154236,2.154236 0 0 1 -1.7286,0.8642 h -4.0376 l 2.58,-3.4829 h 3.8699 a 0.63208123,0.63208123 0 0 1 0.632,0.6321 0.606282,0.606282 0 0 1 -0.129,0.3741 z m 5.2889,-7.0174 -1.0449,1.3803 a 2.1671357,2.1671357 0 0 1 -1.7285,0.8514 h -4.0376 l 2.438,-3.2379 h 3.8699 a 0.63208123,0.63208123 0 0 1 0.6321,0.6321 0.65788047,0.65788047 0 0 1 -0.129,0.3741 z"
     id="path5"
     style="fill:#ffffff;stroke:none;stroke-width:1.28996" /><path
     id="rect3"
     style="fill:none;stroke:#080000;stroke-width:2.05666;stroke-linecap:square"
     d="m 1563.9952,1294.9869 h 61.8039 c 5.0358,0 9.09,3.5387 9.09,7.9343 v 48.7837 c 0,4.3957 -4.0542,7.9343 -9.09,7.9343 h -61.8039 c -5.0358,0 -9.0898,-3.5386 -9.0898,-7.9343 v -48.7837 c 0,-4.3956 4.054,-7.9343 9.0898,-7.9343 z"
     sodipodi:nodetypes="sssssssss" /><rect
     style="fill:none;stroke:#080000;stroke-width:1.5006;stroke-linecap:square;stroke-dasharray:none;stroke-opacity:1"
     id="rect5"
     width="31.14547"
     height="60.682007"
     x="1695.9011"
     y="1230.355"
     rx="6.1963267"
     ry="6.1963267" /><rect
     style="fill:none;stroke:#080000;stroke-width:1.5006;stroke-linecap:square;stroke-dasharray:none;stroke-opacity:1"
     id="rect5-6"
     width="31.14547"
     height="60.682007"
     x="1514.0671"
     y="1168.0239"
     rx="6.1963267"
     ry="6.1963267" /><rect
     style="fill:none;stroke:#080000;stroke-width:1.5006;stroke-linecap:square;stroke-dasharray:none;stroke-opacity:1"
     id="rect6"
     width="31.14547"
     height="60.682007"
     x="1413.5764"
     y="1230.1989"
     rx="6.1963267"
     ry="6.1963267" /><rect
     style="fill:none;stroke:#080000;stroke-width:1.5006;stroke-linecap:square;stroke-dasharray:none;stroke-opacity:1"
     id="rect7"
     width="31.14547"
     height="60.682007"
     x="1052.3143"
     y="1230.355"
     rx="6.1963267"
     ry="6.1963267" /><rect
     style="fill:none;stroke:#080000;stroke-width:1.5006;stroke-linecap:square;stroke-dasharray:none;stroke-opacity:1"
     id="rect8"
     width="31.14547"
     height="60.682007"
     x="747.95081"
     y="1230.355"
     rx="6.1963267"
     ry="6.1963267" /><rect
     style="fill:none;fill-opacity:1;stroke:#080000;stroke-width:1.5006;stroke-linecap:square;stroke-dasharray:none;stroke-opacity:1"
     id="rect326"
     width="7.1368136"
     height="9.5134115"
     x="1701.3518"
     y="1255.1008"
     rx="3.5684068"
     ry="3.5684068" /><rect
     style="fill:none;fill-opacity:1;stroke:#080000;stroke-width:1.5006;stroke-linecap:square;stroke-dasharray:none;stroke-opacity:1"
     id="rect344"
     width="7.1368136"
     height="9.5134115"
     x="1418.7253"
     y="1254.0227"
     rx="3.5684068"
     ry="3.5684068" /><rect
     style="fill:none;fill-opacity:1;stroke:#080000;stroke-width:1.5006;stroke-linecap:square;stroke-dasharray:none;stroke-opacity:1"
     id="rect380"
     width="7.1368136"
     height="9.5134115"
     x="1584.7466"
     y="1184.4208"
     rx="3.5684068"
     ry="3.5684068" /><rect
     style="fill:none;fill-opacity:1;stroke:#080000;stroke-width:1.5006;stroke-linecap:square;stroke-dasharray:none;stroke-opacity:1"
     id="rect27"
     width="7.1368136"
     height="9.5134115"
     x="1058.7693"
     y="1255.8368"
     rx="3.5684068"
     ry="3.5684068" /><rect
     style="fill:none;stroke:#080000;stroke-width:1.5006;stroke-linecap:square;stroke-dasharray:none;stroke-opacity:1"
     id="rect43"
     width="31.14547"
     height="60.682007"
     x="321.22031"
     y="1230.355"
     rx="6.1963267"
     ry="6.1963267" /><rect
     style="fill:none;fill-opacity:1;stroke:#080000;stroke-width:1.5006;stroke-linecap:square;stroke-dasharray:none;stroke-opacity:1"
     id="rect77"
     width="7.1368136"
     height="9.5134115"
     x="326.80405"
     y="1255.8368"
     rx="3.5684068"
     ry="3.5684068" /><path
     style="fill:none;stroke:#000000;stroke-width:2.00976px;stroke-linecap:butt;stroke-linejoin:miter;stroke-opacity:1"
     d="m 342.7047,1254.9805 v 11.4546"
     id="path78" /><path
     style="fill:none;stroke:#000000;stroke-width:2.00976px;stroke-linecap:butt;stroke-linejoin:miter;stroke-opacity:1"
     d="m 768.6454,1254.9358 v 11.4546"
     id="path78-5" /><path
     style="fill:none;stroke:#000000;stroke-width:2.00976px;stroke-linecap:butt;stroke-linejoin:miter;stroke-opacity:1"
     d="m 1072.7388,1254.9085 v 11.4546"
     id="path78-56" /><path
     style="fill:none;stroke:#000000;stroke-width:2.00976px;stroke-linecap:butt;stroke-linejoin:miter;stroke-opacity:1"
     d="m 1434.2557,1253.7829 v 11.4546"
     id="path78-9" /><path
     style="fill:none;stroke:#000000;stroke-width:2.00976px;stroke-linecap:butt;stroke-linejoin:miter;stroke-opacity:1"
     d="m 1717.6232,1255.0131 v 11.4546"
     id="path78-2" /><path
     id="path79"
     style="fill:none;stroke:#080000;stroke-width:1.91064;stroke-linecap:square"
     d="m 615.4239,1295.0061 h 53.3711 c 4.3486,0 7.8496,3.5366 7.8496,7.9296 v 48.7547 c 0,4.393 -3.501,7.9296 -7.8496,7.9296 h -53.3711 c -4.3486,0 -7.8495,-3.5366 -7.8495,-7.9296 v -48.7547 c 0,-4.393 3.5009,-7.9296 7.8495,-7.9296 z"
     sodipodi:nodetypes="sssssssss" /><rect
     style="fill:none;fill-opacity:1;stroke:#080000;stroke-width:1.5006;stroke-linecap:square;stroke-dasharray:none;stroke-opacity:1"
     id="rect261"
     width="7.1368136"
     height="9.5134115"
     x="1619.2963"
     y="1184.5087"
     rx="3.5684068"
     ry="3.5684068" /><rect
     style="fill:none;fill-opacity:1;stroke:#080000;stroke-width:1.5006;stroke-linecap:square;stroke-dasharray:none;stroke-opacity:1"
     id="rect262"
     width="7.1368136"
     height="9.5134115"
     x="1602.0215"
     y="1184.5087"
     rx="3.5684068"
     ry="3.5684068" /><rect
     style="fill:none;fill-opacity:1;stroke:#080000;stroke-width:1.5006;stroke-linecap:square;stroke-dasharray:none;stroke-opacity:1"
     id="rect263"
     width="7.1368136"
     height="9.5134115"
     x="1567.4718"
     y="1184.4208"
     rx="3.5684068"
     ry="3.5684068" /><rect
     style="fill:none;fill-opacity:1;stroke:#080000;stroke-width:1.5006;stroke-linecap:square;stroke-dasharray:none;stroke-opacity:1"
     id="rect264"
     width="7.1368136"
     height="9.5134115"
     x="1550.1969"
     y="1184.4208"
     rx="3.5684068"
     ry="3.5684068" /><rect
     style="fill:none;fill-opacity:1;stroke:#080000;stroke-width:1.5006;stroke-linecap:square;stroke-dasharray:none;stroke-opacity:1"
     id="rect265"
     width="7.1368136"
     height="9.5134115"
     x="1501.9459"
     y="1184.4208"
     rx="3.5684068"
     ry="3.5684068" /><path
     class="cls-2"
     d="m 1639.422,811.06469 a 17.466081,17.466081 0 0 1 6.179,-21.92934 c -2.7993,-2.87662 -5.8307,-5.72743 -9.0298,-8.44925 a 78.687664,78.687664 0 0 1 10.5906,7.54627 17.466081,17.466081 0 0 1 21.3231,26.8699 c 3.341,7.23669 3.8699,13.04152 0.9803,15.00226 -3.1604,2.10264 -10.023,-1.71565 -14.1895,-7.92037 0,0 6.3724,5.74033 9.8682,4.42457 2.1542,-0.81267 2.1542,-4.11497 0.387,-8.83623 a 17.466081,17.466081 0 0 1 -22.6002,-1.65116 l -0.6192,1.16097 c -7.6107,-0.61918 -30.327,-1.22546 -30.327,-1.22546 0.052,-1.07067 15.0926,-0.0387 27.4375,-4.99216 z m 31.1913,-7.36568 a 15.376343,15.376343 0 0 0 -21.7358,-13.98318 83.744314,83.744314 0 0 1 18.5883,23.30961 15.298946,15.298946 0 0 0 3.1475,-9.32643 z m -15.3634,15.36345 a 15.298946,15.298946 0 0 0 9.507,-3.28941 c -3.0443,-6.86259 -9.2361,-16.07292 -17.6854,-25.07685 a 15.363444,15.363444 0 0 0 -5.7145,19.54292 28.069567,28.069567 0 0 0 7.3012,-4.75996 l -4.631,8.69434 a 15.311845,15.311845 0 0 0 11.2227,4.88896 z"
     id="path276"
     style="fill:#ffffff;stroke:none;stroke-width:1.28996" /><polygon
     class="cls-2"
     points="107.76,17.21 109.96,14.28 102.28,14.28 104.17,11.77 111.86,11.77 114.07,8.84 98.73,8.84 88.18,22.84 103.52,22.84 105.72,19.91 98.04,19.91 100.07,17.21 "
     id="polygon276"
     style="fill:#ffffff;stroke:none"
     transform="matrix(-1.2899617,0,0,1.2899617,1674.251,779.89922)" /><polygon
     class="cls-2"
     points="118.41,8.84 107.86,22.84 115.52,22.84 126.06,8.84 "
     id="polygon277"
     style="fill:#ffffff;stroke:none"
     transform="matrix(-1.2899617,0,0,1.2899617,1674.251,779.89922)" /><polygon
     class="cls-2"
     points="120.39,22.84 125.45,22.84 130.75,15.81 132.38,22.84 138.42,22.84 148.97,8.84 143.91,8.84 138.56,15.94 136.92,8.84 130.94,8.84 "
     id="polygon278"
     style="fill:#ffffff;stroke:none"
     transform="matrix(-1.2899617,0,0,1.2899617,1674.251,779.89922)" /><path
     class="cls-2"
     d="m 1456.3378,791.30248 h 15.8665 a 8.2944537,8.2944537 0 0 1 6.6433,3.3152 l 8.1913,10.87438 a 2.3864291,2.3864291 0 0 1 0.4901,1.45766 2.425128,2.425128 0 0 1 -2.4122,2.42512 h -15.8665 a 8.3073533,8.3073533 0 0 1 -6.6562,-3.3152 l -1.9737,-2.57992 h -2.2961 l -2.8637,-3.86989 h 12.1514 l 3.8699,5.09535 a 2.154236,2.154236 0 0 0 1.7286,0.86428 h 2.7992 a 0.63208123,0.63208123 0 0 0 0.6321,-0.63208 0.59338238,0.59338238 0 0 0 -0.129,-0.37409 l -6.4498,-8.64275 a 2.1413364,2.1413364 0 0 0 -1.7286,-0.86427 h -2.7992 a 0.63208123,0.63208123 0 0 0 -0.6321,0.63208 0.65788047,0.65788047 0 0 0 0.129,0.37409 l 1.0578,1.40606 h -9.8553 l -1.7415,-2.32193 a 2.4122284,2.4122284 0 0 1 1.935,-3.86989 z"
     id="path278"
     style="fill:#ffffff;stroke:none;stroke-width:1.28996" /><path
     class="cls-2"
     d="m 1554.994,793.72761 a 2.4122284,2.4122284 0 0 1 2.4123,-2.41223 h 15.8665 a 8.3073533,8.3073533 0 0 1 6.6562,3.3152 l 8.1913,10.87438 a 2.425128,2.425128 0 0 1 -1.935,3.86988 h -15.8665 a 8.3073533,8.3073533 0 0 1 -6.6562,-3.3152 l -8.1913,-10.87437 a 2.3993288,2.3993288 0 0 1 -0.4773,-1.45766 z m 11.0292,2.36063 6.4498,8.62984 a 2.1413364,2.1413364 0 0 0 1.7286,0.86428 h 2.8508 a 0.63208123,0.63208123 0 0 0 0.5031,-1.00617 l -6.4498,-8.64275 a 2.1800353,2.1800353 0 0 0 -1.7286,-0.86427 h -2.7992 a 0.63208123,0.63208123 0 0 0 -0.6321,0.63208 0.65788047,0.65788047 0 0 0 0.129,0.37409 z"
     id="path279"
     style="fill:#ffffff;stroke:none;stroke-width:1.28996" /><path
     class="cls-2"
     d="m 1592.3126,800.7708 a 8.2944537,8.2944537 0 0 1 -4.7986,-3.10881 l -1.8834,-2.48962 a 2.4122284,2.4122284 0 0 1 1.935,-3.86989 h 20.0202 l 13.6091,18.05947 h -20.7168 a 8.3073533,8.3073533 0 0 1 -6.6562,-3.31521 l -1.9221,-2.57992 a 1.8962437,1.8962437 0 0 1 -0.3869,-1.16097 1.9478422,1.9478422 0 0 1 0.7868,-1.56085 z m 9.1588,2.34773 1.2254,1.62535 a 2.154236,2.154236 0 0 0 1.7286,0.86428 h 4.0376 l -2.58,-3.4829 h -3.8699 a 0.63208123,0.63208123 0 0 0 -0.632,0.63208 0.606282,0.606282 0 0 0 0.129,0.37409 z m -5.2889,-7.01739 1.0449,1.38026 a 2.1671357,2.1671357 0 0 0 1.7285,0.85137 h 4.0376 l -2.438,-3.2378 h -3.8699 a 0.63208123,0.63208123 0 0 0 -0.6321,0.63208 0.65788047,0.65788047 0 0 0 0.129,0.37409 z"
     id="path280"
     style="fill:#ffffff;stroke:none;stroke-width:1.28996" /><path
     id="path283"
     style="fill:none;stroke:#080000;stroke-width:2.05666;stroke-linecap:square"
     d="m 1563.9952,783.01632 h 61.8039 c 5.0358,0 9.09,3.5387 9.09,7.9343 v 48.7837 c 0,4.3957 -4.0542,7.9343 -9.09,7.9343 h -61.8039 c -5.0358,0 -9.0898,-3.5386 -9.0898,-7.9343 v -48.7837 c 0,-4.3956 4.054,-7.9343 9.0898,-7.9343 z"
     sodipodi:nodetypes="sssssssss" /><rect
     style="fill:none;stroke:#080000;stroke-width:1.5006;stroke-linecap:square;stroke-dasharray:none;stroke-opacity:1"
     id="rect283"
     width="31.14547"
     height="60.682007"
     x="1695.9011"
     y="718.3844"
     rx="6.1963267"
     ry="6.1963267" /><rect
     style="fill:none;stroke:#080000;stroke-width:1.5006;stroke-linecap:square;stroke-dasharray:none;stroke-opacity:1"
     id="rect284"
     width="31.14547"
     height="60.682007"
     x="1514.0671"
     y="656.05334"
     rx="6.1963267"
     ry="6.1963267" /><rect
     style="fill:none;stroke:#080000;stroke-width:1.5006;stroke-linecap:square;stroke-dasharray:none;stroke-opacity:1"
     id="rect285"
     width="31.14547"
     height="60.682007"
     x="1413.5764"
     y="718.22827"
     rx="6.1963267"
     ry="6.1963267" /><rect
     style="fill:none;stroke:#080000;stroke-width:1.5006;stroke-linecap:square;stroke-dasharray:none;stroke-opacity:1"
     id="rect286"
     width="31.14547"
     height="60.682007"
     x="1052.3143"
     y="718.3844"
     rx="6.1963267"
     ry="6.1963267" /><rect
     style="fill:none;stroke:#080000;stroke-width:1.5006;stroke-linecap:square;stroke-dasharray:none;stroke-opacity:1"
     id="rect287"
     width="31.14547"
     height="60.682007"
     x="747.95081"
     y="718.3844"
     rx="6.1963267"
     ry="6.1963267" /><rect
     style="fill:none;fill-opacity:1;stroke:#080000;stroke-width:1.5006;stroke-linecap:square;stroke-dasharray:none;stroke-opacity:1"
     id="rect302"
     width="7.1368136"
     height="9.5134115"
     x="1701.3518"
     y="743.13025"
     rx="3.5684068"
     ry="3.5684068" /><rect
     style="fill:none;fill-opacity:1;stroke:#080000;stroke-width:1.5006;stroke-linecap:square;stroke-dasharray:none;stroke-opacity:1"
     id="rect308"
     width="7.1368136"
     height="9.5134115"
     x="1418.7253"
     y="742.05212"
     rx="3.5684068"
     ry="3.5684068" /><rect
     style="fill:none;fill-opacity:1;stroke:#080000;stroke-width:1.5006;stroke-linecap:square;stroke-dasharray:none;stroke-opacity:1"
     id="rect310"
     width="7.1368136"
     height="9.5134115"
     x="1584.7466"
     y="672.4502"
     rx="3.5684068"
     ry="3.5684068" /><rect
     style="fill:none;fill-opacity:1;stroke:#080000;stroke-width:1.5006;stroke-linecap:square;stroke-dasharray:none;stroke-opacity:1"
     id="rect342"
     width="7.1368136"
     height="9.5134115"
     x="1058.7693"
     y="743.86621"
     rx="3.5684068"
     ry="3.5684068" /><rect
     style="fill:none;stroke:#080000;stroke-width:1.5006;stroke-linecap:square;stroke-dasharray:none;stroke-opacity:1"
     id="rect358"
     width="31.14547"
     height="60.682007"
     x="321.22031"
     y="718.3844"
     rx="6.1963267"
     ry="6.1963267" /><rect
     style="fill:none;fill-opacity:1;stroke:#080000;stroke-width:1.5006;stroke-linecap:square;stroke-dasharray:none;stroke-opacity:1"
     id="rect385"
     width="7.1368136"
     height="9.5134115"
     x="326.80405"
     y="743.86621"
     rx="3.5684068"
     ry="3.5684068" /><path
     style="fill:none;stroke:#000000;stroke-width:2.00976px;stroke-linecap:butt;stroke-linejoin:miter;stroke-opacity:1"
     d="m 342.7047,743.00992 v 11.4546"
     id="path385" /><path
     style="fill:none;stroke:#000000;stroke-width:2.00976px;stroke-linecap:butt;stroke-linejoin:miter;stroke-opacity:1"
     d="m 768.6454,742.96522 v 11.4546"
     id="path386" /><path
     style="fill:none;stroke:#000000;stroke-width:2.00976px;stroke-linecap:butt;stroke-linejoin:miter;stroke-opacity:1"
     d="m 1072.7388,742.93792 v 11.4546"
     id="path387" /><path
     style="fill:none;stroke:#000000;stroke-width:2.00976px;stroke-linecap:butt;stroke-linejoin:miter;stroke-opacity:1"
     d="m 1434.2557,741.81232 v 11.4546"
     id="path388" /><path
     style="fill:none;stroke:#000000;stroke-width:2.00976px;stroke-linecap:butt;stroke-linejoin:miter;stroke-opacity:1"
     d="m 1717.6232,743.04252 v 11.4546"
     id="path389" /><path
     id="path390"
     style="fill:none;stroke:#080000;stroke-width:1.91064;stroke-linecap:square"
     d="m 615.4239,783.03552 h 53.3711 c 4.3486,0 7.8496,3.5366 7.8496,7.9296 v 48.7547 c 0,4.393 -3.501,7.9296 -7.8496,7.9296 h -53.3711 c -4.3486,0 -7.8495,-3.5366 -7.8495,-7.9296 v -48.7547 c 0,-4.393 3.5009,-7.9296 7.8495,-7.9296 z"
     sodipodi:nodetypes="sssssssss" /><rect
     style="fill:none;fill-opacity:1;stroke:#080000;stroke-width:1.5006;stroke-linecap:square;stroke-dasharray:none;stroke-opacity:1"
     id="rect399"
     width="7.1368136"
     height="9.5134115"
     x="1619.2963"
     y="672.53809"
     rx="3.5684068"
     ry="3.5684068" /><rect
     style="fill:none;fill-opacity:1;stroke:#080000;stroke-width:1.5006;stroke-linecap:square;stroke-dasharray:none;stroke-opacity:1"
     id="rect400"
     width="7.1368136"
     height="9.5134115"
     x="1602.0215"
     y="672.53809"
     rx="3.5684068"
     ry="3.5684068" /><rect
     style="fill:none;fill-opacity:1;stroke:#080000;stroke-width:1.5006;stroke-linecap:square;stroke-dasharray:none;stroke-opacity:1"
     id="rect401"
     width="7.1368136"
     height="9.5134115"
     x="1567.4718"
     y="672.4502"
     rx="3.5684068"
     ry="3.5684068" /><rect
     style="fill:none;fill-opacity:1;stroke:#080000;stroke-width:1.5006;stroke-linecap:square;stroke-dasharray:none;stroke-opacity:1"
     id="rect402"
     width="7.1368136"
     height="9.5134115"
     x="1550.1969"
     y="672.4502"
     rx="3.5684068"
     ry="3.5684068" /><rect
     style="fill:none;fill-opacity:1;stroke:#080000;stroke-width:1.5006;stroke-linecap:square;stroke-dasharray:none;stroke-opacity:1"
     id="rect403"
     width="7.1368136"
     height="9.5134115"
     x="1501.9459"
     y="672.4502"
     rx="3.5684068"
     ry="3.5684068" /></svg>
