<?xml version="1.0" encoding="UTF-8" standalone="no"?>
<svg
   width="1024"
   height="1024"
   viewBox="0 0 1024 1024"
   version="1.1"
   id="svg40"
   sodipodi:docname="Vertical_stabilizer.svg"
   inkscape:version="1.3.2 (091e20ef0f, 2023-11-25, custom)"
   xml:space="preserve"
   xmlns:inkscape="http://www.inkscape.org/namespaces/inkscape"
   xmlns:sodipodi="http://sodipodi.sourceforge.net/DTD/sodipodi-0.dtd"
   xmlns:xlink="http://www.w3.org/1999/xlink"
   xmlns="http://www.w3.org/2000/svg"
   xmlns:svg="http://www.w3.org/2000/svg"><defs
     id="defs40" /><sodipodi:namedview
     id="namedview40"
     pagecolor="#505050"
     bordercolor="#ffffff"
     borderopacity="1"
     inkscape:showpageshadow="0"
     inkscape:pageopacity="0"
     inkscape:pagecheckerboard="1"
     inkscape:deskcolor="#d1d1d1"
     inkscape:zoom="0.48144531"
     inkscape:cx="753.97972"
     inkscape:cy="136.04868"
     inkscape:window-width="1366"
     inkscape:window-height="724"
     inkscape:window-x="-1"
     inkscape:window-y="-1"
     inkscape:window-maximized="1"
     inkscape:current-layer="svg40" /><desc
     id="desc1">Boeing_747SP.blend, (Blender 3.3.9)</desc><rect
     style="fill:#ffffff;fill-opacity:1;stroke-width:15;stroke-linecap:square"
     id="rect1"
     width="1024"
     height="1024"
     x="0"
     y="0"
     rx="2.3779886"
     ry="2.3779886" /><path
     id="polygon1"
     d="m 139.64648,505.07227 34.91016,90.39648 18.95117,-2.29687 42.71289,-5.17579 211.88086,354.02735 8.2168,15.04101 -43.29102,48.06255 69.41602,-0.2461 125.81445,-0.4454 251.62891,-0.8906 29.58594,-0.4179 -59.19532,-61.10356 -532.76953,-421.58008 -78.93164,-7.68359 z"
     style="fill:#ffffff;fill-opacity:1"
     sodipodi:nodetypes="ccccccccccccccc" /><path
     d="m 178.04688,36.59375 34.91015,90.39453 18.94922,-2.29687 42.71289,-5.17383 211.88281,354.02734 8.2168,15.04102 -43.00781,47.74609 -1.07422,0.004 -40.96875,0.14453 -40.96875,0.14648 13.16406,0.10938 13.16602,0.11133 56.71875,-0.20118 69.0957,-0.24609 125.8125,-0.44531 251.62891,-0.89063 29.58789,-0.41797 L 868.67773,473.54492 335.9082,51.964844 256.97656,44.279297 Z m 416.51757,436.95117 51.83203,62.09766 z"
     style="fill:#ffffff;fill-opacity:1"
     id="path1" /><path
     style="fill:#5fbcd3;stroke:none;stroke-width:1px;stroke-linecap:butt;stroke-linejoin:miter;stroke-opacity:1"
     d="m 178.04688,36.59375 157.86132,15.371094 532.76953,421.580076 59.19532,61.10165 -552.5918,2.03516 z"
     id="path2" /><path
     style="fill:#5fbcd3;stroke:none;stroke-width:1px;stroke-linecap:butt;stroke-linejoin:miter;stroke-opacity:1"
     d="m 139.64649,505.07227 157.86132,15.37109 532.76953,421.58008 59.19532,61.10166 -552.5918,2.0351 z"
     id="path3" /><g
     id="g3"
     transform="matrix(10.20976,0,0,10.20976,314.71066,186.72075)"><path
       fill="#ffffff"
       d="m 19.5737,9.7959 c 0,5.404 -4.383,9.785 -9.786,9.785 -5.406,0 -9.786,-4.381 -9.786,-9.785 0,-5.405 4.38,-9.786 9.786,-9.786 5.403,0 9.786,4.381 9.786,9.786"
       id="path4" /><path
       fill="#e1251b"
       d="m 13.9913,3.897 c 2.981,0.919 5.147,3.694 5.147,6.976 0,0.479 -0.046,0.947 -0.133,1.399 l -0.011,0.063 c -0.228,1.287 -0.75,2.474 -1.495,3.486 l -0.014,0.016 c 1.309,-1.665 2.089,-3.765 2.089,-6.045 C 19.5743,4.384 15.1903,0 9.7823,0 7.3193,0 5.0693,0.911 3.3473,2.412 l -0.021,0.02 c -1.356,1.243 -2.205,3.032 -2.205,5.015 0,0.823 0.146,1.611 0.412,2.341 l 0.014,0.033 c 0.68,1.494 2.184,2.53 3.932,2.53 2.385,0 4.32,-1.932 4.32,-4.317 L 9.7863,6.176 c 0,-0.855 0.477,-1.599 1.178,-1.979 l 0.007,-0.006 c 0.55,-0.302 1.18,-0.474 1.85,-0.474 0.407,0 0.798,0.062 1.166,0.18 z"
       id="path5" /><path
       fill="#002f87"
       d="m 2.29,16.0921 c 1.796,2.138 4.489,3.497 7.501,3.497 2.463,0 4.714,-0.909 6.435,-2.41 l 0.022,-0.02 c 1.356,-1.243 2.207,-3.031 2.207,-5.017 0,-0.821 -0.147,-1.611 -0.415,-2.339 l -0.013,-0.034 c -0.68,-1.493 -2.186,-2.531 -3.933,-2.531 -2.384,0 -4.318,1.935 -4.318,4.319 l 0.012,1.858 c 0,0.855 -0.476,1.597 -1.178,1.98 l -0.008,0.006 c -0.549,0.301 -1.179,0.475 -1.849,0.475 -0.407,0 -0.798,-0.064 -1.167,-0.182 L 5.583,15.6921 C 2.602,14.7751 0.436,11.9981 0.436,8.7191 L 0.334658,7.2551 C 0.257548,7.5833891 0.173509,7.8893892 0.117496,8.2855407 0.024136,8.8173822 0.019196,9.3046461 0,9.7991 c 0,1.572 0.371,3.058 1.03,4.375 l -0.081,0.06 1.241,1.919 z"
       id="path6"
       sodipodi:nodetypes="csccsccsccccscccccccccc" /></g><g
     id="g9"
     transform="matrix(10.20976,0,0,10.20976,282.66401,655.09963)"><path
       fill="#ffffff"
       d="m 19.5737,9.7959 c 0,5.404 -4.383,9.785 -9.786,9.785 -5.406,0 -9.786,-4.381 -9.786,-9.785 0,-5.405 4.38,-9.786 9.786,-9.786 5.403,0 9.786,4.381 9.786,9.786"
       id="path7" /><path
       fill="#e1251b"
       d="m 13.9913,3.897 c 2.981,0.919 5.147,3.694 5.147,6.976 0,0.479 -0.046,0.947 -0.133,1.399 l -0.011,0.063 c -0.228,1.287 -0.75,2.474 -1.495,3.486 l -0.014,0.016 c 1.309,-1.665 2.089,-3.765 2.089,-6.045 C 19.5743,4.384 15.1903,0 9.7823,0 7.3193,0 5.0693,0.911 3.3473,2.412 l -0.021,0.02 c -1.356,1.243 -2.205,3.032 -2.205,5.015 0,0.823 0.146,1.611 0.412,2.341 l 0.014,0.033 c 0.68,1.494 2.184,2.53 3.932,2.53 2.385,0 4.32,-1.932 4.32,-4.317 L 9.7863,6.176 c 0,-0.855 0.477,-1.599 1.178,-1.979 l 0.007,-0.006 c 0.55,-0.302 1.18,-0.474 1.85,-0.474 0.407,0 0.798,0.062 1.166,0.18 z"
       id="path8" /><path
       fill="#002f87"
       d="m 2.29,16.0921 c 1.796,2.138 4.489,3.497 7.501,3.497 2.463,0 4.714,-0.909 6.435,-2.41 l 0.022,-0.02 c 1.356,-1.243 2.207,-3.031 2.207,-5.017 0,-0.821 -0.147,-1.611 -0.415,-2.339 l -0.013,-0.034 c -0.68,-1.493 -2.186,-2.531 -3.933,-2.531 -2.384,0 -4.318,1.935 -4.318,4.319 l 0.012,1.858 c 0,0.855 -0.476,1.597 -1.178,1.98 l -0.008,0.006 c -0.549,0.301 -1.179,0.475 -1.849,0.475 -0.407,0 -0.798,-0.064 -1.167,-0.182 L 5.583,15.6921 C 2.602,14.7751 0.436,11.9981 0.436,8.7191 L 0.334658,7.2551 C 0.257548,7.5833891 0.173509,7.8893892 0.117496,8.2855407 0.024136,8.8173822 0.019196,9.3046461 0,9.7991 c 0,1.572 0.371,3.058 1.03,4.375 l -0.081,0.06 1.241,1.919 z"
       id="path9"
       sodipodi:nodetypes="csccsccsccccscccccccccc" /></g><g
     id="g1"
     transform="matrix(-0.83333333,0,0,0.83333333,274.61914,99.51758)"><path
       d="M -36,-24 H 36 V 24 H -36 Z"
       fill="#ffffff"
       id="path1-3" /><g
       transform="rotate(-56.309933)"
       id="g4"><g
         id="b2"><path
           id="b"
           d="M -6,-26 H 6 v 2 H -6 Z m 0,3 H 6 v 2 H -6 Z m 0,3 H 6 v 2 H -6 Z" /><use
           xlink:href="#b"
           y="44"
           id="use1" /></g><path
         stroke="#ffffff"
         d="M 0,17 V 27"
         id="path2-6" /><path
         fill="#cd2e3a"
         d="M 0,-12 A 12,12 0 0 1 0,12 Z"
         id="path3-7" /><path
         fill="#0047a0"
         d="M 0,-12 A 12,12 0 0 0 0,12 6,6 0 0 0 0,0 Z"
         id="path4-5" /><circle
         cy="-6"
         fill="#cd2e3a"
         r="6"
         id="circle4"
         cx="0" /></g><g
       transform="rotate(-123.69007)"
       id="g5"><use
         xlink:href="#b2"
         id="use4" /><path
         stroke="#ffffff"
         d="m 0,-23.5 v 3 M 0,17 v 3.5 m 0,3 v 3"
         id="path5-3" /></g></g><g
     id="g16"
     transform="matrix(0.83333333,0,0,0.83333333,236.2207,567.99609)"><path
       d="M -36,-24 H 36 V 24 H -36 Z"
       fill="#ffffff"
       id="path10" /><g
       transform="rotate(-56.309933)"
       id="g14"><g
         id="g11"><path
           id="path11"
           d="M -6,-26 H 6 v 2 H -6 Z m 0,3 H 6 v 2 H -6 Z m 0,3 H 6 v 2 H -6 Z" /><use
           xlink:href="#b"
           y="44"
           id="use11" /></g><path
         stroke="#ffffff"
         d="M 0,17 V 27"
         id="path12" /><path
         fill="#cd2e3a"
         d="M 0,-12 A 12,12 0 0 1 0,12 Z"
         id="path13" /><path
         fill="#0047a0"
         d="M 0,-12 A 12,12 0 0 0 0,12 6,6 0 0 0 0,0 Z"
         id="path14" /><circle
         cy="-6"
         fill="#cd2e3a"
         r="6"
         id="circle14"
         cx="0" /></g><g
       transform="rotate(-123.69007)"
       id="g15"><use
         xlink:href="#b2"
         id="use14" /><path
         stroke="#ffffff"
         d="m 0,-23.5 v 3 M 0,17 v 3.5 m 0,3 v 3"
         id="path15" /></g></g></svg>
