<?xml version="1.0" standalone="no"?>
<!DOCTYPE svg PUBLIC "-//W3C//DTD SVG 1.1//EN" 
  "http://www.w3.org/Graphics/SVG/1.1/DTD/svg11.dtd">
<svg width="2048" height="2048" viewBox="0 0 2048 2048"
     xmlns="http://www.w3.org/2000/svg" version="1.1">
<desc>Boeing_747_100.blend, (Blender 3.3.9)</desc>
<polygon stroke="black" stroke-width="1" fill="rgb(204, 204, 204)" fill-opacity="1" points="1189.127,947.089 560.912,146.756 702.987,160.590 1661.971,947.089 " />
<polygon stroke="black" stroke-width="1" fill="rgb(204, 204, 204)" fill-opacity="1" points="1660.553,1884.048 595.016,1040.889 626.187,1097.549 1585.171,1884.048 " />
<polygon stroke="black" stroke-width="1" fill="rgb(204, 204, 204)" fill-opacity="1" points="1112.448,1884.048 484.112,1083.716 413.074,1076.799 472.441,1175.993 896.202,1884.049 " />
<polygon stroke="black" stroke-width="1" fill="rgb(204, 204, 204)" fill-opacity="1" points="1296.572,1071.271 1293.314,1071.911 1041.686,1072.802 902.856,1073.294 902.064,1072.983 901.271,1072.671 " />
<polygon stroke="black" stroke-width="1" fill="rgb(204, 204, 204)" fill-opacity="1" points="513.955,88.558 560.912,146.756 489.874,139.839 418.837,132.922 356.094,73.187 " />
<polygon stroke="black" stroke-width="1" fill="rgb(204, 204, 204)" fill-opacity="1" points="1216.514,2008.871 1112.448,1884.048 896.202,1884.049 912.637,1914.130 964.886,2009.762 " />
<polygon stroke="black" stroke-width="1" fill="rgb(204, 204, 204)" fill-opacity="1" points="1778.946,2006.251 1660.553,1884.048 1585.171,1884.048 1719.771,2007.089 " />
<polygon stroke="black" stroke-width="1" fill="rgb(204, 204, 204)" fill-opacity="1" points="1293.314,1071.911 1189.127,947.089 1661.971,947.089 1796.571,1070.130 " />
<polygon stroke="black" stroke-width="1" fill="rgb(204, 204, 204)" fill-opacity="1" points="1719.771,2007.089 1585.171,1884.048 1112.448,1884.048 1216.514,2008.871 " />
<polygon stroke="black" stroke-width="1" fill="rgb(204, 204, 204)" fill-opacity="1" points="671.816,103.929 702.987,160.590 560.912,146.756 513.955,88.558 " />
<polygon stroke="black" stroke-width="1" fill="rgb(204, 204, 204)" fill-opacity="1" points="1855.746,1069.292 1796.571,1070.130 1293.314,1071.911 1296.572,1071.271 " />
<polygon stroke="black" stroke-width="1" fill="rgb(204, 204, 204)" fill-opacity="1" points="1585.171,1884.048 626.187,1097.549 484.112,1083.716 1112.448,1884.048 " />
<polygon stroke="black" stroke-width="1" fill="rgb(204, 204, 204)" fill-opacity="1" points="1796.571,1070.130 1855.746,1069.292 1296.572,1071.271 1293.314,1071.911 " />
<polygon stroke="black" stroke-width="1" fill="rgb(204, 204, 204)" fill-opacity="1" points="626.187,1097.549 595.016,1040.889 437.155,1025.517 484.112,1083.716 " />
<polygon stroke="black" stroke-width="1" fill="rgb(204, 204, 204)" fill-opacity="1" points="1796.571,1070.130 1661.971,947.089 1737.354,947.089 1855.746,1069.292 " />
<polygon stroke="black" stroke-width="1" fill="rgb(204, 204, 204)" fill-opacity="1" points="484.112,1083.716 437.155,1025.517 279.294,1010.146 342.037,1069.881 413.074,1076.799 " />
<polygon stroke="black" stroke-width="1" fill="rgb(204, 204, 204)" fill-opacity="1" points="1293.314,1071.911 1296.572,1071.271 901.271,1072.671 903.496,1073.292 1041.686,1072.802 " />
<polygon stroke="black" stroke-width="1" fill="rgb(204, 204, 204)" fill-opacity="1" points="1661.971,947.089 702.987,160.590 671.816,103.929 1737.354,947.089 " />
<polygon stroke="black" stroke-width="1" fill="rgb(204, 204, 204)" fill-opacity="1" points="387.014,1186.344 472.441,1175.993 413.074,1076.799 342.037,1069.881 " />
<polygon stroke="black" stroke-width="1" fill="rgb(204, 204, 204)" fill-opacity="1" points="349.115,1190.936 387.014,1186.344 342.037,1069.881 279.294,1010.146 " />
<polygon stroke="black" stroke-width="1" fill="rgb(204, 204, 204)" fill-opacity="1" points="964.886,2009.762 912.637,1914.130 826.056,2010.254 " />
<polygon stroke="black" stroke-width="1" fill="rgb(204, 204, 204)" fill-opacity="1" points="1041.686,1072.802 992.296,982.403 973.002,947.089 1189.127,947.089 1293.314,1071.911 " />
<polygon stroke="black" stroke-width="1" fill="rgb(204, 204, 204)" fill-opacity="1" points="973.002,947.089 549.125,238.840 489.874,139.839 560.912,146.756 1189.127,947.089 " />
<polygon stroke="black" stroke-width="1" fill="rgb(204, 204, 204)" fill-opacity="1" points="463.791,249.323 425.915,253.976 356.094,73.187 418.837,132.922 " />
<polygon stroke="black" stroke-width="1" fill="rgb(204, 204, 204)" fill-opacity="1" points="549.125,238.840 463.791,249.323 418.837,132.922 489.874,139.839 " />
<polygon stroke="black" stroke-width="1" fill="rgb(204, 204, 204)" fill-opacity="1" points="903.496,1073.292 992.296,982.403 1041.686,1072.802 " />
<polygon stroke="black" stroke-width="1" fill="rgb(204, 204, 204)" fill-opacity="1" points="901.271,1072.671 902.064,1072.983 819.335,1072.961 " />
<polygon stroke="black" stroke-width="1" fill="rgb(204, 204, 204)" fill-opacity="1" points="903.496,1073.292 901.271,1072.671 819.335,1072.961 763.727,1073.472 790.057,1073.693 " />
<polygon stroke="black" stroke-width="1" fill="rgb(204, 204, 204)" fill-opacity="1" points="463.814,249.384 425.915,253.976 463.803,249.354 " />
<polygon stroke="black" stroke-width="1" fill="rgb(204, 204, 204)" fill-opacity="1" points="549.241,239.034 463.814,249.384 463.803,249.354 549.183,238.937 " />
<polygon stroke="black" stroke-width="1" fill="rgb(204, 204, 204)" fill-opacity="1" points="973.002,947.089 549.241,239.034 549.183,238.937 973.002,947.089 " />
<polygon stroke="black" stroke-width="1" fill="rgb(204, 204, 204)" fill-opacity="1" points="989.437,977.171 973.002,947.089 973.002,947.089 990.866,979.787 " />
<polygon stroke="black" stroke-width="1" fill="rgb(204, 204, 204)" fill-opacity="1" points="902.856,1073.294 989.437,977.171 990.866,979.787 903.177,1073.293 " />
<polygon stroke="black" stroke-width="1" fill="rgb(204, 204, 204)" fill-opacity="1" points="763.727,1073.472 819.335,1072.961 737.398,1073.251 " />
<polygon stroke="black" stroke-width="1" fill="rgb(204, 204, 204)" fill-opacity="1" points="990.866,979.787 973.002,947.089 973.002,947.089 992.296,982.403 " />
<polygon stroke="black" stroke-width="1" fill="rgb(204, 204, 204)" fill-opacity="1" points="903.177,1073.293 990.866,979.787 992.296,982.403 903.496,1073.292 " />
<polygon stroke="black" stroke-width="1" fill="rgb(204, 204, 204)" fill-opacity="1" points="819.335,1072.961 902.064,1072.983 902.856,1073.294 790.057,1073.693 737.398,1073.251 " />
<polygon stroke="black" stroke-width="1" fill="rgb(204, 204, 204)" fill-opacity="1" points="973.002,947.089 549.183,238.937 549.125,238.840 973.002,947.089 " />
<polygon stroke="black" stroke-width="1" fill="rgb(204, 204, 204)" fill-opacity="1" points="463.803,249.354 425.915,253.976 463.791,249.323 " />
<polygon stroke="black" stroke-width="1" fill="rgb(204, 204, 204)" fill-opacity="1" points="549.183,238.937 463.803,249.354 463.791,249.323 549.125,238.840 " />

</svg>
