<?xml version="1.0" encoding="UTF-8" standalone="no"?>
<svg
   width="1024"
   height="1024"
   viewBox="0 0 1024 1024"
   version="1.1"
   id="svg40"
   sodipodi:docname="Vertical_stabilizer.svg"
   inkscape:version="1.3.2 (091e20ef0f, 2023-11-25, custom)"
   xmlns:inkscape="http://www.inkscape.org/namespaces/inkscape"
   xmlns:sodipodi="http://sodipodi.sourceforge.net/DTD/sodipodi-0.dtd"
   xmlns="http://www.w3.org/2000/svg"
   xmlns:svg="http://www.w3.org/2000/svg">
  <defs
     id="defs40" />
  <sodipodi:namedview
     id="namedview40"
     pagecolor="#505050"
     bordercolor="#ffffff"
     borderopacity="1"
     inkscape:showpageshadow="0"
     inkscape:pageopacity="0"
     inkscape:pagecheckerboard="1"
     inkscape:deskcolor="#d1d1d1"
     inkscape:zoom="0.17021662"
     inkscape:cx="1791.8344"
     inkscape:cy="543.42519"
     inkscape:window-width="1366"
     inkscape:window-height="724"
     inkscape:window-x="-1"
     inkscape:window-y="-1"
     inkscape:window-maximized="1"
     inkscape:current-layer="svg40" />
  <desc
     id="desc1">Boeing_747SP.blend, (Blender 3.3.9)</desc>
  <rect
     style="fill:#ffffff;fill-opacity:1;stroke-width:15;stroke-linecap:square"
     id="rect1"
     width="1024"
     height="1024"
     x="0"
     y="0"
     rx="2.3779886"
     ry="2.3779886" />
  <path
     id="polygon1"
     d="m 139.64648,505.07227 34.91016,90.39648 18.95117,-2.29687 42.71289,-5.17579 211.88086,354.02735 8.2168,15.04101 -43.29102,48.06255 69.41602,-0.2461 125.81445,-0.4454 251.62891,-0.8906 29.58594,-0.4179 -59.19532,-61.10356 -532.76953,-421.58008 -78.93164,-7.68359 z"
     style="fill:#ffffff;fill-opacity:1"
     sodipodi:nodetypes="ccccccccccccccc" />
  <path
     d="m 178.04688,36.59375 34.91015,90.39453 18.94922,-2.29687 42.71289,-5.17383 211.88281,354.02734 8.2168,15.04102 -43.00781,47.74609 -1.07422,0.004 -40.96875,0.14453 -40.96875,0.14648 13.16406,0.10938 13.16602,0.11133 56.71875,-0.20118 69.0957,-0.24609 125.8125,-0.44531 251.62891,-0.89063 29.58789,-0.41797 L 868.67773,473.54492 335.9082,51.964844 256.97656,44.279297 Z m 416.51757,436.95117 51.83203,62.09766 z"
     style="fill:#ffffff;fill-opacity:1"
     id="path1" />
  <path
     style="fill:#aa0000;stroke:none;stroke-width:1px;stroke-linecap:butt;stroke-linejoin:miter;stroke-opacity:1;fill-opacity:1"
     d="m 335.9082,51.964844 532.76953,421.580076 59.19532,61.10165 -552.5918,2.03516 299.76775,-84.0824 z"
     id="path2" />
  <path
     id="text1-3-3"
     style="font-size:17.8586px;line-height:0;font-family:'Open Sans';-inkscape-font-specification:'Open Sans';text-decoration-color:#000000;letter-spacing:0px;word-spacing:0px;fill:#000000;fill-opacity:1;stroke-width:0.251077;-inkscape-stroke:none;stop-color:#000000"
     d="m 505.21472,286.13365 7.51897,9.40269 -28.56346,0.124 c 0.55529,1.06993 1.89557,2.13758 4.01588,3.20071 2.12028,1.06312 4.42444,1.93374 6.91988,2.61848 2.49529,0.65574 5.28505,1.73193 8.36364,3.22563 3.07858,1.49371 6.01045,3.38058 8.80261,5.65805 2.79216,2.27744 5.02405,4.76099 6.68772,7.44912 l -19.64927,0.0853 c -0.75842,-1.12701 -1.53473,-2.19713 -2.32164,-3.20807 -0.81601,-1.03981 -2.07817,-2.32546 -3.79474,-3.85404 -1.71671,-1.55758 -3.63734,-2.98388 -5.75865,-4.27886 -2.15028,-1.29485 -4.52112,-2.734 -7.10741,-4.31679 -2.61525,-1.58264 -5.23143,-3.68369 -7.85121,-6.30968 -2.64876,-2.62588 -5.3736,-5.83444 -8.1723,-9.61895 z m -66.25049,0.2876 31.53903,15.77365 7.95565,10.18463 -21.51875,0.0934 4.50338,5.58906 -18.12543,0.0787 -4.50335,-5.58907 -5.91037,0.0257 -5.9913,-7.40835 5.95903,-0.0259 -15.03718,-18.63011 z m -28.08636,0.12192 7.51897,9.4027 -28.56349,0.12399 c 0.55532,1.06994 1.89557,2.13758 4.01588,3.20072 2.12031,1.06311 4.42933,1.93372 6.92477,2.61845 2.49529,0.65575 5.28019,1.73195 8.35877,3.22566 3.07856,1.49371 6.01532,3.38056 8.80748,5.65802 2.79216,2.27744 5.01919,4.76102 6.68283,7.44914 l -19.64924,0.0853 c -0.75842,-1.127 -1.52988,-2.19714 -2.31678,-3.20809 -0.81602,-1.03981 -2.08304,-2.32543 -3.79963,-3.85402 -1.71669,-1.55758 -3.63731,-2.98387 -5.75863,-4.27885 -2.1503,-1.29486 -4.51625,-2.73403 -7.10254,-4.31682 -2.61525,-1.58264 -5.23143,-3.68368 -7.85121,-6.30968 -2.64877,-2.62587 -5.37359,-5.83443 -8.17229,-9.61894 z m 32.95348,9.63795 7.25381,8.88289 10.52084,-0.0457 z"
     sodipodi:nodetypes="cccscssccccccccccccccccccccccccscssccccccccccccc" />
  <path
     style="fill:#aa0000;fill-opacity:1;stroke:none;stroke-width:1px;stroke-linecap:butt;stroke-linejoin:miter;stroke-opacity:1"
     d="m 297.50781,520.44527 532.76953,421.58008 59.19532,61.10165 -552.5918,2.0352 299.76775,-84.08244 z"
     id="path3" />
  <path
     id="path4"
     style="font-size:17.8586px;line-height:0;font-family:'Open Sans';-inkscape-font-specification:'Open Sans';text-decoration-color:#000000;letter-spacing:0px;word-spacing:0px;fill:#000000;fill-opacity:1;stroke-width:0.251077;-inkscape-stroke:none;stop-color:#000000"
     d="m 355.90637,764.42267 -7.51897,9.40269 28.56346,0.124 c -0.55529,1.06993 -1.89557,2.13758 -4.01588,3.20071 -2.12028,1.06312 -4.42444,1.93374 -6.91988,2.61848 -2.49529,0.65574 -5.28505,1.73193 -8.36364,3.22563 -3.07858,1.49371 -6.01045,3.38058 -8.80261,5.65805 -2.79216,2.27744 -5.02405,4.76099 -6.68772,7.44912 l 19.64927,0.0853 c 0.75842,-1.12701 1.53473,-2.19713 2.32164,-3.20807 0.81601,-1.03981 2.07817,-2.32546 3.79474,-3.85404 1.71671,-1.55758 3.63734,-2.98388 5.75865,-4.27886 2.15028,-1.29485 4.52112,-2.734 7.10741,-4.31679 2.61525,-1.58264 5.23143,-3.68369 7.85121,-6.30968 2.64876,-2.62588 5.3736,-5.83444 8.1723,-9.61895 z m 66.25049,0.2876 -31.53903,15.77365 -7.95565,10.18462 21.51875,0.0934 -4.50338,5.58906 18.12543,0.0787 4.50335,-5.58907 5.91037,0.0257 5.9913,-7.40836 -5.95903,-0.0259 15.03718,-18.63011 z m 28.08636,0.12191 -7.51897,9.40271 28.56349,0.12398 c -0.55532,1.06994 -1.89557,2.13758 -4.01588,3.20072 -2.12031,1.06311 -4.42933,1.93372 -6.92477,2.61845 -2.49529,0.65575 -5.28019,1.73195 -8.35877,3.22566 -3.07856,1.49372 -6.01532,3.38056 -8.80748,5.65803 -2.79216,2.27744 -5.01919,4.76101 -6.68283,7.44913 l 19.64924,0.0853 c 0.75842,-1.12701 1.52988,-2.19714 2.31678,-3.20809 0.81602,-1.03981 2.08304,-2.32544 3.79963,-3.85402 1.71669,-1.55758 3.63731,-2.98387 5.75863,-4.27885 2.1503,-1.29486 4.51625,-2.73403 7.10254,-4.31682 2.61525,-1.58264 5.23143,-3.68368 7.85121,-6.30968 2.64877,-2.62588 5.37359,-5.83444 8.17229,-9.61894 z m -32.95348,9.63796 -7.25381,8.88288 -10.52084,-0.0457 z"
     sodipodi:nodetypes="cccscssccccccccccccccccccccccccscssccccccccccccc" />
</svg>
