<?xml version="1.0" encoding="UTF-8" standalone="no"?>
<svg
   width="2048"
   height="2048"
   viewBox="0 0 2048 2048"
   version="1.1"
   id="svg340"
   sodipodi:docname="Fuselage_UV.svg"
   xml:space="preserve"
   inkscape:version="1.3.2 (091e20ef0f, 2023-11-25, custom)"
   xmlns:inkscape="http://www.inkscape.org/namespaces/inkscape"
   xmlns:sodipodi="http://sodipodi.sourceforge.net/DTD/sodipodi-0.dtd"
   xmlns="http://www.w3.org/2000/svg"
   xmlns:svg="http://www.w3.org/2000/svg"><defs
     id="defs340"><style
       id="style1">.cls-2{fill:#0033a1;}</style></defs><sodipodi:namedview
     id="namedview340"
     pagecolor="#505050"
     bordercolor="#ffffff"
     borderopacity="1"
     inkscape:showpageshadow="0"
     inkscape:pageopacity="0"
     inkscape:pagecheckerboard="1"
     inkscape:deskcolor="#d1d1d1"
     inkscape:zoom="0.12059641"
     inkscape:cx="2089.6145"
     inkscape:cy="236.32545"
     inkscape:window-width="1366"
     inkscape:window-height="724"
     inkscape:window-x="-1"
     inkscape:window-y="-1"
     inkscape:window-maximized="1"
     inkscape:current-layer="svg340" /><desc
     id="desc1">Boeing_747_LCF.blend, (Blender 3.3.9)</desc><rect
     style="opacity:1;fill:#ffffff;fill-opacity:1;stroke-width:10"
     id="rect516"
     width="2048"
     height="2048"
     x="0"
     y="0" /><path
     id="polygon1"
     d="M 1157.0371 578.58984 L 714.25781 582.19336 L 592.72461 586.7793 L 471.19336 619.70117 L 408.14844 640.01953 L 50.894531 663.32031 L 41.199219 665.61328 L 31.501953 673.9043 L 24.412109 686.25391 L 24.412109 687.48633 L 24.412109 691.17773 L 24.412109 693.77344 L 24.412109 699.22461 L 24.412109 703.29492 L 24.412109 706.74219 L 24.412109 709.04883 L 24.412109 709.85742 L 31.501953 721.11523 L 41.199219 728.67383 L 50.894531 730.76367 L 408.14844 806.12305 L 471.19336 818.17383 L 592.72461 843.74805 L 714.25781 852.47852 L 1157.0371 859.33008 L 1188.3828 856.71875 L 1392.6465 857.84375 L 1639.0156 854.5625 L 1737.1055 851.75586 L 1773.4922 849.9082 L 1773.4922 842.52148 L 1809.8809 840.73828 L 1839.6641 837.71289 L 1869.4473 833.47266 L 1869.4473 839.74414 L 1895.209 834.63086 L 1946.7383 817.03906 L 1998.2676 791.45508 L 2010.9277 781.8125 L 2023.5879 771.03125 L 2023.5879 770.25977 L 2023.5879 768.06445 L 2023.5879 764.7793 L 2023.5879 760.9043 L 2023.5879 755.71289 L 2023.5879 753.23828 L 2023.5879 749.72461 L 2023.5879 748.54883 L 2010.9277 736.72266 L 1998.2676 728.05273 L 1946.7383 701.59375 L 1895.209 673.31836 L 1876.9102 661.58789 L 1869.4473 656.80469 L 1839.6641 640.5 L 1809.8809 634.46875 L 1737.1055 634.47852 L 1639.0156 591.76367 L 1392.6465 579.3457 L 1188.3828 579.47266 L 1157.0371 578.58984 z M 1839.6641 661.32031 L 1853.7246 661.33398 L 1853.7207 676.91797 L 1839.6641 676.77539 L 1839.6641 661.32031 z M 1855.2168 661.42969 L 1858.2188 661.61914 L 1866.1621 665.9082 L 1882.3066 675.85352 L 1869.4473 676.72461 L 1855.2188 676.89844 L 1855.2168 661.42969 z M 1860.4004 661.75781 L 1869.4473 661.79688 L 1875.6738 661.95703 L 1893.5703 673.42578 L 1884.8477 675.68164 L 1869.4473 666.37305 L 1860.4004 661.75781 z "
     style="fill:#ffffff" /><path
     id="polygon122"
     d="M 1157.0371 1090.5898 L 714.25781 1094.1934 L 592.72461 1098.7793 L 471.19336 1131.7012 L 408.14844 1152.0195 L 50.894531 1175.3203 L 41.199219 1177.6133 L 31.501953 1185.9043 L 31.501953 1188.373 L 24.412109 1199.4863 L 24.412109 1203.1777 L 31.501953 1195.7559 L 31.501953 1200.9473 L 24.412109 1205.7734 L 24.412109 1211.2246 L 24.412109 1215.2949 L 24.412109 1218.7422 L 24.412109 1221.0488 L 31.501953 1231.4961 L 31.501953 1233.1152 L 41.199219 1240.6738 L 50.894531 1242.7637 L 408.14844 1318.123 L 471.19336 1330.1738 L 592.72461 1355.748 L 714.25781 1364.4785 L 1157.0371 1371.3301 L 1188.3828 1368.7188 L 1392.6465 1369.8438 L 1639.0156 1366.5625 L 1737.1055 1363.7559 L 1773.4922 1361.9082 L 1773.4922 1354.5215 L 1809.8809 1352.7383 L 1839.6641 1349.7129 L 1869.4473 1345.4727 L 1869.4473 1351.7441 L 1895.209 1346.6309 L 1946.7383 1329.0391 L 1998.2676 1303.4551 L 2010.9277 1293.8125 L 2023.5879 1283.0312 L 2023.5879 1282.2598 L 2023.5879 1280.0645 L 2023.5879 1276.7793 L 2023.5879 1272.9043 L 2023.5879 1267.7129 L 2023.5879 1265.2383 L 2023.5879 1261.7246 L 2023.5879 1260.5488 L 2010.9277 1248.7227 L 1998.2676 1240.0527 L 1946.7383 1213.5938 L 1895.209 1185.3184 L 1876.9102 1173.5879 L 1869.4473 1168.8047 L 1839.6641 1152.5 L 1809.8809 1146.4688 L 1737.1055 1146.4785 L 1639.0156 1103.7637 L 1392.6465 1091.3457 L 1188.3828 1091.4727 L 1157.0371 1090.5898 z M 1839.6641 1173.3203 L 1853.7246 1173.334 L 1855.2168 1173.4297 L 1858.2188 1173.6191 L 1866.1621 1177.9082 L 1882.3066 1187.8535 L 1869.4473 1188.7246 L 1855.2188 1188.8984 L 1853.7207 1188.918 L 1839.6641 1188.7754 L 1839.6641 1173.3203 z M 1860.4004 1173.7578 L 1869.4473 1173.7969 L 1875.6738 1173.957 L 1893.5703 1185.4258 L 1884.8477 1187.6816 L 1869.4473 1178.373 L 1860.4004 1173.7578 z "
     style="fill:#ffffff" /><rect
     style="fill:none;stroke:#080000;stroke-width:1.5006;stroke-linecap:square;stroke-dasharray:none;stroke-opacity:1"
     id="rect284-4"
     width="31.14547"
     height="60.682007"
     x="1646.9725"
     y="1239.8796"
     rx="6.1963267"
     ry="6.1963267" /><rect
     style="fill:#ffffff;fill-opacity:1;stroke:#080000;stroke-width:1.5006;stroke-linecap:square;stroke-dasharray:none;stroke-opacity:1"
     id="rect309-5"
     width="7.1368136"
     height="9.5134115"
     x="1909.2554"
     y="1265.5519"
     rx="3.5684068"
     ry="3.5684068" /><rect
     style="fill:#ffffff;fill-opacity:1;stroke:#080000;stroke-width:1.5006;stroke-linecap:square;stroke-dasharray:none;stroke-opacity:1"
     id="rect395-3"
     width="7.1368136"
     height="9.5134115"
     x="1874.7057"
     y="1265.5519"
     rx="3.5684068"
     ry="3.5684068" /><rect
     style="fill:#ffffff;fill-opacity:1;stroke:#080000;stroke-width:1.5006;stroke-linecap:square;stroke-dasharray:none;stroke-opacity:1"
     id="rect396-6"
     width="7.1368136"
     height="9.5134115"
     x="1891.9805"
     y="1265.5519"
     rx="3.5684068"
     ry="3.5684068" /><rect
     style="fill:#ffffff;fill-opacity:1;stroke:#080000;stroke-width:1.5006;stroke-linecap:square;stroke-dasharray:none;stroke-opacity:1"
     id="rect397-1"
     width="7.1368136"
     height="9.5134115"
     x="1857.4308"
     y="1265.5519"
     rx="3.5684068"
     ry="3.5684068" /><rect
     style="fill:#ffffff;fill-opacity:1;stroke:#080000;stroke-width:1.5006;stroke-linecap:square;stroke-dasharray:none;stroke-opacity:1"
     id="rect398-0"
     width="7.1368136"
     height="9.5134115"
     x="1840.156"
     y="1265.5519"
     rx="3.5684068"
     ry="3.5684068" /><rect
     style="fill:#ffffff;fill-opacity:1;stroke:#080000;stroke-width:1.5006;stroke-linecap:square;stroke-dasharray:none;stroke-opacity:1"
     id="rect399-6"
     width="7.1368136"
     height="9.5134115"
     x="1822.8811"
     y="1265.5519"
     rx="3.5684068"
     ry="3.5684068" /><rect
     style="fill:#ffffff;fill-opacity:1;stroke:#080000;stroke-width:1.5006;stroke-linecap:square;stroke-dasharray:none;stroke-opacity:1"
     id="rect400-3"
     width="7.1368136"
     height="9.5134115"
     x="1805.6063"
     y="1265.5519"
     rx="3.5684068"
     ry="3.5684068" /><rect
     style="fill:#ffffff;fill-opacity:1;stroke:#080000;stroke-width:1.5006;stroke-linecap:square;stroke-dasharray:none;stroke-opacity:1"
     id="rect403-6"
     width="7.1368136"
     height="9.5134115"
     x="1705.5308"
     y="1265.464"
     rx="3.5684068"
     ry="3.5684068" /><rect
     style="fill:#ffffff;fill-opacity:1;stroke:#080000;stroke-width:1.5006;stroke-linecap:square;stroke-dasharray:none;stroke-opacity:1"
     id="rect404-1"
     width="7.1368136"
     height="9.5134115"
     x="1688.256"
     y="1265.464"
     rx="3.5684068"
     ry="3.5684068" /><rect
     style="fill:#ffffff;fill-opacity:1;stroke:#080000;stroke-width:1.5006;stroke-linecap:square;stroke-dasharray:none;stroke-opacity:1"
     id="rect491"
     width="7.1368136"
     height="9.5134115"
     x="1664.3815"
     y="1265.464"
     rx="3.5684068"
     ry="3.5684068" /><rect
     style="fill:none;stroke:#080000;stroke-width:1.5006;stroke-linecap:square;stroke-dasharray:none;stroke-opacity:1"
     id="rect495"
     width="31.14547"
     height="60.682007"
     x="1646.9725"
     y="727.33295"
     rx="6.1963267"
     ry="6.1963267" /><rect
     style="fill:#ffffff;fill-opacity:1;stroke:#080000;stroke-width:1.5006;stroke-linecap:square;stroke-dasharray:none;stroke-opacity:1"
     id="rect496"
     width="7.1368136"
     height="9.5134115"
     x="1909.2554"
     y="753.00519"
     rx="3.5684068"
     ry="3.5684068" /><rect
     style="fill:#ffffff;fill-opacity:1;stroke:#080000;stroke-width:1.5006;stroke-linecap:square;stroke-dasharray:none;stroke-opacity:1"
     id="rect497"
     width="7.1368136"
     height="9.5134115"
     x="1874.7057"
     y="753.00519"
     rx="3.5684068"
     ry="3.5684068" /><rect
     style="fill:#ffffff;fill-opacity:1;stroke:#080000;stroke-width:1.5006;stroke-linecap:square;stroke-dasharray:none;stroke-opacity:1"
     id="rect498"
     width="7.1368136"
     height="9.5134115"
     x="1891.9805"
     y="753.00519"
     rx="3.5684068"
     ry="3.5684068" /><rect
     style="fill:#ffffff;fill-opacity:1;stroke:#080000;stroke-width:1.5006;stroke-linecap:square;stroke-dasharray:none;stroke-opacity:1"
     id="rect499"
     width="7.1368136"
     height="9.5134115"
     x="1857.4308"
     y="753.00519"
     rx="3.5684068"
     ry="3.5684068" /><rect
     style="fill:#ffffff;fill-opacity:1;stroke:#080000;stroke-width:1.5006;stroke-linecap:square;stroke-dasharray:none;stroke-opacity:1"
     id="rect500"
     width="7.1368136"
     height="9.5134115"
     x="1840.156"
     y="753.00519"
     rx="3.5684068"
     ry="3.5684068" /><rect
     style="fill:#ffffff;fill-opacity:1;stroke:#080000;stroke-width:1.5006;stroke-linecap:square;stroke-dasharray:none;stroke-opacity:1"
     id="rect501"
     width="7.1368136"
     height="9.5134115"
     x="1822.8811"
     y="753.00519"
     rx="3.5684068"
     ry="3.5684068" /><rect
     style="fill:#ffffff;fill-opacity:1;stroke:#080000;stroke-width:1.5006;stroke-linecap:square;stroke-dasharray:none;stroke-opacity:1"
     id="rect502"
     width="7.1368136"
     height="9.5134115"
     x="1805.6063"
     y="753.00519"
     rx="3.5684068"
     ry="3.5684068" /><rect
     style="fill:#ffffff;fill-opacity:1;stroke:#080000;stroke-width:1.5006;stroke-linecap:square;stroke-dasharray:none;stroke-opacity:1"
     id="rect503"
     width="7.1368136"
     height="9.5134115"
     x="1705.5308"
     y="752.9173"
     rx="3.5684068"
     ry="3.5684068" /><rect
     style="fill:#ffffff;fill-opacity:1;stroke:#080000;stroke-width:1.5006;stroke-linecap:square;stroke-dasharray:none;stroke-opacity:1"
     id="rect504"
     width="7.1368136"
     height="9.5134115"
     x="1688.256"
     y="752.9173"
     rx="3.5684068"
     ry="3.5684068" /><rect
     style="fill:#ffffff;fill-opacity:1;stroke:#080000;stroke-width:1.5006;stroke-linecap:square;stroke-dasharray:none;stroke-opacity:1"
     id="rect505"
     width="7.1368136"
     height="9.5134115"
     x="1664.3815"
     y="752.9173"
     rx="3.5684068"
     ry="3.5684068" /></svg>
