<?xml version="1.0" encoding="UTF-8" standalone="no"?>
<svg
   width="1024"
   height="1024"
   viewBox="0 0 1024 1024"
   version="1.1"
   id="svg53"
   sodipodi:docname="Left_wing.svg"
   xml:space="preserve"
   inkscape:version="1.3.2 (091e20ef0f, 2023-11-25, custom)"
   xmlns:inkscape="http://www.inkscape.org/namespaces/inkscape"
   xmlns:sodipodi="http://sodipodi.sourceforge.net/DTD/sodipodi-0.dtd"
   xmlns:xlink="http://www.w3.org/1999/xlink"
   xmlns="http://www.w3.org/2000/svg"
   xmlns:svg="http://www.w3.org/2000/svg"><defs
     id="defs53"><linearGradient
       id="linearGradient45"
       inkscape:collect="always"><stop
         style="stop-color:#808080;stop-opacity:1;"
         offset="0"
         id="stop45" /><stop
         style="stop-color:#d8d8d8;stop-opacity:1;"
         offset="0.5"
         id="stop47" /><stop
         style="stop-color:#808080;stop-opacity:1;"
         offset="1"
         id="stop46" /></linearGradient><linearGradient
       inkscape:collect="always"
       xlink:href="#linearGradient45"
       id="linearGradient55"
       x1="578.67578"
       y1="536.69141"
       x2="616.41406"
       y2="536.69141"
       gradientUnits="userSpaceOnUse" /><linearGradient
       inkscape:collect="always"
       xlink:href="#linearGradient45"
       id="linearGradient57"
       x1="616.41406"
       y1="536.56445"
       x2="648.46094"
       y2="536.56445"
       gradientUnits="userSpaceOnUse" /><style
       id="style1">.cls-2{fill:#0033a1;}</style></defs><sodipodi:namedview
     id="namedview53"
     pagecolor="#505050"
     bordercolor="#ffffff"
     borderopacity="1"
     inkscape:showpageshadow="0"
     inkscape:pageopacity="0"
     inkscape:pagecheckerboard="1"
     inkscape:deskcolor="#d1d1d1"
     inkscape:zoom="0.48144531"
     inkscape:cx="512"
     inkscape:cy="512"
     inkscape:window-width="1366"
     inkscape:window-height="724"
     inkscape:window-x="-1"
     inkscape:window-y="-1"
     inkscape:window-maximized="1"
     inkscape:current-layer="svg53" /><desc
     id="desc1">Boeing_747_400.blend, (Blender 3.3.9)</desc><rect
     style="opacity:1;fill:#ffffff;stroke-width:10"
     id="rect53"
     width="1024"
     height="1024"
     x="0"
     y="0" /><path
     id="polygon1"
     d="M 523.69336 5.8320312 L 515.83594 48.714844 L 477.01172 273.73047 L 437.6875 509.77148 L 425.25391 499.29297 L 406.53906 483.10938 L 400.625 510.97266 L 420.25586 527.73242 L 432.77344 541.05469 L 432.01953 542.63281 L 291.76758 758.99805 L 311.01367 784.1875 L 578.67578 1024 L 567.06055 995.29297 L 574.98047 668.42578 L 574.87305 641.23242 L 559.93359 88.212891 L 578.67578 55.076172 L 523.69336 5.8320312 z "
     style="fill:#ffffff" /><path
     id="polygon2"
     d="M 621.61914 49.128906 L 616.41406 392.38086 L 616.43359 425.79102 L 623.44336 1018.5195 L 629.45703 1024 L 648.46094 991.01367 L 637.86523 437.89258 L 637.97266 410.69922 L 648.46094 83.904297 L 637.07031 55.107422 L 621.61914 49.128906 z "
     style="fill:url(#linearGradient57)" /><path
     id="polygon4"
     d="M 291.76758 0 L 15.865234 230.16016 L 0 259.40039 L 129.10742 472.84766 L 131.42383 478.70117 L 119.48633 492.75781 L 101.52539 511.42969 L 106.44336 539.4707 L 123.53711 521.43555 L 135.33984 510.32422 L 167.20117 751.13672 L 198.03711 975.38867 L 200.4707 1024 L 262.02734 972.54102 L 243.44531 937.42969 L 289.25586 373.18945 L 291.76758 344.6582 L 277.44336 26.328125 L 291.76758 0 z "
     style="fill:#ffffff" /><path
     id="polygon6"
     d="M 596.53711 49.382812 L 590.11719 54.589844 L 578.88867 646.96094 L 584.42969 649.82227 L 583.36328 679.91797 L 578.67578 680.36523 L 583.50781 1024 L 603.08203 1022.3574 L 616.41406 995.51367 L 590.23047 677.9375 L 591.67773 649.33203 L 616.41406 83.777344 L 596.53711 49.382812 z "
     style="fill:url(#linearGradient55);fill-opacity:1" /><polygon
     stroke="black"
     stroke-width="1"
     fill="rgb(204, 204, 204)"
     fill-opacity="1"
     points="648.460,649.875 650.961,1009.349 669.951,1024.000 669.951,617.809 "
     id="polygon7"
     style="stroke:none;fill:#ffffff" /><polygon
     stroke="black"
     stroke-width="1"
     fill="rgb(204, 204, 204)"
     fill-opacity="1"
     points="648.460,338.292 648.692,360.397 657.907,360.926 657.907,337.215 "
     id="polygon8"
     style="stroke:none;fill:#ffffff" /><polygon
     stroke="black"
     stroke-width="1"
     fill="rgb(204, 204, 204)"
     fill-opacity="1"
     points="688.001,1024.000 688.001,617.809 672.452,632.536 669.951,992.012 "
     id="polygon22"
     style="stroke:none;fill:#ffffff" /><polygon
     stroke="black"
     stroke-width="1"
     fill="rgb(204, 204, 204)"
     fill-opacity="1"
     points="692.099,1005.555 688.001,1024.000 700.636,1023.879 700.636,979.301 "
     id="polygon30"
     style="stroke:none;fill:#ffffff" /><polygon
     stroke="black"
     stroke-width="1"
     fill="rgb(204, 204, 204)"
     fill-opacity="1"
     points="691.672,909.606 699.829,934.725 699.829,893.269 688.001,893.223 "
     id="polygon32"
     style="stroke:none;fill:#ffffff" /><polygon
     stroke="black"
     stroke-width="1"
     fill="rgb(204, 204, 204)"
     fill-opacity="1"
     points="689.892,851.767 690.323,843.514 688.001,843.517 689.510,851.753 "
     id="polygon33"
     style="stroke:none;fill:#ffffff" /><polygon
     stroke="black"
     stroke-width="1"
     fill="rgb(204, 204, 204)"
     fill-opacity="1"
     points="700.210,979.301 700.636,934.725 688.001,934.725 691.539,953.130 "
     id="polygon34"
     style="stroke:none;fill:#ffffff" /><polygon
     stroke="black"
     stroke-width="1"
     fill="rgb(204, 204, 204)"
     fill-opacity="1"
     points="688.001,851.767 688.161,893.223 696.389,868.153 699.829,851.767 "
     id="polygon35"
     style="stroke:none;fill:#ffffff" /><polygon
     stroke="black"
     stroke-width="1"
     fill="rgb(204, 204, 204)"
     fill-opacity="1"
     points="688.001,666.854 688.024,694.752 688.269,694.765 689.208,666.854 "
     id="polygon36"
     style="stroke:none;fill:#ffffff" /><polygon
     stroke="black"
     stroke-width="1"
     fill="rgb(204, 204, 204)"
     fill-opacity="1"
     points="690.323,843.514 690.323,763.281 688.001,763.285 688.001,843.517 "
     id="polygon37"
     style="stroke:none;fill:#ffffff" /><path
     id="polygon38"
     style="stroke:none;fill:#ffffff;fill-opacity:1"
     d="M 657.90625 352.7793 L 658.08008 360.91211 L 658.32422 360.92578 L 658.32422 352.78906 L 657.90625 352.7793 z M 699.25977 360.92578 L 648.8418 442.11914 L 648.80664 445.5957 L 648.53516 477.23242 L 648.46094 489.24609 L 698.33789 470.89844 L 699.87305 470.9043 L 698.95703 442.9043 L 699.59375 369.05664 L 699.87305 360.93164 L 699.25977 360.92578 z " /><polygon
     stroke="black"
     stroke-width="1"
     fill="rgb(204, 204, 204)"
     fill-opacity="1"
     points="689.478,694.758 689.478,620.907 689.209,620.913 689.208,694.765 "
     id="polygon39"
     style="stroke:none;fill:#ffffff" /><polygon
     stroke="black"
     stroke-width="1"
     fill="rgb(204, 204, 204)"
     fill-opacity="1"
     points="690.323,763.281 690.074,741.849 688.875,741.842 688.001,763.285 "
     id="polygon41"
     style="stroke:none;fill:#ffffff" /><path
     id="polygon42"
     style="stroke:none;fill:#ffffff;fill-opacity:1"
     d="M 648.73633 489.24609 L 648.46094 498.43359 L 648.46094 532.83203 L 648.9375 536.37695 L 697.98047 617.80859 L 698.57031 617.80664 L 700.44922 609.63086 L 700.44922 529.33203 L 699.36133 507.83398 L 697.7793 507.83203 L 648.73633 489.24609 z " /><polygon
     stroke="black"
     stroke-width="1"
     fill="rgb(204, 204, 204)"
     fill-opacity="1"
     points="691.162,703.982 689.486,694.765 688.001,706.740 688.001,738.361 688.269,741.842 691.162,738.363 "
     id="polygon53"
     style="stroke:none;fill:#ffffff" /></svg>
