<?xml version="1.0" encoding="UTF-8" standalone="no"?>
<svg
   width="2048"
   height="2048"
   viewBox="0 0 2048 2048"
   version="1.1"
   id="svg311"
   sodipodi:docname="Fuselage.svg"
   xml:space="preserve"
   inkscape:version="1.3.2 (091e20ef0f, 2023-11-25, custom)"
   xmlns:inkscape="http://www.inkscape.org/namespaces/inkscape"
   xmlns:sodipodi="http://sodipodi.sourceforge.net/DTD/sodipodi-0.dtd"
   xmlns:xlink="http://www.w3.org/1999/xlink"
   xmlns="http://www.w3.org/2000/svg"
   xmlns:svg="http://www.w3.org/2000/svg"><defs
     id="defs311"><style
       id="style1">.cls-2{fill:#0033a1;}</style><linearGradient
       id="linearGradient308"
       inkscape:collect="always"><stop
         style="stop-color:#1f1f1f;stop-opacity:1;"
         offset="0"
         id="stop308" /><stop
         style="stop-color:#80baff;stop-opacity:1;"
         offset="1"
         id="stop309" /></linearGradient><linearGradient
       inkscape:collect="always"
       xlink:href="#linearGradient308"
       id="linearGradient327"
       gradientUnits="userSpaceOnUse"
       gradientTransform="matrix(1.5005989,0,0,1.5005989,-1946.6487,282.571)"
       x1="989.22986"
       y1="654.32733"
       x2="989.22986"
       y2="648.26239" /><linearGradient
       inkscape:collect="always"
       xlink:href="#linearGradient308"
       id="linearGradient381"
       gradientUnits="userSpaceOnUse"
       gradientTransform="matrix(1.5005989,0,0,1.5005989,-2063.2543,211.89096)"
       x1="989.22986"
       y1="654.32733"
       x2="989.22986"
       y2="648.26239" /><linearGradient
       inkscape:collect="always"
       xlink:href="#linearGradient308"
       id="linearGradient263"
       gradientUnits="userSpaceOnUse"
       gradientTransform="matrix(1.5005989,0,0,1.5005989,-2080.5291,211.89096)"
       x1="989.22986"
       y1="654.32733"
       x2="989.22986"
       y2="648.26239" /><linearGradient
       inkscape:collect="always"
       xlink:href="#linearGradient308"
       id="linearGradient424"
       gradientUnits="userSpaceOnUse"
       gradientTransform="matrix(1.5005989,0,0,1.5005989,220.9482,-229.39958)"
       x1="989.22986"
       y1="654.32733"
       x2="989.22986"
       y2="648.26239" /><linearGradient
       inkscape:collect="always"
       xlink:href="#linearGradient308"
       id="linearGradient501"
       gradientUnits="userSpaceOnUse"
       gradientTransform="matrix(1.5005989,0,0,1.5005989,87.0678,-300.07962)"
       x1="989.22986"
       y1="654.32733"
       x2="989.22986"
       y2="648.26239" /><linearGradient
       inkscape:collect="always"
       xlink:href="#linearGradient308"
       id="linearGradient502"
       gradientUnits="userSpaceOnUse"
       gradientTransform="matrix(1.5005989,0,0,1.5005989,69.793,-300.07962)"
       x1="989.22986"
       y1="654.32733"
       x2="989.22986"
       y2="648.26239" /></defs><sodipodi:namedview
     id="namedview311"
     pagecolor="#505050"
     bordercolor="#ffffff"
     borderopacity="1"
     inkscape:showpageshadow="0"
     inkscape:pageopacity="0"
     inkscape:pagecheckerboard="1"
     inkscape:deskcolor="#d1d1d1"
     inkscape:zoom="0.22622053"
     inkscape:cx="2590.3926"
     inkscape:cy="890.72374"
     inkscape:window-width="1366"
     inkscape:window-height="724"
     inkscape:window-x="-1"
     inkscape:window-y="-1"
     inkscape:window-maximized="0"
     inkscape:current-layer="svg311"
     showguides="true"><sodipodi:guide
       position="1543.3923,1305.2861"
       orientation="1,0"
       id="guide1"
       inkscape:locked="false" /></sodipodi:namedview><desc
     id="desc1">Boeing_747_400.blend, (Blender 3.3.9)</desc><rect
     style="fill:#ffffff;stroke-width:10;stroke-linecap:square"
     id="rect1"
     width="2048"
     height="2048"
     x="0"
     y="0" /><path
     id="polygon1"
     d="M 1810.0234 637.69727 L 1737.2344 637.70703 L 1392.9238 643.51172 L 1188.4121 670.52734 L 1157.0625 672.48438 L 714.20117 666.94141 L 592.64648 666.83789 L 471.09375 666.44922 L 50.71875 666.55469 L 41.019531 668.84961 L 31.322266 677.14062 L 24.230469 689.49023 L 24.230469 690.72656 L 24.230469 694.41797 L 24.230469 697.01367 L 24.230469 702.46484 L 24.230469 706.53516 L 24.230469 709.98438 L 24.230469 712.28906 L 24.230469 713.09961 L 31.322266 724.35938 L 41.019531 731.91992 L 50.71875 734.00977 L 471.09375 827.05469 L 592.64648 850.42188 L 714.20117 866.30273 L 1157.0625 859.18164 L 1188.4121 859.16406 L 1392.9238 862.15234 L 1737.2344 855.02539 L 1773.6289 853.17773 L 1773.6289 845.78711 L 1810.0234 844.00391 L 1839.8125 840.97852 L 1869.6016 836.73633 L 1869.6016 843.01172 L 1895.3672 837.89648 L 1946.9062 820.30078 L 1998.4453 794.71289 L 2011.1074 785.06836 L 2023.7695 774.28516 L 2023.7695 773.51367 L 2023.7695 771.31836 L 2023.7695 768.03125 L 2023.7695 764.1543 L 2023.7695 758.96289 L 2023.7695 756.48828 L 2023.7695 752.97461 L 2023.7695 751.79688 L 2011.1074 739.96875 L 1998.4453 731.29883 L 1946.9062 704.83398 L 1895.3672 676.55469 L 1877.0645 664.82227 L 1869.6016 660.03711 L 1839.8125 643.72852 L 1810.0234 637.69727 z M 1839.8125 664.55469 L 1853.873 664.56836 L 1853.8711 680.15234 L 1839.8125 680.01172 L 1839.8125 664.55469 z M 1855.3672 664.66211 L 1858.3691 664.85352 L 1866.3145 669.14258 L 1882.4629 679.0918 L 1869.6016 679.96289 L 1855.3672 680.13477 L 1855.3672 664.66211 z M 1860.5527 664.99219 L 1869.6016 665.03125 L 1875.8281 665.19141 L 1893.7285 676.66016 L 1885.0039 678.91992 L 1869.6016 669.60742 L 1860.5527 664.99219 z "
     style="fill:#b3b3b3" /><g
     id="g3"
     transform="matrix(0.46296296,0,0,0.46296296,594.88728,723.7254)"><rect
       style="fill:#1a1e3b"
       x="2.3492801"
       y="33.169998"
       height="36"
       width="199.30144"
       id="rect1-6" /><circle
       fill="#1a1e3b"
       cx="102"
       cy="54"
       r="54"
       id="circle1" /><rect
       style="fill:#ffffff"
       x="8.3492804"
       y="39.169998"
       height="24"
       width="187.30144"
       id="rect2" /><rect
       style="fill:#8f1700"
       x="8.3492804"
       y="47.169998"
       height="8"
       width="187.30144"
       id="rect3-7" /><circle
       fill="#1a1e3b"
       cx="102"
       cy="54"
       r="48"
       id="circle3" /><g
       transform="matrix(48,0,0,48,102,54)"
       fill="#ffffff"
       id="g7"><g
         id="cone"><polygon
           id="triangle"
           points="0,0 0,1 0.5,1 "
           transform="rotate(18,3.1568758,-0.5)" /><use
           xlink:href="#triangle"
           transform="scale(-1,1)"
           id="use3" /></g><use
         xlink:href="#cone"
         transform="rotate(72)"
         id="use4" /><use
         xlink:href="#cone"
         transform="rotate(-72)"
         id="use5" /><use
         xlink:href="#cone"
         transform="rotate(144)"
         id="use6" /><use
         xlink:href="#cone"
         transform="rotate(-144)"
         id="use7" /></g></g><path
     id="polygon122"
     d="M 1810.0234 1149.6973 L 1737.2344 1149.707 L 1392.9238 1155.5117 L 1188.4121 1182.5273 L 1157.0625 1184.4844 L 714.20117 1178.9414 L 592.64648 1178.8379 L 471.09375 1178.4492 L 50.71875 1178.5547 L 41.019531 1180.8496 L 31.322266 1189.1406 L 31.322266 1191.6113 L 24.230469 1202.7266 L 24.230469 1206.418 L 31.322266 1198.9922 L 31.322266 1204.1875 L 24.230469 1209.0137 L 24.230469 1214.4648 L 24.230469 1218.5352 L 24.230469 1221.9844 L 24.230469 1224.2891 L 31.322266 1234.7402 L 31.322266 1236.3594 L 41.019531 1243.9199 L 50.71875 1246.0098 L 471.09375 1339.0547 L 592.64648 1362.4219 L 714.20117 1378.3027 L 1157.0625 1371.1816 L 1188.4121 1371.1641 L 1392.9238 1374.1523 L 1737.2344 1367.0254 L 1773.6289 1365.1777 L 1773.6289 1357.7871 L 1810.0234 1356.0039 L 1839.8125 1352.9785 L 1869.6016 1348.7363 L 1869.6016 1355.0117 L 1895.3672 1349.8965 L 1946.9062 1332.3008 L 1998.4453 1306.7129 L 2011.1074 1297.0684 L 2023.7695 1286.2852 L 2023.7695 1285.5137 L 2023.7695 1283.3184 L 2023.7695 1280.0312 L 2023.7695 1276.1543 L 2023.7695 1270.9629 L 2023.7695 1268.4883 L 2023.7695 1264.9746 L 2023.7695 1263.7969 L 2011.1074 1251.9688 L 1998.4453 1243.2988 L 1946.9062 1216.834 L 1895.3672 1188.5547 L 1877.0645 1176.8223 L 1869.6016 1172.0371 L 1839.8125 1155.7285 L 1810.0234 1149.6973 z M 1839.8125 1176.5547 L 1853.873 1176.5684 L 1853.8711 1192.1523 L 1839.8125 1192.0117 L 1839.8125 1176.5547 z M 1855.3672 1176.6621 L 1858.3691 1176.8535 L 1866.3145 1181.1426 L 1882.4629 1191.0918 L 1869.6016 1191.9629 L 1855.3672 1192.1348 L 1855.3672 1176.6621 z M 1860.5527 1176.9922 L 1869.6016 1177.0312 L 1875.8281 1177.1914 L 1893.7285 1188.6602 L 1885.0039 1190.9199 L 1869.6016 1181.6074 L 1860.5527 1176.9922 z "
     style="fill:#b3b3b3" /><g
     id="g2"
     transform="translate(2167.5969)"><path
       id="rect3"
       style="fill:none;stroke:#080000;stroke-width:2.05666;stroke-linecap:square"
       d="m -603.6017,1294.9869 h 61.8039 c 5.0358,0 9.09,3.5387 9.09,7.9343 v 48.7837 c 0,4.3957 -4.0542,7.9343 -9.09,7.9343 h -61.8039 c -5.0358,0 -9.0898,-3.5386 -9.0898,-7.9343 v -48.7837 c 0,-4.3956 4.054,-7.9343 9.0898,-7.9343 z"
       sodipodi:nodetypes="sssssssss" /><rect
       style="fill:none;stroke:#080000;stroke-width:1.5006;stroke-linecap:square;stroke-dasharray:none;stroke-opacity:1"
       id="rect5"
       width="31.14547"
       height="60.682007"
       x="-471.69577"
       y="1230.355"
       rx="6.1963267"
       ry="6.1963267" /><rect
       style="fill:none;stroke:#080000;stroke-width:1.5006;stroke-linecap:square;stroke-dasharray:none;stroke-opacity:1"
       id="rect8"
       width="31.14547"
       height="60.682007"
       x="-1419.6461"
       y="1230.355"
       rx="6.1963267"
       ry="6.1963267" /><rect
       style="fill:url(#linearGradient327);fill-opacity:1;stroke:#080000;stroke-width:1.5006;stroke-linecap:square;stroke-dasharray:none;stroke-opacity:1"
       id="rect326"
       width="7.1368136"
       height="9.5134115"
       x="-466.24509"
       y="1255.1008"
       rx="3.5684068"
       ry="3.5684068" /><rect
       style="fill:url(#linearGradient381);fill-opacity:1;stroke:#080000;stroke-width:1.5006;stroke-linecap:square;stroke-dasharray:none;stroke-opacity:1"
       id="rect380"
       width="7.1368136"
       height="9.5134115"
       x="-582.85028"
       y="1184.4208"
       rx="3.5684068"
       ry="3.5684068" /><path
       style="fill:none;stroke:#000000;stroke-width:2.00976px;stroke-linecap:butt;stroke-linejoin:miter;stroke-opacity:1"
       d="m -1398.9515,1254.9358 v 11.4546"
       id="path78-5" /><path
       style="fill:none;stroke:#000000;stroke-width:2.00976px;stroke-linecap:butt;stroke-linejoin:miter;stroke-opacity:1"
       d="m -449.9737,1255.0131 v 11.4546"
       id="path78-2" /><path
       id="path79"
       style="fill:none;stroke:#080000;stroke-width:1.91064;stroke-linecap:square"
       d="m -1552.173,1295.0061 h 53.3711 c 4.3486,0 7.8496,3.5366 7.8496,7.9296 v 48.7547 c 0,4.393 -3.501,7.9296 -7.8496,7.9296 h -53.3711 c -4.3486,0 -7.8495,-3.5366 -7.8495,-7.9296 v -48.7547 c 0,-4.393 3.5009,-7.9296 7.8495,-7.9296 z"
       sodipodi:nodetypes="sssssssss" /><rect
       style="fill:url(#linearGradient263);fill-opacity:1;stroke:#080000;stroke-width:1.5006;stroke-linecap:square;stroke-dasharray:none;stroke-opacity:1"
       id="rect263"
       width="7.1368136"
       height="9.5134115"
       x="-600.12512"
       y="1184.4208"
       rx="3.5684068"
       ry="3.5684068" /></g><path
     id="path283"
     style="fill:none;stroke:#080000;stroke-width:2.05666;stroke-linecap:square"
     d="m 1563.9952,783.01632 h 61.8039 c 5.0358,0 9.09,3.5387 9.09,7.9343 v 48.7837 c 0,4.3957 -4.0542,7.9343 -9.09,7.9343 h -61.8039 c -5.0358,0 -9.0898,-3.5386 -9.0898,-7.9343 v -48.7837 c 0,-4.3956 4.054,-7.9343 9.0898,-7.9343 z"
     sodipodi:nodetypes="sssssssss" /><rect
     style="fill:none;stroke:#080000;stroke-width:1.5006;stroke-linecap:square;stroke-dasharray:none;stroke-opacity:1"
     id="rect283"
     width="31.14547"
     height="60.682007"
     x="1695.9011"
     y="718.3844"
     rx="6.1963267"
     ry="6.1963267" /><rect
     style="fill:none;stroke:#080000;stroke-width:1.5006;stroke-linecap:square;stroke-dasharray:none;stroke-opacity:1"
     id="rect287"
     width="31.14547"
     height="60.682007"
     x="747.95081"
     y="718.3844"
     rx="6.1963267"
     ry="6.1963267" /><rect
     style="fill:url(#linearGradient424);fill-opacity:1;stroke:#080000;stroke-width:1.5006;stroke-linecap:square;stroke-dasharray:none;stroke-opacity:1"
     id="rect302"
     width="7.1368136"
     height="9.5134115"
     x="1701.3518"
     y="743.13025"
     rx="3.5684068"
     ry="3.5684068" /><path
     style="fill:none;stroke:#000000;stroke-width:2.00976px;stroke-linecap:butt;stroke-linejoin:miter;stroke-opacity:1"
     d="m 768.6454,742.96522 v 11.4546"
     id="path386" /><path
     style="fill:none;stroke:#000000;stroke-width:2.00976px;stroke-linecap:butt;stroke-linejoin:miter;stroke-opacity:1"
     d="m 1717.6232,743.04252 v 11.4546"
     id="path389" /><path
     id="path390"
     style="fill:none;stroke:#080000;stroke-width:1.91064;stroke-linecap:square"
     d="m 615.4239,783.03552 h 53.3711 c 4.3486,0 7.8496,3.5366 7.8496,7.9296 v 48.7547 c 0,4.393 -3.501,7.9296 -7.8496,7.9296 h -53.3711 c -4.3486,0 -7.8495,-3.5366 -7.8495,-7.9296 v -48.7547 c 0,-4.393 3.5009,-7.9296 7.8495,-7.9296 z"
     sodipodi:nodetypes="sssssssss" /><rect
     style="fill:url(#linearGradient501);fill-opacity:1;stroke:#080000;stroke-width:1.5006;stroke-linecap:square;stroke-dasharray:none;stroke-opacity:1"
     id="rect401"
     width="7.1368136"
     height="9.5134115"
     x="1567.4718"
     y="672.4502"
     rx="3.5684068"
     ry="3.5684068" /><rect
     style="fill:url(#linearGradient502);fill-opacity:1;stroke:#080000;stroke-width:1.5006;stroke-linecap:square;stroke-dasharray:none;stroke-opacity:1"
     id="rect402"
     width="7.1368136"
     height="9.5134115"
     x="1550.1969"
     y="672.4502"
     rx="3.5684068"
     ry="3.5684068" /><text
     xml:space="preserve"
     style="font-size:66.6667px;line-height:0;font-family:'TeX Gyre Heros';-inkscape-font-specification:'TeX Gyre Heros';text-decoration-color:#000000;letter-spacing:0px;word-spacing:0px;fill:#000000;stroke-width:0.167116;-inkscape-stroke:none;stop-color:#000000"
     x="1153.3922"
     y="1283.9586"
     id="text1"><tspan
       sodipodi:role="line"
       id="tspan1"
       x="1153.3922"
       y="1283.9586"
       style="font-style:normal;font-variant:normal;font-weight:normal;font-stretch:normal;font-size:66.6667px;font-family:AmarilloUSAF;-inkscape-font-specification:AmarilloUSAF;stroke-width:0.167116">U.S. AIR FORCE</tspan></text><text
     xml:space="preserve"
     style="font-size:66.6667px;line-height:0;font-family:'TeX Gyre Heros';-inkscape-font-specification:'TeX Gyre Heros';text-decoration-color:#000000;letter-spacing:0px;word-spacing:0px;fill:#000000;stroke-width:0.167116;-inkscape-stroke:none;stop-color:#000000"
     x="-1546.7256"
     y="762.71393"
     id="text2"
     transform="scale(-1,1)"><tspan
       sodipodi:role="line"
       id="tspan2"
       x="-1546.7256"
       y="762.71393"
       style="font-style:normal;font-variant:normal;font-weight:normal;font-stretch:normal;font-size:66.6667px;font-family:AmarilloUSAF;-inkscape-font-specification:AmarilloUSAF;stroke-width:0.167116">U.S. AIR FORCE</tspan></text><g
     id="g18"
     transform="matrix(0.46296296,0,0,0.46296296,594.88728,1235.696)"><rect
       style="fill:#1a1e3b"
       x="2.3492801"
       y="33.169998"
       height="36"
       width="199.30144"
       id="rect11" /><circle
       fill="#1a1e3b"
       cx="102"
       cy="54"
       r="54"
       id="circle11" /><rect
       style="fill:#ffffff"
       x="8.3492804"
       y="39.169998"
       height="24"
       width="187.30144"
       id="rect12" /><rect
       style="fill:#8f1700"
       x="8.3492804"
       y="47.169998"
       height="8"
       width="187.30144"
       id="rect13" /><circle
       fill="#1a1e3b"
       cx="102"
       cy="54"
       r="48"
       id="circle13" /><g
       transform="matrix(48,0,0,48,102,54)"
       fill="#ffffff"
       id="g17"><g
         id="g13"><polygon
           id="polygon13"
           points="0,1 0.5,1 0,0 "
           transform="rotate(18,3.1568758,-0.5)" /><use
           xlink:href="#triangle"
           transform="scale(-1,1)"
           id="use13" /></g><use
         xlink:href="#cone"
         transform="rotate(72)"
         id="use14" /><use
         xlink:href="#cone"
         transform="rotate(-72)"
         id="use15" /><use
         xlink:href="#cone"
         transform="rotate(144)"
         id="use16" /><use
         xlink:href="#cone"
         transform="rotate(-144)"
         id="use17" /></g></g><path
     style="fill:#000000;stroke:none;stroke-width:1px;stroke-linecap:butt;stroke-linejoin:miter;stroke-opacity:1"
     d="m 1839.8125,680.01172 141.0907,51.28711 11.9127,-2.89066 -98.0476,-52.23738 -1.0398,0.48937 -8.7246,2.25976 -2.541,0.17188 -12.8613,0.87109 -14.2344,0.17188 -1.4961,0.0176 z"
     id="path1"
     sodipodi:nodetypes="ccccccccccc" /><path
     style="fill:#000000;stroke:none;stroke-width:1px;stroke-linecap:butt;stroke-linejoin:miter;stroke-opacity:1"
     d="m 1839.8125,1192.0118 141.0907,51.2871 11.9127,-2.8907 -98.0476,-52.2373 -1.0398,0.4893 -8.7246,2.2598 -2.541,0.1719 -12.8613,0.8711 -14.2344,0.1718 -1.4961,0.018 z"
     id="path2"
     sodipodi:nodetypes="ccccccccccc" /></svg>
