<?xml version="1.0" encoding="UTF-8" standalone="no"?>
<svg
   width="1024"
   height="1024"
   viewBox="0 0 1024 1024"
   version="1.1"
   id="svg53"
   sodipodi:docname="Left_wing_UV.svg"
   inkscape:version="1.3.2 (091e20ef0f, 2023-11-25, custom)"
   xmlns:inkscape="http://www.inkscape.org/namespaces/inkscape"
   xmlns:sodipodi="http://sodipodi.sourceforge.net/DTD/sodipodi-0.dtd"
   xmlns="http://www.w3.org/2000/svg"
   xmlns:svg="http://www.w3.org/2000/svg">
  <defs
     id="defs53" />
  <sodipodi:namedview
     id="namedview53"
     pagecolor="#505050"
     bordercolor="#ffffff"
     borderopacity="1"
     inkscape:showpageshadow="0"
     inkscape:pageopacity="0"
     inkscape:pagecheckerboard="1"
     inkscape:deskcolor="#d1d1d1"
     inkscape:zoom="0.32656862"
     inkscape:cx="1178.9253"
     inkscape:cy="408.79617"
     inkscape:window-width="1366"
     inkscape:window-height="724"
     inkscape:window-x="-1"
     inkscape:window-y="-1"
     inkscape:window-maximized="1"
     inkscape:current-layer="svg53" />
  <desc
     id="desc1">Boeing_747_YAL1.blend, (Blender 3.3.9)</desc>
  <polygon
     stroke="black"
     stroke-width="1"
     fill="rgb(204, 204, 204)"
     fill-opacity="1"
     points="33.517,794.491 245.708,1002.202 237.981,974.555 48.514,788.752 "
     id="polygon1" />
  <polygon
     stroke="black"
     stroke-width="1"
     fill="rgb(204, 204, 204)"
     fill-opacity="1"
     points="536.181,679.423 537.954,147.099 520.663,176.701 526.901,674.919 "
     id="polygon2" />
  <polygon
     stroke="black"
     stroke-width="1"
     fill="rgb(204, 204, 204)"
     fill-opacity="1"
     points="245.708,75.185 191.461,26.087 183.452,68.522 226.960,107.902 "
     id="polygon3" />
  <polygon
     stroke="black"
     stroke-width="1"
     fill="rgb(204, 204, 204)"
     fill-opacity="1"
     points="469.703,340.557 311.816,487.364 351.000,738.208 388.902,971.814 435.539,931.110 "
     id="polygon4" />
  <polygon
     stroke="black"
     stroke-width="1"
     fill="rgb(204, 204, 204)"
     fill-opacity="1"
     points="239.240,679.733 95.061,554.042 48.514,788.752 237.981,974.555 "
     id="polygon5" />
  <polygon
     stroke="black"
     stroke-width="1"
     fill="rgb(204, 204, 204)"
     fill-opacity="1"
     points="504.829,526.970 491.820,1022.561 500.488,1015.993 513.549,529.660 "
     id="polygon6" />
  <polygon
     stroke="black"
     stroke-width="1"
     fill="rgb(204, 204, 204)"
     fill-opacity="1"
     points="279.201,198.655 471.883,22.916 468.891,1.439 248.586,208.096 "
     id="polygon7" />
  <polygon
     stroke="black"
     stroke-width="1"
     fill="rgb(204, 204, 204)"
     fill-opacity="1"
     points="505.712,497.840 504.829,526.970 513.549,529.660 514.835,497.538 "
     id="polygon8" />
  <polygon
     stroke="black"
     stroke-width="1"
     fill="rgb(204, 204, 204)"
     fill-opacity="1"
     points="226.960,107.902 183.452,68.522 143.802,291.201 103.580,524.791 238.886,655.804 "
     id="polygon9" />
  <polygon
     stroke="black"
     stroke-width="1"
     fill="rgb(204, 204, 204)"
     fill-opacity="1"
     points="471.883,315.347 301.579,457.861 311.816,487.364 469.703,340.557 "
     id="polygon10" />
  <polygon
     stroke="black"
     stroke-width="1"
     fill="rgb(204, 204, 204)"
     fill-opacity="1"
     points="535.889,705.423 536.181,679.423 527.003,674.885 526.632,699.192 "
     id="polygon11" />
  <polygon
     stroke="black"
     stroke-width="1"
     fill="rgb(204, 204, 204)"
     fill-opacity="1"
     points="529.411,1016.812 535.889,705.423 526.632,699.192 517.713,990.926 "
     id="polygon12" />
  <polygon
     stroke="black"
     stroke-width="1"
     fill="rgb(204, 204, 204)"
     fill-opacity="1"
     points="463.076,46.514 290.678,203.524 301.579,457.861 471.883,315.347 "
     id="polygon13" />
  <polygon
     stroke="black"
     stroke-width="1"
     fill="rgb(204, 204, 204)"
     fill-opacity="1"
     points="489.962,168.610 505.712,497.840 514.835,497.538 514.835,167.404 "
     id="polygon14" />
  <polygon
     stroke="black"
     stroke-width="1"
     fill="rgb(204, 204, 204)"
     fill-opacity="1"
     points="304.419,498.928 294.215,476.288 283.186,497.661 294.474,517.958 "
     id="polygon15" />
  <polygon
     stroke="black"
     stroke-width="1"
     fill="rgb(204, 204, 204)"
     fill-opacity="1"
     points="238.886,655.804 103.580,524.791 95.061,554.042 239.240,679.733 "
     id="polygon16" />
  <polygon
     stroke="black"
     stroke-width="1"
     fill="rgb(204, 204, 204)"
     fill-opacity="1"
     points="94.174,514.320 85.462,537.772 95.061,554.042 103.580,524.791 "
     id="polygon17" />
  <polygon
     stroke="black"
     stroke-width="1"
     fill="rgb(204, 204, 204)"
     fill-opacity="1"
     points="80.892,496.592 70.165,518.489 85.462,537.772 94.174,514.320 "
     id="polygon18" />
  <polygon
     stroke="black"
     stroke-width="1"
     fill="rgb(204, 204, 204)"
     fill-opacity="1"
     points="548.494,1022.561 548.405,715.752 535.889,705.423 529.411,1016.812 "
     id="polygon19" />
  <polygon
     stroke="black"
     stroke-width="1"
     fill="rgb(204, 204, 204)"
     fill-opacity="1"
     points="548.405,715.752 548.494,685.911 536.181,679.423 535.889,705.423 "
     id="polygon20" />
  <polygon
     stroke="black"
     stroke-width="1"
     fill="rgb(204, 204, 204)"
     fill-opacity="1"
     points="548.494,685.911 547.071,155.519 537.954,147.099 536.181,679.423 "
     id="polygon21" />
  <polygon
     stroke="black"
     stroke-width="1"
     fill="rgb(204, 204, 204)"
     fill-opacity="1"
     points="1.439,782.823 244.735,1022.561 245.708,1002.202 33.517,794.491 "
     id="polygon22" />
  <polygon
     stroke="black"
     stroke-width="1"
     fill="rgb(204, 204, 204)"
     fill-opacity="1"
     points="311.816,487.364 301.579,457.861 294.215,476.288 304.419,498.928 "
     id="polygon23" />
  <polygon
     stroke="black"
     stroke-width="1"
     fill="rgb(204, 204, 204)"
     fill-opacity="1"
     points="474.761,194.210 498.250,499.652 505.712,497.840 489.962,168.610 "
     id="polygon24" />
  <polygon
     stroke="black"
     stroke-width="1"
     fill="rgb(204, 204, 204)"
     fill-opacity="1"
     points="498.250,499.652 496.890,527.443 504.829,526.970 505.712,497.840 "
     id="polygon25" />
  <polygon
     stroke="black"
     stroke-width="1"
     fill="rgb(204, 204, 204)"
     fill-opacity="1"
     points="290.678,203.524 463.076,46.514 471.883,22.916 279.201,198.655 "
     id="polygon26" />
  <polygon
     stroke="black"
     stroke-width="1"
     fill="rgb(204, 204, 204)"
     fill-opacity="1"
     points="496.890,527.443 475.560,994.038 491.820,1022.561 504.829,526.970 "
     id="polygon27" />
  <polygon
     stroke="black"
     stroke-width="1"
     fill="rgb(204, 204, 204)"
     fill-opacity="1"
     points="435.539,931.110 388.902,971.814 392.695,1022.561 455.918,967.381 "
     id="polygon28" />
  <polygon
     stroke="black"
     stroke-width="1"
     fill="rgb(204, 204, 204)"
     fill-opacity="1"
     points="33.517,794.491 48.514,788.752 95.061,554.042 82.781,556.396 1.439,782.823 "
     id="polygon29" />
  <polygon
     stroke="black"
     stroke-width="1"
     fill="rgb(204, 204, 204)"
     fill-opacity="1"
     points="294.215,476.288 301.579,457.861 288.943,459.101 283.186,497.661 "
     id="polygon30" />
  <polygon
     stroke="black"
     stroke-width="1"
     fill="rgb(204, 204, 204)"
     fill-opacity="1"
     points="248.586,208.096 288.943,459.101 301.579,457.861 290.678,203.524 279.201,198.655 "
     id="polygon31" />
  <polygon
     stroke="black"
     stroke-width="1"
     fill="rgb(204, 204, 204)"
     fill-opacity="1"
     points="304.419,498.928 294.474,517.958 318.607,494.338 311.816,487.364 "
     id="polygon32" />
  <polygon
     stroke="black"
     stroke-width="1"
     fill="rgb(204, 204, 204)"
     fill-opacity="1"
     points="626.229,1022.561 636.091,1017.079 633.077,1015.564 626.242,1021.933 "
     id="polygon33" />
  <polygon
     stroke="black"
     stroke-width="1"
     fill="rgb(204, 204, 204)"
     fill-opacity="1"
     points="70.165,518.489 82.781,556.396 95.061,554.042 85.462,537.772 "
     id="polygon34" />
  <polygon
     stroke="black"
     stroke-width="1"
     fill="rgb(204, 204, 204)"
     fill-opacity="1"
     points="109.525,516.509 80.892,496.592 94.174,514.320 103.580,524.791 "
     id="polygon35" />
  <polygon
     stroke="black"
     stroke-width="1"
     fill="rgb(204, 204, 204)"
     fill-opacity="1"
     points="589.293,885.808 551.372,932.333 553.097,932.049 590.358,888.454 "
     id="polygon36" />
  <polygon
     stroke="black"
     stroke-width="1"
     fill="rgb(204, 204, 204)"
     fill-opacity="1"
     points="636.091,1017.079 636.091,890.888 632.137,894.988 633.077,1015.564 "
     id="polygon37" />
  <polygon
     stroke="black"
     stroke-width="1"
     fill="rgb(204, 204, 204)"
     fill-opacity="1"
     points="590.358,888.454 553.097,932.049 554.699,931.828 591.477,891.756 "
     id="polygon38" />
  <polygon
     stroke="black"
     stroke-width="1"
     fill="rgb(204, 204, 204)"
     fill-opacity="1"
     points="551.372,932.333 618.861,1018.312 619.210,1017.957 553.097,932.049 "
     id="polygon39" />
  <polygon
     stroke="black"
     stroke-width="1"
     fill="rgb(204, 204, 204)"
     fill-opacity="1"
     points="618.861,1018.312 626.229,1022.561 626.242,1021.933 619.210,1017.957 "
     id="polygon40" />
  <polygon
     stroke="black"
     stroke-width="1"
     fill="rgb(204, 204, 204)"
     fill-opacity="1"
     points="636.091,890.888 589.293,885.808 590.358,888.454 632.137,894.988 "
     id="polygon41" />
  <polygon
     stroke="black"
     stroke-width="1"
     fill="rgb(204, 204, 204)"
     fill-opacity="1"
     points="627.608,899.131 591.477,891.756 601.338,936.955 602.145,937.982 "
     id="polygon42" />
  <polygon
     stroke="black"
     stroke-width="1"
     fill="rgb(204, 204, 204)"
     fill-opacity="1"
     points="619.210,1017.957 626.242,1021.933 626.000,1021.164 619.703,1017.477 "
     id="polygon43" />
  <polygon
     stroke="black"
     stroke-width="1"
     fill="rgb(204, 204, 204)"
     fill-opacity="1"
     points="626.242,1021.933 633.077,1015.564 629.748,1014.742 626.000,1021.164 "
     id="polygon44" />
  <polygon
     stroke="black"
     stroke-width="1"
     fill="rgb(204, 204, 204)"
     fill-opacity="1"
     points="632.137,894.988 590.358,888.454 591.477,891.756 627.608,899.131 "
     id="polygon45" />
  <polygon
     stroke="black"
     stroke-width="1"
     fill="rgb(204, 204, 204)"
     fill-opacity="1"
     points="553.097,932.049 619.210,1017.957 619.703,1017.477 554.699,931.828 "
     id="polygon46" />
  <polygon
     stroke="black"
     stroke-width="1"
     fill="rgb(204, 204, 204)"
     fill-opacity="1"
     points="633.077,1015.564 632.137,894.988 627.608,899.131 629.748,1014.742 "
     id="polygon47" />
  <polygon
     stroke="black"
     stroke-width="1"
     fill="rgb(204, 204, 204)"
     fill-opacity="1"
     points="554.699,931.828 619.703,1017.477 604.561,952.021 601.209,939.143 "
     id="polygon48" />
  <polygon
     stroke="black"
     stroke-width="1"
     fill="rgb(204, 204, 204)"
     fill-opacity="1"
     points="629.748,1014.742 627.608,899.131 602.145,937.982 606.328,951.349 "
     id="polygon49" />
  <polygon
     stroke="black"
     stroke-width="1"
     fill="rgb(204, 204, 204)"
     fill-opacity="1"
     points="591.477,891.756 554.699,931.828 601.209,939.143 601.338,936.955 "
     id="polygon50" />
  <polygon
     stroke="black"
     stroke-width="1"
     fill="rgb(204, 204, 204)"
     fill-opacity="1"
     points="619.703,1017.477 626.000,1021.164 605.726,953.393 604.561,952.021 "
     id="polygon51" />
  <polygon
     stroke="black"
     stroke-width="1"
     fill="rgb(204, 204, 204)"
     fill-opacity="1"
     points="626.000,1021.164 629.748,1014.742 606.328,951.349 605.726,953.393 "
     id="polygon52" />
  <polygon
     stroke="black"
     stroke-width="1"
     fill="rgb(204, 204, 204)"
     fill-opacity="1"
     points="551.372,874.463 552.910,882.930 554.274,871.928 554.274,842.880 554.028,839.682 551.372,842.880 "
     id="polygon53" />
</svg>
