<?xml version="1.0" encoding="UTF-8" standalone="no"?>
<svg
   width="1024"
   height="1024"
   viewBox="0 0 1024 1024"
   version="1.1"
   id="svg53"
   sodipodi:docname="Left_wing.svg"
   xml:space="preserve"
   inkscape:version="1.3.2 (091e20ef0f, 2023-11-25, custom)"
   xmlns:inkscape="http://www.inkscape.org/namespaces/inkscape"
   xmlns:sodipodi="http://sodipodi.sourceforge.net/DTD/sodipodi-0.dtd"
   xmlns:xlink="http://www.w3.org/1999/xlink"
   xmlns="http://www.w3.org/2000/svg"
   xmlns:svg="http://www.w3.org/2000/svg"><defs
     id="defs53"><linearGradient
       id="linearGradient45"
       inkscape:collect="always"><stop
         style="stop-color:#808080;stop-opacity:1;"
         offset="0"
         id="stop45" /><stop
         style="stop-color:#d8d8d8;stop-opacity:1;"
         offset="0.5"
         id="stop47" /><stop
         style="stop-color:#808080;stop-opacity:1;"
         offset="1"
         id="stop46" /></linearGradient><linearGradient
       inkscape:collect="always"
       xlink:href="#linearGradient45"
       id="linearGradient55"
       x1="474.76172"
       y1="594.98242"
       x2="514.83594"
       y2="594.98242"
       gradientUnits="userSpaceOnUse" /><linearGradient
       inkscape:collect="always"
       xlink:href="#linearGradient45"
       id="linearGradient57"
       x1="517.71289"
       y1="584.83008"
       x2="554.27344"
       y2="584.83008"
       gradientUnits="userSpaceOnUse" /></defs><sodipodi:namedview
     id="namedview53"
     pagecolor="#505050"
     bordercolor="#ffffff"
     borderopacity="1"
     inkscape:showpageshadow="0"
     inkscape:pageopacity="0"
     inkscape:pagecheckerboard="1"
     inkscape:deskcolor="#d1d1d1"
     inkscape:zoom="0.32656862"
     inkscape:cx="1178.9253"
     inkscape:cy="408.79617"
     inkscape:window-width="1366"
     inkscape:window-height="724"
     inkscape:window-x="-1"
     inkscape:window-y="-1"
     inkscape:window-maximized="1"
     inkscape:current-layer="svg53" /><desc
     id="desc1">Boeing_747_YAL1.blend, (Blender 3.3.9)</desc><rect
     style="opacity:1;fill:#ffffff;stroke:none"
     id="rect58"
     width="1024"
     height="1024"
     x="0"
     y="0" /><path
     id="polygon1"
     d="M 191.46094 26.087891 L 183.45117 68.521484 L 143.80273 291.20117 L 105.49023 513.70312 L 80.892578 496.5918 L 70.164062 518.48828 L 82.78125 556.39648 L 1.4394531 782.82227 L 244.73438 1022.5605 L 245.70703 1002.2012 L 237.98047 974.55469 L 239.24023 679.73242 L 238.88672 655.80469 L 226.96094 107.90234 L 245.70703 75.185547 L 191.46094 26.087891 z "
     style="fill:#b3b3b3" /><path
     id="polygon2"
     d="M 537.95312 147.09961 L 520.66211 176.70117 L 526.90039 674.91992 L 527.00195 674.96875 L 526.63281 699.19141 L 517.71289 990.92578 L 529.41016 1016.8125 L 548.49414 1022.5605 L 548.4043 715.75195 L 548.49414 685.91016 L 547.07031 155.51953 L 537.95312 147.09961 z M 554.02734 839.68164 L 551.37109 842.88086 L 551.37109 874.46289 L 552.91016 882.92969 L 554.27344 871.92773 L 554.27344 842.88086 L 554.02734 839.68164 z "
     style="fill:url(#linearGradient57)" /><path
     id="polygon4"
     d="M 468.89062 1.4394531 L 248.58594 208.0957 L 288.94336 459.10156 L 283.18555 497.66016 L 294.47461 517.95703 L 313.66211 499.17773 L 351 738.20703 L 388.90234 971.81445 L 392.69531 1022.5605 L 455.91797 967.38086 L 435.53906 931.10938 L 469.70312 340.55664 L 471.88281 315.34766 L 463.07617 46.513672 L 471.88281 22.916016 L 468.89062 1.4394531 z "
     style="fill:#b3b3b3" /><path
     id="polygon6"
     d="M 514.83594 167.4043 L 489.96289 168.60938 L 474.76172 194.21094 L 498.25 499.65234 L 496.89062 527.44336 L 475.56055 994.03711 L 491.82031 1022.5605 L 500.48828 1015.9922 L 513.54883 529.66016 L 514.83594 497.53711 L 514.83594 167.4043 z "
     style="fill:url(#linearGradient55)" /><polygon
     stroke="black"
     stroke-width="1"
     fill="rgb(204, 204, 204)"
     fill-opacity="1"
     points="626.229,1022.561 636.091,1017.079 633.077,1015.564 626.242,1021.933 "
     id="polygon33" /><polygon
     stroke="black"
     stroke-width="1"
     fill="rgb(204, 204, 204)"
     fill-opacity="1"
     points="589.293,885.808 551.372,932.333 553.097,932.049 590.358,888.454 "
     id="polygon36" /><polygon
     stroke="black"
     stroke-width="1"
     fill="rgb(204, 204, 204)"
     fill-opacity="1"
     points="636.091,1017.079 636.091,890.888 632.137,894.988 633.077,1015.564 "
     id="polygon37" /><polygon
     stroke="black"
     stroke-width="1"
     fill="rgb(204, 204, 204)"
     fill-opacity="1"
     points="590.358,888.454 553.097,932.049 554.699,931.828 591.477,891.756 "
     id="polygon38" /><polygon
     stroke="black"
     stroke-width="1"
     fill="rgb(204, 204, 204)"
     fill-opacity="1"
     points="551.372,932.333 618.861,1018.312 619.210,1017.957 553.097,932.049 "
     id="polygon39" /><polygon
     stroke="black"
     stroke-width="1"
     fill="rgb(204, 204, 204)"
     fill-opacity="1"
     points="618.861,1018.312 626.229,1022.561 626.242,1021.933 619.210,1017.957 "
     id="polygon40" /><polygon
     stroke="black"
     stroke-width="1"
     fill="rgb(204, 204, 204)"
     fill-opacity="1"
     points="636.091,890.888 589.293,885.808 590.358,888.454 632.137,894.988 "
     id="polygon41" /><polygon
     stroke="black"
     stroke-width="1"
     fill="rgb(204, 204, 204)"
     fill-opacity="1"
     points="627.608,899.131 591.477,891.756 601.338,936.955 602.145,937.982 "
     id="polygon42" /><polygon
     stroke="black"
     stroke-width="1"
     fill="rgb(204, 204, 204)"
     fill-opacity="1"
     points="619.210,1017.957 626.242,1021.933 626.000,1021.164 619.703,1017.477 "
     id="polygon43" /><polygon
     stroke="black"
     stroke-width="1"
     fill="rgb(204, 204, 204)"
     fill-opacity="1"
     points="626.242,1021.933 633.077,1015.564 629.748,1014.742 626.000,1021.164 "
     id="polygon44" /><polygon
     stroke="black"
     stroke-width="1"
     fill="rgb(204, 204, 204)"
     fill-opacity="1"
     points="632.137,894.988 590.358,888.454 591.477,891.756 627.608,899.131 "
     id="polygon45" /><polygon
     stroke="black"
     stroke-width="1"
     fill="rgb(204, 204, 204)"
     fill-opacity="1"
     points="553.097,932.049 619.210,1017.957 619.703,1017.477 554.699,931.828 "
     id="polygon46" /><polygon
     stroke="black"
     stroke-width="1"
     fill="rgb(204, 204, 204)"
     fill-opacity="1"
     points="633.077,1015.564 632.137,894.988 627.608,899.131 629.748,1014.742 "
     id="polygon47" /><polygon
     stroke="black"
     stroke-width="1"
     fill="rgb(204, 204, 204)"
     fill-opacity="1"
     points="554.699,931.828 619.703,1017.477 604.561,952.021 601.209,939.143 "
     id="polygon48" /><polygon
     stroke="black"
     stroke-width="1"
     fill="rgb(204, 204, 204)"
     fill-opacity="1"
     points="629.748,1014.742 627.608,899.131 602.145,937.982 606.328,951.349 "
     id="polygon49" /><polygon
     stroke="black"
     stroke-width="1"
     fill="rgb(204, 204, 204)"
     fill-opacity="1"
     points="591.477,891.756 554.699,931.828 601.209,939.143 601.338,936.955 "
     id="polygon50" /><polygon
     stroke="black"
     stroke-width="1"
     fill="rgb(204, 204, 204)"
     fill-opacity="1"
     points="619.703,1017.477 626.000,1021.164 605.726,953.393 604.561,952.021 "
     id="polygon51" /><polygon
     stroke="black"
     stroke-width="1"
     fill="rgb(204, 204, 204)"
     fill-opacity="1"
     points="626.000,1021.164 629.748,1014.742 606.328,951.349 605.726,953.393 "
     id="polygon52" /><path
     style="fill:#808080;stroke:none;stroke-width:1px;stroke-linecap:butt;stroke-linejoin:miter;stroke-opacity:1"
     d="m 194.65135,76.836902 19.22564,20.037681 V 992.15422 L 45.49059,823.76781 123.57324,524.3242 Z"
     id="path57"
     sodipodi:nodetypes="cccccc" /><path
     style="fill:#808080;stroke:none;stroke-width:1px;stroke-linecap:butt;stroke-linejoin:miter;stroke-opacity:1"
     d="M 423.85019,939.72255 448.65463,317.84887 439.66961,28.850146 277.23846,181.21828 402.31478,972.05951 Z"
     id="path58"
     sodipodi:nodetypes="cccccc" /><text
     xml:space="preserve"
     style="font-size:41.6667px;line-height:0;font-family:'TeX Gyre Heros';-inkscape-font-specification:'TeX Gyre Heros';text-decoration-color:#000000;letter-spacing:0px;word-spacing:0px;fill:#000000;stroke-width:0.208894;-inkscape-stroke:none;stop-color:#000000"
     x="259.30069"
     y="-177.75584"
     id="text58"
     transform="rotate(90)"><tspan
       sodipodi:role="line"
       id="tspan58"
       x="259.30069"
       y="-177.75584"
       style="font-style:normal;font-variant:normal;font-weight:normal;font-stretch:normal;font-size:41.6667px;font-family:AmarilloUSAF;-inkscape-font-specification:AmarilloUSAF;stroke-width:0.208894">USAF</tspan></text></svg>
