<?xml version="1.0" encoding="UTF-8" standalone="no"?>
<svg
   width="1024"
   height="1024"
   viewBox="0 0 1024 1024"
   version="1.1"
   id="svg47"
   sodipodi:docname="Right_wing.svg"
   xml:space="preserve"
   inkscape:version="1.3.2 (091e20ef0f, 2023-11-25, custom)"
   xmlns:inkscape="http://www.inkscape.org/namespaces/inkscape"
   xmlns:sodipodi="http://sodipodi.sourceforge.net/DTD/sodipodi-0.dtd"
   xmlns:xlink="http://www.w3.org/1999/xlink"
   xmlns="http://www.w3.org/2000/svg"
   xmlns:svg="http://www.w3.org/2000/svg"><defs
     id="defs47"><linearGradient
       id="linearGradient45"
       inkscape:collect="always"><stop
         style="stop-color:#808080;stop-opacity:1;"
         offset="0"
         id="stop45" /><stop
         style="stop-color:#d8d8d8;stop-opacity:1;"
         offset="0.5"
         id="stop47" /><stop
         style="stop-color:#808080;stop-opacity:1;"
         offset="1"
         id="stop46" /></linearGradient><linearGradient
       inkscape:collect="always"
       xlink:href="#linearGradient45"
       id="linearGradient49"
       x1="518.72852"
       y1="574.82129"
       x2="550.46484"
       y2="574.82129"
       gradientUnits="userSpaceOnUse" /><linearGradient
       inkscape:collect="always"
       xlink:href="#linearGradient45"
       id="linearGradient51"
       x1="474.73242"
       y1="584.31738"
       x2="515.75195"
       y2="584.31738"
       gradientUnits="userSpaceOnUse" /></defs><sodipodi:namedview
     id="namedview47"
     pagecolor="#505050"
     bordercolor="#ffffff"
     borderopacity="1"
     inkscape:showpageshadow="0"
     inkscape:pageopacity="0"
     inkscape:pagecheckerboard="1"
     inkscape:deskcolor="#d1d1d1"
     inkscape:zoom="0.24072266"
     inkscape:cx="1005.3063"
     inkscape:cy="346.87221"
     inkscape:window-width="1366"
     inkscape:window-height="724"
     inkscape:window-x="-1"
     inkscape:window-y="-1"
     inkscape:window-maximized="1"
     inkscape:current-layer="svg47" /><desc
     id="desc1">Boeing_747_YAL1.blend, (Blender 3.3.9)</desc><path
     id="polygon1"
     d="M 244.75195 26.179688 L 1.4882812 265.48438 L 82.5625 491.76172 L 69.925781 529.62109 L 80.625 551.50586 L 105.21289 534.43359 L 143.30273 756.75195 L 182.72852 979.25195 L 191.4707 1022.5117 L 245.70508 973.50586 L 226.22656 939.94531 L 238.60156 392.57812 L 238.97461 368.67383 L 237.96289 74.134766 L 245.70508 46.519531 L 244.75195 26.179688 z "
     style="fill:#b3b3b3" /><path
     id="polygon2"
     d="M 550.46484 127.13086 L 530.85742 132.93359 L 518.72852 159.43164 L 526.42383 458.75586 L 526.67383 483.70508 L 520.94922 991.58203 L 539.33203 1022.5117 L 550.46484 1012.2305 L 548.78516 472.49219 L 548.8418 441.875 L 550.46484 127.13086 z "
     style="fill:url(#linearGradient49)" /><path
     id="polygon4"
     d="M 393.44922 1.4882812 L 388.85742 53.103516 L 350.99414 286.47656 L 313.69336 525.26758 L 294.52344 506.50781 L 283.24805 526.7832 L 289 565.30664 L 248.68359 816.06055 L 468.76758 1022.5117 L 471.75781 1001.0566 L 462.95703 977.48047 L 471.75781 708.91602 L 469.57812 683.73242 L 435.44922 93.767578 L 456.60938 56.613281 L 393.44922 1.4882812 z "
     style="fill:#b3b3b3" /><path
     id="polygon6"
     d="M 493.22266 146.12305 L 475.89062 176.07227 L 497.38672 653.98242 L 498.77539 682.42773 L 474.73242 995.07227 L 490.29297 1021.2773 L 515.75195 1022.5117 L 515.75195 684.5918 L 514.43359 651.71875 L 504.01758 155.18359 L 493.22266 146.12305 z "
     style="fill:url(#linearGradient51)" /><polygon
     stroke="black"
     stroke-width="1"
     fill="rgb(204, 204, 204)"
     fill-opacity="1"
     points="602.319,892.569 600.913,876.194 599.923,876.236 601.134,892.659 "
     id="polygon35" /><polygon
     stroke="black"
     stroke-width="1"
     fill="rgb(204, 204, 204)"
     fill-opacity="1"
     points="601.134,892.659 599.923,876.236 553.574,807.834 553.807,813.590 "
     id="polygon36" /><polygon
     stroke="black"
     stroke-width="1"
     fill="rgb(204, 204, 204)"
     fill-opacity="1"
     points="555.171,911.880 553.440,932.229 557.252,932.213 557.457,911.978 "
     id="polygon37" /><polygon
     stroke="black"
     stroke-width="1"
     fill="rgb(204, 204, 204)"
     fill-opacity="1"
     points="557.621,1007.224 562.228,1022.512 563.362,1022.300 561.429,1006.722 "
     id="polygon38" /><polygon
     stroke="black"
     stroke-width="1"
     fill="rgb(204, 204, 204)"
     fill-opacity="1"
     points="553.440,932.229 557.621,1007.224 561.429,1006.722 557.252,932.213 "
     id="polygon39" /><polygon
     stroke="black"
     stroke-width="1"
     fill="rgb(204, 204, 204)"
     fill-opacity="1"
     points="600.289,814.607 602.319,786.643 599.915,786.541 599.297,814.591 "
     id="polygon40" /><polygon
     stroke="black"
     stroke-width="1"
     fill="rgb(204, 204, 204)"
     fill-opacity="1"
     points="600.913,876.194 600.289,814.607 599.297,814.591 599.923,876.236 "
     id="polygon41" /><polygon
     stroke="black"
     stroke-width="1"
     fill="rgb(204, 204, 204)"
     fill-opacity="1"
     points="603.058,903.658 603.312,932.327 604.709,938.568 606.104,932.621 606.104,905.822 603.739,895.635 "
     id="polygon42" /><polygon
     stroke="black"
     stroke-width="1"
     fill="rgb(204, 204, 204)"
     fill-opacity="1"
     points="599.297,814.591 599.915,786.541 553.444,769.148 553.440,779.684 "
     id="polygon43" /><polygon
     stroke="black"
     stroke-width="1"
     fill="rgb(204, 204, 204)"
     fill-opacity="1"
     points="557.252,932.213 561.429,1006.722 603.312,932.327 603.058,903.658 "
     id="polygon44" /><polygon
     stroke="black"
     stroke-width="1"
     fill="rgb(204, 204, 204)"
     fill-opacity="1"
     points="599.923,876.236 599.297,814.591 553.440,779.684 553.574,807.834 "
     id="polygon45" /><polygon
     stroke="black"
     stroke-width="1"
     fill="rgb(204, 204, 204)"
     fill-opacity="1"
     points="557.457,911.978 557.252,932.213 603.058,903.658 603.739,895.635 "
     id="polygon46" /><polygon
     stroke="black"
     stroke-width="1"
     fill="rgb(204, 204, 204)"
     fill-opacity="1"
     points="561.429,1006.722 563.362,1022.300 604.709,938.568 603.312,932.327 "
     id="polygon47" /><rect
     style="fill:#ffffff;stroke:none"
     id="rect58"
     width="1024"
     height="1024"
     x="0"
     y="0" /><path
     style="fill:#808080;stroke:none;stroke-width:1px;stroke-linecap:butt;stroke-linejoin:miter;stroke-opacity:1"
     d="m 194.21639,972.29737 19.22564,-20.03768 V 56.980053 L 45.055632,225.36646 123.13828,524.81007 Z"
     id="path57-2"
     sodipodi:nodetypes="cccccc" /><text
     xml:space="preserve"
     style="font-size:41.6667px;line-height:0;font-family:'TeX Gyre Heros';-inkscape-font-specification:'TeX Gyre Heros';text-decoration-color:#000000;letter-spacing:0px;word-spacing:0px;fill:#000000;stroke-width:0.208894;-inkscape-stroke:none;stop-color:#000000"
     x="706.50018"
     y="-177.32089"
     id="text58-6"
     transform="rotate(90)"><tspan
       sodipodi:role="line"
       id="tspan58-1"
       x="706.50018"
       y="-177.32089"
       style="font-style:normal;font-variant:normal;font-weight:normal;font-stretch:normal;font-size:41.6667px;font-family:AmarilloUSAF;-inkscape-font-specification:AmarilloUSAF;stroke-width:0.208894">USAF</tspan></text><path
     style="fill:#808080;stroke:none;stroke-width:1px;stroke-linecap:butt;stroke-linejoin:miter;stroke-opacity:1"
     d="M 424.12174,84.597788 448.92618,706.47148 439.94116,995.47019 277.51001,843.10206 402.58633,52.260838 Z"
     id="path58-8"
     sodipodi:nodetypes="cccccc" /></svg>
