<?xml version="1.0" standalone="no"?>
<!DOCTYPE svg PUBLIC "-//W3C//DTD SVG 1.1//EN" 
  "http://www.w3.org/Graphics/SVG/1.1/DTD/svg11.dtd">
<svg width="1024" height="1024" viewBox="0 0 1024 1024"
     xmlns="http://www.w3.org/2000/svg" version="1.1">
<desc>Boeing_747_YAL1.blend, (Blender 3.3.9)</desc>
<polygon stroke="black" stroke-width="1" fill="rgb(204, 204, 204)" fill-opacity="1" points="33.545,253.854 48.523,259.600 237.963,74.134 245.706,46.520 " />
<polygon stroke="black" stroke-width="1" fill="rgb(204, 204, 204)" fill-opacity="1" points="536.125,479.097 526.674,483.706 520.949,991.582 539.332,1022.512 " />
<polygon stroke="black" stroke-width="1" fill="rgb(204, 204, 204)" fill-opacity="1" points="245.706,973.505 226.227,939.945 182.728,979.251 191.471,1022.512 " />
<polygon stroke="black" stroke-width="1" fill="rgb(204, 204, 204)" fill-opacity="1" points="469.579,683.732 435.450,93.767 388.858,53.104 350.994,286.477 311.850,537.071 " />
<polygon stroke="black" stroke-width="1" fill="rgb(204, 204, 204)" fill-opacity="1" points="238.974,368.674 237.963,74.134 48.523,259.600 94.829,494.124 " />
<polygon stroke="black" stroke-width="1" fill="rgb(204, 204, 204)" fill-opacity="1" points="505.513,654.470 514.434,651.718 504.018,155.184 493.222,146.124 " />
<polygon stroke="black" stroke-width="1" fill="rgb(204, 204, 204)" fill-opacity="1" points="279.267,825.492 248.683,816.061 468.768,1022.512 471.757,1001.056 " />
<polygon stroke="black" stroke-width="1" fill="rgb(204, 204, 204)" fill-opacity="1" points="506.414,684.283 515.752,684.592 514.434,651.718 505.513,654.470 " />
<polygon stroke="black" stroke-width="1" fill="rgb(204, 204, 204)" fill-opacity="1" points="226.227,939.945 238.601,392.579 103.315,523.353 143.303,756.752 182.728,979.251 " />
<polygon stroke="black" stroke-width="1" fill="rgb(204, 204, 204)" fill-opacity="1" points="471.757,708.916 469.579,683.732 311.850,537.071 301.622,566.545 " />
<polygon stroke="black" stroke-width="1" fill="rgb(204, 204, 204)" fill-opacity="1" points="535.950,452.410 526.423,458.756 526.674,483.706 536.125,479.097 " />
<polygon stroke="black" stroke-width="1" fill="rgb(204, 204, 204)" fill-opacity="1" points="530.858,132.934 518.729,159.431 526.423,458.756 535.950,452.410 " />
<polygon stroke="black" stroke-width="1" fill="rgb(204, 204, 204)" fill-opacity="1" points="462.958,977.481 471.757,708.916 301.622,566.545 290.732,820.628 " />
<polygon stroke="black" stroke-width="1" fill="rgb(204, 204, 204)" fill-opacity="1" points="490.293,1021.277 515.752,1022.512 515.752,684.592 506.414,684.283 " />
<polygon stroke="black" stroke-width="1" fill="rgb(204, 204, 204)" fill-opacity="1" points="304.460,525.519 294.524,506.507 283.248,526.784 294.266,548.136 " />
<polygon stroke="black" stroke-width="1" fill="rgb(204, 204, 204)" fill-opacity="1" points="238.601,392.579 238.974,368.674 94.829,494.124 103.315,523.353 " />
<polygon stroke="black" stroke-width="1" fill="rgb(204, 204, 204)" fill-opacity="1" points="93.909,533.807 103.315,523.353 94.829,494.124 85.225,510.369 " />
<polygon stroke="black" stroke-width="1" fill="rgb(204, 204, 204)" fill-opacity="1" points="80.625,551.506 93.909,533.807 85.225,510.369 69.926,529.621 " />
<polygon stroke="black" stroke-width="1" fill="rgb(204, 204, 204)" fill-opacity="1" points="550.464,127.131 530.858,132.934 535.950,452.410 548.842,441.875 " />
<polygon stroke="black" stroke-width="1" fill="rgb(204, 204, 204)" fill-opacity="1" points="548.842,441.875 535.950,452.410 536.125,479.097 548.786,472.492 " />
<polygon stroke="black" stroke-width="1" fill="rgb(204, 204, 204)" fill-opacity="1" points="548.786,472.492 536.125,479.097 539.332,1022.512 550.464,1012.231 " />
<polygon stroke="black" stroke-width="1" fill="rgb(204, 204, 204)" fill-opacity="1" points="1.488,265.484 33.545,253.854 245.706,46.520 244.751,26.180 " />
<polygon stroke="black" stroke-width="1" fill="rgb(204, 204, 204)" fill-opacity="1" points="311.850,537.071 304.460,525.519 294.266,548.136 301.622,566.545 " />
<polygon stroke="black" stroke-width="1" fill="rgb(204, 204, 204)" fill-opacity="1" points="474.733,995.073 490.293,1021.277 506.414,684.283 498.776,682.428 " />
<polygon stroke="black" stroke-width="1" fill="rgb(204, 204, 204)" fill-opacity="1" points="498.776,682.428 506.414,684.283 505.513,654.470 497.387,653.983 " />
<polygon stroke="black" stroke-width="1" fill="rgb(204, 204, 204)" fill-opacity="1" points="290.732,820.628 279.267,825.492 471.757,1001.056 462.958,977.481 " />
<polygon stroke="black" stroke-width="1" fill="rgb(204, 204, 204)" fill-opacity="1" points="497.387,653.983 505.513,654.470 493.222,146.124 475.890,176.073 " />
<polygon stroke="black" stroke-width="1" fill="rgb(204, 204, 204)" fill-opacity="1" points="435.450,93.767 456.610,56.613 393.450,1.488 388.858,53.104 " />
<polygon stroke="black" stroke-width="1" fill="rgb(204, 204, 204)" fill-opacity="1" points="33.545,253.854 1.488,265.484 82.562,491.761 94.829,494.124 48.523,259.600 " />
<polygon stroke="black" stroke-width="1" fill="rgb(204, 204, 204)" fill-opacity="1" points="294.266,548.136 283.248,526.784 289.000,565.306 301.622,566.545 " />
<polygon stroke="black" stroke-width="1" fill="rgb(204, 204, 204)" fill-opacity="1" points="304.460,525.519 311.850,537.071 318.634,530.104 294.524,506.507 " />
<polygon stroke="black" stroke-width="1" fill="rgb(204, 204, 204)" fill-opacity="1" points="289.000,565.306 248.683,816.061 279.267,825.492 290.732,820.628 301.622,566.545 " />
<polygon stroke="black" stroke-width="1" fill="rgb(204, 204, 204)" fill-opacity="1" points="82.562,491.761 69.926,529.621 85.225,510.369 94.829,494.124 " />
<polygon stroke="black" stroke-width="1" fill="rgb(204, 204, 204)" fill-opacity="1" points="80.625,551.506 109.247,531.632 103.315,523.353 93.909,533.807 " />
<polygon stroke="black" stroke-width="1" fill="rgb(204, 204, 204)" fill-opacity="1" points="602.319,892.569 600.913,876.194 599.923,876.236 601.134,892.659 " />
<polygon stroke="black" stroke-width="1" fill="rgb(204, 204, 204)" fill-opacity="1" points="601.134,892.659 599.923,876.236 553.574,807.834 553.807,813.590 " />
<polygon stroke="black" stroke-width="1" fill="rgb(204, 204, 204)" fill-opacity="1" points="555.171,911.880 553.440,932.229 557.252,932.213 557.457,911.978 " />
<polygon stroke="black" stroke-width="1" fill="rgb(204, 204, 204)" fill-opacity="1" points="557.621,1007.224 562.228,1022.512 563.362,1022.300 561.429,1006.722 " />
<polygon stroke="black" stroke-width="1" fill="rgb(204, 204, 204)" fill-opacity="1" points="553.440,932.229 557.621,1007.224 561.429,1006.722 557.252,932.213 " />
<polygon stroke="black" stroke-width="1" fill="rgb(204, 204, 204)" fill-opacity="1" points="600.289,814.607 602.319,786.643 599.915,786.541 599.297,814.591 " />
<polygon stroke="black" stroke-width="1" fill="rgb(204, 204, 204)" fill-opacity="1" points="600.913,876.194 600.289,814.607 599.297,814.591 599.923,876.236 " />
<polygon stroke="black" stroke-width="1" fill="rgb(204, 204, 204)" fill-opacity="1" points="603.058,903.658 603.312,932.327 604.709,938.568 606.104,932.621 606.104,905.822 603.739,895.635 " />
<polygon stroke="black" stroke-width="1" fill="rgb(204, 204, 204)" fill-opacity="1" points="599.297,814.591 599.915,786.541 553.444,769.148 553.440,779.684 " />
<polygon stroke="black" stroke-width="1" fill="rgb(204, 204, 204)" fill-opacity="1" points="557.252,932.213 561.429,1006.722 603.312,932.327 603.058,903.658 " />
<polygon stroke="black" stroke-width="1" fill="rgb(204, 204, 204)" fill-opacity="1" points="599.923,876.236 599.297,814.591 553.440,779.684 553.574,807.834 " />
<polygon stroke="black" stroke-width="1" fill="rgb(204, 204, 204)" fill-opacity="1" points="557.457,911.978 557.252,932.213 603.058,903.658 603.739,895.635 " />
<polygon stroke="black" stroke-width="1" fill="rgb(204, 204, 204)" fill-opacity="1" points="561.429,1006.722 563.362,1022.300 604.709,938.568 603.312,932.327 " />

</svg>
