<?xml version="1.0" standalone="no"?>
<!DOCTYPE svg PUBLIC "-//W3C//DTD SVG 1.1//EN" 
  "http://www.w3.org/Graphics/SVG/1.1/DTD/svg11.dtd">
<svg width="1024" height="1024" viewBox="0 0 1024 1024"
     xmlns="http://www.w3.org/2000/svg" version="1.1">
<desc>Boeing_747SP.blend, (Blender 3.3.9)</desc>
<polygon stroke="black" stroke-width="1" fill="rgb(204, 204, 204)" fill-opacity="1" points="98.685,588.213 99.863,694.921 152.745,694.921 156.668,588.213 " />
<polygon stroke="black" stroke-width="1" fill="rgb(204, 204, 204)" fill-opacity="1" points="156.668,588.213 152.745,694.921 201.601,694.385 210.236,587.626 " />
<polygon stroke="black" stroke-width="1" fill="rgb(204, 204, 204)" fill-opacity="1" points="210.236,587.626 201.601,694.385 238.991,693.395 251.233,586.540 " />
<polygon stroke="black" stroke-width="1" fill="rgb(204, 204, 204)" fill-opacity="1" points="300.514,913.316 302.184,1019.232 351.068,1019.889 354.113,914.038 " />
<polygon stroke="black" stroke-width="1" fill="rgb(204, 204, 204)" fill-opacity="1" points="354.113,914.038 351.068,1019.889 403.946,1019.232 412.092,913.316 " />
<polygon stroke="black" stroke-width="1" fill="rgb(204, 204, 204)" fill-opacity="1" points="412.092,913.316 403.946,1019.232 452.768,1017.359 465.623,911.263 " />
<polygon stroke="black" stroke-width="1" fill="rgb(204, 204, 204)" fill-opacity="1" points="465.623,911.263 452.768,1017.359 490.101,1014.556 506.557,908.190 " />
<polygon stroke="black" stroke-width="1" fill="rgb(204, 204, 204)" fill-opacity="1" points="45.102,913.422 53.743,1017.542 102.596,1019.889 98.667,915.995 " />
<polygon stroke="black" stroke-width="1" fill="rgb(204, 204, 204)" fill-opacity="1" points="98.667,915.995 102.596,1019.889 155.478,1019.889 156.650,915.995 " />
<polygon stroke="black" stroke-width="1" fill="rgb(204, 204, 204)" fill-opacity="1" points="156.650,915.995 155.478,1019.889 204.339,1017.542 210.224,913.422 " />
<polygon stroke="black" stroke-width="1" fill="rgb(204, 204, 204)" fill-opacity="1" points="259.454,586.830 276.154,693.470 313.502,695.740 300.404,589.319 " />
<polygon stroke="black" stroke-width="1" fill="rgb(204, 204, 204)" fill-opacity="1" points="300.404,589.319 313.502,695.740 362.333,697.257 353.945,590.982 " />
<polygon stroke="black" stroke-width="1" fill="rgb(204, 204, 204)" fill-opacity="1" points="353.945,590.982 362.333,697.257 415.212,697.790 411.925,591.566 " />
<polygon stroke="black" stroke-width="1" fill="rgb(204, 204, 204)" fill-opacity="1" points="411.925,591.566 415.212,697.790 464.090,697.257 465.518,590.982 " />
<polygon stroke="black" stroke-width="1" fill="rgb(204, 204, 204)" fill-opacity="1" points="126.771,47.997 126.771,94.182 251.233,94.178 251.233,47.993 " />
<polygon stroke="black" stroke-width="1" fill="rgb(204, 204, 204)" fill-opacity="1" points="4.111,586.540 13.608,693.395 51.005,694.386 45.114,587.626 " />
<polygon stroke="black" stroke-width="1" fill="rgb(204, 204, 204)" fill-opacity="1" points="45.114,587.626 51.005,694.386 99.863,694.921 98.685,588.213 " />
<polygon stroke="black" stroke-width="1" fill="rgb(204, 204, 204)" fill-opacity="1" points="687.825,745.811 723.104,745.625 717.550,489.631 685.800,489.798 " />
<polygon stroke="black" stroke-width="1" fill="rgb(204, 204, 204)" fill-opacity="1" points="47.659,485.318 45.114,587.626 98.685,588.213 99.205,485.884 " />
<polygon stroke="black" stroke-width="1" fill="rgb(204, 204, 204)" fill-opacity="1" points="466.323,488.612 465.518,590.982 506.563,589.319 505.817,487.012 " />
<polygon stroke="black" stroke-width="1" fill="rgb(204, 204, 204)" fill-opacity="1" points="414.756,489.174 411.925,591.566 465.518,590.982 466.323,488.612 " />
<polygon stroke="black" stroke-width="1" fill="rgb(204, 204, 204)" fill-opacity="1" points="358.968,488.612 353.945,590.982 411.925,591.566 414.756,489.174 " />
<polygon stroke="black" stroke-width="1" fill="rgb(204, 204, 204)" fill-opacity="1" points="307.451,487.012 300.404,589.319 353.945,590.982 358.968,488.612 " />
<polygon stroke="black" stroke-width="1" fill="rgb(204, 204, 204)" fill-opacity="1" points="207.678,810.938 210.224,913.422 251.233,908.666 247.137,806.362 " />
<polygon stroke="black" stroke-width="1" fill="rgb(204, 204, 204)" fill-opacity="1" points="156.130,813.414 156.650,915.995 210.224,913.422 207.678,810.938 " />
<polygon stroke="black" stroke-width="1" fill="rgb(204, 204, 204)" fill-opacity="1" points="100.339,813.414 98.667,915.995 156.650,915.995 156.130,813.414 " />
<polygon stroke="black" stroke-width="1" fill="rgb(204, 204, 204)" fill-opacity="1" points="48.799,810.938 45.102,913.422 98.667,915.995 100.339,813.414 " />
<polygon stroke="black" stroke-width="1" fill="rgb(204, 204, 204)" fill-opacity="1" points="9.356,806.362 4.111,908.666 45.102,913.422 48.799,810.938 " />
<polygon stroke="black" stroke-width="1" fill="rgb(204, 204, 204)" fill-opacity="1" points="406.827,810.897 412.092,913.316 465.623,911.263 458.334,808.922 " />
<polygon stroke="black" stroke-width="1" fill="rgb(204, 204, 204)" fill-opacity="1" points="351.040,811.591 354.113,914.038 412.092,913.316 406.827,810.897 " />
<polygon stroke="black" stroke-width="1" fill="rgb(204, 204, 204)" fill-opacity="1" points="299.467,810.897 300.514,913.316 354.113,914.038 351.040,811.591 " />
<polygon stroke="black" stroke-width="1" fill="rgb(204, 204, 204)" fill-opacity="1" points="259.959,808.921 259.454,911.263 300.514,913.316 299.467,810.897 " />
<polygon stroke="black" stroke-width="1" fill="rgb(204, 204, 204)" fill-opacity="1" points="154.996,485.884 156.668,588.213 210.236,587.626 206.539,485.318 " />
<polygon stroke="black" stroke-width="1" fill="rgb(204, 204, 204)" fill-opacity="1" points="99.205,485.884 98.685,588.213 156.668,588.213 154.996,485.884 " />
<polygon stroke="black" stroke-width="1" fill="rgb(204, 204, 204)" fill-opacity="1" points="102.011,383.249 99.205,485.884 154.996,485.884 150.685,383.249 " />
<polygon stroke="black" stroke-width="1" fill="rgb(204, 204, 204)" fill-opacity="1" points="150.685,383.249 154.996,485.884 206.539,485.318 195.653,382.756 " />
<polygon stroke="black" stroke-width="1" fill="rgb(204, 204, 204)" fill-opacity="1" points="270.062,706.011 259.959,808.921 299.467,810.897 304.531,707.735 " />
<polygon stroke="black" stroke-width="1" fill="rgb(204, 204, 204)" fill-opacity="1" points="304.531,707.735 299.467,810.897 351.040,811.591 349.525,708.340 " />
<polygon stroke="black" stroke-width="1" fill="rgb(204, 204, 204)" fill-opacity="1" points="349.525,708.340 351.040,811.591 406.827,810.897 398.196,707.735 " />
<polygon stroke="black" stroke-width="1" fill="rgb(204, 204, 204)" fill-opacity="1" points="398.196,707.735 406.827,810.897 458.334,808.922 443.133,706.011 " />
<polygon stroke="black" stroke-width="1" fill="rgb(204, 204, 204)" fill-opacity="1" points="25.274,703.143 9.356,806.362 48.799,810.938 59.685,707.135 " />
<polygon stroke="black" stroke-width="1" fill="rgb(204, 204, 204)" fill-opacity="1" points="59.685,707.135 48.799,810.938 100.339,813.414 104.651,709.295 " />
<polygon stroke="black" stroke-width="1" fill="rgb(204, 204, 204)" fill-opacity="1" points="104.651,709.295 100.339,813.414 156.130,813.414 153.325,709.295 " />
<polygon stroke="black" stroke-width="1" fill="rgb(204, 204, 204)" fill-opacity="1" points="153.325,709.295 156.130,813.414 207.678,810.938 198.298,707.135 " />
<polygon stroke="black" stroke-width="1" fill="rgb(204, 204, 204)" fill-opacity="1" points="198.298,707.135 207.678,810.938 247.137,806.362 232.723,703.143 " />
<polygon stroke="black" stroke-width="1" fill="rgb(204, 204, 204)" fill-opacity="1" points="322.405,384.262 307.451,487.012 358.968,488.612 367.351,385.658 " />
<polygon stroke="black" stroke-width="1" fill="rgb(204, 204, 204)" fill-opacity="1" points="367.351,385.658 358.968,488.612 414.756,489.174 416.023,386.148 " />
<polygon stroke="black" stroke-width="1" fill="rgb(204, 204, 204)" fill-opacity="1" points="416.023,386.148 414.756,489.174 466.323,488.612 461.011,385.658 " />
<polygon stroke="black" stroke-width="1" fill="rgb(204, 204, 204)" fill-opacity="1" points="461.011,385.658 466.323,488.612 505.817,487.012 495.468,384.262 " />
<polygon stroke="black" stroke-width="1" fill="rgb(204, 204, 204)" fill-opacity="1" points="57.040,382.756 47.659,485.318 99.205,485.884 102.011,383.249 " />
<polygon stroke="black" stroke-width="1" fill="rgb(204, 204, 204)" fill-opacity="1" points="316.025,328.869 293.519,303.923 276.259,322.996 307.311,357.414 " />
<polygon stroke="black" stroke-width="1" fill="rgb(204, 204, 204)" fill-opacity="1" points="345.431,342.370 316.025,328.869 307.311,357.414 347.882,376.041 " />
<polygon stroke="black" stroke-width="1" fill="rgb(204, 204, 204)" fill-opacity="1" points="377.260,342.370 345.431,342.370 347.882,376.041 391.796,376.041 " />
<polygon stroke="black" stroke-width="1" fill="rgb(204, 204, 204)" fill-opacity="1" points="406.666,328.869 377.260,342.370 391.796,376.041 432.367,357.414 " />
<polygon stroke="black" stroke-width="1" fill="rgb(204, 204, 204)" fill-opacity="1" points="429.172,303.923 406.666,328.869 432.367,357.414 463.418,322.996 " />
<polygon stroke="black" stroke-width="1" fill="rgb(204, 204, 204)" fill-opacity="1" points="441.353,271.329 429.172,303.923 463.418,322.996 480.223,278.027 " />
<polygon stroke="black" stroke-width="1" fill="rgb(204, 204, 204)" fill-opacity="1" points="441.353,236.050 441.353,271.329 480.223,278.027 480.223,229.352 " />
<polygon stroke="black" stroke-width="1" fill="rgb(204, 204, 204)" fill-opacity="1" points="429.172,203.456 441.353,236.050 480.223,229.352 463.418,184.383 " />
<polygon stroke="black" stroke-width="1" fill="rgb(204, 204, 204)" fill-opacity="1" points="406.666,178.510 429.172,203.456 463.418,184.383 432.366,149.965 " />
<polygon stroke="black" stroke-width="1" fill="rgb(204, 204, 204)" fill-opacity="1" points="377.260,165.009 406.666,178.510 432.366,149.965 391.795,131.338 " />
<polygon stroke="black" stroke-width="1" fill="rgb(204, 204, 204)" fill-opacity="1" points="345.431,165.009 377.260,165.009 391.795,131.338 347.882,131.338 " />
<polygon stroke="black" stroke-width="1" fill="rgb(204, 204, 204)" fill-opacity="1" points="316.025,178.510 345.431,165.009 347.882,131.338 307.311,149.965 " />
<polygon stroke="black" stroke-width="1" fill="rgb(204, 204, 204)" fill-opacity="1" points="293.519,203.456 316.025,178.510 307.311,149.965 276.259,184.383 " />
<polygon stroke="black" stroke-width="1" fill="rgb(204, 204, 204)" fill-opacity="1" points="281.338,236.050 293.519,203.456 276.259,184.383 259.454,229.352 " />
<polygon stroke="black" stroke-width="1" fill="rgb(204, 204, 204)" fill-opacity="1" points="281.338,271.329 281.338,236.050 259.454,229.352 259.454,278.027 " />
<polygon stroke="black" stroke-width="1" fill="rgb(204, 204, 204)" fill-opacity="1" points="293.519,303.923 281.338,271.329 259.454,278.027 276.259,322.996 " />
<polygon stroke="black" stroke-width="1" fill="rgb(204, 204, 204)" fill-opacity="1" points="872.085,404.138 901.394,405.354 894.232,316.768 867.854,315.674 " />
<polygon stroke="black" stroke-width="1" fill="rgb(204, 204, 204)" fill-opacity="1" points="655.229,745.625 687.825,745.811 685.800,489.798 656.463,489.631 " />
<polygon stroke="black" stroke-width="1" fill="rgb(204, 204, 204)" fill-opacity="1" points="881.683,670.479 846.404,670.479 845.728,927.403 877.479,927.403 " />
<polygon stroke="black" stroke-width="1" fill="rgb(204, 204, 204)" fill-opacity="1" points="723.104,745.625 755.695,745.096 746.882,489.155 717.550,489.631 " />
<polygon stroke="black" stroke-width="1" fill="rgb(204, 204, 204)" fill-opacity="1" points="846.404,670.479 813.807,672.045 816.391,928.812 845.728,927.403 " />
<polygon stroke="black" stroke-width="1" fill="rgb(204, 204, 204)" fill-opacity="1" points="755.695,745.096 780.635,744.304 769.328,488.442 746.882,489.155 " />
<polygon stroke="black" stroke-width="1" fill="rgb(204, 204, 204)" fill-opacity="1" points="813.807,672.045 788.856,674.939 793.935,931.416 816.391,928.812 " />
<polygon stroke="black" stroke-width="1" fill="rgb(204, 204, 204)" fill-opacity="1" points="801.156,655.494 833.629,658.532 840.405,402.000 811.179,399.267 " />
<polygon stroke="black" stroke-width="1" fill="rgb(204, 204, 204)" fill-opacity="1" points="521.644,745.811 554.234,745.423 559.836,488.903 530.505,489.253 " />
<polygon stroke="black" stroke-width="1" fill="rgb(204, 204, 204)" fill-opacity="1" points="833.629,658.532 868.828,660.907 872.085,404.138 840.405,402.000 " />
<polygon stroke="black" stroke-width="1" fill="rgb(204, 204, 204)" fill-opacity="1" points="554.234,745.423 589.494,744.263 591.570,487.859 559.836,488.903 " />
<polygon stroke="black" stroke-width="1" fill="rgb(204, 204, 204)" fill-opacity="1" points="868.828,660.907 901.395,662.258 901.394,405.354 872.085,404.138 " />
<polygon stroke="black" stroke-width="1" fill="rgb(204, 204, 204)" fill-opacity="1" points="589.494,744.263 622.056,742.507 620.877,486.279 591.570,487.859 " />
<polygon stroke="black" stroke-width="1" fill="rgb(204, 204, 204)" fill-opacity="1" points="939.216,674.939 914.274,672.045 906.811,928.812 929.258,931.416 " />
<polygon stroke="black" stroke-width="1" fill="rgb(204, 204, 204)" fill-opacity="1" points="630.277,745.096 655.229,745.625 656.463,489.631 634.006,489.155 " />
<polygon stroke="black" stroke-width="1" fill="rgb(204, 204, 204)" fill-opacity="1" points="914.274,672.045 881.683,670.479 877.479,927.403 906.811,928.812 " />
<polygon stroke="black" stroke-width="1" fill="rgb(204, 204, 204)" fill-opacity="1" points="62.974,104.019 105.626,222.651 78.953,99.170 " />
<polygon stroke="black" stroke-width="1" fill="rgb(204, 204, 204)" fill-opacity="1" points="591.570,487.859 620.877,486.279 622.056,398.505 595.681,399.927 " />
<polygon stroke="black" stroke-width="1" fill="rgb(204, 204, 204)" fill-opacity="1" points="929.258,931.416 906.811,928.812 900.581,1017.546 920.784,1019.889 " />
<polygon stroke="black" stroke-width="1" fill="rgb(204, 204, 204)" fill-opacity="1" points="634.006,489.155 656.463,489.631 658.816,402.152 638.605,401.724 " />
<polygon stroke="black" stroke-width="1" fill="rgb(204, 204, 204)" fill-opacity="1" points="906.811,928.812 877.479,927.403 874.182,1016.277 900.581,1017.546 " />
<polygon stroke="black" stroke-width="1" fill="rgb(204, 204, 204)" fill-opacity="1" points="685.800,489.798 717.550,489.631 713.794,402.152 685.219,402.303 " />
<polygon stroke="black" stroke-width="1" fill="rgb(204, 204, 204)" fill-opacity="1" points="656.463,489.631 685.800,489.798 685.219,402.303 658.816,402.152 " />
<polygon stroke="black" stroke-width="1" fill="rgb(204, 204, 204)" fill-opacity="1" points="877.479,927.403 845.728,927.403 845.606,1016.277 874.182,1016.277 " />
<polygon stroke="black" stroke-width="1" fill="rgb(204, 204, 204)" fill-opacity="1" points="717.550,489.631 746.882,489.155 740.193,401.724 713.794,402.152 " />
<polygon stroke="black" stroke-width="1" fill="rgb(204, 204, 204)" fill-opacity="1" points="845.728,927.403 816.391,928.812 819.203,1017.546 845.606,1016.277 " />
<polygon stroke="black" stroke-width="1" fill="rgb(204, 204, 204)" fill-opacity="1" points="788.856,396.353 811.179,399.267 813.039,311.289 792.948,308.667 " />
<polygon stroke="black" stroke-width="1" fill="rgb(204, 204, 204)" fill-opacity="1" points="816.391,928.812 793.935,931.416 798.992,1019.889 819.203,1017.546 " />
<polygon stroke="black" stroke-width="1" fill="rgb(204, 204, 204)" fill-opacity="1" points="811.179,399.267 840.405,402.000 839.342,313.750 813.039,311.289 " />
<polygon stroke="black" stroke-width="1" fill="rgb(204, 204, 204)" fill-opacity="1" points="530.505,489.253 559.836,488.903 567.120,400.866 540.722,401.181 " />
<polygon stroke="black" stroke-width="1" fill="rgb(204, 204, 204)" fill-opacity="1" points="840.405,402.000 872.085,404.138 867.854,315.674 839.342,313.750 " />
<polygon stroke="black" stroke-width="1" fill="rgb(204, 204, 204)" fill-opacity="1" points="559.836,488.903 591.570,487.859 595.681,399.927 567.120,400.866 " />
<polygon stroke="black" stroke-width="1" fill="rgb(204, 204, 204)" fill-opacity="1" points="778.729,369.579 778.343,352.884 755.192,347.472 755.851,376.041 " />
<polygon stroke="black" stroke-width="1" fill="rgb(204, 204, 204)" fill-opacity="1" points="84.942,260.727 98.862,267.118 105.626,241.808 81.807,230.872 " />
<polygon stroke="black" stroke-width="1" fill="rgb(204, 204, 204)" fill-opacity="1" points="69.876,260.727 84.942,260.727 81.807,230.872 56.026,230.873 " />
<polygon stroke="black" stroke-width="1" fill="rgb(204, 204, 204)" fill-opacity="1" points="55.957,267.118 69.876,260.727 56.026,230.873 32.207,241.808 " />
<polygon stroke="black" stroke-width="1" fill="rgb(204, 204, 204)" fill-opacity="1" points="45.304,278.926 55.957,267.118 32.207,241.808 13.977,262.015 " />
<polygon stroke="black" stroke-width="1" fill="rgb(204, 204, 204)" fill-opacity="1" points="39.538,294.354 45.304,278.926 13.977,262.015 4.111,288.416 " />
<polygon stroke="black" stroke-width="1" fill="rgb(204, 204, 204)" fill-opacity="1" points="39.538,311.053 39.538,294.354 4.111,288.416 4.111,316.992 " />
<polygon stroke="black" stroke-width="1" fill="rgb(204, 204, 204)" fill-opacity="1" points="45.304,326.481 39.538,311.053 4.111,316.992 13.977,343.393 " />
<polygon stroke="black" stroke-width="1" fill="rgb(204, 204, 204)" fill-opacity="1" points="55.957,338.290 45.304,326.481 13.977,343.393 32.207,363.599 " />
<polygon stroke="black" stroke-width="1" fill="rgb(204, 204, 204)" fill-opacity="1" points="69.876,344.680 55.957,338.290 32.207,363.599 56.026,374.535 " />
<polygon stroke="black" stroke-width="1" fill="rgb(204, 204, 204)" fill-opacity="1" points="84.943,344.680 69.876,344.680 56.026,374.535 81.807,374.535 " />
<polygon stroke="black" stroke-width="1" fill="rgb(204, 204, 204)" fill-opacity="1" points="98.862,338.290 84.943,344.680 81.807,374.535 105.626,363.599 " />
<polygon stroke="black" stroke-width="1" fill="rgb(204, 204, 204)" fill-opacity="1" points="776.784,280.739 776.991,264.041 755.548,257.857 755.192,286.431 " />
<polygon stroke="black" stroke-width="1" fill="rgb(204, 204, 204)" fill-opacity="1" points="776.991,296.166 776.784,280.739 755.192,286.431 755.548,312.830 " />
<polygon stroke="black" stroke-width="1" fill="rgb(204, 204, 204)" fill-opacity="1" points="755.192,226.998 755.192,243.698 773.634,249.636 773.634,221.060 " />
<polygon stroke="black" stroke-width="1" fill="rgb(204, 204, 204)" fill-opacity="1" points="778.343,352.884 778.729,337.444 755.851,321.052 755.192,347.472 " />
<polygon stroke="black" stroke-width="1" fill="rgb(204, 204, 204)" fill-opacity="1" points="48.424,109.208 105.626,222.651 62.974,104.019 " />
<polygon stroke="black" stroke-width="1" fill="rgb(204, 204, 204)" fill-opacity="1" points="37.520,113.947 105.626,222.651 48.424,109.208 " />
<polygon stroke="black" stroke-width="1" fill="rgb(204, 204, 204)" fill-opacity="1" points="924.640,521.120 967.831,404.960 909.616,517.619 " />
<polygon stroke="black" stroke-width="1" fill="rgb(204, 204, 204)" fill-opacity="1" points="78.953,99.170 105.626,222.651 93.931,95.400 " />
<polygon stroke="black" stroke-width="1" fill="rgb(204, 204, 204)" fill-opacity="1" points="93.931,95.400 105.626,222.651 105.626,93.283 " />
<polygon stroke="black" stroke-width="1" fill="rgb(204, 204, 204)" fill-opacity="1" points="909.616,549.005 967.870,662.258 924.627,545.441 " />
<polygon stroke="black" stroke-width="1" fill="rgb(204, 204, 204)" fill-opacity="1" points="924.627,545.441 967.870,662.258 940.969,542.005 " />
<polygon stroke="black" stroke-width="1" fill="rgb(204, 204, 204)" fill-opacity="1" points="940.969,542.005 967.870,662.258 956.154,539.221 " />
<polygon stroke="black" stroke-width="1" fill="rgb(204, 204, 204)" fill-opacity="1" points="956.154,539.221 967.870,662.258 967.870,537.512 " />
<polygon stroke="black" stroke-width="1" fill="rgb(204, 204, 204)" fill-opacity="1" points="971.122,300.446 971.122,176.403 955.995,297.409 " />
<polygon stroke="black" stroke-width="1" fill="rgb(204, 204, 204)" fill-opacity="1" points="955.995,297.409 971.122,176.403 939.660,293.942 " />
<polygon stroke="black" stroke-width="1" fill="rgb(204, 204, 204)" fill-opacity="1" points="939.660,293.942 971.122,176.403 924.602,290.574 " />
<polygon stroke="black" stroke-width="1" fill="rgb(204, 204, 204)" fill-opacity="1" points="967.831,529.291 967.831,404.960 956.147,527.437 " />
<polygon stroke="black" stroke-width="1" fill="rgb(204, 204, 204)" fill-opacity="1" points="956.147,527.437 967.831,404.960 940.980,524.567 " />
<polygon stroke="black" stroke-width="1" fill="rgb(204, 204, 204)" fill-opacity="1" points="924.640,521.120 940.980,524.567 967.831,404.960 " />
<polygon stroke="black" stroke-width="1" fill="rgb(204, 204, 204)" fill-opacity="1" points="753.262,816.431 772.217,862.194 780.635,860.520 760.398,811.663 " />
<polygon stroke="black" stroke-width="1" fill="rgb(204, 204, 204)" fill-opacity="1" points="772.217,862.194 772.217,911.728 780.635,913.402 780.635,860.520 " />
<polygon stroke="black" stroke-width="1" fill="rgb(204, 204, 204)" fill-opacity="1" points="772.217,911.728 753.262,957.490 760.398,962.259 780.635,913.402 " />
<polygon stroke="black" stroke-width="1" fill="rgb(204, 204, 204)" fill-opacity="1" points="753.262,957.490 718.236,992.516 723.005,999.652 760.398,962.259 " />
<polygon stroke="black" stroke-width="1" fill="rgb(204, 204, 204)" fill-opacity="1" points="718.236,992.516 672.473,1011.472 674.148,1019.889 723.005,999.652 " />
<polygon stroke="black" stroke-width="1" fill="rgb(204, 204, 204)" fill-opacity="1" points="672.473,1011.472 622.940,1011.472 621.265,1019.889 674.148,1019.889 " />
<polygon stroke="black" stroke-width="1" fill="rgb(204, 204, 204)" fill-opacity="1" points="622.940,1011.472 577.177,992.516 572.409,999.652 621.265,1019.889 " />
<polygon stroke="black" stroke-width="1" fill="rgb(204, 204, 204)" fill-opacity="1" points="577.177,992.516 542.151,957.491 535.015,962.259 572.409,999.652 " />
<polygon stroke="black" stroke-width="1" fill="rgb(204, 204, 204)" fill-opacity="1" points="542.151,957.491 523.196,911.728 514.778,913.402 535.015,962.259 " />
<polygon stroke="black" stroke-width="1" fill="rgb(204, 204, 204)" fill-opacity="1" points="523.196,911.728 523.196,862.194 514.778,860.520 514.778,913.402 " />
<polygon stroke="black" stroke-width="1" fill="rgb(204, 204, 204)" fill-opacity="1" points="523.196,862.194 542.151,816.431 535.015,811.663 514.778,860.520 " />
<polygon stroke="black" stroke-width="1" fill="rgb(204, 204, 204)" fill-opacity="1" points="542.151,816.431 577.177,781.406 572.409,774.270 535.015,811.663 " />
<polygon stroke="black" stroke-width="1" fill="rgb(204, 204, 204)" fill-opacity="1" points="577.177,781.406 622.940,762.450 621.265,754.032 572.409,774.270 " />
<polygon stroke="black" stroke-width="1" fill="rgb(204, 204, 204)" fill-opacity="1" points="622.940,762.450 672.473,762.450 674.148,754.032 621.265,754.032 " />
<polygon stroke="black" stroke-width="1" fill="rgb(204, 204, 204)" fill-opacity="1" points="672.473,762.450 718.236,781.406 723.004,774.270 674.148,754.032 " />
<polygon stroke="black" stroke-width="1" fill="rgb(204, 204, 204)" fill-opacity="1" points="718.236,781.406 753.262,816.431 760.398,811.663 723.004,774.270 " />
<polygon stroke="black" stroke-width="1" fill="rgb(204, 204, 204)" fill-opacity="1" points="909.616,308.667 937.241,384.178 927.532,309.528 " />
<polygon stroke="black" stroke-width="1" fill="rgb(204, 204, 204)" fill-opacity="1" points="792.004,211.573 792.004,257.758 916.381,257.764 916.381,211.579 " />
<polygon stroke="black" stroke-width="1" fill="rgb(204, 204, 204)" fill-opacity="1" points="125.876,5.317 126.771,47.997 251.233,47.993 250.338,5.312 " />
<polygon stroke="black" stroke-width="1" fill="rgb(204, 204, 204)" fill-opacity="1" points="790.898,168.917 792.004,211.573 916.381,211.579 915.276,168.923 " />
<polygon stroke="black" stroke-width="1" fill="rgb(204, 204, 204)" fill-opacity="1" points="126.187,341.875 125.322,374.535 249.900,374.535 250.765,341.875 " />
<polygon stroke="black" stroke-width="1" fill="rgb(204, 204, 204)" fill-opacity="1" points="788.856,136.285 790.898,168.917 915.276,168.923 913.234,136.291 " />
<polygon stroke="black" stroke-width="1" fill="rgb(204, 204, 204)" fill-opacity="1" points="126.655,299.204 126.187,341.875 250.765,341.875 251.233,299.204 " />
<polygon stroke="black" stroke-width="1" fill="rgb(204, 204, 204)" fill-opacity="1" points="516.837,46.783 516.836,92.968 640.616,92.968 640.617,46.783 " />
<polygon stroke="black" stroke-width="1" fill="rgb(204, 204, 204)" fill-opacity="1" points="516.836,92.968 514.785,135.633 638.565,135.634 640.616,92.968 " />
<polygon stroke="black" stroke-width="1" fill="rgb(204, 204, 204)" fill-opacity="1" points="126.655,253.019 126.655,299.204 251.233,299.204 251.233,253.019 " />
<polygon stroke="black" stroke-width="1" fill="rgb(204, 204, 204)" fill-opacity="1" points="514.788,4.111 516.837,46.783 640.617,46.783 638.568,4.111 " />
<polygon stroke="black" stroke-width="1" fill="rgb(204, 204, 204)" fill-opacity="1" points="126.187,210.352 126.655,253.019 251.233,253.019 250.765,210.352 " />
<polygon stroke="black" stroke-width="1" fill="rgb(204, 204, 204)" fill-opacity="1" points="125.876,136.839 124.222,169.476 248.684,169.472 250.338,136.835 " />
<polygon stroke="black" stroke-width="1" fill="rgb(204, 204, 204)" fill-opacity="1" points="125.322,177.697 126.187,210.352 250.765,210.352 249.900,177.697 " />
<polygon stroke="black" stroke-width="1" fill="rgb(204, 204, 204)" fill-opacity="1" points="126.771,94.182 125.876,136.839 250.338,136.835 251.233,94.178 " />
<polygon stroke="black" stroke-width="1" fill="rgb(204, 204, 204)" fill-opacity="1" points="792.004,257.758 790.898,300.440 915.276,300.446 916.381,257.764 " />
<polygon stroke="black" stroke-width="1" fill="rgb(204, 204, 204)" fill-opacity="1" points="713.468,788.542 746.125,821.199 753.262,816.431 718.236,781.406 " />
<polygon stroke="black" stroke-width="1" fill="rgb(204, 204, 204)" fill-opacity="1" points="670.799,770.868 713.468,788.542 718.236,781.406 672.473,762.450 " />
<polygon stroke="black" stroke-width="1" fill="rgb(204, 204, 204)" fill-opacity="1" points="624.614,770.868 670.799,770.868 672.473,762.450 622.940,762.450 " />
<polygon stroke="black" stroke-width="1" fill="rgb(204, 204, 204)" fill-opacity="1" points="581.945,788.542 624.614,770.868 622.940,762.450 577.177,781.406 " />
<polygon stroke="black" stroke-width="1" fill="rgb(204, 204, 204)" fill-opacity="1" points="549.287,821.199 581.945,788.542 577.177,781.406 542.151,816.431 " />
<polygon stroke="black" stroke-width="1" fill="rgb(204, 204, 204)" fill-opacity="1" points="531.613,863.869 549.287,821.199 542.151,816.431 523.196,862.194 " />
<polygon stroke="black" stroke-width="1" fill="rgb(204, 204, 204)" fill-opacity="1" points="531.613,910.053 531.613,863.869 523.196,862.194 523.196,911.728 " />
<polygon stroke="black" stroke-width="1" fill="rgb(204, 204, 204)" fill-opacity="1" points="549.288,952.722 531.613,910.053 523.196,911.728 542.151,957.491 " />
<polygon stroke="black" stroke-width="1" fill="rgb(204, 204, 204)" fill-opacity="1" points="581.945,985.380 549.288,952.722 542.151,957.491 577.177,992.516 " />
<polygon stroke="black" stroke-width="1" fill="rgb(204, 204, 204)" fill-opacity="1" points="624.614,1003.054 581.945,985.380 577.177,992.516 622.940,1011.472 " />
<polygon stroke="black" stroke-width="1" fill="rgb(204, 204, 204)" fill-opacity="1" points="670.799,1003.054 624.614,1003.054 622.940,1011.472 672.473,1011.472 " />
<polygon stroke="black" stroke-width="1" fill="rgb(204, 204, 204)" fill-opacity="1" points="713.468,985.380 670.799,1003.054 672.473,1011.472 718.236,992.516 " />
<polygon stroke="black" stroke-width="1" fill="rgb(204, 204, 204)" fill-opacity="1" points="746.126,952.722 713.468,985.380 718.236,992.516 753.262,957.490 " />
<polygon stroke="black" stroke-width="1" fill="rgb(204, 204, 204)" fill-opacity="1" points="763.800,910.053 746.126,952.722 753.262,957.490 772.217,911.728 " />
<polygon stroke="black" stroke-width="1" fill="rgb(204, 204, 204)" fill-opacity="1" points="763.800,863.868 763.800,910.053 772.217,911.728 772.217,862.194 " />
<polygon stroke="black" stroke-width="1" fill="rgb(204, 204, 204)" fill-opacity="1" points="746.125,821.199 763.800,863.868 772.217,862.194 753.262,816.431 " />
<polygon stroke="black" stroke-width="1" fill="rgb(204, 204, 204)" fill-opacity="1" points="582.126,269.645 582.126,250.250 514.785,236.855 514.785,283.040 " />
<polygon stroke="black" stroke-width="1" fill="rgb(204, 204, 204)" fill-opacity="1" points="582.126,250.250 589.548,232.332 532.459,194.186 514.785,236.855 " />
<polygon stroke="black" stroke-width="1" fill="rgb(204, 204, 204)" fill-opacity="1" points="589.548,232.332 603.262,218.618 565.116,161.529 532.459,194.186 " />
<polygon stroke="black" stroke-width="1" fill="rgb(204, 204, 204)" fill-opacity="1" points="603.262,218.618 621.181,211.196 607.786,143.855 565.116,161.529 " />
<polygon stroke="black" stroke-width="1" fill="rgb(204, 204, 204)" fill-opacity="1" points="621.181,211.196 640.575,211.196 653.970,143.855 607.786,143.855 " />
<polygon stroke="black" stroke-width="1" fill="rgb(204, 204, 204)" fill-opacity="1" points="640.575,211.196 658.493,218.618 696.639,161.529 653.970,143.855 " />
<polygon stroke="black" stroke-width="1" fill="rgb(204, 204, 204)" fill-opacity="1" points="658.493,218.618 672.207,232.332 729.297,194.186 696.639,161.529 " />
<polygon stroke="black" stroke-width="1" fill="rgb(204, 204, 204)" fill-opacity="1" points="672.207,232.332 679.629,250.251 746.971,236.856 729.297,194.186 " />
<polygon stroke="black" stroke-width="1" fill="rgb(204, 204, 204)" fill-opacity="1" points="679.629,250.251 679.629,269.645 746.971,283.040 746.971,236.856 " />
<polygon stroke="black" stroke-width="1" fill="rgb(204, 204, 204)" fill-opacity="1" points="679.629,269.645 672.207,287.563 729.297,325.709 746.971,283.040 " />
<polygon stroke="black" stroke-width="1" fill="rgb(204, 204, 204)" fill-opacity="1" points="672.207,287.563 658.493,301.277 696.639,358.367 729.297,325.709 " />
<polygon stroke="black" stroke-width="1" fill="rgb(204, 204, 204)" fill-opacity="1" points="658.493,301.277 640.575,308.699 653.970,376.041 696.639,358.367 " />
<polygon stroke="black" stroke-width="1" fill="rgb(204, 204, 204)" fill-opacity="1" points="640.575,308.699 621.180,308.699 607.785,376.041 653.970,376.041 " />
<polygon stroke="black" stroke-width="1" fill="rgb(204, 204, 204)" fill-opacity="1" points="621.180,308.699 603.262,301.277 565.116,358.367 607.785,376.041 " />
<polygon stroke="black" stroke-width="1" fill="rgb(204, 204, 204)" fill-opacity="1" points="603.262,301.277 589.548,287.563 532.459,325.709 565.116,358.367 " />
<polygon stroke="black" stroke-width="1" fill="rgb(204, 204, 204)" fill-opacity="1" points="589.548,287.563 582.126,269.645 514.785,283.040 532.459,325.709 " />
<polygon stroke="black" stroke-width="1" fill="rgb(204, 204, 204)" fill-opacity="1" points="921.244,50.307 892.623,128.064 934.957,49.620 " />
<polygon stroke="black" stroke-width="1" fill="rgb(204, 204, 204)" fill-opacity="1" points="903.327,50.548 892.623,128.064 921.244,50.307 " />
<polygon stroke="black" stroke-width="1" fill="rgb(204, 204, 204)" fill-opacity="1" points="883.934,50.307 892.623,128.064 903.327,50.548 " />
<polygon stroke="black" stroke-width="1" fill="rgb(204, 204, 204)" fill-opacity="1" points="866.017,49.620 892.623,128.064 883.934,50.307 " />
<polygon stroke="black" stroke-width="1" fill="rgb(204, 204, 204)" fill-opacity="1" points="734.951,52.119 746.971,135.634 746.971,45.508 " />
<polygon stroke="black" stroke-width="1" fill="rgb(204, 204, 204)" fill-opacity="1" points="927.532,309.528 937.241,384.178 946.927,309.528 " />
<polygon stroke="black" stroke-width="1" fill="rgb(204, 204, 204)" fill-opacity="1" points="946.927,309.528 937.241,384.178 964.847,308.667 " />
<polygon stroke="black" stroke-width="1" fill="rgb(204, 204, 204)" fill-opacity="1" points="788.856,49.137 831.004,128.064 802.568,49.693 " />
<polygon stroke="black" stroke-width="1" fill="rgb(204, 204, 204)" fill-opacity="1" points="820.484,49.889 802.568,49.693 831.004,128.064 " />
<polygon stroke="black" stroke-width="1" fill="rgb(204, 204, 204)" fill-opacity="1" points="820.484,49.889 831.004,128.064 839.877,49.693 " />
<polygon stroke="black" stroke-width="1" fill="rgb(204, 204, 204)" fill-opacity="1" points="839.877,49.693 831.004,128.064 857.796,49.137 " />
<polygon stroke="black" stroke-width="1" fill="rgb(204, 204, 204)" fill-opacity="1" points="673.516,83.415 746.971,135.634 685.871,77.448 " />
<polygon stroke="black" stroke-width="1" fill="rgb(204, 204, 204)" fill-opacity="1" points="685.871,77.448 746.971,135.634 701.884,69.405 " />
<polygon stroke="black" stroke-width="1" fill="rgb(204, 204, 204)" fill-opacity="1" points="701.884,69.405 746.971,135.634 719.119,60.511 " />
<polygon stroke="black" stroke-width="1" fill="rgb(204, 204, 204)" fill-opacity="1" points="719.119,60.511 746.971,135.634 734.951,52.119 " />

</svg>
