<?xml version="1.0" encoding="UTF-8" standalone="no"?>
<svg
   width="1024"
   height="1024"
   viewBox="0 0 1024 1024"
   version="1.1"
   id="svg40"
   sodipodi:docname="Vertical_stabilizer.svg"
   inkscape:version="1.3.2 (091e20ef0f, 2023-11-25, custom)"
   xml:space="preserve"
   xmlns:inkscape="http://www.inkscape.org/namespaces/inkscape"
   xmlns:sodipodi="http://sodipodi.sourceforge.net/DTD/sodipodi-0.dtd"
   xmlns="http://www.w3.org/2000/svg"
   xmlns:svg="http://www.w3.org/2000/svg"><defs
     id="defs40" /><sodipodi:namedview
     id="namedview40"
     pagecolor="#505050"
     bordercolor="#ffffff"
     borderopacity="1"
     inkscape:showpageshadow="0"
     inkscape:pageopacity="0"
     inkscape:pagecheckerboard="1"
     inkscape:deskcolor="#d1d1d1"
     inkscape:zoom="0.34043325"
     inkscape:cx="467.05192"
     inkscape:cy="480.27037"
     inkscape:window-width="1366"
     inkscape:window-height="724"
     inkscape:window-x="-1"
     inkscape:window-y="-1"
     inkscape:window-maximized="1"
     inkscape:current-layer="svg40" /><desc
     id="desc1">Boeing_747SP.blend, (Blender 3.3.9)</desc><rect
     style="fill:#ffffff;fill-opacity:1;stroke-width:15;stroke-linecap:square"
     id="rect1"
     width="1024"
     height="1024"
     x="0"
     y="0"
     rx="2.3779886"
     ry="2.3779886" /><path
     id="polygon1"
     d="m 139.64648,505.07227 34.91016,90.39648 18.95117,-2.29687 42.71289,-5.17579 211.88086,354.02735 8.2168,15.04101 -43.29102,48.06255 69.41602,-0.2461 125.81445,-0.4454 251.62891,-0.8906 29.58594,-0.4179 -59.19532,-61.10356 -532.76953,-421.58008 -78.93164,-7.68359 z"
     style="fill:#ffffff;fill-opacity:1"
     sodipodi:nodetypes="ccccccccccccccc" /><path
     d="m 178.04688,36.59375 34.91015,90.39453 18.94922,-2.29687 42.71289,-5.17383 211.88281,354.02734 8.2168,15.04102 -43.00781,47.74609 -1.07422,0.004 -40.96875,0.14453 -40.96875,0.14648 13.16406,0.10938 13.16602,0.11133 56.71875,-0.20118 69.0957,-0.24609 125.8125,-0.44531 251.62891,-0.89063 29.58789,-0.41797 L 868.67773,473.54492 335.9082,51.964844 256.97656,44.279297 Z m 416.51757,436.95117 51.83203,62.09766 z"
     style="fill:#ffffff;fill-opacity:1"
     id="path1" /><path
     style="fill:#00235f;stroke:none;stroke-width:1px;stroke-linecap:butt;stroke-linejoin:miter;stroke-opacity:1;fill-opacity:1"
     d="m 178.04688,36.59375 157.86132,15.371094 532.76953,421.580076 59.19532,61.10165 -559.17383,1.98047 z"
     id="path2" /><path
     style="fill:#00235f;fill-opacity:1;stroke:none;stroke-width:1px;stroke-linecap:butt;stroke-linejoin:miter;stroke-opacity:1"
     d="m 139.64649,505.07227 157.86132,15.37109 532.76953,421.58008 59.19532,61.10166 -559.17383,1.9805 z"
     id="path3" /><g
     id="g4"
     transform="matrix(-2.25,0,0,2.25,3270.7529,-994.44047)"><ellipse
       style="opacity:1;fill:#f9ba00;fill-opacity:1;stroke:none;stroke-width:10.6467"
       id="path4"
       cx="1264.9045"
       cy="574.9115"
       rx="49.875614"
       ry="50" /><path
       d="m 1219,575.012 c 0,25.428 20.477,45.811 46.009,45.811 25.254,0 45.8,-20.477 45.8,-45.732 0,-25.788 -20.545,-46.091 -46.628,-46.091 -24.793,-10e-4 -45.181,20.844 -45.181,46.012 m 87.05,0 c 0,22.674 -18.368,41.038 -41.041,41.038 -22.772,0 -41.239,-18.275 -41.239,-40.959 0,-23.137 18.19,-41.307 41.505,-41.307 22.308,-10e-4 40.775,18.623 40.775,41.228 z m -31.04,-1.848 0.562,1.109 c 2.109,-0.463 5.961,-1.936 10.002,-3.774 l 0.552,1.02 -1.656,0.911 c -5.872,3.035 -7.804,3.67 -11.203,3.67 -6.789,0 -11.934,-3.853 -14.327,-10.646 -4.218,-0.823 -9.638,-1.188 -16.062,-1.188 -5.508,0 -10.288,0.271 -16.437,1.01 l 1.558,1.927 c 2.847,-0.375 8.089,-0.739 11.854,-0.739 4.493,0 7.342,0.093 8.81,0.182 l 0.729,1.656 c -3.765,-0.183 -5.134,-0.183 -8.08,-0.183 -4.957,0 -8.898,0.183 -12.11,0.454 l 1.557,2.02 c 5.784,-0.172 8.444,-0.271 12.751,-0.271 2.395,0 4.139,0.099 6.986,0.177 l 0.739,1.655 c -2.474,-0.177 -5.873,-0.271 -9.46,-0.271 -3.399,0 -7.431,0.094 -9.824,0.183 l 1.566,2.029 c 1.636,-0.103 4.858,-0.103 7.342,-0.103 3.941,0 8.897,0.182 11.47,0.557 l 0.739,1.463 c -4.682,-0.454 -7.617,-0.636 -12.762,-0.636 -2.02,0 -3.301,0 -5.606,0.183 l 1.754,2.11 c 3.124,-0.184 4.119,-0.184 5.321,-0.184 8.721,0 14.406,1.281 20.112,4.498 -5.232,5.229 -13.953,8.811 -21.768,8.811 -0.641,0 -1.005,0 -2.661,-0.09 l 3.774,3.775 c 20.741,-5.42 24.417,-6.894 43.425,-18.185 7.519,-4.317 13.678,-7.253 18.644,-8.727 l -0.65,-2.291 c -1.202,0.178 -3.764,0.917 -6.159,1.744 l -1.094,-2.483 z"
       id="path2874-3"
       style="fill:#00235f;fill-opacity:1" /></g><g
     id="g5"
     transform="matrix(2.25,0,0,2.25,-2453.9967,-525.95123)"><ellipse
       style="opacity:1;fill:#f9ba00;fill-opacity:1;stroke:none;stroke-width:10.6467"
       id="ellipse4"
       cx="1264.9045"
       cy="574.9115"
       rx="49.875614"
       ry="50" /><path
       d="m 1219,575.012 c 0,25.428 20.477,45.811 46.009,45.811 25.254,0 45.8,-20.477 45.8,-45.732 0,-25.788 -20.545,-46.091 -46.628,-46.091 -24.793,-10e-4 -45.181,20.844 -45.181,46.012 m 87.05,0 c 0,22.674 -18.368,41.038 -41.041,41.038 -22.772,0 -41.239,-18.275 -41.239,-40.959 0,-23.137 18.19,-41.307 41.505,-41.307 22.308,-10e-4 40.775,18.623 40.775,41.228 z m -31.04,-1.848 0.562,1.109 c 2.109,-0.463 5.961,-1.936 10.002,-3.774 l 0.552,1.02 -1.656,0.911 c -5.872,3.035 -7.804,3.67 -11.203,3.67 -6.789,0 -11.934,-3.853 -14.327,-10.646 -4.218,-0.823 -9.638,-1.188 -16.062,-1.188 -5.508,0 -10.288,0.271 -16.437,1.01 l 1.558,1.927 c 2.847,-0.375 8.089,-0.739 11.854,-0.739 4.493,0 7.342,0.093 8.81,0.182 l 0.729,1.656 c -3.765,-0.183 -5.134,-0.183 -8.08,-0.183 -4.957,0 -8.898,0.183 -12.11,0.454 l 1.557,2.02 c 5.784,-0.172 8.444,-0.271 12.751,-0.271 2.395,0 4.139,0.099 6.986,0.177 l 0.739,1.655 c -2.474,-0.177 -5.873,-0.271 -9.46,-0.271 -3.399,0 -7.431,0.094 -9.824,0.183 l 1.566,2.029 c 1.636,-0.103 4.858,-0.103 7.342,-0.103 3.941,0 8.897,0.182 11.47,0.557 l 0.739,1.463 c -4.682,-0.454 -7.617,-0.636 -12.762,-0.636 -2.02,0 -3.301,0 -5.606,0.183 l 1.754,2.11 c 3.124,-0.184 4.119,-0.184 5.321,-0.184 8.721,0 14.406,1.281 20.112,4.498 -5.232,5.229 -13.953,8.811 -21.768,8.811 -0.641,0 -1.005,0 -2.661,-0.09 l 3.774,3.775 c 20.741,-5.42 24.417,-6.894 43.425,-18.185 7.519,-4.317 13.678,-7.253 18.644,-8.727 l -0.65,-2.291 c -1.202,0.178 -3.764,0.917 -6.159,1.744 l -1.094,-2.483 z"
       id="path5"
       style="fill:#00235f;fill-opacity:1" /></g></svg>
