<?xml version="1.0" standalone="no"?>
<!DOCTYPE svg PUBLIC "-//W3C//DTD SVG 1.1//EN" 
  "http://www.w3.org/Graphics/SVG/1.1/DTD/svg11.dtd">
<svg width="1024" height="1024" viewBox="0 0 1024 1024"
     xmlns="http://www.w3.org/2000/svg" version="1.1">
<desc>Boeing_747_Supertanker.blend, (Blender 3.3.9)</desc>
<polygon stroke="black" stroke-width="1" fill="rgb(204, 204, 204)" fill-opacity="1" points="215.367,549.685 113.146,551.409 112.372,610.075 219.334,606.108 " />
<polygon stroke="black" stroke-width="1" fill="rgb(204, 204, 204)" fill-opacity="1" points="636.649,965.335 745.531,966.307 744.894,911.408 636.868,907.848 " />
<polygon stroke="black" stroke-width="1" fill="rgb(204, 204, 204)" fill-opacity="1" points="636.868,907.848 744.894,911.408 744.354,856.385 636.673,851.479 " />
<polygon stroke="black" stroke-width="1" fill="rgb(204, 204, 204)" fill-opacity="1" points="636.673,851.479 744.354,856.385 743.791,801.148 636.015,795.814 " />
<polygon stroke="black" stroke-width="1" fill="rgb(204, 204, 204)" fill-opacity="1" points="636.015,795.814 743.791,801.148 743.319,745.650 634.960,740.444 " />
<polygon stroke="black" stroke-width="1" fill="rgb(204, 204, 204)" fill-opacity="1" points="634.960,740.444 743.319,745.650 743.252,689.854 633.662,684.807 " />
<polygon stroke="black" stroke-width="1" fill="rgb(204, 204, 204)" fill-opacity="1" points="633.662,684.807 743.252,689.854 744.135,633.732 632.381,628.047 " />
<polygon stroke="black" stroke-width="1" fill="rgb(204, 204, 204)" fill-opacity="1" points="632.381,628.047 744.135,633.732 746.855,577.309 631.542,568.896 " />
<polygon stroke="black" stroke-width="1" fill="rgb(204, 204, 204)" fill-opacity="1" points="118.254,154.970 2.940,163.384 5.660,219.807 117.414,214.122 " />
<polygon stroke="black" stroke-width="1" fill="rgb(204, 204, 204)" fill-opacity="1" points="117.414,214.122 5.660,219.807 6.543,275.929 116.133,270.882 " />
<polygon stroke="black" stroke-width="1" fill="rgb(204, 204, 204)" fill-opacity="1" points="116.133,270.882 6.543,275.929 6.476,331.725 114.836,326.519 " />
<polygon stroke="black" stroke-width="1" fill="rgb(204, 204, 204)" fill-opacity="1" points="114.836,326.519 6.476,331.725 6.004,387.223 113.780,381.889 " />
<polygon stroke="black" stroke-width="1" fill="rgb(204, 204, 204)" fill-opacity="1" points="113.780,381.889 6.004,387.223 5.441,442.460 113.122,437.554 " />
<polygon stroke="black" stroke-width="1" fill="rgb(204, 204, 204)" fill-opacity="1" points="113.122,437.554 5.441,442.460 4.901,497.483 112.927,493.923 " />
<polygon stroke="black" stroke-width="1" fill="rgb(204, 204, 204)" fill-opacity="1" points="178.600,874.326 159.851,858.133 34.435,945.514 98.309,1006.405 " />
<polygon stroke="black" stroke-width="1" fill="rgb(204, 204, 204)" fill-opacity="1" points="112.927,493.923 4.901,497.483 4.264,552.381 113.146,551.409 " />
<polygon stroke="black" stroke-width="1" fill="rgb(204, 204, 204)" fill-opacity="1" points="413.374,106.861 671.398,122.265 671.165,88.063 414.017,71.100 " />
<polygon stroke="black" stroke-width="1" fill="rgb(204, 204, 204)" fill-opacity="1" points="416.258,355.483 674.471,355.402 675.912,324.923 417.803,319.968 " />
<polygon stroke="black" stroke-width="1" fill="rgb(204, 204, 204)" fill-opacity="1" points="212.953,494.565 112.927,493.923 113.146,551.409 215.367,549.685 " />
<polygon stroke="black" stroke-width="1" fill="rgb(204, 204, 204)" fill-opacity="1" points="211.795,440.228 113.122,437.554 112.927,493.923 212.953,494.565 " />
<polygon stroke="black" stroke-width="1" fill="rgb(204, 204, 204)" fill-opacity="1" points="211.782,386.222 113.780,381.889 113.122,437.554 211.795,440.228 " />
<polygon stroke="black" stroke-width="1" fill="rgb(204, 204, 204)" fill-opacity="1" points="212.947,332.156 114.836,326.519 113.780,381.889 211.782,386.222 " />
<polygon stroke="black" stroke-width="1" fill="rgb(204, 204, 204)" fill-opacity="1" points="215.455,277.567 116.133,270.882 114.836,326.519 212.947,332.156 " />
<polygon stroke="black" stroke-width="1" fill="rgb(204, 204, 204)" fill-opacity="1" points="219.655,221.808 117.414,214.122 116.133,270.882 215.455,277.567 " />
<polygon stroke="black" stroke-width="1" fill="rgb(204, 204, 204)" fill-opacity="1" points="226.318,163.884 118.254,154.970 117.414,214.122 219.655,221.808 " />
<polygon stroke="black" stroke-width="1" fill="rgb(204, 204, 204)" fill-opacity="1" points="530.140,635.733 632.381,628.047 631.542,568.896 523.477,577.810 " />
<polygon stroke="black" stroke-width="1" fill="rgb(204, 204, 204)" fill-opacity="1" points="534.341,691.492 633.662,684.807 632.381,628.047 530.140,635.733 " />
<polygon stroke="black" stroke-width="1" fill="rgb(204, 204, 204)" fill-opacity="1" points="536.848,746.081 634.960,740.444 633.662,684.807 534.341,691.492 " />
<polygon stroke="black" stroke-width="1" fill="rgb(204, 204, 204)" fill-opacity="1" points="538.013,800.147 636.015,795.814 634.960,740.444 536.848,746.081 " />
<polygon stroke="black" stroke-width="1" fill="rgb(204, 204, 204)" fill-opacity="1" points="538.000,854.153 636.673,851.479 636.015,795.814 538.013,800.147 " />
<polygon stroke="black" stroke-width="1" fill="rgb(204, 204, 204)" fill-opacity="1" points="536.842,908.490 636.868,907.848 636.673,851.479 538.000,854.153 " />
<polygon stroke="black" stroke-width="1" fill="rgb(204, 204, 204)" fill-opacity="1" points="534.428,963.610 636.649,965.335 636.868,907.848 536.842,908.490 " />
<polygon stroke="black" stroke-width="1" fill="rgb(204, 204, 204)" fill-opacity="1" points="425.167,1006.817 530.462,1020.033 534.428,963.610 430.044,957.053 " />
<polygon stroke="black" stroke-width="1" fill="rgb(204, 204, 204)" fill-opacity="1" points="430.044,957.053 534.428,963.610 536.842,908.490 432.776,906.834 " />
<polygon stroke="black" stroke-width="1" fill="rgb(204, 204, 204)" fill-opacity="1" points="432.776,906.834 536.842,908.490 538.000,854.153 433.844,856.339 " />
<polygon stroke="black" stroke-width="1" fill="rgb(204, 204, 204)" fill-opacity="1" points="433.844,856.339 538.000,854.153 538.013,800.147 433.426,805.554 " />
<polygon stroke="black" stroke-width="1" fill="rgb(204, 204, 204)" fill-opacity="1" points="433.426,805.554 538.013,800.147 536.848,746.081 431.483,754.472 " />
<polygon stroke="black" stroke-width="1" fill="rgb(204, 204, 204)" fill-opacity="1" points="431.483,754.472 536.848,746.081 534.341,691.492 427.800,703.105 " />
<polygon stroke="black" stroke-width="1" fill="rgb(204, 204, 204)" fill-opacity="1" points="427.800,703.105 534.341,691.492 530.140,635.733 421.979,651.524 " />
<polygon stroke="black" stroke-width="1" fill="rgb(204, 204, 204)" fill-opacity="1" points="421.979,651.524 530.140,635.733 523.477,577.810 413.374,599.937 " />
<polygon stroke="black" stroke-width="1" fill="rgb(204, 204, 204)" fill-opacity="1" points="336.421,186.012 226.318,163.884 219.655,221.808 327.816,237.599 " />
<polygon stroke="black" stroke-width="1" fill="rgb(204, 204, 204)" fill-opacity="1" points="327.816,237.599 219.655,221.808 215.455,277.567 321.995,289.180 " />
<polygon stroke="black" stroke-width="1" fill="rgb(204, 204, 204)" fill-opacity="1" points="321.995,289.180 215.455,277.567 212.947,332.156 318.312,340.547 " />
<polygon stroke="black" stroke-width="1" fill="rgb(204, 204, 204)" fill-opacity="1" points="318.312,340.547 212.947,332.156 211.782,386.222 316.369,391.629 " />
<polygon stroke="black" stroke-width="1" fill="rgb(204, 204, 204)" fill-opacity="1" points="316.369,391.629 211.782,386.222 211.795,440.228 315.951,442.413 " />
<polygon stroke="black" stroke-width="1" fill="rgb(204, 204, 204)" fill-opacity="1" points="315.951,442.413 211.795,440.228 212.953,494.565 317.019,492.909 " />
<polygon stroke="black" stroke-width="1" fill="rgb(204, 204, 204)" fill-opacity="1" points="317.019,492.909 212.953,494.565 215.367,549.685 319.751,543.128 " />
<polygon stroke="black" stroke-width="1" fill="rgb(204, 204, 204)" fill-opacity="1" points="319.751,543.128 215.367,549.685 219.334,606.108 324.628,592.892 " />
<polygon stroke="black" stroke-width="1" fill="rgb(204, 204, 204)" fill-opacity="1" points="978.346,104.172 1011.320,90.984 1002.999,52.024 957.505,70.219 " />
<polygon stroke="black" stroke-width="1" fill="rgb(204, 204, 204)" fill-opacity="1" points="951.660,127.604 978.346,104.172 957.505,70.219 920.687,102.547 " />
<polygon stroke="black" stroke-width="1" fill="rgb(204, 204, 204)" fill-opacity="1" points="934.318,158.595 951.660,127.604 920.687,102.547 896.761,145.306 " />
<polygon stroke="black" stroke-width="1" fill="rgb(204, 204, 204)" fill-opacity="1" points="928.308,193.596 934.318,158.595 896.761,145.306 888.469,193.596 " />
<polygon stroke="black" stroke-width="1" fill="rgb(204, 204, 204)" fill-opacity="1" points="934.318,228.597 928.308,193.596 888.469,193.596 896.761,241.887 " />
<polygon stroke="black" stroke-width="1" fill="rgb(204, 204, 204)" fill-opacity="1" points="951.660,259.589 934.318,228.597 896.761,241.887 920.687,284.646 " />
<polygon stroke="black" stroke-width="1" fill="rgb(204, 204, 204)" fill-opacity="1" points="978.346,283.021 951.660,259.589 920.687,284.646 957.505,316.974 " />
<polygon stroke="black" stroke-width="1" fill="rgb(204, 204, 204)" fill-opacity="1" points="1011.320,296.208 978.346,283.021 957.505,316.974 1002.999,335.169 " />
<polygon stroke="black" stroke-width="1" fill="rgb(204, 204, 204)" fill-opacity="1" points="855.495,104.172 888.469,90.984 880.149,52.024 834.655,70.219 " />
<polygon stroke="black" stroke-width="1" fill="rgb(204, 204, 204)" fill-opacity="1" points="828.809,127.604 855.495,104.172 834.655,70.219 797.836,102.547 " />
<polygon stroke="black" stroke-width="1" fill="rgb(204, 204, 204)" fill-opacity="1" points="811.468,158.595 828.809,127.604 797.836,102.547 773.911,145.306 " />
<polygon stroke="black" stroke-width="1" fill="rgb(204, 204, 204)" fill-opacity="1" points="805.458,193.596 811.468,158.595 773.911,145.306 765.619,193.596 " />
<polygon stroke="black" stroke-width="1" fill="rgb(204, 204, 204)" fill-opacity="1" points="811.468,228.597 805.458,193.596 765.619,193.596 773.911,241.887 " />
<polygon stroke="black" stroke-width="1" fill="rgb(204, 204, 204)" fill-opacity="1" points="828.809,259.589 811.468,228.597 773.911,241.887 797.836,284.646 " />
<polygon stroke="black" stroke-width="1" fill="rgb(204, 204, 204)" fill-opacity="1" points="855.495,283.021 828.809,259.589 797.836,284.646 834.655,316.974 " />
<polygon stroke="black" stroke-width="1" fill="rgb(204, 204, 204)" fill-opacity="1" points="888.469,296.208 855.495,283.021 834.655,316.974 880.149,335.169 " />
<polygon stroke="black" stroke-width="1" fill="rgb(204, 204, 204)" fill-opacity="1" points="417.803,319.968 675.912,324.923 677.244,294.409 419.254,284.448 " />
<polygon stroke="black" stroke-width="1" fill="rgb(204, 204, 204)" fill-opacity="1" points="418.493,0.000 415.690,35.413 672.870,56.407 676.206,24.642 " />
<polygon stroke="black" stroke-width="1" fill="rgb(204, 204, 204)" fill-opacity="1" points="417.802,248.927 675.912,243.972 674.471,213.493 416.258,213.412 " />
<polygon stroke="black" stroke-width="1" fill="rgb(204, 204, 204)" fill-opacity="1" points="415.690,35.413 414.017,71.100 671.165,88.063 672.870,56.407 " />
<polygon stroke="black" stroke-width="1" fill="rgb(204, 204, 204)" fill-opacity="1" points="414.808,177.898 673.077,183.046 671.962,152.633 413.736,142.374 " />
<polygon stroke="black" stroke-width="1" fill="rgb(204, 204, 204)" fill-opacity="1" points="413.374,462.034 414.017,497.795 671.165,480.832 671.398,446.630 " />
<polygon stroke="black" stroke-width="1" fill="rgb(204, 204, 204)" fill-opacity="1" points="413.736,142.374 671.962,152.633 671.398,122.265 413.374,106.861 " />
<polygon stroke="black" stroke-width="1" fill="rgb(204, 204, 204)" fill-opacity="1" points="413.374,462.034 671.398,446.630 671.962,416.262 413.736,426.522 " />
<polygon stroke="black" stroke-width="1" fill="rgb(204, 204, 204)" fill-opacity="1" points="530.462,1020.033 637.424,1024.000 636.649,965.335 534.428,963.610 " />
<polygon stroke="black" stroke-width="1" fill="rgb(204, 204, 204)" fill-opacity="1" points="413.736,426.522 671.962,416.262 673.077,385.849 414.808,390.998 " />
<polygon stroke="black" stroke-width="1" fill="rgb(204, 204, 204)" fill-opacity="1" points="414.808,390.998 673.077,385.849 674.471,355.402 416.258,355.483 " />
<polygon stroke="black" stroke-width="1" fill="rgb(204, 204, 204)" fill-opacity="1" points="414.017,497.795 415.691,533.482 672.870,512.489 671.165,480.832 " />
<polygon stroke="black" stroke-width="1" fill="rgb(204, 204, 204)" fill-opacity="1" points="416.258,213.412 674.471,213.493 673.077,183.046 414.808,177.898 " />
<polygon stroke="black" stroke-width="1" fill="rgb(204, 204, 204)" fill-opacity="1" points="415.691,533.482 418.493,568.896 676.206,544.254 672.870,512.489 " />
<polygon stroke="black" stroke-width="1" fill="rgb(204, 204, 204)" fill-opacity="1" points="135.662,37.511 69.236,81.765 147.773,65.504 " />
<polygon stroke="black" stroke-width="1" fill="rgb(204, 204, 204)" fill-opacity="1" points="671.165,480.832 672.870,512.489 761.872,500.617 759.976,471.544 " />
<polygon stroke="black" stroke-width="1" fill="rgb(204, 204, 204)" fill-opacity="1" points="672.870,512.489 676.206,544.254 765.619,529.516 761.872,500.617 " />
<polygon stroke="black" stroke-width="1" fill="rgb(204, 204, 204)" fill-opacity="1" points="676.206,24.642 672.870,56.407 761.872,68.279 765.619,39.379 " />
<polygon stroke="black" stroke-width="1" fill="rgb(204, 204, 204)" fill-opacity="1" points="672.870,56.407 671.165,88.063 759.976,97.351 761.872,68.279 " />
<polygon stroke="black" stroke-width="1" fill="rgb(204, 204, 204)" fill-opacity="1" points="858.750,646.370 864.882,661.407 900.502,654.568 889.300,626.664 " />
<polygon stroke="black" stroke-width="1" fill="rgb(204, 204, 204)" fill-opacity="1" points="847.296,634.900 858.750,646.370 889.300,626.664 868.102,604.787 " />
<polygon stroke="black" stroke-width="1" fill="rgb(204, 204, 204)" fill-opacity="1" points="832.289,628.763 847.296,634.900 868.102,604.787 839.745,592.627 " />
<polygon stroke="black" stroke-width="1" fill="rgb(204, 204, 204)" fill-opacity="1" points="815.925,628.539 832.289,628.763 839.745,592.627 808.869,592.466 " />
<polygon stroke="black" stroke-width="1" fill="rgb(204, 204, 204)" fill-opacity="1" points="800.942,634.996 815.925,628.539 808.869,592.466 780.276,604.224 " />
<polygon stroke="black" stroke-width="1" fill="rgb(204, 204, 204)" fill-opacity="1" points="789.262,646.456 800.942,634.996 780.276,604.224 758.426,626.217 " />
<polygon stroke="black" stroke-width="1" fill="rgb(204, 204, 204)" fill-opacity="1" points="782.896,661.538 789.262,646.456 758.426,626.217 746.855,654.677 " />
<polygon stroke="black" stroke-width="1" fill="rgb(204, 204, 204)" fill-opacity="1" points="782.770,677.902 782.896,661.538 746.855,654.677 747.020,685.114 " />
<polygon stroke="black" stroke-width="1" fill="rgb(204, 204, 204)" fill-opacity="1" points="789.186,692.988 782.770,677.902 747.020,685.114 758.668,713.223 " />
<polygon stroke="black" stroke-width="1" fill="rgb(204, 204, 204)" fill-opacity="1" points="800.821,704.442 789.186,692.988 758.668,713.223 780.400,734.911 " />
<polygon stroke="black" stroke-width="1" fill="rgb(204, 204, 204)" fill-opacity="1" points="815.798,710.721 800.821,704.442 780.400,734.911 808.651,746.455 " />
<polygon stroke="black" stroke-width="1" fill="rgb(204, 204, 204)" fill-opacity="1" points="832.100,710.585 815.798,710.721 808.651,746.455 838.978,746.446 " />
<polygon stroke="black" stroke-width="1" fill="rgb(204, 204, 204)" fill-opacity="1" points="847.035,704.203 832.100,710.585 838.978,746.446 867.195,734.793 " />
<polygon stroke="black" stroke-width="1" fill="rgb(204, 204, 204)" fill-opacity="1" points="858.339,692.566 847.035,704.203 867.195,734.793 888.905,713.039 " />
<polygon stroke="black" stroke-width="1" fill="rgb(204, 204, 204)" fill-opacity="1" points="864.736,677.661 858.339,692.566 888.905,713.039 900.502,684.700 " />
<polygon stroke="black" stroke-width="1" fill="rgb(204, 204, 204)" fill-opacity="1" points="864.882,661.407 864.736,677.661 900.502,684.700 900.502,654.568 " />
<polygon stroke="black" stroke-width="1" fill="rgb(204, 204, 204)" fill-opacity="1" points="113.588,16.724 69.236,81.765 135.662,37.511 " />
<polygon stroke="black" stroke-width="1" fill="rgb(204, 204, 204)" fill-opacity="1" points="85.432,6.391 69.236,81.765 113.588,16.724 " />
<polygon stroke="black" stroke-width="1" fill="rgb(204, 204, 204)" fill-opacity="1" points="55.897,7.773 69.236,81.765 85.432,6.391 " />
<polygon stroke="black" stroke-width="1" fill="rgb(204, 204, 204)" fill-opacity="1" points="147.773,65.504 69.236,81.765 147.773,96.005 " />
<polygon stroke="black" stroke-width="1" fill="rgb(204, 204, 204)" fill-opacity="1" points="147.773,96.005 69.236,81.765 135.767,123.848 " />
<polygon stroke="black" stroke-width="1" fill="rgb(204, 204, 204)" fill-opacity="1" points="135.767,123.848 69.236,81.765 114.029,144.512 " />
<polygon stroke="black" stroke-width="1" fill="rgb(204, 204, 204)" fill-opacity="1" points="114.029,144.512 69.236,81.765 86.373,154.970 " />
<polygon stroke="black" stroke-width="1" fill="rgb(204, 204, 204)" fill-opacity="1" points="86.373,154.970 69.236,81.765 57.274,154.071 " />
<polygon stroke="black" stroke-width="1" fill="rgb(204, 204, 204)" fill-opacity="1" points="57.274,154.071 69.236,81.765 31.037,142.434 " />
<polygon stroke="black" stroke-width="1" fill="rgb(204, 204, 204)" fill-opacity="1" points="31.037,142.434 69.236,81.765 11.241,122.083 " />
<polygon stroke="black" stroke-width="1" fill="rgb(204, 204, 204)" fill-opacity="1" points="11.241,122.083 69.236,81.765 0.434,96.010 " />
<polygon stroke="black" stroke-width="1" fill="rgb(204, 204, 204)" fill-opacity="1" points="0.434,96.010 69.236,81.765 0.000,67.789 " />
<polygon stroke="black" stroke-width="1" fill="rgb(204, 204, 204)" fill-opacity="1" points="0.000,67.789 69.236,81.765 10.088,41.251 " />
<polygon stroke="black" stroke-width="1" fill="rgb(204, 204, 204)" fill-opacity="1" points="10.088,41.251 69.236,81.765 29.547,20.153 " />
<polygon stroke="black" stroke-width="1" fill="rgb(204, 204, 204)" fill-opacity="1" points="55.897,7.773 29.547,20.153 69.236,81.765 " />
<polygon stroke="black" stroke-width="1" fill="rgb(204, 204, 204)" fill-opacity="1" points="992.304,957.533 957.134,993.275 963.480,1002.581 1001.643,963.673 " />
<polygon stroke="black" stroke-width="1" fill="rgb(204, 204, 204)" fill-opacity="1" points="957.134,993.275 910.582,1012.809 912.835,1023.975 963.480,1002.581 " />
<polygon stroke="black" stroke-width="1" fill="rgb(204, 204, 204)" fill-opacity="1" points="910.582,1012.809 859.759,1012.849 857.469,1024.000 912.835,1023.975 " />
<polygon stroke="black" stroke-width="1" fill="rgb(204, 204, 204)" fill-opacity="1" points="859.759,1012.849 812.964,993.009 806.558,1002.414 857.469,1024.000 " />
<polygon stroke="black" stroke-width="1" fill="rgb(204, 204, 204)" fill-opacity="1" points="812.964,993.009 777.175,956.812 767.678,963.055 806.558,1002.414 " />
<polygon stroke="black" stroke-width="1" fill="rgb(204, 204, 204)" fill-opacity="1" points="777.175,956.812 757.982,909.831 746.855,911.972 767.678,963.055 " />
<polygon stroke="black" stroke-width="1" fill="rgb(204, 204, 204)" fill-opacity="1" points="757.982,909.831 758.114,859.236 747.056,857.000 746.855,911.972 " />
<polygon stroke="black" stroke-width="1" fill="rgb(204, 204, 204)" fill-opacity="1" points="758.114,859.236 777.340,812.710 768.001,806.489 747.056,857.000 " />
<polygon stroke="black" stroke-width="1" fill="rgb(204, 204, 204)" fill-opacity="1" points="777.340,812.710 812.867,777.014 806.554,767.674 768.001,806.489 " />
<polygon stroke="black" stroke-width="1" fill="rgb(204, 204, 204)" fill-opacity="1" points="812.867,777.014 859.379,757.584 857.155,746.455 806.554,767.674 " />
<polygon stroke="black" stroke-width="1" fill="rgb(204, 204, 204)" fill-opacity="1" points="859.379,757.584 909.932,757.628 912.210,746.516 857.155,746.455 " />
<polygon stroke="black" stroke-width="1" fill="rgb(204, 204, 204)" fill-opacity="1" points="909.932,757.628 956.721,777.270 963.138,767.891 912.210,746.516 " />
<polygon stroke="black" stroke-width="1" fill="rgb(204, 204, 204)" fill-opacity="1" points="956.721,777.270 992.232,813.598 1001.747,807.422 963.138,767.891 " />
<polygon stroke="black" stroke-width="1" fill="rgb(204, 204, 204)" fill-opacity="1" points="992.232,813.598 1011.117,860.598 1022.212,858.473 1001.747,807.422 " />
<polygon stroke="black" stroke-width="1" fill="rgb(204, 204, 204)" fill-opacity="1" points="1011.117,860.598 1011.185,911.087 1022.212,913.261 1022.212,858.473 " />
<polygon stroke="black" stroke-width="1" fill="rgb(204, 204, 204)" fill-opacity="1" points="1011.185,911.087 992.304,957.533 1001.643,963.673 1022.212,913.261 " />
<polygon stroke="black" stroke-width="1" fill="rgb(204, 204, 204)" fill-opacity="1" points="247.090,760.149 266.339,776.892 383.335,698.616 326.619,641.516 " />
<polygon stroke="black" stroke-width="1" fill="rgb(204, 204, 204)" fill-opacity="1" points="203.033,882.492 178.600,874.326 98.309,1006.405 182.709,1024.000 " />
<polygon stroke="black" stroke-width="1" fill="rgb(204, 204, 204)" fill-opacity="1" points="222.635,751.975 247.090,760.149 326.619,641.516 251.316,610.148 " />
<polygon stroke="black" stroke-width="1" fill="rgb(204, 204, 204)" fill-opacity="1" points="228.583,879.596 203.033,882.492 182.709,1024.000 263.558,1020.355 " />
<polygon stroke="black" stroke-width="1" fill="rgb(204, 204, 204)" fill-opacity="1" points="196.687,753.732 222.635,751.975 251.316,610.148 168.801,610.075 " />
<polygon stroke="black" stroke-width="1" fill="rgb(204, 204, 204)" fill-opacity="1" points="251.305,866.746 228.583,879.596 263.558,1020.355 338.364,986.009 " />
<polygon stroke="black" stroke-width="1" fill="rgb(204, 204, 204)" fill-opacity="1" points="155.906,784.862 173.229,765.263 91.793,641.954 32.339,701.464 " />
<polygon stroke="black" stroke-width="1" fill="rgb(204, 204, 204)" fill-opacity="1" points="173.229,765.263 196.687,753.732 168.801,610.075 91.793,641.954 " />
<polygon stroke="black" stroke-width="1" fill="rgb(204, 204, 204)" fill-opacity="1" points="269.609,848.733 251.305,866.746 338.364,986.009 385.208,920.439 " />
<polygon stroke="black" stroke-width="1" fill="rgb(204, 204, 204)" fill-opacity="1" points="147.423,809.521 155.906,784.862 32.339,701.464 0.000,779.962 " />
<polygon stroke="black" stroke-width="1" fill="rgb(204, 204, 204)" fill-opacity="1" points="278.760,824.728 269.609,848.733 385.208,920.439 413.374,849.657 " />
<polygon stroke="black" stroke-width="1" fill="rgb(204, 204, 204)" fill-opacity="1" points="149.098,835.388 147.423,809.521 0.000,779.962 0.419,865.712 " />
<polygon stroke="black" stroke-width="1" fill="rgb(204, 204, 204)" fill-opacity="1" points="277.474,799.593 278.760,824.728 413.374,849.657 413.374,771.906 " />
<polygon stroke="black" stroke-width="1" fill="rgb(204, 204, 204)" fill-opacity="1" points="159.851,858.133 149.098,835.388 0.419,865.712 34.435,945.514 " />
<polygon stroke="black" stroke-width="1" fill="rgb(204, 204, 204)" fill-opacity="1" points="266.339,776.892 277.474,799.593 413.374,771.906 383.335,698.616 " />
<polygon stroke="black" stroke-width="1" fill="rgb(204, 204, 204)" fill-opacity="1" points="1000.296,908.932 983.132,951.501 992.304,957.533 1011.185,911.087 " />
<polygon stroke="black" stroke-width="1" fill="rgb(204, 204, 204)" fill-opacity="1" points="1000.139,862.688 1000.296,908.932 1011.185,911.087 1011.117,860.598 " />
<polygon stroke="black" stroke-width="1" fill="rgb(204, 204, 204)" fill-opacity="1" points="982.831,819.676 1000.139,862.688 1011.117,860.598 992.232,813.598 " />
<polygon stroke="black" stroke-width="1" fill="rgb(204, 204, 204)" fill-opacity="1" points="950.358,786.614 982.831,819.676 992.232,813.598 956.721,777.270 " />
<polygon stroke="black" stroke-width="1" fill="rgb(204, 204, 204)" fill-opacity="1" points="907.757,768.595 950.358,786.614 956.721,777.270 909.932,757.628 " />
<polygon stroke="black" stroke-width="1" fill="rgb(204, 204, 204)" fill-opacity="1" points="861.611,768.490 907.757,768.595 909.932,757.628 859.379,757.584 " />
<polygon stroke="black" stroke-width="1" fill="rgb(204, 204, 204)" fill-opacity="1" points="819.117,786.220 861.611,768.490 859.379,757.584 812.867,777.014 " />
<polygon stroke="black" stroke-width="1" fill="rgb(204, 204, 204)" fill-opacity="1" points="786.512,818.821 819.117,786.220 812.867,777.014 777.340,812.710 " />
<polygon stroke="black" stroke-width="1" fill="rgb(204, 204, 204)" fill-opacity="1" points="769.027,861.456 786.512,818.821 777.340,812.710 758.114,859.236 " />
<polygon stroke="black" stroke-width="1" fill="rgb(204, 204, 204)" fill-opacity="1" points="768.966,907.734 769.027,861.456 758.114,859.236 757.982,909.831 " />
<polygon stroke="black" stroke-width="1" fill="rgb(204, 204, 204)" fill-opacity="1" points="786.555,950.667 768.966,907.734 757.982,909.831 777.175,956.812 " />
<polygon stroke="black" stroke-width="1" fill="rgb(204, 204, 204)" fill-opacity="1" points="819.315,983.735 786.555,950.667 777.175,956.812 812.964,993.009 " />
<polygon stroke="black" stroke-width="1" fill="rgb(204, 204, 204)" fill-opacity="1" points="862.005,1001.759 819.315,983.735 812.964,993.009 859.759,1012.849 " />
<polygon stroke="black" stroke-width="1" fill="rgb(204, 204, 204)" fill-opacity="1" points="908.332,1001.861 862.005,1001.759 859.759,1012.849 910.582,1012.809 " />
<polygon stroke="black" stroke-width="1" fill="rgb(204, 204, 204)" fill-opacity="1" points="950.871,984.107 908.332,1001.861 910.582,1012.809 957.134,993.275 " />
<polygon stroke="black" stroke-width="1" fill="rgb(204, 204, 204)" fill-opacity="1" points="983.132,951.501 950.871,984.107 957.134,993.275 992.304,957.533 " />
<polygon stroke="black" stroke-width="1" fill="rgb(204, 204, 204)" fill-opacity="1" points="872.721,402.957 892.244,402.957 910.281,410.428 924.086,424.233 931.557,442.270 931.557,461.794 924.086,479.831 910.281,493.636 892.244,501.107 872.721,501.107 854.684,493.636 840.879,479.831 833.407,461.794 765.619,475.278 783.410,518.230 816.285,551.104 859.237,568.896 905.728,568.896 948.680,551.104 981.554,518.230 999.345,475.278 999.345,428.786 981.554,385.834 948.680,352.960 905.728,335.169 859.236,335.169 816.284,352.960 783.410,385.834 840.878,424.233 854.684,410.428 " />
<polygon stroke="black" stroke-width="1" fill="rgb(204, 204, 204)" fill-opacity="1" points="419.254,284.448 677.244,274.486 675.912,243.972 417.802,248.927 " />
<polygon stroke="black" stroke-width="1" fill="rgb(204, 204, 204)" fill-opacity="1" points="833.407,442.271 840.878,424.233 783.410,385.834 765.619,428.786 765.619,475.278 833.407,461.794 " />
<polygon stroke="black" stroke-width="1" fill="rgb(204, 204, 204)" fill-opacity="1" points="673.077,183.046 674.471,213.493 762.919,213.003 761.568,184.137 " />
<polygon stroke="black" stroke-width="1" fill="rgb(204, 204, 204)" fill-opacity="1" points="674.471,213.493 675.912,243.972 764.314,241.851 762.919,213.003 " />
<polygon stroke="black" stroke-width="1" fill="rgb(204, 204, 204)" fill-opacity="1" points="671.398,122.265 671.962,152.633 760.467,155.239 759.858,126.303 " />
<polygon stroke="black" stroke-width="1" fill="rgb(204, 204, 204)" fill-opacity="1" points="675.912,243.972 677.244,274.486 765.619,270.694 764.314,241.851 " />
<polygon stroke="black" stroke-width="1" fill="rgb(204, 204, 204)" fill-opacity="1" points="671.165,88.063 671.398,122.265 759.858,126.303 759.976,97.351 " />
<polygon stroke="black" stroke-width="1" fill="rgb(204, 204, 204)" fill-opacity="1" points="671.962,152.633 673.077,183.046 761.568,184.137 760.467,155.239 " />
<polygon stroke="black" stroke-width="1" fill="rgb(204, 204, 204)" fill-opacity="1" points="671.398,446.630 671.165,480.832 759.976,471.544 759.858,442.592 " />
<polygon stroke="black" stroke-width="1" fill="rgb(204, 204, 204)" fill-opacity="1" points="673.077,385.849 671.962,416.262 760.467,413.656 761.568,384.758 " />
<polygon stroke="black" stroke-width="1" fill="rgb(204, 204, 204)" fill-opacity="1" points="674.471,355.402 673.077,385.849 761.568,384.758 762.919,355.892 " />
<polygon stroke="black" stroke-width="1" fill="rgb(204, 204, 204)" fill-opacity="1" points="677.244,294.409 675.912,324.923 764.314,327.044 765.619,298.202 " />
<polygon stroke="black" stroke-width="1" fill="rgb(204, 204, 204)" fill-opacity="1" points="671.962,416.262 671.398,446.630 759.858,442.592 760.467,413.656 " />
<polygon stroke="black" stroke-width="1" fill="rgb(204, 204, 204)" fill-opacity="1" points="675.912,324.923 674.471,355.402 762.919,355.892 764.314,327.044 " />
<polygon stroke="black" stroke-width="1" fill="rgb(204, 204, 204)" fill-opacity="1" points="112.372,610.075 113.146,551.409 4.264,552.381 2.940,607.080 " />
<polygon stroke="black" stroke-width="1" fill="rgb(204, 204, 204)" fill-opacity="1" points="636.649,965.335 637.424,1024.000 746.855,1021.005 745.531,966.307 " />

</svg>
