<?xml version="1.0" encoding="UTF-8" standalone="no"?>
<svg
   width="1024"
   height="1024"
   viewBox="0 0 1024 1024"
   version="1.1"
   id="svg272"
   sodipodi:docname="Fuselage_nm.svg"
   xml:space="preserve"
   inkscape:version="1.3.2 (091e20ef0f, 2023-11-25, custom)"
   xmlns:inkscape="http://www.inkscape.org/namespaces/inkscape"
   xmlns:sodipodi="http://sodipodi.sourceforge.net/DTD/sodipodi-0.dtd"
   xmlns="http://www.w3.org/2000/svg"
   xmlns:svg="http://www.w3.org/2000/svg"><defs
     id="defs272" /><sodipodi:namedview
     id="namedview272"
     pagecolor="#505050"
     bordercolor="#ffffff"
     borderopacity="1"
     inkscape:showpageshadow="0"
     inkscape:pageopacity="0"
     inkscape:pagecheckerboard="1"
     inkscape:deskcolor="#d1d1d1"
     inkscape:zoom="1.2818349"
     inkscape:cx="592.11992"
     inkscape:cy="571.44643"
     inkscape:window-width="1366"
     inkscape:window-height="724"
     inkscape:window-x="-1"
     inkscape:window-y="-1"
     inkscape:window-maximized="1"
     inkscape:current-layer="svg272"
     showguides="true"><sodipodi:guide
       position="11.616,396.55746"
       orientation="1,0"
       id="guide1"
       inkscape:locked="false" /><sodipodi:guide
       position="12.116,396.786"
       orientation="0,-1"
       id="guide2"
       inkscape:locked="false" /><sodipodi:guide
       position="442.5332,505.50977"
       orientation="0,-1"
       id="guide385"
       inkscape:locked="false" /><sodipodi:guide
       position="442.5332,505.50977"
       orientation="1,0"
       id="guide386"
       inkscape:locked="false" /></sodipodi:namedview><desc
     id="desc1">Boeing_747SP.blend, (Blender 3.3.9)</desc><rect
     style="fill:#ffffff;fill-opacity:1;stroke:none;stroke-width:1.00572;stroke-linecap:square;stroke-dasharray:none;stroke-opacity:1"
     id="rect693"
     width="1024"
     height="1024"
     x="0"
     y="0"
     rx="2.4052734"
     ry="2.3779886" /><path
     id="polygon1"
     d="m 878.54492,375.88281 -166.18945,0.0195 -118.16602,17.62696 -151.65625,0.59375 -75.82812,-0.0625 -75.82617,-0.24414 -262.240238,0.0664 -6.048828,1.43164 -6.050782,5.17188 -4.423828,7.70508 v 0.76953 2.30273 1.6211 3.40039 2.53906 2.15234 1.4375 0.50586 l 4.423828,7.02344 6.050782,4.71484 6.048828,1.30469 262.240238,58.04297 75.82617,14.57617 75.82812,9.9082 151.65625,-1.26953 118.16602,0.36719 166.18945,-8.43945 18.58399,-2.08789 18.58203,-3.09961 16.07422,-3.19141 32.15039,-10.97656 32.15234,-15.96289 7.89651,-6.01563 7.9004,-6.72656 v -0.48242 -1.36914 -2.04883 -2.41992 -3.23828 -1.54297 -2.19336 -0.73438 l -7.9004,-7.37695 -7.89651,-5.41016 -32.15234,-16.50976 -32.15039,-17.64063 -11.41797,-7.31836 -4.65625,-2.98632 -18.58203,-10.17188 z m 18.58399,16.75196 8.77148,0.008 -0.002,9.72265 -8.76953,-0.0879 z m 9.70312,0.0684 1.87305,0.11915 4.95508,2.67578 10.07422,6.20507 -8.02344,0.54297 -8.87891,0.10938 z m 3.23438,0.20508 5.64453,0.0234 3.88476,0.10156 11.16602,7.1543 -5.44336,1.4082 -9.60742,-5.80859 z m -31.51563,187.77344 -166.1914,0.0195 -118.16407,17.62695 -151.65625,0.59571 -75.82812,-0.0644 -75.82813,-0.24219 -262.238279,0.0664 -6.050781,1.42969 -6.048828,5.17383 v 1.54101 l -4.423828,6.9336 v 2.30273 1.61914 3.40235 2.53711 2.15234 1.43945 l 4.423828,6.51758 v 1.00977 l 6.048828,4.71679 v -1.3496 l 6.050781,1.21093 v 1.44336 l 262.238279,58.04297 75.82813,14.57617 75.82812,9.90625 151.65625,-1.26953 118.16407,0.36719 166.1914,-8.4375 18.58203,-2.08789 18.58399,-3.09961 16.07422,-3.19336 32.15039,-10.97461 32.15039,-15.96289 7.8984,-6.01758 v -0.96289 l 7.8985,-6.24414 v -1.36914 -2.05078 -2.41797 -3.24024 -1.54296 -2.19141 -0.73437 l -7.8985,-7.37891 v 1.4707 l -7.8984,-4.81055 v -2.07031 l -32.15039,-16.50781 -32.15039,-17.64062 -11.41797,-7.32032 -4.65625,-2.98437 -18.58399,-10.17383 z m 18.58203,16.75391 8.77149,0.008 v 9.72266 l -8.77149,-0.0898 z m 9.70508,0.0684 1.87305,0.11718 1.35937,0.0859 5.64649,0.0254 3.88476,0.0996 11.16602,7.15625 -5.44336,1.4082 -9.60742,-5.80859 -2.05078,-0.28906 10.07226,6.20508 -8.02148,0.54297 -8.87891,0.10742 z"
     style="fill:#ffffff" /><rect
     style="fill:none;stroke:#080000;stroke-width:1;stroke-linecap:square;stroke-dasharray:none;stroke-opacity:1"
     id="rect2"
     width="11.840961"
     height="24.512777"
     x="861.99255"
     y="595.37799"
     rx="4.1292357"
     ry="4.1292357" /><path
     id="rect3"
     style="fill:none;stroke:#080000;stroke-linecap:square"
     d="m 785.57491,673.23248 h 28.07562 c 2.2876,0 4.12924,1.84164 4.12924,4.12924 v 25.38844 c 0,2.2876 -1.84164,4.12924 -4.12924,4.12924 h -28.07562 c -2.28759,0 -4.12923,-1.84164 -4.12923,-4.12924 v -25.38844 c 0,-2.2876 1.84164,-4.12924 4.12923,-4.12924 z"
     sodipodi:nodetypes="sssssssss" /><path
     id="rect4"
     style="fill:none;stroke:#080000;stroke-linecap:square"
     d="m 336.535,673.05151 h 35.84733 c 2.2876,0 4.12253,1.84165 4.12924,4.12924 l 0.0685,23.34784 c 0.007,2.28759 -1.85661,4.39052 -4.12924,4.12924 L 336.535,700.52859 c -2.27263,-0.26128 -4.12924,-1.84164 -4.12924,-4.12924 v -19.2186 c 0,-2.2876 1.84164,-4.12924 4.12924,-4.12924 z"
     sodipodi:nodetypes="sssssssss" /><rect
     style="fill:none;stroke:#080000;stroke-width:1;stroke-linecap:square;stroke-dasharray:none;stroke-opacity:1"
     id="rect5"
     width="20.75536"
     height="40.438526"
     x="832.0675"
     y="632.45844"
     rx="4.1292357"
     ry="4.1292357" /><rect
     style="fill:none;stroke:#080000;stroke-width:1;stroke-linecap:square;stroke-dasharray:none;stroke-opacity:1"
     id="rect6"
     width="20.75536"
     height="40.438526"
     x="711.44977"
     y="632.45844"
     rx="4.1292357"
     ry="4.1292357" /><rect
     style="fill:none;stroke:#080000;stroke-width:1;stroke-linecap:square;stroke-dasharray:none;stroke-opacity:1"
     id="rect7"
     width="20.75536"
     height="40.438526"
     x="425.09134"
     y="632.45844"
     rx="4.1292357"
     ry="4.1292357" /><rect
     style="fill:none;stroke:#080000;stroke-width:1;stroke-linecap:square;stroke-dasharray:none;stroke-opacity:1"
     id="rect8"
     width="20.75536"
     height="40.438526"
     x="229.42236"
     y="632.45844"
     rx="4.1292357"
     ry="4.1292357" /><rect
     style="fill:none;fill-opacity:1;stroke:#080000;stroke-width:1;stroke-linecap:square;stroke-dasharray:none;stroke-opacity:1"
     id="rect28"
     width="4.7559772"
     height="6.3397436"
     x="986.54205"
     y="648.0946"
     rx="2.3779886"
     ry="2.3779886" /><rect
     style="fill:none;fill-opacity:1;stroke:#080000;stroke-width:1;stroke-linecap:square;stroke-dasharray:none;stroke-opacity:1"
     id="rect311"
     width="4.7559772"
     height="6.3397436"
     x="977.97803"
     y="648.0946"
     rx="2.3779886"
     ry="2.3779886" /><rect
     style="fill:none;fill-opacity:1;stroke:#080000;stroke-width:1;stroke-linecap:square;stroke-dasharray:none;stroke-opacity:1"
     id="rect312"
     width="4.7559772"
     height="6.3397436"
     x="967.97803"
     y="648.0946"
     rx="2.3779886"
     ry="2.3779886" /><rect
     style="fill:none;fill-opacity:1;stroke:#080000;stroke-width:1;stroke-linecap:square;stroke-dasharray:none;stroke-opacity:1"
     id="rect313"
     width="4.7559772"
     height="6.3397436"
     x="959.414"
     y="648.0946"
     rx="2.3779886"
     ry="2.3779886" /><rect
     style="fill:none;fill-opacity:1;stroke:#080000;stroke-width:1;stroke-linecap:square;stroke-dasharray:none;stroke-opacity:1"
     id="rect314"
     width="4.7559772"
     height="6.3397436"
     x="949.414"
     y="648.0946"
     rx="2.3779886"
     ry="2.3779886" /><rect
     style="fill:none;fill-opacity:1;stroke:#080000;stroke-width:1;stroke-linecap:square;stroke-dasharray:none;stroke-opacity:1"
     id="rect315"
     width="4.7559772"
     height="6.3397436"
     x="940.46448"
     y="648.0946"
     rx="2.3779886"
     ry="2.3779886" /><rect
     style="fill:none;fill-opacity:1;stroke:#080000;stroke-width:1;stroke-linecap:square;stroke-dasharray:none;stroke-opacity:1"
     id="rect316"
     width="4.7559772"
     height="6.3397436"
     x="931.90045"
     y="648.0946"
     rx="2.3779886"
     ry="2.3779886" /><rect
     style="fill:none;fill-opacity:1;stroke:#080000;stroke-width:1;stroke-linecap:square;stroke-dasharray:none;stroke-opacity:1"
     id="rect317"
     width="4.7559772"
     height="6.3397436"
     x="921.90045"
     y="648.0946"
     rx="2.3779886"
     ry="2.3779886" /><rect
     style="fill:none;fill-opacity:1;stroke:#080000;stroke-width:1;stroke-linecap:square;stroke-dasharray:none;stroke-opacity:1"
     id="rect320"
     width="4.7559772"
     height="6.3397436"
     x="913.33643"
     y="648.0946"
     rx="2.3779886"
     ry="2.3779886" /><rect
     style="fill:none;fill-opacity:1;stroke:#080000;stroke-width:1;stroke-linecap:square;stroke-dasharray:none;stroke-opacity:1"
     id="rect321"
     width="4.7559772"
     height="6.3397436"
     x="903.33643"
     y="648.0946"
     rx="2.3779886"
     ry="2.3779886" /><rect
     style="fill:none;fill-opacity:1;stroke:#080000;stroke-width:1;stroke-linecap:square;stroke-dasharray:none;stroke-opacity:1"
     id="rect322"
     width="4.7559772"
     height="6.3397436"
     x="876.20837"
     y="648.0946"
     rx="2.3779886"
     ry="2.3779886" /><rect
     style="fill:none;fill-opacity:1;stroke:#080000;stroke-width:1;stroke-linecap:square;stroke-dasharray:none;stroke-opacity:1"
     id="rect323"
     width="4.7559772"
     height="6.3397436"
     x="894.7724"
     y="648.0946"
     rx="2.3779886"
     ry="2.3779886" /><rect
     style="fill:none;fill-opacity:1;stroke:#080000;stroke-width:1;stroke-linecap:square;stroke-dasharray:none;stroke-opacity:1"
     id="rect324"
     width="4.7559772"
     height="6.3397436"
     x="884.7724"
     y="648.0946"
     rx="2.3779886"
     ry="2.3779886" /><rect
     style="fill:none;fill-opacity:1;stroke:#080000;stroke-width:1;stroke-linecap:square;stroke-dasharray:none;stroke-opacity:1"
     id="rect325"
     width="4.7559772"
     height="6.3397436"
     x="866.20837"
     y="648.0946"
     rx="2.3779886"
     ry="2.3779886" /><rect
     style="fill:none;fill-opacity:1;stroke:#080000;stroke-width:1;stroke-linecap:square;stroke-dasharray:none;stroke-opacity:1"
     id="rect326"
     width="4.7559772"
     height="6.3397436"
     x="836.11847"
     y="648.0946"
     rx="2.3779886"
     ry="2.3779886" /><rect
     style="fill:none;fill-opacity:1;stroke:#080000;stroke-width:1;stroke-linecap:square;stroke-dasharray:none;stroke-opacity:1"
     id="rect326-6"
     width="4.7559772"
     height="6.3397436"
     x="818.71167"
     y="648.0946"
     rx="2.3779886"
     ry="2.3779886" /><rect
     style="fill:none;fill-opacity:1;stroke:#080000;stroke-width:1;stroke-linecap:square;stroke-dasharray:none;stroke-opacity:1"
     id="rect326-7"
     width="4.7559772"
     height="6.3397436"
     x="810.14764"
     y="648.0946"
     rx="2.3779886"
     ry="2.3779886" /><rect
     style="fill:none;fill-opacity:1;stroke:#080000;stroke-width:1;stroke-linecap:square;stroke-dasharray:none;stroke-opacity:1"
     id="rect326-6-0"
     width="4.7559772"
     height="6.3397436"
     x="800.14764"
     y="648.0946"
     rx="2.3779886"
     ry="2.3779886" /><rect
     style="fill:none;fill-opacity:1;stroke:#080000;stroke-width:1;stroke-linecap:square;stroke-dasharray:none;stroke-opacity:1"
     id="rect326-7-2"
     width="4.7559772"
     height="6.3397436"
     x="791.58362"
     y="648.0946"
     rx="2.3779886"
     ry="2.3779886" /><rect
     style="fill:none;fill-opacity:1;stroke:#080000;stroke-width:1;stroke-linecap:square;stroke-dasharray:none;stroke-opacity:1"
     id="rect326-6-5"
     width="4.7559772"
     height="6.3397436"
     x="781.58362"
     y="648.0946"
     rx="2.3779886"
     ry="2.3779886" /><rect
     style="fill:none;fill-opacity:1;stroke:#080000;stroke-width:1;stroke-linecap:square;stroke-dasharray:none;stroke-opacity:1"
     id="rect326-7-9"
     width="4.7559772"
     height="6.3397436"
     x="773.01959"
     y="648.0946"
     rx="2.3779886"
     ry="2.3779886" /><rect
     style="fill:none;fill-opacity:1;stroke:#080000;stroke-width:1;stroke-linecap:square;stroke-dasharray:none;stroke-opacity:1"
     id="rect326-6-8"
     width="4.7559772"
     height="6.3397436"
     x="763.01959"
     y="648.0946"
     rx="2.3779886"
     ry="2.3779886" /><rect
     style="fill:none;fill-opacity:1;stroke:#080000;stroke-width:1;stroke-linecap:square;stroke-dasharray:none;stroke-opacity:1"
     id="rect326-7-97"
     width="4.7559772"
     height="6.3397436"
     x="754.45557"
     y="648.0946"
     rx="2.3779886"
     ry="2.3779886" /><rect
     style="fill:none;fill-opacity:1;stroke:#080000;stroke-width:1;stroke-linecap:square;stroke-dasharray:none;stroke-opacity:1"
     id="rect326-7-97-1"
     width="4.7559772"
     height="6.3397436"
     x="744.45557"
     y="648.0946"
     rx="2.3779886"
     ry="2.3779886" /><rect
     style="fill:none;fill-opacity:1;stroke:#080000;stroke-width:1;stroke-linecap:square;stroke-dasharray:none;stroke-opacity:1"
     id="rect326-7-97-3"
     width="4.7559772"
     height="6.3397436"
     x="697.23462"
     y="648.0946"
     rx="2.3779886"
     ry="2.3779886" /><rect
     style="fill:none;fill-opacity:1;stroke:#080000;stroke-width:1;stroke-linecap:square;stroke-dasharray:none;stroke-opacity:1"
     id="rect326-7-97-4"
     width="4.7559772"
     height="6.3397436"
     x="688.67059"
     y="648.0946"
     rx="2.3779886"
     ry="2.3779886" /><rect
     style="fill:none;fill-opacity:1;stroke:#080000;stroke-width:1;stroke-linecap:square;stroke-dasharray:none;stroke-opacity:1"
     id="rect327"
     width="4.7559772"
     height="6.3397436"
     x="715.57178"
     y="648.0946"
     rx="2.3779886"
     ry="2.3779886" /><rect
     style="fill:none;fill-opacity:1;stroke:#080000;stroke-width:1;stroke-linecap:square;stroke-dasharray:none;stroke-opacity:1"
     id="rect328"
     width="4.7559772"
     height="6.3397436"
     x="429.24667"
     y="648.0946"
     rx="2.3779886"
     ry="2.3779886" /><rect
     style="fill:none;fill-opacity:1;stroke:#080000;stroke-width:1;stroke-linecap:square;stroke-dasharray:none;stroke-opacity:1"
     id="rect329"
     width="4.7559772"
     height="6.3397436"
     x="233.06369"
     y="648.0946"
     rx="2.3779886"
     ry="2.3779886" /><rect
     style="fill:none;fill-opacity:1;stroke:#080000;stroke-width:1;stroke-linecap:square;stroke-dasharray:none;stroke-opacity:1"
     id="rect341"
     width="4.7559772"
     height="6.3397436"
     x="678.67059"
     y="648.0946"
     rx="2.3779886"
     ry="2.3779886" /><rect
     style="fill:none;fill-opacity:1;stroke:#080000;stroke-width:1;stroke-linecap:square;stroke-dasharray:none;stroke-opacity:1"
     id="rect342"
     width="4.7559772"
     height="6.3397436"
     x="670.10657"
     y="648.0946"
     rx="2.3779886"
     ry="2.3779886" /><rect
     style="fill:none;fill-opacity:1;stroke:#080000;stroke-width:1;stroke-linecap:square;stroke-dasharray:none;stroke-opacity:1"
     id="rect343"
     width="4.7559772"
     height="6.3397436"
     x="660.10657"
     y="648.0946"
     rx="2.3779886"
     ry="2.3779886" /><rect
     style="fill:none;fill-opacity:1;stroke:#080000;stroke-width:1;stroke-linecap:square;stroke-dasharray:none;stroke-opacity:1"
     id="rect344"
     width="4.7559772"
     height="6.3397436"
     x="651.54254"
     y="648.0946"
     rx="2.3779886"
     ry="2.3779886" /><rect
     style="fill:none;fill-opacity:1;stroke:#080000;stroke-width:1;stroke-linecap:square;stroke-dasharray:none;stroke-opacity:1"
     id="rect326-7-97-3-4"
     width="4.7559772"
     height="6.3397436"
     x="627.77319"
     y="648.0946"
     rx="2.3779886"
     ry="2.3779886" /><rect
     style="fill:none;fill-opacity:1;stroke:#080000;stroke-width:1;stroke-linecap:square;stroke-dasharray:none;stroke-opacity:1"
     id="rect326-7-97-4-5"
     width="4.7559772"
     height="6.3397436"
     x="608.75006"
     y="648.0946"
     rx="2.3779886"
     ry="2.3779886" /><rect
     style="fill:none;fill-opacity:1;stroke:#080000;stroke-width:1;stroke-linecap:square;stroke-dasharray:none;stroke-opacity:1"
     id="rect347"
     width="4.7559772"
     height="6.3397436"
     x="588.31354"
     y="648.0946"
     rx="2.3779886"
     ry="2.3779886" /><rect
     style="fill:none;fill-opacity:1;stroke:#080000;stroke-width:1;stroke-linecap:square;stroke-dasharray:none;stroke-opacity:1"
     id="rect348"
     width="4.7559772"
     height="6.3397436"
     x="579.74951"
     y="648.0946"
     rx="2.3779886"
     ry="2.3779886" /><rect
     style="fill:none;fill-opacity:1;stroke:#080000;stroke-width:1;stroke-linecap:square;stroke-dasharray:none;stroke-opacity:1"
     id="rect349"
     width="4.7559772"
     height="6.3397436"
     x="566.28479"
     y="648.0946"
     rx="2.3779886"
     ry="2.3779886" /><rect
     style="fill:none;fill-opacity:1;stroke:#080000;stroke-width:1;stroke-linecap:square;stroke-dasharray:none;stroke-opacity:1"
     id="rect350"
     width="4.7559772"
     height="6.3397436"
     x="557.72076"
     y="648.0946"
     rx="2.3779886"
     ry="2.3779886" /><rect
     style="fill:none;fill-opacity:1;stroke:#080000;stroke-width:1;stroke-linecap:square;stroke-dasharray:none;stroke-opacity:1"
     id="rect351"
     width="4.7559772"
     height="6.3397436"
     x="547.72076"
     y="648.0946"
     rx="2.3779886"
     ry="2.3779886" /><rect
     style="fill:none;fill-opacity:1;stroke:#080000;stroke-width:1;stroke-linecap:square;stroke-dasharray:none;stroke-opacity:1"
     id="rect352"
     width="4.7559772"
     height="6.3397436"
     x="539.15674"
     y="648.0946"
     rx="2.3779886"
     ry="2.3779886" /><rect
     style="fill:none;fill-opacity:1;stroke:#080000;stroke-width:1;stroke-linecap:square;stroke-dasharray:none;stroke-opacity:1"
     id="rect353"
     width="4.7559772"
     height="6.3397436"
     x="512.27246"
     y="648.0946"
     rx="2.3779886"
     ry="2.3779886" /><rect
     style="fill:none;fill-opacity:1;stroke:#080000;stroke-width:1;stroke-linecap:square;stroke-dasharray:none;stroke-opacity:1"
     id="rect354"
     width="4.7559772"
     height="6.3397436"
     x="503.70844"
     y="648.0946"
     rx="2.3779886"
     ry="2.3779886" /><rect
     style="fill:none;fill-opacity:1;stroke:#080000;stroke-width:1;stroke-linecap:square;stroke-dasharray:none;stroke-opacity:1"
     id="rect355"
     width="4.7559772"
     height="6.3397436"
     x="493.70844"
     y="648.0946"
     rx="2.3779886"
     ry="2.3779886" /><rect
     style="fill:none;fill-opacity:1;stroke:#080000;stroke-width:1;stroke-linecap:square;stroke-dasharray:none;stroke-opacity:1"
     id="rect356"
     width="4.7559772"
     height="6.3397436"
     x="485.14441"
     y="648.0946"
     rx="2.3779886"
     ry="2.3779886" /><rect
     style="fill:none;fill-opacity:1;stroke:#080000;stroke-width:1;stroke-linecap:square;stroke-dasharray:none;stroke-opacity:1"
     id="rect357"
     width="4.7559772"
     height="6.3397436"
     x="475.14441"
     y="648.0946"
     rx="2.3779886"
     ry="2.3779886" /><rect
     style="fill:none;fill-opacity:1;stroke:#080000;stroke-width:1;stroke-linecap:square;stroke-dasharray:none;stroke-opacity:1"
     id="rect358"
     width="4.7559772"
     height="6.3397436"
     x="466.58038"
     y="648.0946"
     rx="2.3779886"
     ry="2.3779886" /><rect
     style="fill:none;fill-opacity:1;stroke:#080000;stroke-width:1;stroke-linecap:square;stroke-dasharray:none;stroke-opacity:1"
     id="rect359"
     width="4.7559772"
     height="6.3397436"
     x="525.7146"
     y="648.0946"
     rx="2.3779886"
     ry="2.3779886" /><rect
     style="fill:none;fill-opacity:1;stroke:#080000;stroke-width:1;stroke-linecap:square;stroke-dasharray:none;stroke-opacity:1"
     id="rect347-6"
     width="4.7559772"
     height="6.3397436"
     x="391.91296"
     y="648.0946"
     rx="2.3779886"
     ry="2.3779886" /><rect
     style="fill:none;fill-opacity:1;stroke:#080000;stroke-width:1;stroke-linecap:square;stroke-dasharray:none;stroke-opacity:1"
     id="rect348-1"
     width="4.7559772"
     height="6.3397436"
     x="382.35913"
     y="648.0946"
     rx="2.3779886"
     ry="2.3779886" /><rect
     style="fill:none;fill-opacity:1;stroke:#080000;stroke-width:1;stroke-linecap:square;stroke-dasharray:none;stroke-opacity:1"
     id="rect362"
     width="4.7559772"
     height="6.3397436"
     x="373.5004"
     y="648.0946"
     rx="2.3779886"
     ry="2.3779886" /><rect
     style="fill:none;fill-opacity:1;stroke:#080000;stroke-width:1;stroke-linecap:square;stroke-dasharray:none;stroke-opacity:1"
     id="rect363"
     width="4.7559772"
     height="6.3397436"
     x="363.94656"
     y="648.0946"
     rx="2.3779886"
     ry="2.3779886" /><rect
     style="fill:none;fill-opacity:1;stroke:#080000;stroke-width:1;stroke-linecap:square;stroke-dasharray:none;stroke-opacity:1"
     id="rect364"
     width="4.7559772"
     height="6.3397436"
     x="354.99292"
     y="648.0946"
     rx="2.3779886"
     ry="2.3779886" /><rect
     style="fill:none;fill-opacity:1;stroke:#080000;stroke-width:1;stroke-linecap:square;stroke-dasharray:none;stroke-opacity:1"
     id="rect365"
     width="4.7559772"
     height="6.3397436"
     x="345.43909"
     y="648.0946"
     rx="2.3779886"
     ry="2.3779886" /><rect
     style="fill:none;fill-opacity:1;stroke:#080000;stroke-width:1;stroke-linecap:square;stroke-dasharray:none;stroke-opacity:1"
     id="rect366"
     width="4.7559772"
     height="6.3397436"
     x="336.5629"
     y="648.0946"
     rx="2.3779886"
     ry="2.3779886" /><rect
     style="fill:none;fill-opacity:1;stroke:#080000;stroke-width:1;stroke-linecap:square;stroke-dasharray:none;stroke-opacity:1"
     id="rect367"
     width="4.7559772"
     height="6.3397436"
     x="327.00906"
     y="648.0946"
     rx="2.3779886"
     ry="2.3779886" /><rect
     style="fill:none;fill-opacity:1;stroke:#080000;stroke-width:1;stroke-linecap:square;stroke-dasharray:none;stroke-opacity:1"
     id="rect368"
     width="4.7559772"
     height="6.3397436"
     x="317.43777"
     y="648.0946"
     rx="2.3779886"
     ry="2.3779886" /><rect
     style="fill:none;fill-opacity:1;stroke:#080000;stroke-width:1;stroke-linecap:square;stroke-dasharray:none;stroke-opacity:1"
     id="rect369"
     width="4.7559772"
     height="6.3397436"
     x="307.88394"
     y="648.0946"
     rx="2.3779886"
     ry="2.3779886" /><rect
     style="fill:none;fill-opacity:1;stroke:#080000;stroke-width:1;stroke-linecap:square;stroke-dasharray:none;stroke-opacity:1"
     id="rect370"
     width="4.7559772"
     height="6.3397436"
     x="299.02521"
     y="648.0946"
     rx="2.3779886"
     ry="2.3779886" /><rect
     style="fill:none;fill-opacity:1;stroke:#080000;stroke-width:1;stroke-linecap:square;stroke-dasharray:none;stroke-opacity:1"
     id="rect371"
     width="4.7559772"
     height="6.3397436"
     x="289.47137"
     y="648.0946"
     rx="2.3779886"
     ry="2.3779886" /><rect
     style="fill:none;fill-opacity:1;stroke:#080000;stroke-width:1;stroke-linecap:square;stroke-dasharray:none;stroke-opacity:1"
     id="rect372"
     width="4.7559772"
     height="6.3397436"
     x="280.60391"
     y="648.0946"
     rx="2.3779886"
     ry="2.3779886" /><rect
     style="fill:none;fill-opacity:1;stroke:#080000;stroke-width:1;stroke-linecap:square;stroke-dasharray:none;stroke-opacity:1"
     id="rect347-3"
     width="4.7559772"
     height="6.3397436"
     x="803.17096"
     y="603.58954"
     rx="2.3779886"
     ry="2.3779886" /><rect
     style="fill:none;fill-opacity:1;stroke:#080000;stroke-width:1;stroke-linecap:square;stroke-dasharray:none;stroke-opacity:1"
     id="rect348-2"
     width="4.7559772"
     height="6.3397436"
     x="793.17096"
     y="603.58954"
     rx="2.3779886"
     ry="2.3779886" /><rect
     style="fill:none;fill-opacity:1;stroke:#080000;stroke-width:1;stroke-linecap:square;stroke-dasharray:none;stroke-opacity:1"
     id="rect373"
     width="4.7559772"
     height="6.3397436"
     x="271.75391"
     y="648.0946"
     rx="2.3779886"
     ry="2.3779886" /><rect
     style="fill:none;fill-opacity:1;stroke:#080000;stroke-width:1;stroke-linecap:square;stroke-dasharray:none;stroke-opacity:1"
     id="rect374"
     width="4.7559772"
     height="6.3397436"
     x="262.20007"
     y="648.0946"
     rx="2.3779886"
     ry="2.3779886" /><rect
     style="fill:none;fill-opacity:1;stroke:#080000;stroke-width:1;stroke-linecap:square;stroke-dasharray:none;stroke-opacity:1"
     id="rect377"
     width="4.7559772"
     height="6.3397436"
     x="784.60693"
     y="603.58954"
     rx="2.3779886"
     ry="2.3779886" /><rect
     style="fill:none;fill-opacity:1;stroke:#080000;stroke-width:1;stroke-linecap:square;stroke-dasharray:none;stroke-opacity:1"
     id="rect378"
     width="4.7559772"
     height="6.3397436"
     x="774.60693"
     y="603.58954"
     rx="2.3779886"
     ry="2.3779886" /><rect
     style="fill:none;fill-opacity:1;stroke:#080000;stroke-width:1;stroke-linecap:square;stroke-dasharray:none;stroke-opacity:1"
     id="rect379"
     width="4.7559772"
     height="6.3397436"
     x="766.04291"
     y="603.58954"
     rx="2.3779886"
     ry="2.3779886" /><rect
     style="fill:none;fill-opacity:1;stroke:#080000;stroke-width:1;stroke-linecap:square;stroke-dasharray:none;stroke-opacity:1"
     id="rect380"
     width="4.7559772"
     height="6.3397436"
     x="756.04291"
     y="603.58954"
     rx="2.3779886"
     ry="2.3779886" /><rect
     style="fill:none;fill-opacity:1;stroke:#080000;stroke-width:1;stroke-linecap:square;stroke-dasharray:none;stroke-opacity:1"
     id="rect381"
     width="4.7559772"
     height="6.3397436"
     x="747.47888"
     y="603.58954"
     rx="2.3779886"
     ry="2.3779886" /><rect
     style="fill:none;fill-opacity:1;stroke:#080000;stroke-width:1;stroke-linecap:square;stroke-dasharray:none;stroke-opacity:1"
     id="rect382"
     width="4.7559772"
     height="6.3397436"
     x="737.47888"
     y="603.58954"
     rx="2.3779886"
     ry="2.3779886" /><rect
     style="fill:none;fill-opacity:1;stroke:#080000;stroke-width:1;stroke-linecap:square;stroke-dasharray:none;stroke-opacity:1"
     id="rect383"
     width="4.7559772"
     height="6.3397436"
     x="728.91486"
     y="603.58954"
     rx="2.3779886"
     ry="2.3779886" /><rect
     style="fill:none;fill-opacity:1;stroke:#080000;stroke-width:1;stroke-linecap:square;stroke-dasharray:none;stroke-opacity:1"
     id="rect384"
     width="4.7559772"
     height="6.3397436"
     x="718.91486"
     y="603.58954"
     rx="2.3779886"
     ry="2.3779886" /><rect
     style="fill:none;stroke:#080000;stroke-width:1;stroke-linecap:square;stroke-dasharray:none;stroke-opacity:1"
     id="rect540"
     width="11.840961"
     height="24.512777"
     x="861.99255"
     y="390.57895"
     rx="4.1292357"
     ry="4.1292357" /><path
     id="rect541"
     style="fill:none;stroke:#080000;stroke-linecap:square"
     d="m 785.57491,468.43344 h 28.07562 c 2.2876,0 4.12924,1.84164 4.12924,4.12924 v 25.38844 c 0,2.2876 -1.84164,4.12924 -4.12924,4.12924 h -28.07562 c -2.28759,0 -4.12923,-1.84164 -4.12923,-4.12924 v -25.38844 c 0,-2.2876 1.84164,-4.12924 4.12923,-4.12924 z"
     sodipodi:nodetypes="sssssssss" /><path
     id="path541"
     style="fill:none;stroke:#080000;stroke-linecap:square"
     d="m 336.535,468.25247 h 35.84733 c 2.2876,0 4.12253,1.84165 4.12924,4.12924 l 0.0685,23.34784 c 0.007,2.28759 -1.85661,4.39052 -4.12924,4.12924 L 336.535,495.72955 c -2.27263,-0.26128 -4.12924,-1.84164 -4.12924,-4.12924 v -19.2186 c 0,-2.2876 1.84164,-4.12924 4.12924,-4.12924 z"
     sodipodi:nodetypes="sssssssss" /><rect
     style="fill:none;fill-opacity:1;stroke:#080000;stroke-width:1;stroke-linecap:square;stroke-dasharray:none;stroke-opacity:1"
     id="rect546"
     width="4.7559772"
     height="6.3397436"
     x="986.54205"
     y="443.29556"
     rx="2.3779886"
     ry="2.3779886" /><rect
     style="fill:none;fill-opacity:1;stroke:#080000;stroke-width:1;stroke-linecap:square;stroke-dasharray:none;stroke-opacity:1"
     id="rect547"
     width="4.7559772"
     height="6.3397436"
     x="977.97803"
     y="443.29556"
     rx="2.3779886"
     ry="2.3779886" /><rect
     style="fill:none;fill-opacity:1;stroke:#080000;stroke-width:1;stroke-linecap:square;stroke-dasharray:none;stroke-opacity:1"
     id="rect548"
     width="4.7559772"
     height="6.3397436"
     x="967.97803"
     y="443.29556"
     rx="2.3779886"
     ry="2.3779886" /><rect
     style="fill:none;fill-opacity:1;stroke:#080000;stroke-width:1;stroke-linecap:square;stroke-dasharray:none;stroke-opacity:1"
     id="rect549"
     width="4.7559772"
     height="6.3397436"
     x="959.414"
     y="443.29556"
     rx="2.3779886"
     ry="2.3779886" /><rect
     style="fill:none;fill-opacity:1;stroke:#080000;stroke-width:1;stroke-linecap:square;stroke-dasharray:none;stroke-opacity:1"
     id="rect550"
     width="4.7559772"
     height="6.3397436"
     x="949.414"
     y="443.29556"
     rx="2.3779886"
     ry="2.3779886" /><rect
     style="fill:none;fill-opacity:1;stroke:#080000;stroke-width:1;stroke-linecap:square;stroke-dasharray:none;stroke-opacity:1"
     id="rect551"
     width="4.7559772"
     height="6.3397436"
     x="940.46448"
     y="443.29556"
     rx="2.3779886"
     ry="2.3779886" /><rect
     style="fill:none;fill-opacity:1;stroke:#080000;stroke-width:1;stroke-linecap:square;stroke-dasharray:none;stroke-opacity:1"
     id="rect552"
     width="4.7559772"
     height="6.3397436"
     x="931.90045"
     y="443.29556"
     rx="2.3779886"
     ry="2.3779886" /><rect
     style="fill:none;fill-opacity:1;stroke:#080000;stroke-width:1;stroke-linecap:square;stroke-dasharray:none;stroke-opacity:1"
     id="rect553"
     width="4.7559772"
     height="6.3397436"
     x="921.90045"
     y="443.29556"
     rx="2.3779886"
     ry="2.3779886" /><rect
     style="fill:none;fill-opacity:1;stroke:#080000;stroke-width:1;stroke-linecap:square;stroke-dasharray:none;stroke-opacity:1"
     id="rect554"
     width="4.7559772"
     height="6.3397436"
     x="913.33643"
     y="443.29556"
     rx="2.3779886"
     ry="2.3779886" /><rect
     style="fill:none;fill-opacity:1;stroke:#080000;stroke-width:1;stroke-linecap:square;stroke-dasharray:none;stroke-opacity:1"
     id="rect555"
     width="4.7559772"
     height="6.3397436"
     x="903.33643"
     y="443.29556"
     rx="2.3779886"
     ry="2.3779886" /><rect
     style="fill:none;fill-opacity:1;stroke:#080000;stroke-width:1;stroke-linecap:square;stroke-dasharray:none;stroke-opacity:1"
     id="rect556"
     width="4.7559772"
     height="6.3397436"
     x="876.20837"
     y="443.29556"
     rx="2.3779886"
     ry="2.3779886" /><rect
     style="fill:none;fill-opacity:1;stroke:#080000;stroke-width:1;stroke-linecap:square;stroke-dasharray:none;stroke-opacity:1"
     id="rect557"
     width="4.7559772"
     height="6.3397436"
     x="894.7724"
     y="443.29556"
     rx="2.3779886"
     ry="2.3779886" /><rect
     style="fill:none;fill-opacity:1;stroke:#080000;stroke-width:1;stroke-linecap:square;stroke-dasharray:none;stroke-opacity:1"
     id="rect558"
     width="4.7559772"
     height="6.3397436"
     x="884.7724"
     y="443.29556"
     rx="2.3779886"
     ry="2.3779886" /><rect
     style="fill:none;fill-opacity:1;stroke:#080000;stroke-width:1;stroke-linecap:square;stroke-dasharray:none;stroke-opacity:1"
     id="rect559"
     width="4.7559772"
     height="6.3397436"
     x="866.20837"
     y="443.29556"
     rx="2.3779886"
     ry="2.3779886" /><g
     id="g690"
     transform="matrix(-1,0,0,1,1684.8904,0)"><rect
       style="fill:none;stroke:#080000;stroke-width:1;stroke-linecap:square;stroke-dasharray:none;stroke-opacity:1"
       id="rect542"
       width="20.75536"
       height="40.438526"
       x="832.0675"
       y="427.65939"
       rx="4.1292357"
       ry="4.1292357" /><rect
       style="fill:none;fill-opacity:1;stroke:#080000;stroke-width:1;stroke-linecap:square;stroke-dasharray:none;stroke-opacity:1"
       id="rect560"
       width="4.7559772"
       height="6.3397436"
       x="836.11847"
       y="443.29556"
       rx="2.3779886"
       ry="2.3779886" /></g><rect
     style="fill:none;fill-opacity:1;stroke:#080000;stroke-width:1;stroke-linecap:square;stroke-dasharray:none;stroke-opacity:1"
     id="rect561"
     width="4.7559772"
     height="6.3397436"
     x="818.71167"
     y="443.29556"
     rx="2.3779886"
     ry="2.3779886" /><rect
     style="fill:none;fill-opacity:1;stroke:#080000;stroke-width:1;stroke-linecap:square;stroke-dasharray:none;stroke-opacity:1"
     id="rect562"
     width="4.7559772"
     height="6.3397436"
     x="810.14764"
     y="443.29556"
     rx="2.3779886"
     ry="2.3779886" /><rect
     style="fill:none;fill-opacity:1;stroke:#080000;stroke-width:1;stroke-linecap:square;stroke-dasharray:none;stroke-opacity:1"
     id="rect563"
     width="4.7559772"
     height="6.3397436"
     x="800.14764"
     y="443.29556"
     rx="2.3779886"
     ry="2.3779886" /><rect
     style="fill:none;fill-opacity:1;stroke:#080000;stroke-width:1;stroke-linecap:square;stroke-dasharray:none;stroke-opacity:1"
     id="rect564"
     width="4.7559772"
     height="6.3397436"
     x="791.58362"
     y="443.29556"
     rx="2.3779886"
     ry="2.3779886" /><rect
     style="fill:none;fill-opacity:1;stroke:#080000;stroke-width:1;stroke-linecap:square;stroke-dasharray:none;stroke-opacity:1"
     id="rect565"
     width="4.7559772"
     height="6.3397436"
     x="781.58362"
     y="443.29556"
     rx="2.3779886"
     ry="2.3779886" /><rect
     style="fill:none;fill-opacity:1;stroke:#080000;stroke-width:1;stroke-linecap:square;stroke-dasharray:none;stroke-opacity:1"
     id="rect566"
     width="4.7559772"
     height="6.3397436"
     x="773.01959"
     y="443.29556"
     rx="2.3779886"
     ry="2.3779886" /><rect
     style="fill:none;fill-opacity:1;stroke:#080000;stroke-width:1;stroke-linecap:square;stroke-dasharray:none;stroke-opacity:1"
     id="rect567"
     width="4.7559772"
     height="6.3397436"
     x="763.01959"
     y="443.29556"
     rx="2.3779886"
     ry="2.3779886" /><rect
     style="fill:none;fill-opacity:1;stroke:#080000;stroke-width:1;stroke-linecap:square;stroke-dasharray:none;stroke-opacity:1"
     id="rect568"
     width="4.7559772"
     height="6.3397436"
     x="754.45557"
     y="443.29556"
     rx="2.3779886"
     ry="2.3779886" /><rect
     style="fill:none;fill-opacity:1;stroke:#080000;stroke-width:1;stroke-linecap:square;stroke-dasharray:none;stroke-opacity:1"
     id="rect569"
     width="4.7559772"
     height="6.3397436"
     x="744.45557"
     y="443.29556"
     rx="2.3779886"
     ry="2.3779886" /><rect
     style="fill:none;fill-opacity:1;stroke:#080000;stroke-width:1;stroke-linecap:square;stroke-dasharray:none;stroke-opacity:1"
     id="rect570"
     width="4.7559772"
     height="6.3397436"
     x="697.23462"
     y="443.29556"
     rx="2.3779886"
     ry="2.3779886" /><rect
     style="fill:none;fill-opacity:1;stroke:#080000;stroke-width:1;stroke-linecap:square;stroke-dasharray:none;stroke-opacity:1"
     id="rect571"
     width="4.7559772"
     height="6.3397436"
     x="688.67059"
     y="443.29556"
     rx="2.3779886"
     ry="2.3779886" /><g
     id="g691"
     transform="matrix(-1,0,0,1,1443.6549,0)"><rect
       style="fill:none;stroke:#080000;stroke-width:1;stroke-linecap:square;stroke-dasharray:none;stroke-opacity:1"
       id="rect543"
       width="20.75536"
       height="40.438526"
       x="711.44977"
       y="427.65939"
       rx="4.1292357"
       ry="4.1292357" /><rect
       style="fill:none;fill-opacity:1;stroke:#080000;stroke-width:1;stroke-linecap:square;stroke-dasharray:none;stroke-opacity:1"
       id="rect572"
       width="4.7559772"
       height="6.3397436"
       x="715.57178"
       y="443.29556"
       rx="2.3779886"
       ry="2.3779886" /></g><g
     id="g692"
     transform="matrix(-1,0,0,1,870.93804,0)"><rect
       style="fill:none;stroke:#080000;stroke-width:1;stroke-linecap:square;stroke-dasharray:none;stroke-opacity:1"
       id="rect544"
       width="20.75536"
       height="40.438526"
       x="425.09134"
       y="427.65939"
       rx="4.1292357"
       ry="4.1292357" /><rect
       style="fill:none;fill-opacity:1;stroke:#080000;stroke-width:1;stroke-linecap:square;stroke-dasharray:none;stroke-opacity:1"
       id="rect573"
       width="4.7559772"
       height="6.3397436"
       x="429.24667"
       y="443.29556"
       rx="2.3779886"
       ry="2.3779886" /></g><g
     id="g693"
     transform="matrix(-1,0,0,1,479.60009,0)"><rect
       style="fill:none;stroke:#080000;stroke-width:1;stroke-linecap:square;stroke-dasharray:none;stroke-opacity:1"
       id="rect545"
       width="20.75536"
       height="40.438526"
       x="229.42236"
       y="427.65939"
       rx="4.1292357"
       ry="4.1292357" /><rect
       style="fill:none;fill-opacity:1;stroke:#080000;stroke-width:1;stroke-linecap:square;stroke-dasharray:none;stroke-opacity:1"
       id="rect574"
       width="4.7559772"
       height="6.3397436"
       x="233.06369"
       y="443.29556"
       rx="2.3779886"
       ry="2.3779886" /></g><rect
     style="fill:none;fill-opacity:1;stroke:#080000;stroke-width:1;stroke-linecap:square;stroke-dasharray:none;stroke-opacity:1"
     id="rect575"
     width="4.7559772"
     height="6.3397436"
     x="678.67059"
     y="443.29556"
     rx="2.3779886"
     ry="2.3779886" /><rect
     style="fill:none;fill-opacity:1;stroke:#080000;stroke-width:1;stroke-linecap:square;stroke-dasharray:none;stroke-opacity:1"
     id="rect576"
     width="4.7559772"
     height="6.3397436"
     x="670.10657"
     y="443.29556"
     rx="2.3779886"
     ry="2.3779886" /><rect
     style="fill:none;fill-opacity:1;stroke:#080000;stroke-width:1;stroke-linecap:square;stroke-dasharray:none;stroke-opacity:1"
     id="rect577"
     width="4.7559772"
     height="6.3397436"
     x="660.10657"
     y="443.29556"
     rx="2.3779886"
     ry="2.3779886" /><rect
     style="fill:none;fill-opacity:1;stroke:#080000;stroke-width:1;stroke-linecap:square;stroke-dasharray:none;stroke-opacity:1"
     id="rect578"
     width="4.7559772"
     height="6.3397436"
     x="651.54254"
     y="443.29556"
     rx="2.3779886"
     ry="2.3779886" /><rect
     style="fill:none;fill-opacity:1;stroke:#080000;stroke-width:1;stroke-linecap:square;stroke-dasharray:none;stroke-opacity:1"
     id="rect579"
     width="4.7559772"
     height="6.3397436"
     x="627.77319"
     y="443.29556"
     rx="2.3779886"
     ry="2.3779886" /><rect
     style="fill:none;fill-opacity:1;stroke:#080000;stroke-width:1;stroke-linecap:square;stroke-dasharray:none;stroke-opacity:1"
     id="rect580"
     width="4.7559772"
     height="6.3397436"
     x="608.75006"
     y="443.29556"
     rx="2.3779886"
     ry="2.3779886" /><rect
     style="fill:none;fill-opacity:1;stroke:#080000;stroke-width:1;stroke-linecap:square;stroke-dasharray:none;stroke-opacity:1"
     id="rect581"
     width="4.7559772"
     height="6.3397436"
     x="588.31354"
     y="443.29556"
     rx="2.3779886"
     ry="2.3779886" /><rect
     style="fill:none;fill-opacity:1;stroke:#080000;stroke-width:1;stroke-linecap:square;stroke-dasharray:none;stroke-opacity:1"
     id="rect582"
     width="4.7559772"
     height="6.3397436"
     x="579.74951"
     y="443.29556"
     rx="2.3779886"
     ry="2.3779886" /><rect
     style="fill:none;fill-opacity:1;stroke:#080000;stroke-width:1;stroke-linecap:square;stroke-dasharray:none;stroke-opacity:1"
     id="rect583"
     width="4.7559772"
     height="6.3397436"
     x="566.28479"
     y="443.29556"
     rx="2.3779886"
     ry="2.3779886" /><rect
     style="fill:none;fill-opacity:1;stroke:#080000;stroke-width:1;stroke-linecap:square;stroke-dasharray:none;stroke-opacity:1"
     id="rect584"
     width="4.7559772"
     height="6.3397436"
     x="557.72076"
     y="443.29556"
     rx="2.3779886"
     ry="2.3779886" /><rect
     style="fill:none;fill-opacity:1;stroke:#080000;stroke-width:1;stroke-linecap:square;stroke-dasharray:none;stroke-opacity:1"
     id="rect585"
     width="4.7559772"
     height="6.3397436"
     x="547.72076"
     y="443.29556"
     rx="2.3779886"
     ry="2.3779886" /><rect
     style="fill:none;fill-opacity:1;stroke:#080000;stroke-width:1;stroke-linecap:square;stroke-dasharray:none;stroke-opacity:1"
     id="rect586"
     width="4.7559772"
     height="6.3397436"
     x="539.15674"
     y="443.29556"
     rx="2.3779886"
     ry="2.3779886" /><rect
     style="fill:none;fill-opacity:1;stroke:#080000;stroke-width:1;stroke-linecap:square;stroke-dasharray:none;stroke-opacity:1"
     id="rect587"
     width="4.7559772"
     height="6.3397436"
     x="512.27246"
     y="443.29556"
     rx="2.3779886"
     ry="2.3779886" /><rect
     style="fill:none;fill-opacity:1;stroke:#080000;stroke-width:1;stroke-linecap:square;stroke-dasharray:none;stroke-opacity:1"
     id="rect588"
     width="4.7559772"
     height="6.3397436"
     x="503.70844"
     y="443.29556"
     rx="2.3779886"
     ry="2.3779886" /><rect
     style="fill:none;fill-opacity:1;stroke:#080000;stroke-width:1;stroke-linecap:square;stroke-dasharray:none;stroke-opacity:1"
     id="rect589"
     width="4.7559772"
     height="6.3397436"
     x="493.70844"
     y="443.29556"
     rx="2.3779886"
     ry="2.3779886" /><rect
     style="fill:none;fill-opacity:1;stroke:#080000;stroke-width:1;stroke-linecap:square;stroke-dasharray:none;stroke-opacity:1"
     id="rect590"
     width="4.7559772"
     height="6.3397436"
     x="485.14441"
     y="443.29556"
     rx="2.3779886"
     ry="2.3779886" /><rect
     style="fill:none;fill-opacity:1;stroke:#080000;stroke-width:1;stroke-linecap:square;stroke-dasharray:none;stroke-opacity:1"
     id="rect591"
     width="4.7559772"
     height="6.3397436"
     x="475.14441"
     y="443.29556"
     rx="2.3779886"
     ry="2.3779886" /><rect
     style="fill:none;fill-opacity:1;stroke:#080000;stroke-width:1;stroke-linecap:square;stroke-dasharray:none;stroke-opacity:1"
     id="rect592"
     width="4.7559772"
     height="6.3397436"
     x="466.58038"
     y="443.29556"
     rx="2.3779886"
     ry="2.3779886" /><rect
     style="fill:none;fill-opacity:1;stroke:#080000;stroke-width:1;stroke-linecap:square;stroke-dasharray:none;stroke-opacity:1"
     id="rect593"
     width="4.7559772"
     height="6.3397436"
     x="525.7146"
     y="443.29556"
     rx="2.3779886"
     ry="2.3779886" /><rect
     style="fill:none;fill-opacity:1;stroke:#080000;stroke-width:1;stroke-linecap:square;stroke-dasharray:none;stroke-opacity:1"
     id="rect594"
     width="4.7559772"
     height="6.3397436"
     x="391.91296"
     y="443.29556"
     rx="2.3779886"
     ry="2.3779886" /><rect
     style="fill:none;fill-opacity:1;stroke:#080000;stroke-width:1;stroke-linecap:square;stroke-dasharray:none;stroke-opacity:1"
     id="rect595"
     width="4.7559772"
     height="6.3397436"
     x="382.35913"
     y="443.29556"
     rx="2.3779886"
     ry="2.3779886" /><rect
     style="fill:none;fill-opacity:1;stroke:#080000;stroke-width:1;stroke-linecap:square;stroke-dasharray:none;stroke-opacity:1"
     id="rect596"
     width="4.7559772"
     height="6.3397436"
     x="373.5004"
     y="443.29556"
     rx="2.3779886"
     ry="2.3779886" /><rect
     style="fill:none;fill-opacity:1;stroke:#080000;stroke-width:1;stroke-linecap:square;stroke-dasharray:none;stroke-opacity:1"
     id="rect597"
     width="4.7559772"
     height="6.3397436"
     x="363.94656"
     y="443.29556"
     rx="2.3779886"
     ry="2.3779886" /><rect
     style="fill:none;fill-opacity:1;stroke:#080000;stroke-width:1;stroke-linecap:square;stroke-dasharray:none;stroke-opacity:1"
     id="rect598"
     width="4.7559772"
     height="6.3397436"
     x="354.99292"
     y="443.29556"
     rx="2.3779886"
     ry="2.3779886" /><rect
     style="fill:none;fill-opacity:1;stroke:#080000;stroke-width:1;stroke-linecap:square;stroke-dasharray:none;stroke-opacity:1"
     id="rect599"
     width="4.7559772"
     height="6.3397436"
     x="345.43909"
     y="443.29556"
     rx="2.3779886"
     ry="2.3779886" /><rect
     style="fill:none;fill-opacity:1;stroke:#080000;stroke-width:1;stroke-linecap:square;stroke-dasharray:none;stroke-opacity:1"
     id="rect600"
     width="4.7559772"
     height="6.3397436"
     x="336.5629"
     y="443.29556"
     rx="2.3779886"
     ry="2.3779886" /><rect
     style="fill:none;fill-opacity:1;stroke:#080000;stroke-width:1;stroke-linecap:square;stroke-dasharray:none;stroke-opacity:1"
     id="rect601"
     width="4.7559772"
     height="6.3397436"
     x="327.00906"
     y="443.29556"
     rx="2.3779886"
     ry="2.3779886" /><rect
     style="fill:none;fill-opacity:1;stroke:#080000;stroke-width:1;stroke-linecap:square;stroke-dasharray:none;stroke-opacity:1"
     id="rect602"
     width="4.7559772"
     height="6.3397436"
     x="317.43777"
     y="443.29556"
     rx="2.3779886"
     ry="2.3779886" /><rect
     style="fill:none;fill-opacity:1;stroke:#080000;stroke-width:1;stroke-linecap:square;stroke-dasharray:none;stroke-opacity:1"
     id="rect603"
     width="4.7559772"
     height="6.3397436"
     x="307.88394"
     y="443.29556"
     rx="2.3779886"
     ry="2.3779886" /><rect
     style="fill:none;fill-opacity:1;stroke:#080000;stroke-width:1;stroke-linecap:square;stroke-dasharray:none;stroke-opacity:1"
     id="rect604"
     width="4.7559772"
     height="6.3397436"
     x="299.02521"
     y="443.29556"
     rx="2.3779886"
     ry="2.3779886" /><rect
     style="fill:none;fill-opacity:1;stroke:#080000;stroke-width:1;stroke-linecap:square;stroke-dasharray:none;stroke-opacity:1"
     id="rect605"
     width="4.7559772"
     height="6.3397436"
     x="289.47137"
     y="443.29556"
     rx="2.3779886"
     ry="2.3779886" /><rect
     style="fill:none;fill-opacity:1;stroke:#080000;stroke-width:1;stroke-linecap:square;stroke-dasharray:none;stroke-opacity:1"
     id="rect606"
     width="4.7559772"
     height="6.3397436"
     x="280.60391"
     y="443.29556"
     rx="2.3779886"
     ry="2.3779886" /><rect
     style="fill:none;fill-opacity:1;stroke:#080000;stroke-width:1;stroke-linecap:square;stroke-dasharray:none;stroke-opacity:1"
     id="rect607"
     width="4.7559772"
     height="6.3397436"
     x="803.17096"
     y="398.7905"
     rx="2.3779886"
     ry="2.3779886" /><rect
     style="fill:none;fill-opacity:1;stroke:#080000;stroke-width:1;stroke-linecap:square;stroke-dasharray:none;stroke-opacity:1"
     id="rect608"
     width="4.7559772"
     height="6.3397436"
     x="793.17096"
     y="398.7905"
     rx="2.3779886"
     ry="2.3779886" /><rect
     style="fill:none;fill-opacity:1;stroke:#080000;stroke-width:1;stroke-linecap:square;stroke-dasharray:none;stroke-opacity:1"
     id="rect609"
     width="4.7559772"
     height="6.3397436"
     x="271.75391"
     y="443.29556"
     rx="2.3779886"
     ry="2.3779886" /><rect
     style="fill:none;fill-opacity:1;stroke:#080000;stroke-width:1;stroke-linecap:square;stroke-dasharray:none;stroke-opacity:1"
     id="rect610"
     width="4.7559772"
     height="6.3397436"
     x="262.20007"
     y="443.29556"
     rx="2.3779886"
     ry="2.3779886" /><rect
     style="fill:none;fill-opacity:1;stroke:#080000;stroke-width:1;stroke-linecap:square;stroke-dasharray:none;stroke-opacity:1"
     id="rect611"
     width="4.7559772"
     height="6.3397436"
     x="784.60693"
     y="398.7905"
     rx="2.3779886"
     ry="2.3779886" /><rect
     style="fill:none;fill-opacity:1;stroke:#080000;stroke-width:1;stroke-linecap:square;stroke-dasharray:none;stroke-opacity:1"
     id="rect612"
     width="4.7559772"
     height="6.3397436"
     x="774.60693"
     y="398.7905"
     rx="2.3779886"
     ry="2.3779886" /><rect
     style="fill:none;fill-opacity:1;stroke:#080000;stroke-width:1;stroke-linecap:square;stroke-dasharray:none;stroke-opacity:1"
     id="rect613"
     width="4.7559772"
     height="6.3397436"
     x="766.04291"
     y="398.7905"
     rx="2.3779886"
     ry="2.3779886" /><rect
     style="fill:none;fill-opacity:1;stroke:#080000;stroke-width:1;stroke-linecap:square;stroke-dasharray:none;stroke-opacity:1"
     id="rect614"
     width="4.7559772"
     height="6.3397436"
     x="756.04291"
     y="398.7905"
     rx="2.3779886"
     ry="2.3779886" /><rect
     style="fill:none;fill-opacity:1;stroke:#080000;stroke-width:1;stroke-linecap:square;stroke-dasharray:none;stroke-opacity:1"
     id="rect615"
     width="4.7559772"
     height="6.3397436"
     x="747.47888"
     y="398.7905"
     rx="2.3779886"
     ry="2.3779886" /><rect
     style="fill:none;fill-opacity:1;stroke:#080000;stroke-width:1;stroke-linecap:square;stroke-dasharray:none;stroke-opacity:1"
     id="rect616"
     width="4.7559772"
     height="6.3397436"
     x="737.47888"
     y="398.7905"
     rx="2.3779886"
     ry="2.3779886" /><rect
     style="fill:none;fill-opacity:1;stroke:#080000;stroke-width:1;stroke-linecap:square;stroke-dasharray:none;stroke-opacity:1"
     id="rect617"
     width="4.7559772"
     height="6.3397436"
     x="728.91486"
     y="398.7905"
     rx="2.3779886"
     ry="2.3779886" /><rect
     style="fill:none;fill-opacity:1;stroke:#080000;stroke-width:1;stroke-linecap:square;stroke-dasharray:none;stroke-opacity:1"
     id="rect618"
     width="4.7559772"
     height="6.3397436"
     x="718.91486"
     y="398.7905"
     rx="2.3779886"
     ry="2.3779886" /></svg>
