<?xml version="1.0" standalone="no"?>
<!DOCTYPE svg PUBLIC "-//W3C//DTD SVG 1.1//EN" 
  "http://www.w3.org/Graphics/SVG/1.1/DTD/svg11.dtd">
<svg width="2048" height="2048" viewBox="0 0 2048 2048"
     xmlns="http://www.w3.org/2000/svg" version="1.1">
<desc>Boeing_747_AAC.blend, (Blender 3.3.9)</desc>
<polygon stroke="black" stroke-width="1" fill="rgb(204, 204, 204)" fill-opacity="1" points="1047.423,1687.434 978.829,1687.145 981.492,2008.012 1047.423,2005.426 " />
<polygon stroke="black" stroke-width="1" fill="rgb(204, 204, 204)" fill-opacity="1" points="303.026,360.842 376.470,367.070 382.066,67.168 311.809,39.910 " />
<polygon stroke="black" stroke-width="1" fill="rgb(204, 204, 204)" fill-opacity="1" points="376.470,367.070 426.771,365.227 430.831,46.996 382.066,67.168 " />
<polygon stroke="black" stroke-width="1" fill="rgb(204, 204, 204)" fill-opacity="1" points="313.472,531.482 341.613,791.521 407.065,793.678 384.971,533.979 " />
<polygon stroke="black" stroke-width="1" fill="rgb(204, 204, 204)" fill-opacity="1" points="384.971,533.979 407.065,793.678 451.477,795.137 461.603,536.344 " />
<polygon stroke="black" stroke-width="1" fill="rgb(204, 204, 204)" fill-opacity="1" points="1047.424,1517.406 1047.424,1257.051 978.143,1256.250 978.208,1516.449 " />
<polygon stroke="black" stroke-width="1" fill="rgb(204, 204, 204)" fill-opacity="1" points="319.413,1540.705 304.582,2039.959 370.383,2041.990 385.079,1542.715 " />
<polygon stroke="black" stroke-width="1" fill="rgb(204, 204, 204)" fill-opacity="1" points="1047.424,507.914 1047.424,8.762 978.057,8.035 978.061,507.199 " />
<polygon stroke="black" stroke-width="1" fill="rgb(204, 204, 204)" fill-opacity="1" points="429.438,1543.277 385.079,1542.715 370.383,2041.990 414.704,2042.020 " />
<polygon stroke="black" stroke-width="1" fill="rgb(204, 204, 204)" fill-opacity="1" points="978.056,368.602 978.056,50.607 912.096,51.398 909.457,369.422 " />
<polygon stroke="black" stroke-width="1" fill="rgb(204, 204, 204)" fill-opacity="1" points="1.578,1687.324 10.281,2005.414 80.352,1965.406 75.011,1679.086 " />
<polygon stroke="black" stroke-width="1" fill="rgb(204, 204, 204)" fill-opacity="1" points="75.011,1679.086 80.352,1965.406 129.426,2001.703 125.369,1683.473 " />
<polygon stroke="black" stroke-width="1" fill="rgb(204, 204, 204)" fill-opacity="1" points="125.369,1683.473 228.217,1717.594 228.273,1619.465 124.646,1624.070 " />
<polygon stroke="black" stroke-width="1" fill="rgb(204, 204, 204)" fill-opacity="1" points="12.037,1517.219 83.560,1514.723 105.652,1255.023 40.176,1257.180 " />
<polygon stroke="black" stroke-width="1" fill="rgb(204, 204, 204)" fill-opacity="1" points="83.560,1514.723 158.212,1511.965 150.073,1253.562 105.652,1255.023 " />
<polygon stroke="black" stroke-width="1" fill="rgb(204, 204, 204)" fill-opacity="1" points="978.056,538.629 908.840,539.586 908.775,799.783 978.056,798.984 " />
<polygon stroke="black" stroke-width="1" fill="rgb(204, 204, 204)" fill-opacity="1" points="17.976,507.996 83.667,505.984 68.971,6.711 3.145,8.742 " />
<polygon stroke="black" stroke-width="1" fill="rgb(204, 204, 204)" fill-opacity="1" points="978.056,1548.121 908.693,1548.834 908.689,2048.000 978.056,2047.273 " />
<polygon stroke="black" stroke-width="1" fill="rgb(204, 204, 204)" fill-opacity="1" points="83.667,505.984 105.652,1255.023 150.073,1253.562 127.910,503.535 " />
<polygon stroke="black" stroke-width="1" fill="rgb(204, 204, 204)" fill-opacity="1" points="529.658,426.809 529.613,330.684 426.771,365.227 426.046,424.631 " />
<polygon stroke="black" stroke-width="1" fill="rgb(204, 204, 204)" fill-opacity="1" points="158.212,1511.965 124.646,1624.070 228.273,1619.465 231.970,1508.887 " />
<polygon stroke="black" stroke-width="1" fill="rgb(204, 204, 204)" fill-opacity="1" points="529.815,53.895 529.752,139.303 599.906,52.367 598.807,9.738 529.849,7.506 " />
<polygon stroke="black" stroke-width="1" fill="rgb(204, 204, 204)" fill-opacity="1" points="529.658,426.809 602.839,430.328 602.380,370.801 529.613,330.684 " />
<polygon stroke="black" stroke-width="1" fill="rgb(204, 204, 204)" fill-opacity="1" points="533.358,538.115 602.839,541.221 602.839,430.328 529.658,426.809 " />
<polygon stroke="black" stroke-width="1" fill="rgb(204, 204, 204)" fill-opacity="1" points="978.056,50.607 978.056,8.035 912.449,8.820 912.096,51.398 " />
<polygon stroke="black" stroke-width="1" fill="rgb(204, 204, 204)" fill-opacity="1" points="981.492,2008.012 981.817,2047.215 1047.423,2048.000 1047.423,2005.426 " />
<polygon stroke="black" stroke-width="1" fill="rgb(204, 204, 204)" fill-opacity="1" points="129.426,2001.703 129.969,2044.309 228.450,2041.195 228.417,1994.742 228.355,1909.508 " />
<polygon stroke="black" stroke-width="1" fill="rgb(204, 204, 204)" fill-opacity="1" points="74.055,1625.727 75.011,1679.086 125.369,1683.473 124.646,1624.070 " />
<polygon stroke="black" stroke-width="1" fill="rgb(204, 204, 204)" fill-opacity="1" points="0.000,1628.164 1.578,1687.324 75.011,1679.086 74.055,1625.727 " />
<polygon stroke="black" stroke-width="1" fill="rgb(204, 204, 204)" fill-opacity="1" points="978.056,427.666 978.056,368.602 909.457,369.422 908.913,428.572 " />
<polygon stroke="black" stroke-width="1" fill="rgb(204, 204, 204)" fill-opacity="1" points="375.466,422.973 426.046,424.631 426.771,365.227 376.470,367.070 " />
<polygon stroke="black" stroke-width="1" fill="rgb(204, 204, 204)" fill-opacity="1" points="301.434,420.535 375.466,422.973 376.470,367.070 303.026,360.842 " />
<polygon stroke="black" stroke-width="1" fill="rgb(204, 204, 204)" fill-opacity="1" points="1047.423,1628.367 978.280,1627.461 978.829,1687.145 1047.423,1687.434 " />
<polygon stroke="black" stroke-width="1" fill="rgb(204, 204, 204)" fill-opacity="1" points="125.369,1683.473 129.426,2001.703 228.355,1909.508 228.217,1717.594 " />
<polygon stroke="black" stroke-width="1" fill="rgb(204, 204, 204)" fill-opacity="1" points="529.613,330.684 529.752,139.303 430.831,46.996 426.771,365.227 " />
<polygon stroke="black" stroke-width="1" fill="rgb(204, 204, 204)" fill-opacity="1" points="602.380,370.801 599.906,52.367 529.752,139.303 529.613,330.684 " />
<polygon stroke="black" stroke-width="1" fill="rgb(204, 204, 204)" fill-opacity="1" points="228.355,1909.508 228.417,1994.742 228.450,2041.195 297.399,2038.961 298.498,1996.332 " />
<polygon stroke="black" stroke-width="1" fill="rgb(204, 204, 204)" fill-opacity="1" points="228.217,1717.594 228.355,1909.508 298.498,1996.332 301.030,1670.797 " />
<polygon stroke="black" stroke-width="1" fill="rgb(204, 204, 204)" fill-opacity="1" points="301.434,1618.371 228.273,1619.465 228.217,1717.594 301.030,1670.797 " />
<polygon stroke="black" stroke-width="1" fill="rgb(204, 204, 204)" fill-opacity="1" points="505.419,2044.293 568.987,2048.000 583.304,1548.908 520.069,1545.797 " />
<polygon stroke="black" stroke-width="1" fill="rgb(204, 204, 204)" fill-opacity="1" points="113.091,3.539 127.910,503.535 218.436,500.258 203.625,0.000 " />
<polygon stroke="black" stroke-width="1" fill="rgb(204, 204, 204)" fill-opacity="1" points="203.625,0.000 218.436,500.258 281.899,499.789 267.581,0.703 " />
<polygon stroke="black" stroke-width="1" fill="rgb(204, 204, 204)" fill-opacity="1" points="68.971,6.711 83.667,505.984 127.910,503.535 113.091,3.539 " />
<polygon stroke="black" stroke-width="1" fill="rgb(204, 204, 204)" fill-opacity="1" points="978.056,798.984 908.775,799.783 908.693,1548.834 978.056,1548.121 " />
<polygon stroke="black" stroke-width="1" fill="rgb(204, 204, 204)" fill-opacity="1" points="40.176,1257.180 105.652,1255.023 83.667,505.984 17.976,507.996 " />
<polygon stroke="black" stroke-width="1" fill="rgb(204, 204, 204)" fill-opacity="1" points="451.477,795.137 407.065,793.678 385.079,1542.715 429.438,1543.277 " />
<polygon stroke="black" stroke-width="1" fill="rgb(204, 204, 204)" fill-opacity="1" points="1047.424,1257.051 1047.424,507.914 978.061,507.199 978.143,1256.250 " />
<polygon stroke="black" stroke-width="1" fill="rgb(204, 204, 204)" fill-opacity="1" points="341.613,791.521 319.413,1540.705 385.079,1542.715 407.065,793.678 " />
<polygon stroke="black" stroke-width="1" fill="rgb(204, 204, 204)" fill-opacity="1" points="505.419,2044.293 520.069,1545.797 429.438,1543.277 414.704,2042.020 " />
<polygon stroke="black" stroke-width="1" fill="rgb(204, 204, 204)" fill-opacity="1" points="529.658,426.809 426.046,424.631 461.603,536.344 533.358,538.115 " />
<polygon stroke="black" stroke-width="1" fill="rgb(204, 204, 204)" fill-opacity="1" points="228.273,1619.465 301.434,1618.371 301.434,1507.480 231.970,1508.887 " />
<polygon stroke="black" stroke-width="1" fill="rgb(204, 204, 204)" fill-opacity="1" points="978.056,427.666 908.913,428.572 908.840,539.586 978.056,538.629 " />
<polygon stroke="black" stroke-width="1" fill="rgb(204, 204, 204)" fill-opacity="1" points="74.055,1625.727 124.646,1624.070 158.212,1511.965 83.560,1514.723 " />
<polygon stroke="black" stroke-width="1" fill="rgb(204, 204, 204)" fill-opacity="1" points="0.000,1628.164 74.055,1625.727 83.560,1514.723 12.037,1517.219 " />
<polygon stroke="black" stroke-width="1" fill="rgb(204, 204, 204)" fill-opacity="1" points="1047.423,1628.367 1047.424,1517.406 978.208,1516.449 978.280,1627.461 " />
<polygon stroke="black" stroke-width="1" fill="rgb(204, 204, 204)" fill-opacity="1" points="375.466,422.973 384.971,533.979 461.603,536.344 426.046,424.631 " />
<polygon stroke="black" stroke-width="1" fill="rgb(204, 204, 204)" fill-opacity="1" points="301.434,420.535 313.472,531.482 384.971,533.979 375.466,422.973 " />
<polygon stroke="black" stroke-width="1" fill="rgb(204, 204, 204)" fill-opacity="1" points="129.969,2044.309 129.426,2001.703 80.352,1965.406 81.852,2045.816 " />
<polygon stroke="black" stroke-width="1" fill="rgb(204, 204, 204)" fill-opacity="1" points="81.852,2045.816 80.352,1965.406 10.281,2005.414 11.446,2048.000 " />
<polygon stroke="black" stroke-width="1" fill="rgb(204, 204, 204)" fill-opacity="1" points="383.266,2.883 382.066,67.168 430.831,46.996 431.374,4.391 " />
<polygon stroke="black" stroke-width="1" fill="rgb(204, 204, 204)" fill-opacity="1" points="312.882,0.699 311.809,39.910 382.066,67.168 383.266,2.883 " />
<polygon stroke="black" stroke-width="1" fill="rgb(204, 204, 204)" fill-opacity="1" points="431.374,4.391 430.831,46.996 529.752,139.303 529.815,53.895 529.849,7.506 " />
<polygon stroke="black" stroke-width="1" fill="rgb(204, 204, 204)" fill-opacity="1" points="1309.742,849.742 1309.984,909.328 1315.725,909.305 1315.483,849.770 " />
<polygon stroke="black" stroke-width="1" fill="rgb(204, 204, 204)" fill-opacity="1" points="1311.450,738.801 1309.742,849.742 1315.483,849.770 1317.153,738.891 " />
<polygon stroke="black" stroke-width="1" fill="rgb(204, 204, 204)" fill-opacity="1" points="1335.936,1270.445 1335.936,771.287 1330.250,771.234 1330.267,1270.240 " />
<polygon stroke="black" stroke-width="1" fill="rgb(204, 204, 204)" fill-opacity="1" points="1310.719,1297.204 1241.972,1270.445 1240.843,1276.191 1307.650,1302.178 " />
<polygon stroke="black" stroke-width="1" fill="rgb(204, 204, 204)" fill-opacity="1" points="1241.972,1270.445 1169.687,1270.445 1170.911,1276.234 1240.843,1276.191 " />
<polygon stroke="black" stroke-width="1" fill="rgb(204, 204, 204)" fill-opacity="1" points="1169.687,1270.445 1108.993,1299.750 1112.948,1304.136 1170.911,1276.234 " />
<polygon stroke="black" stroke-width="1" fill="rgb(204, 204, 204)" fill-opacity="1" points="1317.366,1107.025 1317.153,1159.506 1322.894,1159.479 1323.107,1107.047 " />
<polygon stroke="black" stroke-width="1" fill="rgb(204, 204, 204)" fill-opacity="1" points="1317.153,1159.506 1318.861,1270.445 1324.564,1270.355 1322.894,1159.479 " />
<polygon stroke="black" stroke-width="1" fill="rgb(204, 204, 204)" fill-opacity="1" points="1330.250,1270.391 1330.250,771.233 1324.582,771.440 1324.564,1270.445 " />
<polygon stroke="black" stroke-width="1" fill="rgb(204, 204, 204)" fill-opacity="1" points="1365.468,1346.650 1310.719,1297.204 1307.650,1302.178 1360.836,1350.234 " />
<polygon stroke="black" stroke-width="1" fill="rgb(204, 204, 204)" fill-opacity="1" points="1397.887,1411.259 1365.468,1346.650 1360.836,1350.234 1392.164,1412.761 " />
<polygon stroke="black" stroke-width="1" fill="rgb(204, 204, 204)" fill-opacity="1" points="1398.916,1478.650 1397.887,1411.259 1392.164,1412.761 1393.220,1477.083 " />
<polygon stroke="black" stroke-width="1" fill="rgb(204, 204, 204)" fill-opacity="1" points="1311.277,1227.805 1311.450,1270.445 1317.153,1270.422 1317.018,1227.785 " />
<polygon stroke="black" stroke-width="1" fill="rgb(204, 204, 204)" fill-opacity="1" points="1318.861,738.803 1318.688,781.441 1324.429,781.465 1324.564,738.826 " />
<polygon stroke="black" stroke-width="1" fill="rgb(204, 204, 204)" fill-opacity="1" points="1309.984,909.328 1311.277,1227.805 1317.018,1227.785 1315.725,909.305 " />
<polygon stroke="black" stroke-width="1" fill="rgb(204, 204, 204)" fill-opacity="1" points="1318.688,781.441 1317.366,1107.025 1323.107,1107.047 1324.429,781.465 " />
<polygon stroke="black" stroke-width="1" fill="rgb(204, 204, 204)" fill-opacity="1" points="1098.577,1231.358 1155.274,1267.640 1156.876,1261.955 1102.809,1227.208 " />
<polygon stroke="black" stroke-width="1" fill="rgb(204, 204, 204)" fill-opacity="1" points="1060.706,1169.829 1098.577,1231.358 1102.809,1227.208 1066.195,1167.726 " />
<polygon stroke="black" stroke-width="1" fill="rgb(204, 204, 204)" fill-opacity="1" points="1047.424,1097.267 1060.706,1169.829 1066.195,1167.726 1053.298,1097.269 " />
<polygon stroke="black" stroke-width="1" fill="rgb(204, 204, 204)" fill-opacity="1" points="1155.387,926.964 1098.666,963.209 1102.895,967.362 1156.986,932.650 " />
<polygon stroke="black" stroke-width="1" fill="rgb(204, 204, 204)" fill-opacity="1" points="1098.666,963.209 1060.753,1024.714 1066.242,1026.820 1102.895,967.362 " />
<polygon stroke="black" stroke-width="1" fill="rgb(204, 204, 204)" fill-opacity="1" points="1060.753,1024.714 1047.424,1097.267 1053.298,1097.269 1066.242,1026.820 " />
<polygon stroke="black" stroke-width="1" fill="rgb(204, 204, 204)" fill-opacity="1" points="616.995,794.585 602.839,867.232 608.721,867.196 622.468,796.743 " />
<polygon stroke="black" stroke-width="1" fill="rgb(204, 204, 204)" fill-opacity="1" points="658.209,732.810 616.995,794.585 622.468,796.743 662.362,737.034 " />
<polygon stroke="black" stroke-width="1" fill="rgb(204, 204, 204)" fill-opacity="1" points="720.238,696.158 658.209,732.810 662.362,737.034 721.782,701.852 " />
<polygon stroke="black" stroke-width="1" fill="rgb(204, 204, 204)" fill-opacity="1" points="602.839,867.232 617.898,939.697 623.344,937.472 608.721,867.196 " />
<polygon stroke="black" stroke-width="1" fill="rgb(204, 204, 204)" fill-opacity="1" points="617.898,939.697 659.879,1000.954 663.979,996.677 623.344,937.472 " />
<polygon stroke="black" stroke-width="1" fill="rgb(204, 204, 204)" fill-opacity="1" points="659.879,1000.954 722.359,1036.828 723.832,1031.114 663.979,996.677 " />
<polygon stroke="black" stroke-width="1" fill="rgb(204, 204, 204)" fill-opacity="1" points="1109.870,2011.325 1172.623,2043.605 1174.189,2037.917 1113.562,2006.728 " />
<polygon stroke="black" stroke-width="1" fill="rgb(204, 204, 204)" fill-opacity="1" points="1172.623,2043.605 1243.055,2048.000 1242.237,2042.161 1174.189,2037.917 " />
<polygon stroke="black" stroke-width="1" fill="rgb(204, 204, 204)" fill-opacity="1" points="1310.448,2023.841 1360.094,1973.582 1354.978,1970.685 1307.280,2018.836 " />
<polygon stroke="black" stroke-width="1" fill="rgb(204, 204, 204)" fill-opacity="1" points="1243.055,2048.000 1310.448,2023.841 1307.280,2018.836 1242.237,2042.161 " />
<polygon stroke="black" stroke-width="1" fill="rgb(204, 204, 204)" fill-opacity="1" points="1064.343,1956.072 1109.870,2011.325 1113.562,2006.728 1069.627,1953.395 " />
<polygon stroke="black" stroke-width="1" fill="rgb(204, 204, 204)" fill-opacity="1" points="1047.424,1887.482 1064.343,1956.072 1069.627,1953.395 1053.302,1887.613 " />
<polygon stroke="black" stroke-width="1" fill="rgb(204, 204, 204)" fill-opacity="1" points="1069.627,1953.395 1113.562,2006.728 1174.189,2037.917 1242.237,2042.161 1307.280,2018.836 1354.978,1970.685 1381.583,1904.560 1381.583,1805.232 1371.655,1755.427 1340.674,1680.437 1282.985,1642.817 1214.170,1645.602 1149.168,1694.162 1115.145,1731.864 1064.297,1817.190 1053.302,1887.613 " />
<polygon stroke="black" stroke-width="1" fill="rgb(204, 204, 204)" fill-opacity="1" points="1071.361,1355.442 1048.802,1444.552 1047.424,1492.236 1060.907,1569.962 1109.729,1622.938 1178.973,1642.817 1254.490,1620.008 1296.484,1597.402 1365.952,1537.367 1393.220,1477.083 1392.164,1412.761 1360.836,1350.234 1307.650,1302.178 1240.843,1276.191 1170.911,1276.234 1112.948,1304.136 " />
<polygon stroke="black" stroke-width="1" fill="rgb(204, 204, 204)" fill-opacity="1" points="1309.742,951.830 1222.091,924.202 1156.986,932.650 1102.895,967.362 1066.242,1026.820 1053.298,1097.269 1066.195,1167.726 1102.809,1227.208 1156.876,1261.955 1222.175,1270.445 1309.742,1242.876 " />
<polygon stroke="black" stroke-width="1" fill="rgb(204, 204, 204)" fill-opacity="1" points="903.050,2048.000 901.915,1297.646 908.689,1039.114 602.839,1039.114 610.923,1298.075 612.001,2046.542 " />
<polygon stroke="black" stroke-width="1" fill="rgb(204, 204, 204)" fill-opacity="1" points="795.305,1039.115 864.808,1018.795 864.808,712.941 793.039,692.930 721.782,701.852 662.362,737.034 622.468,796.743 608.721,867.196 623.344,937.472 663.979,996.677 723.832,1031.114 " />

</svg>
