<?xml version="1.0" encoding="UTF-8" standalone="no"?>
<svg
   width="2048"
   height="2048"
   viewBox="0 0 2048 2048"
   version="1.1"
   id="svg44"
   sodipodi:docname="Left_wing.svg"
   xml:space="preserve"
   inkscape:version="1.3.2 (091e20ef0f, 2023-11-25, custom)"
   xmlns:inkscape="http://www.inkscape.org/namespaces/inkscape"
   xmlns:sodipodi="http://sodipodi.sourceforge.net/DTD/sodipodi-0.dtd"
   xmlns:xlink="http://www.w3.org/1999/xlink"
   xmlns="http://www.w3.org/2000/svg"
   xmlns:svg="http://www.w3.org/2000/svg"><defs
     id="defs44"><linearGradient
       id="linearGradient45"
       inkscape:collect="always"><stop
         style="stop-color:#808080;stop-opacity:1;"
         offset="0"
         id="stop45" /><stop
         style="stop-color:#d8d8d8;stop-opacity:1;"
         offset="0.5"
         id="stop47" /><stop
         style="stop-color:#808080;stop-opacity:1;"
         offset="1"
         id="stop46" /></linearGradient><style
       id="style1">.cls-2{fill:#0033a1;}</style><style
       id="style1-7">.cls-2{fill:#0033a1;}</style><linearGradient
       inkscape:collect="always"
       xlink:href="#linearGradient45"
       id="linearGradient49"
       x1="985.47266"
       y1="1244.9395"
       x2="1060.3535"
       y2="1244.9395"
       gradientUnits="userSpaceOnUse" /><linearGradient
       inkscape:collect="always"
       xlink:href="#linearGradient45"
       id="linearGradient51"
       x1="1065.5625"
       y1="1227.3301"
       x2="1123.6465"
       y2="1227.3301"
       gradientUnits="userSpaceOnUse" /></defs><sodipodi:namedview
     id="namedview44"
     pagecolor="#505050"
     bordercolor="#ffffff"
     borderopacity="1"
     inkscape:showpageshadow="0"
     inkscape:pageopacity="0"
     inkscape:pagecheckerboard="1"
     inkscape:deskcolor="#d1d1d1"
     inkscape:zoom="0.24072266"
     inkscape:cx="1021.9229"
     inkscape:cy="1024"
     inkscape:window-width="1366"
     inkscape:window-height="724"
     inkscape:window-x="-1"
     inkscape:window-y="-1"
     inkscape:window-maximized="1"
     inkscape:current-layer="svg44" /><desc
     id="desc1">Boeing_747_AAC.blend, (Blender 3.3.9)</desc><rect
     style="opacity:1;fill:#ffffff;fill-opacity:1;stroke:none;stroke-width:5"
     id="rect53"
     width="2048"
     height="2048"
     x="0"
     y="0" /><path
     id="polygon1"
     d="M 855.00195 175.2793 L 839.36914 180.33203 L 855.04297 233.96094 L 555.24023 1238.9375 L 492.39648 1263.9023 L 509.36523 1301.9824 L 570.06445 1346.9258 L 523.48828 1749.2734 L 980.26367 2045.3945 L 975.26172 2013.3691 L 954.35938 1972.7461 L 857.62305 1525.1719 L 853.22852 1485.2402 L 897.38477 459.74023 L 935.11328 415.95312 L 980.26367 412.10547 L 862.57031 188.95898 L 855.00195 175.2793 z "
     style="fill:#b3b3b3;fill-opacity:1" /><path
     id="polygon2"
     d="M 1123.6465 409.26562 L 1092.4043 423.04883 L 1070.1289 467.15234 L 1078.6934 1394.4062 L 1095.9375 1402.8457 L 1078.6836 1394.4688 L 1078.3184 1440.002 L 1065.5625 1986.5586 L 1087.8242 2034.8867 L 1123.6465 2045.3945 L 1119.3262 1470.7266 L 1119.0879 1414.8301 L 1123.6465 409.26562 z "
     style="fill:url(#linearGradient51)" /><path
     id="polygon4"
     d="M 487.1875 2.6035156 L 99.064453 241.66992 L 69.216797 659.5918 L 17.878906 711.75781 L 2.6054688 748.89844 L 66.328125 762.58984 L 349.11133 1927.2383 L 373.94141 2045.3945 L 398.50781 2040.8398 L 400.75781 2009.8711 L 487.1875 1543.6582 L 412.78711 1558.6816 L 362.6582 1517.6113 L 387.75586 497.00195 L 395.10156 456.32227 L 465.04883 67.382812 L 485.14258 35.1875 L 487.1875 2.6035156 z "
     style="fill:#b3b3b3;fill-opacity:1" /><path
     id="polygon7"
     d="M 1060.3535 444.48438 L 1013.877 446.73828 L 985.47266 494.57422 L 1029.3633 1065.3184 L 1026.877 1117.1699 L 993.5918 1988.9492 L 1014.123 2030.5723 L 1044.0137 2045.3945 L 1057.9062 1121.2852 L 1060.3535 1061.3672 L 1060.3535 444.48438 z "
     style="fill:url(#linearGradient49)" /></svg>
