<?xml version="1.0" encoding="UTF-8" standalone="no"?>
<svg
   width="2048"
   height="2048"
   viewBox="0 0 2048 2048"
   version="1.1"
   id="svg48"
   sodipodi:docname="Right_wing_UV.svg"
   xml:space="preserve"
   inkscape:version="1.3.2 (091e20ef0f, 2023-11-25, custom)"
   xmlns:inkscape="http://www.inkscape.org/namespaces/inkscape"
   xmlns:sodipodi="http://sodipodi.sourceforge.net/DTD/sodipodi-0.dtd"
   xmlns:xlink="http://www.w3.org/1999/xlink"
   xmlns="http://www.w3.org/2000/svg"
   xmlns:svg="http://www.w3.org/2000/svg"><defs
     id="defs48"><linearGradient
       id="linearGradient45"
       inkscape:collect="always"><stop
         style="stop-color:#808080;stop-opacity:1;"
         offset="0"
         id="stop45" /><stop
         style="stop-color:#d8d8d8;stop-opacity:1;"
         offset="0.5"
         id="stop47" /><stop
         style="stop-color:#808080;stop-opacity:1;"
         offset="1"
         id="stop46" /></linearGradient><style
       id="style1">.cls-2{fill:#0033a1;}</style><style
       id="style1-7">.cls-2{fill:#0033a1;}</style><linearGradient
       inkscape:collect="always"
       xlink:href="#linearGradient45"
       id="linearGradient50"
       x1="533.16211"
       y1="1494.4531"
       x2="584.80859"
       y2="1494.4531"
       gradientUnits="userSpaceOnUse" /><linearGradient
       inkscape:collect="always"
       xlink:href="#linearGradient45"
       id="linearGradient53"
       x1="587.78906"
       y1="1482.3213"
       x2="627.83594"
       y2="1482.3213"
       gradientUnits="userSpaceOnUse" /></defs><sodipodi:namedview
     id="namedview48"
     pagecolor="#505050"
     bordercolor="#ffffff"
     borderopacity="1"
     inkscape:showpageshadow="0"
     inkscape:pageopacity="0"
     inkscape:pagecheckerboard="1"
     inkscape:deskcolor="#d1d1d1"
     inkscape:zoom="0.24072266"
     inkscape:cx="1021.9229"
     inkscape:cy="1024"
     inkscape:window-width="1366"
     inkscape:window-height="724"
     inkscape:window-x="-1"
     inkscape:window-y="-1"
     inkscape:window-maximized="1"
     inkscape:current-layer="svg48" /><desc
     id="desc1">Boeing_747_AAC.blend, (Blender 3.3.9)</desc><rect
     style="opacity:1;fill:#ffffff;fill-opacity:1;stroke-width:5"
     id="rect53"
     width="2048"
     height="2048"
     x="0"
     y="0" /><path
     id="polygon1"
     d="M 530.18164 1.4902344 L 261.33984 21.628906 L 235.55859 194.00195 L 219.69141 202.21875 L 215.4082 211.15625 L 225.68945 214.49609 L 41.601562 517.92578 L 29.916016 513.33789 L 29.271484 512.74805 L 28.669922 512.84961 L 28.890625 512.96289 L 28.554688 513.15234 L 30.583984 514.77539 L 30.681641 514.92578 L 37.589844 520.37695 L 45.146484 569.63281 L 45.148438 569.64648 L 113.73633 1293.9023 L 88.044922 1296.7285 L 93.085938 1317.4336 L 115.94531 1343.9844 L 1.4902344 1726.4238 L 530.18164 2046.5098 L 527.39062 2004.8301 L 502.57227 1963.2012 L 416.78125 1487.5957 L 403.65625 1445.9785 L 127.10938 624.77148 L 129.2207 580.15234 L 151.28125 555.02539 L 77.046875 529.13086 L 109.89062 522.83008 L 102.33594 511.78906 L 105.22852 491.05859 L 358.59766 209.32422 L 369.46484 195.52344 L 503.74414 25.550781 L 521.14844 13.53125 L 530.18164 1.4902344 z "
     style="fill:#b3b3b3;fill-opacity:1" /><path
     id="polygon2"
     d="M 627.83594 918.13281 L 603.12305 925.40625 L 587.78906 958.76562 L 596.90625 1335.9062 L 597.19727 1367.3184 L 590.95508 2006.5684 L 606.30273 2036.9961 L 627.83594 2046.5098 L 625.05273 1353.252 L 625.18555 1314.6816 L 627.83594 918.13281 z "
     style="fill:url(#linearGradient53)" /><path
     id="polygon7"
     d="M 573.53711 942.39648 L 552.92188 952.61914 L 538.76367 981.32422 L 561.71875 1582.5723 L 563.43359 1618.334 L 533.16211 2011.9629 L 552.75391 2044.9551 L 584.80859 2046.5098 L 584.80859 1621.0586 L 583.11914 1579.7344 L 573.53711 942.39648 z "
     style="fill:url(#linearGradient50)" /></svg>
