<?xml version="1.0" encoding="UTF-8" standalone="no"?>
<svg
   width="1024"
   height="1024"
   viewBox="0 0 1024 1024"
   version="1.1"
   id="svg40"
   sodipodi:docname="Vertical_stabilizer.svg"
   inkscape:version="1.3.2 (091e20ef0f, 2023-11-25, custom)"
   xml:space="preserve"
   xmlns:inkscape="http://www.inkscape.org/namespaces/inkscape"
   xmlns:sodipodi="http://sodipodi.sourceforge.net/DTD/sodipodi-0.dtd"
   xmlns="http://www.w3.org/2000/svg"
   xmlns:svg="http://www.w3.org/2000/svg"><defs
     id="defs40"><style
       id="style1">.cls-2{fill:#0033a1;}</style><style
       id="style1-7">.cls-2{fill:#0033a1;}</style></defs><sodipodi:namedview
     id="namedview40"
     pagecolor="#505050"
     bordercolor="#ffffff"
     borderopacity="1"
     inkscape:showpageshadow="0"
     inkscape:pageopacity="0"
     inkscape:pagecheckerboard="1"
     inkscape:deskcolor="#d1d1d1"
     inkscape:zoom="0.45244108"
     inkscape:cx="671.91069"
     inkscape:cy="469.67441"
     inkscape:window-width="1366"
     inkscape:window-height="724"
     inkscape:window-x="-1"
     inkscape:window-y="-1"
     inkscape:window-maximized="0"
     inkscape:current-layer="svg40"
     showguides="true" /><desc
     id="desc1">Boeing_747SP.blend, (Blender 3.3.9)</desc><rect
     style="fill:#ffffff;fill-opacity:1;stroke-width:15;stroke-linecap:square"
     id="rect1"
     width="1024"
     height="1024"
     x="0"
     y="0"
     rx="2.3779886"
     ry="2.3779886" /><path
     id="polygon1"
     d="m 139.64648,505.07227 34.91016,90.39648 18.95117,-2.29687 42.71289,-5.17579 211.88086,354.02735 8.2168,15.04101 -43.29102,48.06255 69.41602,-0.2461 125.81445,-0.4454 251.62891,-0.8906 29.58594,-0.4179 -59.19532,-61.10356 -532.76953,-421.58008 -78.93164,-7.68359 z"
     style="fill:#ffffff;fill-opacity:1"
     sodipodi:nodetypes="ccccccccccccccc" /><path
     d="m 178.04688,36.59375 34.91015,90.39453 18.94922,-2.29687 42.71289,-5.17383 211.88281,354.02734 8.2168,15.04102 -43.00781,47.74609 -1.07422,0.004 -40.96875,0.14453 -40.96875,0.14648 13.16406,0.10938 13.16602,0.11133 56.71875,-0.20118 69.0957,-0.24609 125.8125,-0.44531 251.62891,-0.89063 29.58789,-0.41797 L 868.67773,473.54492 335.9082,51.964844 256.97656,44.279297 Z m 416.51757,436.95117 51.83203,62.09766 z"
     style="fill:#ffffff;fill-opacity:1"
     id="path1" /><path
     style="fill:#b3b3b3;stroke:none;stroke-width:1px;stroke-linecap:butt;stroke-linejoin:miter;stroke-opacity:1;fill-opacity:1"
     d="M 927.87305,534.64657 868.67773,473.54492 335.9082,51.964844 178.04688,36.59375 l 34.91015,90.39453 155.74219,409.63876 z"
     id="path2" /><path
     style="fill:#b3b3b3;stroke:none;stroke-width:1px;stroke-linecap:butt;stroke-linejoin:miter;stroke-opacity:1;fill-opacity:1"
     d="M 889.47266,1003.1261 830.27733,942.02442 297.50781,520.44434 139.64649,505.07325 l 34.91014,90.39453 155.74219,409.63872 z"
     id="path3" /><path
     style="color:#000000;fill:#ffdd55;stroke:#000000;stroke-width:5;stroke-dasharray:none;stroke-opacity:1"
     d="m 263.97276,276.95312 9.50485,25 384.35192,0 -31.59362,-25 z"
     id="path4"
     sodipodi:nodetypes="ccccc" /><path
     style="color:#000000;fill:#ffdd55;stroke:#000000;stroke-width:5;stroke-dasharray:none;stroke-opacity:1"
     d="m 226.49528,742.59964 9.50485,25 h 384.35192 l -31.59362,-25 z"
     id="path5"
     sodipodi:nodetypes="ccccc" /><g
     id="g212"
     transform="matrix(-0.00512821,0,0,0.00512821,515.52546,234.45308)"><path
       d="M 0,0 H 7410 V 3900 H 0"
       fill="#b31942"
       id="path156" /><path
       d="m 0,450 h 7410 m 0,600 H 0 m 0,600 h 7410 m 0,600 H 0 m 0,600 h 7410 m 0,600 H 0"
       stroke="#ffffff"
       stroke-width="300"
       id="path157" /><path
       d="M 0,0 H 2964 V 2100 H 0"
       fill="#0a3161"
       id="path158" /><g
       fill="#ffffff"
       id="g211"><g
         id="g178"><g
           id="g168"><g
             id="g163"><g
               id="g162"><path
                 id="path159"
                 d="M 247,90 317.53423,307.08204 132.87322,172.91796 H 361.12678 L 176.46577,307.08204 Z" /><path
                 id="path160"
                 d="M 247,510 317.53423,727.08204 132.87322,592.91796 H 361.12678 L 176.46577,727.08204 Z" /><path
                 id="path161"
                 d="m 247,930 70.53423,217.082 -184.66101,-134.164 h 228.25356 l -184.66101,134.164 z" /><path
                 id="path162"
                 d="m 247,1350 70.53423,217.082 -184.66101,-134.164 h 228.25356 l -184.66101,134.164 z" /></g><path
               id="path163"
               d="m 247,1770 70.53423,217.082 -184.66101,-134.164 h 228.25356 l -184.66101,134.164 z" /></g><g
             id="g167"
             transform="translate(247,210)"><path
               id="path164"
               d="M 247,90 317.53423,307.08204 132.87322,172.91796 H 361.12678 L 176.46577,307.08204 Z" /><path
               id="path165"
               d="M 247,510 317.53423,727.08204 132.87322,592.91796 H 361.12678 L 176.46577,727.08204 Z" /><path
               id="path166"
               d="m 247,930 70.53423,217.082 -184.66101,-134.164 h 228.25356 l -184.66101,134.164 z" /><path
               id="path167"
               d="m 247,1350 70.53423,217.082 -184.66101,-134.164 h 228.25356 l -184.66101,134.164 z" /></g></g><g
           id="g177"
           transform="translate(494)"><g
             id="g172"><g
               id="g171"><path
                 id="path168"
                 d="M 247,90 317.53423,307.08204 132.87322,172.91796 H 361.12678 L 176.46577,307.08204 Z" /><path
                 id="path169"
                 d="M 247,510 317.53423,727.08204 132.87322,592.91796 H 361.12678 L 176.46577,727.08204 Z" /><path
                 id="path170"
                 d="m 247,930 70.53423,217.082 -184.66101,-134.164 h 228.25356 l -184.66101,134.164 z" /><path
                 id="path171"
                 d="m 247,1350 70.53423,217.082 -184.66101,-134.164 h 228.25356 l -184.66101,134.164 z" /></g><path
               id="path172"
               d="m 247,1770 70.53423,217.082 -184.66101,-134.164 h 228.25356 l -184.66101,134.164 z" /></g><g
             id="g176"
             transform="translate(247,210)"><path
               id="path173"
               d="M 247,90 317.53423,307.08204 132.87322,172.91796 H 361.12678 L 176.46577,307.08204 Z" /><path
               id="path174"
               d="M 247,510 317.53423,727.08204 132.87322,592.91796 H 361.12678 L 176.46577,727.08204 Z" /><path
               id="path175"
               d="m 247,930 70.53423,217.082 -184.66101,-134.164 h 228.25356 l -184.66101,134.164 z" /><path
               id="path176"
               d="m 247,1350 70.53423,217.082 -184.66101,-134.164 h 228.25356 l -184.66101,134.164 z" /></g></g></g><g
         id="g197"
         transform="translate(988)"><g
           id="g187"><g
             id="g182"><g
               id="g181"><path
                 id="path178"
                 d="M 247,90 317.53423,307.08204 132.87322,172.91796 H 361.12678 L 176.46577,307.08204 Z" /><path
                 id="path179"
                 d="M 247,510 317.53423,727.08204 132.87322,592.91796 H 361.12678 L 176.46577,727.08204 Z" /><path
                 id="path180"
                 d="m 247,930 70.53423,217.082 -184.66101,-134.164 h 228.25356 l -184.66101,134.164 z" /><path
                 id="path181"
                 d="m 247,1350 70.53423,217.082 -184.66101,-134.164 h 228.25356 l -184.66101,134.164 z" /></g><path
               id="path182"
               d="m 247,1770 70.53423,217.082 -184.66101,-134.164 h 228.25356 l -184.66101,134.164 z" /></g><g
             id="g186"
             transform="translate(247,210)"><path
               id="path183"
               d="M 247,90 317.53423,307.08204 132.87322,172.91796 H 361.12678 L 176.46577,307.08204 Z" /><path
               id="path184"
               d="M 247,510 317.53423,727.08204 132.87322,592.91796 H 361.12678 L 176.46577,727.08204 Z" /><path
               id="path185"
               d="m 247,930 70.53423,217.082 -184.66101,-134.164 h 228.25356 l -184.66101,134.164 z" /><path
               id="path186"
               d="m 247,1350 70.53423,217.082 -184.66101,-134.164 h 228.25356 l -184.66101,134.164 z" /></g></g><g
           id="g196"
           transform="translate(494)"><g
             id="g191"><g
               id="g190"><path
                 id="path187"
                 d="M 247,90 317.53423,307.08204 132.87322,172.91796 H 361.12678 L 176.46577,307.08204 Z" /><path
                 id="path188"
                 d="M 247,510 317.53423,727.08204 132.87322,592.91796 H 361.12678 L 176.46577,727.08204 Z" /><path
                 id="path189"
                 d="m 247,930 70.53423,217.082 -184.66101,-134.164 h 228.25356 l -184.66101,134.164 z" /><path
                 id="path190"
                 d="m 247,1350 70.53423,217.082 -184.66101,-134.164 h 228.25356 l -184.66101,134.164 z" /></g><path
               id="path191"
               d="m 247,1770 70.53423,217.082 -184.66101,-134.164 h 228.25356 l -184.66101,134.164 z" /></g><g
             id="g195"
             transform="translate(247,210)"><path
               id="path192"
               d="M 247,90 317.53423,307.08204 132.87322,172.91796 H 361.12678 L 176.46577,307.08204 Z" /><path
               id="path193"
               d="M 247,510 317.53423,727.08204 132.87322,592.91796 H 361.12678 L 176.46577,727.08204 Z" /><path
               id="path194"
               d="m 247,930 70.53423,217.082 -184.66101,-134.164 h 228.25356 l -184.66101,134.164 z" /><path
               id="path195"
               d="m 247,1350 70.53423,217.082 -184.66101,-134.164 h 228.25356 l -184.66101,134.164 z" /></g></g></g><g
         id="g206"
         transform="translate(1976)"><g
           id="g201"><g
             id="g200"><path
               id="path197"
               d="M 247,90 317.53423,307.08204 132.87322,172.91796 H 361.12678 L 176.46577,307.08204 Z" /><path
               id="path198"
               d="M 247,510 317.53423,727.08204 132.87322,592.91796 H 361.12678 L 176.46577,727.08204 Z" /><path
               id="path199"
               d="m 247,930 70.53423,217.082 -184.66101,-134.164 h 228.25356 l -184.66101,134.164 z" /><path
               id="path200"
               d="m 247,1350 70.53423,217.082 -184.66101,-134.164 h 228.25356 l -184.66101,134.164 z" /></g><path
             id="path201"
             d="m 247,1770 70.53423,217.082 -184.66101,-134.164 h 228.25356 l -184.66101,134.164 z" /></g><g
           id="g205"
           transform="translate(247,210)"><path
             id="path202"
             d="M 247,90 317.53423,307.08204 132.87322,172.91796 H 361.12678 L 176.46577,307.08204 Z" /><path
             id="path203"
             d="M 247,510 317.53423,727.08204 132.87322,592.91796 H 361.12678 L 176.46577,727.08204 Z" /><path
             id="path204"
             d="m 247,930 70.53423,217.082 -184.66101,-134.164 h 228.25356 l -184.66101,134.164 z" /><path
             id="path205"
             d="m 247,1350 70.53423,217.082 -184.66101,-134.164 h 228.25356 l -184.66101,134.164 z" /></g></g><g
         id="g210"
         transform="translate(2470)"><g
           id="g209"><path
             id="path206"
             d="M 247,90 317.53423,307.08204 132.87322,172.91796 H 361.12678 L 176.46577,307.08204 Z" /><path
             id="path207"
             d="M 247,510 317.53423,727.08204 132.87322,592.91796 H 361.12678 L 176.46577,727.08204 Z" /><path
             id="path208"
             d="m 247,930 70.53423,217.082 -184.66101,-134.164 h 228.25356 l -184.66101,134.164 z" /><path
             id="path209"
             d="m 247,1350 70.53423,217.082 -184.66101,-134.164 h 228.25356 l -184.66101,134.164 z" /></g><path
           id="path210"
           d="m 247,1770 70.53423,217.082 -184.66101,-134.164 h 228.25356 l -184.66101,134.164 z" /></g></g></g><g
     id="g419"
     transform="matrix(0.00512821,0,0,0.00512821,435.78578,700.0996)"><path
       d="M 0,0 H 7410 V 3900 H 0"
       fill="#b31942"
       id="path363" /><path
       d="m 0,450 h 7410 m 0,600 H 0 m 0,600 h 7410 m 0,600 H 0 m 0,600 h 7410 m 0,600 H 0"
       stroke="#ffffff"
       stroke-width="300"
       id="path364" /><path
       d="M 0,0 H 2964 V 2100 H 0"
       fill="#0a3161"
       id="path365" /><g
       fill="#ffffff"
       id="g418"><g
         id="g385"><g
           id="g375"><g
             id="g370"><g
               id="g369"><path
                 id="path366"
                 d="M 247,90 317.53423,307.08204 132.87322,172.91796 H 361.12678 L 176.46577,307.08204 Z" /><path
                 id="path367"
                 d="M 247,510 317.53423,727.08204 132.87322,592.91796 H 361.12678 L 176.46577,727.08204 Z" /><path
                 id="path368"
                 d="m 247,930 70.53423,217.082 -184.66101,-134.164 h 228.25356 l -184.66101,134.164 z" /><path
                 id="path369"
                 d="m 247,1350 70.53423,217.082 -184.66101,-134.164 h 228.25356 l -184.66101,134.164 z" /></g><path
               id="path370"
               d="m 247,1770 70.53423,217.082 -184.66101,-134.164 h 228.25356 l -184.66101,134.164 z" /></g><g
             id="g374"
             transform="translate(247,210)"><path
               id="path371"
               d="M 247,90 317.53423,307.08204 132.87322,172.91796 H 361.12678 L 176.46577,307.08204 Z" /><path
               id="path372"
               d="M 247,510 317.53423,727.08204 132.87322,592.91796 H 361.12678 L 176.46577,727.08204 Z" /><path
               id="path373"
               d="m 247,930 70.53423,217.082 -184.66101,-134.164 h 228.25356 l -184.66101,134.164 z" /><path
               id="path374"
               d="m 247,1350 70.53423,217.082 -184.66101,-134.164 h 228.25356 l -184.66101,134.164 z" /></g></g><g
           id="g384"
           transform="translate(494)"><g
             id="g379"><g
               id="g378"><path
                 id="path375"
                 d="M 247,90 317.53423,307.08204 132.87322,172.91796 H 361.12678 L 176.46577,307.08204 Z" /><path
                 id="path376"
                 d="M 247,510 317.53423,727.08204 132.87322,592.91796 H 361.12678 L 176.46577,727.08204 Z" /><path
                 id="path377"
                 d="m 247,930 70.53423,217.082 -184.66101,-134.164 h 228.25356 l -184.66101,134.164 z" /><path
                 id="path378"
                 d="m 247,1350 70.53423,217.082 -184.66101,-134.164 h 228.25356 l -184.66101,134.164 z" /></g><path
               id="path379"
               d="m 247,1770 70.53423,217.082 -184.66101,-134.164 h 228.25356 l -184.66101,134.164 z" /></g><g
             id="g383"
             transform="translate(247,210)"><path
               id="path380"
               d="M 247,90 317.53423,307.08204 132.87322,172.91796 H 361.12678 L 176.46577,307.08204 Z" /><path
               id="path381"
               d="M 247,510 317.53423,727.08204 132.87322,592.91796 H 361.12678 L 176.46577,727.08204 Z" /><path
               id="path382"
               d="m 247,930 70.53423,217.082 -184.66101,-134.164 h 228.25356 l -184.66101,134.164 z" /><path
               id="path383"
               d="m 247,1350 70.53423,217.082 -184.66101,-134.164 h 228.25356 l -184.66101,134.164 z" /></g></g></g><g
         id="g404"
         transform="translate(988)"><g
           id="g394"><g
             id="g389"><g
               id="g388"><path
                 id="path385"
                 d="M 247,90 317.53423,307.08204 132.87322,172.91796 H 361.12678 L 176.46577,307.08204 Z" /><path
                 id="path386"
                 d="M 247,510 317.53423,727.08204 132.87322,592.91796 H 361.12678 L 176.46577,727.08204 Z" /><path
                 id="path387"
                 d="m 247,930 70.53423,217.082 -184.66101,-134.164 h 228.25356 l -184.66101,134.164 z" /><path
                 id="path388"
                 d="m 247,1350 70.53423,217.082 -184.66101,-134.164 h 228.25356 l -184.66101,134.164 z" /></g><path
               id="path389"
               d="m 247,1770 70.53423,217.082 -184.66101,-134.164 h 228.25356 l -184.66101,134.164 z" /></g><g
             id="g393"
             transform="translate(247,210)"><path
               id="path390"
               d="M 247,90 317.53423,307.08204 132.87322,172.91796 H 361.12678 L 176.46577,307.08204 Z" /><path
               id="path391"
               d="M 247,510 317.53423,727.08204 132.87322,592.91796 H 361.12678 L 176.46577,727.08204 Z" /><path
               id="path392"
               d="m 247,930 70.53423,217.082 -184.66101,-134.164 h 228.25356 l -184.66101,134.164 z" /><path
               id="path393"
               d="m 247,1350 70.53423,217.082 -184.66101,-134.164 h 228.25356 l -184.66101,134.164 z" /></g></g><g
           id="g403"
           transform="translate(494)"><g
             id="g398"><g
               id="g397"><path
                 id="path394"
                 d="M 247,90 317.53423,307.08204 132.87322,172.91796 H 361.12678 L 176.46577,307.08204 Z" /><path
                 id="path395"
                 d="M 247,510 317.53423,727.08204 132.87322,592.91796 H 361.12678 L 176.46577,727.08204 Z" /><path
                 id="path396"
                 d="m 247,930 70.53423,217.082 -184.66101,-134.164 h 228.25356 l -184.66101,134.164 z" /><path
                 id="path397"
                 d="m 247,1350 70.53423,217.082 -184.66101,-134.164 h 228.25356 l -184.66101,134.164 z" /></g><path
               id="path398"
               d="m 247,1770 70.53423,217.082 -184.66101,-134.164 h 228.25356 l -184.66101,134.164 z" /></g><g
             id="g402"
             transform="translate(247,210)"><path
               id="path399"
               d="M 247,90 317.53423,307.08204 132.87322,172.91796 H 361.12678 L 176.46577,307.08204 Z" /><path
               id="path400"
               d="M 247,510 317.53423,727.08204 132.87322,592.91796 H 361.12678 L 176.46577,727.08204 Z" /><path
               id="path401"
               d="m 247,930 70.53423,217.082 -184.66101,-134.164 h 228.25356 l -184.66101,134.164 z" /><path
               id="path402"
               d="m 247,1350 70.53423,217.082 -184.66101,-134.164 h 228.25356 l -184.66101,134.164 z" /></g></g></g><g
         id="g413"
         transform="translate(1976)"><g
           id="g408"><g
             id="g407"><path
               id="path404"
               d="M 247,90 317.53423,307.08204 132.87322,172.91796 H 361.12678 L 176.46577,307.08204 Z" /><path
               id="path405"
               d="M 247,510 317.53423,727.08204 132.87322,592.91796 H 361.12678 L 176.46577,727.08204 Z" /><path
               id="path406"
               d="m 247,930 70.53423,217.082 -184.66101,-134.164 h 228.25356 l -184.66101,134.164 z" /><path
               id="path407"
               d="m 247,1350 70.53423,217.082 -184.66101,-134.164 h 228.25356 l -184.66101,134.164 z" /></g><path
             id="path408"
             d="m 247,1770 70.53423,217.082 -184.66101,-134.164 h 228.25356 l -184.66101,134.164 z" /></g><g
           id="g412"
           transform="translate(247,210)"><path
             id="path409"
             d="M 247,90 317.53423,307.08204 132.87322,172.91796 H 361.12678 L 176.46577,307.08204 Z" /><path
             id="path410"
             d="M 247,510 317.53423,727.08204 132.87322,592.91796 H 361.12678 L 176.46577,727.08204 Z" /><path
             id="path411"
             d="m 247,930 70.53423,217.082 -184.66101,-134.164 h 228.25356 l -184.66101,134.164 z" /><path
             id="path412"
             d="m 247,1350 70.53423,217.082 -184.66101,-134.164 h 228.25356 l -184.66101,134.164 z" /></g></g><g
         id="g417"
         transform="translate(2470)"><g
           id="g416"><path
             id="path413"
             d="M 247,90 317.53423,307.08204 132.87322,172.91796 H 361.12678 L 176.46577,307.08204 Z" /><path
             id="path414"
             d="M 247,510 317.53423,727.08204 132.87322,592.91796 H 361.12678 L 176.46577,727.08204 Z" /><path
             id="path415"
             d="m 247,930 70.53423,217.082 -184.66101,-134.164 h 228.25356 l -184.66101,134.164 z" /><path
             id="path416"
             d="m 247,1350 70.53423,217.082 -184.66101,-134.164 h 228.25356 l -184.66101,134.164 z" /></g><path
           id="path417"
           d="m 247,1770 70.53423,217.082 -184.66101,-134.164 h 228.25356 l -184.66101,134.164 z" /></g></g></g></svg>
