<?xml version="1.0" encoding="UTF-8" standalone="no"?>
<svg
   width="1024"
   height="1024"
   viewBox="0 0 1024 1024"
   version="1.1"
   id="svg40"
   sodipodi:docname="Vertical_stabilizer.svg"
   inkscape:version="1.3.2 (091e20ef0f, 2023-11-25, custom)"
   xml:space="preserve"
   xmlns:inkscape="http://www.inkscape.org/namespaces/inkscape"
   xmlns:sodipodi="http://sodipodi.sourceforge.net/DTD/sodipodi-0.dtd"
   xmlns="http://www.w3.org/2000/svg"
   xmlns:svg="http://www.w3.org/2000/svg"><defs
     id="defs40" /><sodipodi:namedview
     id="namedview40"
     pagecolor="#505050"
     bordercolor="#ffffff"
     borderopacity="1"
     inkscape:showpageshadow="0"
     inkscape:pageopacity="0"
     inkscape:pagecheckerboard="1"
     inkscape:deskcolor="#d1d1d1"
     inkscape:zoom="0.3266763"
     inkscape:cx="899.97345"
     inkscape:cy="466.82296"
     inkscape:window-width="1366"
     inkscape:window-height="724"
     inkscape:window-x="-1"
     inkscape:window-y="-1"
     inkscape:window-maximized="1"
     inkscape:current-layer="svg40" /><desc
     id="desc1">Boeing_747SP.blend, (Blender 3.3.9)</desc><rect
     style="fill:#ffffff;fill-opacity:1;stroke-width:15;stroke-linecap:square"
     id="rect1"
     width="1024"
     height="1024"
     x="0"
     y="0"
     rx="2.3779886"
     ry="2.3779886" /><path
     id="polygon1"
     d="m 195.54492,587.02734 30.49381,79.00598 16.55374,-2.00745 37.30946,-4.52361 185.07668,309.4178 7.17733,13.14575 -37.81445,42.00639 60.63448,-0.2151 109.89818,-0.3893 219.79638,-0.7783 25.84314,-0.3653 -51.70676,-53.40414 -465.37105,-368.45848 -68.94633,-6.71541 z"
     style="fill:#ffffff;fill-opacity:1;stroke-width:0.873744"
     sodipodi:nodetypes="ccccccccccccccc" /><path
     d="m 187.00781,93.074219 32.8467,84.851841 17.82918,-2.15604 40.18824,-4.85659 199.35896,332.31956 7.73113,14.11875 -40.46573,44.81846 -1.01073,0.004 -38.54719,0.13566 -38.54719,0.1375 12.38597,0.10268 12.38781,0.1045 53.36625,-0.18884 65.01162,-0.231 118.37605,-0.41801 236.75576,-0.83602 27.83903,-0.39234 -55.69644,-57.3551 -501.27888,-395.73018 -74.26619,-7.2143 z m 391.89828,410.158771 48.76837,58.29004 z"
     style="fill:#ffffff;fill-opacity:1;stroke-width:0.939787"
     id="path1" /><path
     d="m 445.53894,766.47558 v 26.54869 c 11.70073,-0.70899 20.8578,-8.20255 27.2748,-22.30544 -8.74703,-2.64849 -17.90534,-4.07382 -27.2748,-4.24325 z m -4.24329,0.0226 c -9.17719,0.2139 -18.15505,1.62375 -26.73022,4.22057 6.31607,13.88298 15.28907,21.37667 26.73022,22.28274 z m -30.7919,5.55935 c -7.9311,2.77948 -15.48824,6.55371 -22.50966,11.27751 15.88855,18.15854 33.81038,27.70865 53.30156,28.43206 v -14.52231 c -13.20278,-0.92769 -23.79576,-9.58464 -30.7919,-25.18721 z m 66.34902,0 c -7.09227,15.81768 -17.85749,24.48529 -31.31383,25.2099 v 14.52236 c 19.70271,-0.56238 37.78471,-10.12556 53.82349,-28.45475 -7.02265,-4.7238 -14.57979,-8.49803 -22.50966,-11.27751 z m -92.33047,13.72821 c -4.06408,2.99337 -7.93741,6.30246 -11.5725,9.93874 -2.07888,2.07889 -4.05138,4.26417 -5.92236,6.48968 15.91498,17.74876 42.77829,28.0659 74.26821,28.5682 V 816.0104 C 420.4093,815.2882 401.32896,805.13154 384.5223,785.78574 Z m 118.33457,0 c -16.9545,19.51644 -36.21891,29.68617 -57.31793,30.24735 v 14.77196 c 31.72671,-0.38934 58.78142,-10.73757 74.79015,-28.59089 -1.87223,-2.22431 -3.8196,-4.40958 -5.89971,-6.48968 -3.63509,-3.63627 -7.50843,-6.94536 -11.57251,-9.93874 z m -138.507,19.76403 c -6.20788,8.05003 -11.10329,16.90543 -14.56774,26.32177 28.95918,15.14474 63.7464,17.48939 91.51351,17.60836 v -14.45428 c -32.3996,-0.50352 -60.17637,-11.14909 -76.94577,-29.47585 z m 158.67942,0 c -16.86554,18.43132 -44.85644,29.10799 -77.49036,29.49854 v 14.43159 c 27.8549,-0.0901 62.90904,-2.36269 92.0581,-17.60836 -3.46322,-9.41755 -8.35987,-18.27295 -14.56774,-26.32177 z m -174.63136,30.38349 c -8.73738,23.55287 -5.19966,47.41919 0,61.08467 29.43028,-15.1856 64.29215,-17.63848 92.26236,-17.78989 v 0.0454 h 5.83167 v -0.0454 c 27.97747,0.14781 62.88334,2.59588 92.3304,17.78989 5.19965,-13.66548 8.73744,-37.53299 0,-61.08467 -29.4459,15.19521 -64.35177,17.63969 -92.3304,17.78989 v -0.068 h -5.83167 v 0.068 c -27.97021,-0.15142 -62.83208,-2.6043 -92.26236,-17.78989 z m 8.96305,20.89858 h 23.82575 c 3.78526,0 7.85116,2.49243 7.85116,7.14773 0,0.34969 -0.024,0.69665 -0.0683,1.0211 l 5.78629,-8.14613 h 12.04898 l 10.02951,13.20627 v -13.20627 h 13.02474 l 11.54985,11.89018 v -11.91288 h 9.62106 c 0.57683,0 0.47343,0.45383 0,0.45383 -3.80936,0 -5.42323,2.62374 -5.42323,3.99365 v 15.61153 h -6.98889 c -2.38892,0 -3.82547,-1.29703 -4.56089,-2.0649 L 421.03227,861.5743 v 8.94033 c 0.0683,3.55696 2.56806,5.51396 6.37619,5.51396 0.4735,0 0.57806,0.86226 0,0.86226 h -14.27272 c -2.73144,0 -4.3928,-1.12781 -5.12821,-2.22373 l -2.72294,-3.56252 h -12.29862 c -0.84121,0 -2.498,0.40854 -2.76833,1.74722 -0.47706,2.36249 1.20542,3.17677 5.01472,3.17677 0.47227,0 0.57683,0.88495 0,0.88495 h -14.90807 c 0.47341,-0.54677 1.56384,-2.12791 2.24639,-2.94985 l 2.74567,-3.8575 c -1.26781,0.67894 -2.713,1.0211 -4.1298,1.0211 l -10.84639,-0.0226 c -0.83997,0 -2.76832,0.37851 -2.76832,1.74722 0,2.64609 1.20659,3.17676 5.01472,3.17676 0.4735,0 0.57806,0.88496 0,0.88496 h -15.22575 v -20.0817 z m 109.75723,0.45383 h 12.04905 l 10.00678,13.20627 v -13.20627 h 12.38939 c -0.053,0 7.2158,9.14455 7.2158,9.14455 l 6.76197,-9.14455 h 16.70071 c 0.57806,0 0.4735,0.63535 0,0.63535 -4.93644,0 -5.80894,2.41951 -5.80894,3.78943 v 10.93715 c 0,1.36991 0.8725,3.78943 5.80894,3.78943 0.4735,0 0.57806,0.45382 0,0.45382 h -14.70389 v -14.45428 l -10.23369,14.45428 h -2.47337 l -11.45901,-14.18199 v 8.21421 c 0,2.84797 2.59079,5.53665 6.39891,5.53665 0.47343,0 0.57676,0.43113 0,0.43113 h -14.27279 c -2.73137,0 -4.41668,-0.69787 -5.15086,-1.7926 l -2.70029,-3.56252 h -12.32128 c -0.83997,0 -2.63029,0.38331 -2.74567,1.74722 -0.20426,2.43339 1.20666,3.17677 5.01479,3.17677 0.47343,0 0.578,0.43113 0,0.43113 h -14.9308 c 0.47227,-0.54557 1.58657,-1.69678 2.26912,-2.51872 z m -69.57118,3.63059 -4.15245,5.80894 h 8.55454 z m -30.11116,0.34037 v 5.46857 h 8.00995 c 1.44686,0 2.63218,-1.23873 2.63218,-2.74563 0,-1.5069 -1.18532,-2.72294 -2.63218,-2.72294 z m 102.45066,0.0908 -4.12979,5.80894 h 8.55461 z m -28.59089,22.10121 c -27.76594,0.11896 -62.55433,2.48631 -91.51351,17.63106 3.46445,9.41753 8.35986,18.27173 14.56774,26.32177 16.77056,-18.32677 44.54618,-28.97234 76.94577,-29.47585 z m 4.24329,0 v 14.45425 c 32.61351,0.38934 60.57464,11.04466 77.44499,29.45316 6.09612,-7.92267 11.04323,-16.76138 14.56773,-26.29909 -29.14304,-15.23126 -64.16748,-17.51703 -92.01272,-17.60836 z m 0,18.69754 v 14.77196 c 21.08218,0.56119 40.32772,10.69409 57.27255,30.17928 6.46624,-4.75384 12.34212,-10.24608 17.49488,-16.38304 -16.01351,-17.83289 -43.05996,-28.17885 -74.76743,-28.5682 z m -4.24329,0.0227 c -31.48869,0.5011 -58.352,10.81823 -74.26821,28.5682 1.87222,2.2243 3.84348,4.3869 5.92236,6.46699 3.63633,3.63628 7.50966,6.96806 11.5725,9.96143 16.80666,-19.34699 35.887,-29.50366 56.77335,-30.22466 z m 4.24329,18.99252 v 14.52236 c 13.44313,0.72461 24.19766,9.37928 31.29111,25.16452 8.00923,-2.82154 15.57602,-6.62101 22.50965,-11.27752 -16.02911,-18.29913 -34.11367,-27.84817 -53.80076,-28.40936 z m -4.24329,0.0226 c -19.49118,0.72462 -37.41301,10.27351 -53.30156,28.43206 7.02142,4.725 14.57856,8.49684 22.50966,11.27752 6.99614,-15.60258 17.58912,-24.25832 30.7919,-25.18722 z m 4.24329,18.74292 v 26.54869 c 9.46081,-0.17304 18.60002,-1.65217 27.25208,-4.28863 -6.41576,-14.07406 -15.5634,-21.55228 -27.25208,-22.26006 z m -4.24329,0.0227 c -11.44231,0.90606 -20.41539,8.40096 -26.73022,22.28274 8.57518,2.59683 17.55188,4.00546 26.73022,4.22056 z"
     fill="#2b67ac"
     id="path1-7"
     style="stroke-width:0.726118" /><g
     id="g20"
     transform="matrix(0.01282051,0,0.01282051,0.01282051,206.91946,602.68568)"><rect
       width="7410"
       height="3900"
       fill="#b22234"
       id="rect3"
       x="0"
       y="0" /><path
       d="m 0,450 h 7410 m 0,600 H 0 m 0,600 h 7410 m 0,600 H 0 m 0,600 h 7410 m 0,600 H 0"
       stroke="#ffffff"
       stroke-width="300"
       id="path3" /><rect
       width="2964"
       height="2100"
       fill="#3c3b6e"
       id="rect4"
       x="0"
       y="0" /><g
       fill="#ffffff"
       id="g19"><g
         id="g16"><g
           id="g15"><g
             id="g14"><g
               id="g13"><path
                 id="path4"
                 d="M 247,90 317.53423,307.08204 132.87322,172.91796 H 361.12678 L 176.46577,307.08204 Z" /><path
                 id="use11"
                 d="M 247,510 317.53423,727.08204 132.87322,592.91796 H 361.12678 L 176.46577,727.08204 Z" /><path
                 id="use12"
                 d="m 247,930 70.53423,217.082 -184.66101,-134.164 h 228.25356 l -184.66101,134.164 z" /><path
                 id="use13"
                 d="m 247,1350 70.53423,217.082 -184.66101,-134.164 h 228.25356 l -184.66101,134.164 z" /></g><path
               id="use14"
               d="m 247,1770 70.53423,217.082 -184.66101,-134.164 h 228.25356 l -184.66101,134.164 z" /></g><g
             id="use15"
             transform="translate(247,210)"><path
               id="path106"
               d="M 247,90 317.53423,307.08204 132.87322,172.91796 H 361.12678 L 176.46577,307.08204 Z" /><path
               id="use107"
               d="M 247,510 317.53423,727.08204 132.87322,592.91796 H 361.12678 L 176.46577,727.08204 Z" /><path
               id="use108"
               d="m 247,930 70.53423,217.082 -184.66101,-134.164 h 228.25356 l -184.66101,134.164 z" /><path
               id="use109"
               d="m 247,1350 70.53423,217.082 -184.66101,-134.164 h 228.25356 l -184.66101,134.164 z" /></g></g><g
           id="use16"
           transform="translate(494)"><g
             id="g60"><g
               id="g59"><path
                 id="path56"
                 d="M 247,90 317.53423,307.08204 132.87322,172.91796 H 361.12678 L 176.46577,307.08204 Z" /><path
                 id="use57"
                 d="M 247,510 317.53423,727.08204 132.87322,592.91796 H 361.12678 L 176.46577,727.08204 Z" /><path
                 id="use58"
                 d="m 247,930 70.53423,217.082 -184.66101,-134.164 h 228.25356 l -184.66101,134.164 z" /><path
                 id="use59"
                 d="m 247,1350 70.53423,217.082 -184.66101,-134.164 h 228.25356 l -184.66101,134.164 z" /></g><path
               id="use60"
               d="m 247,1770 70.53423,217.082 -184.66101,-134.164 h 228.25356 l -184.66101,134.164 z" /></g><g
             id="use61"
             transform="translate(247,210)"><path
               id="path127"
               d="M 247,90 317.53423,307.08204 132.87322,172.91796 H 361.12678 L 176.46577,307.08204 Z" /><path
               id="use128"
               d="M 247,510 317.53423,727.08204 132.87322,592.91796 H 361.12678 L 176.46577,727.08204 Z" /><path
               id="use129"
               d="m 247,930 70.53423,217.082 -184.66101,-134.164 h 228.25356 l -184.66101,134.164 z" /><path
               id="use130"
               d="m 247,1350 70.53423,217.082 -184.66101,-134.164 h 228.25356 l -184.66101,134.164 z" /></g></g></g><g
         id="use17"
         transform="translate(988)"><g
           id="g39"><g
             id="g38"><g
               id="g37"><path
                 id="path34"
                 d="M 247,90 317.53423,307.08204 132.87322,172.91796 H 361.12678 L 176.46577,307.08204 Z" /><path
                 id="use35"
                 d="M 247,510 317.53423,727.08204 132.87322,592.91796 H 361.12678 L 176.46577,727.08204 Z" /><path
                 id="use36"
                 d="m 247,930 70.53423,217.082 -184.66101,-134.164 h 228.25356 l -184.66101,134.164 z" /><path
                 id="use37"
                 d="m 247,1350 70.53423,217.082 -184.66101,-134.164 h 228.25356 l -184.66101,134.164 z" /></g><path
               id="use38"
               d="m 247,1770 70.53423,217.082 -184.66101,-134.164 h 228.25356 l -184.66101,134.164 z" /></g><g
             id="use39"
             transform="translate(247,210)"><path
               id="path115"
               d="M 247,90 317.53423,307.08204 132.87322,172.91796 H 361.12678 L 176.46577,307.08204 Z" /><path
               id="use116"
               d="M 247,510 317.53423,727.08204 132.87322,592.91796 H 361.12678 L 176.46577,727.08204 Z" /><path
               id="use117"
               d="m 247,930 70.53423,217.082 -184.66101,-134.164 h 228.25356 l -184.66101,134.164 z" /><path
               id="use118"
               d="m 247,1350 70.53423,217.082 -184.66101,-134.164 h 228.25356 l -184.66101,134.164 z" /></g></g><g
           id="use40"
           transform="translate(494)"><g
             id="g85"><g
               id="g84"><path
                 id="path81"
                 d="M 247,90 317.53423,307.08204 132.87322,172.91796 H 361.12678 L 176.46577,307.08204 Z" /><path
                 id="use82"
                 d="M 247,510 317.53423,727.08204 132.87322,592.91796 H 361.12678 L 176.46577,727.08204 Z" /><path
                 id="use83"
                 d="m 247,930 70.53423,217.082 -184.66101,-134.164 h 228.25356 l -184.66101,134.164 z" /><path
                 id="use84"
                 d="m 247,1350 70.53423,217.082 -184.66101,-134.164 h 228.25356 l -184.66101,134.164 z" /></g><path
               id="use85"
               d="m 247,1770 70.53423,217.082 -184.66101,-134.164 h 228.25356 l -184.66101,134.164 z" /></g><g
             id="use86"
             transform="translate(247,210)"><path
               id="path142"
               d="M 247,90 317.53423,307.08204 132.87322,172.91796 H 361.12678 L 176.46577,307.08204 Z" /><path
               id="use143"
               d="M 247,510 317.53423,727.08204 132.87322,592.91796 H 361.12678 L 176.46577,727.08204 Z" /><path
               id="use144"
               d="m 247,930 70.53423,217.082 -184.66101,-134.164 h 228.25356 l -184.66101,134.164 z" /><path
               id="use145"
               d="m 247,1350 70.53423,217.082 -184.66101,-134.164 h 228.25356 l -184.66101,134.164 z" /></g></g></g><g
         id="use18"
         transform="translate(1976)"><g
           id="g65"><g
             id="g64"><path
               id="path61"
               d="M 247,90 317.53423,307.08204 132.87322,172.91796 H 361.12678 L 176.46577,307.08204 Z" /><path
               id="use62"
               d="M 247,510 317.53423,727.08204 132.87322,592.91796 H 361.12678 L 176.46577,727.08204 Z" /><path
               id="use63"
               d="m 247,930 70.53423,217.082 -184.66101,-134.164 h 228.25356 l -184.66101,134.164 z" /><path
               id="use64"
               d="m 247,1350 70.53423,217.082 -184.66101,-134.164 h 228.25356 l -184.66101,134.164 z" /></g><path
             id="use65"
             d="m 247,1770 70.53423,217.082 -184.66101,-134.164 h 228.25356 l -184.66101,134.164 z" /></g><g
           id="use66"
           transform="translate(247,210)"><path
             id="path130"
             d="M 247,90 317.53423,307.08204 132.87322,172.91796 H 361.12678 L 176.46577,307.08204 Z" /><path
             id="use131"
             d="M 247,510 317.53423,727.08204 132.87322,592.91796 H 361.12678 L 176.46577,727.08204 Z" /><path
             id="use132"
             d="m 247,930 70.53423,217.082 -184.66101,-134.164 h 228.25356 l -184.66101,134.164 z" /><path
             id="use133"
             d="m 247,1350 70.53423,217.082 -184.66101,-134.164 h 228.25356 l -184.66101,134.164 z" /></g></g><g
         id="use19"
         transform="translate(2470)"><g
           id="g98"><path
             id="path95"
             d="M 247,90 317.53423,307.08204 132.87322,172.91796 H 361.12678 L 176.46577,307.08204 Z" /><path
             id="use96"
             d="M 247,510 317.53423,727.08204 132.87322,592.91796 H 361.12678 L 176.46577,727.08204 Z" /><path
             id="use97"
             d="m 247,930 70.53423,217.082 -184.66101,-134.164 h 228.25356 l -184.66101,134.164 z" /><path
             id="use98"
             d="m 247,1350 70.53423,217.082 -184.66101,-134.164 h 228.25356 l -184.66101,134.164 z" /></g><path
           id="use99"
           d="m 247,1770 70.53423,217.082 -184.66101,-134.164 h 228.25356 l -184.66101,134.164 z" /></g></g></g><g
     id="g30"
     transform="matrix(-0.01282051,0,0.01282051,0.01282051,297.88737,110.39015)"><rect
       width="7410"
       height="3900"
       fill="#b22234"
       id="rect20"
       x="0"
       y="0" /><path
       d="m 0,450 h 7410 m 0,600 H 0 m 0,600 h 7410 m 0,600 H 0 m 0,600 h 7410 m 0,600 H 0"
       stroke="#ffffff"
       stroke-width="300"
       id="path20" /><rect
       width="2964"
       height="2100"
       fill="#3c3b6e"
       id="rect21"
       x="0"
       y="0" /><g
       fill="#ffffff"
       id="g29"><g
         id="g26"><g
           id="g25"><g
             id="g24"><g
               id="g23"><path
                 id="path21"
                 d="M 247,90 317.53423,307.08204 132.87322,172.91796 H 361.12678 L 176.46577,307.08204 Z" /><path
                 id="use21"
                 d="M 247,510 317.53423,727.08204 132.87322,592.91796 H 361.12678 L 176.46577,727.08204 Z" /><path
                 id="use22"
                 d="m 247,930 70.53423,217.082 -184.66101,-134.164 h 228.25356 l -184.66101,134.164 z" /><path
                 id="use23"
                 d="m 247,1350 70.53423,217.082 -184.66101,-134.164 h 228.25356 l -184.66101,134.164 z" /></g><path
               id="use24"
               d="m 247,1770 70.53423,217.082 -184.66101,-134.164 h 228.25356 l -184.66101,134.164 z" /></g><g
             id="use25"
             transform="translate(247,210)"><path
               id="path109"
               d="M 247,90 317.53423,307.08204 132.87322,172.91796 H 361.12678 L 176.46577,307.08204 Z" /><path
               id="use110"
               d="M 247,510 317.53423,727.08204 132.87322,592.91796 H 361.12678 L 176.46577,727.08204 Z" /><path
               id="use111"
               d="m 247,930 70.53423,217.082 -184.66101,-134.164 h 228.25356 l -184.66101,134.164 z" /><path
               id="use112"
               d="m 247,1350 70.53423,217.082 -184.66101,-134.164 h 228.25356 l -184.66101,134.164 z" /></g></g><g
           id="use26"
           transform="translate(494)"><g
             id="g70"><g
               id="g69"><path
                 id="path66"
                 d="M 247,90 317.53423,307.08204 132.87322,172.91796 H 361.12678 L 176.46577,307.08204 Z" /><path
                 id="use67"
                 d="M 247,510 317.53423,727.08204 132.87322,592.91796 H 361.12678 L 176.46577,727.08204 Z" /><path
                 id="use68"
                 d="m 247,930 70.53423,217.082 -184.66101,-134.164 h 228.25356 l -184.66101,134.164 z" /><path
                 id="use69"
                 d="m 247,1350 70.53423,217.082 -184.66101,-134.164 h 228.25356 l -184.66101,134.164 z" /></g><path
               id="use70"
               d="m 247,1770 70.53423,217.082 -184.66101,-134.164 h 228.25356 l -184.66101,134.164 z" /></g><g
             id="use71"
             transform="translate(247,210)"><path
               id="path133"
               d="M 247,90 317.53423,307.08204 132.87322,172.91796 H 361.12678 L 176.46577,307.08204 Z" /><path
               id="use134"
               d="M 247,510 317.53423,727.08204 132.87322,592.91796 H 361.12678 L 176.46577,727.08204 Z" /><path
               id="use135"
               d="m 247,930 70.53423,217.082 -184.66101,-134.164 h 228.25356 l -184.66101,134.164 z" /><path
               id="use136"
               d="m 247,1350 70.53423,217.082 -184.66101,-134.164 h 228.25356 l -184.66101,134.164 z" /></g></g></g><g
         id="use27"
         transform="translate(988)"><g
           id="g45"><g
             id="g44"><g
               id="g43"><path
                 id="path40"
                 d="M 247,90 317.53423,307.08204 132.87322,172.91796 H 361.12678 L 176.46577,307.08204 Z" /><path
                 id="use41"
                 d="M 247,510 317.53423,727.08204 132.87322,592.91796 H 361.12678 L 176.46577,727.08204 Z" /><path
                 id="use42"
                 d="m 247,930 70.53423,217.082 -184.66101,-134.164 h 228.25356 l -184.66101,134.164 z" /><path
                 id="use43"
                 d="m 247,1350 70.53423,217.082 -184.66101,-134.164 h 228.25356 l -184.66101,134.164 z" /></g><path
               id="use44"
               d="m 247,1770 70.53423,217.082 -184.66101,-134.164 h 228.25356 l -184.66101,134.164 z" /></g><g
             id="use45"
             transform="translate(247,210)"><path
               id="path118"
               d="M 247,90 317.53423,307.08204 132.87322,172.91796 H 361.12678 L 176.46577,307.08204 Z" /><path
               id="use119"
               d="M 247,510 317.53423,727.08204 132.87322,592.91796 H 361.12678 L 176.46577,727.08204 Z" /><path
               id="use120"
               d="m 247,930 70.53423,217.082 -184.66101,-134.164 h 228.25356 l -184.66101,134.164 z" /><path
               id="use121"
               d="m 247,1350 70.53423,217.082 -184.66101,-134.164 h 228.25356 l -184.66101,134.164 z" /></g></g><g
           id="use46"
           transform="translate(494)"><g
             id="g90"><g
               id="g89"><path
                 id="path86"
                 d="M 247,90 317.53423,307.08204 132.87322,172.91796 H 361.12678 L 176.46577,307.08204 Z" /><path
                 id="use87"
                 d="M 247,510 317.53423,727.08204 132.87322,592.91796 H 361.12678 L 176.46577,727.08204 Z" /><path
                 id="use88"
                 d="m 247,930 70.53423,217.082 -184.66101,-134.164 h 228.25356 l -184.66101,134.164 z" /><path
                 id="use89"
                 d="m 247,1350 70.53423,217.082 -184.66101,-134.164 h 228.25356 l -184.66101,134.164 z" /></g><path
               id="use90"
               d="m 247,1770 70.53423,217.082 -184.66101,-134.164 h 228.25356 l -184.66101,134.164 z" /></g><g
             id="use91"
             transform="translate(247,210)"><path
               id="path145"
               d="M 247,90 317.53423,307.08204 132.87322,172.91796 H 361.12678 L 176.46577,307.08204 Z" /><path
               id="use146"
               d="M 247,510 317.53423,727.08204 132.87322,592.91796 H 361.12678 L 176.46577,727.08204 Z" /><path
               id="use147"
               d="m 247,930 70.53423,217.082 -184.66101,-134.164 h 228.25356 l -184.66101,134.164 z" /><path
               id="use148"
               d="m 247,1350 70.53423,217.082 -184.66101,-134.164 h 228.25356 l -184.66101,134.164 z" /></g></g></g><g
         id="use28"
         transform="translate(1976)"><g
           id="g75"><g
             id="g74"><path
               id="path71"
               d="M 247,90 317.53423,307.08204 132.87322,172.91796 H 361.12678 L 176.46577,307.08204 Z" /><path
               id="use72"
               d="M 247,510 317.53423,727.08204 132.87322,592.91796 H 361.12678 L 176.46577,727.08204 Z" /><path
               id="use73"
               d="m 247,930 70.53423,217.082 -184.66101,-134.164 h 228.25356 l -184.66101,134.164 z" /><path
               id="use74"
               d="m 247,1350 70.53423,217.082 -184.66101,-134.164 h 228.25356 l -184.66101,134.164 z" /></g><path
             id="use75"
             d="m 247,1770 70.53423,217.082 -184.66101,-134.164 h 228.25356 l -184.66101,134.164 z" /></g><g
           id="use76"
           transform="translate(247,210)"><path
             id="path136"
             d="M 247,90 317.53423,307.08204 132.87322,172.91796 H 361.12678 L 176.46577,307.08204 Z" /><path
             id="use137"
             d="M 247,510 317.53423,727.08204 132.87322,592.91796 H 361.12678 L 176.46577,727.08204 Z" /><path
             id="use138"
             d="m 247,930 70.53423,217.082 -184.66101,-134.164 h 228.25356 l -184.66101,134.164 z" /><path
             id="use139"
             d="m 247,1350 70.53423,217.082 -184.66101,-134.164 h 228.25356 l -184.66101,134.164 z" /></g></g><g
         id="use29"
         transform="translate(2470)"><g
           id="g102"><path
             id="path99"
             d="M 247,90 317.53423,307.08204 132.87322,172.91796 H 361.12678 L 176.46577,307.08204 Z" /><path
             id="use100"
             d="M 247,510 317.53423,727.08204 132.87322,592.91796 H 361.12678 L 176.46577,727.08204 Z" /><path
             id="use101"
             d="m 247,930 70.53423,217.082 -184.66101,-134.164 h 228.25356 l -184.66101,134.164 z" /><path
             id="use102"
             d="m 247,1350 70.53423,217.082 -184.66101,-134.164 h 228.25356 l -184.66101,134.164 z" /></g><path
           id="use103"
           d="m 247,1770 70.53423,217.082 -184.66101,-134.164 h 228.25356 l -184.66101,134.164 z" /></g></g></g><path
     d="m 467.1716,298.61548 v 26.54869 c -11.70073,-0.70899 -20.85781,-8.20255 -27.2748,-22.30544 8.74703,-2.64849 17.90534,-4.07382 27.2748,-4.24325 z m 4.24329,0.0226 c 9.17719,0.2139 18.15505,1.62375 26.73022,4.22057 -6.31607,13.88298 -15.28907,21.37667 -26.73022,22.28274 z m 30.7919,5.55935 c 7.9311,2.77948 15.48824,6.55371 22.50966,11.27751 -15.88855,18.15854 -33.81038,27.70865 -53.30156,28.43206 v -14.52231 c 13.20278,-0.92769 23.79576,-9.58464 30.7919,-25.18721 z m -66.34902,0 c 7.09227,15.81768 17.85749,24.48529 31.31383,25.2099 v 14.52236 c -19.70271,-0.56238 -37.78471,-10.12556 -53.82349,-28.45475 7.02265,-4.7238 14.57979,-8.49803 22.50966,-11.27751 z m 92.33047,13.72821 c 4.06408,2.99337 7.93741,6.30246 11.5725,9.93874 2.07888,2.07889 4.05138,4.26417 5.92236,6.48968 -15.91498,17.74876 -42.77829,28.0659 -74.26821,28.5682 V 348.1503 c 20.88635,-0.7222 39.96669,-10.87886 56.77335,-30.22466 z m -118.33456,0 c 16.95448,19.51644 36.2189,29.68617 57.31792,30.24735 v 14.77196 c -31.72671,-0.38934 -58.78142,-10.73757 -74.79015,-28.59089 1.87223,-2.22431 3.8196,-4.40958 5.89971,-6.48968 3.63509,-3.63627 7.50843,-6.94536 11.57252,-9.93874 z m 138.50698,19.76403 c 6.20788,8.05003 11.10329,16.90543 14.56774,26.32177 -28.95918,15.14474 -63.74639,17.48939 -91.5135,17.60836 v -14.45428 c 32.3996,-0.50352 60.17637,-11.14909 76.94576,-29.47585 z m -158.67941,0 c 16.86554,18.43132 44.85644,29.10799 77.49036,29.49854 v 14.43159 c -27.8549,-0.0901 -62.90904,-2.36269 -92.0581,-17.60836 3.46322,-9.41755 8.35987,-18.27295 14.56774,-26.32177 z m 174.63136,30.38349 c 8.73737,23.55287 5.19966,47.41919 0,61.08467 -29.43028,-15.1856 -64.29215,-17.63848 -92.26236,-17.78989 v 0.0454 h -5.83167 v -0.0454 c -27.97747,0.14781 -62.88334,2.59588 -92.3304,17.78989 -5.19965,-13.66548 -8.73744,-37.53299 0,-61.08467 29.4459,15.19521 64.35177,17.63969 92.3304,17.78989 v -0.068 h 5.83167 v 0.068 c 27.97021,-0.15142 62.83208,-2.6043 92.26236,-17.78989 z m -8.96305,20.89858 H 531.5238 c -3.78525,0 -7.85115,2.49243 -7.85115,7.14773 0,0.34969 0.024,0.69665 0.0683,1.0211 l -5.78629,-8.14613 h -12.04897 l -10.02952,13.20627 v -13.20627 h -13.02474 l -11.54985,11.89018 v -11.91288 h -9.62106 c -0.57683,0 -0.47343,0.45383 0,0.45383 3.80937,0 5.42323,2.62374 5.42323,3.99365 v 15.61153 h 6.9889 c 2.38891,0 3.82546,-1.29703 4.56088,-2.0649 l 13.02474,-13.25165 v 8.94033 c -0.0683,3.55696 -2.56806,5.51396 -6.37619,5.51396 -0.4735,0 -0.57806,0.86226 0,0.86226 h 14.27272 c 2.73144,0 4.3928,-1.12781 5.12821,-2.22373 l 2.72294,-3.56252 h 12.29862 c 0.84121,0 2.49799,0.40854 2.76833,1.74722 0.47706,2.36249 -1.20543,3.17677 -5.01472,3.17677 -0.47227,0 -0.57683,0.88495 0,0.88495 h 14.90807 c -0.47342,-0.54677 -1.56384,-2.12791 -2.24639,-2.94985 l -2.74567,-3.8575 c 1.26781,0.67894 2.713,1.0211 4.1298,1.0211 l 10.84639,-0.0226 c 0.83997,0 2.76832,0.37851 2.76832,1.74722 0,2.64609 -1.20659,3.17676 -5.01472,3.17676 -0.4735,0 -0.57806,0.88496 0,0.88496 h 15.22575 v -20.0817 z m -109.75723,0.45383 h -12.04906 l -10.00677,13.20627 v -13.20627 h -12.3894 c 0.053,0 -7.21579,9.14455 -7.21579,9.14455 l -6.76198,-9.14455 h -16.7007 c -0.57807,0 -0.4735,0.63535 0,0.63535 4.93643,0 5.80894,2.41951 5.80894,3.78943 v 10.93715 c 0,1.36991 -0.8725,3.78943 -5.80894,3.78943 -0.4735,0 -0.57807,0.45382 0,0.45382 h 14.70389 v -14.45428 l 10.23369,14.45428 h 2.47337 l 11.45901,-14.18199 v 8.21421 c 0,2.84797 -2.59079,5.53665 -6.39891,5.53665 -0.47343,0 -0.57676,0.43113 0,0.43113 h 14.27279 c 2.73137,0 4.41668,-0.69787 5.15086,-1.7926 l 2.70029,-3.56252 h 12.32128 c 0.83997,0 2.63029,0.38331 2.74567,1.74722 0.20426,2.43339 -1.20666,3.17677 -5.01479,3.17677 -0.47343,0 -0.578,0.43113 0,0.43113 h 14.9308 c -0.47227,-0.54557 -1.58657,-1.69678 -2.26912,-2.51872 z m 69.57118,3.63059 4.15245,5.80894 h -8.55454 z m 30.11116,0.34037 v 5.46857 h -8.00995 c -1.44686,0 -2.63218,-1.23873 -2.63218,-2.74563 0,-1.5069 1.18532,-2.72294 2.63218,-2.72294 z m -102.45067,0.0908 4.1298,5.80894 h -8.55462 z m 28.5909,22.10121 c 27.76594,0.11896 62.55432,2.48631 91.5135,17.63106 -3.46445,9.41753 -8.35986,18.27173 -14.56774,26.32177 C 531.5901,441.2146 503.81448,430.56903 471.4149,430.06552 Z m -4.2433,0 v 14.45425 c -32.6135,0.38934 -60.57463,11.04466 -77.44498,29.45316 -6.09613,-7.92267 -11.04324,-16.76138 -14.56774,-26.29909 29.14305,-15.23126 64.16749,-17.51703 92.01272,-17.60836 z m 0,18.69754 v 14.77196 c -21.08217,0.56119 -40.32772,10.69409 -57.27254,30.17928 -6.46624,-4.75384 -12.34212,-10.24608 -17.49488,-16.38304 16.01351,-17.83289 43.05996,-28.17885 74.76742,-28.5682 z m 4.2433,0.0227 c 31.48869,0.5011 58.35199,10.81823 74.26821,28.5682 -1.87223,2.2243 -3.84348,4.3869 -5.92237,6.46699 -3.63633,3.63628 -7.50966,6.96806 -11.5725,9.96143 -16.80666,-19.34699 -35.887,-29.50366 -56.77334,-30.22466 z m -4.2433,18.99252 v 14.52236 c -13.44312,0.72461 -24.19765,9.37928 -31.2911,25.16452 -8.00924,-2.82154 -15.57603,-6.62101 -22.50966,-11.27752 16.02913,-18.29913 34.11368,-27.84817 53.80076,-28.40936 z m 4.2433,0.0226 c 19.49117,0.72462 37.413,10.27351 53.30155,28.43206 -7.02141,4.725 -14.57855,8.49684 -22.50966,11.27752 -6.99614,-15.60258 -17.58911,-24.25832 -30.79189,-25.18722 z m -4.2433,18.74292 v 26.54869 c -9.4608,-0.17304 -18.60002,-1.65217 -27.25208,-4.28863 6.41577,-14.07406 15.5634,-21.55228 27.25208,-22.26006 z m 4.2433,0.0227 c 11.44231,0.90606 20.41539,8.40096 26.73021,22.28274 -8.57517,2.59683 -17.55187,4.00546 -26.73021,4.22056 z"
     fill="#2b67ac"
     id="path30"
     style="stroke-width:0.726118" /></svg>
