<?xml version="1.0" encoding="UTF-8" standalone="no"?>
<svg
   width="1024"
   height="1024"
   viewBox="0 0 1024 1024"
   version="1.1"
   id="svg40"
   sodipodi:docname="Vertical_stabilizer.svg"
   inkscape:version="1.3.2 (091e20ef0f, 2023-11-25, custom)"
   xml:space="preserve"
   xmlns:inkscape="http://www.inkscape.org/namespaces/inkscape"
   xmlns:sodipodi="http://sodipodi.sourceforge.net/DTD/sodipodi-0.dtd"
   xmlns="http://www.w3.org/2000/svg"
   xmlns:svg="http://www.w3.org/2000/svg"><defs
     id="defs40" /><sodipodi:namedview
     id="namedview40"
     pagecolor="#505050"
     bordercolor="#ffffff"
     borderopacity="1"
     inkscape:showpageshadow="0"
     inkscape:pageopacity="0"
     inkscape:pagecheckerboard="1"
     inkscape:deskcolor="#d1d1d1"
     inkscape:zoom="0.34109816"
     inkscape:cx="703.60978"
     inkscape:cy="473.47075"
     inkscape:window-width="1366"
     inkscape:window-height="724"
     inkscape:window-x="-1"
     inkscape:window-y="-1"
     inkscape:window-maximized="1"
     inkscape:current-layer="svg40" /><desc
     id="desc1">Boeing_747SP.blend, (Blender 3.3.9)</desc><rect
     style="fill:#ffffff;fill-opacity:1;stroke-width:15;stroke-linecap:square"
     id="rect1"
     width="1024"
     height="1024"
     x="0"
     y="0"
     rx="2.3779886"
     ry="2.3779886" /><path
     d="m 187.00781,93.074219 32.76195,84.856431 17.78318,-2.15615 40.08455,-4.85685 198.84458,332.33756 7.71118,14.11952 -40.36132,44.82089 -1.00812,0.004 -38.44773,0.13567 -38.44774,0.13751 12.35401,0.10268 12.35585,0.1045 53.22856,-0.18885 64.84389,-0.23101 118.07061,-0.41803 236.1449,-0.83607 27.7672,-0.39236 -55.55273,-57.35821 -499.98551,-395.75162 -74.07457,-7.21469 z m 390.88713,410.180991 48.64254,58.2932 z"
     style="fill:#ffffff;fill-opacity:1;stroke-width:0.9386"
     id="path1" /><g
     id="g7"
     transform="matrix(1.5571254,0,0,1.5575722,-1873.0216,-358.03518)"><path
       style="fill:#4c68a7;fill-opacity:1;stroke:none;stroke-width:1px;stroke-linecap:butt;stroke-linejoin:miter;stroke-opacity:1"
       d="M 1752.5861,585.33247 C 1701.504,564.28025 1609.5697,506.81496 1545.3978,455.82816 h -108.8183 c 61.135,48.36565 142.7712,103.78732 214.3004,135.29413 z"
       id="path3"
       sodipodi:nodetypes="ccccc" /><path
       style="fill:#4c68a7;fill-opacity:1;stroke:none;stroke-width:1px;stroke-linecap:butt;stroke-linejoin:miter;stroke-opacity:1"
       d="m 1484.3444,451.58003 h 50.5508 C 1481.5869,414.6715 1426.0849,379.60535 1378.478,337.90851 h -21.1791 v 8.74753 c 36.7292,36.92157 82.9626,73.79847 127.0455,104.92399 z"
       id="path4"
       sodipodi:nodetypes="cccccc" /><path
       style="fill:#4c68a7;fill-opacity:1;stroke:none;stroke-width:1px;stroke-linecap:butt;stroke-linejoin:miter;stroke-opacity:1"
       d="m 1399.5944,451.58003 -34.1638,-84.20072 72.1328,55.04628 h -25.602 l 12.7966,29.52329 z"
       id="path5" /><path
       style="fill:#00112b;fill-opacity:1;stroke:none;stroke-width:1px;stroke-linecap:butt;stroke-linejoin:miter;stroke-opacity:1"
       d="m 1531.0051,574.38309 h 50.5508 c -53.3083,-36.90853 -108.8103,-71.97468 -156.4172,-113.67152 h -21.1791 v 8.74753 c 36.7292,36.92157 82.9626,73.79847 127.0455,104.92399 z"
       id="path6"
       sodipodi:nodetypes="cccccc" /><path
       style="fill:#00112b;fill-opacity:1;stroke:none;stroke-width:1px;stroke-linecap:butt;stroke-linejoin:miter;stroke-opacity:1"
       d="m 1450.3624,578.31778 -34.1638,-84.20072 72.1328,55.04628 h -25.602 l 12.7966,29.52329 z"
       id="path7" /></g><path
     id="polygon1"
     d="m 195.54492,587.02734 30.49381,79.01054 16.55374,-2.00757 37.30946,-4.52387 185.07668,309.43563 7.17733,13.14652 -37.81445,42.00881 60.63448,-0.2151 109.89818,-0.3893 219.79638,-0.7784 25.84314,-0.3653 -51.70676,-53.40723 -465.37105,-368.47971 -68.94633,-6.7158 z"
     style="fill:#ffffff;fill-opacity:1;stroke-width:0.873769"
     sodipodi:nodetypes="ccccccccccccccc" /><g
     id="g13"
     transform="matrix(1.4493241,0,0,1.4502372,-1721.8651,167.00463)"><path
       style="fill:#4c68a7;fill-opacity:1;stroke:none;stroke-width:1px;stroke-linecap:butt;stroke-linejoin:miter;stroke-opacity:1"
       d="M 1752.5861,585.33247 C 1701.504,564.28025 1609.5697,506.81496 1545.3978,455.82816 h -108.8183 c 61.135,48.36565 142.7712,103.78732 214.3004,135.29413 z"
       id="path9"
       sodipodi:nodetypes="ccccc" /><path
       style="fill:#4c68a7;fill-opacity:1;stroke:none;stroke-width:1px;stroke-linecap:butt;stroke-linejoin:miter;stroke-opacity:1"
       d="m 1484.3444,451.58003 h 50.5508 C 1481.5869,414.6715 1426.0849,379.60535 1378.478,337.90851 h -21.1791 v 8.74753 c 36.7292,36.92157 82.9626,73.79847 127.0455,104.92399 z"
       id="path10"
       sodipodi:nodetypes="cccccc" /><path
       style="fill:#4c68a7;fill-opacity:1;stroke:none;stroke-width:1px;stroke-linecap:butt;stroke-linejoin:miter;stroke-opacity:1"
       d="m 1399.5944,451.58003 -34.1638,-84.20072 72.1328,55.04628 h -25.602 l 12.7966,29.52329 z"
       id="path11" /><path
       style="fill:#00112b;fill-opacity:1;stroke:none;stroke-width:1px;stroke-linecap:butt;stroke-linejoin:miter;stroke-opacity:1"
       d="m 1531.0051,574.38309 h 50.5508 c -53.3083,-36.90853 -108.8103,-71.97468 -156.4172,-113.67152 h -21.1791 v 8.74753 c 36.7292,36.92157 82.9626,73.79847 127.0455,104.92399 z"
       id="path12"
       sodipodi:nodetypes="cccccc" /><path
       style="fill:#00112b;fill-opacity:1;stroke:none;stroke-width:1px;stroke-linecap:butt;stroke-linejoin:miter;stroke-opacity:1"
       d="m 1450.3624,578.31778 -34.1638,-84.20072 72.1328,55.04628 h -25.602 l 12.7966,29.52329 z"
       id="path13" /></g></svg>
