<?xml version="1.0" encoding="UTF-8" standalone="no"?>
<svg
   width="1024"
   height="1024"
   viewBox="0 0 1024 1024"
   version="1.1"
   id="svg40"
   sodipodi:docname="Vertical_stabilizer.svg"
   inkscape:version="1.3.2 (091e20ef0f, 2023-11-25, custom)"
   xml:space="preserve"
   xmlns:inkscape="http://www.inkscape.org/namespaces/inkscape"
   xmlns:sodipodi="http://sodipodi.sourceforge.net/DTD/sodipodi-0.dtd"
   xmlns="http://www.w3.org/2000/svg"
   xmlns:svg="http://www.w3.org/2000/svg"><defs
     id="defs40"><inkscape:perspective
       sodipodi:type="inkscape:persp3d"
       inkscape:vp_x="177.27994 : 277.84749 : 1"
       inkscape:vp_y="4.4979686e-14 : 553.03945 : 0"
       inkscape:vp_z="591.41192 : 294.58928 : 1"
       inkscape:persp3d-origin="318.10666 : 197.58964 : 1"
       id="perspective2464" /></defs><sodipodi:namedview
     id="namedview40"
     pagecolor="#505050"
     bordercolor="#ffffff"
     borderopacity="1"
     inkscape:showpageshadow="0"
     inkscape:pageopacity="0"
     inkscape:pagecheckerboard="1"
     inkscape:deskcolor="#d1d1d1"
     inkscape:zoom="0.34043325"
     inkscape:cx="490.55139"
     inkscape:cy="406.83453"
     inkscape:window-width="1366"
     inkscape:window-height="724"
     inkscape:window-x="-1"
     inkscape:window-y="-1"
     inkscape:window-maximized="1"
     inkscape:current-layer="svg40" /><desc
     id="desc1">Boeing_747SP.blend, (Blender 3.3.9)</desc><rect
     style="fill:#ffffff;fill-opacity:1;stroke-width:15;stroke-linecap:square"
     id="rect1"
     width="1024"
     height="1024"
     x="0"
     y="0"
     rx="2.3779886"
     ry="2.3779886" /><path
     id="polygon1"
     d="m 139.64648,505.07227 34.91016,90.39648 18.95117,-2.29687 42.71289,-5.17579 211.88086,354.02735 8.2168,15.04101 -43.29102,48.06255 69.41602,-0.2461 125.81445,-0.4454 251.62891,-0.8906 29.58594,-0.4179 -59.19532,-61.10356 -532.76953,-421.58008 -78.93164,-7.68359 z"
     style="fill:#ffffff;fill-opacity:1"
     sodipodi:nodetypes="ccccccccccccccc" /><path
     d="m 178.04688,36.59375 34.91015,90.39453 18.94922,-2.29687 42.71289,-5.17383 211.88281,354.02734 8.2168,15.04102 -43.00781,47.74609 -1.07422,0.004 -40.96875,0.14453 -40.96875,0.14648 13.16406,0.10938 13.16602,0.11133 56.71875,-0.20118 69.0957,-0.24609 125.8125,-0.44531 251.62891,-0.89063 29.58789,-0.41797 L 868.67773,473.54492 335.9082,51.964844 256.97656,44.279297 Z m 416.51757,436.95117 51.83203,62.09766 z"
     style="fill:#ffffff;fill-opacity:1"
     id="path1" /><path
     style="fill:#003d79;stroke:none;stroke-width:1px;stroke-linecap:butt;stroke-linejoin:miter;stroke-opacity:1;fill-opacity:1"
     d="M 178.04688,36.59375 335.9082,51.964844 868.67773,473.54492 927.87305,534.64657 388.44629,536.79209 212.95703,126.98828 Z"
     id="path2" /><style
     type="text/css"
     id="style1">
	.st0{fill:#98002E;}
	.st1{fill:#E31837;}
	.st2{fill:#003D79;}
</style><g
     id="g1"
     transform="matrix(1.5181864,2.6280463,-2.6280463,1.5181864,794.62625,-1670.9339)"><path
       class="st0"
       d="m 585.7,467.6 -89.3,-43 V 330 Z m 7.1,16.4 -96.4,-40.7 V 484 Z"
       id="path1-3-5"
       style="fill:#98002e" /><polyline
       class="st1"
       points="7.1,137.6 96.4,0 96.4,94.6 7.1,137.6  "
       id="polyline1-3"
       style="fill:#e31837"
       transform="translate(400,330)" /><polyline
       class="st1"
       points="0,154 96.4,154 96.4,113.3 0,154  "
       id="polyline2-5"
       style="fill:#e31837"
       transform="translate(400,330)" /></g><path
     style="fill:#003d79;fill-opacity:1;stroke:none;stroke-width:1px;stroke-linecap:butt;stroke-linejoin:miter;stroke-opacity:1"
     d="m 139.64648,505.07325 157.86132,15.37109 532.76953,421.58008 59.19533,61.10168 -539.42676,2.1456 -175.48926,-409.80393 z"
     id="path7" /><g
     id="g9"
     transform="matrix(1.5181864,2.6280463,-2.6280463,1.5181864,756.22585,-1202.4543)"><path
       class="st0"
       d="m 585.7,467.6 -89.3,-43 V 330 Z m 7.1,16.4 -96.4,-40.7 V 484 Z"
       id="path8"
       style="fill:#98002e" /><polyline
       class="st1"
       points="7.1,137.6 96.4,0 96.4,94.6 7.1,137.6  "
       id="polyline8"
       style="fill:#e31837"
       transform="translate(400,330)" /><polyline
       class="st1"
       points="0,154 96.4,154 96.4,113.3 0,154  "
       id="polyline9"
       style="fill:#e31837"
       transform="translate(400,330)" /></g></svg>
