<?xml version="1.0" standalone="no"?>
<!DOCTYPE svg PUBLIC "-//W3C//DTD SVG 1.1//EN" 
  "http://www.w3.org/Graphics/SVG/1.1/DTD/svg11.dtd">
<svg width="2048" height="2048" viewBox="0 0 2048 2048"
     xmlns="http://www.w3.org/2000/svg" version="1.1">
<desc>Boeing_747_100.blend, (Blender 3.3.9)</desc>
<polygon stroke="black" stroke-width="1" fill="rgb(204, 204, 204)" fill-opacity="1" points="37.061,1607.461 542.355,2048.000 520.202,1994.594 72.843,1604.427 " />
<polygon stroke="black" stroke-width="1" fill="rgb(204, 204, 204)" fill-opacity="1" points="1177.458,942.412 1191.445,2032.495 1215.769,1983.180 1195.826,951.772 " />
<polygon stroke="black" stroke-width="1" fill="rgb(204, 204, 204)" fill-opacity="1" points="508.022,253.456 415.075,150.572 401.478,230.721 484.737,303.270 " />
<polygon stroke="black" stroke-width="1" fill="rgb(204, 204, 204)" fill-opacity="1" points="1079.375,696.150 792.927,952.416 851.531,1400.975 908.110,1818.547 992.611,1747.598 " />
<polygon stroke="black" stroke-width="1" fill="rgb(204, 204, 204)" fill-opacity="1" points="527.167,1384.737 258.671,1150.782 72.843,1604.427 520.202,1994.594 " />
<polygon stroke="black" stroke-width="1" fill="rgb(204, 204, 204)" fill-opacity="1" points="1015.342,1798.688 914.474,1911.531 905.627,1939.630 1050.901,1817.653 " />
<polygon stroke="black" stroke-width="1" fill="rgb(204, 204, 204)" fill-opacity="1" points="1095.420,1350.749 1131.507,245.834 1095.257,228.226 1084.557,1345.011 " />
<polygon stroke="black" stroke-width="1" fill="rgb(204, 204, 204)" fill-opacity="1" points="1259.378,1673.894 1263.956,2041.062 1302.347,2048.000 1302.347,1633.969 " />
<polygon stroke="black" stroke-width="1" fill="rgb(204, 204, 204)" fill-opacity="1" points="1215.769,1021.409 1216.327,1061.766 1233.250,1061.831 1233.250,1018.584 " />
<polygon stroke="black" stroke-width="1" fill="rgb(204, 204, 204)" fill-opacity="1" points="484.737,303.270 401.478,230.721 334.612,651.238 267.071,1092.329 526.298,1334.032 " />
<polygon stroke="black" stroke-width="1" fill="rgb(204, 204, 204)" fill-opacity="1" points="1084.083,642.944 785.690,893.483 792.927,952.416 1079.375,696.150 " />
<polygon stroke="black" stroke-width="1" fill="rgb(204, 204, 204)" fill-opacity="1" points="1177.588,888.100 1177.458,942.412 1195.826,951.772 1196.020,901.061 " />
<polygon stroke="black" stroke-width="1" fill="rgb(204, 204, 204)" fill-opacity="1" points="1194.740,237.625 1177.588,888.100 1196.020,901.061 1215.769,291.483 " />
<polygon stroke="black" stroke-width="1" fill="rgb(204, 204, 204)" fill-opacity="1" points="1056.825,48.659 601.665,429.095 785.690,893.483 1084.083,642.944 " />
<polygon stroke="black" stroke-width="1" fill="rgb(204, 204, 204)" fill-opacity="1" points="1130.750,2045.835 1093.412,1406.853 1084.083,1407.243 1093.053,2048.000 " />
<polygon stroke="black" stroke-width="1" fill="rgb(204, 204, 204)" fill-opacity="1" points="771.219,973.393 763.749,919.962 730.911,955.336 739.956,1007.540 " />
<polygon stroke="black" stroke-width="1" fill="rgb(204, 204, 204)" fill-opacity="1" points="526.298,1334.032 267.071,1092.329 258.671,1150.782 527.167,1384.737 " />
<polygon stroke="black" stroke-width="1" fill="rgb(204, 204, 204)" fill-opacity="1" points="243.512,1073.172 234.881,1126.331 258.671,1150.782 267.071,1092.329 " />
<polygon stroke="black" stroke-width="1" fill="rgb(204, 204, 204)" fill-opacity="1" points="207.955,1043.636 197.583,1095.753 234.881,1126.331 243.512,1073.172 " />
<polygon stroke="black" stroke-width="1" fill="rgb(204, 204, 204)" fill-opacity="1" points="1166.367,226.161 1156.151,866.656 1177.588,888.100 1194.740,237.625 " />
<polygon stroke="black" stroke-width="1" fill="rgb(204, 204, 204)" fill-opacity="1" points="1156.151,866.656 1156.168,928.978 1177.458,942.412 1177.588,888.100 " />
<polygon stroke="black" stroke-width="1" fill="rgb(204, 204, 204)" fill-opacity="1" points="270.352,1.665 377.193,114.816 415.075,150.572 " />
<polygon stroke="black" stroke-width="1" fill="rgb(204, 204, 204)" fill-opacity="1" points="542.355,237.227 399.216,112.502 415.075,150.572 508.022,253.456 " />
<polygon stroke="black" stroke-width="1" fill="rgb(204, 204, 204)" fill-opacity="1" points="1156.168,928.978 1156.779,2048.000 1191.445,2032.495 1177.458,942.412 " />
<polygon stroke="black" stroke-width="1" fill="rgb(204, 204, 204)" fill-opacity="1" points="1289.905,1633.969 1289.905,1219.939 1263.956,1220.754 1259.378,1586.412 " />
<polygon stroke="black" stroke-width="1" fill="rgb(204, 204, 204)" fill-opacity="1" points="792.927,952.416 785.690,893.483 763.749,919.962 771.219,973.393 " />
<polygon stroke="black" stroke-width="1" fill="rgb(204, 204, 204)" fill-opacity="1" points="1156.151,1996.181 1106.467,1403.349 1093.412,1406.853 1130.750,2045.835 " />
<polygon stroke="black" stroke-width="1" fill="rgb(204, 204, 204)" fill-opacity="1" points="1106.467,1403.349 1109.161,1350.004 1095.420,1350.749 1093.412,1406.853 " />
<polygon stroke="black" stroke-width="1" fill="rgb(204, 204, 204)" fill-opacity="1" points="601.665,429.095 1056.825,48.659 1084.083,0.000 570.472,430.047 " />
<polygon stroke="black" stroke-width="1" fill="rgb(204, 204, 204)" fill-opacity="1" points="1109.161,1350.004 1156.151,296.030 1131.507,245.834 1095.420,1350.749 " />
<polygon stroke="black" stroke-width="1" fill="rgb(204, 204, 204)" fill-opacity="1" points="992.611,1747.598 908.110,1818.547 914.474,1911.531 1015.342,1798.688 " />
<polygon stroke="black" stroke-width="1" fill="rgb(204, 204, 204)" fill-opacity="1" points="883.621,1936.866 774.890,2048.000 914.474,1911.531 " />
<polygon stroke="black" stroke-width="1" fill="rgb(204, 204, 204)" fill-opacity="1" points="399.216,112.502 270.352,1.665 415.075,150.572 " />
<polygon stroke="black" stroke-width="1" fill="rgb(204, 204, 204)" fill-opacity="1" points="914.474,1911.531 774.890,2048.000 905.627,1939.630 " />
<polygon stroke="black" stroke-width="1" fill="rgb(204, 204, 204)" fill-opacity="1" points="37.061,1607.461 72.843,1604.427 258.671,1150.782 256.938,1154.011 0.000,1561.357 " />
<polygon stroke="black" stroke-width="1" fill="rgb(204, 204, 204)" fill-opacity="1" points="1245.647,831.017 1237.611,852.575 1261.340,853.474 1261.340,804.143 " />
<polygon stroke="black" stroke-width="1" fill="rgb(204, 204, 204)" fill-opacity="1" points="542.355,485.807 791.261,898.212 785.690,893.483 601.665,429.095 570.472,430.047 " />
<polygon stroke="black" stroke-width="1" fill="rgb(204, 204, 204)" fill-opacity="1" points="1244.495,1011.588 1259.698,1058.435 1259.698,981.115 1237.611,981.024 " />
<polygon stroke="black" stroke-width="1" fill="rgb(204, 204, 204)" fill-opacity="1" points="1237.611,2048.000 1232.537,2022.850 1228.952,2018.400 " />
<polygon stroke="black" stroke-width="1" fill="rgb(204, 204, 204)" fill-opacity="1" points="1261.340,903.704 1261.340,854.373 1237.611,853.474 1244.245,875.588 " />
<polygon stroke="black" stroke-width="1" fill="rgb(204, 204, 204)" fill-opacity="1" points="1259.698,981.024 1259.698,903.704 1244.127,950.392 1237.611,980.933 " />
<polygon stroke="black" stroke-width="1" fill="rgb(204, 204, 204)" fill-opacity="1" points="1237.611,1062.071 1253.750,2022.968 1257.432,2027.338 1255.573,1934.064 1255.437,1511.615 1259.378,1058.435 " />
<polygon stroke="black" stroke-width="1" fill="rgb(204, 204, 204)" fill-opacity="1" points="1232.537,2022.850 1237.611,1061.831 1215.769,1064.986 1221.620,1511.264 1227.786,1937.106 1228.952,2018.400 " />
<polygon stroke="black" stroke-width="1" fill="rgb(204, 204, 204)" fill-opacity="1" points="1253.750,2022.968 1259.378,2048.000 1257.432,2027.338 " />

</svg>
