<?xml version="1.0" encoding="UTF-8" standalone="no"?>
<svg
   width="1024"
   height="1024"
   viewBox="0 0 1024 1024"
   version="1.1"
   id="svg40"
   sodipodi:docname="Vertical_stabilizer.svg"
   inkscape:version="1.3.2 (091e20ef0f, 2023-11-25, custom)"
   xml:space="preserve"
   xmlns:inkscape="http://www.inkscape.org/namespaces/inkscape"
   xmlns:sodipodi="http://sodipodi.sourceforge.net/DTD/sodipodi-0.dtd"
   xmlns="http://www.w3.org/2000/svg"
   xmlns:svg="http://www.w3.org/2000/svg"><defs
     id="defs40"><inkscape:perspective
       sodipodi:type="inkscape:persp3d"
       inkscape:vp_x="177.27994 : 277.84749 : 1"
       inkscape:vp_y="4.4979686e-14 : 553.03945 : 0"
       inkscape:vp_z="591.41192 : 294.58928 : 1"
       inkscape:persp3d-origin="318.10666 : 197.58964 : 1"
       id="perspective2464" /></defs><sodipodi:namedview
     id="namedview40"
     pagecolor="#505050"
     bordercolor="#ffffff"
     borderopacity="1"
     inkscape:showpageshadow="0"
     inkscape:pageopacity="0"
     inkscape:pagecheckerboard="1"
     inkscape:deskcolor="#d1d1d1"
     inkscape:zoom="0.34043325"
     inkscape:cx="634.48562"
     inkscape:cy="497.89497"
     inkscape:window-width="1366"
     inkscape:window-height="724"
     inkscape:window-x="-1"
     inkscape:window-y="-1"
     inkscape:window-maximized="1"
     inkscape:current-layer="svg40" /><desc
     id="desc1">Boeing_747SP.blend, (Blender 3.3.9)</desc><rect
     style="fill:#ffffff;fill-opacity:1;stroke-width:15;stroke-linecap:square"
     id="rect1"
     width="1024"
     height="1024"
     x="0"
     y="0"
     rx="2.3779886"
     ry="2.3779886" /><path
     id="polygon1"
     d="m 139.64648,505.07227 34.91016,90.39648 18.95117,-2.29687 42.71289,-5.17579 211.88086,354.02735 8.2168,15.04101 -43.29102,48.06255 69.41602,-0.2461 125.81445,-0.4454 251.62891,-0.8906 29.58594,-0.4179 -59.19532,-61.10356 -532.76953,-421.58008 -78.93164,-7.68359 z"
     style="fill:#ffffff;fill-opacity:1"
     sodipodi:nodetypes="ccccccccccccccc" /><path
     d="m 178.04688,36.59375 34.91015,90.39453 18.94922,-2.29687 42.71289,-5.17383 211.88281,354.02734 8.2168,15.04102 -43.00781,47.74609 -1.07422,0.004 -40.96875,0.14453 -40.96875,0.14648 13.16406,0.10938 13.16602,0.11133 56.71875,-0.20118 69.0957,-0.24609 125.8125,-0.44531 251.62891,-0.89063 29.58789,-0.41797 L 868.67773,473.54492 335.9082,51.964844 256.97656,44.279297 Z m 416.51757,436.95117 51.83203,62.09766 z"
     style="fill:#ffffff;fill-opacity:1"
     id="path1" /><path
     style="fill:#ffffff;stroke:none;stroke-width:1px;stroke-linecap:butt;stroke-linejoin:miter;stroke-opacity:1"
     d="M 178.04688,36.59375 335.9082,51.964844 868.67773,473.54492 927.87305,534.64657 388.44629,536.79209 212.95703,126.98828 Z"
     id="path2" /><path
     style="fill:#ffffff;stroke:none;stroke-width:1px;stroke-linecap:butt;stroke-linejoin:miter;stroke-opacity:1"
     d="m 139.64648,505.00047 157.86133,15.37109 532.76952,421.58007 59.19533,61.10167 -539.42677,2.1455 -175.48926,-409.80381 z"
     id="path3" /><g
     fill="#00a1e4"
     id="g2"
     transform="matrix(0.73699209,0,0,0.73699209,295.01273,680.09963)"><path
       d="m 109.16,96.38 c -0.28,-7.64 -0.15,-15.3 -0.07,-22.94 43.97,0.13 87.94,0.03 131.91,0.05 0.01,7.61 0.01,15.21 0,22.81 -43.95,0.05 -87.9,-0.1 -131.84,0.08 z M 168.762,0 h 10.98 c 0.09,3.73 0.08,7.45 0.06,11.18 3.67,-0.01 7.35,0.01 11.02,-0.02 0.03,3.66 0.03,7.32 -0.08,10.98 -3.64,0 -7.29,0.02 -10.93,0 0,3.6 -0.01,7.21 0.02,10.82 -3.62,0.23 -7.24,0.18 -10.86,0.15 -0.02,-3.66 -0.02,-7.33 -0.04,-11 -3.68,0.05 -7.35,0.03 -11.02,0.04 -0.06,-3.65 -0.05,-7.31 -0.06,-10.96 3.7,-0.01 7.4,-0.02 11.09,0 -0.08,-3.73 0.25,-7.48 -0.18,-11.19 z m 91.286,49.597 a 19.125,19.125 0 0 1 -19.125,19.125 19.125,19.125 0 0 1 -19.125,-19.125 19.125,19.125 0 0 1 19.125,-19.125 19.125,19.125 0 0 1 19.125,19.125 z m -43.95,0 a 19.125,19.125 0 0 1 -19.125,19.125 19.125,19.125 0 0 1 -19.125,-19.125 19.125,19.125 0 0 1 19.125,-19.125 19.125,19.125 0 0 1 19.125,19.125 z m -43.95,3.43e-4 a 19.125,19.125 0 0 1 -19.125,19.125 19.125,19.125 0 0 1 -19.125,-19.125 19.125,19.125 0 0 1 19.125,-19.125 19.125,19.125 0 0 1 19.125,19.125 z m -43.95,0 a 19.125,19.125 0 0 1 -19.125,19.125 19.125,19.125 0 0 1 -19.125,-19.125 19.125,19.125 0 0 1 19.125,-19.125 19.125,19.125 0 0 1 19.125,19.125 z"
       id="path1-3" /><path
       d="m 206.63,115.75 c 18.28,-0.06 36.56,0.12 54.84,-0.09 5.77,15.69 10.82,31.65 16.27,47.46 0.45,-0.71 1.09,-1.31 1.32,-2.14 5.21,-15.09 10.54,-30.14 15.8,-45.22 18.38,-0.02 36.76,-0.03 55.14,0.01 v 87.66 c -11.25,0.14 -22.51,0.05 -33.76,0.05 -0.02,-20.18 0.1,-40.37 -0.06,-60.56 -1.57,0.88 -1.73,2.87 -2.4,4.36 -6.53,18.75 -13.23,37.44 -19.76,56.19 -10.58,0 -21.17,0.14 -31.74,-0.07 -6.63,-19.17 -13.49,-38.25 -20.18,-57.39 -0.24,-1.07 -0.84,-1.85 -1.78,-2.35 -0.03,19.94 0.01,39.89 -0.01,59.84 -11.23,0 -22.46,0 -33.69,-0.01 0.02,-29.24 -0.01,-58.49 0.01,-87.74 z M 0,115.75 c 11.1,0 22.2,-0.01 33.31,0.01 0.02,10.62 -0.02,21.25 0.01,31.88 11.01,-10.54 21.77,-21.33 32.78,-31.87 11.19,-0.03 22.38,-0.03 33.57,0 -12.9,13.11 -26.15,25.88 -38.95,39.08 16.13,15.64 31.71,31.86 47.98,47.33 0.14,-28.8 0.02,-57.61 0.06,-86.42 11.35,-0.02 22.7,-0.02 34.05,0 0,21.85 -0.02,43.7 0,65.55 18.13,-0.05 36.25,0.06 54.37,-0.06 0.25,7.41 0.04,14.83 0.12,22.24 -44.06,0 -88.13,0.04 -132.19,-0.02 -10.42,-10.55 -20.98,-20.96 -31.45,-31.46 -0.15,10.51 0.02,21.01 -0.09,31.52 C 22.38,203.45 11.19,203.54 0,203.48 Z"
       id="path2-6" /></g><g
     fill="#00a1e4"
     id="g5"
     transform="matrix(-0.73699209,0,0,0.73699209,587.75668,211.69292)"><path
       d="m 109.16,96.38 c -0.28,-7.64 -0.15,-15.3 -0.07,-22.94 43.97,0.13 87.94,0.03 131.91,0.05 0.01,7.61 0.01,15.21 0,22.81 -43.95,0.05 -87.9,-0.1 -131.84,0.08 z M 168.762,0 h 10.98 c 0.09,3.73 0.08,7.45 0.06,11.18 3.67,-0.01 7.35,0.01 11.02,-0.02 0.03,3.66 0.03,7.32 -0.08,10.98 -3.64,0 -7.29,0.02 -10.93,0 0,3.6 -0.01,7.21 0.02,10.82 -3.62,0.23 -7.24,0.18 -10.86,0.15 -0.02,-3.66 -0.02,-7.33 -0.04,-11 -3.68,0.05 -7.35,0.03 -11.02,0.04 -0.06,-3.65 -0.05,-7.31 -0.06,-10.96 3.7,-0.01 7.4,-0.02 11.09,0 -0.08,-3.73 0.25,-7.48 -0.18,-11.19 z m 91.286,49.597 a 19.125,19.125 0 0 1 -19.125,19.125 19.125,19.125 0 0 1 -19.125,-19.125 19.125,19.125 0 0 1 19.125,-19.125 19.125,19.125 0 0 1 19.125,19.125 z m -43.95,0 a 19.125,19.125 0 0 1 -19.125,19.125 19.125,19.125 0 0 1 -19.125,-19.125 19.125,19.125 0 0 1 19.125,-19.125 19.125,19.125 0 0 1 19.125,19.125 z m -43.95,3.43e-4 a 19.125,19.125 0 0 1 -19.125,19.125 19.125,19.125 0 0 1 -19.125,-19.125 19.125,19.125 0 0 1 19.125,-19.125 19.125,19.125 0 0 1 19.125,19.125 z m -43.95,0 a 19.125,19.125 0 0 1 -19.125,19.125 19.125,19.125 0 0 1 -19.125,-19.125 19.125,19.125 0 0 1 19.125,-19.125 19.125,19.125 0 0 1 19.125,19.125 z"
       id="path4" /><path
       d="m 206.63,115.75 c 18.28,-0.06 36.56,0.12 54.84,-0.09 5.77,15.69 10.82,31.65 16.27,47.46 0.45,-0.71 1.09,-1.31 1.32,-2.14 5.21,-15.09 10.54,-30.14 15.8,-45.22 18.38,-0.02 36.76,-0.03 55.14,0.01 v 87.66 c -11.25,0.14 -22.51,0.05 -33.76,0.05 -0.02,-20.18 0.1,-40.37 -0.06,-60.56 -1.57,0.88 -1.73,2.87 -2.4,4.36 -6.53,18.75 -13.23,37.44 -19.76,56.19 -10.58,0 -21.17,0.14 -31.74,-0.07 -6.63,-19.17 -13.49,-38.25 -20.18,-57.39 -0.24,-1.07 -0.84,-1.85 -1.78,-2.35 -0.03,19.94 0.01,39.89 -0.01,59.84 -11.23,0 -22.46,0 -33.69,-0.01 0.02,-29.24 -0.01,-58.49 0.01,-87.74 z M 0,115.75 c 11.1,0 22.2,-0.01 33.31,0.01 0.02,10.62 -0.02,21.25 0.01,31.88 11.01,-10.54 21.77,-21.33 32.78,-31.87 11.19,-0.03 22.38,-0.03 33.57,0 -12.9,13.11 -26.15,25.88 -38.95,39.08 16.13,15.64 31.71,31.86 47.98,47.33 0.14,-28.8 0.02,-57.61 0.06,-86.42 11.35,-0.02 22.7,-0.02 34.05,0 0,21.85 -0.02,43.7 0,65.55 18.13,-0.05 36.25,0.06 54.37,-0.06 0.25,7.41 0.04,14.83 0.12,22.24 -44.06,0 -88.13,0.04 -132.19,-0.02 -10.42,-10.55 -20.98,-20.96 -31.45,-31.46 -0.15,10.51 0.02,21.01 -0.09,31.52 C 22.38,203.45 11.19,203.54 0,203.48 Z"
       id="path5" /></g></svg>
