<?xml version="1.0" standalone="no"?>
<!DOCTYPE svg PUBLIC "-//W3C//DTD SVG 1.1//EN" 
  "http://www.w3.org/Graphics/SVG/1.1/DTD/svg11.dtd">
<svg width="1024" height="1024" viewBox="0 0 1024 1024"
     xmlns="http://www.w3.org/2000/svg" version="1.1">
<desc>Boeing_747SP.blend, (Blender 3.3.9)</desc>
<polygon stroke="black" stroke-width="1" fill="rgb(204, 204, 204)" fill-opacity="1" points="18.530,803.731 271.178,1024.000 260.101,997.297 36.422,802.213 " />
<polygon stroke="black" stroke-width="1" fill="rgb(204, 204, 204)" fill-opacity="1" points="588.729,471.206 595.722,1016.247 607.884,991.590 597.913,475.886 " />
<polygon stroke="black" stroke-width="1" fill="rgb(204, 204, 204)" fill-opacity="1" points="254.011,126.728 207.537,75.286 200.739,115.361 242.369,151.635 " />
<polygon stroke="black" stroke-width="1" fill="rgb(204, 204, 204)" fill-opacity="1" points="539.688,348.075 396.464,476.208 425.766,700.488 454.055,909.274 496.306,873.799 " />
<polygon stroke="black" stroke-width="1" fill="rgb(204, 204, 204)" fill-opacity="1" points="263.583,692.368 129.335,575.391 36.422,802.213 260.101,997.297 " />
<polygon stroke="black" stroke-width="1" fill="rgb(204, 204, 204)" fill-opacity="1" points="507.671,899.344 457.237,955.766 452.813,969.815 525.451,908.826 " />
<polygon stroke="black" stroke-width="1" fill="rgb(204, 204, 204)" fill-opacity="1" points="547.710,675.375 565.754,122.917 547.628,114.113 542.279,672.505 " />
<polygon stroke="black" stroke-width="1" fill="rgb(204, 204, 204)" fill-opacity="1" points="629.689,836.947 631.978,1020.531 651.173,1024.000 651.173,816.985 " />
<polygon stroke="black" stroke-width="1" fill="rgb(204, 204, 204)" fill-opacity="1" points="607.884,510.704 608.164,530.883 616.625,530.916 616.625,509.292 " />
<polygon stroke="black" stroke-width="1" fill="rgb(204, 204, 204)" fill-opacity="1" points="242.369,151.635 200.739,115.361 167.306,325.619 133.536,546.165 263.149,667.016 " />
<polygon stroke="black" stroke-width="1" fill="rgb(204, 204, 204)" fill-opacity="1" points="542.042,321.472 392.845,446.742 396.464,476.208 539.688,348.075 " />
<polygon stroke="black" stroke-width="1" fill="rgb(204, 204, 204)" fill-opacity="1" points="588.794,444.050 588.729,471.206 597.913,475.886 598.010,450.530 " />
<polygon stroke="black" stroke-width="1" fill="rgb(204, 204, 204)" fill-opacity="1" points="597.370,118.813 588.794,444.050 598.010,450.530 607.884,145.742 " />
<polygon stroke="black" stroke-width="1" fill="rgb(204, 204, 204)" fill-opacity="1" points="528.412,24.330 300.833,214.548 392.845,446.742 542.042,321.472 " />
<polygon stroke="black" stroke-width="1" fill="rgb(204, 204, 204)" fill-opacity="1" points="565.375,1022.918 546.706,703.426 542.042,703.621 546.527,1024.000 " />
<polygon stroke="black" stroke-width="1" fill="rgb(204, 204, 204)" fill-opacity="1" points="385.609,486.696 381.874,459.981 365.456,477.668 369.978,503.770 " />
<polygon stroke="black" stroke-width="1" fill="rgb(204, 204, 204)" fill-opacity="1" points="263.149,667.016 133.536,546.165 129.335,575.391 263.583,692.368 " />
<polygon stroke="black" stroke-width="1" fill="rgb(204, 204, 204)" fill-opacity="1" points="121.756,536.586 117.441,563.165 129.335,575.391 133.536,546.165 " />
<polygon stroke="black" stroke-width="1" fill="rgb(204, 204, 204)" fill-opacity="1" points="103.977,521.818 98.792,547.877 117.441,563.165 121.756,536.586 " />
<polygon stroke="black" stroke-width="1" fill="rgb(204, 204, 204)" fill-opacity="1" points="583.183,113.080 578.076,433.328 588.794,444.050 597.370,118.813 " />
<polygon stroke="black" stroke-width="1" fill="rgb(204, 204, 204)" fill-opacity="1" points="578.076,433.328 578.084,464.489 588.729,471.206 588.794,444.050 " />
<polygon stroke="black" stroke-width="1" fill="rgb(204, 204, 204)" fill-opacity="1" points="135.176,0.833 188.597,57.408 207.537,75.286 " />
<polygon stroke="black" stroke-width="1" fill="rgb(204, 204, 204)" fill-opacity="1" points="271.178,118.614 199.608,56.251 207.537,75.286 254.011,126.728 " />
<polygon stroke="black" stroke-width="1" fill="rgb(204, 204, 204)" fill-opacity="1" points="578.084,464.489 578.389,1024.000 595.722,1016.247 588.729,471.206 " />
<polygon stroke="black" stroke-width="1" fill="rgb(204, 204, 204)" fill-opacity="1" points="644.953,816.985 644.953,609.969 631.978,610.377 629.689,793.206 " />
<polygon stroke="black" stroke-width="1" fill="rgb(204, 204, 204)" fill-opacity="1" points="396.464,476.208 392.845,446.742 381.874,459.981 385.609,486.696 " />
<polygon stroke="black" stroke-width="1" fill="rgb(204, 204, 204)" fill-opacity="1" points="578.076,998.091 553.233,701.675 546.706,703.426 565.375,1022.918 " />
<polygon stroke="black" stroke-width="1" fill="rgb(204, 204, 204)" fill-opacity="1" points="553.233,701.675 554.581,675.002 547.710,675.375 546.706,703.426 " />
<polygon stroke="black" stroke-width="1" fill="rgb(204, 204, 204)" fill-opacity="1" points="300.833,214.548 528.412,24.330 542.042,0.000 285.236,215.024 " />
<polygon stroke="black" stroke-width="1" fill="rgb(204, 204, 204)" fill-opacity="1" points="554.581,675.002 578.076,148.015 565.754,122.917 547.710,675.375 " />
<polygon stroke="black" stroke-width="1" fill="rgb(204, 204, 204)" fill-opacity="1" points="496.306,873.799 454.055,909.274 457.237,955.766 507.671,899.344 " />
<polygon stroke="black" stroke-width="1" fill="rgb(204, 204, 204)" fill-opacity="1" points="441.811,968.433 387.445,1024.000 457.237,955.766 " />
<polygon stroke="black" stroke-width="1" fill="rgb(204, 204, 204)" fill-opacity="1" points="199.608,56.251 135.176,0.833 207.537,75.286 " />
<polygon stroke="black" stroke-width="1" fill="rgb(204, 204, 204)" fill-opacity="1" points="457.237,955.766 387.445,1024.000 452.813,969.815 " />
<polygon stroke="black" stroke-width="1" fill="rgb(204, 204, 204)" fill-opacity="1" points="18.530,803.731 36.422,802.213 129.335,575.391 128.469,577.005 0.000,780.678 " />
<polygon stroke="black" stroke-width="1" fill="rgb(204, 204, 204)" fill-opacity="1" points="622.824,415.508 618.805,426.288 630.670,426.737 630.670,402.071 " />
<polygon stroke="black" stroke-width="1" fill="rgb(204, 204, 204)" fill-opacity="1" points="271.178,242.904 395.630,449.106 392.845,446.742 300.833,214.548 285.236,215.024 " />
<polygon stroke="black" stroke-width="1" fill="rgb(204, 204, 204)" fill-opacity="1" points="622.247,505.794 629.849,529.217 629.849,490.558 618.805,490.512 " />
<polygon stroke="black" stroke-width="1" fill="rgb(204, 204, 204)" fill-opacity="1" points="618.805,1024.000 616.268,1011.425 614.476,1009.200 " />
<polygon stroke="black" stroke-width="1" fill="rgb(204, 204, 204)" fill-opacity="1" points="630.670,451.852 630.670,427.187 618.805,426.737 622.123,437.794 " />
<polygon stroke="black" stroke-width="1" fill="rgb(204, 204, 204)" fill-opacity="1" points="629.849,490.512 629.849,451.852 622.063,475.196 618.805,490.467 " />
<polygon stroke="black" stroke-width="1" fill="rgb(204, 204, 204)" fill-opacity="1" points="618.805,531.036 626.875,1011.484 628.716,1013.669 627.786,967.032 627.718,755.808 629.689,529.217 " />
<polygon stroke="black" stroke-width="1" fill="rgb(204, 204, 204)" fill-opacity="1" points="616.268,1011.425 618.805,530.916 607.884,532.493 610.810,755.632 613.893,968.553 614.476,1009.200 " />
<polygon stroke="black" stroke-width="1" fill="rgb(204, 204, 204)" fill-opacity="1" points="626.875,1011.484 629.689,1024.000 628.716,1013.669 " />

</svg>
