<?xml version="1.0" encoding="UTF-8" standalone="no"?>
<svg
   width="1024"
   height="1024"
   viewBox="0 0 1024 1024"
   version="1.1"
   id="svg40"
   sodipodi:docname="Vertical_stabilizer.svg"
   inkscape:version="1.3.2 (091e20ef0f, 2023-11-25, custom)"
   xml:space="preserve"
   xmlns:inkscape="http://www.inkscape.org/namespaces/inkscape"
   xmlns:sodipodi="http://sodipodi.sourceforge.net/DTD/sodipodi-0.dtd"
   xmlns:xlink="http://www.w3.org/1999/xlink"
   xmlns="http://www.w3.org/2000/svg"
   xmlns:svg="http://www.w3.org/2000/svg"><defs
     id="defs40"><linearGradient
       id="linearGradient159"
       inkscape:collect="always"><stop
         style="stop-color:#390404;stop-opacity:1;"
         offset="0"
         id="stop158" /><stop
         style="stop-color:#df0a0a;stop-opacity:1;"
         offset="1"
         id="stop159" /></linearGradient><linearGradient
       inkscape:collect="always"
       xlink:href="#linearGradient159"
       id="linearGradient3"
       x1="296.13297"
       y1="761.49139"
       x2="446.37857"
       y2="678.33435"
       gradientUnits="userSpaceOnUse" /><linearGradient
       inkscape:collect="always"
       xlink:href="#linearGradient159"
       id="linearGradient4"
       gradientUnits="userSpaceOnUse"
       x1="275.00833"
       y1="736.54346"
       x2="427.60419"
       y2="662.21198"
       gradientTransform="translate(38.400395,-468.47851)" /><style
       id="style1">.cls-2{fill:#0033a1;}</style></defs><sodipodi:namedview
     id="namedview40"
     pagecolor="#505050"
     bordercolor="#ffffff"
     borderopacity="1"
     inkscape:showpageshadow="0"
     inkscape:pageopacity="0"
     inkscape:pagecheckerboard="1"
     inkscape:deskcolor="#d1d1d1"
     inkscape:zoom="0.17021662"
     inkscape:cx="1310.0953"
     inkscape:cy="91.060437"
     inkscape:window-width="1366"
     inkscape:window-height="724"
     inkscape:window-x="-1"
     inkscape:window-y="-1"
     inkscape:window-maximized="1"
     inkscape:current-layer="svg40" /><desc
     id="desc1">Boeing_747SP.blend, (Blender 3.3.9)</desc><rect
     style="fill:#ffffff;fill-opacity:1;stroke-width:15;stroke-linecap:square"
     id="rect1"
     width="1024"
     height="1024"
     x="0"
     y="0"
     rx="2.3779886"
     ry="2.3779886" /><path
     id="polygon1"
     d="m 139.64648,505.07227 34.91016,90.39648 18.95117,-2.29687 42.71289,-5.17579 211.88086,354.02735 8.2168,15.04101 -43.29102,48.06255 69.41602,-0.2461 125.81445,-0.4454 251.62891,-0.8906 29.58594,-0.4179 -59.19532,-61.10356 -532.76953,-421.58008 -78.93164,-7.68359 z"
     style="fill:#ffffff;fill-opacity:1"
     sodipodi:nodetypes="ccccccccccccccc" /><path
     d="m 178.04688,36.59375 34.91015,90.39453 18.94922,-2.29687 42.71289,-5.17383 211.88281,354.02734 8.2168,15.04102 -43.00781,47.74609 -1.07422,0.004 -40.96875,0.14453 -40.96875,0.14648 13.16406,0.10938 13.16602,0.11133 56.71875,-0.20118 69.0957,-0.24609 125.8125,-0.44531 251.62891,-0.89063 29.58789,-0.41797 L 868.67773,473.54492 335.9082,51.964844 256.97656,44.279297 Z m 416.51757,436.95117 51.83203,62.09766 z"
     style="fill:#ffffff;fill-opacity:1"
     id="path1" /><path
     style="fill:url(#linearGradient3);fill-opacity:1;stroke:none;stroke-width:1px;stroke-linecap:butt;stroke-linejoin:miter;stroke-opacity:1"
     d="m 889.47266,1003.127 -566.44532,2 -148.4707,-409.65825 -34.91016,-90.39648 157.86133,15.37109 532.76953,421.58008 z"
     id="path2"
     sodipodi:nodetypes="ccccccc" /><path
     style="fill:url(#linearGradient4);fill-opacity:1;stroke:none;stroke-width:1px;stroke-linecap:butt;stroke-linejoin:miter;stroke-opacity:1"
     d="M 927.87305,534.64657 368.69922,536.62704 212.95703,126.99024 178.04687,36.59376 335.9082,51.964844 868.67773,473.54492 Z"
     id="path3"
     sodipodi:nodetypes="ccccccc" /><path
     style="fill:#ffffff;stroke:none;stroke-width:0.967993"
     d="m 637.76475,472.71755 v 0.96786 c 9.53788,16.30629 7.93481,43.40141 10.52139,61.95139 0.96186,6.89747 0.86738,18.60106 6.31546,23.64551 4.33062,4.00966 11.83562,3.69369 15.02006,-1.43488 4.91297,-7.90951 5.22044,-20.91071 6.78476,-29.95457 5.45353,-31.53027 9.58126,-63.31872 15.11686,-94.86306 1.86329,-10.62062 0.57308,-28.00878 7.22541,-36.78364 l -0.96803,-1.93575 3.87062,-1.93607 c 1.1384,5.73571 4.72399,10.90809 6.68949,16.45592 3.0683,8.66008 4.90988,18.19065 9.83835,26.11778 3.1798,5.11385 10.25113,7.78778 15.27251,3.47004 7.0535,-6.06435 0.13163,-18.81589 -2.2807,-25.71602 -7.07208,-20.25199 -13.70042,-40.62942 -20.48438,-60.98333 -2.62379,-7.87078 -4.70934,-18.6875 -14.84195,-19.25377 -14.79312,-0.82676 -14.33312,21.74153 -15.899,31.83772 -3.629,23.38514 -10.44474,46.31372 -13.52543,69.69531 -1.52252,11.56169 -1.61236,23.3057 -4.45606,34.84757 -3.50662,-7.2463 -3.28665,-16.31248 -4.6001,-24.19968 -3.0133,-18.07679 -5.43495,-36.30026 -9.36284,-54.20745 -11.63349,-53.04532 -27.36832,-103.93495 -46.00032,-154.87847 -5.85158,-15.99932 -10.45789,-38.32072 -23.29868,-50.23386 -8.73477,-8.10406 -25.15655,-7.21472 -29.21456,5.70641 -4.89128,15.57633 8.65269,24.21427 16.74393,34.84757 7.90693,10.39156 12.69675,22.077 17.99774,33.87955 12.28863,27.362 19.46758,56.44118 26.84711,85.18319 2.10026,8.18072 7.05892,15.98181 9.53401,24.19969 4.37163,14.51351 6.53386,29.71702 9.04609,44.51334 2.27296,13.37989 3.94496,26.52531 5.5844,39.70183 0.87046,7.00126 5.49147,12.07453 2.52386,19.35986 M 399.63953,263.02061 c -16.06941,-2.01043 -4.45144,20.42082 5.80821,21.6506 6.96521,0.83498 10.16126,-5.34958 7.7342,-11.35957 -2.16065,-5.35005 -7.82097,-9.575 -13.54241,-10.29103 m 49.36672,258.09649 v 18.39167 0.96804 2.90392 l -4.0425,26.10121 -2.73296,25.20227 c 2.83285,2.71127 4.88974,6.51233 8.71541,7.99333 10.95196,4.24028 19.39323,-4.36482 20.23349,-14.76922 3.25648,-40.31348 -1.84545,-82.4069 -1.84545,-122.93487 22.4499,11.99802 42.25902,32.02094 61.95119,48.02318 13.90101,11.29575 27.24055,23.21061 39.60121,36.17774 11.79534,12.37331 24.7856,31.7333 39.86139,40.1163 9.99789,5.56007 22.99589,-3.54254 18.44302,-14.93418 -4.95245,-12.39095 -19.91985,-21.97275 -29.17892,-30.99 -29.04958,-28.29223 -62.14093,-53.41952 -94.86132,-77.27863 -12.71613,-9.27189 -39.1319,-20.87386 -34.84853,-38.86576 9.66486,8.20952 33.98424,16.38512 40.51269,-7.8e-4 2.7446,-6.88712 2.07934,-15.01765 2.07934,-22.26318 -9.5e-4,-22.39853 -3.17207,-52.57974 -25.16816,-64.67609 -4.45685,-2.45074 -14.72265,-5.7035 -14.66766,2.72937 0.0775,7.69112 7.39268,12.87157 10.48574,19.3552 4.96877,10.41354 5.43807,19.80966 6.80877,30.97578 0.69701,5.67714 1.75332,20.49128 -7.46779,19.8025 -10.13419,-0.75662 -12.79821,-12.936 -13.95832,-20.77053 -2.13511,-14.41438 -3.34707,-29.04977 -4.34609,-43.55954 -0.40271,-5.83004 0.52659,-14.25749 -3.62202,-18.98194 -4.8332,-5.50571 -17.17913,-6.38219 -18.58473,2.52974 -2.6741,16.94921 2.42551,36.27561 3.64212,53.23567 0.92082,12.83082 -0.77443,27.17287 2.02203,39.68774 L 413.19123,403.74076 361.88769,374.53671 330.9113,357.52663 c 9.77949,-15.2853 3.87986,-32.94932 3.87214,-50.33547 0,-5.19267 -0.56536,-15.3322 7.74428,-13.14415 5.37683,1.41611 11.11072,8.73908 13.7763,13.39508 1.49001,2.60392 0.70474,7.97131 3.64834,8.46105 l 0.96726,4.84 -0.96726,13.55181 c 7.00159,8.82938 -2.24818,22.06755 6.28604,31.62535 3.69868,4.14131 14.89847,9.55068 18.16191,2.12503 2.07778,-4.72523 0.72794,-12.21902 0.72021,-17.2946 0,-14.45761 -0.34849,-30.18834 -2.21721,-44.52744 -0.81158,-6.23351 -2.78483,-12.67363 -8.46991,-16.10107 -7.30751,-4.40571 -15.31122,-0.42749 -22.22532,-3.71522 -6.77468,-3.2213 -10.75605,-10.55403 -17.42389,-14.14473 -10.53222,-5.6725 -20.5998,-1.55303 -21.75215,10.72919 -1.22979,13.11132 0.70475,26.58926 0.53436,39.76006 -0.0775,5.88162 1.18024,12.22182 -2.68882,17.28409 -6.87383,8.99091 -27.62388,-9.57283 -37.07502,-9.58428 -7.75667,-0.0152 -15.05024,5.01162 -11.2114,13.52347 7.91235,17.54446 39.5021,21.66903 55.73951,28.9051 33.65128,14.99768 68.34801,34.60193 98.73426,55.42591 8.75026,5.99639 24.95907,12.50341 29.99596,22.23515 5.0299,9.7184 1.71845,27.81455 2.02588,38.54575 0.23235,8.2097 3.29056,24.92396 -0.0775,32.03038 M 402.54508,359.46268 c 4.86108,6.41567 -0.27106,16.06686 4.11221,23.05311 3.24022,5.16743 18.72569,14.85811 20.83445,4.00796 1.42651,-7.33769 -0.8178,-15.85465 -1.55117,-23.1891 -1.40016,-14.00685 -1.52483,-28.81587 -4.53583,-42.5915 -1.36688,-6.25486 -9.17,-18.94121 -17.39756,-14.12568 -4.47075,2.61665 -2.83672,10.0584 -2.38136,14.12568 1.38005,12.33551 2.45108,26.39627 0.91926,38.71953 m 179.0797,-21.86712 c -6.05836,-1.06452 -8.67208,5.11678 -7.24788,10.25046 1.64487,5.93333 9.68886,13.2936 15.95556,13.82069 6.40918,0.539 7.48406,-6.14864 5.88874,-10.91597 -2.0321,-6.06934 -8.15009,-12.02235 -14.59642,-13.15518 m -53.23968,25.0937 c -6.48351,-1.01978 -10.84974,5.50257 -8.9338,11.5688 2.82821,8.95221 14.71415,12.39671 18.83719,21.02025 7.299,15.2653 2.97072,32.4148 5.90116,48.39954 1.41026,7.69019 8.26239,14.17059 16.13678,14.9783 5.09263,0.52276 7.26414,-3.7417 7.65369,-8.20241 0.86346,-9.87949 -0.46466,-20.14186 -0.91461,-30.00773 -0.54211,-11.92088 1.01372,-34.62947 -6.40143,-44.43634 -5.08802,-6.7313 -24.03595,-12.02358 -32.27899,-13.32043 m 54.20615,34.52497 c 2.50994,5.54672 1.25847,13.2693 2.2838,19.35984 2.98388,17.71638 8.00684,40.2382 5.46051,58.07941 5.05547,2.58006 12.847,11.39564 19.08965,7.56689 5.33661,-3.27334 3.44699,-15.90932 2.7624,-21.11873 -2.47585,-18.8605 2.24817,-44.94745 -7.13946,-61.94765 -6.44944,-11.68002 -16.33195,-12.57511 -22.4569,-1.93976"
     id="path159"
     sodipodi:nodetypes="ccssssscccsssssssscsssssssssssccsscccccccsscsssssscssssssssssssccccssscccssssssssssssssssccssssssccsssccsssssssccscsssc" /><path
     style="fill:#ffffff;stroke:none;stroke-width:0.866099"
     d="m 361.85,944.54618 v 0.86598 c -8.53387,14.58985 -7.09955,38.83286 -9.41383,55.43024 -0.86064,6.1714 -0.7761,16.643 -5.65072,21.1565 -3.87472,3.5876 -10.58975,3.305 -13.43898,-1.284 -4.39583,-7.0768 -4.67092,-18.7094 -6.07059,-26.80132 -4.87948,-28.2113 -8.57269,-56.65361 -13.52562,-84.87751 -1.66713,-9.50265 -0.51274,-25.06045 -6.46485,-32.91165 l 0.86615,-1.732 -3.46317,-1.73226 c -1.01856,5.13193 -4.22675,9.75987 -5.98534,14.7237 -2.74533,7.74852 -4.39306,16.27585 -8.80272,23.36853 -2.8451,4.57555 -9.17208,6.96805 -13.66491,3.1048 -6.31101,-5.42601 -0.11765,-16.83526 2.04065,-23.00909 6.32764,-18.12019 12.25826,-36.35265 18.32813,-54.56405 2.34761,-7.04227 4.21359,-16.72039 13.27964,-17.22703 13.23594,-0.73976 12.82434,19.45295 14.22543,28.48637 3.24699,20.92355 9.34526,41.4386 12.10167,62.35897 1.36226,10.34467 1.44265,20.85248 3.98701,31.17938 3.13751,-6.48353 2.94069,-14.59537 4.11587,-21.65234 2.69614,-16.17397 4.86285,-32.47919 8.37729,-48.5014 10.4089,-47.46161 24.48744,-92.99445 41.15816,-138.57549 5.23565,-14.31518 9.35709,-34.28695 20.8462,-44.94608 7.81533,-7.251 22.50851,-6.45528 26.13936,5.10576 4.3764,13.9367 -7.74191,21.66539 -14.98141,31.17938 -7.07463,9.29772 -11.36025,19.75313 -16.10325,30.31329 -10.99509,24.48179 -17.41837,50.50002 -24.02109,76.21655 -1.87918,7.31958 -6.31588,14.29951 -8.53043,21.65235 -3.91145,12.98576 -5.84607,26.58893 -8.09387,39.82773 -2.0337,11.9715 -3.5297,23.73318 -4.99656,35.52269 -0.77884,6.26427 -4.91345,10.80352 -2.25822,17.32198 M 574.90945,756.92258 c 14.37787,-1.79878 3.98287,18.27126 -5.19682,19.37159 -6.23203,0.74707 -9.09167,-4.78645 -6.92009,-10.16381 1.93323,-4.7869 6.99771,-8.56712 12.11691,-9.20778 M 530.73921,987.8511 v 16.4556 0.8662 2.5982 l 3.61699,23.3538 2.44528,22.5493 c -2.53466,2.4259 -4.37503,5.8268 -7.79801,7.1519 -9.79911,3.7942 -17.35185,-3.9051 -18.10366,-13.2146 -2.91367,-36.0698 1.65121,-73.73235 1.65121,-109.99426 -20.08678,10.73506 -37.81072,28.65033 -55.43002,42.96815 -12.43773,10.10669 -24.37314,20.76741 -35.43267,32.36951 -10.55371,11.0708 -22.17658,28.3928 -35.66543,35.8933 -8.9455,4.9751 -20.57527,-3.1696 -16.50169,-13.362 4.43118,-11.0866 17.82304,-19.6597 26.10745,-27.7278 25.99176,-25.31406 55.59981,-47.79645 84.87595,-69.14406 11.3776,-8.29589 35.01274,-18.6766 31.18026,-34.77464 -8.64751,7.34536 -30.40697,14.66036 -36.2482,-7e-4 -2.4557,-6.16215 -1.86047,-13.43683 -1.86047,-19.91965 8.5e-4,-20.04081 2.83817,-47.04507 22.51888,-57.86811 3.98771,-2.19279 13.1729,-5.10314 13.1237,2.44205 -0.0693,6.88155 -6.61449,11.51668 -9.38198,17.31784 -4.44575,9.31737 -4.86565,17.72441 -6.09204,27.71516 -0.62366,5.07955 -1.56876,18.33431 6.68169,17.71802 9.06745,-0.67694 11.45103,-11.57428 12.48904,-18.58415 1.91035,-12.89709 2.99473,-25.99189 3.88859,-38.97434 0.36031,-5.21635 -0.47116,-12.75669 3.24076,-16.98383 4.32446,-4.92616 15.37082,-5.71039 16.62846,2.26344 2.39261,15.16509 -2.17019,32.45712 -3.25875,47.63194 -0.82388,11.48019 0.69289,24.31255 -1.80919,35.51009 l 31.17886,-19.27738 45.9032,-26.12993 27.7157,-15.21958 c -8.75007,-13.6763 -3.47147,-29.48093 -3.46454,-45.03697 0,-4.64608 0.50585,-13.71828 -6.92909,-11.76056 -4.81086,1.26703 -9.94117,7.81916 -12.32616,11.98506 -1.33317,2.32983 -0.63056,7.13222 -3.26433,7.57042 l -0.86542,4.33055 0.86542,12.1253 c -6.26457,7.89995 2.01154,19.74465 -5.62433,28.29633 -3.30935,3.70541 -13.33021,8.54537 -16.25013,1.90137 -1.85907,-4.22784 -0.65133,-10.93283 -0.64442,-15.47413 0,-12.93572 0.31183,-27.01061 1.98383,-39.84034 0.72614,-5.57735 2.49169,-11.33956 7.57833,-14.40622 6.53832,-3.94195 13.69951,-0.3825 19.88581,-3.32415 6.06158,-2.88222 9.62386,-9.44305 15.58983,-12.6558 9.42356,-5.07541 18.4314,-1.38955 19.46245,9.59983 1.10033,11.73118 -0.63058,23.79036 -0.47812,35.57476 0.0693,5.26252 -1.05601,10.93534 2.40578,15.46473 6.15026,8.04451 24.71611,-8.56516 33.17238,-8.57542 6.94019,-0.0143 13.46602,4.48407 10.03125,12.09997 -7.07947,15.69765 -35.34397,19.38805 -49.87218,25.86245 -30.10905,13.41896 -61.15348,30.95962 -88.34121,49.5916 -7.82918,5.36519 -22.33179,11.18727 -26.83847,19.8946 -4.50043,8.69542 -1.53756,24.88673 -1.81265,34.48833 -0.20786,7.34551 -2.94415,22.30034 0.0693,28.65882 m 41.57321,-144.63823 c -4.3494,5.74033 0.24252,14.3756 -3.67935,20.62646 -2.89914,4.62349 -16.75458,13.2941 -18.64135,3.58607 -1.27635,-6.56531 0.7317,-14.18574 1.38789,-20.74812 1.25277,-12.53247 1.36431,-25.78265 4.05836,-38.1082 1.22301,-5.59647 8.20475,-16.94741 15.56625,-12.63878 4.00015,2.34121 2.53812,8.9996 2.13068,12.63878 -1.23477,11.03703 -2.19306,23.61771 -0.82248,34.64379 M 412.08053,823.64756 c 5.42062,-0.95249 7.75922,4.57815 6.48496,9.17144 -1.47175,5.30878 -8.66898,11.89429 -14.27606,12.36589 -5.73452,0.48227 -6.69626,-5.5014 -5.26884,-9.76693 1.81818,-5.43043 7.29217,-10.75684 13.05994,-11.7704 m 47.63552,22.45225 c 5.80101,-0.91244 9.70766,4.92336 7.9934,10.35102 -2.53053,8.00987 -13.16531,11.09179 -16.85433,18.80761 -6.5307,13.65841 -2.65804,29.0027 -5.28,43.30486 -1.26182,6.88066 -7.39265,12.67894 -14.43818,13.40163 -4.55656,0.46772 -6.49949,-3.34783 -6.84803,-7.33901 -0.7726,-8.83955 0.41574,-18.02167 0.81835,-26.84901 0.48503,-10.66607 -0.90704,-30.98428 5.72755,-39.75885 4.55245,-6.02274 21.50587,-10.75794 28.88124,-11.91826 m -48.50027,30.89074 c -2.24574,4.96286 -1.12598,11.87254 -2.0434,17.32197 -2.66975,15.8515 -7.16401,36.0026 -4.8857,51.96579 -4.52333,2.30848 -11.49469,10.1961 -17.08022,6.77038 -4.77487,-2.92877 -3.08414,-14.23464 -2.47162,-18.8957 2.21524,-16.8752 -2.01153,-40.21615 6.38792,-55.42686 5.77056,-10.45054 14.61283,-11.25141 20.09302,-1.73558"
     id="path160"
     sodipodi:nodetypes="ccssssscccsssssssscsssssssssssccsscccccccsscsssssscssssssssssssccccssscccssssssssssssssssccssssssccsssccsssssssccscsssc" /></svg>
