<?xml version="1.0" encoding="UTF-8" standalone="no"?>
<svg
   width="1024"
   height="1024"
   viewBox="0 0 1024 1024"
   version="1.1"
   id="svg40"
   sodipodi:docname="Vertical_stabilizer.svg"
   inkscape:version="1.3.2 (091e20ef0f, 2023-11-25, custom)"
   xml:space="preserve"
   xmlns:inkscape="http://www.inkscape.org/namespaces/inkscape"
   xmlns:sodipodi="http://sodipodi.sourceforge.net/DTD/sodipodi-0.dtd"
   xmlns="http://www.w3.org/2000/svg"
   xmlns:svg="http://www.w3.org/2000/svg"><defs
     id="defs40"><inkscape:perspective
       sodipodi:type="inkscape:persp3d"
       inkscape:vp_x="177.27994 : 277.84749 : 1"
       inkscape:vp_y="4.4979686e-14 : 553.03945 : 0"
       inkscape:vp_z="591.41192 : 294.58928 : 1"
       inkscape:persp3d-origin="318.10666 : 197.58964 : 1"
       id="perspective2464" /></defs><sodipodi:namedview
     id="namedview40"
     pagecolor="#505050"
     bordercolor="#ffffff"
     borderopacity="1"
     inkscape:showpageshadow="0"
     inkscape:pageopacity="0"
     inkscape:pagecheckerboard="1"
     inkscape:deskcolor="#d1d1d1"
     inkscape:zoom="0.17021663"
     inkscape:cx="558.11235"
     inkscape:cy="290.80591"
     inkscape:window-width="1366"
     inkscape:window-height="724"
     inkscape:window-x="-1"
     inkscape:window-y="-1"
     inkscape:window-maximized="1"
     inkscape:current-layer="svg40" /><desc
     id="desc1">Boeing_747SP.blend, (Blender 3.3.9)</desc><rect
     style="fill:#ffffff;fill-opacity:1;stroke-width:15;stroke-linecap:square"
     id="rect1"
     width="1024"
     height="1024"
     x="0"
     y="0"
     rx="2.3779886"
     ry="2.3779886" /><path
     id="polygon1"
     d="m 139.64648,505.07227 34.91016,90.39648 18.95117,-2.29687 42.71289,-5.17579 211.88086,354.02735 8.2168,15.04101 -43.29102,48.06255 69.41602,-0.2461 125.81445,-0.4454 251.62891,-0.8906 29.58594,-0.4179 -59.19532,-61.10356 -532.76953,-421.58008 -78.93164,-7.68359 z"
     style="fill:#ffffff;fill-opacity:1"
     sodipodi:nodetypes="ccccccccccccccc" /><path
     d="m 178.04688,36.59375 34.91015,90.39453 18.94922,-2.29687 42.71289,-5.17383 211.88281,354.02734 8.2168,15.04102 -43.00781,47.74609 -1.07422,0.004 -40.96875,0.14453 -40.96875,0.14648 13.16406,0.10938 13.16602,0.11133 56.71875,-0.20118 69.0957,-0.24609 125.8125,-0.44531 251.62891,-0.89063 29.58789,-0.41797 L 868.67773,473.54492 335.9082,51.964844 256.97656,44.279297 Z m 416.51757,436.95117 51.83203,62.09766 z"
     style="fill:#ffffff;fill-opacity:1"
     id="path1" /><path
     style="fill:#ffffff;stroke:none;stroke-width:1px;stroke-linecap:butt;stroke-linejoin:miter;stroke-opacity:1"
     d="M 178.04688,36.59375 335.9082,51.964844 868.67773,473.54492 927.87305,534.64657 388.44629,536.79209 212.95703,126.98828 Z"
     id="path2" /><path
     style="fill:#ffffff;stroke:none;stroke-width:1px;stroke-linecap:butt;stroke-linejoin:miter;stroke-opacity:1"
     d="m 139.64648,505.00047 157.86133,15.37109 532.76952,421.58007 59.19533,61.10167 -539.42677,2.1455 -175.48926,-409.80381 z"
     id="path3" /><g
     id="g10"
     transform="matrix(1.1731904,0,0,1.1731904,-1167.7132,-413.63961)"><path
       style="fill:#efb402"
       d="m 1325.7607,1087.9159 c 1.8256,-3.9875 10.664,-23.3375 19.6409,-43 l 16.3217,-35.75 h 21.1237 c 15.7521,0 22.6204,0.3898 27.009,1.5329 16.8674,4.3934 28.8484,17.5736 31.8376,35.0244 3.775,22.0383 -11.8974,44.1937 -34.2623,48.4351 -3.0113,0.5711 -22.573,1.0076 -45.1516,1.0076 h -39.8382 z m 42.7282,-93.94458 c 2.7768,-6.21798 8.7282,-19.55524 13.2254,-29.63836 L 1389.891,946 l 15.5,0.34906 c 14.5066,0.32669 15.8262,0.52016 20.59,3.01874 10.3262,5.41602 15.8701,14.77972 15.8661,26.79811 0,8.59149 -2.1541,13.85434 -8.3122,20.33474 -7.6562,8.05705 -7.9942,8.12715 -40.8693,8.47065 l -29.2253,0.3054 z m -52.5979,-3.80541 c -0.4038,-0.65334 6.0092,-1 18.5,-1 12.4907,0 18.9038,0.34666 18.5,1 -0.3748,0.60635 -7.6574,1 -18.5,1 -10.8427,0 -18.1253,-0.39365 -18.5,-1 z m -0.5,-4.13975 c 0,-0.62687 -0.7706,-1.70317 -1.7123,-2.39179 -1.3288,-0.97162 -1.4536,-1.56373 -0.5572,-2.64378 0.7009,-0.84448 0.8139,-1.94375 0.2875,-2.79551 -0.5539,-0.8962 -0.1643,-2.78232 1.0775,-5.21646 1.8573,-3.64062 2.1683,-3.81271 6.8896,-3.81271 3.921,0 5.166,-0.41397 6.0149,-2 0.5887,-1.1 1.9545,-2 3.0351,-2 1.8812,0 2.1097,-0.53196 2.3629,-5.5 0.056,-1.1 0.777,-2 1.602,-2 0.825,0 1.5458,0.9 1.6019,2 0.2532,4.96804 0.4818,5.5 2.3629,5.5 1.0806,0 2.4465,0.9 3.0352,2 0.8397,1.569 2.0938,2 5.8195,2 4.2287,0 4.9458,0.33269 6.5421,3.03513 2.2821,3.86328 2.8909,10.93073 1.004,11.65482 -0.7511,0.28822 -1.3656,1.15089 -1.3656,1.91704 0,1.14181 -3.4264,1.39301 -19,1.39301 -13.5532,0 -19,-0.32674 -19,-1.13975 z m 6.1575,-4.61025 c 0.087,-0.9625 0.121,-2.40629 0.076,-3.20844 -0.045,-0.80214 0.3503,-2.26464 0.8776,-3.25 0.8032,-1.50085 0.5516,-1.79156 -1.5507,-1.79156 -3.3003,0 -6.1558,5.01977 -4.556,8.00904 1.325,2.47578 4.9363,2.64466 5.1527,0.24096 z m 11.0238,0 c 0.6481,-2.73529 -0.2803,-12.25 -1.1953,-12.25 -0.4515,0 -2.1641,2.32649 -3.8058,5.16998 -2.4325,4.21321 -2.7734,5.50864 -1.842,7 1.4904,2.38649 6.2834,2.44254 6.8431,0.08 z m 10.4804,-0.08 c 0.9314,-1.49136 0.5905,-2.78679 -1.842,-7 -1.6416,-2.84349 -3.3542,-5.16998 -3.8058,-5.16998 -0.9149,0 -1.8434,9.51471 -1.1953,12.25 0.5597,2.36252 5.3528,2.30647 6.8431,-0.08 z m 9.3334,-0.16094 c 1.5998,-2.98927 -1.2557,-8.00904 -4.556,-8.00904 -2.1023,0 -2.3539,0.29071 -1.5507,1.79156 0.5274,0.98536 0.9223,2.44786 0.8777,3.25 -0.206,3.70173 0.3512,4.95844 2.1987,4.95844 1.0806,0 2.4443,-0.89593 3.0303,-1.99096 z"
       id="path7" /><path
       style="fill:#dd282d"
       d="m 1260.1242,1070.9159 c 5.7973,-12.7875 14.2718,-31.575 18.8323,-41.75 l 8.2918,-18.5 34.0713,-0.2631 c 18.7393,-0.1447 34.0714,0.071 34.0714,0.479 0,0.4082 -8.4375,19.3064 -18.75,41.9961 l -18.75,41.254 -34.1537,0.017 -34.1537,0.017 z m 30.2668,-66.2628 c 0,-0.9154 25.1239,-56.93943 25.8982,-57.75071 0.4009,-0.41994 15.8631,-0.64494 34.3606,-0.5 l 33.6318,0.26352 -12.89,29 -12.89,28.99999 -34.0553,0.2631 c -18.7304,0.1448 -34.0553,0.021 -34.0553,-0.2759 z m 62.6908,-15.5614 c -0.3339,-1.27687 0.1782,-2.79486 1.3323,-3.94891 2.1557,-2.15574 2.1423,-8.6544 -0.027,-13.21026 -1.3405,-2.81485 -6.3521,-4.61134 -9.4973,-3.40444 -0.8935,0.34288 -2.0224,-0.2282 -2.7481,-1.39012 -0.6773,-1.08463 -2.0233,-1.97206 -2.991,-1.97206 -1.6621,0 -2.185,-1.45012 -1.8377,-5.09691 0.084,-0.8783 -0.5395,-2.1709 -1.3848,-2.87244 -1.246,-1.03405 -1.8279,-1.03405 -3.0739,0 -0.8453,0.70154 -1.4684,1.99414 -1.3848,2.87244 0.3484,3.65846 -0.1754,5.09691 -1.856,5.09691 -0.9778,0 -2.5648,0.91915 -3.5266,2.04255 -0.9619,1.12341 -2.2161,1.7538 -2.7872,1.40089 -2.2813,-1.40993 -7.5948,0.57346 -8.9028,3.32318 -1.9874,4.17797 -2.2834,11.91282 -0.4823,12.60396 0.8528,0.32727 1.4767,1.84724 1.4767,3.59804 v 3.03138 h 19.1166 c 18.8523,0 19.1091,-0.0287 18.5742,-2.07421 z m -35.4908,-7.12579 c -0.66,-0.66 -1.2,-1.80083 -1.2,-2.53518 0,-2.08587 3.0784,-6.26482 4.615,-6.26482 1.6128,0 1.8472,1.59627 0.3687,2.51009 -0.559,0.34546 -0.7417,1.07259 -0.4059,1.61585 0.763,1.23455 -0.3403,5.87406 -1.3969,5.87406 -0.4295,0 -1.3209,-0.54 -1.9809,-1.2 z m 8.4683,-0.96019 c -0.5565,-2.12803 3.6807,-10.83981 5.2722,-10.83981 0.6238,0 0.6661,3.56096 0.1398,11.75 -0.1437,2.23523 -4.794,1.45314 -5.412,-0.91019 z m 11.2513,0.91019 c -0.5263,-8.18904 -0.4839,-11.75 0.1398,-11.75 1.5915,0 5.8287,8.71178 5.2722,10.83981 -0.618,2.36333 -5.2683,3.14542 -5.412,0.91019 z m 10.5053,-1.19316 c -0.3373,-1.34374 -0.3385,-2.88765 0,-3.4309 0.3358,-0.54326 0.1531,-1.27039 -0.4058,-1.61585 -1.4786,-0.91382 -1.2442,-2.51009 0.3687,-2.51009 0.7617,0 2.1586,1.18069 3.1041,2.62375 1.3595,2.0748 1.4926,3.1209 0.6364,5 -1.3932,3.05774 -2.9233,3.03008 -3.7006,-0.0669 z"
       id="path2-7"
       sodipodi:nodetypes="sscssscccsssscccsssssssscssssssssscssssssssssssssssssccsssscc" /></g><g
     id="g8"
     transform="matrix(-1.1731904,0,0,1.1731904,2035.3325,-902.35264)"><path
       style="fill:#efb402"
       d="m 1325.7607,1087.9159 c 1.8256,-3.9875 10.664,-23.3375 19.6409,-43 l 16.3217,-35.75 h 21.1237 c 15.7521,0 22.6204,0.3898 27.009,1.5329 16.8674,4.3934 28.8484,17.5736 31.8376,35.0244 3.775,22.0383 -11.8974,44.1937 -34.2623,48.4351 -3.0113,0.5711 -22.573,1.0076 -45.1516,1.0076 h -39.8382 z m 42.7282,-93.94458 c 2.7768,-6.21798 8.7282,-19.55524 13.2254,-29.63836 L 1389.891,946 l 15.5,0.34906 c 14.5066,0.32669 15.8262,0.52016 20.59,3.01874 10.3262,5.41602 15.8701,14.77972 15.8661,26.79811 0,8.59149 -2.1541,13.85434 -8.3122,20.33474 -7.6562,8.05705 -7.9942,8.12715 -40.8693,8.47065 l -29.2253,0.3054 z m -52.5979,-3.80541 c -0.4038,-0.65334 6.0092,-1 18.5,-1 12.4907,0 18.9038,0.34666 18.5,1 -0.3748,0.60635 -7.6574,1 -18.5,1 -10.8427,0 -18.1253,-0.39365 -18.5,-1 z m -0.5,-4.13975 c 0,-0.62687 -0.7706,-1.70317 -1.7123,-2.39179 -1.3288,-0.97162 -1.4536,-1.56373 -0.5572,-2.64378 0.7009,-0.84448 0.8139,-1.94375 0.2875,-2.79551 -0.5539,-0.8962 -0.1643,-2.78232 1.0775,-5.21646 1.8573,-3.64062 2.1683,-3.81271 6.8896,-3.81271 3.921,0 5.166,-0.41397 6.0149,-2 0.5887,-1.1 1.9545,-2 3.0351,-2 1.8812,0 2.1097,-0.53196 2.3629,-5.5 0.056,-1.1 0.777,-2 1.602,-2 0.825,0 1.5458,0.9 1.6019,2 0.2532,4.96804 0.4818,5.5 2.3629,5.5 1.0806,0 2.4465,0.9 3.0352,2 0.8397,1.569 2.0938,2 5.8195,2 4.2287,0 4.9458,0.33269 6.5421,3.03513 2.2821,3.86328 2.8909,10.93073 1.004,11.65482 -0.7511,0.28822 -1.3656,1.15089 -1.3656,1.91704 0,1.14181 -3.4264,1.39301 -19,1.39301 -13.5532,0 -19,-0.32674 -19,-1.13975 z m 6.1575,-4.61025 c 0.087,-0.9625 0.121,-2.40629 0.076,-3.20844 -0.045,-0.80214 0.3503,-2.26464 0.8776,-3.25 0.8032,-1.50085 0.5516,-1.79156 -1.5507,-1.79156 -3.3003,0 -6.1558,5.01977 -4.556,8.00904 1.325,2.47578 4.9363,2.64466 5.1527,0.24096 z m 11.0238,0 c 0.6481,-2.73529 -0.2803,-12.25 -1.1953,-12.25 -0.4515,0 -2.1641,2.32649 -3.8058,5.16998 -2.4325,4.21321 -2.7734,5.50864 -1.842,7 1.4904,2.38649 6.2834,2.44254 6.8431,0.08 z m 10.4804,-0.08 c 0.9314,-1.49136 0.5905,-2.78679 -1.842,-7 -1.6416,-2.84349 -3.3542,-5.16998 -3.8058,-5.16998 -0.9149,0 -1.8434,9.51471 -1.1953,12.25 0.5597,2.36252 5.3528,2.30647 6.8431,-0.08 z m 9.3334,-0.16094 c 1.5998,-2.98927 -1.2557,-8.00904 -4.556,-8.00904 -2.1023,0 -2.3539,0.29071 -1.5507,1.79156 0.5274,0.98536 0.9223,2.44786 0.8777,3.25 -0.206,3.70173 0.3512,4.95844 2.1987,4.95844 1.0806,0 2.4443,-0.89593 3.0303,-1.99096 z"
       id="path6" /><path
       style="fill:#dd282d"
       d="m 1260.1242,1070.9159 c 5.7973,-12.7875 14.2718,-31.575 18.8323,-41.75 l 8.2918,-18.5 34.0713,-0.2631 c 18.7393,-0.1447 34.0714,0.071 34.0714,0.479 0,0.4082 -8.4375,19.3064 -18.75,41.9961 l -18.75,41.254 -34.1537,0.017 -34.1537,0.017 z m 30.2668,-66.2628 c 0,-0.9154 25.1239,-56.93943 25.8982,-57.75071 0.4009,-0.41994 15.8631,-0.64494 34.3606,-0.5 l 33.6318,0.26352 -12.89,29 -12.89,28.99999 -34.0553,0.2631 c -18.7304,0.1448 -34.0553,0.021 -34.0553,-0.2759 z m 62.6908,-15.5614 c -0.3339,-1.27687 0.1782,-2.79486 1.3323,-3.94891 2.1557,-2.15574 2.1423,-8.6544 -0.027,-13.21026 -1.3405,-2.81485 -6.3521,-4.61134 -9.4973,-3.40444 -0.8935,0.34288 -2.0224,-0.2282 -2.7481,-1.39012 -0.6773,-1.08463 -2.0233,-1.97206 -2.991,-1.97206 -1.6621,0 -2.185,-1.45012 -1.8377,-5.09691 0.084,-0.8783 -0.5395,-2.1709 -1.3848,-2.87244 -1.246,-1.03405 -1.8279,-1.03405 -3.0739,0 -0.8453,0.70154 -1.4684,1.99414 -1.3848,2.87244 0.3484,3.65846 -0.1754,5.09691 -1.856,5.09691 -0.9778,0 -2.5648,0.91915 -3.5266,2.04255 -0.9619,1.12341 -2.2161,1.7538 -2.7872,1.40089 -2.2813,-1.40993 -7.5948,0.57346 -8.9028,3.32318 -1.9874,4.17797 -2.2834,11.91282 -0.4823,12.60396 0.8528,0.32727 1.4767,1.84724 1.4767,3.59804 v 3.03138 h 19.1166 c 18.8523,0 19.1091,-0.0287 18.5742,-2.07421 z m -35.4908,-7.12579 c -0.66,-0.66 -1.2,-1.80083 -1.2,-2.53518 0,-2.08587 3.0784,-6.26482 4.615,-6.26482 1.6128,0 1.8472,1.59627 0.3687,2.51009 -0.559,0.34546 -0.7417,1.07259 -0.4059,1.61585 0.763,1.23455 -0.3403,5.87406 -1.3969,5.87406 -0.4295,0 -1.3209,-0.54 -1.9809,-1.2 z m 8.4683,-0.96019 c -0.5565,-2.12803 3.6807,-10.83981 5.2722,-10.83981 0.6238,0 0.6661,3.56096 0.1398,11.75 -0.1437,2.23523 -4.794,1.45314 -5.412,-0.91019 z m 11.2513,0.91019 c -0.5263,-8.18904 -0.4839,-11.75 0.1398,-11.75 1.5915,0 5.8287,8.71178 5.2722,10.83981 -0.618,2.36333 -5.2683,3.14542 -5.412,0.91019 z m 10.5053,-1.19316 c -0.3373,-1.34374 -0.3385,-2.88765 0,-3.4309 0.3358,-0.54326 0.1531,-1.27039 -0.4058,-1.61585 -1.4786,-0.91382 -1.2442,-2.51009 0.3687,-2.51009 0.7617,0 2.1586,1.18069 3.1041,2.62375 1.3595,2.0748 1.4926,3.1209 0.6364,5 -1.3932,3.05774 -2.9233,3.03008 -3.7006,-0.0669 z"
       id="path8"
       sodipodi:nodetypes="sscssscccsssscccsssssssscssssssssscssssssssssssssssssccsssscc" /></g></svg>
