<?xml version="1.0" encoding="UTF-8" standalone="no"?>
<svg
   width="1024"
   height="1024"
   viewBox="0 0 1024 1024"
   version="1.1"
   id="svg208"
   sodipodi:docname="ENG1.svg"
   inkscape:version="1.3.2 (091e20ef0f, 2023-11-25, custom)"
   xmlns:inkscape="http://www.inkscape.org/namespaces/inkscape"
   xmlns:sodipodi="http://sodipodi.sourceforge.net/DTD/sodipodi-0.dtd"
   xmlns:xlink="http://www.w3.org/1999/xlink"
   xmlns="http://www.w3.org/2000/svg"
   xmlns:svg="http://www.w3.org/2000/svg">
  <defs
     id="defs208">
    <linearGradient
       id="linearGradient41"
       inkscape:collect="always">
      <stop
         style="stop-color:#404040;stop-opacity:1;"
         offset="0"
         id="stop39" />
      <stop
         style="stop-color:#ffffff;stop-opacity:1;"
         offset="0.5"
         id="stop40" />
      <stop
         style="stop-color:#404040;stop-opacity:1;"
         offset="1"
         id="stop41" />
    </linearGradient>
    <linearGradient
       id="linearGradient44"
       inkscape:collect="always">
      <stop
         style="stop-color:#404040;stop-opacity:1;"
         offset="0"
         id="stop42" />
      <stop
         style="stop-color:#ffffff;stop-opacity:1;"
         offset="0.8990733"
         id="stop43" />
      <stop
         style="stop-color:#404040;stop-opacity:1;"
         offset="1"
         id="stop44" />
    </linearGradient>
    <linearGradient
       inkscape:collect="always"
       xlink:href="#linearGradient41"
       id="linearGradient25"
       x1="540.76953"
       y1="66.293945"
       x2="674.01758"
       y2="66.293945"
       gradientUnits="userSpaceOnUse" />
    <linearGradient
       inkscape:collect="always"
       xlink:href="#linearGradient41"
       id="linearGradient3"
       x1="124.22266"
       y1="87.394531"
       x2="251.23242"
       y2="87.394531"
       gradientUnits="userSpaceOnUse"
       gradientTransform="matrix(1.0265981,0,0,1.0265981,-1290.9348,-2.3245325)" />
    <linearGradient
       inkscape:collect="always"
       xlink:href="#linearGradient41"
       id="linearGradient9"
       x1="514.78516"
       y1="69.873047"
       x2="640.61719"
       y2="69.873047"
       gradientUnits="userSpaceOnUse"
       gradientTransform="matrix(1.0421744,0,0,1.0421744,-1310.3058,-2.9468541)" />
    <linearGradient
       inkscape:collect="always"
       xlink:href="#linearGradient41"
       id="linearGradient11"
       x1="125.32227"
       y1="276.11621"
       x2="251.23242"
       y2="276.11621"
       gradientUnits="userSpaceOnUse"
       gradientTransform="matrix(1.0487139,0,0,1.0487139,-1295.1133,-13.450699)" />
    <linearGradient
       inkscape:collect="always"
       xlink:href="#linearGradient41"
       id="linearGradient13"
       x1="521.64453"
       y1="572.1582"
       x2="622.05664"
       y2="572.1582"
       gradientUnits="userSpaceOnUse"
       gradientTransform="translate(-1285.9416)" />
    <linearGradient
       inkscape:collect="always"
       xlink:href="#linearGradient41"
       id="linearGradient15"
       x1="630.27734"
       y1="573.76758"
       x2="780.63477"
       y2="573.76758"
       gradientUnits="userSpaceOnUse"
       gradientTransform="translate(-1285.9416)" />
    <linearGradient
       inkscape:collect="always"
       xlink:href="#linearGradient41"
       id="linearGradient17"
       x1="788.85547"
       y1="218.36523"
       x2="916.38086"
       y2="218.36523"
       gradientUnits="userSpaceOnUse"
       gradientTransform="matrix(1.038636,0,0,1.038636,-1318.8833,-8.4367431)" />
    <linearGradient
       inkscape:collect="always"
       xlink:href="#linearGradient41"
       id="linearGradient19"
       x1="788.85547"
       y1="357.01074"
       x2="901.39453"
       y2="357.01074"
       gradientUnits="userSpaceOnUse"
       gradientTransform="translate(-1285.9416)" />
    <linearGradient
       inkscape:collect="always"
       xlink:href="#linearGradient41"
       id="linearGradient21"
       x1="801.15625"
       y1="530.7627"
       x2="901.39453"
       y2="530.7627"
       gradientUnits="userSpaceOnUse"
       gradientTransform="translate(-1285.9416)" />
    <linearGradient
       inkscape:collect="always"
       xlink:href="#linearGradient41"
       id="linearGradient23"
       x1="788.85547"
       y1="845.18359"
       x2="939.2168"
       y2="845.18359"
       gradientUnits="userSpaceOnUse"
       gradientTransform="translate(-1285.9416)" />
    <radialGradient
       inkscape:collect="always"
       xlink:href="#linearGradient44"
       id="radialGradient25"
       cx="647.70605"
       cy="886.95996"
       fx="647.70605"
       fy="886.95996"
       r="132.92873"
       gradientTransform="translate(-1285.9416,-6.6724483e-5)"
       gradientUnits="userSpaceOnUse" />
    <radialGradient
       inkscape:collect="always"
       xlink:href="#linearGradient9-9"
       id="radialGradient182"
       cx="206.68652"
       cy="817.03711"
       fx="206.68652"
       fy="817.03711"
       r="206.68652"
       gradientTransform="matrix(1,0,0,1.0013371,0,-1.092478)"
       gradientUnits="userSpaceOnUse" />
    <linearGradient
       id="linearGradient9-9"
       inkscape:collect="always"
       gradientTransform="matrix(0.97812409,0,0,1.0223652,1141.9204,40.44336)"
       x1="523.58563"
       y1="1.3085606"
       x2="657.65747"
       y2="1.3085606"
       gradientUnits="userSpaceOnUse">
      <stop
         style="stop-color:#404040;stop-opacity:1;"
         offset="0"
         id="stop7" />
      <stop
         style="stop-color:#ffffff;stop-opacity:1;"
         offset="0.5"
         id="stop8" />
      <stop
         style="stop-color:#404040;stop-opacity:1;"
         offset="1"
         id="stop9" />
    </linearGradient>
    <linearGradient
       inkscape:collect="always"
       xlink:href="#linearGradient9-9"
       id="linearGradient185"
       x1="589.49609"
       y1="16.35144"
       x2="589.49609"
       y2="277.87427"
       gradientUnits="userSpaceOnUse" />
    <linearGradient
       inkscape:collect="always"
       xlink:href="#linearGradient9-9"
       id="linearGradient183"
       x1="589.49609"
       y1="284.44727"
       x2="589.49609"
       y2="568.89648"
       gradientUnits="userSpaceOnUse" />
    <radialGradient
       inkscape:collect="always"
       xlink:href="#linearGradient44"
       id="radialGradient181"
       cx="884.53418"
       cy="885.22754"
       fx="884.53418"
       fy="885.22754"
       r="137.67873"
       gradientTransform="matrix(1,0,0,1.0079442,0,-7.03241)"
       gradientUnits="userSpaceOnUse" />
    <linearGradient
       inkscape:collect="always"
       xlink:href="#linearGradient9-9"
       id="linearGradient4"
       x1="169.68066"
       y1="159.21281"
       x2="169.68066"
       y2="610.07422"
       gradientUnits="userSpaceOnUse" />
    <linearGradient
       inkscape:collect="always"
       xlink:href="#linearGradient9-9"
       id="linearGradient5"
       x1="577.50977"
       y1="573.35352"
       x2="577.50977"
       y2="1021.778"
       gradientUnits="userSpaceOnUse" />
  </defs>
  <sodipodi:namedview
     id="namedview208"
     pagecolor="#505050"
     bordercolor="#ffffff"
     borderopacity="1"
     inkscape:showpageshadow="0"
     inkscape:pageopacity="0"
     inkscape:pagecheckerboard="1"
     inkscape:deskcolor="#d1d1d1"
     inkscape:zoom="0.24072266"
     inkscape:cx="245.09533"
     inkscape:cy="454.88032"
     inkscape:window-width="1366"
     inkscape:window-height="724"
     inkscape:window-x="-1"
     inkscape:window-y="-1"
     inkscape:window-maximized="1"
     inkscape:current-layer="svg208" />
  <desc
     id="desc1">Boeing_747SP.blend, (Blender 3.3.9)</desc>
  <rect
     style="fill:#cccccc;fill-opacity:1;stroke-width:15;stroke-linecap:square"
     id="rect1"
     width="1024"
     height="1024"
     x="0"
     y="0"
     rx="2.3779886"
     ry="2.3779886" />
  <path
     id="polygon1"
     d="m -1228.9026,382.75586 -9.3808,102.5625 -2.5449,102.30859 -41.002,-1.08789 9.4961,106.85547 37.3984,0.99219 48.8575,0.53516 h 52.8808 l 48.8574,-0.53711 37.3887,-0.99024 12.2422,-106.85547 -40.9961,1.08789 -3.6973,-102.30859 -10.8867,-102.5625 -44.9668,0.49219 h -48.6738 z"
     style="fill:#cccccc;fill-opacity:1" />
  <path
     id="polygon4"
     d="m -1015.8791,706.01172 -10.1035,102.91016 -0.5059,102.34179 41.06055,2.05274 1.66992,105.91599 48.88477,0.6563 52.87695,-0.6563 48.82227,-1.873 37.33398,-2.8028 16.45508,-106.36715 -40.93359,3.07422 -7.28907,-102.34179 -15.20117,-102.91016 -44.9375,1.72266 -48.66992,0.60546 -44.99414,-0.60546 z"
     style="fill:#cccccc;fill-opacity:1" />
  <path
     id="polygon8"
     d="m -1260.6682,703.14258 -15.918,103.21875 -5.2441,102.30469 40.9902,4.75586 8.6407,104.12112 48.8535,2.3457 h 52.8828 l 48.8613,-2.3457 5.8848,-104.12112 41.0078,-4.75586 -4.0957,-102.30469 -14.4141,-103.21875 -34.4238,3.99219 -44.9746,2.16015 h -48.6738 l -44.9649,-2.16015 z"
     style="fill:#cccccc;fill-opacity:1" />
  <path
     id="polygon11"
     d="m -963.53732,384.26172 -14.95313,102.75 -7.04687,102.30664 -40.95118,-2.48828 16.7012,106.64062 37.34763,2.26953 48.83008,1.51758 52.88086,0.53125 48.87695,-0.53125 1.42774,-106.27539 41.04492,-1.66406 -0.74609,-102.30664 -10.34766,-102.75 -34.45703,1.39648 -44.98828,0.49024 -48.67188,-0.49024 z"
     style="fill:#cccccc;fill-opacity:1" />
  <path
     id="polygon15"
     d="m -1033.9384,3.1292702 -127.7714,0.00401 0.9183,43.8148888 v 47.413996 l -0.9183,43.792825 -1.6983,33.5048 127.7714,-0.004 1.6983,-33.50479 0.9183,-43.792841 v -47.41414 z"
     style="fill:url(#linearGradient3);stroke-width:1.0266" />
  <path
     id="polygon18"
     d="m -647.33615,401.72461 -4.59961,87.42969 -3.72852,255.9414 24.95118,0.5293 32.5957,0.18555 35.2793,-0.18555 32.59179,-0.5293 24.93946,-0.79101 -11.30665,-255.86328 -22.44531,0.71289 -6.68945,-87.42969 -26.39844,0.42773 -28.57617,0.15039 -26.40234,-0.15039 z"
     style="fill:url(#linearGradient15)" />
  <path
     id="polygon51"
     d="m -938.84401,126.96214 -42.02327,19.29312 -32.16122,35.64888 -17.4078,46.57701 v 50.4166 l 17.4078,46.577 32.16122,35.64889 42.02327,19.29313 h 45.48461 l 42.02125,-19.29313 32.16127,-35.64889 17.40569,-46.577 v -50.4166 l -17.40569,-46.57701 -32.1633,-35.64888 -42.02125,-19.29312 z m -0.90345,43.98913 h 29.69566 l 27.43604,12.5955 20.99799,23.27399 11.36547,30.4118 v 32.91377 l -11.36547,30.41182 -20.99799,23.27399 -27.43604,12.5955 h -29.69566 l -27.43604,-12.5955 -20.99798,-23.27399 -11.36547,-30.41182 v -32.91377 l 11.36547,-30.4118 20.99798,-23.27399 z"
     style="stroke-width:1.03576"
     sodipodi:nodetypes="cccccccccccccccccccccccccccccccccc" />
  <path
     id="polygon67"
     d="m -492.99435,308.66797 -4.0918,87.68555 22.32422,2.91406 29.22461,2.73242 31.68164,2.13867 29.30859,1.21485 -7.16211,-88.58594 -26.3789,-1.09375 -28.51172,-1.92383 -26.30274,-2.46094 z"
     style="fill:url(#linearGradient19)" />
  <path
     id="polygon69"
     d="m -439.53732,670.47852 -32.59766,1.5664 -24.95117,2.89453 5.08008,256.47657 5.05664,88.47268 20.21093,-2.3418 26.40235,-1.2696 h 28.57617 l 26.39844,1.2696 20.20312,2.3418 8.47461,-88.47268 9.95899,-256.47657 -24.94336,-2.89453 -32.58985,-1.5664 z"
     style="fill:url(#linearGradient23)" />
  <path
     id="polygon74"
     d="m -474.76193,399.26758 -10.02344,256.22656 32.47266,3.03711 35.19921,2.375 32.56641,1.35156 V 405.35352 L -413.85568,404.13867 -445.53732,402 Z"
     style="fill:url(#linearGradient21)" />
  <path
     id="polygon75"
     d="m -663.88498,398.50586 -26.375,1.42187 -28.5625,0.9375 -26.39648,0.31641 -10.2168,88.07227 -8.86133,256.55664 32.58985,-0.38672 35.25976,-1.16016 32.5625,-1.75586 -1.17969,-256.22851 z"
     style="fill:url(#linearGradient13)" />
  <path
     id="polygon83"
     d="m -1177.2145,87.39453 -12.76,2.309933 -16.3421,4.112702 -17.4332,5.291107 -15.8755,5.659758 -11.897,5.17178 74.3078,118.59925 z"
     style="stroke-width:1.09104" />
  <path
     id="polygon99"
     d="m -512.30685,221.06055 -18.44336,5.9375 v 16.69922 l 18.44336,5.93945 z m -18.08594,36.79687 -0.35742,28.57422 0.35742,26.39844 21.4414,-16.66406 -0.20703,-15.42774 0.20703,-16.69726 z m 0.30273,63.19531 -0.66015,26.41993 0.66015,28.56836 22.87696,-6.4629 -0.38477,-16.69335 0.38477,-15.44141 z" />
  <path
     id="polygon100"
     d="m -1202.4897,226.48373 -27.3559,0.002 -25.2731,11.60346 -19.344,21.44124 -10.4678,28.01288 v 30.32155 l 10.4678,28.01287 19.344,21.44124 25.2731,11.60347 h 27.3559 l 25.2752,-11.60347 -12.2163,-32.89999 -12.4044,5.69565 h -13.4279 l -12.4061,-5.69558 -9.4939,-10.5244 -5.1404,-13.74995 v -14.88316 l 5.1404,-13.74995 9.4939,-10.5244 12.4061,-5.69565 h 13.4262 l 12.4061,5.69565 12.2163,-32.89792 z"
     style="stroke-width:1.06108"
     sodipodi:nodetypes="ccccccccccccccccccccccccc" />
  <path
     id="polygon117"
     d="m -318.11154,404.96094 -58.21485,112.6582 15.02539,3.5 16.33985,3.44727 15.16601,2.87109 11.6836,1.85352 z" />
  <path
     id="polygon120"
     d="m -318.07248,537.51172 -11.71484,1.70898 -15.18555,2.78516 -16.3418,3.43555 -15.01172,3.56445 58.25391,113.25195 z" />
  <path
     id="polygon124"
     d="m -312.79822,171.00991 -50.56415,124.0985 16.36786,3.65995 17.75413,3.76821 16.44216,3.30117 z"
     style="stroke-width:1.08694" />
  <path
     id="polygon130"
     d="m -664.676,754.03125 -48.85742,20.23828 -37.39258,37.39258 -20.23828,48.85742 v 52.88281 l 20.23828,48.85743 37.39258,37.39257 48.85742,20.23636 h 52.88282 l 48.85742,-20.23636 37.39258,-37.39257 20.23633,-48.85743 v -52.88281 l -20.23633,-48.85742 -37.39453,-37.39258 -48.85547,-20.23828 z m 3.34766,16.83594 h 46.18555 l 42.66992,17.67578 32.65625,32.65625 17.67578,42.66797 v 46.18554 l -17.67383,42.66993 -32.6582,32.6582 -42.66992,17.67384 h -46.18555 l -42.66797,-17.67384 -32.6582,-32.6582 -17.67383,-42.66993 v -46.18359 l 17.67383,-42.66992 32.6582,-32.65625 z"
     style="fill:url(#radialGradient25)" />
  <path
     id="polygon146"
     d="m -376.32639,308.66797 27.625,75.50976 27.60743,-75.50976 -17.91993,0.85937 h -19.39648 z"
     style="fill:#ffffff;fill-opacity:1" />
  <path
     id="polygon147"
     d="m -499.54968,133.11392 2.1219,33.89361 1.14818,44.30229 v 47.96996 l -1.14818,44.33068 129.18237,0.006 1.14818,-44.33068 V 211.3158 l -1.14818,-44.30228 -2.11986,-33.8936 z"
     style="fill:url(#linearGradient17);stroke-width:1.03864" />
  <path
     id="polygon150"
     d="m -1163.6861,172.9029 0.9073,34.24501 0.4896,44.74649 v 48.43337 l -0.4896,44.7506 -0.9073,34.25116 h 130.6468 l 0.9074,-34.25116 0.4895,-44.7506 V 251.8944 l -0.4895,-44.74649 -0.9074,-34.24501 z"
     style="fill:url(#linearGradient11);stroke-width:1.04871" />
  <path
     id="polygon153"
     d="m -773.80787,1.3378668 2.13727,44.4715362 -0.002,48.133394 -2.13728,44.463393 128.99961,0.002 2.13727,-44.465433 0.002,-48.133394 -2.13524,-44.4715362 z"
     style="fill:url(#linearGradient9);stroke-width:1.04217" />
  <path
     id="polygon178"
     d="m -679.06252,139.30051 -44.3441,18.36727 -33.93754,33.93754 -18.36726,44.34409 v 47.99563 l 18.36726,44.34409 33.93754,33.93958 44.3441,18.36727 h 47.99766 l 44.34206,-18.36727 33.93958,-33.93958 18.36726,-44.34409 v -47.99563 l -18.36726,-44.34409 -33.93958,-33.93754 -44.34206,-18.36727 z m 15.30952,76.95775 h 17.37862 l 16.05715,6.65111 12.29052,12.29052 6.6511,16.0589 v 17.37862 l -6.6511,16.05715 -12.29052,12.29052 -16.05715,6.65111 h -17.38037 l -16.05715,-6.65111 -12.28877,-12.29052 -6.6511,-16.05715 v -17.38037 l 6.6511,-16.05715 12.28877,-12.29052 z"
     style="stroke-width:1.03924"
     sodipodi:nodetypes="cccccccccccccccccccccccccccccccccc" />
  <path
     id="polygon194"
     d="m -423.51226,45.536155 29.37504,86.611285 46.74085,-86.611285 -15.14037,0.759067 -19.78319,0.267398 -21.4113,-0.267398 z"
     style="fill:#ffffff;fill-opacity:1;stroke-width:1.1041" />
  <path
     id="polygon198"
     d="m -535.11238,40.773517 -13.28229,7.305904 -17.49531,9.274289 -19.04499,9.826817 -17.69605,8.88795 -13.65352,6.593658 81.17216,57.706935 z"
     style="fill:#ffffff;fill-opacity:1;stroke-width:1.10506" />
  <path
     id="polygon201"
     d="m -500.71987,44.976651 46.59151,87.247869 29.61734,-87.247869 -19.80896,0.615318 -21.43683,0.215902 -19.80463,-0.215902 z"
     style="fill:#ffffff;fill-opacity:1;stroke-width:1.10541" />
  <path
     style="fill:#000000;fill-opacity:1;stroke:none;stroke-width:1.10506px;stroke-linecap:butt;stroke-linejoin:miter;stroke-opacity:1"
     d="m -575.69846,111.5156 40.58608,-23.432381 v 52.285851 z"
     id="path25" />
  <path
     style="fill:#000000;fill-opacity:1;stroke:none;stroke-width:1.10541px;stroke-linecap:butt;stroke-linejoin:miter;stroke-opacity:1"
     d="m -477.42412,88.600584 h 38.10442 l -14.80866,43.623936 z"
     id="path26" />
  <path
     style="fill:#000000;fill-opacity:1;stroke:none;stroke-width:1.1041px;stroke-linecap:butt;stroke-linejoin:miter;stroke-opacity:1"
     d="m -408.82474,88.841795 h 38.05794 l -23.37042,43.305645 z"
     id="path27" />
  <path
     style="fill:#000000;fill-opacity:1;stroke:none;stroke-width:1px;stroke-linecap:butt;stroke-linejoin:miter;stroke-opacity:1"
     d="m -362.51389,346.42285 h 27.61621 l -13.80371,37.75488 z"
     id="path28" />
  <path
     id="polygon1-9"
     d="m 118.25391,154.9707 -115.314457,8.41407 2.720703,56.42187 0.882813,56.12305 -0.06641,55.79492 -0.472656,55.49805 -0.5625,55.23828 -0.541016,55.02148 -0.636719,54.89844 -1.324219,54.69922 109.431641,2.99414 106.96289,-3.9668 105.29493,-13.21484 -4.87696,-49.76367 -2.73242,-50.22071 -1.06836,-50.49609 0.41797,-50.7832 1.94336,-51.08203 3.68164,-51.36719 5.82227,-51.58008 8.60547,-51.58789 -110.10352,-22.12695 z"
     style="fill:url(#linearGradient4)" />
  <path
     id="polygon2"
     d="m 631.54297,568.89648 -108.06641,8.91407 -110.10351,22.12695 8.60547,51.58594 5.82226,51.58203 3.68164,51.36719 1.94336,51.08203 0.41797,50.78515 -1.06836,50.49414 -2.73047,50.21875 -4.87695,49.76367 105.29492,13.2168 106.96094,3.9668 109.43164,-2.9941 -1.32422,-54.69926 -0.63672,-54.89844 -0.54101,-55.02343 -0.5625,-55.23633 -0.47266,-55.49805 -0.0664,-55.79687 0.88282,-56.1211 2.7207,-56.42383 z"
     style="fill:url(#linearGradient5);fill-opacity:1" />
  <path
     id="polygon15-2"
     d="M 168.80078,610.07422 91.79297,641.95312 32.339844,701.46484 0,779.96289 l 0.419922,85.75 34.015625,79.80078 63.873043,60.89063 84.40039,17.5957 80.84961,-3.6445 74.80469,-34.34573 46.84375,-65.57032 28.16602,-70.7832 v -77.75 l -30.03711,-73.29102 -56.7168,-57.09961 -75.30273,-31.36718 z m 53.83399,141.90039 24.45507,8.17383 19.25,16.74414 11.13477,22.70117 1.28516,25.13477 -9.15039,24.0039 -18.30469,18.01367 -22.72266,12.84961 -25.54883,2.89649 -24.43359,-8.16602 -18.74805,-16.19336 -10.7539,-22.74414 -1.67383,-25.86719 8.48242,-24.66015 17.32227,-19.59766 23.45898,-11.53125 z"
     style="fill:url(#radialGradient182)" />
  <path
     id="polygon17"
     d="m 418.49219,0 -2.80274,35.412109 -1.67187,35.6875 -0.64453,35.761721 0.36328,35.51172 1.07226,35.52539 1.44922,35.51367 1.54492,35.51562 1.45118,35.51954 257.99023,-9.96094 88.375,-3.79297 -1.30469,-28.8418 -1.39453,-28.84765 -1.35156,-28.86719 -1.10156,-28.89844 -0.60938,-28.93555 0.11914,-28.951168 1.89453,-29.072265 3.74805,-28.900391 -89.41406,-14.736328 z"
     style="fill:url(#linearGradient185)" />
  <path
     id="polygon18-2"
     d="m 419.25391,284.44727 -1.45118,35.52148 -1.54492,35.51367 -1.44922,35.51563 -1.07226,35.52343 -0.36328,35.51172 0.64453,35.76172 1.67383,35.6875 2.80078,35.41406 257.71289,-24.64257 89.41406,-14.73829 -3.74805,-28.89843 -1.89453,-29.07227 -0.11914,-28.95312 0.60938,-28.93555 1.10156,-28.89844 1.35156,-28.86523 1.39453,-28.84766 1.30469,-28.84375 -88.375,-3.79297 z"
     style="fill:url(#linearGradient183)" />
  <path
     id="polygon49"
     d="m 880.14844,52.023438 -45.49414,18.195312 -36.81836,32.32813 -23.92578,42.75976 -8.29102,48.28906 8.29102,48.29102 23.92578,42.75976 36.81836,32.32813 45.49414,18.19531 8.32031,-38.96289 -32.97461,-13.18555 -26.68555,-23.43164 -17.33984,-30.99218 -6.01172,-35.00196 6.01172,-35 17.33984,-30.99218 26.68555,-23.43164 32.97461,-13.187505 z m 122.84956,0 -45.49214,18.195312 -36.81836,32.32813 -23.92578,42.75976 -8.29297,48.28906 8.29297,48.29102 23.92578,42.75976 36.81836,32.32813 45.49214,18.19531 8.3223,-38.96289 -32.9746,-13.18555 -26.68554,-23.43164 -17.3418,-30.99218 -6.00977,-35.00196 6.00977,-35 17.3418,-30.99218 26.68554,-23.43164 32.9746,-13.187505 z" />
  <path
     id="polygon79"
     d="M 85.43164,6.390625 55.896484,7.773438 29.546875,20.152344 10.087891,41.251953 0,67.789062 l 0.433594,28.220704 10.80664,26.072264 19.796875,20.35156 26.236329,11.63672 29.099612,0.90039 27.65625,-10.45898 21.73828,-20.66406 12.00586,-27.841801 V 65.503906 L 135.66211,37.511719 113.58789,16.724609 Z" />
  <path
     id="polygon84"
     d="m 808.86914,592.4668 -28.59375,11.75781 -21.84961,21.99219 -11.57031,28.46093 0.16406,30.43555 11.64844,28.10938 21.73242,21.6875 28.25,11.54492 30.32813,-0.01 28.21679,-11.65234 21.70899,-21.75391 11.59765,-28.33984 v -30.13086 l -11.20117,-27.9043 -21.19922,-21.87695 -28.35742,-12.16016 z m 7.05664,36.07226 16.36328,0.22461 15.00782,6.13672 11.45312,11.46875 6.13281,15.03711 -0.14648,16.25391 -6.39649,14.90625 -11.30468,11.63671 -14.93555,6.38282 -16.30078,0.13476 -14.97852,-6.27929 -11.63476,-11.45313 -6.41602,-15.08594 0.12695,-16.36523 6.36524,-15.08203 11.67969,-11.45899 z" />
  <path
     id="polygon115"
     d="M 857.1543,746.45508 806.55469,767.67383 768.00195,806.48828 747.05664,857 l -0.20117,54.97266 20.82226,51.08203 38.88086,39.35941 50.91016,21.5859 55.36719,-0.025 50.64453,-21.3945 38.16213,-38.90627 20.5703,-50.41211 v -54.78906 l -20.4668,-51.05078 -38.60743,-39.53126 -50.92773,-21.375 z m 4.45703,22.03515 46.14648,0.10547 42.59961,18.01758 32.47268,33.0625 17.3086,43.01172 0.1582,46.24414 -17.1641,42.57031 -32.26171,32.60547 -42.53906,17.75388 -46.32617,-0.1015 -42.69141,-18.02542 -32.75976,-33.06641 -17.58789,-42.93359 0.0605,-46.2793 17.48438,-42.63477 32.60547,-32.59961 z"
     style="fill:url(#radialGradient181)" />
  <path
     id="polygon162"
     d="m 859.23633,335.16992 -42.95313,17.79102 -32.87304,32.87304 -17.79102,42.95118 v 46.49218 l 17.79102,42.95313 32.875,32.87305 42.95117,17.79296 h 46.49219 l 42.95117,-17.79296 32.87501,-32.87305 17.791,-42.95313 v -46.49218 l -17.791,-42.95118 -32.87501,-32.87304 -42.95117,-17.79102 z m 13.48437,67.78711 h 19.52344 l 18.03711,7.4707 13.80469,13.80469 7.4707,18.03711 v 19.52539 l -7.4707,18.03516 -13.80469,13.80664 -18.03711,7.4707 H 872.7207 l -18.03711,-7.4707 -13.80468,-13.80664 -7.47266,-18.03516 v -19.52344 l 7.47266,-18.03906 13.80468,-13.80469 z" />
  <g
     id="g3"
     transform="matrix(-1,0,0,1,749.83225,433.73749)" />
</svg>
