<?xml version="1.0" encoding="UTF-8" standalone="no"?>
<svg
   width="1024"
   height="1024"
   viewBox="0 0 1024 1024"
   version="1.1"
   id="svg284"
   sodipodi:docname="Fuselage.svg"
   xml:space="preserve"
   inkscape:version="1.3.2 (091e20ef0f, 2023-11-25, custom)"
   xmlns:inkscape="http://www.inkscape.org/namespaces/inkscape"
   xmlns:sodipodi="http://sodipodi.sourceforge.net/DTD/sodipodi-0.dtd"
   xmlns:xlink="http://www.w3.org/1999/xlink"
   xmlns="http://www.w3.org/2000/svg"
   xmlns:svg="http://www.w3.org/2000/svg"><defs
     id="defs284"><linearGradient
       id="linearGradient300"
       inkscape:collect="always"><stop
         style="stop-color:#000000;stop-opacity:1;"
         offset="0"
         id="stop300" /><stop
         style="stop-color:#3f3f3f;stop-opacity:1;"
         offset="1"
         id="stop301" /></linearGradient><style
       id="style1">.cls-2{fill:#0033a1;}</style><linearGradient
       inkscape:collect="always"
       xlink:href="#linearGradient300"
       id="linearGradient301"
       x1="254.67999"
       y1="797.62109"
       x2="255.18066"
       y2="852.19336"
       gradientUnits="userSpaceOnUse" /><style
       id="style1-7">.cls-2{fill:#0033a1;}</style></defs><sodipodi:namedview
     id="namedview284"
     pagecolor="#505050"
     bordercolor="#ffffff"
     borderopacity="1"
     inkscape:showpageshadow="0"
     inkscape:pageopacity="0"
     inkscape:pagecheckerboard="1"
     inkscape:deskcolor="#d1d1d1"
     inkscape:zoom="0.43656277"
     inkscape:cx="1177.3794"
     inkscape:cy="459.26958"
     inkscape:window-width="1366"
     inkscape:window-height="724"
     inkscape:window-x="-1"
     inkscape:window-y="-1"
     inkscape:window-maximized="1"
     inkscape:current-layer="svg284" /><desc
     id="desc1">Boeing_985_121.blend, (Blender 3.3.9)</desc><rect
     style="opacity:1;fill:#ffffff;fill-opacity:1;stroke:#000000"
     id="rect308"
     width="1024"
     height="1024"
     x="0"
     y="0" /><path
     id="polygon1"
     style="fill:#b3b3b3;fill-opacity:1"
     d="m 766.65625,167.78711 -11.91992,24.13281 2.375,8.90235 -15.58203,43.95507 -14.59571,56.07227 -11.3457,66.35937 -20.51953,53.62891 -23.29492,44.70508 -98.99805,173.67383 -33.0918,56.53125 v 18.21289 48.56054 48.56055 18.21094 l 33.0918,-18.27344 0.084,-40.82226 96.79882,-64.18555 2.02344,57.79883 23.10352,-5.27735 18.56836,11.43946 9.92578,28.67187 7.24218,35.63672 6.44336,14.2168 0.83985,4.85156 8.76172,-0.39258 20.08984,0.0371 20.08984,-0.0371 4.32422,0.19336 5.2793,3.0625 6.44336,-21.93164 7.24219,-35.63672 9.92578,-28.67187 18.5664,-11.43946 25.52539,5.82813 1.87696,-59.47852 97.42578,65.88672 0.0781,41.84766 30.19727,16.67578 v -18.21094 -48.56055 -48.56054 -18.21289 l -30.19727,-51.58789 -99.45507,-173.9375 -25.73438,-49.38477 -20.51758,-53.62891 -11.3457,-66.35937 -14.59766,-56.07227 -15.58008,-43.95507 2.375,-8.90235 z"
     sodipodi:nodetypes="ccccccccccccccccccccccccccccccccccccccccccccccccccc" /><path
     id="polygon13"
     d="M 301.52148 429.41602 L 300.13281 576.22656 L 302.9707 717.51172 L 308.48438 769.97266 L 327.05078 758.5332 L 352.57617 764.36133 L 354.53711 702.24609 L 352.56445 702.25977 L 350.5918 702.27148 L 350.02539 617.54492 L 350.69336 510.57812 L 323.27344 467.83984 L 301.52148 429.41602 z "
     style="fill:#b3b3b3;fill-opacity:1" /><polygon
     stroke="black"
     stroke-width="1"
     fill="rgb(204, 204, 204)"
     fill-opacity="1"
     points="306.249,367.209 301.521,429.416 323.273,467.839 326.768,420.838 "
     id="polygon22"
     style="fill:#666666;fill-opacity:1" /><polygon
     stroke="black"
     stroke-width="1"
     fill="rgb(204, 204, 204)"
     fill-opacity="1"
     points="326.768,420.838 323.273,467.839 350.693,510.578 352.503,470.223 "
     id="polygon23"
     style="fill:#b3b3b3;fill-opacity:1" /><polygon
     stroke="black"
     stroke-width="1"
     fill="rgb(204, 204, 204)"
     fill-opacity="1"
     points="350.693,510.578 350.026,617.545 451.861,728.389 451.887,667.132 "
     id="polygon42" /><polygon
     stroke="black"
     stroke-width="1"
     fill="rgb(204, 204, 204)"
     fill-opacity="1"
     points="350.026,617.545 350.592,702.272 451.879,770.770 451.861,728.389 "
     id="polygon43" /><polygon
     stroke="black"
     stroke-width="1"
     fill="rgb(204, 204, 204)"
     fill-opacity="1"
     points="451.861,728.389 451.879,770.770 482.154,811.083 482.154,762.521 "
     id="polygon44" /><polygon
     stroke="black"
     stroke-width="1"
     fill="rgb(204, 204, 204)"
     fill-opacity="1"
     points="451.887,667.132 451.861,728.389 482.154,762.521 482.154,713.960 "
     id="polygon45" /><polygon
     stroke="black"
     stroke-width="1"
     fill="rgb(204, 204, 204)"
     fill-opacity="1"
     points="352.503,470.223 350.693,510.578 451.887,667.132 451.957,644.160 "
     id="polygon51" /><polygon
     stroke="black"
     stroke-width="1"
     fill="rgb(204, 204, 204)"
     fill-opacity="1"
     points="451.957,644.160 451.887,667.132 482.154,713.960 482.154,695.749 "
     id="polygon52" /><polygon
     stroke="black"
     stroke-width="1"
     fill="rgb(204, 204, 204)"
     fill-opacity="1"
     points="451.879,770.770 451.957,812.617 482.154,829.293 482.154,811.083 "
     id="polygon59" /><path
     id="polygon105"
     d="M 208.83984 429.41602 L 187.08789 467.83984 L 162.26758 506.52734 L 162.99023 614.99609 L 162.35156 703.24609 L 160.21875 703.23438 L 158.08398 703.2207 L 160.20312 763.81055 L 183.30859 758.5332 L 201.87695 769.97266 L 207.39062 717.51172 L 210.22852 576.22656 L 208.83984 429.41602 z "
     style="fill:#b3b3b3;fill-opacity:1" /><polygon
     stroke="black"
     stroke-width="1"
     fill="rgb(204, 204, 204)"
     fill-opacity="1"
     points="183.593,420.838 160.297,465.542 162.267,506.527 187.087,467.839 "
     id="polygon111"
     style="fill:#b3b3b3;fill-opacity:1" /><polygon
     stroke="black"
     stroke-width="1"
     fill="rgb(204, 204, 204)"
     fill-opacity="1"
     points="204.111,367.209 183.593,420.838 187.087,467.839 208.840,429.416 "
     id="polygon112"
     style="fill:#666666;fill-opacity:1" /><polygon
     stroke="black"
     stroke-width="1"
     fill="rgb(204, 204, 204)"
     fill-opacity="1"
     points="162.267,506.527 61.375,662.644 61.403,725.118 162.990,614.997 "
     id="polygon130" /><polygon
     stroke="black"
     stroke-width="1"
     fill="rgb(204, 204, 204)"
     fill-opacity="1"
     points="61.375,662.644 28.207,713.960 28.207,762.521 61.403,725.118 "
     id="polygon131" /><polygon
     stroke="black"
     stroke-width="1"
     fill="rgb(204, 204, 204)"
     fill-opacity="1"
     points="61.403,725.118 28.207,762.521 28.207,811.083 61.383,770.198 "
     id="polygon132" /><polygon
     stroke="black"
     stroke-width="1"
     fill="rgb(204, 204, 204)"
     fill-opacity="1"
     points="162.990,614.997 61.403,725.118 61.383,770.198 162.352,703.247 "
     id="polygon133" /><polygon
     stroke="black"
     stroke-width="1"
     fill="rgb(204, 204, 204)"
     fill-opacity="1"
     points="61.298,639.216 28.207,695.749 28.207,713.960 61.375,662.644 "
     id="polygon140" /><polygon
     stroke="black"
     stroke-width="1"
     fill="rgb(204, 204, 204)"
     fill-opacity="1"
     points="160.297,465.542 61.298,639.216 61.375,662.644 162.267,506.527 "
     id="polygon141" /><polygon
     stroke="black"
     stroke-width="1"
     fill="rgb(204, 204, 204)"
     fill-opacity="1"
     points="61.383,770.198 28.207,811.083 28.207,829.293 61.298,811.019 "
     id="polygon146" /><path
     id="polygon251"
     d="M 255.17969 795.25781 L 244.93359 799.48242 L 241.83594 819.60156 L 239.37695 852.19336 L 255.17969 852.19336 L 270.98438 852.19336 L 268.52539 819.60156 L 265.42773 799.48242 L 255.17969 795.25781 z "
     style="fill:url(#linearGradient301)" /><text
     xml:space="preserve"
     style="font-size:44.7995px;line-height:0;font-family:'TeX Gyre Heros';-inkscape-font-specification:'TeX Gyre Heros';text-decoration-color:#000000;letter-spacing:0px;word-spacing:0px;fill:#000000;stroke-width:0.224602;-inkscape-stroke:none;stop-color:#000000"
     x="-405.20081"
     y="603.50494"
     id="text4"
     transform="rotate(-39.637704)"><tspan
       sodipodi:role="line"
       id="tspan4"
       x="-405.20081"
       y="603.50494"
       style="font-style:normal;font-variant:normal;font-weight:normal;font-stretch:normal;font-family:AmarilloUSAF;-inkscape-font-specification:AmarilloUSAF;stroke-width:0.224602">USAF</tspan></text><text
     xml:space="preserve"
     style="font-size:41.6667px;line-height:0;font-family:'TeX Gyre Heros';-inkscape-font-specification:'TeX Gyre Heros';text-decoration-color:#000000;letter-spacing:0px;word-spacing:0px;fill:#000000;stroke-width:0.208894;-inkscape-stroke:none;stop-color:#000000"
     x="314.83633"
     y="741.52747"
     id="text5"><tspan
       sodipodi:role="line"
       id="tspan5"
       x="314.83633"
       y="741.52747"
       style="font-style:normal;font-variant:normal;font-weight:normal;font-stretch:normal;font-family:AmarilloUSAF;-inkscape-font-specification:AmarilloUSAF;stroke-width:0.208894">6</tspan></text><g
     id="g296"
     transform="matrix(0.43040167,0,0,0.43040167,1083.8036,-886.69946)"><rect
       style="fill:#1a1e3b;stroke-width:0.698211"
       x="1414.9415"
       y="3661.1125"
       height="25.135584"
       width="139.15439"
       id="rect1-6-6"
       transform="rotate(45)" /><circle
       fill="#1a1e3b"
       cx="1484.5187"
       cy="3675.6565"
       r="37.703377"
       id="circle1-2"
       transform="rotate(45)"
       style="stroke-width:0.698211" /><rect
       style="fill:#ffffff;stroke-width:0.698211"
       x="1419.1307"
       y="3665.302"
       height="16.757055"
       width="130.77586"
       id="rect2-9"
       transform="rotate(45)" /><rect
       style="fill:#8f1700;stroke-width:0.698211"
       x="1419.1307"
       y="3670.8877"
       height="5.5856853"
       width="130.77586"
       id="rect3-7-1"
       transform="rotate(45)" /><circle
       fill="#1a1e3b"
       cx="1484.5187"
       cy="3675.6565"
       r="33.514111"
       id="circle3-2"
       transform="rotate(45)"
       style="stroke-width:0.698211" /><polygon
       id="triangle-9"
       points="0.5,1 0,0 0,1 "
       transform="matrix(15.215089,29.861293,-29.861293,15.215089,-1525.6702,3625.0967)"
       style="fill:#ffffff" /><use
       xlink:href="#triangle-9"
       transform="matrix(0,-1.0000001,-1.0000001,0,2099.4264,2099.4266)"
       id="use3-3"
       x="0"
       y="0"
       style="fill:#ffffff" /><polygon
       id="polygon288"
       points="0,1 0.5,1 0,0 "
       transform="matrix(-23.698057,23.698055,-23.698055,-23.698057,-1519.507,3664.0097)"
       style="fill:#ffffff" /><use
       xlink:href="#triangle-9"
       transform="matrix(0.95105667,-0.30901699,-0.30901699,-0.95105667,1051.7079,6640.2236)"
       id="use288"
       x="0"
       y="0"
       style="fill:#ffffff" /><polygon
       id="polygon287"
       points="0,1 0.5,1 0,0 "
       transform="matrix(33.101498,-5.2427638,5.2427638,33.101498,-1564.5831,3618.9335)"
       style="fill:#ffffff" /><use
       xlink:href="#triangle-9"
       transform="matrix(-0.95105667,-0.30901699,-0.30901699,0.95105667,-1895.3653,-300.19628)"
       id="use287"
       x="0"
       y="0"
       style="fill:#ffffff" /><polygon
       id="polygon286"
       points="0,1 0.5,1 0,0 "
       transform="matrix(-29.861293,-15.215089,15.215089,-29.861293,-1554.6109,3681.8962)"
       style="fill:#ffffff" /><use
       xlink:href="#triangle-9"
       transform="matrix(0.58778534,0.80901711,0.80901711,-0.58778534,-3590.6093,7046.9676)"
       id="use286"
       x="0"
       y="0"
       style="fill:#ffffff" /><polygon
       id="polygon285"
       points="0,1 0.5,1 0,0 "
       transform="matrix(5.2427623,-33.101498,33.101498,5.2427623,-1582.4698,3654.0376)"
       style="fill:#ffffff" /><use
       xlink:href="#triangle-9"
       transform="matrix(-0.58778534,0.80901711,0.80901711,0.58778534,-5412.001,2757.5523)"
       id="use285"
       x="0"
       y="0"
       style="fill:#ffffff" /></g><g
     id="g300"><path
       id="rect296"
       style="opacity:1;stroke-width:0.585958"
       d="M 137.87619,504.87484 160.297,465.54199 v 85.14465 h -22.42081 z"
       sodipodi:nodetypes="ccccc" /><rect
       style="opacity:1;fill:#000000;stroke-width:0.585958"
       id="rect297"
       width="22.420815"
       height="85.144646"
       x="137.87619"
       y="556.17926" /><path
       id="rect298"
       style="opacity:1;stroke-width:0.585958"
       d="M 137.87619,646.81653 H 160.297 l 0,57.79311 -22.42081,14.8669 z"
       sodipodi:nodetypes="ccccc" /></g><g
     id="g299"
     transform="translate(1.7471025)"><path
       id="path298"
       style="opacity:1;stroke-width:0.585958"
       d="m 372.48449,504.87484 -22.42081,-39.33285 v 85.14465 h 22.42081 z"
       sodipodi:nodetypes="ccccc" /><rect
       style="opacity:1;fill:#000000;stroke-width:0.585958"
       id="rect299"
       width="22.420815"
       height="85.144646"
       x="-372.4845"
       y="556.17926"
       transform="scale(-1,1)" /><path
       id="path299"
       style="opacity:1;stroke-width:0.585958"
       d="m 372.48449,646.81653 h -22.42081 v 57.79311 l 22.42081,14.8669 z"
       sodipodi:nodetypes="ccccc" /></g><rect
     style="opacity:1;fill:none;fill-opacity:1;stroke:#000000;stroke-width:1.21245"
     id="rect301"
     width="90.005028"
     height="48.787552"
     x="210.02156"
     y="543.22296" /><rect
     style="opacity:1;fill:none;fill-opacity:1;stroke:#000000;stroke-width:1.21245"
     id="rect304"
     width="90.005028"
     height="48.787552"
     x="210.02156"
     y="616.25232" /><rect
     style="opacity:1;fill:none;fill-opacity:1;stroke:#000000;stroke-width:1.21245"
     id="rect305"
     width="90.005028"
     height="48.787552"
     x="210.02156"
     y="688.86713" /><text
     xml:space="preserve"
     style="font-size:11.2433px;line-height:0;font-family:'TeX Gyre Heros';-inkscape-font-specification:'TeX Gyre Heros';text-decoration-color:#000000;letter-spacing:0px;word-spacing:0px;fill:#000000;stroke-width:0.0563679;-inkscape-stroke:none;stop-color:#000000"
     x="-463.2243"
     y="401.89624"
     id="text306"
     transform="rotate(-57.952037)"><tspan
       sodipodi:role="line"
       id="tspan306"
       x="-463.2243"
       y="401.89624"
       style="font-style:normal;font-variant:normal;font-weight:bold;font-stretch:normal;font-family:'TeX Gyre Heros';-inkscape-font-specification:'TeX Gyre Heros Bold';stroke-width:0.0563679">NO STEP</tspan></text><text
     xml:space="preserve"
     style="font-size:7.76899px;line-height:0;font-family:'TeX Gyre Heros';-inkscape-font-specification:'TeX Gyre Heros';text-decoration-color:#000000;letter-spacing:0px;word-spacing:0px;fill:#000000;stroke-width:0.0389496;-inkscape-stroke:none;stop-color:#000000"
     x="164.4621"
     y="756.88055"
     id="text306-3"
     transform="rotate(0.04989759)"><tspan
       sodipodi:role="line"
       id="tspan306-6"
       x="164.4621"
       y="756.88055"
       style="font-style:normal;font-variant:normal;font-weight:bold;font-stretch:normal;font-family:'TeX Gyre Heros';-inkscape-font-specification:'TeX Gyre Heros Bold';stroke-width:0.0389496">NO STEP</tspan></text><text
     xml:space="preserve"
     style="font-size:11.2433px;line-height:0;font-family:'TeX Gyre Heros';-inkscape-font-specification:'TeX Gyre Heros';text-decoration-color:#000000;letter-spacing:0px;word-spacing:0px;fill:#000000;stroke-width:0.0563679;-inkscape-stroke:none;stop-color:#000000"
     x="684.61823"
     y="-34.012722"
     id="text307"
     transform="rotate(58.154897)"><tspan
       sodipodi:role="line"
       id="tspan307"
       x="684.61823"
       y="-34.012722"
       style="font-style:normal;font-variant:normal;font-weight:bold;font-stretch:normal;font-family:'TeX Gyre Heros';-inkscape-font-specification:'TeX Gyre Heros Bold';stroke-width:0.0563679">NO STEP</tspan></text><text
     xml:space="preserve"
     style="font-size:7.76899px;line-height:0;font-family:'TeX Gyre Heros';-inkscape-font-specification:'TeX Gyre Heros';text-decoration-color:#000000;letter-spacing:0px;word-spacing:0px;fill:#000000;stroke-width:0.0389496;-inkscape-stroke:none;stop-color:#000000"
     x="314.09726"
     y="756.75024"
     id="text308"
     transform="rotate(0.04989759)"><tspan
       sodipodi:role="line"
       id="tspan308"
       x="314.09726"
       y="756.75024"
       style="font-style:normal;font-variant:normal;font-weight:bold;font-stretch:normal;font-family:'TeX Gyre Heros';-inkscape-font-specification:'TeX Gyre Heros Bold';stroke-width:0.0389496">NO STEP</tspan></text><path
     id="polygon6"
     d="m 255.17969,167.78711 -11.91992,24.13281 -9.27539,41.76758 v 0.002 l -3.93165,11.08789 -14.5957,56.07227 -8.28125,54.08398 -3.06445,12.27539 0.39258,5.16993 4.33593,57.03711 1.38868,146.81054 -2.8379,141.28516 -5.51367,52.46094 9.92578,28.67187 7.24219,35.63672 8.49219,8.05859 -2.04883,6.15821 6.93164,-4.01758 v 0 l 0.1582,7.71289 h 6.79883 l 2.45899,-32.5918 3.09765,-20.11914 6.89063,-2.8418 3.35547,2.8418 3.35547,-2.8418 6.89257,2.8418 3.09766,20.11914 2.45899,32.5918 h 6.79687 l 0.16016,5e-5 6.93164,4.01953 6.44336,-21.93164 7.24218,-35.63672 9.92579,-28.67187 -5.51368,-52.46094 -2.83789,-141.28516 1.38867,-146.81054 4.33399,-57.04493 0.39258,-5.16211 -3.06055,-12.26562 -8.28516,-54.09375 -14.59375,-56.07227 -3.93164,-11.08984 -9.27539,-41.76758 z m -1.22266,627.97461 h 1.22266 1.22265 l 1.32227,0.54492 -2.54492,0.1543 -2.54492,-0.1543 z"
     style="fill:#b3b3b3;fill-opacity:1;stroke:#000000"
     sodipodi:nodetypes="ccccccccccccccccccccccccccccccccccccccccccccccccccccc" /><path
     style="fill:#000000;fill-opacity:1;stroke:none;stroke-width:1px;stroke-linecap:butt;stroke-linejoin:miter;stroke-opacity:1"
     d="m 222.75488,272.81353 7.98238,-29.96662 3.24712,-9.15741 9.27539,-41.76958 11.91992,-24.13281 11.92187,24.13291 9.27539,41.76758 3.93164,11.08984 7.29687,28.03614 z"
     id="path301"
     sodipodi:nodetypes="cccccccccc" /><path
     style="fill:#000000;stroke:none;stroke-width:1px;stroke-linecap:butt;stroke-linejoin:miter;stroke-opacity:1"
     d="m 757.11133,200.82227 9.54589,-13.39656 9.5459,13.39656 2.375,-8.90235 -11.92187,-24.13281 -11.91992,24.13281 z"
     id="path33" /></svg>
