<?xml version="1.0" standalone="no"?>
<!DOCTYPE svg PUBLIC "-//W3C//DTD SVG 1.1//EN" 
  "http://www.w3.org/Graphics/SVG/1.1/DTD/svg11.dtd">
<svg width="1024" height="1024" viewBox="0 0 1024 1024"
     xmlns="http://www.w3.org/2000/svg" version="1.1">
<desc>Boeing_747_cockpit.blend, (Blender 3.3.9)</desc>
<polygon stroke="black" stroke-width="1" fill="rgb(204, 204, 204)" fill-opacity="1" points="488.041,848.378 339.458,727.720 303.263,816.346 486.352,850.831 " />
<polygon stroke="black" stroke-width="1" fill="rgb(204, 204, 204)" fill-opacity="1" points="486.352,850.831 303.263,816.346 313.336,909.080 486.179,853.772 " />
<polygon stroke="black" stroke-width="1" fill="rgb(204, 204, 204)" fill-opacity="1" points="486.179,853.772 313.336,909.080 364.750,983.732 487.517,856.451 " />
<polygon stroke="black" stroke-width="1" fill="rgb(204, 204, 204)" fill-opacity="1" points="487.517,856.451 364.750,983.732 442.959,1024.000 490.051,858.188 " />
<polygon stroke="black" stroke-width="1" fill="rgb(204, 204, 204)" fill-opacity="1" points="490.051,858.188 442.959,1024.000 528.249,1022.879 493.183,858.509 " />
<polygon stroke="black" stroke-width="1" fill="rgb(204, 204, 204)" fill-opacity="1" points="493.183,858.509 528.249,1022.879 600.849,983.456 496.139,857.266 " />
<polygon stroke="black" stroke-width="1" fill="rgb(204, 204, 204)" fill-opacity="1" points="496.139,857.266 600.849,983.456 645.551,917.335 498.138,854.706 " />
<polygon stroke="black" stroke-width="1" fill="rgb(204, 204, 204)" fill-opacity="1" points="498.138,854.706 645.551,917.335 645.551,826.843 614.710,833.008 600.955,835.447 499.647,850.798 499.060,850.958 497.853,851.326 " />
<polygon stroke="black" stroke-width="1" fill="rgb(204, 204, 204)" fill-opacity="1" points="497.853,851.326 499.060,850.958 497.130,847.765 496.336,848.621 " />
<polygon stroke="black" stroke-width="1" fill="rgb(204, 204, 204)" fill-opacity="1" points="496.336,848.621 497.130,847.765 494.075,846.160 493.844,847.155 " />
<polygon stroke="black" stroke-width="1" fill="rgb(204, 204, 204)" fill-opacity="1" points="418.442,568.969 418.442,609.779 438.846,645.121 474.189,665.526 514.999,665.526 550.341,645.121 570.746,609.779 570.746,568.969 550.341,533.626 514.999,513.222 474.189,513.222 438.846,533.626 " />
<polygon stroke="black" stroke-width="1" fill="rgb(204, 204, 204)" fill-opacity="1" points="493.844,847.155 494.075,846.160 494.184,845.644 512.261,730.450 516.997,715.544 530.292,679.806 414.899,665.526 490.889,847.150 " />
<polygon stroke="black" stroke-width="1" fill="rgb(204, 204, 204)" fill-opacity="1" points="490.889,847.150 414.899,665.526 339.458,727.720 488.041,848.378 " />
<polygon stroke="black" stroke-width="1" fill="rgb(204, 204, 204)" fill-opacity="1" points="570.746,416.664 550.341,381.322 514.999,360.917 474.189,360.917 438.846,381.322 418.442,416.664 418.442,457.474 438.846,492.817 474.189,513.222 514.999,513.222 550.341,492.817 570.746,457.474 " />
<polygon stroke="black" stroke-width="1" fill="rgb(204, 204, 204)" fill-opacity="1" points="494.184,845.644 497.509,847.362 573.279,772.121 512.261,730.450 " />
<polygon stroke="black" stroke-width="1" fill="rgb(204, 204, 204)" fill-opacity="1" points="497.509,847.362 499.647,850.798 600.955,835.447 573.279,772.121 " />
<polygon stroke="black" stroke-width="1" fill="rgb(204, 204, 204)" fill-opacity="1" points="418.442,356.537 459.251,356.537 459.251,350.762 418.442,350.762 " />
<polygon stroke="black" stroke-width="1" fill="rgb(204, 204, 204)" fill-opacity="1" points="459.251,356.537 500.061,356.537 500.061,350.762 459.251,350.762 " />
<polygon stroke="black" stroke-width="1" fill="rgb(204, 204, 204)" fill-opacity="1" points="516.997,715.544 584.146,762.852 610.763,741.752 530.292,679.806 " />
<polygon stroke="black" stroke-width="1" fill="rgb(204, 204, 204)" fill-opacity="1" points="584.146,762.852 614.710,833.008 645.551,826.843 610.763,741.752 " />
<polygon stroke="black" stroke-width="1" fill="rgb(204, 204, 204)" fill-opacity="1" points="563.233,279.298 563.233,320.107 570.746,320.107 570.746,279.298 " />
<polygon stroke="black" stroke-width="1" fill="rgb(204, 204, 204)" fill-opacity="1" points="563.233,320.107 563.233,360.917 570.746,360.917 570.746,320.107 " />
<polygon stroke="black" stroke-width="1" fill="rgb(204, 204, 204)" fill-opacity="1" points="163.607,372.368 294.888,366.834 303.263,249.058 171.983,254.593 " />
<polygon stroke="black" stroke-width="1" fill="rgb(204, 204, 204)" fill-opacity="1" points="562.952,356.537 530.703,356.537 530.703,360.917 562.952,360.917 " />
<polygon stroke="black" stroke-width="1" fill="rgb(204, 204, 204)" fill-opacity="1" points="167.572,919.385 298.853,913.851 282.913,535.762 151.632,541.296 " />
<polygon stroke="black" stroke-width="1" fill="rgb(204, 204, 204)" fill-opacity="1" points="639.749,556.820 576.444,563.904 570.746,569.273 644.532,562.204 " />
<polygon stroke="black" stroke-width="1" fill="rgb(204, 204, 204)" fill-opacity="1" points="151.632,541.296 282.913,535.762 294.888,366.834 163.607,372.368 " />
<polygon stroke="black" stroke-width="1" fill="rgb(204, 204, 204)" fill-opacity="1" points="875.974,358.474 875.974,476.547 886.444,645.575 991.152,645.575 991.152,358.474 " />
<polygon stroke="black" stroke-width="1" fill="rgb(204, 204, 204)" fill-opacity="1" points="602.996,473.306 602.996,393.295 570.746,393.295 570.746,396.734 599.959,396.734 599.959,469.171 570.746,469.170 570.746,473.305 " />
<polygon stroke="black" stroke-width="1" fill="rgb(204, 204, 204)" fill-opacity="1" points="848.760,573.014 835.614,546.470 831.472,645.582 865.502,645.582 859.279,619.046 846.534,619.046 " />
<polygon stroke="black" stroke-width="1" fill="rgb(204, 204, 204)" fill-opacity="1" points="20.351,903.389 15.499,1018.465 146.780,1024.000 151.632,908.924 " />
<polygon stroke="black" stroke-width="1" fill="rgb(204, 204, 204)" fill-opacity="1" points="650.791,376.525 715.192,376.529 720.427,358.468 645.556,358.466 " />
<polygon stroke="black" stroke-width="1" fill="rgb(204, 204, 204)" fill-opacity="1" points="407.971,287.101 303.263,287.101 303.263,665.526 407.971,665.526 " />
<polygon stroke="black" stroke-width="1" fill="rgb(204, 204, 204)" fill-opacity="1" points="638.834,478.674 639.749,556.820 644.532,562.204 644.532,473.306 " />
<polygon stroke="black" stroke-width="1" fill="rgb(204, 204, 204)" fill-opacity="1" points="576.444,563.904 575.529,485.759 570.746,480.374 570.746,569.273 " />
<polygon stroke="black" stroke-width="1" fill="rgb(204, 204, 204)" fill-opacity="1" points="575.529,485.759 638.834,478.674 644.532,473.306 570.746,480.374 " />
<polygon stroke="black" stroke-width="1" fill="rgb(204, 204, 204)" fill-opacity="1" points="450.692,356.537 418.442,356.537 418.442,360.917 450.692,360.917 " />
<polygon stroke="black" stroke-width="1" fill="rgb(204, 204, 204)" fill-opacity="1" points="690.065,645.577 760.742,645.574 760.742,457.486 728.494,457.485 728.510,377.473 760.760,377.439 760.740,358.426 720.427,358.468 715.192,376.529 715.177,458.484 650.787,458.483 650.791,376.525 645.556,358.466 645.551,476.543 656.035,645.578 662.256,619.042 659.401,573.016 672.772,573.008 675.002,619.041 " />
<polygon stroke="black" stroke-width="1" fill="rgb(204, 204, 204)" fill-opacity="1" points="530.703,356.537 450.692,356.537 450.692,360.917 530.703,360.917 " />
<polygon stroke="black" stroke-width="1" fill="rgb(204, 204, 204)" fill-opacity="1" points="886.444,645.575 886.444,1024.000 991.152,1024.000 991.152,645.575 " />
<polygon stroke="black" stroke-width="1" fill="rgb(204, 204, 204)" fill-opacity="1" points="641.372,473.306 643.725,444.188 641.979,444.047 639.626,473.165 " />
<polygon stroke="black" stroke-width="1" fill="rgb(204, 204, 204)" fill-opacity="1" points="635.246,393.295 602.996,393.295 602.996,473.306 635.246,473.305 635.246,469.170 606.033,469.171 606.033,396.734 635.246,396.734 " />
<polygon stroke="black" stroke-width="1" fill="rgb(204, 204, 204)" fill-opacity="1" points="171.982,1024.000 303.263,1018.465 298.853,913.851 167.572,919.385 " />
<polygon stroke="black" stroke-width="1" fill="rgb(204, 204, 204)" fill-opacity="1" points="20.351,133.982 15.940,238.597 147.221,244.131 151.632,139.517 " />
<polygon stroke="black" stroke-width="1" fill="rgb(204, 204, 204)" fill-opacity="1" points="643.725,444.188 641.372,371.790 639.626,371.649 641.979,444.047 " />
<polygon stroke="black" stroke-width="1" fill="rgb(204, 204, 204)" fill-opacity="1" points="641.372,371.790 643.725,342.672 641.979,342.531 639.626,371.649 " />
<polygon stroke="black" stroke-width="1" fill="rgb(204, 204, 204)" fill-opacity="1" points="586.841,348.882 587.239,389.655 589.504,392.827 589.504,346.211 " />
<polygon stroke="black" stroke-width="1" fill="rgb(204, 204, 204)" fill-opacity="1" points="675.002,619.041 662.256,619.042 656.035,645.578 690.065,645.577 " />
<polygon stroke="black" stroke-width="1" fill="rgb(204, 204, 204)" fill-opacity="1" points="621.615,393.295 621.615,347.210 608.261,346.571 608.885,392.679 " />
<polygon stroke="black" stroke-width="1" fill="rgb(204, 204, 204)" fill-opacity="1" points="587.239,389.655 573.437,390.642 570.746,393.295 589.504,392.827 " />
<polygon stroke="black" stroke-width="1" fill="rgb(204, 204, 204)" fill-opacity="1" points="573.595,349.838 586.841,348.882 589.504,346.211 571.366,346.647 " />
<polygon stroke="black" stroke-width="1" fill="rgb(204, 204, 204)" fill-opacity="1" points="573.437,390.642 573.595,349.838 571.366,346.647 570.746,393.295 " />
<polygon stroke="black" stroke-width="1" fill="rgb(204, 204, 204)" fill-opacity="1" points="650.807,285.040 650.807,275.362 648.179,275.362 648.179,285.040 " />
<polygon stroke="black" stroke-width="1" fill="rgb(204, 204, 204)" fill-opacity="1" points="650.807,333.575 650.807,285.040 648.179,285.040 648.179,333.575 " />
<polygon stroke="black" stroke-width="1" fill="rgb(204, 204, 204)" fill-opacity="1" points="793.007,377.479 803.703,367.494 806.325,376.528 870.738,376.533 875.974,358.474 760.769,358.454 760.760,377.464 " />
<polygon stroke="black" stroke-width="1" fill="rgb(204, 204, 204)" fill-opacity="1" points="650.807,275.362 650.807,259.337 648.179,259.337 648.179,275.362 " />
<polygon stroke="black" stroke-width="1" fill="rgb(204, 204, 204)" fill-opacity="1" points="650.807,342.801 650.807,333.575 648.179,333.575 648.179,342.801 " />
<polygon stroke="black" stroke-width="1" fill="rgb(204, 204, 204)" fill-opacity="1" points="650.807,358.426 650.807,342.801 648.179,342.801 648.179,358.426 " />
<polygon stroke="black" stroke-width="1" fill="rgb(204, 204, 204)" fill-opacity="1" points="11.976,785.614 20.351,903.389 151.632,908.924 143.257,791.148 " />
<polygon stroke="black" stroke-width="1" fill="rgb(204, 204, 204)" fill-opacity="1" points="15.940,238.597 0.000,616.685 131.281,622.220 147.221,244.131 " />
<polygon stroke="black" stroke-width="1" fill="rgb(204, 204, 204)" fill-opacity="1" points="575.379,659.047 570.746,665.526 644.989,657.625 639.389,653.245 " />
<polygon stroke="black" stroke-width="1" fill="rgb(204, 204, 204)" fill-opacity="1" points="0.000,616.685 11.976,785.614 143.257,791.148 131.281,622.220 " />
<polygon stroke="black" stroke-width="1" fill="rgb(204, 204, 204)" fill-opacity="1" points="171.983,254.593 303.263,249.058 300.110,174.259 298.412,133.982 167.131,139.517 " />
<polygon stroke="black" stroke-width="1" fill="rgb(204, 204, 204)" fill-opacity="1" points="418.442,0.000 303.263,0.000 303.263,287.101 407.971,287.101 418.442,118.073 " />
<polygon stroke="black" stroke-width="1" fill="rgb(204, 204, 204)" fill-opacity="1" points="806.325,376.528 803.703,367.494 793.007,377.479 793.031,457.492 760.783,457.495 760.797,645.584 831.472,645.582 835.614,546.470 848.760,573.014 862.130,573.021 859.279,619.046 865.502,645.582 875.974,476.549 875.974,358.474 870.738,376.533 870.738,458.490 806.348,458.491 " />
<polygon stroke="black" stroke-width="1" fill="rgb(204, 204, 204)" fill-opacity="1" points="760.749,784.051 744.724,784.047 739.102,776.169 739.099,727.634 745.120,720.644 760.745,720.643 760.742,645.574 690.065,645.577 656.035,645.578 656.054,1024.000 760.760,1023.995 " />
<polygon stroke="black" stroke-width="1" fill="rgb(204, 204, 204)" fill-opacity="1" points="576.346,581.553 570.746,577.174 570.746,665.526 575.379,659.047 " />
<polygon stroke="black" stroke-width="1" fill="rgb(204, 204, 204)" fill-opacity="1" points="639.389,653.245 644.989,657.625 644.989,569.273 640.355,575.752 " />
<polygon stroke="black" stroke-width="1" fill="rgb(204, 204, 204)" fill-opacity="1" points="640.355,575.752 644.989,569.273 570.746,577.174 576.346,581.553 " />
<polygon stroke="black" stroke-width="1" fill="rgb(204, 204, 204)" fill-opacity="1" points="639.626,441.056 635.246,441.056 635.246,473.306 639.626,473.306 " />
<polygon stroke="black" stroke-width="1" fill="rgb(204, 204, 204)" fill-opacity="1" points="639.626,361.045 635.246,361.045 635.246,441.056 639.626,441.056 " />
<polygon stroke="black" stroke-width="1" fill="rgb(204, 204, 204)" fill-opacity="1" points="762.507,227.679 760.760,227.820 763.113,256.938 764.859,256.797 " />
<polygon stroke="black" stroke-width="1" fill="rgb(204, 204, 204)" fill-opacity="1" points="635.246,328.795 635.246,361.045 639.626,361.045 639.626,328.795 " />
<polygon stroke="black" stroke-width="1" fill="rgb(204, 204, 204)" fill-opacity="1" points="764.859,256.797 763.113,256.938 760.760,329.336 762.506,329.195 " />
<polygon stroke="black" stroke-width="1" fill="rgb(204, 204, 204)" fill-opacity="1" points="762.506,329.195 760.760,329.336 763.113,358.454 764.859,358.313 " />
<polygon stroke="black" stroke-width="1" fill="rgb(204, 204, 204)" fill-opacity="1" points="605.599,390.624 608.261,393.295 608.261,346.679 605.996,349.851 " />
<polygon stroke="black" stroke-width="1" fill="rgb(204, 204, 204)" fill-opacity="1" points="635.246,346.571 622.515,347.187 621.892,393.295 635.246,392.656 " />
<polygon stroke="black" stroke-width="1" fill="rgb(204, 204, 204)" fill-opacity="1" points="605.996,349.851 608.261,346.679 589.504,346.211 592.195,348.864 " />
<polygon stroke="black" stroke-width="1" fill="rgb(204, 204, 204)" fill-opacity="1" points="592.352,389.668 590.124,392.859 608.261,393.295 605.599,390.624 " />
<polygon stroke="black" stroke-width="1" fill="rgb(204, 204, 204)" fill-opacity="1" points="592.195,348.864 589.504,346.211 590.124,392.859 592.352,389.668 " />
<polygon stroke="black" stroke-width="1" fill="rgb(204, 204, 204)" fill-opacity="1" points="648.179,332.723 645.551,332.723 645.551,342.401 648.179,342.401 " />
<polygon stroke="black" stroke-width="1" fill="rgb(204, 204, 204)" fill-opacity="1" points="782.445,776.176 776.823,784.054 760.799,784.059 760.803,1024.000 865.508,1023.998 865.502,645.582 831.472,645.582 760.797,645.584 760.798,720.652 776.423,720.652 782.444,727.642 " />
<polygon stroke="black" stroke-width="1" fill="rgb(204, 204, 204)" fill-opacity="1" points="648.179,284.188 645.551,284.188 645.551,332.723 648.179,332.723 " />
<polygon stroke="black" stroke-width="1" fill="rgb(204, 204, 204)" fill-opacity="1" points="648.179,342.401 645.551,342.401 645.551,358.426 648.179,358.426 " />
<polygon stroke="black" stroke-width="1" fill="rgb(204, 204, 204)" fill-opacity="1" points="648.179,274.962 645.551,274.962 645.551,284.188 648.179,284.188 " />
<polygon stroke="black" stroke-width="1" fill="rgb(204, 204, 204)" fill-opacity="1" points="648.179,259.337 645.551,259.337 645.551,274.962 648.179,274.962 " />

</svg>
