<?xml version="1.0" standalone="no"?>
<!DOCTYPE svg PUBLIC "-//W3C//DTD SVG 1.1//EN" 
  "http://www.w3.org/Graphics/SVG/1.1/DTD/svg11.dtd">
<svg width="1024" height="1024" viewBox="0 0 1024 1024"
     xmlns="http://www.w3.org/2000/svg" version="1.1">
<desc>Boeing_747SP.blend, (Blender 3.3.9)</desc>
<polygon stroke="black" stroke-width="1" fill="rgb(204, 204, 204)" fill-opacity="1" points="503.691,222.015 456.777,232.118 456.777,278.179 503.691,272.683 " />
<polygon stroke="black" stroke-width="1" fill="rgb(204, 204, 204)" fill-opacity="1" points="503.691,272.683 456.777,278.179 456.777,332.608 503.691,332.554 " />
<polygon stroke="black" stroke-width="1" fill="rgb(204, 204, 204)" fill-opacity="1" points="503.691,332.554 456.777,332.608 456.777,387.117 503.691,392.515 " />
<polygon stroke="black" stroke-width="1" fill="rgb(204, 204, 204)" fill-opacity="1" points="503.691,392.515 456.777,387.117 456.777,433.410 503.691,443.437 " />
<polygon stroke="black" stroke-width="1" fill="rgb(204, 204, 204)" fill-opacity="1" points="929.261,1019.568 977.644,1011.661 972.459,960.368 923.557,963.147 " />
<polygon stroke="black" stroke-width="1" fill="rgb(204, 204, 204)" fill-opacity="1" points="923.557,963.147 972.459,960.368 972.459,904.831 923.557,902.056 " />
<polygon stroke="black" stroke-width="1" fill="rgb(204, 204, 204)" fill-opacity="1" points="923.557,902.056 972.459,904.831 977.644,853.505 929.261,845.598 " />
<polygon stroke="black" stroke-width="1" fill="rgb(204, 204, 204)" fill-opacity="1" points="627.477,127.886 580.562,135.654 580.562,187.210 627.477,184.598 " />
<polygon stroke="black" stroke-width="1" fill="rgb(204, 204, 204)" fill-opacity="1" points="627.477,184.598 580.562,187.210 580.562,242.743 627.477,245.684 " />
<polygon stroke="black" stroke-width="1" fill="rgb(204, 204, 204)" fill-opacity="1" points="627.477,245.684 580.562,242.743 580.562,293.799 627.477,301.845 " />
<polygon stroke="black" stroke-width="1" fill="rgb(204, 204, 204)" fill-opacity="1" points="627.477,301.845 580.562,293.799 580.562,332.605 627.477,344.532 " />
<polygon stroke="black" stroke-width="1" fill="rgb(204, 204, 204)" fill-opacity="1" points="298.308,443.437 345.222,430.321 345.222,399.184 298.308,409.187 " />
<polygon stroke="black" stroke-width="1" fill="rgb(204, 204, 204)" fill-opacity="1" points="298.308,409.187 345.222,399.184 345.222,352.819 298.308,358.185 " />
<polygon stroke="black" stroke-width="1" fill="rgb(204, 204, 204)" fill-opacity="1" points="298.308,358.185 345.222,352.819 345.222,298.284 298.308,298.197 " />
<polygon stroke="black" stroke-width="1" fill="rgb(204, 204, 204)" fill-opacity="1" points="292.497,619.670 313.750,670.979 353.021,710.250 404.330,731.503 459.867,731.503 511.176,710.250 550.446,670.979 571.699,619.670 571.699,564.133 550.447,512.824 511.176,473.553 459.866,452.300 404.330,452.300 353.020,473.553 313.750,512.824 292.497,564.133 " />
<polygon stroke="black" stroke-width="1" fill="rgb(204, 204, 204)" fill-opacity="1" points="298.308,298.197 345.222,298.284 345.222,243.882 298.308,238.354 " />
<polygon stroke="black" stroke-width="1" fill="rgb(204, 204, 204)" fill-opacity="1" points="298.308,238.354 345.222,243.882 345.222,197.894 298.308,187.768 " />
<polygon stroke="black" stroke-width="1" fill="rgb(204, 204, 204)" fill-opacity="1" points="134.711,430.776 158.107,407.380 170.769,376.812 170.769,343.726 158.107,313.158 134.712,289.762 104.144,277.100 71.058,277.100 40.489,289.761 17.094,313.157 4.432,343.724 4.432,376.811 17.093,407.379 40.488,430.775 71.056,443.437 104.143,443.437 " />
<polygon stroke="black" stroke-width="1" fill="rgb(204, 204, 204)" fill-opacity="1" points="251.394,243.882 298.308,238.354 298.308,187.768 251.394,197.894 " />
<polygon stroke="black" stroke-width="1" fill="rgb(204, 204, 204)" fill-opacity="1" points="251.394,298.284 298.308,298.197 298.308,238.354 251.394,243.882 " />
<polygon stroke="black" stroke-width="1" fill="rgb(204, 204, 204)" fill-opacity="1" points="251.394,352.819 298.308,358.185 298.308,298.197 251.394,298.284 " />
<polygon stroke="black" stroke-width="1" fill="rgb(204, 204, 204)" fill-opacity="1" points="251.394,399.184 298.308,409.187 298.308,358.185 251.394,352.819 " />
<polygon stroke="black" stroke-width="1" fill="rgb(204, 204, 204)" fill-opacity="1" points="251.394,430.321 298.308,443.437 298.308,409.187 251.394,399.184 " />
<polygon stroke="black" stroke-width="1" fill="rgb(204, 204, 204)" fill-opacity="1" points="674.391,293.799 627.477,301.845 627.477,344.532 674.391,332.605 " />
<polygon stroke="black" stroke-width="1" fill="rgb(204, 204, 204)" fill-opacity="1" points="674.391,242.743 627.477,245.684 627.477,301.845 674.391,293.799 " />
<polygon stroke="black" stroke-width="1" fill="rgb(204, 204, 204)" fill-opacity="1" points="674.391,187.210 627.477,184.598 627.477,245.684 674.391,242.743 " />
<polygon stroke="black" stroke-width="1" fill="rgb(204, 204, 204)" fill-opacity="1" points="674.391,135.654 627.477,127.886 627.477,184.598 674.391,187.210 " />
<polygon stroke="black" stroke-width="1" fill="rgb(204, 204, 204)" fill-opacity="1" points="881.466,904.813 923.557,902.056 929.261,845.598 886.651,853.487 " />
<polygon stroke="black" stroke-width="1" fill="rgb(204, 204, 204)" fill-opacity="1" points="881.466,960.349 923.557,963.147 923.557,902.056 881.466,904.813 " />
<polygon stroke="black" stroke-width="1" fill="rgb(204, 204, 204)" fill-opacity="1" points="886.651,1011.642 929.261,1019.568 923.557,963.147 881.466,960.349 " />
<polygon stroke="black" stroke-width="1" fill="rgb(204, 204, 204)" fill-opacity="1" points="550.605,387.118 503.691,392.515 503.691,443.437 550.605,433.410 " />
<polygon stroke="black" stroke-width="1" fill="rgb(204, 204, 204)" fill-opacity="1" points="550.605,332.608 503.691,332.554 503.691,392.515 550.605,387.118 " />
<polygon stroke="black" stroke-width="1" fill="rgb(204, 204, 204)" fill-opacity="1" points="550.605,278.179 503.691,272.683 503.691,332.554 550.605,332.608 " />
<polygon stroke="black" stroke-width="1" fill="rgb(204, 204, 204)" fill-opacity="1" points="550.605,232.118 503.691,222.015 503.691,272.683 550.605,278.179 " />
<polygon stroke="black" stroke-width="1" fill="rgb(204, 204, 204)" fill-opacity="1" points="32.648,569.746 49.605,528.807 25.684,512.823 4.432,564.133 " />
<polygon stroke="black" stroke-width="1" fill="rgb(204, 204, 204)" fill-opacity="1" points="32.648,614.057 32.648,569.746 4.432,564.133 4.432,619.670 " />
<polygon stroke="black" stroke-width="1" fill="rgb(204, 204, 204)" fill-opacity="1" points="49.605,654.996 32.648,614.057 4.432,619.670 25.684,670.979 " />
<polygon stroke="black" stroke-width="1" fill="rgb(204, 204, 204)" fill-opacity="1" points="80.938,686.329 49.605,654.996 25.684,670.979 64.955,710.250 " />
<polygon stroke="black" stroke-width="1" fill="rgb(204, 204, 204)" fill-opacity="1" points="121.877,703.286 80.938,686.329 64.955,710.250 116.264,731.503 " />
<polygon stroke="black" stroke-width="1" fill="rgb(204, 204, 204)" fill-opacity="1" points="166.188,703.286 121.877,703.286 116.264,731.503 171.801,731.503 " />
<polygon stroke="black" stroke-width="1" fill="rgb(204, 204, 204)" fill-opacity="1" points="207.127,686.329 166.188,703.286 171.801,731.503 223.110,710.250 " />
<polygon stroke="black" stroke-width="1" fill="rgb(204, 204, 204)" fill-opacity="1" points="238.460,654.996 207.127,686.329 223.110,710.250 262.381,670.979 " />
<polygon stroke="black" stroke-width="1" fill="rgb(204, 204, 204)" fill-opacity="1" points="255.418,614.057 238.460,654.996 262.381,670.979 283.634,619.670 " />
<polygon stroke="black" stroke-width="1" fill="rgb(204, 204, 204)" fill-opacity="1" points="255.417,569.746 255.418,614.057 283.634,619.670 283.634,564.133 " />
<polygon stroke="black" stroke-width="1" fill="rgb(204, 204, 204)" fill-opacity="1" points="238.460,528.807 255.417,569.746 283.634,564.133 262.381,512.824 " />
<polygon stroke="black" stroke-width="1" fill="rgb(204, 204, 204)" fill-opacity="1" points="207.127,497.474 238.460,528.807 262.381,512.824 223.110,473.553 " />
<polygon stroke="black" stroke-width="1" fill="rgb(204, 204, 204)" fill-opacity="1" points="166.189,480.516 207.127,497.474 223.110,473.553 171.801,452.300 " />
<polygon stroke="black" stroke-width="1" fill="rgb(204, 204, 204)" fill-opacity="1" points="121.877,480.517 166.189,480.516 171.801,452.300 116.264,452.300 " />
<polygon stroke="black" stroke-width="1" fill="rgb(204, 204, 204)" fill-opacity="1" points="80.938,497.474 121.877,480.517 116.264,452.300 64.955,473.553 " />
<polygon stroke="black" stroke-width="1" fill="rgb(204, 204, 204)" fill-opacity="1" points="49.605,528.807 80.938,497.474 64.955,473.553 25.684,512.823 " />
<polygon stroke="black" stroke-width="1" fill="rgb(204, 204, 204)" fill-opacity="1" points="73.525,544.790 96.922,521.395 80.938,497.474 49.605,528.807 " />
<polygon stroke="black" stroke-width="1" fill="rgb(204, 204, 204)" fill-opacity="1" points="96.922,521.395 127.489,508.733 121.877,480.517 80.938,497.474 " />
<polygon stroke="black" stroke-width="1" fill="rgb(204, 204, 204)" fill-opacity="1" points="127.489,508.733 160.576,508.733 166.189,480.516 121.877,480.517 " />
<polygon stroke="black" stroke-width="1" fill="rgb(204, 204, 204)" fill-opacity="1" points="160.576,508.733 191.144,521.395 207.127,497.474 166.189,480.516 " />
<polygon stroke="black" stroke-width="1" fill="rgb(204, 204, 204)" fill-opacity="1" points="191.144,521.395 214.540,544.790 238.460,528.807 207.127,497.474 " />
<polygon stroke="black" stroke-width="1" fill="rgb(204, 204, 204)" fill-opacity="1" points="214.540,544.790 227.202,575.358 255.417,569.746 238.460,528.807 " />
<polygon stroke="black" stroke-width="1" fill="rgb(204, 204, 204)" fill-opacity="1" points="227.202,575.358 227.201,608.445 255.418,614.057 255.417,569.746 " />
<polygon stroke="black" stroke-width="1" fill="rgb(204, 204, 204)" fill-opacity="1" points="227.201,608.445 214.540,639.013 238.460,654.996 255.418,614.057 " />
<polygon stroke="black" stroke-width="1" fill="rgb(204, 204, 204)" fill-opacity="1" points="214.540,639.013 191.144,662.408 207.127,686.329 238.460,654.996 " />
<polygon stroke="black" stroke-width="1" fill="rgb(204, 204, 204)" fill-opacity="1" points="191.144,662.408 160.576,675.070 166.188,703.286 207.127,686.329 " />
<polygon stroke="black" stroke-width="1" fill="rgb(204, 204, 204)" fill-opacity="1" points="160.576,675.070 127.489,675.070 121.877,703.286 166.188,703.286 " />
<polygon stroke="black" stroke-width="1" fill="rgb(204, 204, 204)" fill-opacity="1" points="127.489,675.070 96.921,662.408 80.938,686.329 121.877,703.286 " />
<polygon stroke="black" stroke-width="1" fill="rgb(204, 204, 204)" fill-opacity="1" points="96.921,662.408 73.526,639.013 49.605,654.996 80.938,686.329 " />
<polygon stroke="black" stroke-width="1" fill="rgb(204, 204, 204)" fill-opacity="1" points="73.526,639.013 60.864,608.445 32.648,614.057 49.605,654.996 " />
<polygon stroke="black" stroke-width="1" fill="rgb(204, 204, 204)" fill-opacity="1" points="60.864,608.445 60.864,575.358 32.648,569.746 32.648,614.057 " />
<polygon stroke="black" stroke-width="1" fill="rgb(204, 204, 204)" fill-opacity="1" points="60.864,575.358 73.525,544.790 49.605,528.807 32.648,569.746 " />
<polygon stroke="black" stroke-width="1" fill="rgb(204, 204, 204)" fill-opacity="1" points="400.999,187.768 354.085,197.894 354.085,243.882 400.999,238.354 " />
<polygon stroke="black" stroke-width="1" fill="rgb(204, 204, 204)" fill-opacity="1" points="400.999,238.354 354.085,243.882 354.085,298.284 400.999,298.197 " />
<polygon stroke="black" stroke-width="1" fill="rgb(204, 204, 204)" fill-opacity="1" points="400.999,298.197 354.085,298.284 354.085,352.819 400.999,358.185 " />
<polygon stroke="black" stroke-width="1" fill="rgb(204, 204, 204)" fill-opacity="1" points="400.999,358.185 354.085,352.819 354.085,399.184 400.999,409.187 " />
<polygon stroke="black" stroke-width="1" fill="rgb(204, 204, 204)" fill-opacity="1" points="400.999,409.187 354.085,399.184 354.085,430.321 400.999,443.437 " />
<polygon stroke="black" stroke-width="1" fill="rgb(204, 204, 204)" fill-opacity="1" points="51.346,268.236 98.260,256.309 98.260,217.504 51.346,225.550 " />
<polygon stroke="black" stroke-width="1" fill="rgb(204, 204, 204)" fill-opacity="1" points="51.346,225.550 98.260,217.504 98.260,166.448 51.346,169.389 " />
<polygon stroke="black" stroke-width="1" fill="rgb(204, 204, 204)" fill-opacity="1" points="51.346,169.389 98.260,166.448 98.260,110.915 51.346,108.302 " />
<polygon stroke="black" stroke-width="1" fill="rgb(204, 204, 204)" fill-opacity="1" points="51.346,108.302 98.260,110.915 98.260,59.359 51.346,51.591 " />
<polygon stroke="black" stroke-width="1" fill="rgb(204, 204, 204)" fill-opacity="1" points="504.571,39.181 461.962,47.071 456.777,98.397 498.867,95.639 " />
<polygon stroke="black" stroke-width="1" fill="rgb(204, 204, 204)" fill-opacity="1" points="498.867,95.639 456.777,98.397 456.777,153.933 498.867,156.730 " />
<polygon stroke="black" stroke-width="1" fill="rgb(204, 204, 204)" fill-opacity="1" points="498.867,156.730 456.777,153.933 461.962,205.226 504.571,213.152 " />
<polygon stroke="black" stroke-width="1" fill="rgb(204, 204, 204)" fill-opacity="1" points="825.689,798.147 778.775,808.174 778.775,854.466 825.689,849.069 " />
<polygon stroke="black" stroke-width="1" fill="rgb(204, 204, 204)" fill-opacity="1" points="825.689,849.069 778.775,854.466 778.775,908.976 825.689,909.030 " />
<polygon stroke="black" stroke-width="1" fill="rgb(204, 204, 204)" fill-opacity="1" points="64.956,761.619 25.685,800.889 4.432,852.199 4.432,907.735 25.684,959.045 64.955,998.315 116.264,1019.568 171.801,1019.568 223.110,998.315 262.381,959.045 283.634,907.736 283.634,852.199 262.381,800.890 223.111,761.619 171.802,740.366 116.265,740.366 " />
<polygon stroke="black" stroke-width="1" fill="rgb(204, 204, 204)" fill-opacity="1" points="825.689,909.030 778.775,908.976 778.775,963.405 825.689,968.901 " />
<polygon stroke="black" stroke-width="1" fill="rgb(204, 204, 204)" fill-opacity="1" points="825.689,968.901 778.775,963.405 778.775,1009.466 825.689,1019.568 " />
<polygon stroke="black" stroke-width="1" fill="rgb(204, 204, 204)" fill-opacity="1" points="616.620,366.056 593.225,389.452 580.562,420.020 580.562,453.106 593.224,483.674 616.619,507.070 647.187,519.732 680.274,519.732 710.842,507.071 734.238,483.675 746.900,453.108 746.900,420.021 734.238,389.453 710.843,366.057 680.275,353.395 647.189,353.395 " />
<polygon stroke="black" stroke-width="1" fill="rgb(204, 204, 204)" fill-opacity="1" points="872.603,963.405 825.689,968.901 825.689,1019.568 872.603,1009.466 " />
<polygon stroke="black" stroke-width="1" fill="rgb(204, 204, 204)" fill-opacity="1" points="872.603,908.976 825.689,909.030 825.689,968.901 872.603,963.405 " />
<polygon stroke="black" stroke-width="1" fill="rgb(204, 204, 204)" fill-opacity="1" points="872.603,854.466 825.689,849.069 825.689,909.030 872.603,908.976 " />
<polygon stroke="black" stroke-width="1" fill="rgb(204, 204, 204)" fill-opacity="1" points="872.603,808.174 825.689,798.147 825.689,849.069 872.603,854.466 " />
<polygon stroke="black" stroke-width="1" fill="rgb(204, 204, 204)" fill-opacity="1" points="547.769,153.951 498.867,156.730 504.571,213.152 552.955,205.244 " />
<polygon stroke="black" stroke-width="1" fill="rgb(204, 204, 204)" fill-opacity="1" points="547.769,98.415 498.867,95.639 498.867,156.730 547.769,153.951 " />
<polygon stroke="black" stroke-width="1" fill="rgb(204, 204, 204)" fill-opacity="1" points="552.955,47.089 504.571,39.181 498.867,95.639 547.769,98.415 " />
<polygon stroke="black" stroke-width="1" fill="rgb(204, 204, 204)" fill-opacity="1" points="4.432,110.915 51.346,108.302 51.346,51.591 4.432,59.359 " />
<polygon stroke="black" stroke-width="1" fill="rgb(204, 204, 204)" fill-opacity="1" points="4.432,166.448 51.346,169.389 51.346,108.302 4.432,110.915 " />
<polygon stroke="black" stroke-width="1" fill="rgb(204, 204, 204)" fill-opacity="1" points="4.432,217.504 51.346,225.550 51.346,169.389 4.432,166.448 " />
<polygon stroke="black" stroke-width="1" fill="rgb(204, 204, 204)" fill-opacity="1" points="4.432,256.309 51.346,268.236 51.346,225.550 4.432,217.504 " />
<polygon stroke="black" stroke-width="1" fill="rgb(204, 204, 204)" fill-opacity="1" points="447.913,399.184 400.999,409.187 400.999,443.437 447.913,430.321 " />
<polygon stroke="black" stroke-width="1" fill="rgb(204, 204, 204)" fill-opacity="1" points="447.913,352.819 400.999,358.185 400.999,409.187 447.913,399.184 " />
<polygon stroke="black" stroke-width="1" fill="rgb(204, 204, 204)" fill-opacity="1" points="447.913,298.284 400.999,298.197 400.999,358.185 447.913,352.819 " />
<polygon stroke="black" stroke-width="1" fill="rgb(204, 204, 204)" fill-opacity="1" points="447.913,243.882 400.999,238.354 400.999,298.197 447.913,298.284 " />
<polygon stroke="black" stroke-width="1" fill="rgb(204, 204, 204)" fill-opacity="1" points="447.913,197.894 400.999,187.768 400.999,238.354 447.913,243.882 " />
<polygon stroke="black" stroke-width="1" fill="rgb(204, 204, 204)" fill-opacity="1" points="543.483,902.123 526.526,943.062 550.447,959.045 571.699,907.736 " />
<polygon stroke="black" stroke-width="1" fill="rgb(204, 204, 204)" fill-opacity="1" points="543.483,857.811 543.483,902.123 571.699,907.736 571.699,852.199 " />
<polygon stroke="black" stroke-width="1" fill="rgb(204, 204, 204)" fill-opacity="1" points="526.526,816.873 543.483,857.811 571.699,852.199 550.447,800.890 " />
<polygon stroke="black" stroke-width="1" fill="rgb(204, 204, 204)" fill-opacity="1" points="495.193,785.540 526.526,816.873 550.447,800.890 511.176,761.619 " />
<polygon stroke="black" stroke-width="1" fill="rgb(204, 204, 204)" fill-opacity="1" points="454.254,768.582 495.193,785.540 511.176,761.619 459.867,740.366 " />
<polygon stroke="black" stroke-width="1" fill="rgb(204, 204, 204)" fill-opacity="1" points="409.943,768.582 454.254,768.582 459.867,740.366 404.330,740.366 " />
<polygon stroke="black" stroke-width="1" fill="rgb(204, 204, 204)" fill-opacity="1" points="369.004,785.539 409.943,768.582 404.330,740.366 353.021,761.619 " />
<polygon stroke="black" stroke-width="1" fill="rgb(204, 204, 204)" fill-opacity="1" points="337.671,816.873 369.004,785.539 353.021,761.619 313.750,800.889 " />
<polygon stroke="black" stroke-width="1" fill="rgb(204, 204, 204)" fill-opacity="1" points="320.713,857.811 337.671,816.873 313.750,800.889 292.497,852.199 " />
<polygon stroke="black" stroke-width="1" fill="rgb(204, 204, 204)" fill-opacity="1" points="320.714,902.123 320.713,857.811 292.497,852.199 292.497,907.735 " />
<polygon stroke="black" stroke-width="1" fill="rgb(204, 204, 204)" fill-opacity="1" points="337.671,943.061 320.714,902.123 292.497,907.735 313.750,959.045 " />
<polygon stroke="black" stroke-width="1" fill="rgb(204, 204, 204)" fill-opacity="1" points="369.004,974.395 337.671,943.061 313.750,959.045 353.020,998.315 " />
<polygon stroke="black" stroke-width="1" fill="rgb(204, 204, 204)" fill-opacity="1" points="409.942,991.352 369.004,974.395 353.020,998.315 404.330,1019.568 " />
<polygon stroke="black" stroke-width="1" fill="rgb(204, 204, 204)" fill-opacity="1" points="454.254,991.352 409.942,991.352 404.330,1019.568 459.866,1019.568 " />
<polygon stroke="black" stroke-width="1" fill="rgb(204, 204, 204)" fill-opacity="1" points="495.193,974.395 454.254,991.352 459.866,1019.568 511.176,998.315 " />
<polygon stroke="black" stroke-width="1" fill="rgb(204, 204, 204)" fill-opacity="1" points="526.526,943.062 495.193,974.395 511.176,998.315 550.447,959.045 " />
<polygon stroke="black" stroke-width="1" fill="rgb(204, 204, 204)" fill-opacity="1" points="502.605,927.079 479.209,950.474 495.193,974.395 526.526,943.062 " />
<polygon stroke="black" stroke-width="1" fill="rgb(204, 204, 204)" fill-opacity="1" points="479.209,950.474 448.642,963.136 454.254,991.352 495.193,974.395 " />
<polygon stroke="black" stroke-width="1" fill="rgb(204, 204, 204)" fill-opacity="1" points="448.642,963.136 415.555,963.136 409.942,991.352 454.254,991.352 " />
<polygon stroke="black" stroke-width="1" fill="rgb(204, 204, 204)" fill-opacity="1" points="415.555,963.136 384.987,950.474 369.004,974.395 409.942,991.352 " />
<polygon stroke="black" stroke-width="1" fill="rgb(204, 204, 204)" fill-opacity="1" points="384.987,950.474 361.591,927.078 337.671,943.061 369.004,974.395 " />
<polygon stroke="black" stroke-width="1" fill="rgb(204, 204, 204)" fill-opacity="1" points="361.591,927.078 348.929,896.510 320.714,902.123 337.671,943.061 " />
<polygon stroke="black" stroke-width="1" fill="rgb(204, 204, 204)" fill-opacity="1" points="348.929,896.510 348.930,863.424 320.713,857.811 320.714,902.123 " />
<polygon stroke="black" stroke-width="1" fill="rgb(204, 204, 204)" fill-opacity="1" points="348.930,863.424 361.591,832.856 337.671,816.873 320.713,857.811 " />
<polygon stroke="black" stroke-width="1" fill="rgb(204, 204, 204)" fill-opacity="1" points="361.591,832.856 384.987,809.460 369.004,785.539 337.671,816.873 " />
<polygon stroke="black" stroke-width="1" fill="rgb(204, 204, 204)" fill-opacity="1" points="384.987,809.460 415.555,796.798 409.943,768.582 369.004,785.539 " />
<polygon stroke="black" stroke-width="1" fill="rgb(204, 204, 204)" fill-opacity="1" points="415.555,796.798 448.642,796.799 454.254,768.582 409.943,768.582 " />
<polygon stroke="black" stroke-width="1" fill="rgb(204, 204, 204)" fill-opacity="1" points="448.642,796.799 479.210,809.460 495.193,785.540 454.254,768.582 " />
<polygon stroke="black" stroke-width="1" fill="rgb(204, 204, 204)" fill-opacity="1" points="479.210,809.460 502.605,832.856 526.526,816.873 495.193,785.540 " />
<polygon stroke="black" stroke-width="1" fill="rgb(204, 204, 204)" fill-opacity="1" points="502.605,832.856 515.267,863.424 543.483,857.811 526.526,816.873 " />
<polygon stroke="black" stroke-width="1" fill="rgb(204, 204, 204)" fill-opacity="1" points="515.267,863.424 515.267,896.510 543.483,902.123 543.483,857.811 " />
<polygon stroke="black" stroke-width="1" fill="rgb(204, 204, 204)" fill-opacity="1" points="515.267,896.510 502.605,927.079 526.526,943.062 543.483,902.123 " />
<polygon stroke="black" stroke-width="1" fill="rgb(204, 204, 204)" fill-opacity="1" points="353.232,70.500 251.394,70.500 251.394,99.397 353.232,99.397 " />
<polygon stroke="black" stroke-width="1" fill="rgb(204, 204, 204)" fill-opacity="1" points="353.232,99.397 251.394,99.397 251.394,132.882 353.232,132.882 " />
<polygon stroke="black" stroke-width="1" fill="rgb(204, 204, 204)" fill-opacity="1" points="353.232,132.882 251.394,132.882 251.394,161.985 353.232,161.985 " />
<polygon stroke="black" stroke-width="1" fill="rgb(204, 204, 204)" fill-opacity="1" points="353.232,161.985 251.394,161.985 251.394,178.905 353.232,178.905 " />
<polygon stroke="black" stroke-width="1" fill="rgb(204, 204, 204)" fill-opacity="1" points="879.670,43.504 879.670,145.342 907.292,145.342 907.292,43.504 " />
<polygon stroke="black" stroke-width="1" fill="rgb(204, 204, 204)" fill-opacity="1" points="907.292,43.504 907.292,145.342 940.679,145.342 940.678,43.504 " />
<polygon stroke="black" stroke-width="1" fill="rgb(204, 204, 204)" fill-opacity="1" points="940.678,43.504 940.679,145.342 970.884,145.342 970.884,43.504 " />
<polygon stroke="black" stroke-width="1" fill="rgb(204, 204, 204)" fill-opacity="1" points="645.111,117.978 645.111,19.217 612.262,17.630 612.262,116.391 " />
<polygon stroke="black" stroke-width="1" fill="rgb(204, 204, 204)" fill-opacity="1" points="612.262,116.391 612.262,17.630 580.562,20.262 580.562,119.023 " />
<polygon stroke="black" stroke-width="1" fill="rgb(204, 204, 204)" fill-opacity="1" points="779.321,43.504 779.321,145.342 808.384,145.342 808.384,43.504 " />
<polygon stroke="black" stroke-width="1" fill="rgb(204, 204, 204)" fill-opacity="1" points="808.384,43.504 808.384,145.342 841.870,145.342 841.870,43.504 " />
<polygon stroke="black" stroke-width="1" fill="rgb(204, 204, 204)" fill-opacity="1" points="841.870,43.504 841.870,145.342 870.807,145.342 870.807,43.504 " />
<polygon stroke="black" stroke-width="1" fill="rgb(204, 204, 204)" fill-opacity="1" points="211.082,36.762 211.082,443.437 242.531,434.190 242.531,27.514 " />
<polygon stroke="black" stroke-width="1" fill="rgb(204, 204, 204)" fill-opacity="1" points="842.218,731.503 842.218,154.205 810.770,154.205 810.770,731.503 " />
<polygon stroke="black" stroke-width="1" fill="rgb(204, 204, 204)" fill-opacity="1" points="810.770,731.503 810.770,154.205 779.321,154.205 779.321,731.503 " />
<polygon stroke="black" stroke-width="1" fill="rgb(204, 204, 204)" fill-opacity="1" points="985.741,729.112 985.741,161.621 954.291,164.012 954.291,731.503 " />
<polygon stroke="black" stroke-width="1" fill="rgb(204, 204, 204)" fill-opacity="1" points="954.291,731.503 954.291,164.012 922.842,161.621 922.842,729.112 " />
<polygon stroke="black" stroke-width="1" fill="rgb(204, 204, 204)" fill-opacity="1" points="913.979,731.503 913.979,154.205 882.530,154.205 882.530,731.503 " />
<polygon stroke="black" stroke-width="1" fill="rgb(204, 204, 204)" fill-opacity="1" points="882.530,731.503 882.530,154.205 851.081,154.205 851.081,731.503 " />
<polygon stroke="black" stroke-width="1" fill="rgb(204, 204, 204)" fill-opacity="1" points="179.632,27.514 179.632,434.190 211.082,443.437 211.082,36.762 " />
<polygon stroke="black" stroke-width="1" fill="rgb(204, 204, 204)" fill-opacity="1" points="127.034,68.317 127.034,268.237 146.944,260.078 146.944,70.271 " />
<polygon stroke="black" stroke-width="1" fill="rgb(204, 204, 204)" fill-opacity="1" points="770.458,528.596 580.562,528.596 597.367,544.287 767.243,551.361 " />
<polygon stroke="black" stroke-width="1" fill="rgb(204, 204, 204)" fill-opacity="1" points="1019.568,145.342 1019.568,12.779 999.658,14.889 999.658,137.296 " />
<polygon stroke="black" stroke-width="1" fill="rgb(204, 204, 204)" fill-opacity="1" points="999.658,137.296 999.658,14.889 979.747,12.779 979.747,145.342 " />
<polygon stroke="black" stroke-width="1" fill="rgb(204, 204, 204)" fill-opacity="1" points="362.095,178.905 379.491,168.722 379.292,15.386 362.095,9.604 " />
<polygon stroke="black" stroke-width="1" fill="rgb(204, 204, 204)" fill-opacity="1" points="585.494,852.923 754.345,832.996 769.912,816.076 580.563,830.467 " />
<polygon stroke="black" stroke-width="1" fill="rgb(204, 204, 204)" fill-opacity="1" points="107.123,70.271 107.123,260.078 127.034,268.237 127.034,68.317 " />
<polygon stroke="black" stroke-width="1" fill="rgb(204, 204, 204)" fill-opacity="1" points="597.367,544.287 580.562,528.596 595.983,731.503 611.675,714.699 " />
<polygon stroke="black" stroke-width="1" fill="rgb(204, 204, 204)" fill-opacity="1" points="769.912,816.076 754.345,832.996 752.992,1004.002 769.912,1019.568 " />
<polygon stroke="black" stroke-width="1" fill="rgb(204, 204, 204)" fill-opacity="1" points="723.075,133.089 703.165,124.912 703.165,344.532 723.075,336.453 " />
<polygon stroke="black" stroke-width="1" fill="rgb(204, 204, 204)" fill-opacity="1" points="379.491,168.722 400.689,177.520 400.689,8.220 379.292,15.386 " />
<polygon stroke="black" stroke-width="1" fill="rgb(204, 204, 204)" fill-opacity="1" points="703.165,124.912 683.254,133.089 683.254,336.453 703.165,344.532 " />

</svg>
