<?xml version="1.0" standalone="no"?>
<!DOCTYPE svg PUBLIC "-//W3C//DTD SVG 1.1//EN" 
  "http://www.w3.org/Graphics/SVG/1.1/DTD/svg11.dtd">
<svg width="1024" height="1024" viewBox="0 0 1024 1024"
     xmlns="http://www.w3.org/2000/svg" version="1.1">
<desc>Boeing_747SP.blend, (Blender 3.3.9)</desc>
<polygon stroke="black" stroke-width="1" fill="rgb(204, 204, 204)" fill-opacity="1" points="812.039,126.885 817.224,172.140 855.540,165.833 850.827,124.692 " />
<polygon stroke="black" stroke-width="1" fill="rgb(204, 204, 204)" fill-opacity="1" points="619.177,228.415 619.177,184.216 582.000,181.711 582.000,221.891 " />
<polygon stroke="black" stroke-width="1" fill="rgb(204, 204, 204)" fill-opacity="1" points="619.177,184.216 619.177,135.823 582.000,137.718 582.000,181.711 " />
<polygon stroke="black" stroke-width="1" fill="rgb(204, 204, 204)" fill-opacity="1" points="619.177,135.823 619.177,90.602 582.000,96.607 582.000,137.718 " />
<polygon stroke="black" stroke-width="1" fill="rgb(204, 204, 204)" fill-opacity="1" points="619.177,90.602 619.177,55.438 582.000,64.640 582.000,96.607 " />
<polygon stroke="black" stroke-width="1" fill="rgb(204, 204, 204)" fill-opacity="1" points="411.823,360.230 412.807,333.328 375.376,325.562 374.480,350.019 " />
<polygon stroke="black" stroke-width="1" fill="rgb(204, 204, 204)" fill-opacity="1" points="412.807,333.328 413.340,293.072 375.860,288.965 375.376,325.562 " />
<polygon stroke="black" stroke-width="1" fill="rgb(204, 204, 204)" fill-opacity="1" points="413.340,293.072 413.340,245.589 375.860,245.800 375.860,288.965 " />
<polygon stroke="black" stroke-width="1" fill="rgb(204, 204, 204)" fill-opacity="1" points="413.340,245.589 412.807,198.110 375.376,202.637 375.860,245.800 " />
<polygon stroke="black" stroke-width="1" fill="rgb(204, 204, 204)" fill-opacity="1" points="412.807,198.110 411.823,157.862 374.480,166.048 375.376,202.637 " />
<polygon stroke="black" stroke-width="1" fill="rgb(204, 204, 204)" fill-opacity="1" points="916.138,978.212 916.138,937.959 878.960,933.643 878.960,970.236 " />
<polygon stroke="black" stroke-width="1" fill="rgb(204, 204, 204)" fill-opacity="1" points="916.138,937.959 916.138,890.478 878.960,890.478 878.960,933.643 " />
<polygon stroke="black" stroke-width="1" fill="rgb(204, 204, 204)" fill-opacity="1" points="916.138,890.478 916.138,842.996 878.960,847.313 878.960,890.478 " />
<polygon stroke="black" stroke-width="1" fill="rgb(204, 204, 204)" fill-opacity="1" points="916.138,842.996 916.138,802.743 878.960,810.719 878.960,847.313 " />
<polygon stroke="black" stroke-width="1" fill="rgb(204, 204, 204)" fill-opacity="1" points="582.818,581.487 538.807,581.487 498.147,598.329 467.027,629.449 450.184,670.110 450.184,714.120 467.026,754.781 498.147,785.901 538.807,802.743 582.818,802.743 623.478,785.901 654.599,754.781 671.441,714.121 671.441,670.110 654.599,629.449 623.479,598.329 " />
<polygon stroke="black" stroke-width="1" fill="rgb(204, 204, 204)" fill-opacity="1" points="817.224,34.341 812.039,78.496 850.827,80.702 855.540,40.561 " />
<polygon stroke="black" stroke-width="1" fill="rgb(204, 204, 204)" fill-opacity="1" points="812.039,78.496 812.039,126.885 850.827,124.692 850.827,80.702 " />
<polygon stroke="black" stroke-width="1" fill="rgb(204, 204, 204)" fill-opacity="1" points="307.945,360.230 332.169,350.196 350.709,331.656 360.743,307.432 360.743,281.213 350.709,256.989 332.169,238.448 307.945,228.415 281.726,228.415 257.502,238.448 238.962,256.988 228.928,281.213 228.928,307.432 238.962,331.656 257.502,350.196 281.725,360.230 " />
<polygon stroke="black" stroke-width="1" fill="rgb(204, 204, 204)" fill-opacity="1" points="779.443,81.345 779.443,125.335 812.039,126.885 812.039,78.496 " />
<polygon stroke="black" stroke-width="1" fill="rgb(204, 204, 204)" fill-opacity="1" points="784.156,41.204 779.443,81.345 812.039,78.496 817.224,34.341 " />
<polygon stroke="black" stroke-width="1" fill="rgb(204, 204, 204)" fill-opacity="1" points="953.315,847.313 953.315,810.719 916.138,802.743 916.138,842.996 " />
<polygon stroke="black" stroke-width="1" fill="rgb(204, 204, 204)" fill-opacity="1" points="953.315,890.478 953.315,847.313 916.138,842.996 916.138,890.478 " />
<polygon stroke="black" stroke-width="1" fill="rgb(204, 204, 204)" fill-opacity="1" points="953.315,933.643 953.315,890.478 916.138,890.478 916.138,937.959 " />
<polygon stroke="black" stroke-width="1" fill="rgb(204, 204, 204)" fill-opacity="1" points="953.315,970.236 953.315,933.643 916.138,937.959 916.138,978.212 " />
<polygon stroke="black" stroke-width="1" fill="rgb(204, 204, 204)" fill-opacity="1" points="449.700,202.220 448.804,165.630 411.823,157.862 412.807,198.110 " />
<polygon stroke="black" stroke-width="1" fill="rgb(204, 204, 204)" fill-opacity="1" points="450.184,245.383 449.700,202.220 412.807,198.110 413.340,245.589 " />
<polygon stroke="black" stroke-width="1" fill="rgb(204, 204, 204)" fill-opacity="1" points="450.184,288.548 450.184,245.383 413.340,245.589 413.340,293.072 " />
<polygon stroke="black" stroke-width="1" fill="rgb(204, 204, 204)" fill-opacity="1" points="449.700,325.145 450.184,288.548 413.340,293.072 412.807,333.328 " />
<polygon stroke="black" stroke-width="1" fill="rgb(204, 204, 204)" fill-opacity="1" points="448.804,349.601 449.700,325.145 412.807,333.328 411.823,360.230 " />
<polygon stroke="black" stroke-width="1" fill="rgb(204, 204, 204)" fill-opacity="1" points="656.355,96.607 656.355,64.640 619.177,55.438 619.177,90.602 " />
<polygon stroke="black" stroke-width="1" fill="rgb(204, 204, 204)" fill-opacity="1" points="656.355,137.718 656.355,96.607 619.177,90.602 619.177,135.823 " />
<polygon stroke="black" stroke-width="1" fill="rgb(204, 204, 204)" fill-opacity="1" points="656.355,181.711 656.355,137.718 619.177,135.823 619.177,184.216 " />
<polygon stroke="black" stroke-width="1" fill="rgb(204, 204, 204)" fill-opacity="1" points="656.355,221.891 656.355,181.711 619.177,184.216 619.177,228.415 " />
<polygon stroke="black" stroke-width="1" fill="rgb(204, 204, 204)" fill-opacity="1" points="779.443,125.335 784.156,166.476 817.224,172.140 812.039,126.885 " />
<polygon stroke="black" stroke-width="1" fill="rgb(204, 204, 204)" fill-opacity="1" points="472.545,488.416 450.184,492.864 467.026,533.524 485.983,520.858 " />
<polygon stroke="black" stroke-width="1" fill="rgb(204, 204, 204)" fill-opacity="1" points="472.545,453.301 450.184,448.853 450.184,492.864 472.545,488.416 " />
<polygon stroke="black" stroke-width="1" fill="rgb(204, 204, 204)" fill-opacity="1" points="485.983,420.859 467.026,408.193 450.184,448.853 472.545,453.301 " />
<polygon stroke="black" stroke-width="1" fill="rgb(204, 204, 204)" fill-opacity="1" points="510.813,396.028 498.147,377.072 467.026,408.193 485.983,420.859 " />
<polygon stroke="black" stroke-width="1" fill="rgb(204, 204, 204)" fill-opacity="1" points="543.255,382.590 538.807,360.230 498.147,377.072 510.813,396.028 " />
<polygon stroke="black" stroke-width="1" fill="rgb(204, 204, 204)" fill-opacity="1" points="578.370,382.590 582.818,360.230 538.807,360.230 543.255,382.590 " />
<polygon stroke="black" stroke-width="1" fill="rgb(204, 204, 204)" fill-opacity="1" points="610.812,396.028 623.478,377.072 582.818,360.230 578.370,382.590 " />
<polygon stroke="black" stroke-width="1" fill="rgb(204, 204, 204)" fill-opacity="1" points="635.643,420.859 654.599,408.193 623.478,377.072 610.812,396.028 " />
<polygon stroke="black" stroke-width="1" fill="rgb(204, 204, 204)" fill-opacity="1" points="649.081,453.301 671.441,448.853 654.599,408.193 635.643,420.859 " />
<polygon stroke="black" stroke-width="1" fill="rgb(204, 204, 204)" fill-opacity="1" points="649.081,488.416 671.441,492.864 671.441,448.853 649.081,453.301 " />
<polygon stroke="black" stroke-width="1" fill="rgb(204, 204, 204)" fill-opacity="1" points="635.643,520.858 654.599,533.524 671.441,492.864 649.081,488.416 " />
<polygon stroke="black" stroke-width="1" fill="rgb(204, 204, 204)" fill-opacity="1" points="610.812,545.688 623.479,564.645 654.599,533.524 635.643,520.858 " />
<polygon stroke="black" stroke-width="1" fill="rgb(204, 204, 204)" fill-opacity="1" points="578.370,559.126 582.818,581.487 623.479,564.645 610.812,545.688 " />
<polygon stroke="black" stroke-width="1" fill="rgb(204, 204, 204)" fill-opacity="1" points="543.255,559.126 538.807,581.487 582.818,581.487 578.370,559.126 " />
<polygon stroke="black" stroke-width="1" fill="rgb(204, 204, 204)" fill-opacity="1" points="510.813,545.688 498.147,564.645 538.807,581.487 543.255,559.126 " />
<polygon stroke="black" stroke-width="1" fill="rgb(204, 204, 204)" fill-opacity="1" points="485.983,520.858 467.026,533.524 498.147,564.645 510.813,545.688 " />
<polygon stroke="black" stroke-width="1" fill="rgb(204, 204, 204)" fill-opacity="1" points="504.939,508.192 485.983,520.858 510.813,545.688 523.479,526.732 " />
<polygon stroke="black" stroke-width="1" fill="rgb(204, 204, 204)" fill-opacity="1" points="523.479,526.732 510.813,545.688 543.255,559.126 547.703,536.766 " />
<polygon stroke="black" stroke-width="1" fill="rgb(204, 204, 204)" fill-opacity="1" points="547.703,536.766 543.255,559.126 578.370,559.126 573.922,536.766 " />
<polygon stroke="black" stroke-width="1" fill="rgb(204, 204, 204)" fill-opacity="1" points="573.922,536.766 578.370,559.126 610.812,545.688 598.146,526.732 " />
<polygon stroke="black" stroke-width="1" fill="rgb(204, 204, 204)" fill-opacity="1" points="598.146,526.732 610.812,545.688 635.643,520.858 616.686,508.192 " />
<polygon stroke="black" stroke-width="1" fill="rgb(204, 204, 204)" fill-opacity="1" points="616.686,508.192 635.643,520.858 649.081,488.416 626.720,483.968 " />
<polygon stroke="black" stroke-width="1" fill="rgb(204, 204, 204)" fill-opacity="1" points="626.720,483.968 649.081,488.416 649.081,453.301 626.720,457.749 " />
<polygon stroke="black" stroke-width="1" fill="rgb(204, 204, 204)" fill-opacity="1" points="626.720,457.749 649.081,453.301 635.643,420.859 616.687,433.525 " />
<polygon stroke="black" stroke-width="1" fill="rgb(204, 204, 204)" fill-opacity="1" points="616.687,433.525 635.643,420.859 610.812,396.028 598.146,414.984 " />
<polygon stroke="black" stroke-width="1" fill="rgb(204, 204, 204)" fill-opacity="1" points="598.146,414.984 610.812,396.028 578.370,382.590 573.922,404.951 " />
<polygon stroke="black" stroke-width="1" fill="rgb(204, 204, 204)" fill-opacity="1" points="573.922,404.951 578.370,382.590 543.255,382.590 547.703,404.951 " />
<polygon stroke="black" stroke-width="1" fill="rgb(204, 204, 204)" fill-opacity="1" points="547.703,404.951 543.255,382.590 510.813,396.028 523.479,414.985 " />
<polygon stroke="black" stroke-width="1" fill="rgb(204, 204, 204)" fill-opacity="1" points="523.479,414.985 510.813,396.028 485.983,420.859 504.939,433.525 " />
<polygon stroke="black" stroke-width="1" fill="rgb(204, 204, 204)" fill-opacity="1" points="504.939,433.525 485.983,420.859 472.545,453.301 494.905,457.749 " />
<polygon stroke="black" stroke-width="1" fill="rgb(204, 204, 204)" fill-opacity="1" points="494.905,457.749 472.545,453.301 472.545,488.416 494.905,483.968 " />
<polygon stroke="black" stroke-width="1" fill="rgb(204, 204, 204)" fill-opacity="1" points="494.905,483.968 472.545,488.416 485.983,520.858 504.939,508.192 " />
<polygon stroke="black" stroke-width="1" fill="rgb(204, 204, 204)" fill-opacity="1" points="185.427,107.997 185.427,59.608 152.830,62.457 152.830,106.447 " />
<polygon stroke="black" stroke-width="1" fill="rgb(204, 204, 204)" fill-opacity="1" points="185.427,59.608 190.611,15.452 157.543,22.315 152.830,62.457 " />
<polygon stroke="black" stroke-width="1" fill="rgb(204, 204, 204)" fill-opacity="1" points="925.409,627.274 925.409,667.527 962.586,671.844 962.586,635.250 " />
<polygon stroke="black" stroke-width="1" fill="rgb(204, 204, 204)" fill-opacity="1" points="925.409,667.527 925.409,715.009 962.586,715.009 962.586,671.844 " />
<polygon stroke="black" stroke-width="1" fill="rgb(204, 204, 204)" fill-opacity="1" points="925.409,715.009 925.409,762.490 962.586,758.174 962.586,715.009 " />
<polygon stroke="black" stroke-width="1" fill="rgb(204, 204, 204)" fill-opacity="1" points="925.409,762.490 925.409,802.743 962.586,794.767 962.586,758.174 " />
<polygon stroke="black" stroke-width="1" fill="rgb(204, 204, 204)" fill-opacity="1" points="893.902,374.508 892.917,334.260 856.025,330.150 856.920,366.739 " />
<polygon stroke="black" stroke-width="1" fill="rgb(204, 204, 204)" fill-opacity="1" points="892.917,334.260 892.384,286.781 855.540,286.987 856.025,330.150 " />
<polygon stroke="black" stroke-width="1" fill="rgb(204, 204, 204)" fill-opacity="1" points="892.384,286.781 892.384,239.298 855.540,243.822 855.540,286.987 " />
<polygon stroke="black" stroke-width="1" fill="rgb(204, 204, 204)" fill-opacity="1" points="892.384,239.298 892.917,199.042 856.025,207.225 855.540,243.822 " />
<polygon stroke="black" stroke-width="1" fill="rgb(204, 204, 204)" fill-opacity="1" points="892.917,199.042 893.902,172.140 856.920,182.768 856.025,207.225 " />
<polygon stroke="black" stroke-width="1" fill="rgb(204, 204, 204)" fill-opacity="1" points="693.532,55.438 693.532,90.602 730.710,96.607 730.710,64.640 " />
<polygon stroke="black" stroke-width="1" fill="rgb(204, 204, 204)" fill-opacity="1" points="693.532,90.602 693.532,135.823 730.710,137.718 730.710,96.607 " />
<polygon stroke="black" stroke-width="1" fill="rgb(204, 204, 204)" fill-opacity="1" points="693.532,135.823 693.532,184.217 730.710,181.711 730.710,137.718 " />
<polygon stroke="black" stroke-width="1" fill="rgb(204, 204, 204)" fill-opacity="1" points="538.807,1024.000 582.818,1024.000 623.478,1007.158 654.599,976.038 671.441,935.377 671.441,891.367 654.599,850.706 623.479,819.586 582.818,802.743 538.807,802.743 498.147,819.585 467.027,850.706 450.184,891.366 450.184,935.377 467.026,976.037 498.147,1007.158 " />
<polygon stroke="black" stroke-width="1" fill="rgb(204, 204, 204)" fill-opacity="1" points="693.532,184.217 693.532,228.415 730.710,221.891 730.710,181.711 " />
<polygon stroke="black" stroke-width="1" fill="rgb(204, 204, 204)" fill-opacity="1" points="190.611,153.251 185.427,107.997 152.830,106.447 157.543,147.587 " />
<polygon stroke="black" stroke-width="1" fill="rgb(204, 204, 204)" fill-opacity="1" points="450.184,281.213 450.184,307.432 460.218,331.656 478.758,350.196 502.982,360.230 529.202,360.230 553.426,350.196 571.966,331.656 582.000,307.432 582.000,281.212 571.966,256.989 553.426,238.448 529.202,228.415 502.982,228.415 478.758,238.449 460.218,256.989 " />
<polygon stroke="black" stroke-width="1" fill="rgb(204, 204, 204)" fill-opacity="1" points="228.928,146.945 224.215,105.804 185.427,107.997 190.611,153.251 " />
<polygon stroke="black" stroke-width="1" fill="rgb(204, 204, 204)" fill-opacity="1" points="656.355,181.711 656.355,221.891 693.532,228.415 693.532,184.217 " />
<polygon stroke="black" stroke-width="1" fill="rgb(204, 204, 204)" fill-opacity="1" points="656.355,137.718 656.355,181.711 693.532,184.217 693.532,135.823 " />
<polygon stroke="black" stroke-width="1" fill="rgb(204, 204, 204)" fill-opacity="1" points="656.355,96.607 656.355,137.718 693.532,135.823 693.532,90.602 " />
<polygon stroke="black" stroke-width="1" fill="rgb(204, 204, 204)" fill-opacity="1" points="656.355,64.640 656.355,96.607 693.532,90.602 693.532,55.438 " />
<polygon stroke="black" stroke-width="1" fill="rgb(204, 204, 204)" fill-opacity="1" points="930.349,206.808 931.244,182.351 893.902,172.140 892.917,199.042 " />
<polygon stroke="black" stroke-width="1" fill="rgb(204, 204, 204)" fill-opacity="1" points="929.864,243.404 930.349,206.808 892.917,199.042 892.384,239.298 " />
<polygon stroke="black" stroke-width="1" fill="rgb(204, 204, 204)" fill-opacity="1" points="929.864,286.570 929.864,243.404 892.384,239.298 892.384,286.781 " />
<polygon stroke="black" stroke-width="1" fill="rgb(204, 204, 204)" fill-opacity="1" points="930.349,329.733 929.864,286.570 892.384,286.781 892.917,334.260 " />
<polygon stroke="black" stroke-width="1" fill="rgb(204, 204, 204)" fill-opacity="1" points="931.244,366.322 930.349,329.733 892.917,334.260 893.902,374.508 " />
<polygon stroke="black" stroke-width="1" fill="rgb(204, 204, 204)" fill-opacity="1" points="888.231,758.174 888.231,794.767 925.409,802.743 925.409,762.490 " />
<polygon stroke="black" stroke-width="1" fill="rgb(204, 204, 204)" fill-opacity="1" points="888.231,715.009 888.231,758.174 925.409,762.490 925.409,715.009 " />
<polygon stroke="black" stroke-width="1" fill="rgb(204, 204, 204)" fill-opacity="1" points="888.231,671.844 888.231,715.009 925.409,715.009 925.409,667.527 " />
<polygon stroke="black" stroke-width="1" fill="rgb(204, 204, 204)" fill-opacity="1" points="888.231,635.250 888.231,671.844 925.409,667.527 925.409,627.274 " />
<polygon stroke="black" stroke-width="1" fill="rgb(204, 204, 204)" fill-opacity="1" points="224.215,61.814 228.928,21.673 190.611,15.452 185.427,59.608 " />
<polygon stroke="black" stroke-width="1" fill="rgb(204, 204, 204)" fill-opacity="1" points="224.215,105.804 224.215,61.814 185.427,59.608 185.427,107.997 " />
<polygon stroke="black" stroke-width="1" fill="rgb(204, 204, 204)" fill-opacity="1" points="427.824,895.814 450.184,891.366 433.342,850.706 414.386,863.372 " />
<polygon stroke="black" stroke-width="1" fill="rgb(204, 204, 204)" fill-opacity="1" points="427.824,930.929 450.184,935.377 450.184,891.366 427.824,895.814 " />
<polygon stroke="black" stroke-width="1" fill="rgb(204, 204, 204)" fill-opacity="1" points="414.386,963.371 433.342,976.037 450.184,935.377 427.824,930.929 " />
<polygon stroke="black" stroke-width="1" fill="rgb(204, 204, 204)" fill-opacity="1" points="389.556,988.202 402.222,1007.158 433.342,976.037 414.386,963.371 " />
<polygon stroke="black" stroke-width="1" fill="rgb(204, 204, 204)" fill-opacity="1" points="357.114,1001.640 361.561,1024.000 402.222,1007.158 389.556,988.202 " />
<polygon stroke="black" stroke-width="1" fill="rgb(204, 204, 204)" fill-opacity="1" points="321.999,1001.640 317.551,1024.000 361.561,1024.000 357.114,1001.640 " />
<polygon stroke="black" stroke-width="1" fill="rgb(204, 204, 204)" fill-opacity="1" points="289.556,988.202 276.890,1007.158 317.551,1024.000 321.999,1001.640 " />
<polygon stroke="black" stroke-width="1" fill="rgb(204, 204, 204)" fill-opacity="1" points="264.726,963.372 245.770,976.038 276.890,1007.158 289.556,988.202 " />
<polygon stroke="black" stroke-width="1" fill="rgb(204, 204, 204)" fill-opacity="1" points="251.288,930.929 228.928,935.377 245.770,976.038 264.726,963.372 " />
<polygon stroke="black" stroke-width="1" fill="rgb(204, 204, 204)" fill-opacity="1" points="251.288,895.814 228.928,891.367 228.928,935.377 251.288,930.929 " />
<polygon stroke="black" stroke-width="1" fill="rgb(204, 204, 204)" fill-opacity="1" points="264.726,863.372 245.770,850.706 228.928,891.367 251.288,895.814 " />
<polygon stroke="black" stroke-width="1" fill="rgb(204, 204, 204)" fill-opacity="1" points="289.556,838.542 276.890,819.586 245.770,850.706 264.726,863.372 " />
<polygon stroke="black" stroke-width="1" fill="rgb(204, 204, 204)" fill-opacity="1" points="321.998,825.104 317.550,802.743 276.890,819.586 289.556,838.542 " />
<polygon stroke="black" stroke-width="1" fill="rgb(204, 204, 204)" fill-opacity="1" points="357.113,825.104 361.561,802.743 317.550,802.743 321.998,825.104 " />
<polygon stroke="black" stroke-width="1" fill="rgb(204, 204, 204)" fill-opacity="1" points="389.556,838.542 402.222,819.585 361.561,802.743 357.113,825.104 " />
<polygon stroke="black" stroke-width="1" fill="rgb(204, 204, 204)" fill-opacity="1" points="414.386,863.372 433.342,850.706 402.222,819.585 389.556,838.542 " />
<polygon stroke="black" stroke-width="1" fill="rgb(204, 204, 204)" fill-opacity="1" points="395.430,876.038 414.386,863.372 389.556,838.542 376.890,857.498 " />
<polygon stroke="black" stroke-width="1" fill="rgb(204, 204, 204)" fill-opacity="1" points="376.890,857.498 389.556,838.542 357.113,825.104 352.666,847.464 " />
<polygon stroke="black" stroke-width="1" fill="rgb(204, 204, 204)" fill-opacity="1" points="352.666,847.464 357.113,825.104 321.998,825.104 326.446,847.464 " />
<polygon stroke="black" stroke-width="1" fill="rgb(204, 204, 204)" fill-opacity="1" points="326.446,847.464 321.998,825.104 289.556,838.542 302.222,857.498 " />
<polygon stroke="black" stroke-width="1" fill="rgb(204, 204, 204)" fill-opacity="1" points="302.222,857.498 289.556,838.542 264.726,863.372 283.682,876.038 " />
<polygon stroke="black" stroke-width="1" fill="rgb(204, 204, 204)" fill-opacity="1" points="283.682,876.038 264.726,863.372 251.288,895.814 273.648,900.262 " />
<polygon stroke="black" stroke-width="1" fill="rgb(204, 204, 204)" fill-opacity="1" points="273.648,900.262 251.288,895.814 251.288,930.929 273.648,926.482 " />
<polygon stroke="black" stroke-width="1" fill="rgb(204, 204, 204)" fill-opacity="1" points="273.648,926.482 251.288,930.929 264.726,963.372 283.682,950.706 " />
<polygon stroke="black" stroke-width="1" fill="rgb(204, 204, 204)" fill-opacity="1" points="283.682,950.706 264.726,963.372 289.556,988.202 302.222,969.246 " />
<polygon stroke="black" stroke-width="1" fill="rgb(204, 204, 204)" fill-opacity="1" points="302.222,969.246 289.556,988.202 321.999,1001.640 326.446,979.279 " />
<polygon stroke="black" stroke-width="1" fill="rgb(204, 204, 204)" fill-opacity="1" points="326.446,979.279 321.999,1001.640 357.114,1001.640 352.666,979.279 " />
<polygon stroke="black" stroke-width="1" fill="rgb(204, 204, 204)" fill-opacity="1" points="352.666,979.279 357.114,1001.640 389.556,988.202 376.890,969.246 " />
<polygon stroke="black" stroke-width="1" fill="rgb(204, 204, 204)" fill-opacity="1" points="376.890,969.246 389.556,988.202 414.386,963.371 395.430,950.705 " />
<polygon stroke="black" stroke-width="1" fill="rgb(204, 204, 204)" fill-opacity="1" points="395.430,950.705 414.386,963.371 427.824,930.929 405.464,926.482 " />
<polygon stroke="black" stroke-width="1" fill="rgb(204, 204, 204)" fill-opacity="1" points="405.464,926.482 427.824,930.929 427.824,895.814 405.464,900.262 " />
<polygon stroke="black" stroke-width="1" fill="rgb(204, 204, 204)" fill-opacity="1" points="405.464,900.262 427.824,895.814 414.386,863.372 395.430,876.038 " />
<polygon stroke="black" stroke-width="1" fill="rgb(204, 204, 204)" fill-opacity="1" points="40.268,107.997 40.268,59.608 7.671,62.457 7.671,106.447 " />
<polygon stroke="black" stroke-width="1" fill="rgb(204, 204, 204)" fill-opacity="1" points="40.268,59.608 45.452,15.452 12.384,22.315 7.671,62.457 " />
<polygon stroke="black" stroke-width="1" fill="rgb(204, 204, 204)" fill-opacity="1" points="925.409,440.246 925.409,480.499 962.586,484.815 962.586,448.222 " />
<polygon stroke="black" stroke-width="1" fill="rgb(204, 204, 204)" fill-opacity="1" points="925.409,480.499 925.409,527.980 962.586,527.980 962.586,484.815 " />
<polygon stroke="black" stroke-width="1" fill="rgb(204, 204, 204)" fill-opacity="1" points="925.409,527.980 925.409,575.462 962.586,571.145 962.586,527.980 " />
<polygon stroke="black" stroke-width="1" fill="rgb(204, 204, 204)" fill-opacity="1" points="925.409,575.462 925.409,615.715 962.586,607.739 962.586,571.145 " />
<polygon stroke="black" stroke-width="1" fill="rgb(204, 204, 204)" fill-opacity="1" points="841.618,1005.111 840.633,964.863 803.741,960.754 804.636,997.343 " />
<polygon stroke="black" stroke-width="1" fill="rgb(204, 204, 204)" fill-opacity="1" points="840.633,964.863 840.100,917.384 803.256,917.591 803.741,960.754 " />
<polygon stroke="black" stroke-width="1" fill="rgb(204, 204, 204)" fill-opacity="1" points="840.100,917.384 840.100,869.902 803.256,874.425 803.256,917.591 " />
<polygon stroke="black" stroke-width="1" fill="rgb(204, 204, 204)" fill-opacity="1" points="840.100,869.902 840.633,829.645 803.741,837.828 803.256,874.425 " />
<polygon stroke="black" stroke-width="1" fill="rgb(204, 204, 204)" fill-opacity="1" points="840.633,829.645 841.618,802.743 804.636,813.372 803.741,837.828 " />
<polygon stroke="black" stroke-width="1" fill="rgb(204, 204, 204)" fill-opacity="1" points="968.422,374.508 968.422,339.344 931.244,333.338 931.244,365.306 " />
<polygon stroke="black" stroke-width="1" fill="rgb(204, 204, 204)" fill-opacity="1" points="968.422,339.344 968.422,294.122 931.244,292.228 931.244,333.338 " />
<polygon stroke="black" stroke-width="1" fill="rgb(204, 204, 204)" fill-opacity="1" points="968.422,294.122 968.422,245.729 931.244,248.234 931.244,292.228 " />
<polygon stroke="black" stroke-width="1" fill="rgb(204, 204, 204)" fill-opacity="1" points="450.184,492.864 450.184,448.853 433.342,408.193 402.222,377.072 361.561,360.230 317.551,360.230 276.890,377.072 245.770,408.192 228.928,448.853 228.928,492.864 245.770,533.524 276.890,564.645 317.551,581.487 361.561,581.487 402.222,564.645 433.342,533.524 " />
<polygon stroke="black" stroke-width="1" fill="rgb(204, 204, 204)" fill-opacity="1" points="968.422,245.729 968.422,201.531 931.244,208.054 931.244,248.234 " />
<polygon stroke="black" stroke-width="1" fill="rgb(204, 204, 204)" fill-opacity="1" points="45.452,153.251 40.268,107.997 7.671,106.447 12.384,147.587 " />
<polygon stroke="black" stroke-width="1" fill="rgb(204, 204, 204)" fill-opacity="1" points="700.015,812.777 681.475,831.317 671.441,855.542 671.441,881.761 681.475,905.985 700.015,924.525 724.239,934.559 750.459,934.559 774.683,924.525 793.223,905.985 803.256,881.761 803.256,855.541 793.222,831.317 774.682,812.777 750.458,802.743 724.239,802.743 " />
<polygon stroke="black" stroke-width="1" fill="rgb(204, 204, 204)" fill-opacity="1" points="83.768,146.945 79.055,105.804 40.268,107.997 45.452,153.251 " />
<polygon stroke="black" stroke-width="1" fill="rgb(204, 204, 204)" fill-opacity="1" points="1005.599,248.234 1005.599,208.054 968.422,201.531 968.422,245.729 " />
<polygon stroke="black" stroke-width="1" fill="rgb(204, 204, 204)" fill-opacity="1" points="1005.599,292.228 1005.599,248.234 968.422,245.729 968.422,294.122 " />
<polygon stroke="black" stroke-width="1" fill="rgb(204, 204, 204)" fill-opacity="1" points="1005.599,333.338 1005.599,292.228 968.422,294.122 968.422,339.344 " />
<polygon stroke="black" stroke-width="1" fill="rgb(204, 204, 204)" fill-opacity="1" points="1005.599,365.306 1005.599,333.338 968.422,339.344 968.422,374.508 " />
<polygon stroke="black" stroke-width="1" fill="rgb(204, 204, 204)" fill-opacity="1" points="878.065,837.411 878.960,812.955 841.618,802.743 840.633,829.645 " />
<polygon stroke="black" stroke-width="1" fill="rgb(204, 204, 204)" fill-opacity="1" points="877.580,874.008 878.065,837.411 840.633,829.645 840.100,869.902 " />
<polygon stroke="black" stroke-width="1" fill="rgb(204, 204, 204)" fill-opacity="1" points="877.580,917.174 877.580,874.008 840.100,869.902 840.100,917.384 " />
<polygon stroke="black" stroke-width="1" fill="rgb(204, 204, 204)" fill-opacity="1" points="878.065,960.337 877.580,917.174 840.100,917.384 840.633,964.863 " />
<polygon stroke="black" stroke-width="1" fill="rgb(204, 204, 204)" fill-opacity="1" points="878.960,996.926 878.065,960.337 840.633,964.863 841.618,1005.111 " />
<polygon stroke="black" stroke-width="1" fill="rgb(204, 204, 204)" fill-opacity="1" points="888.231,571.145 888.231,607.739 925.409,615.715 925.409,575.462 " />
<polygon stroke="black" stroke-width="1" fill="rgb(204, 204, 204)" fill-opacity="1" points="888.231,527.980 888.231,571.145 925.409,575.462 925.409,527.980 " />
<polygon stroke="black" stroke-width="1" fill="rgb(204, 204, 204)" fill-opacity="1" points="888.231,484.815 888.231,527.980 925.409,527.980 925.409,480.499 " />
<polygon stroke="black" stroke-width="1" fill="rgb(204, 204, 204)" fill-opacity="1" points="888.231,448.222 888.231,484.815 925.409,480.499 925.409,440.246 " />
<polygon stroke="black" stroke-width="1" fill="rgb(204, 204, 204)" fill-opacity="1" points="79.055,61.814 83.768,21.673 45.452,15.452 40.268,59.608 " />
<polygon stroke="black" stroke-width="1" fill="rgb(204, 204, 204)" fill-opacity="1" points="79.055,105.804 79.055,61.814 40.268,59.608 40.268,107.997 " />
<polygon stroke="black" stroke-width="1" fill="rgb(204, 204, 204)" fill-opacity="1" points="389.556,617.285 402.222,598.329 361.561,581.487 357.114,603.847 " />
<polygon stroke="black" stroke-width="1" fill="rgb(204, 204, 204)" fill-opacity="1" points="414.386,642.115 433.342,629.449 402.222,598.329 389.556,617.285 " />
<polygon stroke="black" stroke-width="1" fill="rgb(204, 204, 204)" fill-opacity="1" points="427.824,674.558 450.184,670.110 433.342,629.449 414.386,642.115 " />
<polygon stroke="black" stroke-width="1" fill="rgb(204, 204, 204)" fill-opacity="1" points="427.824,709.673 450.184,714.120 450.184,670.110 427.824,674.558 " />
<polygon stroke="black" stroke-width="1" fill="rgb(204, 204, 204)" fill-opacity="1" points="414.386,742.115 433.342,754.781 450.184,714.120 427.824,709.673 " />
<polygon stroke="black" stroke-width="1" fill="rgb(204, 204, 204)" fill-opacity="1" points="389.556,766.945 402.222,785.901 433.342,754.781 414.386,742.115 " />
<polygon stroke="black" stroke-width="1" fill="rgb(204, 204, 204)" fill-opacity="1" points="357.114,780.383 361.561,802.743 402.222,785.901 389.556,766.945 " />
<polygon stroke="black" stroke-width="1" fill="rgb(204, 204, 204)" fill-opacity="1" points="321.998,780.383 317.551,802.743 361.561,802.743 357.114,780.383 " />
<polygon stroke="black" stroke-width="1" fill="rgb(204, 204, 204)" fill-opacity="1" points="289.556,766.945 276.890,785.901 317.551,802.743 321.998,780.383 " />
<polygon stroke="black" stroke-width="1" fill="rgb(204, 204, 204)" fill-opacity="1" points="264.726,742.115 245.770,754.781 276.890,785.901 289.556,766.945 " />
<polygon stroke="black" stroke-width="1" fill="rgb(204, 204, 204)" fill-opacity="1" points="251.288,709.673 228.928,714.120 245.770,754.781 264.726,742.115 " />
<polygon stroke="black" stroke-width="1" fill="rgb(204, 204, 204)" fill-opacity="1" points="251.288,674.557 228.928,670.110 228.928,714.120 251.288,709.673 " />
<polygon stroke="black" stroke-width="1" fill="rgb(204, 204, 204)" fill-opacity="1" points="264.726,642.115 245.770,629.449 228.928,670.110 251.288,674.557 " />
<polygon stroke="black" stroke-width="1" fill="rgb(204, 204, 204)" fill-opacity="1" points="289.556,617.285 276.890,598.329 245.770,629.449 264.726,642.115 " />
<polygon stroke="black" stroke-width="1" fill="rgb(204, 204, 204)" fill-opacity="1" points="321.998,603.847 317.551,581.487 276.890,598.329 289.556,617.285 " />
<polygon stroke="black" stroke-width="1" fill="rgb(204, 204, 204)" fill-opacity="1" points="357.114,603.847 361.561,581.487 317.551,581.487 321.998,603.847 " />
<polygon stroke="black" stroke-width="1" fill="rgb(204, 204, 204)" fill-opacity="1" points="352.666,626.207 357.114,603.847 321.998,603.847 326.446,626.207 " />
<polygon stroke="black" stroke-width="1" fill="rgb(204, 204, 204)" fill-opacity="1" points="326.446,626.207 321.998,603.847 289.556,617.285 302.222,636.241 " />
<polygon stroke="black" stroke-width="1" fill="rgb(204, 204, 204)" fill-opacity="1" points="302.222,636.241 289.556,617.285 264.726,642.115 283.682,654.781 " />
<polygon stroke="black" stroke-width="1" fill="rgb(204, 204, 204)" fill-opacity="1" points="283.682,654.781 264.726,642.115 251.288,674.557 273.648,679.005 " />
<polygon stroke="black" stroke-width="1" fill="rgb(204, 204, 204)" fill-opacity="1" points="273.648,679.005 251.288,674.557 251.288,709.673 273.648,705.225 " />
<polygon stroke="black" stroke-width="1" fill="rgb(204, 204, 204)" fill-opacity="1" points="273.648,705.225 251.288,709.673 264.726,742.115 283.682,729.449 " />
<polygon stroke="black" stroke-width="1" fill="rgb(204, 204, 204)" fill-opacity="1" points="283.682,729.449 264.726,742.115 289.556,766.945 302.222,747.989 " />
<polygon stroke="black" stroke-width="1" fill="rgb(204, 204, 204)" fill-opacity="1" points="302.222,747.989 289.556,766.945 321.998,780.383 326.446,758.023 " />
<polygon stroke="black" stroke-width="1" fill="rgb(204, 204, 204)" fill-opacity="1" points="326.446,758.023 321.998,780.383 357.114,780.383 352.666,758.023 " />
<polygon stroke="black" stroke-width="1" fill="rgb(204, 204, 204)" fill-opacity="1" points="352.666,758.023 357.114,780.383 389.556,766.945 376.890,747.989 " />
<polygon stroke="black" stroke-width="1" fill="rgb(204, 204, 204)" fill-opacity="1" points="376.890,747.989 389.556,766.945 414.386,742.115 395.430,729.449 " />
<polygon stroke="black" stroke-width="1" fill="rgb(204, 204, 204)" fill-opacity="1" points="395.430,729.449 414.386,742.115 427.824,709.673 405.464,705.225 " />
<polygon stroke="black" stroke-width="1" fill="rgb(204, 204, 204)" fill-opacity="1" points="405.464,705.225 427.824,709.673 427.824,674.558 405.464,679.005 " />
<polygon stroke="black" stroke-width="1" fill="rgb(204, 204, 204)" fill-opacity="1" points="405.464,679.005 427.824,674.558 414.386,642.115 395.430,654.781 " />
<polygon stroke="black" stroke-width="1" fill="rgb(204, 204, 204)" fill-opacity="1" points="395.430,654.781 414.386,642.115 389.556,617.285 376.890,636.241 " />
<polygon stroke="black" stroke-width="1" fill="rgb(204, 204, 204)" fill-opacity="1" points="376.890,636.241 389.556,617.285 357.114,603.847 352.666,626.207 " />
<polygon stroke="black" stroke-width="1" fill="rgb(204, 204, 204)" fill-opacity="1" points="407.077,112.607 412.261,157.862 450.578,151.555 445.865,110.415 " />
<polygon stroke="black" stroke-width="1" fill="rgb(204, 204, 204)" fill-opacity="1" points="544.822,228.415 544.822,184.217 507.645,181.711 507.645,221.891 " />
<polygon stroke="black" stroke-width="1" fill="rgb(204, 204, 204)" fill-opacity="1" points="544.822,184.217 544.822,135.823 507.645,137.718 507.645,181.711 " />
<polygon stroke="black" stroke-width="1" fill="rgb(204, 204, 204)" fill-opacity="1" points="544.822,135.823 544.822,90.602 507.645,96.607 507.645,137.718 " />
<polygon stroke="black" stroke-width="1" fill="rgb(204, 204, 204)" fill-opacity="1" points="544.822,90.602 544.822,55.438 507.645,64.640 507.645,96.607 " />
<polygon stroke="black" stroke-width="1" fill="rgb(204, 204, 204)" fill-opacity="1" points="817.178,374.508 818.163,347.606 780.732,339.840 779.836,364.296 " />
<polygon stroke="black" stroke-width="1" fill="rgb(204, 204, 204)" fill-opacity="1" points="818.163,347.606 818.696,307.349 781.216,303.243 780.732,339.840 " />
<polygon stroke="black" stroke-width="1" fill="rgb(204, 204, 204)" fill-opacity="1" points="818.696,307.349 818.696,259.867 781.216,260.077 781.216,303.243 " />
<polygon stroke="black" stroke-width="1" fill="rgb(204, 204, 204)" fill-opacity="1" points="818.696,259.867 818.163,212.388 780.732,216.914 781.216,260.077 " />
<polygon stroke="black" stroke-width="1" fill="rgb(204, 204, 204)" fill-opacity="1" points="818.163,212.388 817.179,172.140 779.836,180.325 780.732,216.914 " />
<polygon stroke="black" stroke-width="1" fill="rgb(204, 204, 204)" fill-opacity="1" points="323.566,228.415 323.566,188.162 286.388,183.845 286.388,220.439 " />
<polygon stroke="black" stroke-width="1" fill="rgb(204, 204, 204)" fill-opacity="1" points="323.566,188.162 323.566,140.680 286.388,140.680 286.388,183.845 " />
<polygon stroke="black" stroke-width="1" fill="rgb(204, 204, 204)" fill-opacity="1" points="323.566,140.680 323.566,93.199 286.388,97.515 286.388,140.680 " />
<polygon stroke="black" stroke-width="1" fill="rgb(204, 204, 204)" fill-opacity="1" points="323.566,93.199 323.566,52.946 286.388,60.922 286.388,97.515 " />
<polygon stroke="black" stroke-width="1" fill="rgb(204, 204, 204)" fill-opacity="1" points="96.294,595.764 140.305,595.765 180.965,578.922 212.085,547.802 228.928,507.142 228.928,463.131 212.086,422.470 180.965,391.350 140.305,374.508 96.294,374.508 55.634,391.350 24.513,422.470 7.671,463.131 7.671,507.141 24.513,547.802 55.633,578.922 " />
<polygon stroke="black" stroke-width="1" fill="rgb(204, 204, 204)" fill-opacity="1" points="412.261,20.063 407.077,64.219 445.865,66.425 450.578,26.283 " />
<polygon stroke="black" stroke-width="1" fill="rgb(204, 204, 204)" fill-opacity="1" points="407.077,64.219 407.077,112.607 445.865,110.415 445.865,66.425 " />
<polygon stroke="black" stroke-width="1" fill="rgb(204, 204, 204)" fill-opacity="1" points="634.798,360.230 661.017,360.230 685.241,350.196 703.781,331.656 713.815,307.432 713.815,281.213 703.781,256.989 685.241,238.448 661.017,228.415 634.798,228.415 610.574,238.448 592.034,256.989 582.000,281.213 582.000,307.432 592.034,331.656 610.574,350.196 " />
<polygon stroke="black" stroke-width="1" fill="rgb(204, 204, 204)" fill-opacity="1" points="374.480,67.068 374.480,111.057 407.077,112.607 407.077,64.219 " />
<polygon stroke="black" stroke-width="1" fill="rgb(204, 204, 204)" fill-opacity="1" points="379.193,26.926 374.480,67.068 407.077,64.219 412.261,20.063 " />
<polygon stroke="black" stroke-width="1" fill="rgb(204, 204, 204)" fill-opacity="1" points="360.743,97.515 360.743,60.922 323.566,52.946 323.566,93.199 " />
<polygon stroke="black" stroke-width="1" fill="rgb(204, 204, 204)" fill-opacity="1" points="360.743,140.680 360.743,97.515 323.566,93.199 323.566,140.680 " />
<polygon stroke="black" stroke-width="1" fill="rgb(204, 204, 204)" fill-opacity="1" points="360.743,183.845 360.743,140.680 323.566,140.680 323.566,188.162 " />
<polygon stroke="black" stroke-width="1" fill="rgb(204, 204, 204)" fill-opacity="1" points="360.743,220.439 360.743,183.845 323.566,188.162 323.566,228.415 " />
<polygon stroke="black" stroke-width="1" fill="rgb(204, 204, 204)" fill-opacity="1" points="855.056,216.497 854.160,179.908 817.179,172.140 818.163,212.388 " />
<polygon stroke="black" stroke-width="1" fill="rgb(204, 204, 204)" fill-opacity="1" points="855.540,259.660 855.056,216.497 818.163,212.388 818.696,259.867 " />
<polygon stroke="black" stroke-width="1" fill="rgb(204, 204, 204)" fill-opacity="1" points="855.540,302.826 855.540,259.660 818.696,259.867 818.696,307.349 " />
<polygon stroke="black" stroke-width="1" fill="rgb(204, 204, 204)" fill-opacity="1" points="855.056,339.423 855.540,302.826 818.696,307.349 818.163,347.606 " />
<polygon stroke="black" stroke-width="1" fill="rgb(204, 204, 204)" fill-opacity="1" points="854.160,363.879 855.056,339.423 818.163,347.606 817.178,374.508 " />
<polygon stroke="black" stroke-width="1" fill="rgb(204, 204, 204)" fill-opacity="1" points="582.000,96.607 582.000,64.640 544.822,55.438 544.822,90.602 " />
<polygon stroke="black" stroke-width="1" fill="rgb(204, 204, 204)" fill-opacity="1" points="582.000,137.718 582.000,96.607 544.822,90.602 544.822,135.823 " />
<polygon stroke="black" stroke-width="1" fill="rgb(204, 204, 204)" fill-opacity="1" points="582.000,181.711 582.000,137.718 544.822,135.823 544.822,184.217 " />
<polygon stroke="black" stroke-width="1" fill="rgb(204, 204, 204)" fill-opacity="1" points="582.000,221.891 582.000,181.711 544.822,184.217 544.822,228.415 " />
<polygon stroke="black" stroke-width="1" fill="rgb(204, 204, 204)" fill-opacity="1" points="374.480,111.057 379.193,152.198 412.261,157.862 407.077,112.607 " />
<polygon stroke="black" stroke-width="1" fill="rgb(204, 204, 204)" fill-opacity="1" points="68.300,338.710 55.633,357.666 96.294,374.508 100.742,352.148 " />
<polygon stroke="black" stroke-width="1" fill="rgb(204, 204, 204)" fill-opacity="1" points="43.469,313.879 24.513,326.546 55.633,357.666 68.300,338.710 " />
<polygon stroke="black" stroke-width="1" fill="rgb(204, 204, 204)" fill-opacity="1" points="30.031,281.437 7.671,285.885 24.513,326.546 43.469,313.879 " />
<polygon stroke="black" stroke-width="1" fill="rgb(204, 204, 204)" fill-opacity="1" points="30.031,246.322 7.671,241.874 7.671,285.885 30.031,281.437 " />
<polygon stroke="black" stroke-width="1" fill="rgb(204, 204, 204)" fill-opacity="1" points="43.469,213.880 24.513,201.214 7.671,241.874 30.031,246.322 " />
<polygon stroke="black" stroke-width="1" fill="rgb(204, 204, 204)" fill-opacity="1" points="68.299,189.050 55.633,170.094 24.513,201.214 43.469,213.880 " />
<polygon stroke="black" stroke-width="1" fill="rgb(204, 204, 204)" fill-opacity="1" points="100.742,175.612 96.294,153.251 55.633,170.094 68.299,189.050 " />
<polygon stroke="black" stroke-width="1" fill="rgb(204, 204, 204)" fill-opacity="1" points="135.857,175.611 140.305,153.251 96.294,153.251 100.742,175.612 " />
<polygon stroke="black" stroke-width="1" fill="rgb(204, 204, 204)" fill-opacity="1" points="168.299,189.050 180.965,170.094 140.305,153.251 135.857,175.611 " />
<polygon stroke="black" stroke-width="1" fill="rgb(204, 204, 204)" fill-opacity="1" points="193.129,213.880 212.085,201.214 180.965,170.094 168.299,189.050 " />
<polygon stroke="black" stroke-width="1" fill="rgb(204, 204, 204)" fill-opacity="1" points="206.567,246.322 228.928,241.874 212.085,201.214 193.129,213.880 " />
<polygon stroke="black" stroke-width="1" fill="rgb(204, 204, 204)" fill-opacity="1" points="206.567,281.437 228.928,285.885 228.928,241.874 206.567,246.322 " />
<polygon stroke="black" stroke-width="1" fill="rgb(204, 204, 204)" fill-opacity="1" points="193.129,313.879 212.085,326.545 228.928,285.885 206.567,281.437 " />
<polygon stroke="black" stroke-width="1" fill="rgb(204, 204, 204)" fill-opacity="1" points="168.299,338.710 180.965,357.666 212.085,326.545 193.129,313.879 " />
<polygon stroke="black" stroke-width="1" fill="rgb(204, 204, 204)" fill-opacity="1" points="135.857,352.148 140.305,374.508 180.965,357.666 168.299,338.710 " />
<polygon stroke="black" stroke-width="1" fill="rgb(204, 204, 204)" fill-opacity="1" points="100.742,352.148 96.294,374.508 140.305,374.508 135.857,352.148 " />
<polygon stroke="black" stroke-width="1" fill="rgb(204, 204, 204)" fill-opacity="1" points="105.190,329.787 100.742,352.148 135.857,352.148 131.409,329.787 " />
<polygon stroke="black" stroke-width="1" fill="rgb(204, 204, 204)" fill-opacity="1" points="131.409,329.787 135.857,352.148 168.299,338.710 155.633,319.753 " />
<polygon stroke="black" stroke-width="1" fill="rgb(204, 204, 204)" fill-opacity="1" points="155.633,319.753 168.299,338.710 193.129,313.879 174.173,301.213 " />
<polygon stroke="black" stroke-width="1" fill="rgb(204, 204, 204)" fill-opacity="1" points="174.173,301.213 193.129,313.879 206.567,281.437 184.207,276.989 " />
<polygon stroke="black" stroke-width="1" fill="rgb(204, 204, 204)" fill-opacity="1" points="184.207,276.989 206.567,281.437 206.567,246.322 184.207,250.770 " />
<polygon stroke="black" stroke-width="1" fill="rgb(204, 204, 204)" fill-opacity="1" points="184.207,250.770 206.567,246.322 193.129,213.880 174.173,226.546 " />
<polygon stroke="black" stroke-width="1" fill="rgb(204, 204, 204)" fill-opacity="1" points="174.173,226.546 193.129,213.880 168.299,189.050 155.633,208.006 " />
<polygon stroke="black" stroke-width="1" fill="rgb(204, 204, 204)" fill-opacity="1" points="155.633,208.006 168.299,189.050 135.857,175.611 131.409,197.972 " />
<polygon stroke="black" stroke-width="1" fill="rgb(204, 204, 204)" fill-opacity="1" points="131.409,197.972 135.857,175.611 100.742,175.612 105.189,197.972 " />
<polygon stroke="black" stroke-width="1" fill="rgb(204, 204, 204)" fill-opacity="1" points="105.189,197.972 100.742,175.612 68.299,189.050 80.966,208.006 " />
<polygon stroke="black" stroke-width="1" fill="rgb(204, 204, 204)" fill-opacity="1" points="80.966,208.006 68.299,189.050 43.469,213.880 62.425,226.546 " />
<polygon stroke="black" stroke-width="1" fill="rgb(204, 204, 204)" fill-opacity="1" points="62.425,226.546 43.469,213.880 30.031,246.322 52.392,250.770 " />
<polygon stroke="black" stroke-width="1" fill="rgb(204, 204, 204)" fill-opacity="1" points="52.392,250.770 30.031,246.322 30.031,281.437 52.392,276.989 " />
<polygon stroke="black" stroke-width="1" fill="rgb(204, 204, 204)" fill-opacity="1" points="52.392,276.989 30.031,281.437 43.469,313.879 62.426,301.213 " />
<polygon stroke="black" stroke-width="1" fill="rgb(204, 204, 204)" fill-opacity="1" points="62.426,301.213 43.469,313.879 68.300,338.710 80.966,319.753 " />
<polygon stroke="black" stroke-width="1" fill="rgb(204, 204, 204)" fill-opacity="1" points="80.966,319.753 68.300,338.710 100.742,352.148 105.190,329.787 " />
<polygon stroke="black" stroke-width="1" fill="rgb(204, 204, 204)" fill-opacity="1" points="671.441,374.508 671.441,481.567 779.836,481.567 779.836,374.508 " />
<polygon stroke="black" stroke-width="1" fill="rgb(204, 204, 204)" fill-opacity="1" points="671.441,481.567 671.441,695.684 779.836,695.684 779.836,481.567 " />
<polygon stroke="black" stroke-width="1" fill="rgb(204, 204, 204)" fill-opacity="1" points="671.441,695.684 671.441,802.743 779.836,802.743 779.836,695.684 " />
<polygon stroke="black" stroke-width="1" fill="rgb(204, 204, 204)" fill-opacity="1" points="779.836,440.246 779.836,500.400 888.231,500.400 888.231,440.246 " />
<polygon stroke="black" stroke-width="1" fill="rgb(204, 204, 204)" fill-opacity="1" points="228.928,916.941 228.928,702.823 171.696,595.765 114.464,702.823 114.464,916.941 171.696,1024.000 " />
<polygon stroke="black" stroke-width="1" fill="rgb(204, 204, 204)" fill-opacity="1" points="779.836,500.400 779.836,681.649 888.231,681.649 888.231,500.400 " />
<polygon stroke="black" stroke-width="1" fill="rgb(204, 204, 204)" fill-opacity="1" points="779.836,681.649 779.836,802.743 888.231,802.743 888.231,681.649 " />
<polygon stroke="black" stroke-width="1" fill="rgb(204, 204, 204)" fill-opacity="1" points="57.232,595.764 0.000,702.823 0.000,916.941 57.232,1024.000 114.464,916.941 114.464,702.823 " />
<polygon stroke="black" stroke-width="1" fill="rgb(204, 204, 204)" fill-opacity="1" points="963.681,0.237 947.121,0.000 947.121,198.077 963.681,198.314 " />
<polygon stroke="black" stroke-width="1" fill="rgb(204, 204, 204)" fill-opacity="1" points="947.121,0.000 931.244,0.776 931.244,198.853 947.121,198.077 " />
<polygon stroke="black" stroke-width="1" fill="rgb(204, 204, 204)" fill-opacity="1" points="1022.858,602.182 1009.031,602.182 1009.031,802.743 1022.858,802.743 " />
<polygon stroke="black" stroke-width="1" fill="rgb(204, 204, 204)" fill-opacity="1" points="1009.031,602.182 992.722,602.182 992.722,802.743 1009.031,802.743 " />
<polygon stroke="black" stroke-width="1" fill="rgb(204, 204, 204)" fill-opacity="1" points="992.722,602.182 976.413,602.182 976.413,802.743 992.722,802.743 " />
<polygon stroke="black" stroke-width="1" fill="rgb(204, 204, 204)" fill-opacity="1" points="976.413,602.182 962.586,602.182 962.586,802.743 976.413,802.743 " />
<polygon stroke="black" stroke-width="1" fill="rgb(204, 204, 204)" fill-opacity="1" points="962.586,602.182 976.668,602.182 976.668,401.621 962.586,401.621 " />
<polygon stroke="black" stroke-width="1" fill="rgb(204, 204, 204)" fill-opacity="1" points="976.668,602.182 993.062,602.182 993.062,401.621 976.668,401.621 " />
<polygon stroke="black" stroke-width="1" fill="rgb(204, 204, 204)" fill-opacity="1" points="993.062,602.182 1009.274,602.182 1009.274,401.621 993.062,401.621 " />
<polygon stroke="black" stroke-width="1" fill="rgb(204, 204, 204)" fill-opacity="1" points="1009.274,602.182 1022.834,602.182 1022.834,401.620 1009.274,401.621 " />
<polygon stroke="black" stroke-width="1" fill="rgb(204, 204, 204)" fill-opacity="1" points="953.315,1003.305 967.142,1003.305 967.141,802.743 953.315,802.743 " />
<polygon stroke="black" stroke-width="1" fill="rgb(204, 204, 204)" fill-opacity="1" points="967.142,1003.305 983.451,1003.305 983.451,802.743 967.141,802.743 " />
<polygon stroke="black" stroke-width="1" fill="rgb(204, 204, 204)" fill-opacity="1" points="983.451,1003.305 999.760,1003.305 999.760,802.743 983.451,802.743 " />
<polygon stroke="black" stroke-width="1" fill="rgb(204, 204, 204)" fill-opacity="1" points="999.760,1003.305 1013.587,1003.305 1013.587,802.743 999.760,802.743 " />
<polygon stroke="black" stroke-width="1" fill="rgb(204, 204, 204)" fill-opacity="1" points="989.048,3.454 978.404,1.449 978.404,199.527 989.048,201.531 " />
<polygon stroke="black" stroke-width="1" fill="rgb(204, 204, 204)" fill-opacity="1" points="978.404,1.449 963.681,0.237 963.681,198.314 978.404,199.527 " />
<polygon stroke="black" stroke-width="1" fill="rgb(204, 204, 204)" fill-opacity="1" points="739.900,227.374 751.996,226.989 751.996,10.059 739.900,10.444 " />
<polygon stroke="black" stroke-width="1" fill="rgb(204, 204, 204)" fill-opacity="1" points="779.836,211.309 768.621,214.593 768.621,374.508 779.836,371.223 " />
<polygon stroke="black" stroke-width="1" fill="rgb(204, 204, 204)" fill-opacity="1" points="768.621,214.593 757.406,211.309 757.406,371.223 768.621,374.508 " />
<polygon stroke="black" stroke-width="1" fill="rgb(204, 204, 204)" fill-opacity="1" points="507.645,10.924 496.345,10.555 496.345,228.045 507.645,228.415 " />
<polygon stroke="black" stroke-width="1" fill="rgb(204, 204, 204)" fill-opacity="1" points="496.345,10.555 485.238,10.008 485.238,227.498 496.345,228.045 " />
<polygon stroke="black" stroke-width="1" fill="rgb(204, 204, 204)" fill-opacity="1" points="228.928,225.130 240.143,228.415 240.143,68.500 228.928,65.215 " />
<polygon stroke="black" stroke-width="1" fill="rgb(204, 204, 204)" fill-opacity="1" points="360.743,360.230 372.122,357.454 372.122,187.173 360.743,189.949 " />
<polygon stroke="black" stroke-width="1" fill="rgb(204, 204, 204)" fill-opacity="1" points="730.710,228.415 739.900,227.374 739.900,10.444 730.710,11.485 " />

</svg>
