<?xml version="1.0" encoding="UTF-8" standalone="no"?>
<svg
   width="1024"
   height="1024"
   viewBox="0 0 1024 1024"
   version="1.1"
   id="svg7"
   sodipodi:docname="WC_left.svg"
   inkscape:version="1.3.2 (091e20ef0f, 2023-11-25, custom)"
   xml:space="preserve"
   xmlns:inkscape="http://www.inkscape.org/namespaces/inkscape"
   xmlns:sodipodi="http://sodipodi.sourceforge.net/DTD/sodipodi-0.dtd"
   xmlns:xlink="http://www.w3.org/1999/xlink"
   xmlns="http://www.w3.org/2000/svg"
   xmlns:svg="http://www.w3.org/2000/svg"><defs
     id="defs7"><linearGradient
       id="linearGradient14"
       inkscape:collect="always"><stop
         style="stop-color:#1a1a1a;stop-opacity:1;"
         offset="0"
         id="stop15" /><stop
         style="stop-color:#1a1a1a;stop-opacity:0;"
         offset="1"
         id="stop16" /></linearGradient><linearGradient
       id="linearGradient9"
       inkscape:collect="always"><stop
         style="stop-color:#404040;stop-opacity:1;"
         offset="0"
         id="stop9" /><stop
         style="stop-color:#e4e4e4;stop-opacity:1;"
         offset="0.25"
         id="stop14" /><stop
         style="stop-color:#e5e5e5;stop-opacity:1;"
         offset="0.5"
         id="stop11" /><stop
         style="stop-color:#9f9f9f;stop-opacity:1;"
         offset="0.625"
         id="stop13" /><stop
         style="stop-color:#f2f2f2;stop-opacity:1;"
         offset="0.75"
         id="stop12" /><stop
         style="stop-color:#b2b2b2;stop-opacity:1;"
         offset="1"
         id="stop10" /></linearGradient><linearGradient
       inkscape:collect="always"
       xlink:href="#linearGradient14"
       id="linearGradient11"
       gradientUnits="userSpaceOnUse"
       x1="361.69034"
       y1="837.91113"
       x2="405.71689"
       y2="863.42462" /><linearGradient
       inkscape:collect="always"
       xlink:href="#linearGradient9"
       id="linearGradient12"
       gradientUnits="userSpaceOnUse"
       gradientTransform="matrix(1.0015019,0,0,0.95666792,-0.67835576,37.030857)"
       x1="345.96127"
       y1="662.58801"
       x2="557.42444"
       y2="1024" /><linearGradient
       inkscape:collect="always"
       xlink:href="#linearGradient14"
       id="linearGradient13"
       gradientUnits="userSpaceOnUse"
       x1="361.69034"
       y1="837.91113"
       x2="405.71689"
       y2="863.42462" /><linearGradient
       inkscape:collect="always"
       xlink:href="#linearGradient9"
       id="linearGradient15"
       gradientUnits="userSpaceOnUse"
       gradientTransform="matrix(1.0015019,0,0,0.95666792,-0.67835576,37.030857)"
       x1="345.96127"
       y1="662.58801"
       x2="557.42444"
       y2="1024" /><linearGradient
       inkscape:collect="always"
       xlink:href="#linearGradient9"
       id="linearGradient25"
       x1="602.17902"
       y1="0"
       x2="727.78497"
       y2="361.41199"
       gradientUnits="userSpaceOnUse" /><linearGradient
       inkscape:collect="always"
       xlink:href="#linearGradient9"
       id="linearGradient27"
       x1="662.69983"
       y1="145.20647"
       x2="668.51477"
       y2="151.32892"
       gradientUnits="userSpaceOnUse" /></defs><sodipodi:namedview
     id="namedview7"
     pagecolor="#505050"
     bordercolor="#ffffff"
     borderopacity="1"
     inkscape:showpageshadow="0"
     inkscape:pageopacity="0"
     inkscape:pagecheckerboard="1"
     inkscape:deskcolor="#d1d1d1"
     inkscape:zoom="0.31992416"
     inkscape:cx="484.48983"
     inkscape:cy="395.40622"
     inkscape:window-width="1366"
     inkscape:window-height="724"
     inkscape:window-x="-1"
     inkscape:window-y="-1"
     inkscape:window-maximized="1"
     inkscape:current-layer="svg7" /><desc
     id="desc1">Boeing_747_first_class.blend, (Blender 3.3.9)</desc><rect
     style="fill:#ffffff;stroke:none;stroke-width:5.48588;stroke-linecap:round"
     id="rect15"
     width="1023.9999"
     height="1024"
     x="0"
     y="0" /><polygon
     stroke="#000000"
     stroke-width="1"
     fill="#cccccc"
     fill-opacity="1"
     points="301.177,662.588 301.177,1024 602.353,1024 602.353,662.588 "
     id="polygon1"
     transform="translate(0.5)"
     style="fill:#ffffff;stroke:none" /><polygon
     stroke="#000000"
     stroke-width="1"
     fill="#cccccc"
     fill-opacity="1"
     points="0,301.177 0,662.588 301.002,662.588 301.002,301.177 "
     id="polygon2"
     transform="translate(0.5)"
     style="fill:#ffffff;stroke:none" /><polygon
     stroke="#000000"
     stroke-width="1"
     fill="#cccccc"
     fill-opacity="1"
     points="903.181,361.412 602.179,361.412 602.179,662.588 903.181,662.588 "
     id="polygon3"
     transform="translate(0.5)"
     style="fill:#ffffff;stroke:none" /><polygon
     stroke="#000000"
     stroke-width="1"
     fill="#cccccc"
     fill-opacity="1"
     points="0,662.588 0,1024 301.177,1024 301.177,662.588 "
     id="polygon4"
     transform="translate(0.5)"
     style="fill:#ffffff;stroke:none" /><polygon
     stroke="#000000"
     stroke-width="1"
     fill="#cccccc"
     fill-opacity="1"
     points="301.177,301.177 301.177,662.588 602.179,662.588 602.179,301.177 "
     id="polygon5"
     transform="translate(0.5)"
     style="fill:#ffffff;stroke:none" /><polygon
     stroke="#000000"
     stroke-width="1"
     fill="#cccccc"
     fill-opacity="1"
     points="903.355,722.823 602.353,722.823 602.353,1024 903.355,1024 "
     id="polygon6"
     transform="translate(0.5)"
     style="fill:#ffffff;stroke:none" /><polygon
     stroke="#000000"
     stroke-width="1"
     fill="#cccccc"
     fill-opacity="1"
     points="727.785,0 602.179,0 602.179,361.412 727.785,361.412 "
     id="polygon7"
     transform="translate(0.5)"
     style="fill:#ffffff;stroke:none" /><g
     id="g11"
     transform="matrix(0.783095,0,0,0.783095,-202.62955,222.11072)"><rect
       style="fill:url(#linearGradient11);fill-opacity:1;stroke-width:2.314"
       id="rect4"
       width="44.026539"
       height="25.513494"
       x="361.69034"
       y="837.91113" /><rect
       style="fill:#333333;stroke-width:2.314"
       id="rect5"
       width="44.02655"
       height="12.756744"
       x="361.69034"
       y="850.66785" /><path
       style="color:#000000;fill:url(#linearGradient12);stroke:#000000;stroke-opacity:1;-inkscape-stroke:none"
       d="M 338.46094,663.08789 V 1024 H 564.92383 V 663.08789 Z m 14.68359,14.68164 H 550.24219 V 1009.3184 H 353.14453 Z"
       id="path5" /><g
       id="g7"
       transform="matrix(0.11695906,0,0,0.11695906,464.42954,733.28969)"><circle
         cx="175"
         cy="175"
         r="156"
         style="fill:#ffffff;fill-opacity:1;stroke:#da0000;stroke-width:30;stroke-opacity:1"
         id="circle5" /><path
         d="m 59.7483,209.467 v 40.019 H 250.102 v -40.019 z m 196.0367,40.019 h 9.961 v -40.019 h -9.961 z m 16.245,0 h 9.961 V 209.467 H 272.03 Z M 160.051,84.2327 c 0,18.1603 9.606,33.9273 23.506,38.5973 4.304,1.445 4.373,1.355 4.373,4.807 0,1.796 -0.101,2.694 -0.101,4.49 0,19.33 9.182,26.972 17.253,32.217 l 19.178,0.393 c 20.301,0.417 21.85,0.649 25.841,3.878 2.307,1.866 4.514,6.17 5.144,10.029 0.297,1.82 0.541,7.714 0.541,13.098 0,5.383 0.151,9.987 0.336,10.229 0.184,0.243 2.452,0.442 5.039,0.442 h 4.704 v -11.778 c 0,-12.792 -0.488,-16.727 -2.819,-22.771 -1.742,-4.516 -5.832,-9.787 -9.342,-12.04 -5.834,-3.744 -6.773,-3.893 -27.148,-4.324 -20.841,-0.441 -20.876,-0.448 -24.108,-4.769 -2.878,-3.848 -4.393,-9.328 -4.393,-14.913 0,-7.128 2.761,-11.404 2.761,-14.255 0,-12.662 -25.818,2.108 -30.299,-29.5588 -0.188,-1.3279 -0.279,-2.7032 -0.279,-4.1011 0,-14.2919 9.593,-26.4844 15.988,-26.4844 3.194,0 3.496,-1.5899 3.496,-3.9747 0,-1.5107 0.009,-2.8035 0.009,-3.9062 0,-4.6296 -0.162,-5.9102 -1.844,-5.9102 -11.134,0 -27.829,13.4541 -27.836,40.6051 z m 40.048,-27.1451 v 12.4893 c 0,5e-4 24.17,2.1709 24.169,30.0311 -0.05,16.448 -6.179,21.634 -6.179,26.832 0,5.506 2.415,6.455 13.69,6.455 11.915,0 16.033,0.878 21.879,4.664 7.373,4.775 13.168,13.939 16.1,25.46 1.283,5.042 1.355,6.047 1.509,20.856 0.089,8.557 0.275,16.229 0.413,17.048 0.24,1.425 0.473,1.49 5.337,1.49 h 5.085 l -0.236,-16.718 c -0.215,-15.311 -0.345,-17.261 -1.54,-23.184 -4.449,-22.046 -16.901,-37.875 -32.974,-41.915 -2.062,-0.518 -6.211,-0.942 -9.219,-0.942 -4.713,0 -5.782,-0.35 -5.782,-0.876 0,-3.594 2.469,-7.189 2.469,-17.972 0,-29.5385 -20.128,-43.9448 -31.716,-43.9448 -0.3,0 -0.603,0.0248 -3.005,0.2264 z"
         id="path6" /><path
         transform="translate(-14,14)"
         d="M 65,65 285,285"
         style="fill:none;stroke:#da0000;stroke-width:39;stroke-linecap:butt;stroke-opacity:1"
         id="path7" /></g><g
       id="g10"
       transform="matrix(0.06993002,0,0,0.06993002,405.71451,733.67443)"><circle
         cx="130.9501"
         cy="46.58577"
         r="46.545212"
         id="circle7" /><path
         d="m 124.50539,388.15534 v 161.83399 c -0.24346,29.40221 -44.010414,29.40221 -44.397086,0 V 388.15534 H 22.821751 L 84.404788,171.89962 H 74.379644 L 38.57554,295.0651 C 29.524278,322.30474 -7.3109962,311.27714 1.3392857,282.17574 L 41.43986,148.98509 c 4.611576,-15.29544 23.8885,-42.30448 57.286572,-42.96472 h 30.075448 34.37196 c 32.43566,0.66024 51.79279,27.89844 57.28657,42.96472 l 40.1006,133.19065 c 8.1347,28.95816 -28.40842,40.84508 -37.23628,12.88936 l -35.8041,-123.16548 h -11.45732 l 63.01524,216.25572 H 180.3598 v 161.83399 c 0.4583,29.40221 -43.13678,29.25897 -42.96493,0 V 388.15534 Z"
         id="path8" /><circle
         cx="511.90546"
         cy="46.58577"
         r="46.545212"
         id="circle8" /><path
         d="m 462.49589,106.02037 c -35.78976,0 -58.71876,30.98756 -58.71876,61.58276 v 143.21573 c -0.3294,27.98432 39.966,27.98432 40.10064,0 V 179.06038 h 10.02512 v 363.76815 c -0.62156,37.98085 53.04736,36.89241 52.99008,0 V 330.86906 h 8.593 v 211.95947 c 0.70176,36.89241 54.65136,37.98085 54.4222,0 V 179.06038 h 10.02516 v 131.75848 c -0.4726,28.19916 39.61368,28.19916 40.10056,0 V 167.60313 c -0.5728,-30.5952 -24.36108,-61.03424 -60.15084,-61.58276 z"
         id="path9" /><rect
         x="297.79132"
         y="5.7684445"
         width="52.996765"
         height="562.84003"
         id="rect10" /></g></g><g
     id="g13"
     transform="matrix(0.783095,0,0,0.783095,98.546952,222.11072)"><rect
       style="fill:url(#linearGradient13);fill-opacity:1;stroke-width:2.314"
       id="rect1"
       width="44.026539"
       height="25.513494"
       x="361.69034"
       y="837.91113" /><rect
       style="fill:#333333;stroke-width:2.314"
       id="rect2"
       width="44.02655"
       height="12.756744"
       x="361.69034"
       y="850.66785" /><path
       style="color:#000000;fill:url(#linearGradient15);stroke:#000000;stroke-opacity:1;-inkscape-stroke:none"
       d="M 338.46094,663.08789 V 1024 H 564.92383 V 663.08789 Z m 14.68359,14.68164 H 550.24219 V 1009.3184 H 353.14453 Z"
       id="path2" /><g
       id="g4"
       transform="matrix(0.11695906,0,0,0.11695906,464.42954,733.28969)"><circle
         cx="175"
         cy="175"
         r="156"
         style="fill:#ffffff;fill-opacity:1;stroke:#da0000;stroke-width:30;stroke-opacity:1"
         id="circle2" /><path
         d="m 59.7483,209.467 v 40.019 H 250.102 v -40.019 z m 196.0367,40.019 h 9.961 v -40.019 h -9.961 z m 16.245,0 h 9.961 V 209.467 H 272.03 Z M 160.051,84.2327 c 0,18.1603 9.606,33.9273 23.506,38.5973 4.304,1.445 4.373,1.355 4.373,4.807 0,1.796 -0.101,2.694 -0.101,4.49 0,19.33 9.182,26.972 17.253,32.217 l 19.178,0.393 c 20.301,0.417 21.85,0.649 25.841,3.878 2.307,1.866 4.514,6.17 5.144,10.029 0.297,1.82 0.541,7.714 0.541,13.098 0,5.383 0.151,9.987 0.336,10.229 0.184,0.243 2.452,0.442 5.039,0.442 h 4.704 v -11.778 c 0,-12.792 -0.488,-16.727 -2.819,-22.771 -1.742,-4.516 -5.832,-9.787 -9.342,-12.04 -5.834,-3.744 -6.773,-3.893 -27.148,-4.324 -20.841,-0.441 -20.876,-0.448 -24.108,-4.769 -2.878,-3.848 -4.393,-9.328 -4.393,-14.913 0,-7.128 2.761,-11.404 2.761,-14.255 0,-12.662 -25.818,2.108 -30.299,-29.5588 -0.188,-1.3279 -0.279,-2.7032 -0.279,-4.1011 0,-14.2919 9.593,-26.4844 15.988,-26.4844 3.194,0 3.496,-1.5899 3.496,-3.9747 0,-1.5107 0.009,-2.8035 0.009,-3.9062 0,-4.6296 -0.162,-5.9102 -1.844,-5.9102 -11.134,0 -27.829,13.4541 -27.836,40.6051 z m 40.048,-27.1451 v 12.4893 c 0,5e-4 24.17,2.1709 24.169,30.0311 -0.05,16.448 -6.179,21.634 -6.179,26.832 0,5.506 2.415,6.455 13.69,6.455 11.915,0 16.033,0.878 21.879,4.664 7.373,4.775 13.168,13.939 16.1,25.46 1.283,5.042 1.355,6.047 1.509,20.856 0.089,8.557 0.275,16.229 0.413,17.048 0.24,1.425 0.473,1.49 5.337,1.49 h 5.085 l -0.236,-16.718 c -0.215,-15.311 -0.345,-17.261 -1.54,-23.184 -4.449,-22.046 -16.901,-37.875 -32.974,-41.915 -2.062,-0.518 -6.211,-0.942 -9.219,-0.942 -4.713,0 -5.782,-0.35 -5.782,-0.876 0,-3.594 2.469,-7.189 2.469,-17.972 0,-29.5385 -20.128,-43.9448 -31.716,-43.9448 -0.3,0 -0.603,0.0248 -3.005,0.2264 z"
         id="path3" /><path
         transform="translate(-14,14)"
         d="M 65,65 285,285"
         style="fill:none;stroke:#da0000;stroke-width:39;stroke-linecap:butt;stroke-opacity:1"
         id="path4" /></g><g
       id="g12"
       transform="matrix(0.06993002,0,0,0.06993002,405.71451,733.67443)"><circle
         cx="130.9501"
         cy="46.58577"
         r="46.545212"
         id="circle4" /><path
         d="m 124.50539,388.15534 v 161.83399 c -0.24346,29.40221 -44.010414,29.40221 -44.397086,0 V 388.15534 H 22.821751 L 84.404788,171.89962 H 74.379644 L 38.57554,295.0651 C 29.524278,322.30474 -7.3109962,311.27714 1.3392857,282.17574 L 41.43986,148.98509 c 4.611576,-15.29544 23.8885,-42.30448 57.286572,-42.96472 h 30.075448 34.37196 c 32.43566,0.66024 51.79279,27.89844 57.28657,42.96472 l 40.1006,133.19065 c 8.1347,28.95816 -28.40842,40.84508 -37.23628,12.88936 l -35.8041,-123.16548 h -11.45732 l 63.01524,216.25572 H 180.3598 v 161.83399 c 0.4583,29.40221 -43.13678,29.25897 -42.96493,0 V 388.15534 Z"
         id="path10" /><circle
         cx="511.90546"
         cy="46.58577"
         r="46.545212"
         id="circle10" /><path
         d="m 462.49589,106.02037 c -35.78976,0 -58.71876,30.98756 -58.71876,61.58276 v 143.21573 c -0.3294,27.98432 39.966,27.98432 40.10064,0 V 179.06038 h 10.02512 v 363.76815 c -0.62156,37.98085 53.04736,36.89241 52.99008,0 V 330.86906 h 8.593 v 211.95947 c 0.70176,36.89241 54.65136,37.98085 54.4222,0 V 179.06038 h 10.02516 v 131.75848 c -0.4726,28.19916 39.61368,28.19916 40.10056,0 V 167.60313 c -0.5728,-30.5952 -24.36108,-61.03424 -60.15084,-61.58276 z"
         id="path11" /><rect
         x="297.79132"
         y="5.7684445"
         width="52.996765"
         height="562.84003"
         id="rect11" /></g></g><polygon
     stroke="#000000"
     stroke-width="1"
     fill="#cccccc"
     fill-opacity="1"
     points="602.179,0 602.179,361.412 727.785,361.412 727.785,0 "
     id="polygon15"
     transform="matrix(0.93346447,0,0,0.7590524,44.744924,82.930478)"
     style="fill:#ffffff;stroke:url(#linearGradient25);stroke-width:10.5398;stroke-dasharray:none;stroke-opacity:1" /><circle
     style="fill:#ffffff;stroke:url(#linearGradient27);stroke-width:1.54913;stroke-linecap:round;stroke-dasharray:none;stroke-opacity:1"
     id="path15"
     cx="665.48199"
     cy="148.38672"
     r="4.2254333" /></svg>
