<?xml version="1.0" standalone="no"?>
<!DOCTYPE svg PUBLIC "-//W3C//DTD SVG 1.1//EN" 
  "http://www.w3.org/Graphics/SVG/1.1/DTD/svg11.dtd">
<svg width="1024" height="1024" viewBox="0 0 1024 1024"
     xmlns="http://www.w3.org/2000/svg" version="1.1">
<desc>Boeing_747_400.blend, (Blender 3.3.9)</desc>
<polygon stroke="black" stroke-width="1" fill="rgb(204, 204, 204)" fill-opacity="1" points="311.013,784.187 578.676,1024.000 567.060,995.292 330.065,782.916 " />
<polygon stroke="black" stroke-width="1" fill="rgb(204, 204, 204)" fill-opacity="1" points="627.971,432.908 629.458,1024.000 648.460,991.014 637.866,437.893 " />
<polygon stroke="black" stroke-width="1" fill="rgb(204, 204, 204)" fill-opacity="1" points="578.676,55.077 523.694,5.832 515.836,48.715 559.934,88.212 " />
<polygon stroke="black" stroke-width="1" fill="rgb(204, 204, 204)" fill-opacity="1" points="289.255,373.190 135.340,510.324 167.202,751.137 198.037,975.388 243.445,937.429 " />
<polygon stroke="black" stroke-width="1" fill="rgb(204, 204, 204)" fill-opacity="1" points="574.980,668.426 432.773,541.054 330.065,782.916 567.060,995.292 " />
<polygon stroke="black" stroke-width="1" fill="rgb(204, 204, 204)" fill-opacity="1" points="584.429,649.822 596.537,49.383 590.118,54.589 578.889,646.961 " />
<polygon stroke="black" stroke-width="1" fill="rgb(204, 204, 204)" fill-opacity="1" points="648.460,649.875 650.961,1009.349 669.951,1024.000 669.951,617.809 " />
<polygon stroke="black" stroke-width="1" fill="rgb(204, 204, 204)" fill-opacity="1" points="648.460,338.292 648.692,360.397 657.907,360.926 657.907,337.215 " />
<polygon stroke="black" stroke-width="1" fill="rgb(204, 204, 204)" fill-opacity="1" points="559.934,88.212 515.836,48.715 477.012,273.731 437.688,509.771 574.873,641.232 " />
<polygon stroke="black" stroke-width="1" fill="rgb(204, 204, 204)" fill-opacity="1" points="291.768,344.658 131.423,478.702 135.340,510.324 289.255,373.190 " />
<polygon stroke="black" stroke-width="1" fill="rgb(204, 204, 204)" fill-opacity="1" points="628.039,403.786 627.971,432.908 637.866,437.893 637.973,410.699 " />
<polygon stroke="black" stroke-width="1" fill="rgb(204, 204, 204)" fill-opacity="1" points="637.070,55.107 628.039,403.786 637.973,410.699 648.460,83.905 " />
<polygon stroke="black" stroke-width="1" fill="rgb(204, 204, 204)" fill-opacity="1" points="277.444,26.328 32.992,229.979 131.423,478.702 291.768,344.658 " />
<polygon stroke="black" stroke-width="1" fill="rgb(204, 204, 204)" fill-opacity="1" points="603.083,1022.357 583.364,679.917 578.676,680.365 583.508,1024.000 " />
<polygon stroke="black" stroke-width="1" fill="rgb(204, 204, 204)" fill-opacity="1" points="123.537,521.436 119.487,492.757 101.525,511.429 106.444,539.470 " />
<polygon stroke="black" stroke-width="1" fill="rgb(204, 204, 204)" fill-opacity="1" points="574.873,641.232 437.688,509.771 432.773,541.054 574.980,668.426 " />
<polygon stroke="black" stroke-width="1" fill="rgb(204, 204, 204)" fill-opacity="1" points="425.253,499.293 420.256,527.732 432.773,541.054 437.688,509.771 " />
<polygon stroke="black" stroke-width="1" fill="rgb(204, 204, 204)" fill-opacity="1" points="406.539,483.110 400.625,510.972 420.256,527.732 425.253,499.293 " />
<polygon stroke="black" stroke-width="1" fill="rgb(204, 204, 204)" fill-opacity="1" points="621.619,49.128 616.415,392.380 628.039,403.786 637.070,55.107 " />
<polygon stroke="black" stroke-width="1" fill="rgb(204, 204, 204)" fill-opacity="1" points="616.415,392.380 616.433,425.791 627.971,432.908 628.039,403.786 " />
<polygon stroke="black" stroke-width="1" fill="rgb(204, 204, 204)" fill-opacity="1" points="616.433,425.791 623.444,1018.520 629.458,1024.000 627.971,432.908 " />
<polygon stroke="black" stroke-width="1" fill="rgb(204, 204, 204)" fill-opacity="1" points="688.001,1024.000 688.001,617.809 672.452,632.536 669.951,992.012 " />
<polygon stroke="black" stroke-width="1" fill="rgb(204, 204, 204)" fill-opacity="1" points="135.340,510.324 131.423,478.702 119.487,492.757 123.537,521.436 " />
<polygon stroke="black" stroke-width="1" fill="rgb(204, 204, 204)" fill-opacity="1" points="616.415,995.513 590.231,677.938 583.364,679.917 603.083,1022.357 " />
<polygon stroke="black" stroke-width="1" fill="rgb(204, 204, 204)" fill-opacity="1" points="590.231,677.938 591.677,649.333 584.429,649.822 583.364,679.917 " />
<polygon stroke="black" stroke-width="1" fill="rgb(204, 204, 204)" fill-opacity="1" points="32.992,229.979 277.444,26.328 291.768,0.000 15.865,230.160 " />
<polygon stroke="black" stroke-width="1" fill="rgb(204, 204, 204)" fill-opacity="1" points="591.677,649.333 616.415,83.778 596.537,49.383 584.429,649.822 " />
<polygon stroke="black" stroke-width="1" fill="rgb(204, 204, 204)" fill-opacity="1" points="243.445,937.429 198.037,975.388 200.470,1024.000 262.027,972.541 " />
<polygon stroke="black" stroke-width="1" fill="rgb(204, 204, 204)" fill-opacity="1" points="311.013,784.187 330.065,782.916 432.773,541.054 432.019,542.633 291.768,758.998 " />
<polygon stroke="black" stroke-width="1" fill="rgb(204, 204, 204)" fill-opacity="1" points="692.099,1005.555 688.001,1024.000 700.636,1023.879 700.636,979.301 " />
<polygon stroke="black" stroke-width="1" fill="rgb(204, 204, 204)" fill-opacity="1" points="0.000,259.400 133.954,480.859 131.423,478.702 32.992,229.979 15.865,230.160 " />
<polygon stroke="black" stroke-width="1" fill="rgb(204, 204, 204)" fill-opacity="1" points="691.672,909.606 699.829,934.725 699.829,893.269 688.001,893.223 " />
<polygon stroke="black" stroke-width="1" fill="rgb(204, 204, 204)" fill-opacity="1" points="689.892,851.767 690.323,843.514 688.001,843.517 689.510,851.753 " />
<polygon stroke="black" stroke-width="1" fill="rgb(204, 204, 204)" fill-opacity="1" points="700.210,979.301 700.636,934.725 688.001,934.725 691.539,953.130 " />
<polygon stroke="black" stroke-width="1" fill="rgb(204, 204, 204)" fill-opacity="1" points="688.001,851.767 688.161,893.223 696.389,868.153 699.829,851.767 " />
<polygon stroke="black" stroke-width="1" fill="rgb(204, 204, 204)" fill-opacity="1" points="688.001,666.854 688.024,694.752 688.269,694.765 689.208,666.854 " />
<polygon stroke="black" stroke-width="1" fill="rgb(204, 204, 204)" fill-opacity="1" points="690.323,843.514 690.323,763.281 688.001,763.285 688.001,843.517 " />
<polygon stroke="black" stroke-width="1" fill="rgb(204, 204, 204)" fill-opacity="1" points="699.873,470.904 698.958,442.905 698.549,442.898 698.337,470.899 " />
<polygon stroke="black" stroke-width="1" fill="rgb(204, 204, 204)" fill-opacity="1" points="689.478,694.758 689.478,620.907 689.209,620.913 689.208,694.765 " />
<polygon stroke="black" stroke-width="1" fill="rgb(204, 204, 204)" fill-opacity="1" points="658.325,360.926 658.325,352.789 657.906,352.779 658.080,360.913 " />
<polygon stroke="black" stroke-width="1" fill="rgb(204, 204, 204)" fill-opacity="1" points="690.323,763.281 690.074,741.849 688.875,741.842 688.001,763.285 " />
<polygon stroke="black" stroke-width="1" fill="rgb(204, 204, 204)" fill-opacity="1" points="697.502,529.322 697.779,507.832 648.737,489.247 648.460,498.434 " />
<polygon stroke="black" stroke-width="1" fill="rgb(204, 204, 204)" fill-opacity="1" points="699.594,369.057 699.873,360.932 699.260,360.926 699.185,369.050 " />
<polygon stroke="black" stroke-width="1" fill="rgb(204, 204, 204)" fill-opacity="1" points="698.571,617.806 700.450,609.630 697.502,609.620 697.980,617.809 " />
<polygon stroke="black" stroke-width="1" fill="rgb(204, 204, 204)" fill-opacity="1" points="700.450,529.332 699.362,507.834 697.779,507.832 697.502,529.322 " />
<polygon stroke="black" stroke-width="1" fill="rgb(204, 204, 204)" fill-opacity="1" points="698.958,442.905 699.594,369.057 699.185,369.050 698.549,442.898 " />
<polygon stroke="black" stroke-width="1" fill="rgb(204, 204, 204)" fill-opacity="1" points="700.450,609.630 700.450,529.332 697.502,529.322 697.502,609.620 " />
<polygon stroke="black" stroke-width="1" fill="rgb(204, 204, 204)" fill-opacity="1" points="698.549,442.898 699.185,369.050 648.806,445.596 648.535,477.233 " />
<polygon stroke="black" stroke-width="1" fill="rgb(204, 204, 204)" fill-opacity="1" points="697.502,609.620 697.502,529.322 648.460,498.434 648.460,532.833 " />
<polygon stroke="black" stroke-width="1" fill="rgb(204, 204, 204)" fill-opacity="1" points="698.337,470.899 698.549,442.898 648.535,477.233 648.460,489.247 " />
<polygon stroke="black" stroke-width="1" fill="rgb(204, 204, 204)" fill-opacity="1" points="699.185,369.050 699.260,360.926 648.842,442.119 648.806,445.596 " />
<polygon stroke="black" stroke-width="1" fill="rgb(204, 204, 204)" fill-opacity="1" points="697.980,617.809 697.502,609.620 648.460,532.833 648.938,536.376 " />
<polygon stroke="black" stroke-width="1" fill="rgb(204, 204, 204)" fill-opacity="1" points="691.162,703.982 689.486,694.765 688.001,706.740 688.001,738.361 688.269,741.842 691.162,738.363 " />

</svg>
