<?xml version="1.0" standalone="no"?>
<!DOCTYPE svg PUBLIC "-//W3C//DTD SVG 1.1//EN" 
  "http://www.w3.org/Graphics/SVG/1.1/DTD/svg11.dtd">
<svg width="1024" height="1024" viewBox="0 0 1024 1024"
     xmlns="http://www.w3.org/2000/svg" version="1.1">
<desc>Boeing_747_400.blend, (Blender 3.3.9)</desc>
<polygon stroke="black" stroke-width="1" fill="rgb(204, 204, 204)" fill-opacity="1" points="311.541,246.576 332.409,248.221 565.884,33.137 575.599,3.807 " />
<polygon stroke="black" stroke-width="1" fill="rgb(204, 204, 204)" fill-opacity="1" points="637.493,432.087 628.524,437.392 615.667,990.395 634.960,1024.000 " />
<polygon stroke="black" stroke-width="1" fill="rgb(204, 204, 204)" fill-opacity="1" points="575.599,974.180 556.587,940.415 512.987,980.373 521.238,1024.000 " />
<polygon stroke="black" stroke-width="1" fill="rgb(204, 204, 204)" fill-opacity="1" points="285.684,650.676 238.049,87.678 192.924,49.238 163.401,272.236 132.699,511.939 " />
<polygon stroke="black" stroke-width="1" fill="rgb(204, 204, 204)" fill-opacity="1" points="574.273,360.349 565.884,33.137 332.409,248.221 433.671,489.207 " />
<polygon stroke="black" stroke-width="1" fill="rgb(204, 204, 204)" fill-opacity="1" points="582.199,424.503 575.920,427.959 582.565,1013.283 595.391,1024.000 " />
<polygon stroke="black" stroke-width="1" fill="rgb(204, 204, 204)" fill-opacity="1" points="646.960,991.741 668.514,1024.000 668.514,616.955 649.468,631.512 " />
<polygon stroke="black" stroke-width="1" fill="rgb(204, 204, 204)" fill-opacity="1" points="695.666,711.188 686.603,708.715 687.114,731.854 695.666,732.749 " />
<polygon stroke="black" stroke-width="1" fill="rgb(204, 204, 204)" fill-opacity="1" points="556.587,940.415 574.063,387.538 438.384,520.427 475.962,755.922 512.987,980.373 " />
<polygon stroke="black" stroke-width="1" fill="rgb(204, 204, 204)" fill-opacity="1" points="288.225,679.204 285.684,650.676 132.699,511.939 128.881,543.465 " />
<polygon stroke="black" stroke-width="1" fill="rgb(204, 204, 204)" fill-opacity="1" points="637.465,402.954 628.508,410.202 628.524,437.392 637.493,432.087 " />
<polygon stroke="black" stroke-width="1" fill="rgb(204, 204, 204)" fill-opacity="1" points="626.856,53.661 617.386,83.071 628.508,410.202 637.465,402.954 " />
<polygon stroke="black" stroke-width="1" fill="rgb(204, 204, 204)" fill-opacity="1" points="273.152,998.284 288.225,679.204 128.881,543.465 29.877,792.368 " />
<polygon stroke="black" stroke-width="1" fill="rgb(204, 204, 204)" fill-opacity="1" points="601.595,51.628 580.371,51.274 575.600,394.661 581.105,394.442 " />
<polygon stroke="black" stroke-width="1" fill="rgb(204, 204, 204)" fill-opacity="1" points="121.327,500.374 105.103,481.458 100.367,509.320 117.397,528.936 " />
<polygon stroke="black" stroke-width="1" fill="rgb(204, 204, 204)" fill-opacity="1" points="574.063,387.538 574.273,360.349 433.671,489.207 438.384,520.427 " />
<polygon stroke="black" stroke-width="1" fill="rgb(204, 204, 204)" fill-opacity="1" points="425.309,530.820 438.384,520.427 433.671,489.207 420.439,502.426 " />
<polygon stroke="black" stroke-width="1" fill="rgb(204, 204, 204)" fill-opacity="1" points="404.888,546.672 425.309,530.820 420.439,502.426 398.990,518.830 " />
<polygon stroke="black" stroke-width="1" fill="rgb(204, 204, 204)" fill-opacity="1" points="638.417,46.533 626.856,53.661 637.465,402.954 646.907,390.877 " />
<polygon stroke="black" stroke-width="1" fill="rgb(204, 204, 204)" fill-opacity="1" points="646.907,390.877 637.465,402.954 637.493,432.087 646.960,424.332 " />
<polygon stroke="black" stroke-width="1" fill="rgb(204, 204, 204)" fill-opacity="1" points="646.960,424.332 637.493,432.087 634.960,1024.000 646.960,1012.734 " />
<polygon stroke="black" stroke-width="1" fill="rgb(204, 204, 204)" fill-opacity="1" points="686.603,616.955 668.514,649.089 671.022,1009.322 686.603,1024.000 " />
<polygon stroke="black" stroke-width="1" fill="rgb(204, 204, 204)" fill-opacity="1" points="132.699,511.939 121.327,500.374 117.397,528.936 128.881,543.465 " />
<polygon stroke="black" stroke-width="1" fill="rgb(204, 204, 204)" fill-opacity="1" points="615.667,77.905 601.595,51.628 581.105,394.442 588.313,396.168 " />
<polygon stroke="black" stroke-width="1" fill="rgb(204, 204, 204)" fill-opacity="1" points="588.313,396.168 581.105,394.442 582.199,424.503 589.754,424.773 " />
<polygon stroke="black" stroke-width="1" fill="rgb(204, 204, 204)" fill-opacity="1" points="29.877,792.368 13.804,791.143 288.225,1024.000 273.152,998.284 " />
<polygon stroke="black" stroke-width="1" fill="rgb(204, 204, 204)" fill-opacity="1" points="589.754,424.773 582.199,424.503 595.391,1024.000 615.667,989.188 " />
<polygon stroke="black" stroke-width="1" fill="rgb(204, 204, 204)" fill-opacity="1" points="238.049,87.678 256.969,52.110 195.796,0.000 192.924,49.238 " />
<polygon stroke="black" stroke-width="1" fill="rgb(204, 204, 204)" fill-opacity="1" points="311.541,246.576 288.225,270.794 429.988,486.827 433.671,489.207 332.409,248.221 " />
<polygon stroke="black" stroke-width="1" fill="rgb(204, 204, 204)" fill-opacity="1" points="690.712,997.668 699.271,1024.000 699.271,979.293 686.603,979.150 " />
<polygon stroke="black" stroke-width="1" fill="rgb(204, 204, 204)" fill-opacity="1" points="690.314,918.020 686.603,934.446 698.392,934.389 698.392,892.831 " />
<polygon stroke="black" stroke-width="1" fill="rgb(204, 204, 204)" fill-opacity="1" points="132.596,540.233 0.000,759.930 13.804,791.143 29.877,792.368 128.881,543.465 " />
<polygon stroke="black" stroke-width="1" fill="rgb(204, 204, 204)" fill-opacity="1" points="686.603,934.446 687.109,979.150 695.757,952.916 699.271,934.446 " />
<polygon stroke="black" stroke-width="1" fill="rgb(204, 204, 204)" fill-opacity="1" points="698.392,892.831 698.392,851.272 686.603,851.329 690.046,867.739 " />
<polygon stroke="black" stroke-width="1" fill="rgb(204, 204, 204)" fill-opacity="1" points="692.767,851.222 692.667,834.762 691.847,834.805 691.689,851.272 " />
<polygon stroke="black" stroke-width="1" fill="rgb(204, 204, 204)" fill-opacity="1" points="647.276,342.250 647.459,358.786 696.795,438.673 696.772,432.064 " />
<polygon stroke="black" stroke-width="1" fill="rgb(204, 204, 204)" fill-opacity="1" points="687.067,732.749 686.603,754.190 690.521,754.262 689.355,732.796 " />
<polygon stroke="black" stroke-width="1" fill="rgb(204, 204, 204)" fill-opacity="1" points="686.603,834.549 687.405,851.243 688.509,851.272 690.521,834.621 " />
<polygon stroke="black" stroke-width="1" fill="rgb(204, 204, 204)" fill-opacity="1" points="686.603,754.190 686.603,834.549 690.521,834.621 690.521,754.262 " />
<polygon stroke="black" stroke-width="1" fill="rgb(204, 204, 204)" fill-opacity="1" points="692.495,761.025 692.767,732.963 690.522,733.049 691.675,761.068 " />
<polygon stroke="black" stroke-width="1" fill="rgb(204, 204, 204)" fill-opacity="1" points="692.667,834.762 692.495,761.025 691.675,761.068 691.847,834.805 " />
<polygon stroke="black" stroke-width="1" fill="rgb(204, 204, 204)" fill-opacity="1" points="686.603,669.992 686.603,702.062 689.429,708.715 689.690,702.127 689.690,672.632 688.240,661.430 " />
<polygon stroke="black" stroke-width="1" fill="rgb(204, 204, 204)" fill-opacity="1" points="647.656,432.792 646.960,460.867 696.873,479.538 696.873,468.275 " />
<polygon stroke="black" stroke-width="1" fill="rgb(204, 204, 204)" fill-opacity="1" points="697.687,576.637 697.687,496.144 646.966,576.164 646.966,608.362 " />
<polygon stroke="black" stroke-width="1" fill="rgb(204, 204, 204)" fill-opacity="1" points="647.459,358.786 647.656,432.792 696.873,468.275 696.795,438.673 " />
<polygon stroke="black" stroke-width="1" fill="rgb(204, 204, 204)" fill-opacity="1" points="696.846,598.182 697.687,576.637 646.966,608.362 646.964,616.955 " />
<polygon stroke="black" stroke-width="1" fill="rgb(204, 204, 204)" fill-opacity="1" points="697.687,496.144 696.232,479.538 646.960,569.479 646.966,576.164 " />

</svg>
