<?xml version="1.0" encoding="UTF-8" standalone="no"?>
<svg
   width="1024"
   height="1024"
   viewBox="0 0 1024 1024"
   version="1.1"
   id="svg47"
   sodipodi:docname="Right_wing.svg"
   xml:space="preserve"
   inkscape:version="1.3.2 (091e20ef0f, 2023-11-25, custom)"
   xmlns:inkscape="http://www.inkscape.org/namespaces/inkscape"
   xmlns:sodipodi="http://sodipodi.sourceforge.net/DTD/sodipodi-0.dtd"
   xmlns:xlink="http://www.w3.org/1999/xlink"
   xmlns="http://www.w3.org/2000/svg"
   xmlns:svg="http://www.w3.org/2000/svg"><defs
     id="defs47"><linearGradient
       id="linearGradient45"
       inkscape:collect="always"><stop
         style="stop-color:#808080;stop-opacity:1;"
         offset="0"
         id="stop45" /><stop
         style="stop-color:#d8d8d8;stop-opacity:1;"
         offset="0.5"
         id="stop47" /><stop
         style="stop-color:#808080;stop-opacity:1;"
         offset="1"
         id="stop46" /></linearGradient><linearGradient
       inkscape:collect="always"
       xlink:href="#linearGradient45"
       id="linearGradient60"
       x1="575.59961"
       y1="537.63672"
       x2="615.66797"
       y2="537.63672"
       gradientUnits="userSpaceOnUse" /><linearGradient
       inkscape:collect="always"
       xlink:href="#linearGradient45"
       id="linearGradient62"
       x1="615.66797"
       y1="535.2666"
       x2="646.96094"
       y2="535.2666"
       gradientUnits="userSpaceOnUse" /></defs><sodipodi:namedview
     id="namedview47"
     pagecolor="#505050"
     bordercolor="#ffffff"
     borderopacity="1"
     inkscape:showpageshadow="0"
     inkscape:pageopacity="0"
     inkscape:pagecheckerboard="1"
     inkscape:deskcolor="#d1d1d1"
     inkscape:zoom="0.24072266"
     inkscape:cx="1167.3185"
     inkscape:cy="488.11359"
     inkscape:window-width="1366"
     inkscape:window-height="724"
     inkscape:window-x="-1"
     inkscape:window-y="-1"
     inkscape:window-maximized="1"
     inkscape:current-layer="svg47" /><desc
     id="desc1">Boeing_747_400.blend, (Blender 3.3.9)</desc><rect
     style="opacity:1;fill:#ffffff;stroke:none;stroke-width:10"
     id="rect62"
     width="1024"
     height="1024"
     x="0"
     y="0" /><path
     id="polygon1"
     d="M 575.59961 3.8066406 L 311.54102 246.57617 L 288.22461 270.79492 L 429.98828 486.82617 L 433.67188 489.20703 L 420.43945 502.42578 L 398.99023 518.83008 L 404.88867 546.67188 L 425.30859 530.82031 L 438.38477 520.42773 L 475.96289 755.92188 L 512.98633 980.37305 L 521.23828 1024 L 575.59961 974.17969 L 556.58789 940.41406 L 574.0625 387.53711 L 574.27344 360.34961 L 565.88477 33.136719 L 575.59961 3.8066406 z "
     style="fill:#ffffff" /><path
     id="polygon2"
     d="M 638.41797 46.533203 L 626.85547 53.660156 L 617.38672 83.070312 L 628.50781 410.20117 L 628.52344 437.39258 L 615.66797 990.39453 L 634.96094 1024 L 646.96094 1012.7344 L 646.96094 424.33203 L 646.90625 390.87695 L 638.41797 46.533203 z "
     style="fill:url(#linearGradient62)" /><path
     id="polygon4"
     d="M 195.79688 0 L 192.92383 49.238281 L 163.40039 272.23633 L 132.69922 511.93945 L 121.32617 500.37305 L 105.10352 481.45703 L 100.36719 509.32031 L 117.39648 528.93555 L 128.88086 543.46484 L 125.47266 552.03516 L 125.4707 552.03711 L 0 759.92969 L 13.804688 791.14258 L 288.22461 1024 L 273.15234 998.2832 L 288.22461 679.20312 L 285.68359 650.67578 L 238.04883 87.677734 L 256.96875 52.109375 L 195.79688 0 z "
     style="fill:#ffffff" /><path
     id="polygon6"
     d="M 580.37109 51.273438 L 575.59961 394.66016 L 581.10547 394.44141 L 582.19922 424.50391 L 575.91992 427.95898 L 582.56445 1013.2832 L 595.39062 1024 L 615.66797 989.1875 L 589.75391 424.77344 L 588.3125 396.16797 L 615.66797 77.904297 L 601.5957 51.628906 L 580.37109 51.273438 z "
     style="fill:url(#linearGradient60)" /><polygon
     stroke="black"
     stroke-width="1"
     fill="rgb(204, 204, 204)"
     fill-opacity="1"
     points="646.960,991.741 668.514,1024.000 668.514,616.955 649.468,631.512 "
     id="polygon7"
     style="fill:#ffffff;stroke:none" /><polygon
     stroke="black"
     stroke-width="1"
     fill="rgb(204, 204, 204)"
     fill-opacity="1"
     points="695.666,711.188 686.603,708.715 687.114,731.854 695.666,732.749 "
     id="polygon8"
     style="fill:#ffffff;stroke:none" /><polygon
     stroke="black"
     stroke-width="1"
     fill="rgb(204, 204, 204)"
     fill-opacity="1"
     points="686.603,616.955 668.514,649.089 671.022,1009.322 686.603,1024.000 "
     id="polygon22"
     style="fill:#ffffff;stroke:none" /><polygon
     stroke="black"
     stroke-width="1"
     fill="rgb(204, 204, 204)"
     fill-opacity="1"
     points="690.712,997.668 699.271,1024.000 699.271,979.293 686.603,979.150 "
     id="polygon30"
     style="fill:#ffffff;stroke:none" /><polygon
     stroke="black"
     stroke-width="1"
     fill="rgb(204, 204, 204)"
     fill-opacity="1"
     points="690.314,918.020 686.603,934.446 698.392,934.389 698.392,892.831 "
     id="polygon31"
     style="fill:#ffffff;stroke:none" /><polygon
     stroke="black"
     stroke-width="1"
     fill="rgb(204, 204, 204)"
     fill-opacity="1"
     points="686.603,934.446 687.109,979.150 695.757,952.916 699.271,934.446 "
     id="polygon33"
     style="fill:#ffffff;stroke:none" /><polygon
     stroke="black"
     stroke-width="1"
     fill="rgb(204, 204, 204)"
     fill-opacity="1"
     points="698.392,892.831 698.392,851.272 686.603,851.329 690.046,867.739 "
     id="polygon34"
     style="fill:#ffffff;stroke:none" /><polygon
     stroke="black"
     stroke-width="1"
     fill="rgb(204, 204, 204)"
     fill-opacity="1"
     points="692.767,851.222 692.667,834.762 691.847,834.805 691.689,851.272 "
     id="polygon35"
     style="fill:#ffffff;stroke:none" /><path
     id="polygon36"
     style="fill:#5fbcd3;stroke:none;fill-opacity:1"
     d="M 647.27539 342.25 L 647.45898 358.78516 L 647.65625 432.79297 L 646.96094 460.86719 L 696.87305 479.53711 L 696.87305 468.27539 L 696.79492 438.67383 L 696.77148 432.06445 L 647.27539 342.25 z " /><polygon
     stroke="black"
     stroke-width="1"
     fill="rgb(204, 204, 204)"
     fill-opacity="1"
     points="687.067,732.749 686.603,754.190 690.521,754.262 689.355,732.796 "
     id="polygon37"
     style="fill:#ffffff;stroke:none" /><polygon
     stroke="black"
     stroke-width="1"
     fill="rgb(204, 204, 204)"
     fill-opacity="1"
     points="686.603,834.549 687.405,851.243 688.509,851.272 690.521,834.621 "
     id="polygon38"
     style="fill:#ffffff;stroke:none" /><polygon
     stroke="black"
     stroke-width="1"
     fill="rgb(204, 204, 204)"
     fill-opacity="1"
     points="686.603,754.190 686.603,834.549 690.521,834.621 690.521,754.262 "
     id="polygon39"
     style="fill:#ffffff;stroke:none" /><polygon
     stroke="black"
     stroke-width="1"
     fill="rgb(204, 204, 204)"
     fill-opacity="1"
     points="692.495,761.025 692.767,732.963 690.522,733.049 691.675,761.068 "
     id="polygon40"
     style="fill:#ffffff;stroke:none" /><polygon
     stroke="black"
     stroke-width="1"
     fill="rgb(204, 204, 204)"
     fill-opacity="1"
     points="692.667,834.762 692.495,761.025 691.675,761.068 691.847,834.805 "
     id="polygon41"
     style="fill:#ffffff;stroke:none" /><polygon
     stroke="black"
     stroke-width="1"
     fill="rgb(204, 204, 204)"
     fill-opacity="1"
     points="686.603,669.992 686.603,702.062 689.429,708.715 689.690,702.127 689.690,672.632 688.240,661.430 "
     id="polygon42"
     style="fill:#ffffff;stroke:none" /><path
     id="polygon44"
     style="fill:#5fbcd3;stroke:none"
     d="M 696.23242 479.53711 L 646.96094 569.47852 L 646.9668 576.16406 L 646.9668 608.36133 L 646.96484 616.95508 L 696.8457 598.18164 L 697.6875 576.63672 L 697.6875 496.14453 L 696.23242 479.53711 z " /><g
     id="g1"
     transform="matrix(0,-1.2771849,1.2771849,0,659.81477,592.1378)"><path
       fill="#ffffff"
       d="m 19.5737,9.7959 c 0,5.404 -4.383,9.785 -9.786,9.785 -5.406,0 -9.786,-4.381 -9.786,-9.785 0,-5.405 4.38,-9.786 9.786,-9.786 5.403,0 9.786,4.381 9.786,9.786"
       id="path4" /><path
       fill="#e1251b"
       d="m 13.9913,3.897 c 2.981,0.919 5.147,3.694 5.147,6.976 0,0.479 -0.046,0.947 -0.133,1.399 l -0.011,0.063 c -0.228,1.287 -0.75,2.474 -1.495,3.486 l -0.014,0.016 c 1.309,-1.665 2.089,-3.765 2.089,-6.045 C 19.5743,4.384 15.1903,0 9.7823,0 7.3193,0 5.0693,0.911 3.3473,2.412 l -0.021,0.02 c -1.356,1.243 -2.205,3.032 -2.205,5.015 0,0.823 0.146,1.611 0.412,2.341 l 0.014,0.033 c 0.68,1.494 2.184,2.53 3.932,2.53 2.385,0 4.32,-1.932 4.32,-4.317 L 9.7863,6.176 c 0,-0.855 0.477,-1.599 1.178,-1.979 l 0.007,-0.006 c 0.55,-0.302 1.18,-0.474 1.85,-0.474 0.407,0 0.798,0.062 1.166,0.18 z"
       id="path5" /><path
       fill="#002f87"
       d="m 2.29,16.0921 c 1.796,2.138 4.489,3.497 7.501,3.497 2.463,0 4.714,-0.909 6.435,-2.41 l 0.022,-0.02 c 1.356,-1.243 2.207,-3.031 2.207,-5.017 0,-0.821 -0.147,-1.611 -0.415,-2.339 l -0.013,-0.034 c -0.68,-1.493 -2.186,-2.531 -3.933,-2.531 -2.384,0 -4.318,1.935 -4.318,4.319 l 0.012,1.858 c 0,0.855 -0.476,1.597 -1.178,1.98 l -0.008,0.006 c -0.549,0.301 -1.179,0.475 -1.849,0.475 -0.407,0 -0.798,-0.064 -1.167,-0.182 L 5.583,15.6921 C 2.602,14.7751 0.436,11.9981 0.436,8.7191 L 0.334658,7.2551 C 0.257548,7.5833891 0.173509,7.8893892 0.117496,8.2855407 0.024136,8.8173822 0.019196,9.3046461 0,9.7991 c 0,1.572 0.371,3.058 1.03,4.375 l -0.081,0.06 1.241,1.919 z"
       id="path6"
       sodipodi:nodetypes="csccsccsccccscccccccccc" /></g><g
     id="g3"
     transform="matrix(0,1.2771849,-1.2771849,0,684.83367,427.7475)"><path
       fill="#ffffff"
       d="m 19.5737,9.7959 c 0,5.404 -4.383,9.785 -9.786,9.785 -5.406,0 -9.786,-4.381 -9.786,-9.785 0,-5.405 4.38,-9.786 9.786,-9.786 5.403,0 9.786,4.381 9.786,9.786"
       id="path1" /><path
       fill="#e1251b"
       d="m 13.9913,3.897 c 2.981,0.919 5.147,3.694 5.147,6.976 0,0.479 -0.046,0.947 -0.133,1.399 l -0.011,0.063 c -0.228,1.287 -0.75,2.474 -1.495,3.486 l -0.014,0.016 c 1.309,-1.665 2.089,-3.765 2.089,-6.045 C 19.5743,4.384 15.1903,0 9.7823,0 7.3193,0 5.0693,0.911 3.3473,2.412 l -0.021,0.02 c -1.356,1.243 -2.205,3.032 -2.205,5.015 0,0.823 0.146,1.611 0.412,2.341 l 0.014,0.033 c 0.68,1.494 2.184,2.53 3.932,2.53 2.385,0 4.32,-1.932 4.32,-4.317 L 9.7863,6.176 c 0,-0.855 0.477,-1.599 1.178,-1.979 l 0.007,-0.006 c 0.55,-0.302 1.18,-0.474 1.85,-0.474 0.407,0 0.798,0.062 1.166,0.18 z"
       id="path2" /><path
       fill="#002f87"
       d="m 2.29,16.0921 c 1.796,2.138 4.489,3.497 7.501,3.497 2.463,0 4.714,-0.909 6.435,-2.41 l 0.022,-0.02 c 1.356,-1.243 2.207,-3.031 2.207,-5.017 0,-0.821 -0.147,-1.611 -0.415,-2.339 l -0.013,-0.034 c -0.68,-1.493 -2.186,-2.531 -3.933,-2.531 -2.384,0 -4.318,1.935 -4.318,4.319 l 0.012,1.858 c 0,0.855 -0.476,1.597 -1.178,1.98 l -0.008,0.006 c -0.549,0.301 -1.179,0.475 -1.849,0.475 -0.407,0 -0.798,-0.064 -1.167,-0.182 L 5.583,15.6921 C 2.602,14.7751 0.436,11.9981 0.436,8.7191 L 0.334658,7.2551 C 0.257548,7.5833891 0.173509,7.8893892 0.117496,8.2855407 0.024136,8.8173822 0.019196,9.3046461 0,9.7991 c 0,1.572 0.371,3.058 1.03,4.375 l -0.081,0.06 1.241,1.919 z"
       id="path3"
       sodipodi:nodetypes="csccsccsccccscccccccccc" /></g></svg>
