<?xml version="1.0" standalone="no"?>
<!DOCTYPE svg PUBLIC "-//W3C//DTD SVG 1.1//EN" 
  "http://www.w3.org/Graphics/SVG/1.1/DTD/svg11.dtd">
<svg width="1024" height="1024" viewBox="0 0 1024 1024"
     xmlns="http://www.w3.org/2000/svg" version="1.1">
<desc>Boeing_747SP.blend, (Blender 3.3.9)</desc>
<polygon stroke="black" stroke-width="1" fill="rgb(204, 204, 204)" fill-opacity="1" points="577.894,503.137 283.115,127.596 349.781,134.087 799.767,503.137 " />
<polygon stroke="black" stroke-width="1" fill="rgb(204, 204, 204)" fill-opacity="1" points="798.805,968.701 333.435,600.454 347.049,625.201 765.882,968.701 " />
<polygon stroke="black" stroke-width="1" fill="rgb(204, 204, 204)" fill-opacity="1" points="559.422,968.701 284.998,619.159 253.973,616.138 279.901,659.461 464.977,968.702 " />
<polygon stroke="black" stroke-width="1" fill="rgb(204, 204, 204)" fill-opacity="1" points="628.310,561.408 626.782,561.708 508.710,562.126 443.567,562.357 443.195,562.211 442.823,562.065 " />
<polygon stroke="black" stroke-width="1" fill="rgb(204, 204, 204)" fill-opacity="1" points="261.082,100.287 283.115,127.596 249.782,124.350 216.449,121.104 187.008,93.075 " />
<polygon stroke="black" stroke-width="1" fill="rgb(204, 204, 204)" fill-opacity="1" points="604.873,1023.217 559.422,968.701 464.977,968.702 472.155,981.840 494.975,1023.607 " />
<polygon stroke="black" stroke-width="1" fill="rgb(204, 204, 204)" fill-opacity="1" points="850.513,1022.073 798.805,968.701 765.882,968.701 824.668,1022.439 " />
<polygon stroke="black" stroke-width="1" fill="rgb(204, 204, 204)" fill-opacity="1" points="626.782,561.708 577.894,503.137 799.767,503.137 862.926,560.872 " />
<polygon stroke="black" stroke-width="1" fill="rgb(204, 204, 204)" fill-opacity="1" points="824.668,1022.439 765.882,968.701 559.422,968.701 604.873,1023.217 " />
<polygon stroke="black" stroke-width="1" fill="rgb(204, 204, 204)" fill-opacity="1" points="335.155,107.500 349.781,134.087 283.115,127.596 261.082,100.287 " />
<polygon stroke="black" stroke-width="1" fill="rgb(204, 204, 204)" fill-opacity="1" points="890.693,560.479 862.926,560.872 626.782,561.708 628.310,561.408 " />
<polygon stroke="black" stroke-width="1" fill="rgb(204, 204, 204)" fill-opacity="1" points="765.882,968.701 347.049,625.201 284.998,619.159 559.422,968.701 " />
<polygon stroke="black" stroke-width="1" fill="rgb(204, 204, 204)" fill-opacity="1" points="862.926,560.872 890.693,560.479 628.310,561.408 626.782,561.708 " />
<polygon stroke="black" stroke-width="1" fill="rgb(204, 204, 204)" fill-opacity="1" points="347.049,625.201 333.435,600.454 264.490,593.741 284.998,619.159 " />
<polygon stroke="black" stroke-width="1" fill="rgb(204, 204, 204)" fill-opacity="1" points="862.926,560.872 799.767,503.137 835.139,503.137 890.693,560.479 " />
<polygon stroke="black" stroke-width="1" fill="rgb(204, 204, 204)" fill-opacity="1" points="284.998,619.159 264.490,593.741 195.545,587.028 222.948,613.117 253.973,616.138 " />
<polygon stroke="black" stroke-width="1" fill="rgb(204, 204, 204)" fill-opacity="1" points="626.782,561.708 628.310,561.408 442.823,562.065 443.867,562.356 508.710,562.126 " />
<polygon stroke="black" stroke-width="1" fill="rgb(204, 204, 204)" fill-opacity="1" points="799.767,503.137 349.781,134.087 335.155,107.500 835.139,503.137 " />
<polygon stroke="black" stroke-width="1" fill="rgb(204, 204, 204)" fill-opacity="1" points="242.591,663.982 279.901,659.461 253.973,616.138 222.948,613.117 " />
<polygon stroke="black" stroke-width="1" fill="rgb(204, 204, 204)" fill-opacity="1" points="226.039,665.987 242.591,663.982 222.948,613.117 195.545,587.028 " />
<polygon stroke="black" stroke-width="1" fill="rgb(204, 204, 204)" fill-opacity="1" points="494.975,1023.607 472.155,981.840 434.342,1023.821 " />
<polygon stroke="black" stroke-width="1" fill="rgb(204, 204, 204)" fill-opacity="1" points="508.710,562.126 485.534,519.708 476.481,503.137 577.894,503.137 626.782,561.708 " />
<polygon stroke="black" stroke-width="1" fill="rgb(204, 204, 204)" fill-opacity="1" points="476.481,503.137 277.585,170.804 249.782,124.350 283.115,127.596 577.894,503.137 " />
<polygon stroke="black" stroke-width="1" fill="rgb(204, 204, 204)" fill-opacity="1" points="237.543,175.723 219.770,177.907 187.008,93.075 216.449,121.104 " />
<polygon stroke="black" stroke-width="1" fill="rgb(204, 204, 204)" fill-opacity="1" points="277.585,170.804 237.543,175.723 216.449,121.104 249.782,124.350 " />
<polygon stroke="black" stroke-width="1" fill="rgb(204, 204, 204)" fill-opacity="1" points="443.867,562.356 485.534,519.708 508.710,562.126 " />
<polygon stroke="black" stroke-width="1" fill="rgb(204, 204, 204)" fill-opacity="1" points="442.823,562.065 443.195,562.211 404.376,562.201 " />
<polygon stroke="black" stroke-width="1" fill="rgb(204, 204, 204)" fill-opacity="1" points="443.867,562.356 442.823,562.065 404.376,562.201 378.283,562.440 390.638,562.544 " />
<polygon stroke="black" stroke-width="1" fill="rgb(204, 204, 204)" fill-opacity="1" points="237.554,175.752 219.770,177.907 237.549,175.738 " />
<polygon stroke="black" stroke-width="1" fill="rgb(204, 204, 204)" fill-opacity="1" points="277.639,170.895 237.554,175.752 237.549,175.738 277.612,170.850 " />
<polygon stroke="black" stroke-width="1" fill="rgb(204, 204, 204)" fill-opacity="1" points="476.481,503.137 277.639,170.895 277.612,170.850 476.481,503.137 " />
<polygon stroke="black" stroke-width="1" fill="rgb(204, 204, 204)" fill-opacity="1" points="484.193,517.253 476.481,503.137 476.481,503.137 484.864,518.480 " />
<polygon stroke="black" stroke-width="1" fill="rgb(204, 204, 204)" fill-opacity="1" points="443.567,562.357 484.193,517.253 484.864,518.480 443.717,562.356 " />
<polygon stroke="black" stroke-width="1" fill="rgb(204, 204, 204)" fill-opacity="1" points="378.283,562.440 404.376,562.201 365.928,562.337 " />
<polygon stroke="black" stroke-width="1" fill="rgb(204, 204, 204)" fill-opacity="1" points="484.864,518.480 476.481,503.137 476.481,503.137 485.534,519.708 " />
<polygon stroke="black" stroke-width="1" fill="rgb(204, 204, 204)" fill-opacity="1" points="443.717,562.356 484.864,518.480 485.534,519.708 443.867,562.356 " />
<polygon stroke="black" stroke-width="1" fill="rgb(204, 204, 204)" fill-opacity="1" points="404.376,562.201 443.195,562.211 443.567,562.357 390.638,562.544 365.928,562.337 " />
<polygon stroke="black" stroke-width="1" fill="rgb(204, 204, 204)" fill-opacity="1" points="476.481,503.137 277.612,170.850 277.585,170.804 476.481,503.137 " />
<polygon stroke="black" stroke-width="1" fill="rgb(204, 204, 204)" fill-opacity="1" points="237.549,175.738 219.770,177.907 237.543,175.723 " />
<polygon stroke="black" stroke-width="1" fill="rgb(204, 204, 204)" fill-opacity="1" points="277.612,170.850 237.549,175.738 237.543,175.723 277.585,170.804 " />

</svg>
