<?xml version="1.0" encoding="UTF-8" standalone="no"?>
<svg
   width="1024"
   height="1024"
   viewBox="0 0 1024 1024"
   version="1.1"
   id="svg40"
   sodipodi:docname="Vertical_stabilizer.svg"
   inkscape:version="1.3.2 (091e20ef0f, 2023-11-25, custom)"
   xml:space="preserve"
   xmlns:inkscape="http://www.inkscape.org/namespaces/inkscape"
   xmlns:sodipodi="http://sodipodi.sourceforge.net/DTD/sodipodi-0.dtd"
   xmlns:xlink="http://www.w3.org/1999/xlink"
   xmlns="http://www.w3.org/2000/svg"
   xmlns:svg="http://www.w3.org/2000/svg"><defs
     id="defs40"><linearGradient
       id="linearGradient11"
       inkscape:collect="always"><stop
         style="stop-color:#002d82;stop-opacity:1;"
         offset="0"
         id="stop12" /><stop
         style="stop-color:#002d82;stop-opacity:1;"
         offset="0.05940172"
         id="stop17" /><stop
         style="stop-color:#80acff;stop-opacity:1;"
         offset="0.18912229"
         id="stop14" /><stop
         style="stop-color:#002d82;stop-opacity:1;"
         offset="0.32629782"
         id="stop15" /><stop
         style="stop-color:#002d82;stop-opacity:1;"
         offset="0.67213321"
         id="stop16" /><stop
         style="stop-color:#98bcff;stop-opacity:1;"
         offset="0.78642762"
         id="stop18" /><stop
         style="stop-color:#002d82;stop-opacity:1;"
         offset="1"
         id="stop13" /></linearGradient><linearGradient
       id="linearGradient4"
       inkscape:collect="always"><stop
         style="stop-color:#f00001;stop-opacity:1;"
         offset="0"
         id="stop4" /><stop
         style="stop-color:#f00001;stop-opacity:1;"
         offset="0.14974986"
         id="stop8" /><stop
         style="stop-color:#ff9b9b;stop-opacity:1;"
         offset="0.23567128"
         id="stop6" /><stop
         style="stop-color:#f00001;stop-opacity:1;"
         offset="0.31005731"
         id="stop7" /><stop
         style="stop-color:#f00001;stop-opacity:1;"
         offset="0.6459325"
         id="stop11" /><stop
         style="stop-color:#ff9999;stop-opacity:1;"
         offset="0.73212487"
         id="stop9" /><stop
         style="stop-color:#f00001;stop-opacity:1;"
         offset="0.89192313"
         id="stop10" /><stop
         style="stop-color:#f00001;stop-opacity:1;"
         offset="1"
         id="stop5" /></linearGradient><linearGradient
       inkscape:collect="always"
       xlink:href="#linearGradient4"
       id="linearGradient5"
       x1="212.95703"
       y1="203.42946"
       x2="480.29691"
       y2="75.20295"
       gradientUnits="userSpaceOnUse" /><linearGradient
       inkscape:collect="always"
       xlink:href="#linearGradient11"
       id="linearGradient13"
       x1="291.62915"
       y1="310.70398"
       x2="511.20731"
       y2="210.6266"
       gradientUnits="userSpaceOnUse" /><linearGradient
       inkscape:collect="always"
       xlink:href="#linearGradient4"
       id="linearGradient20"
       x1="288.34674"
       y1="423.36862"
       x2="592.75494"
       y2="255.20747"
       gradientUnits="userSpaceOnUse" /><linearGradient
       inkscape:collect="always"
       xlink:href="#linearGradient4"
       id="linearGradient22"
       gradientUnits="userSpaceOnUse"
       x1="212.95703"
       y1="203.42946"
       x2="480.29691"
       y2="75.20295" /><linearGradient
       inkscape:collect="always"
       xlink:href="#linearGradient11"
       id="linearGradient23"
       gradientUnits="userSpaceOnUse"
       x1="291.62915"
       y1="310.70398"
       x2="511.20731"
       y2="210.6266" /><linearGradient
       inkscape:collect="always"
       xlink:href="#linearGradient4"
       id="linearGradient24"
       gradientUnits="userSpaceOnUse"
       x1="288.34674"
       y1="423.36862"
       x2="592.75494"
       y2="255.20747" /></defs><sodipodi:namedview
     id="namedview40"
     pagecolor="#505050"
     bordercolor="#ffffff"
     borderopacity="1"
     inkscape:showpageshadow="0"
     inkscape:pageopacity="0"
     inkscape:pagecheckerboard="1"
     inkscape:deskcolor="#d1d1d1"
     inkscape:zoom="0.24072266"
     inkscape:cx="319.87018"
     inkscape:cy="575.35091"
     inkscape:window-width="1366"
     inkscape:window-height="724"
     inkscape:window-x="-1"
     inkscape:window-y="-1"
     inkscape:window-maximized="1"
     inkscape:current-layer="svg40" /><desc
     id="desc1">Boeing_747SP.blend, (Blender 3.3.9)</desc><rect
     style="fill:#ffffff;fill-opacity:1;stroke-width:15;stroke-linecap:square"
     id="rect1"
     width="1024"
     height="1024"
     x="0"
     y="0"
     rx="2.3779886"
     ry="2.3779886" /><path
     id="polygon1"
     d="m 139.64648,505.07227 34.91016,90.39648 18.95117,-2.29687 42.71289,-5.17579 211.88086,354.02735 8.2168,15.04101 -43.29102,48.06255 69.41602,-0.2461 125.81445,-0.4454 251.62891,-0.8906 29.58594,-0.4179 -59.19532,-61.10356 -532.76953,-421.58008 -78.93164,-7.68359 z"
     style="fill:#ffffff;fill-opacity:1"
     sodipodi:nodetypes="ccccccccccccccc" /><path
     d="m 178.04688,36.59375 34.91015,90.39453 18.94922,-2.29687 42.71289,-5.17383 211.88281,354.02734 8.2168,15.04102 -43.00781,47.74609 -1.07422,0.004 -40.96875,0.14453 -40.96875,0.14648 13.16406,0.10938 13.16602,0.11133 56.71875,-0.20118 69.0957,-0.24609 125.8125,-0.44531 251.62891,-0.89063 29.58789,-0.41797 L 868.67773,473.54492 335.9082,51.964844 256.97656,44.279297 Z m 416.51757,436.95117 51.83203,62.09766 z"
     style="fill:#ffffff;fill-opacity:1"
     id="path1" /><path
     style="fill:#ffffff;stroke:none;stroke-width:1px;stroke-linecap:butt;stroke-linejoin:miter;stroke-opacity:1"
     d="M 178.04688,36.59375 335.9082,51.964844 868.67773,473.54492 927.87305,534.64657 388.44629,536.79209 212.95703,126.98828 Z"
     id="path2" /><path
     style="fill:#ffffff;stroke:none;stroke-width:1px;stroke-linecap:butt;stroke-linejoin:miter;stroke-opacity:1"
     d="m 139.64648,505.00047 157.86133,15.37109 532.76952,421.58007 59.19533,61.10167 -539.42677,2.1455 -175.48926,-409.80381 z"
     id="path3" /><g
     id="g20"><path
       style="fill:url(#linearGradient5);fill-opacity:1;stroke:none;stroke-width:1px;stroke-linecap:butt;stroke-linejoin:miter;stroke-opacity:1"
       d="m 471.46434,159.2303 85.08642,67.32881 c -122.51292,27.57104 -258.59198,-71.4261 -301.8916,-2.18772 l -41.70213,-97.38311 c 128.02944,-29.48546 193.73019,53.95449 258.50731,32.24202 z"
       id="path4"
       sodipodi:nodetypes="ccccc" /><path
       style="fill:url(#linearGradient13);fill-opacity:1;stroke:none;stroke-width:1px;stroke-linecap:butt;stroke-linejoin:miter;stroke-opacity:1"
       d="m 309.44665,352.31155 -35.63502,-83.21517 c 49.01976,-69.02268 167.14855,6.41228 258.09224,-12.47293 -95.48933,59.99053 -158.62804,17.07308 -222.45722,95.6881 z"
       id="path11"
       sodipodi:nodetypes="cccc" /><path
       style="fill:url(#linearGradient20);stroke:none;stroke-width:1px;stroke-linecap:butt;stroke-linejoin:miter;stroke-opacity:1"
       d="m 583.21698,247.66007 19.07598,15.09481 C 559.96167,383.54678 400.33994,403.77831 370.39928,494.64857 l -35.2129,-82.22942 C 318.50248,354.024 512,338.27804 583.21698,247.66007 Z"
       id="path18"
       sodipodi:nodetypes="ccccc" /></g><g
     id="g22"
     transform="translate(-38.400385,468.47852)"><path
       style="fill:url(#linearGradient22);fill-opacity:1;stroke:none;stroke-width:1px;stroke-linecap:butt;stroke-linejoin:miter;stroke-opacity:1"
       d="m 471.46434,159.2303 85.08642,67.32881 c -122.51292,27.57104 -258.59198,-71.4261 -301.8916,-2.18772 l -41.70213,-97.38311 c 128.02944,-29.48546 193.73019,53.95449 258.50731,32.24202 z"
       id="path20"
       sodipodi:nodetypes="ccccc" /><path
       style="fill:url(#linearGradient23);fill-opacity:1;stroke:none;stroke-width:1px;stroke-linecap:butt;stroke-linejoin:miter;stroke-opacity:1"
       d="m 309.44665,352.31155 -35.63502,-83.21517 c 49.01976,-69.02268 167.14855,6.41228 258.09224,-12.47293 -95.48933,59.99053 -158.62804,17.07308 -222.45722,95.6881 z"
       id="path21"
       sodipodi:nodetypes="cccc" /><path
       style="fill:url(#linearGradient24);stroke:none;stroke-width:1px;stroke-linecap:butt;stroke-linejoin:miter;stroke-opacity:1"
       d="m 583.21698,247.66007 19.07598,15.09481 C 559.96167,383.54678 400.33994,403.77831 370.39928,494.64857 l -35.2129,-82.22942 C 318.50248,354.024 512,338.27804 583.21698,247.66007 Z"
       id="path22"
       sodipodi:nodetypes="ccccc" /></g></svg>
