<?xml version="1.0" encoding="UTF-8" standalone="no"?>
<svg
   width="1024"
   height="1024"
   viewBox="0 0 1024 1024"
   version="1.1"
   id="svg47"
   sodipodi:docname="Right_wing.svg"
   xml:space="preserve"
   inkscape:version="1.3.2 (091e20ef0f, 2023-11-25, custom)"
   xmlns:inkscape="http://www.inkscape.org/namespaces/inkscape"
   xmlns:sodipodi="http://sodipodi.sourceforge.net/DTD/sodipodi-0.dtd"
   xmlns:xlink="http://www.w3.org/1999/xlink"
   xmlns="http://www.w3.org/2000/svg"
   xmlns:svg="http://www.w3.org/2000/svg"><defs
     id="defs47"><linearGradient
       id="linearGradient45"
       inkscape:collect="always"><stop
         style="stop-color:#808080;stop-opacity:1;"
         offset="0"
         id="stop45" /><stop
         style="stop-color:#d8d8d8;stop-opacity:1;"
         offset="0.5"
         id="stop47" /><stop
         style="stop-color:#808080;stop-opacity:1;"
         offset="1"
         id="stop46" /></linearGradient><linearGradient
       inkscape:collect="always"
       xlink:href="#linearGradient45"
       id="linearGradient60"
       x1="575.59961"
       y1="537.63672"
       x2="615.66797"
       y2="537.63672"
       gradientUnits="userSpaceOnUse" /><linearGradient
       inkscape:collect="always"
       xlink:href="#linearGradient45"
       id="linearGradient62"
       x1="615.66797"
       y1="535.2666"
       x2="646.96094"
       y2="535.2666"
       gradientUnits="userSpaceOnUse" /><style
       id="style1">.cls-2{fill:#0033a1;}</style></defs><sodipodi:namedview
     id="namedview47"
     pagecolor="#505050"
     bordercolor="#ffffff"
     borderopacity="1"
     inkscape:showpageshadow="0"
     inkscape:pageopacity="0"
     inkscape:pagecheckerboard="1"
     inkscape:deskcolor="#d1d1d1"
     inkscape:zoom="0.34043324"
     inkscape:cx="1142.6616"
     inkscape:cy="321.64896"
     inkscape:window-width="1366"
     inkscape:window-height="724"
     inkscape:window-x="-1"
     inkscape:window-y="-1"
     inkscape:window-maximized="1"
     inkscape:current-layer="svg47" /><desc
     id="desc1">Boeing_747_400.blend, (Blender 3.3.9)</desc><rect
     style="opacity:1;fill:#ffffff;stroke:none;stroke-width:10"
     id="rect62"
     width="1024"
     height="1024"
     x="0"
     y="0" /><path
     id="polygon1"
     d="M 575.59961 3.8066406 L 311.54102 246.57617 L 288.22461 270.79492 L 429.98828 486.82617 L 433.67188 489.20703 L 420.43945 502.42578 L 398.99023 518.83008 L 404.88867 546.67188 L 425.30859 530.82031 L 438.38477 520.42773 L 475.96289 755.92188 L 512.98633 980.37305 L 521.23828 1024 L 575.59961 974.17969 L 556.58789 940.41406 L 574.0625 387.53711 L 574.27344 360.34961 L 565.88477 33.136719 L 575.59961 3.8066406 z "
     style="fill:#ffffff" /><path
     id="polygon2"
     d="M 638.41797 46.533203 L 626.85547 53.660156 L 617.38672 83.070312 L 628.50781 410.20117 L 628.52344 437.39258 L 615.66797 990.39453 L 634.96094 1024 L 646.96094 1012.7344 L 646.96094 424.33203 L 646.90625 390.87695 L 638.41797 46.533203 z "
     style="fill:url(#linearGradient62)" /><path
     id="polygon4"
     d="M 195.79688 0 L 192.92383 49.238281 L 163.40039 272.23633 L 132.69922 511.93945 L 121.32617 500.37305 L 105.10352 481.45703 L 100.36719 509.32031 L 117.39648 528.93555 L 128.88086 543.46484 L 125.47266 552.03516 L 125.4707 552.03711 L 0 759.92969 L 13.804688 791.14258 L 288.22461 1024 L 273.15234 998.2832 L 288.22461 679.20312 L 285.68359 650.67578 L 238.04883 87.677734 L 256.96875 52.109375 L 195.79688 0 z "
     style="fill:#ffffff" /><path
     id="polygon6"
     d="M 580.37109 51.273438 L 575.59961 394.66016 L 581.10547 394.44141 L 582.19922 424.50391 L 575.91992 427.95898 L 582.56445 1013.2832 L 595.39062 1024 L 615.66797 989.1875 L 589.75391 424.77344 L 588.3125 396.16797 L 615.66797 77.904297 L 601.5957 51.628906 L 580.37109 51.273438 z "
     style="fill:url(#linearGradient60)" /><polygon
     stroke="black"
     stroke-width="1"
     fill="rgb(204, 204, 204)"
     fill-opacity="1"
     points="646.960,991.741 668.514,1024.000 668.514,616.955 649.468,631.512 "
     id="polygon7"
     style="fill:#ffffff;stroke:none" /><polygon
     stroke="black"
     stroke-width="1"
     fill="rgb(204, 204, 204)"
     fill-opacity="1"
     points="695.666,711.188 686.603,708.715 687.114,731.854 695.666,732.749 "
     id="polygon8"
     style="fill:#ffffff;stroke:none" /><polygon
     stroke="black"
     stroke-width="1"
     fill="rgb(204, 204, 204)"
     fill-opacity="1"
     points="686.603,616.955 668.514,649.089 671.022,1009.322 686.603,1024.000 "
     id="polygon22"
     style="fill:#ffffff;stroke:none" /><polygon
     stroke="black"
     stroke-width="1"
     fill="rgb(204, 204, 204)"
     fill-opacity="1"
     points="690.712,997.668 699.271,1024.000 699.271,979.293 686.603,979.150 "
     id="polygon30"
     style="fill:#ffffff;stroke:none" /><polygon
     stroke="black"
     stroke-width="1"
     fill="rgb(204, 204, 204)"
     fill-opacity="1"
     points="690.314,918.020 686.603,934.446 698.392,934.389 698.392,892.831 "
     id="polygon31"
     style="fill:#ffffff;stroke:none" /><polygon
     stroke="black"
     stroke-width="1"
     fill="rgb(204, 204, 204)"
     fill-opacity="1"
     points="686.603,934.446 687.109,979.150 695.757,952.916 699.271,934.446 "
     id="polygon33"
     style="fill:#ffffff;stroke:none" /><polygon
     stroke="black"
     stroke-width="1"
     fill="rgb(204, 204, 204)"
     fill-opacity="1"
     points="698.392,892.831 698.392,851.272 686.603,851.329 690.046,867.739 "
     id="polygon34"
     style="fill:#ffffff;stroke:none" /><polygon
     stroke="black"
     stroke-width="1"
     fill="rgb(204, 204, 204)"
     fill-opacity="1"
     points="692.767,851.222 692.667,834.762 691.847,834.805 691.689,851.272 "
     id="polygon35"
     style="fill:#ffffff;stroke:none" /><path
     id="polygon36"
     style="fill:#ec1c22;stroke:none;fill-opacity:1"
     d="M 647.27539 342.25 L 647.45898 358.78516 L 647.65625 432.79297 L 646.96094 460.86719 L 696.87305 479.53711 L 696.87305 468.27539 L 696.79492 438.67383 L 696.77148 432.06445 L 647.27539 342.25 z " /><polygon
     stroke="black"
     stroke-width="1"
     fill="rgb(204, 204, 204)"
     fill-opacity="1"
     points="687.067,732.749 686.603,754.190 690.521,754.262 689.355,732.796 "
     id="polygon37"
     style="fill:#ffffff;stroke:none" /><polygon
     stroke="black"
     stroke-width="1"
     fill="rgb(204, 204, 204)"
     fill-opacity="1"
     points="686.603,834.549 687.405,851.243 688.509,851.272 690.521,834.621 "
     id="polygon38"
     style="fill:#ffffff;stroke:none" /><polygon
     stroke="black"
     stroke-width="1"
     fill="rgb(204, 204, 204)"
     fill-opacity="1"
     points="686.603,754.190 686.603,834.549 690.521,834.621 690.521,754.262 "
     id="polygon39"
     style="fill:#ffffff;stroke:none" /><polygon
     stroke="black"
     stroke-width="1"
     fill="rgb(204, 204, 204)"
     fill-opacity="1"
     points="692.495,761.025 692.767,732.963 690.522,733.049 691.675,761.068 "
     id="polygon40"
     style="fill:#ffffff;stroke:none" /><polygon
     stroke="black"
     stroke-width="1"
     fill="rgb(204, 204, 204)"
     fill-opacity="1"
     points="692.667,834.762 692.495,761.025 691.675,761.068 691.847,834.805 "
     id="polygon41"
     style="fill:#ffffff;stroke:none" /><polygon
     stroke="black"
     stroke-width="1"
     fill="rgb(204, 204, 204)"
     fill-opacity="1"
     points="686.603,669.992 686.603,702.062 689.429,708.715 689.690,702.127 689.690,672.632 688.240,661.430 "
     id="polygon42"
     style="fill:#ffffff;stroke:none" /><path
     id="polygon44"
     style="fill:#ec1c22;stroke:none;fill-opacity:1"
     d="M 696.23242 479.53711 L 646.96094 569.47852 L 646.9668 576.16406 L 646.9668 608.36133 L 646.96484 616.95508 L 696.8457 598.18164 L 697.6875 576.63672 L 697.6875 496.14453 L 696.23242 479.53711 z " /></svg>
