<?xml version="1.0" encoding="UTF-8" standalone="no"?>
<svg
   width="1024"
   height="1024"
   viewBox="0 0 1024 1024"
   version="1.1"
   id="svg40"
   sodipodi:docname="Vertical_stabilizer.svg"
   inkscape:version="1.3.2 (091e20ef0f, 2023-11-25, custom)"
   xml:space="preserve"
   xmlns:inkscape="http://www.inkscape.org/namespaces/inkscape"
   xmlns:sodipodi="http://sodipodi.sourceforge.net/DTD/sodipodi-0.dtd"
   xmlns="http://www.w3.org/2000/svg"
   xmlns:svg="http://www.w3.org/2000/svg"><defs
     id="defs40"><style
       id="style1">.cls-2{fill:#0033a1;}</style></defs><sodipodi:namedview
     id="namedview40"
     pagecolor="#505050"
     bordercolor="#ffffff"
     borderopacity="1"
     inkscape:showpageshadow="0"
     inkscape:pageopacity="0"
     inkscape:pagecheckerboard="1"
     inkscape:deskcolor="#d1d1d1"
     inkscape:zoom="0.24072266"
     inkscape:cx="1071.7728"
     inkscape:cy="284.55984"
     inkscape:window-width="1366"
     inkscape:window-height="724"
     inkscape:window-x="-1"
     inkscape:window-y="-1"
     inkscape:window-maximized="1"
     inkscape:current-layer="svg40" /><desc
     id="desc1">Boeing_747SP.blend, (Blender 3.3.9)</desc><rect
     style="fill:#ffffff;fill-opacity:1;stroke-width:15;stroke-linecap:square"
     id="rect1"
     width="1024"
     height="1024"
     x="0"
     y="0"
     rx="2.3779886"
     ry="2.3779886" /><path
     id="polygon1"
     d="m 139.64648,505.07227 34.91016,90.39648 18.95117,-2.29687 42.71289,-5.17579 211.88086,354.02735 8.2168,15.04101 -43.29102,48.06255 69.41602,-0.2461 125.81445,-0.4454 251.62891,-0.8906 29.58594,-0.4179 -59.19532,-61.10356 -532.76953,-421.58008 -78.93164,-7.68359 z"
     style="fill:#ffffff;fill-opacity:1"
     sodipodi:nodetypes="ccccccccccccccc" /><path
     d="m 178.04688,36.59375 34.91015,90.39453 18.94922,-2.29687 42.71289,-5.17383 211.88281,354.02734 8.2168,15.04102 -43.00781,47.74609 -1.07422,0.004 -40.96875,0.14453 -40.96875,0.14648 13.16406,0.10938 13.16602,0.11133 56.71875,-0.20118 69.0957,-0.24609 125.8125,-0.44531 251.62891,-0.89063 29.58789,-0.41797 L 868.67773,473.54492 335.9082,51.964844 256.97656,44.279297 Z m 416.51757,436.95117 51.83203,62.09766 z"
     style="fill:#ffffff;fill-opacity:1"
     id="path1" /><path
     style="fill:#ec1c22;stroke:none;stroke-width:1px;stroke-linecap:butt;stroke-linejoin:miter;stroke-opacity:1;fill-opacity:1"
     d="m 178.04688,36.59375 157.86132,15.371094 532.76953,421.580076 59.19532,61.10165 -559.17383,1.98047 z"
     id="path162" /><g
     id="g13-9-9"
     transform="matrix(5.1679272,0,0,5.1679272,-13217.855,-3856.5379)"><path
       style="fill:#ffffff;fill-opacity:1;stroke:none;stroke-width:1px;stroke-linecap:butt;stroke-linejoin:miter;stroke-opacity:1"
       d="m 2596.2916,765.98053 0.01,8.00131 c 11.9293,31.17007 60.2173,26.31249 52.0225,76.03994 31.636,2.66591 50.1857,19.59079 65.33,33.74644 l 1.4756,-1.24592 c -24.6095,-36.7134 -56.6974,-31.10044 -56.6974,-48.53621 0,-4.18818 8.6964,-10.62812 11.7163,-2.40663 l -7.9172,0.95888 1.2354,0.93338 c 3.658,1.73219 6.5875,0.99534 9.4407,0 4.8755,-2.68 9.7292,-5.68127 14.3963,-11.45482 5.4471,-0.21644 11.3365,0.10644 14.0248,-3.47384 -7.1218,-6.1118 -15.8152,-8.88654 -25.0235,-10.56789 l 7.0195,6.75402 c -1.2393,4.49401 -4.4431,5.27948 -7.4348,5.32076 -28.9618,-42.87107 -66.6353,-29.10969 -79.5981,-54.06942 z"
       id="path13-1-1"
       sodipodi:nodetypes="cccccccccccccccc" /></g><path
     style="fill:#ec1c22;fill-opacity:1;stroke:none;stroke-width:1px;stroke-linecap:butt;stroke-linejoin:miter;stroke-opacity:1"
     d="m 139.64649,505.07227 157.86132,15.37109 532.76953,421.58008 59.19532,61.10166 -559.17383,1.9805 z"
     id="path163" /><g
     id="g164"
     transform="matrix(5.1679272,0,0,5.1679272,-13256.255,-3388.0594)"><path
       style="fill:#ffffff;fill-opacity:1;stroke:none;stroke-width:1px;stroke-linecap:butt;stroke-linejoin:miter;stroke-opacity:1"
       d="m 2596.2916,765.98053 0.01,8.00131 c 11.9293,31.17007 60.2173,26.31249 52.0225,76.03994 31.636,2.66591 50.1857,19.59079 65.33,33.74644 l 1.4756,-1.24592 c -24.6095,-36.7134 -56.6974,-31.10044 -56.6974,-48.53621 0,-4.18818 8.6964,-10.62812 11.7163,-2.40663 l -7.9172,0.95888 1.2354,0.93338 c 3.658,1.73219 6.5875,0.99534 9.4407,0 4.8755,-2.68 9.7292,-5.68127 14.3963,-11.45482 5.4471,-0.21644 11.3365,0.10644 14.0248,-3.47384 -7.1218,-6.1118 -15.8152,-8.88654 -25.0235,-10.56789 l 7.0195,6.75402 c -1.2393,4.49401 -4.4431,5.27948 -7.4348,5.32076 -28.9618,-42.87107 -66.6353,-29.10969 -79.5981,-54.06942 z"
       id="path164"
       sodipodi:nodetypes="cccccccccccccccc" /></g></svg>
