<?xml version="1.0" standalone="no"?>
<!DOCTYPE svg PUBLIC "-//W3C//DTD SVG 1.1//EN" 
  "http://www.w3.org/Graphics/SVG/1.1/DTD/svg11.dtd">
<svg width="1024" height="1024" viewBox="0 0 1024 1024"
     xmlns="http://www.w3.org/2000/svg" version="1.1">
<desc>Boeing_747SP.blend, (Blender 3.3.9)</desc>
<polygon stroke="black" stroke-width="1" fill="rgb(204, 204, 204)" fill-opacity="1" points="712.355,375.902 878.545,375.882 878.545,382.852 712.355,383.313 " />
<polygon stroke="black" stroke-width="1" fill="rgb(204, 204, 204)" fill-opacity="1" points="712.355,383.313 878.545,382.852 878.545,403.686 712.355,405.462 " />
<polygon stroke="black" stroke-width="1" fill="rgb(204, 204, 204)" fill-opacity="1" points="712.355,405.462 878.545,403.686 878.545,418.346 712.355,421.049 " />
<polygon stroke="black" stroke-width="1" fill="rgb(204, 204, 204)" fill-opacity="1" points="712.355,421.049 878.545,418.346 878.545,449.119 712.355,453.765 " />
<polygon stroke="black" stroke-width="1" fill="rgb(204, 204, 204)" fill-opacity="1" points="712.355,453.765 878.545,449.119 878.545,472.091 712.355,478.188 " />
<polygon stroke="black" stroke-width="1" fill="rgb(204, 204, 204)" fill-opacity="1" points="712.355,478.188 878.545,472.091 878.545,491.567 712.355,498.894 " />
<polygon stroke="black" stroke-width="1" fill="rgb(204, 204, 204)" fill-opacity="1" points="712.355,498.894 878.545,491.567 878.545,504.580 712.355,512.728 " />
<polygon stroke="black" stroke-width="1" fill="rgb(204, 204, 204)" fill-opacity="1" points="712.355,512.728 878.545,504.580 878.545,509.149 712.355,517.587 " />
<polygon stroke="black" stroke-width="1" fill="rgb(204, 204, 204)" fill-opacity="1" points="712.355,478.188 712.355,498.894 594.190,500.901 594.190,482.825 " />
<polygon stroke="black" stroke-width="1" fill="rgb(204, 204, 204)" fill-opacity="1" points="963.936,480.290 963.936,469.764 996.087,462.830 996.087,468.612 " />
<polygon stroke="black" stroke-width="1" fill="rgb(204, 204, 204)" fill-opacity="1" points="915.711,426.188 915.711,413.631 931.785,421.594 931.785,432.916 " />
<polygon stroke="black" stroke-width="1" fill="rgb(204, 204, 204)" fill-opacity="1" points="915.711,503.961 915.711,500.047 931.785,497.240 931.785,500.769 " />
<polygon stroke="black" stroke-width="1" fill="rgb(204, 204, 204)" fill-opacity="1" points="915.711,488.901 915.711,472.221 931.785,474.422 931.785,489.463 " />
<polygon stroke="black" stroke-width="1" fill="rgb(204, 204, 204)" fill-opacity="1" points="915.711,452.544 915.711,426.188 931.785,432.916 931.785,456.681 " />
<polygon stroke="black" stroke-width="1" fill="rgb(204, 204, 204)" fill-opacity="1" points="915.711,413.631 915.711,402.246 923.734,401.703 925.319,401.596 931.785,405.504 931.785,421.594 " />
<polygon stroke="black" stroke-width="1" fill="rgb(204, 204, 204)" fill-opacity="1" points="915.711,500.047 915.711,488.901 931.785,489.463 931.785,497.240 " />
<polygon stroke="black" stroke-width="1" fill="rgb(204, 204, 204)" fill-opacity="1" points="915.711,472.221 915.711,452.544 931.785,456.681 931.785,474.422 " />
<polygon stroke="black" stroke-width="1" fill="rgb(204, 204, 204)" fill-opacity="1" points="1003.985,455.141 1003.985,448.645 1011.884,451.529 1011.884,454.768 " />
<polygon stroke="black" stroke-width="1" fill="rgb(204, 204, 204)" fill-opacity="1" points="963.936,487.324 963.936,480.290 996.087,468.612 996.087,472.474 " />
<polygon stroke="black" stroke-width="1" fill="rgb(204, 204, 204)" fill-opacity="1" points="963.936,489.793 963.936,487.324 996.087,472.474 996.087,473.831 " />
<polygon stroke="black" stroke-width="1" fill="rgb(204, 204, 204)" fill-opacity="1" points="963.936,421.530 963.936,417.762 996.087,434.271 996.087,436.340 " />
<polygon stroke="black" stroke-width="1" fill="rgb(204, 204, 204)" fill-opacity="1" points="963.936,432.791 963.936,421.530 996.087,436.340 996.087,442.525 " />
<polygon stroke="black" stroke-width="1" fill="rgb(204, 204, 204)" fill-opacity="1" points="963.936,440.714 963.936,432.791 996.087,442.525 996.087,446.877 " />
<polygon stroke="black" stroke-width="1" fill="rgb(204, 204, 204)" fill-opacity="1" points="963.936,457.347 963.936,440.714 996.087,446.877 996.087,456.011 " />
<polygon stroke="black" stroke-width="1" fill="rgb(204, 204, 204)" fill-opacity="1" points="963.936,469.764 963.936,457.347 996.087,456.011 996.087,462.830 " />
<polygon stroke="black" stroke-width="1" fill="rgb(204, 204, 204)" fill-opacity="1" points="1003.985,459.991 1003.985,455.141 1011.884,454.768 1011.884,457.187 " />
<polygon stroke="black" stroke-width="1" fill="rgb(204, 204, 204)" fill-opacity="1" points="1003.985,464.102 1003.985,459.991 1011.884,457.187 1011.884,459.237 " />
<polygon stroke="black" stroke-width="1" fill="rgb(204, 204, 204)" fill-opacity="1" points="1003.985,466.849 1003.985,464.102 1011.884,459.237 1011.884,460.606 " />
<polygon stroke="black" stroke-width="1" fill="rgb(204, 204, 204)" fill-opacity="1" points="1003.985,467.814 1003.985,466.849 1011.884,460.606 1011.884,461.087 " />
<polygon stroke="black" stroke-width="1" fill="rgb(204, 204, 204)" fill-opacity="1" points="1003.985,441.152 1003.985,439.681 1011.884,447.059 1011.884,447.793 " />
<polygon stroke="black" stroke-width="1" fill="rgb(204, 204, 204)" fill-opacity="1" points="1003.985,445.550 1003.985,441.152 1011.884,447.793 1011.884,449.986 " />
<polygon stroke="black" stroke-width="1" fill="rgb(204, 204, 204)" fill-opacity="1" points="1003.985,448.645 1003.985,445.550 1011.884,449.986 1011.884,451.529 " />
<polygon stroke="black" stroke-width="1" fill="rgb(204, 204, 204)" fill-opacity="1" points="897.128,471.630 897.128,449.666 915.711,452.544 915.711,472.221 " />
<polygon stroke="black" stroke-width="1" fill="rgb(204, 204, 204)" fill-opacity="1" points="897.128,502.692 897.128,490.250 915.711,488.901 915.711,500.047 " />
<polygon stroke="black" stroke-width="1" fill="rgb(204, 204, 204)" fill-opacity="1" points="897.128,406.228 897.128,402.277 905.899,402.366 906.833,402.355 915.711,402.246 915.711,413.631 " />
<polygon stroke="black" stroke-width="1" fill="rgb(204, 204, 204)" fill-opacity="1" points="897.128,449.666 897.128,420.244 915.711,426.188 915.711,452.544 " />
<polygon stroke="black" stroke-width="1" fill="rgb(204, 204, 204)" fill-opacity="1" points="897.128,490.250 897.128,471.630 915.711,472.221 915.711,488.901 " />
<polygon stroke="black" stroke-width="1" fill="rgb(204, 204, 204)" fill-opacity="1" points="897.128,386.309 897.128,379.644 915.711,389.817 915.711,392.932 910.066,392.908 " />
<polygon stroke="black" stroke-width="1" fill="rgb(204, 204, 204)" fill-opacity="1" points="897.128,507.061 897.128,502.692 915.711,500.047 915.711,503.961 " />
<polygon stroke="black" stroke-width="1" fill="rgb(204, 204, 204)" fill-opacity="1" points="897.128,420.244 897.128,406.228 915.711,413.631 915.711,426.188 " />
<polygon stroke="black" stroke-width="1" fill="rgb(204, 204, 204)" fill-opacity="1" points="878.545,418.346 878.545,403.686 897.128,406.228 897.128,420.244 " />
<polygon stroke="black" stroke-width="1" fill="rgb(204, 204, 204)" fill-opacity="1" points="878.545,509.149 878.545,504.580 897.128,502.692 897.128,507.061 " />
<polygon stroke="black" stroke-width="1" fill="rgb(204, 204, 204)" fill-opacity="1" points="878.545,382.852 878.545,375.882 897.128,379.644 897.128,386.309 " />
<polygon stroke="black" stroke-width="1" fill="rgb(204, 204, 204)" fill-opacity="1" points="878.545,491.567 878.545,472.091 897.128,471.630 897.128,490.250 " />
<polygon stroke="black" stroke-width="1" fill="rgb(204, 204, 204)" fill-opacity="1" points="878.545,449.119 878.545,418.346 897.128,420.244 897.128,449.666 " />
<polygon stroke="black" stroke-width="1" fill="rgb(204, 204, 204)" fill-opacity="1" points="878.545,403.686 878.545,382.852 897.128,386.309 897.128,392.635 897.128,402.277 897.128,406.228 " />
<polygon stroke="black" stroke-width="1" fill="rgb(204, 204, 204)" fill-opacity="1" points="878.545,504.580 878.545,491.567 897.128,490.250 897.128,502.692 " />
<polygon stroke="black" stroke-width="1" fill="rgb(204, 204, 204)" fill-opacity="1" points="878.545,472.091 878.545,449.119 897.128,449.666 897.128,471.630 " />
<polygon stroke="black" stroke-width="1" fill="rgb(204, 204, 204)" fill-opacity="1" points="931.785,474.422 931.785,456.681 963.936,457.347 963.936,469.764 " />
<polygon stroke="black" stroke-width="1" fill="rgb(204, 204, 204)" fill-opacity="1" points="931.785,456.681 931.785,432.916 963.936,440.714 963.936,457.347 " />
<polygon stroke="black" stroke-width="1" fill="rgb(204, 204, 204)" fill-opacity="1" points="931.785,432.916 931.785,421.594 963.936,432.791 963.936,440.714 " />
<polygon stroke="black" stroke-width="1" fill="rgb(204, 204, 204)" fill-opacity="1" points="931.785,421.594 931.785,405.504 963.936,421.530 963.936,432.791 " />
<polygon stroke="black" stroke-width="1" fill="rgb(204, 204, 204)" fill-opacity="1" points="931.785,405.504 931.785,400.121 963.936,417.762 963.936,421.530 " />
<polygon stroke="black" stroke-width="1" fill="rgb(204, 204, 204)" fill-opacity="1" points="931.785,500.769 931.785,497.240 963.936,487.324 963.936,489.793 " />
<polygon stroke="black" stroke-width="1" fill="rgb(204, 204, 204)" fill-opacity="1" points="931.785,497.240 931.785,489.463 963.936,480.290 963.936,487.324 " />
<polygon stroke="black" stroke-width="1" fill="rgb(204, 204, 204)" fill-opacity="1" points="931.785,489.463 931.785,474.422 963.936,469.764 963.936,480.290 " />
<polygon stroke="black" stroke-width="1" fill="rgb(204, 204, 204)" fill-opacity="1" points="712.355,421.049 712.355,453.765 594.190,461.504 594.190,432.942 " />
<polygon stroke="black" stroke-width="1" fill="rgb(204, 204, 204)" fill-opacity="1" points="712.355,383.313 712.355,405.462 594.190,419.336 594.190,399.999 " />
<polygon stroke="black" stroke-width="1" fill="rgb(204, 204, 204)" fill-opacity="1" points="712.355,498.894 712.355,512.728 594.190,512.979 594.190,500.901 " />
<polygon stroke="black" stroke-width="1" fill="rgb(204, 204, 204)" fill-opacity="1" points="712.355,453.765 712.355,478.188 594.190,482.825 594.190,461.504 " />
<polygon stroke="black" stroke-width="1" fill="rgb(204, 204, 204)" fill-opacity="1" points="712.355,405.462 712.355,421.049 594.190,432.942 594.190,419.336 " />
<polygon stroke="black" stroke-width="1" fill="rgb(204, 204, 204)" fill-opacity="1" points="712.355,512.728 712.355,517.587 594.190,517.220 594.190,512.979 " />
<polygon stroke="black" stroke-width="1" fill="rgb(204, 204, 204)" fill-opacity="1" points="712.355,375.902 712.355,383.313 594.190,399.999 594.190,393.529 " />
<polygon stroke="black" stroke-width="1" fill="rgb(204, 204, 204)" fill-opacity="1" points="290.878,393.817 290.878,399.057 28.639,396.084 28.639,393.883 " />
<polygon stroke="black" stroke-width="1" fill="rgb(204, 204, 204)" fill-opacity="1" points="366.706,430.552 366.706,456.996 290.878,448.876 290.878,425.742 " />
<polygon stroke="black" stroke-width="1" fill="rgb(204, 204, 204)" fill-opacity="1" points="366.706,456.996 366.706,476.737 290.878,466.147 290.878,448.876 " />
<polygon stroke="black" stroke-width="1" fill="rgb(204, 204, 204)" fill-opacity="1" points="366.706,476.737 366.706,493.473 290.878,480.788 290.878,466.147 " />
<polygon stroke="black" stroke-width="1" fill="rgb(204, 204, 204)" fill-opacity="1" points="366.706,493.473 366.706,504.656 290.878,490.571 290.878,480.788 " />
<polygon stroke="black" stroke-width="1" fill="rgb(204, 204, 204)" fill-opacity="1" points="366.706,504.656 366.706,508.583 290.878,494.006 290.878,490.571 " />
<polygon stroke="black" stroke-width="1" fill="rgb(204, 204, 204)" fill-opacity="1" points="366.706,394.060 366.706,400.050 290.878,399.057 290.878,393.817 " />
<polygon stroke="black" stroke-width="1" fill="rgb(204, 204, 204)" fill-opacity="1" points="366.706,400.050 366.706,417.953 290.878,414.720 290.878,399.057 " />
<polygon stroke="black" stroke-width="1" fill="rgb(204, 204, 204)" fill-opacity="1" points="366.706,417.953 366.706,430.552 290.878,425.742 290.878,414.720 " />
<polygon stroke="black" stroke-width="1" fill="rgb(204, 204, 204)" fill-opacity="1" points="594.190,419.336 594.190,432.942 442.534,433.752 442.534,420.071 " />
<polygon stroke="black" stroke-width="1" fill="rgb(204, 204, 204)" fill-opacity="1" points="594.190,399.999 594.190,419.336 442.534,420.071 442.534,400.629 " />
<polygon stroke="black" stroke-width="1" fill="rgb(204, 204, 204)" fill-opacity="1" points="594.190,393.529 594.190,399.999 442.534,400.629 442.534,394.124 " />
<polygon stroke="black" stroke-width="1" fill="rgb(204, 204, 204)" fill-opacity="1" points="594.190,512.979 594.190,517.220 442.534,518.490 442.534,514.225 " />
<polygon stroke="black" stroke-width="1" fill="rgb(204, 204, 204)" fill-opacity="1" points="594.190,500.901 594.190,512.979 442.534,514.225 442.534,502.082 " />
<polygon stroke="black" stroke-width="1" fill="rgb(204, 204, 204)" fill-opacity="1" points="594.190,482.825 594.190,500.901 442.534,502.082 442.534,483.907 " />
<polygon stroke="black" stroke-width="1" fill="rgb(204, 204, 204)" fill-opacity="1" points="594.190,461.504 594.190,482.825 442.534,483.907 442.534,462.469 " />
<polygon stroke="black" stroke-width="1" fill="rgb(204, 204, 204)" fill-opacity="1" points="594.190,432.942 594.190,461.504 442.534,462.469 442.534,433.752 " />
<polygon stroke="black" stroke-width="1" fill="rgb(204, 204, 204)" fill-opacity="1" points="442.534,420.071 442.534,433.752 366.706,430.552 366.706,417.953 " />
<polygon stroke="black" stroke-width="1" fill="rgb(204, 204, 204)" fill-opacity="1" points="442.534,400.629 442.534,420.071 366.706,417.953 366.706,400.050 " />
<polygon stroke="black" stroke-width="1" fill="rgb(204, 204, 204)" fill-opacity="1" points="442.534,394.124 442.534,400.629 366.706,400.050 366.706,394.060 " />
<polygon stroke="black" stroke-width="1" fill="rgb(204, 204, 204)" fill-opacity="1" points="442.534,514.225 442.534,518.490 366.706,508.583 366.706,504.656 " />
<polygon stroke="black" stroke-width="1" fill="rgb(204, 204, 204)" fill-opacity="1" points="442.534,502.082 442.534,514.225 366.706,504.656 366.706,493.473 " />
<polygon stroke="black" stroke-width="1" fill="rgb(204, 204, 204)" fill-opacity="1" points="442.534,483.907 442.534,502.082 366.706,493.473 366.706,476.737 " />
<polygon stroke="black" stroke-width="1" fill="rgb(204, 204, 204)" fill-opacity="1" points="442.534,462.469 442.534,483.907 366.706,476.737 366.706,456.996 " />
<polygon stroke="black" stroke-width="1" fill="rgb(204, 204, 204)" fill-opacity="1" points="442.534,433.752 442.534,462.469 366.706,456.996 366.706,430.552 " />
<polygon stroke="black" stroke-width="1" fill="rgb(204, 204, 204)" fill-opacity="1" points="290.878,399.057 290.878,414.720 28.639,402.663 28.639,396.084 " />
<polygon stroke="black" stroke-width="1" fill="rgb(204, 204, 204)" fill-opacity="1" points="290.878,414.720 290.878,425.742 28.639,407.292 28.639,402.663 " />
<polygon stroke="black" stroke-width="1" fill="rgb(204, 204, 204)" fill-opacity="1" points="290.878,425.742 290.878,448.876 28.639,417.008 28.639,407.292 " />
<polygon stroke="black" stroke-width="1" fill="rgb(204, 204, 204)" fill-opacity="1" points="290.878,448.876 290.878,466.147 28.639,424.262 28.639,417.008 " />
<polygon stroke="black" stroke-width="1" fill="rgb(204, 204, 204)" fill-opacity="1" points="290.878,466.147 290.878,480.788 28.639,430.411 28.639,424.262 " />
<polygon stroke="black" stroke-width="1" fill="rgb(204, 204, 204)" fill-opacity="1" points="290.878,480.788 290.878,490.571 28.639,434.520 28.639,430.411 " />
<polygon stroke="black" stroke-width="1" fill="rgb(204, 204, 204)" fill-opacity="1" points="290.878,490.571 290.878,494.006 28.639,435.963 28.639,434.520 " />
<polygon stroke="black" stroke-width="1" fill="rgb(204, 204, 204)" fill-opacity="1" points="16.539,402.028 16.539,406.632 12.116,411.264 12.116,408.961 " />
<polygon stroke="black" stroke-width="1" fill="rgb(204, 204, 204)" fill-opacity="1" points="22.589,416.936 22.589,423.718 16.539,421.752 16.539,416.674 " />
<polygon stroke="black" stroke-width="1" fill="rgb(204, 204, 204)" fill-opacity="1" points="22.589,423.718 22.589,429.468 16.539,426.056 16.539,421.752 " />
<polygon stroke="black" stroke-width="1" fill="rgb(204, 204, 204)" fill-opacity="1" points="22.589,429.468 22.589,433.309 16.539,428.933 16.539,426.056 " />
<polygon stroke="black" stroke-width="1" fill="rgb(204, 204, 204)" fill-opacity="1" points="22.589,433.309 22.589,434.659 16.539,429.943 16.539,428.933 " />
<polygon stroke="black" stroke-width="1" fill="rgb(204, 204, 204)" fill-opacity="1" points="22.589,395.314 22.589,397.372 16.539,402.028 16.539,400.487 " />
<polygon stroke="black" stroke-width="1" fill="rgb(204, 204, 204)" fill-opacity="1" points="22.589,397.372 22.589,403.523 16.539,406.632 16.539,402.028 " />
<polygon stroke="black" stroke-width="1" fill="rgb(204, 204, 204)" fill-opacity="1" points="22.589,403.523 22.589,407.851 16.539,409.873 16.539,406.632 " />
<polygon stroke="black" stroke-width="1" fill="rgb(204, 204, 204)" fill-opacity="1" points="22.589,407.851 22.589,416.936 16.539,416.674 16.539,409.873 " />
<polygon stroke="black" stroke-width="1" fill="rgb(204, 204, 204)" fill-opacity="1" points="16.539,406.632 16.539,409.873 12.116,412.884 12.116,411.264 " />
<polygon stroke="black" stroke-width="1" fill="rgb(204, 204, 204)" fill-opacity="1" points="16.539,409.873 16.539,416.674 12.116,416.285 12.116,412.884 " />
<polygon stroke="black" stroke-width="1" fill="rgb(204, 204, 204)" fill-opacity="1" points="16.539,416.674 16.539,421.752 12.116,418.824 12.116,416.285 " />
<polygon stroke="black" stroke-width="1" fill="rgb(204, 204, 204)" fill-opacity="1" points="16.539,421.752 16.539,426.056 12.116,420.976 12.116,418.824 " />
<polygon stroke="black" stroke-width="1" fill="rgb(204, 204, 204)" fill-opacity="1" points="16.539,426.056 16.539,428.933 12.116,422.414 12.116,420.976 " />
<polygon stroke="black" stroke-width="1" fill="rgb(204, 204, 204)" fill-opacity="1" points="16.539,428.933 16.539,429.943 12.116,422.919 12.116,422.414 " />
<polygon stroke="black" stroke-width="1" fill="rgb(204, 204, 204)" fill-opacity="1" points="16.539,400.487 16.539,402.028 12.116,408.961 12.116,408.191 " />
<polygon stroke="black" stroke-width="1" fill="rgb(204, 204, 204)" fill-opacity="1" points="28.639,407.292 28.639,417.008 22.589,416.936 22.589,407.851 " />
<polygon stroke="black" stroke-width="1" fill="rgb(204, 204, 204)" fill-opacity="1" points="28.639,402.663 28.639,407.292 22.589,407.851 22.589,403.523 " />
<polygon stroke="black" stroke-width="1" fill="rgb(204, 204, 204)" fill-opacity="1" points="28.639,396.084 28.639,402.663 22.589,403.523 22.589,397.372 " />
<polygon stroke="black" stroke-width="1" fill="rgb(204, 204, 204)" fill-opacity="1" points="28.639,393.883 28.639,396.084 22.589,397.372 22.589,395.314 " />
<polygon stroke="black" stroke-width="1" fill="rgb(204, 204, 204)" fill-opacity="1" points="28.639,434.520 28.639,435.963 22.589,434.659 22.589,433.309 " />
<polygon stroke="black" stroke-width="1" fill="rgb(204, 204, 204)" fill-opacity="1" points="28.639,430.411 28.639,434.520 22.589,433.309 22.589,429.468 " />
<polygon stroke="black" stroke-width="1" fill="rgb(204, 204, 204)" fill-opacity="1" points="28.639,424.262 28.639,430.411 22.589,429.468 22.589,423.718 " />
<polygon stroke="black" stroke-width="1" fill="rgb(204, 204, 204)" fill-opacity="1" points="28.639,417.008 28.639,424.262 22.589,423.718 22.589,416.936 " />
<polygon stroke="black" stroke-width="1" fill="rgb(204, 204, 204)" fill-opacity="1" points="996.087,446.877 996.087,442.525 1003.985,445.550 1003.985,448.645 " />
<polygon stroke="black" stroke-width="1" fill="rgb(204, 204, 204)" fill-opacity="1" points="996.087,442.525 996.087,436.340 1003.985,441.152 1003.985,445.550 " />
<polygon stroke="black" stroke-width="1" fill="rgb(204, 204, 204)" fill-opacity="1" points="996.087,436.340 996.087,434.271 1003.985,439.681 1003.985,441.152 " />
<polygon stroke="black" stroke-width="1" fill="rgb(204, 204, 204)" fill-opacity="1" points="996.087,473.831 996.087,472.474 1003.985,466.849 1003.985,467.814 " />
<polygon stroke="black" stroke-width="1" fill="rgb(204, 204, 204)" fill-opacity="1" points="996.087,472.474 996.087,468.612 1003.985,464.102 1003.985,466.849 " />
<polygon stroke="black" stroke-width="1" fill="rgb(204, 204, 204)" fill-opacity="1" points="996.087,468.612 996.087,462.830 1003.985,459.991 1003.985,464.102 " />
<polygon stroke="black" stroke-width="1" fill="rgb(204, 204, 204)" fill-opacity="1" points="996.087,462.830 996.087,456.011 1003.985,455.141 1003.985,459.991 " />
<polygon stroke="black" stroke-width="1" fill="rgb(204, 204, 204)" fill-opacity="1" points="996.087,456.011 996.087,446.877 1003.985,448.645 1003.985,455.141 " />
<polygon stroke="black" stroke-width="1" fill="rgb(204, 204, 204)" fill-opacity="1" points="1011.884,447.793 1011.884,447.059 1011.884,461.087 1011.884,460.606 1011.884,459.237 1011.884,457.187 1011.884,454.768 1011.884,451.529 1011.884,449.986 " />
<polygon stroke="black" stroke-width="1" fill="rgb(204, 204, 204)" fill-opacity="1" points="905.899,402.366 905.900,392.643 906.832,392.703 906.833,402.355 " />
<polygon stroke="black" stroke-width="1" fill="rgb(204, 204, 204)" fill-opacity="1" points="925.319,401.596 930.762,400.188 931.785,400.121 931.785,405.504 " />
<polygon stroke="black" stroke-width="1" fill="rgb(204, 204, 204)" fill-opacity="1" points="925.319,401.596 923.734,401.703 913.661,395.498 915.711,395.787 " />
<polygon stroke="black" stroke-width="1" fill="rgb(204, 204, 204)" fill-opacity="1" points="920.368,392.802 919.596,393.033 915.711,392.932 915.711,389.817 " />
<polygon stroke="black" stroke-width="1" fill="rgb(204, 204, 204)" fill-opacity="1" points="910.066,392.908 908.705,392.822 906.832,392.703 905.900,392.643 897.128,392.635 897.128,386.309 " />
<polygon stroke="black" stroke-width="1" fill="rgb(204, 204, 204)" fill-opacity="1" points="930.762,400.188 919.596,393.033 920.368,392.802 931.785,400.121 " />
<polygon stroke="black" stroke-width="1" fill="rgb(204, 204, 204)" fill-opacity="1" points="12.116,408.191 12.116,408.961 12.116,411.264 12.116,412.884 12.116,416.285 12.116,418.824 12.116,420.976 12.116,422.414 12.116,422.919 " />
<polygon stroke="black" stroke-width="1" fill="rgb(204, 204, 204)" fill-opacity="1" points="913.661,395.498 908.705,392.822 910.066,392.908 915.711,395.787 " />
<polygon stroke="black" stroke-width="1" fill="rgb(204, 204, 204)" fill-opacity="1" points="712.355,580.702 712.355,588.113 878.545,587.652 878.545,580.682 " />
<polygon stroke="black" stroke-width="1" fill="rgb(204, 204, 204)" fill-opacity="1" points="712.355,588.113 712.355,610.262 878.545,608.486 878.545,587.652 " />
<polygon stroke="black" stroke-width="1" fill="rgb(204, 204, 204)" fill-opacity="1" points="712.355,610.262 712.355,625.849 878.545,623.146 878.545,608.486 " />
<polygon stroke="black" stroke-width="1" fill="rgb(204, 204, 204)" fill-opacity="1" points="712.355,625.849 712.355,658.565 878.545,653.919 878.545,623.146 " />
<polygon stroke="black" stroke-width="1" fill="rgb(204, 204, 204)" fill-opacity="1" points="712.355,658.565 712.355,682.988 878.545,676.891 878.545,653.919 " />
<polygon stroke="black" stroke-width="1" fill="rgb(204, 204, 204)" fill-opacity="1" points="712.355,682.988 712.355,703.694 878.545,696.367 878.545,676.891 " />
<polygon stroke="black" stroke-width="1" fill="rgb(204, 204, 204)" fill-opacity="1" points="712.355,703.694 712.355,717.528 878.545,709.380 878.545,696.367 " />
<polygon stroke="black" stroke-width="1" fill="rgb(204, 204, 204)" fill-opacity="1" points="712.355,717.528 712.355,722.387 878.545,713.949 878.545,709.380 " />
<polygon stroke="black" stroke-width="1" fill="rgb(204, 204, 204)" fill-opacity="1" points="712.355,682.988 594.190,687.625 594.190,705.701 712.355,703.694 " />
<polygon stroke="black" stroke-width="1" fill="rgb(204, 204, 204)" fill-opacity="1" points="963.936,685.090 996.087,673.412 996.087,667.630 963.936,674.564 " />
<polygon stroke="black" stroke-width="1" fill="rgb(204, 204, 204)" fill-opacity="1" points="915.711,630.988 931.785,637.716 931.785,626.394 915.711,618.431 " />
<polygon stroke="black" stroke-width="1" fill="rgb(204, 204, 204)" fill-opacity="1" points="915.711,708.761 931.785,705.569 931.785,702.040 915.711,704.847 " />
<polygon stroke="black" stroke-width="1" fill="rgb(204, 204, 204)" fill-opacity="1" points="915.711,693.701 931.785,694.263 931.785,679.222 915.711,677.021 " />
<polygon stroke="black" stroke-width="1" fill="rgb(204, 204, 204)" fill-opacity="1" points="915.711,657.345 931.785,661.481 931.785,637.716 915.711,630.988 " />
<polygon stroke="black" stroke-width="1" fill="rgb(204, 204, 204)" fill-opacity="1" points="915.711,618.431 931.785,626.394 931.785,610.304 925.319,606.396 923.734,606.503 915.711,607.047 " />
<polygon stroke="black" stroke-width="1" fill="rgb(204, 204, 204)" fill-opacity="1" points="915.711,704.847 931.785,702.040 931.785,694.263 915.711,693.701 " />
<polygon stroke="black" stroke-width="1" fill="rgb(204, 204, 204)" fill-opacity="1" points="915.711,677.021 931.785,679.222 931.785,661.481 915.711,657.345 " />
<polygon stroke="black" stroke-width="1" fill="rgb(204, 204, 204)" fill-opacity="1" points="1003.985,659.941 1011.884,659.568 1011.884,656.329 1003.985,653.445 " />
<polygon stroke="black" stroke-width="1" fill="rgb(204, 204, 204)" fill-opacity="1" points="963.936,692.124 996.087,677.274 996.087,673.412 963.936,685.090 " />
<polygon stroke="black" stroke-width="1" fill="rgb(204, 204, 204)" fill-opacity="1" points="963.936,694.593 996.087,678.631 996.087,677.274 963.936,692.124 " />
<polygon stroke="black" stroke-width="1" fill="rgb(204, 204, 204)" fill-opacity="1" points="963.936,626.330 996.087,641.140 996.087,639.071 963.936,622.562 " />
<polygon stroke="black" stroke-width="1" fill="rgb(204, 204, 204)" fill-opacity="1" points="963.936,637.591 996.087,647.325 996.087,641.140 963.936,626.330 " />
<polygon stroke="black" stroke-width="1" fill="rgb(204, 204, 204)" fill-opacity="1" points="963.936,645.514 996.087,651.677 996.087,647.325 963.936,637.591 " />
<polygon stroke="black" stroke-width="1" fill="rgb(204, 204, 204)" fill-opacity="1" points="963.936,662.147 996.087,660.811 996.087,651.677 963.936,645.514 " />
<polygon stroke="black" stroke-width="1" fill="rgb(204, 204, 204)" fill-opacity="1" points="963.936,674.564 996.087,667.630 996.087,660.811 963.936,662.147 " />
<polygon stroke="black" stroke-width="1" fill="rgb(204, 204, 204)" fill-opacity="1" points="1003.985,664.791 1011.884,661.987 1011.884,659.568 1003.985,659.941 " />
<polygon stroke="black" stroke-width="1" fill="rgb(204, 204, 204)" fill-opacity="1" points="1003.985,668.902 1011.884,664.037 1011.884,661.987 1003.985,664.791 " />
<polygon stroke="black" stroke-width="1" fill="rgb(204, 204, 204)" fill-opacity="1" points="1003.985,671.650 1011.884,665.406 1011.884,664.037 1003.985,668.902 " />
<polygon stroke="black" stroke-width="1" fill="rgb(204, 204, 204)" fill-opacity="1" points="1003.985,467.814 1011.884,461.087 1011.884,460.606 1003.985,466.849 " />
<polygon stroke="black" stroke-width="1" fill="rgb(204, 204, 204)" fill-opacity="1" points="1003.985,645.952 1011.884,652.593 1011.884,651.859 1003.985,644.481 " />
<polygon stroke="black" stroke-width="1" fill="rgb(204, 204, 204)" fill-opacity="1" points="1003.985,650.350 1011.884,654.786 1011.884,652.593 1003.985,645.952 " />
<polygon stroke="black" stroke-width="1" fill="rgb(204, 204, 204)" fill-opacity="1" points="1003.985,653.445 1011.884,656.329 1011.884,654.786 1003.985,650.350 " />
<polygon stroke="black" stroke-width="1" fill="rgb(204, 204, 204)" fill-opacity="1" points="897.128,676.430 915.711,677.021 915.711,657.345 897.128,654.466 " />
<polygon stroke="black" stroke-width="1" fill="rgb(204, 204, 204)" fill-opacity="1" points="897.128,707.492 915.711,704.847 915.711,693.701 897.128,695.050 " />
<polygon stroke="black" stroke-width="1" fill="rgb(204, 204, 204)" fill-opacity="1" points="897.128,611.028 915.711,618.431 915.711,607.047 906.833,607.155 905.899,607.166 897.128,607.077 " />
<polygon stroke="black" stroke-width="1" fill="rgb(204, 204, 204)" fill-opacity="1" points="897.128,654.466 915.711,657.345 915.711,630.988 897.128,625.044 " />
<polygon stroke="black" stroke-width="1" fill="rgb(204, 204, 204)" fill-opacity="1" points="897.128,695.050 915.711,693.701 915.711,677.021 897.128,676.430 " />
<polygon stroke="black" stroke-width="1" fill="rgb(204, 204, 204)" fill-opacity="1" points="897.128,591.109 910.066,597.708 915.711,597.732 915.711,594.617 897.128,584.444 " />
<polygon stroke="black" stroke-width="1" fill="rgb(204, 204, 204)" fill-opacity="1" points="897.128,711.861 915.711,708.761 915.711,704.847 897.128,707.492 " />
<polygon stroke="black" stroke-width="1" fill="rgb(204, 204, 204)" fill-opacity="1" points="897.128,625.044 915.711,630.988 915.711,618.431 897.128,611.028 " />
<polygon stroke="black" stroke-width="1" fill="rgb(204, 204, 204)" fill-opacity="1" points="878.545,623.146 897.128,625.044 897.128,611.028 878.545,608.486 " />
<polygon stroke="black" stroke-width="1" fill="rgb(204, 204, 204)" fill-opacity="1" points="878.545,713.949 897.128,711.861 897.128,707.492 878.545,709.380 " />
<polygon stroke="black" stroke-width="1" fill="rgb(204, 204, 204)" fill-opacity="1" points="878.545,587.652 897.128,591.109 897.128,584.444 878.545,580.682 " />
<polygon stroke="black" stroke-width="1" fill="rgb(204, 204, 204)" fill-opacity="1" points="878.545,696.367 897.128,695.050 897.128,676.430 878.545,676.891 " />
<polygon stroke="black" stroke-width="1" fill="rgb(204, 204, 204)" fill-opacity="1" points="878.545,653.919 897.128,654.466 897.128,625.044 878.545,623.146 " />
<polygon stroke="black" stroke-width="1" fill="rgb(204, 204, 204)" fill-opacity="1" points="878.545,608.486 897.128,611.028 897.128,607.077 897.128,597.435 897.128,591.109 878.545,587.652 " />
<polygon stroke="black" stroke-width="1" fill="rgb(204, 204, 204)" fill-opacity="1" points="878.545,709.380 897.128,707.492 897.128,695.050 878.545,696.367 " />
<polygon stroke="black" stroke-width="1" fill="rgb(204, 204, 204)" fill-opacity="1" points="878.545,676.891 897.128,676.430 897.128,654.466 878.545,653.919 " />
<polygon stroke="black" stroke-width="1" fill="rgb(204, 204, 204)" fill-opacity="1" points="931.785,679.222 963.936,674.564 963.936,662.147 931.785,661.481 " />
<polygon stroke="black" stroke-width="1" fill="rgb(204, 204, 204)" fill-opacity="1" points="931.785,661.481 963.936,662.147 963.936,645.514 931.785,637.716 " />
<polygon stroke="black" stroke-width="1" fill="rgb(204, 204, 204)" fill-opacity="1" points="931.785,637.716 963.936,645.514 963.936,637.591 931.785,626.394 " />
<polygon stroke="black" stroke-width="1" fill="rgb(204, 204, 204)" fill-opacity="1" points="931.785,626.394 963.936,637.591 963.936,626.330 931.785,610.304 " />
<polygon stroke="black" stroke-width="1" fill="rgb(204, 204, 204)" fill-opacity="1" points="931.785,610.304 963.936,626.330 963.936,622.562 931.785,604.921 " />
<polygon stroke="black" stroke-width="1" fill="rgb(204, 204, 204)" fill-opacity="1" points="931.785,705.569 963.936,694.593 963.936,692.124 931.785,702.040 " />
<polygon stroke="black" stroke-width="1" fill="rgb(204, 204, 204)" fill-opacity="1" points="931.785,702.040 963.936,692.124 963.936,685.090 931.785,694.263 " />
<polygon stroke="black" stroke-width="1" fill="rgb(204, 204, 204)" fill-opacity="1" points="931.785,694.263 963.936,685.090 963.936,674.564 931.785,679.222 " />
<polygon stroke="black" stroke-width="1" fill="rgb(204, 204, 204)" fill-opacity="1" points="712.355,625.849 594.190,637.742 594.190,666.304 712.355,658.565 " />
<polygon stroke="black" stroke-width="1" fill="rgb(204, 204, 204)" fill-opacity="1" points="712.355,588.113 594.190,604.799 594.190,624.136 712.355,610.262 " />
<polygon stroke="black" stroke-width="1" fill="rgb(204, 204, 204)" fill-opacity="1" points="712.355,703.694 594.190,705.701 594.190,717.779 712.355,717.528 " />
<polygon stroke="black" stroke-width="1" fill="rgb(204, 204, 204)" fill-opacity="1" points="712.355,658.565 594.190,666.304 594.190,687.625 712.355,682.988 " />
<polygon stroke="black" stroke-width="1" fill="rgb(204, 204, 204)" fill-opacity="1" points="712.355,610.262 594.190,624.136 594.190,637.742 712.355,625.849 " />
<polygon stroke="black" stroke-width="1" fill="rgb(204, 204, 204)" fill-opacity="1" points="712.355,717.528 594.190,717.779 594.190,722.020 712.355,722.387 " />
<polygon stroke="black" stroke-width="1" fill="rgb(204, 204, 204)" fill-opacity="1" points="712.355,580.702 594.190,598.329 594.190,604.799 712.355,588.113 " />
<polygon stroke="black" stroke-width="1" fill="rgb(204, 204, 204)" fill-opacity="1" points="290.878,598.617 28.639,598.683 28.639,600.884 290.878,603.858 " />
<polygon stroke="black" stroke-width="1" fill="rgb(204, 204, 204)" fill-opacity="1" points="366.706,635.352 290.878,630.542 290.878,653.676 366.706,661.796 " />
<polygon stroke="black" stroke-width="1" fill="rgb(204, 204, 204)" fill-opacity="1" points="366.706,661.796 290.878,653.676 290.878,670.947 366.706,681.537 " />
<polygon stroke="black" stroke-width="1" fill="rgb(204, 204, 204)" fill-opacity="1" points="366.706,681.537 290.878,670.947 290.878,685.588 366.706,698.273 " />
<polygon stroke="black" stroke-width="1" fill="rgb(204, 204, 204)" fill-opacity="1" points="366.706,698.273 290.878,685.588 290.878,695.371 366.706,709.456 " />
<polygon stroke="black" stroke-width="1" fill="rgb(204, 204, 204)" fill-opacity="1" points="366.706,709.456 290.878,695.371 290.878,698.806 366.706,713.383 " />
<polygon stroke="black" stroke-width="1" fill="rgb(204, 204, 204)" fill-opacity="1" points="366.706,598.860 290.878,598.617 290.878,603.858 366.706,604.850 " />
<polygon stroke="black" stroke-width="1" fill="rgb(204, 204, 204)" fill-opacity="1" points="366.706,604.850 290.878,603.858 290.878,619.520 366.706,622.753 " />
<polygon stroke="black" stroke-width="1" fill="rgb(204, 204, 204)" fill-opacity="1" points="366.706,622.753 290.878,619.520 290.878,630.542 366.706,635.352 " />
<polygon stroke="black" stroke-width="1" fill="rgb(204, 204, 204)" fill-opacity="1" points="594.190,624.136 442.534,624.871 442.534,638.552 594.190,637.742 " />
<polygon stroke="black" stroke-width="1" fill="rgb(204, 204, 204)" fill-opacity="1" points="594.190,604.799 442.534,605.429 442.534,624.871 594.190,624.136 " />
<polygon stroke="black" stroke-width="1" fill="rgb(204, 204, 204)" fill-opacity="1" points="594.190,598.329 442.534,598.924 442.534,605.429 594.190,604.799 " />
<polygon stroke="black" stroke-width="1" fill="rgb(204, 204, 204)" fill-opacity="1" points="594.190,717.779 442.534,719.025 442.534,723.290 594.190,722.020 " />
<polygon stroke="black" stroke-width="1" fill="rgb(204, 204, 204)" fill-opacity="1" points="594.190,705.701 442.534,706.882 442.534,719.025 594.190,717.779 " />
<polygon stroke="black" stroke-width="1" fill="rgb(204, 204, 204)" fill-opacity="1" points="594.190,687.625 442.534,688.707 442.534,706.882 594.190,705.701 " />
<polygon stroke="black" stroke-width="1" fill="rgb(204, 204, 204)" fill-opacity="1" points="594.190,666.304 442.534,667.269 442.534,688.707 594.190,687.625 " />
<polygon stroke="black" stroke-width="1" fill="rgb(204, 204, 204)" fill-opacity="1" points="594.190,637.742 442.534,638.552 442.534,667.269 594.190,666.304 " />
<polygon stroke="black" stroke-width="1" fill="rgb(204, 204, 204)" fill-opacity="1" points="442.534,624.871 366.706,622.753 366.706,635.352 442.534,638.552 " />
<polygon stroke="black" stroke-width="1" fill="rgb(204, 204, 204)" fill-opacity="1" points="442.534,605.429 366.706,604.850 366.706,622.753 442.534,624.871 " />
<polygon stroke="black" stroke-width="1" fill="rgb(204, 204, 204)" fill-opacity="1" points="442.534,598.924 366.706,598.860 366.706,604.850 442.534,605.429 " />
<polygon stroke="black" stroke-width="1" fill="rgb(204, 204, 204)" fill-opacity="1" points="442.534,719.025 366.706,709.456 366.706,713.383 442.534,723.290 " />
<polygon stroke="black" stroke-width="1" fill="rgb(204, 204, 204)" fill-opacity="1" points="442.534,706.882 366.706,698.273 366.706,709.456 442.534,719.025 " />
<polygon stroke="black" stroke-width="1" fill="rgb(204, 204, 204)" fill-opacity="1" points="442.534,688.707 366.706,681.537 366.706,698.273 442.534,706.882 " />
<polygon stroke="black" stroke-width="1" fill="rgb(204, 204, 204)" fill-opacity="1" points="442.534,667.269 366.706,661.796 366.706,681.537 442.534,688.707 " />
<polygon stroke="black" stroke-width="1" fill="rgb(204, 204, 204)" fill-opacity="1" points="442.534,638.552 366.706,635.352 366.706,661.796 442.534,667.269 " />
<polygon stroke="black" stroke-width="1" fill="rgb(204, 204, 204)" fill-opacity="1" points="290.878,603.858 28.639,600.884 28.639,607.463 290.878,619.520 " />
<polygon stroke="black" stroke-width="1" fill="rgb(204, 204, 204)" fill-opacity="1" points="290.878,619.520 28.639,607.463 28.639,612.092 290.878,630.542 " />
<polygon stroke="black" stroke-width="1" fill="rgb(204, 204, 204)" fill-opacity="1" points="290.878,630.542 28.639,612.092 28.639,621.808 290.878,653.676 " />
<polygon stroke="black" stroke-width="1" fill="rgb(204, 204, 204)" fill-opacity="1" points="290.878,653.676 28.639,621.808 28.639,629.062 290.878,670.947 " />
<polygon stroke="black" stroke-width="1" fill="rgb(204, 204, 204)" fill-opacity="1" points="290.878,670.947 28.639,629.062 28.639,635.211 290.878,685.588 " />
<polygon stroke="black" stroke-width="1" fill="rgb(204, 204, 204)" fill-opacity="1" points="290.878,685.588 28.639,635.211 28.639,639.320 290.878,695.371 " />
<polygon stroke="black" stroke-width="1" fill="rgb(204, 204, 204)" fill-opacity="1" points="290.878,695.371 28.639,639.320 28.639,640.763 290.878,698.806 " />
<polygon stroke="black" stroke-width="1" fill="rgb(204, 204, 204)" fill-opacity="1" points="16.539,606.828 12.116,613.762 12.116,616.064 16.539,611.432 " />
<polygon stroke="black" stroke-width="1" fill="rgb(204, 204, 204)" fill-opacity="1" points="22.589,621.736 16.539,621.474 16.539,626.552 22.589,628.518 " />
<polygon stroke="black" stroke-width="1" fill="rgb(204, 204, 204)" fill-opacity="1" points="22.589,628.518 16.539,626.552 16.539,630.856 22.589,634.268 " />
<polygon stroke="black" stroke-width="1" fill="rgb(204, 204, 204)" fill-opacity="1" points="22.589,634.268 16.539,630.856 16.539,633.733 22.589,638.109 " />
<polygon stroke="black" stroke-width="1" fill="rgb(204, 204, 204)" fill-opacity="1" points="22.589,638.109 16.539,633.733 16.539,634.743 22.589,639.459 " />
<polygon stroke="black" stroke-width="1" fill="rgb(204, 204, 204)" fill-opacity="1" points="22.589,600.114 16.539,605.287 16.539,606.828 22.589,602.172 " />
<polygon stroke="black" stroke-width="1" fill="rgb(204, 204, 204)" fill-opacity="1" points="22.589,602.172 16.539,606.828 16.539,611.432 22.589,608.323 " />
<polygon stroke="black" stroke-width="1" fill="rgb(204, 204, 204)" fill-opacity="1" points="22.589,608.323 16.539,611.432 16.539,614.673 22.589,612.651 " />
<polygon stroke="black" stroke-width="1" fill="rgb(204, 204, 204)" fill-opacity="1" points="22.589,612.651 16.539,614.673 16.539,621.474 22.589,621.736 " />
<polygon stroke="black" stroke-width="1" fill="rgb(204, 204, 204)" fill-opacity="1" points="16.539,611.432 12.116,616.064 12.116,617.684 16.539,614.673 " />
<polygon stroke="black" stroke-width="1" fill="rgb(204, 204, 204)" fill-opacity="1" points="16.539,614.673 12.116,617.684 12.116,621.085 16.539,621.474 " />
<polygon stroke="black" stroke-width="1" fill="rgb(204, 204, 204)" fill-opacity="1" points="16.539,621.474 12.116,621.085 12.116,623.624 16.539,626.552 " />
<polygon stroke="black" stroke-width="1" fill="rgb(204, 204, 204)" fill-opacity="1" points="16.539,626.552 12.116,623.624 12.116,625.776 16.539,630.856 " />
<polygon stroke="black" stroke-width="1" fill="rgb(204, 204, 204)" fill-opacity="1" points="16.539,630.856 12.116,625.776 12.116,627.214 16.539,633.733 " />
<polygon stroke="black" stroke-width="1" fill="rgb(204, 204, 204)" fill-opacity="1" points="16.539,428.933 12.116,422.414 12.116,422.919 16.539,429.943 " />
<polygon stroke="black" stroke-width="1" fill="rgb(204, 204, 204)" fill-opacity="1" points="16.539,400.487 12.116,408.191 12.116,408.961 16.539,402.028 " />
<polygon stroke="black" stroke-width="1" fill="rgb(204, 204, 204)" fill-opacity="1" points="28.639,612.092 22.589,612.651 22.589,621.736 28.639,621.808 " />
<polygon stroke="black" stroke-width="1" fill="rgb(204, 204, 204)" fill-opacity="1" points="28.639,607.463 22.589,608.323 22.589,612.651 28.639,612.092 " />
<polygon stroke="black" stroke-width="1" fill="rgb(204, 204, 204)" fill-opacity="1" points="28.639,600.884 22.589,602.172 22.589,608.323 28.639,607.463 " />
<polygon stroke="black" stroke-width="1" fill="rgb(204, 204, 204)" fill-opacity="1" points="28.639,598.683 22.589,600.114 22.589,602.172 28.639,600.884 " />
<polygon stroke="black" stroke-width="1" fill="rgb(204, 204, 204)" fill-opacity="1" points="28.639,434.520 22.589,433.309 22.589,434.659 28.639,435.963 " />
<polygon stroke="black" stroke-width="1" fill="rgb(204, 204, 204)" fill-opacity="1" points="28.639,635.211 22.589,634.268 22.589,638.109 28.639,639.320 " />
<polygon stroke="black" stroke-width="1" fill="rgb(204, 204, 204)" fill-opacity="1" points="28.639,629.062 22.589,628.518 22.589,634.268 28.639,635.211 " />
<polygon stroke="black" stroke-width="1" fill="rgb(204, 204, 204)" fill-opacity="1" points="28.639,621.808 22.589,621.736 22.589,628.518 28.639,629.062 " />
<polygon stroke="black" stroke-width="1" fill="rgb(204, 204, 204)" fill-opacity="1" points="996.087,651.677 1003.985,653.445 1003.985,650.350 996.087,647.325 " />
<polygon stroke="black" stroke-width="1" fill="rgb(204, 204, 204)" fill-opacity="1" points="996.087,647.325 1003.985,650.350 1003.985,645.952 996.087,641.140 " />
<polygon stroke="black" stroke-width="1" fill="rgb(204, 204, 204)" fill-opacity="1" points="996.087,641.140 1003.985,645.952 1003.985,644.481 996.087,639.071 " />
<polygon stroke="black" stroke-width="1" fill="rgb(204, 204, 204)" fill-opacity="1" points="996.087,678.631 1003.985,672.614 1003.985,671.650 996.087,677.274 " />
<polygon stroke="black" stroke-width="1" fill="rgb(204, 204, 204)" fill-opacity="1" points="996.087,677.274 1003.985,671.650 1003.985,668.902 996.087,673.412 " />
<polygon stroke="black" stroke-width="1" fill="rgb(204, 204, 204)" fill-opacity="1" points="996.087,673.412 1003.985,668.902 1003.985,664.791 996.087,667.630 " />
<polygon stroke="black" stroke-width="1" fill="rgb(204, 204, 204)" fill-opacity="1" points="996.087,667.630 1003.985,664.791 1003.985,659.941 996.087,660.811 " />
<polygon stroke="black" stroke-width="1" fill="rgb(204, 204, 204)" fill-opacity="1" points="996.087,660.811 1003.985,659.941 1003.985,653.445 996.087,651.677 " />
<polygon stroke="black" stroke-width="1" fill="rgb(204, 204, 204)" fill-opacity="1" points="1011.884,447.793 1011.884,449.986 1011.884,451.529 1011.884,454.768 1011.884,457.187 1011.884,459.237 1011.884,460.606 1011.884,461.087 1011.884,447.059 " />
<polygon stroke="black" stroke-width="1" fill="rgb(204, 204, 204)" fill-opacity="1" points="905.899,607.166 906.833,607.155 906.832,597.503 905.900,597.443 " />
<polygon stroke="black" stroke-width="1" fill="rgb(204, 204, 204)" fill-opacity="1" points="925.319,606.396 931.785,610.304 931.785,604.921 930.762,604.988 " />
<polygon stroke="black" stroke-width="1" fill="rgb(204, 204, 204)" fill-opacity="1" points="925.319,606.396 915.711,600.587 913.661,600.298 923.734,606.503 " />
<polygon stroke="black" stroke-width="1" fill="rgb(204, 204, 204)" fill-opacity="1" points="920.368,597.602 915.711,594.617 915.711,597.732 919.596,597.833 " />
<polygon stroke="black" stroke-width="1" fill="rgb(204, 204, 204)" fill-opacity="1" points="910.066,597.708 897.128,591.109 897.128,597.435 905.900,597.443 906.832,597.503 908.705,597.622 " />
<polygon stroke="black" stroke-width="1" fill="rgb(204, 204, 204)" fill-opacity="1" points="930.762,604.988 931.785,604.921 920.368,597.602 919.596,597.833 " />
<polygon stroke="black" stroke-width="1" fill="rgb(204, 204, 204)" fill-opacity="1" points="12.116,408.191 12.116,422.919 12.116,422.414 12.116,420.976 12.116,418.824 12.116,416.285 12.116,412.884 12.116,411.264 12.116,408.961 " />
<polygon stroke="black" stroke-width="1" fill="rgb(204, 204, 204)" fill-opacity="1" points="913.661,395.498 915.711,395.787 910.066,392.908 908.705,392.822 " />

</svg>
