<?xml version="1.0" encoding="UTF-8" standalone="no"?>
<svg
   width="1024"
   height="1024"
   viewBox="0 0 1024 1024"
   version="1.1"
   id="svg75"
   sodipodi:docname="Telescope.svg"
   xml:space="preserve"
   inkscape:version="1.3.2 (091e20ef0f, 2023-11-25, custom)"
   xmlns:inkscape="http://www.inkscape.org/namespaces/inkscape"
   xmlns:sodipodi="http://sodipodi.sourceforge.net/DTD/sodipodi-0.dtd"
   xmlns="http://www.w3.org/2000/svg"
   xmlns:svg="http://www.w3.org/2000/svg"><defs
     id="defs75"><inkscape:perspective
       sodipodi:type="inkscape:persp3d"
       inkscape:vp_x="0 : 512 : 1"
       inkscape:vp_y="0 : 1000 : 0"
       inkscape:vp_z="1024 : 512 : 1"
       inkscape:persp3d-origin="512 : 341.33333 : 1"
       id="perspective75" /></defs><sodipodi:namedview
     id="namedview75"
     pagecolor="#505050"
     bordercolor="#ffffff"
     borderopacity="1"
     inkscape:showpageshadow="0"
     inkscape:pageopacity="0"
     inkscape:pagecheckerboard="1"
     inkscape:deskcolor="#d1d1d1"
     inkscape:zoom="0.23750961"
     inkscape:cx="1132.5857"
     inkscape:cy="410.5097"
     inkscape:window-width="1366"
     inkscape:window-height="724"
     inkscape:window-x="-1"
     inkscape:window-y="-1"
     inkscape:window-maximized="1"
     inkscape:current-layer="svg75" /><desc
     id="desc1">Boeing_SOFIA.blend, (Blender 3.3.9)</desc><rect
     style="fill:#ccc9c4;fill-opacity:1;stroke:#ccc9c4;stroke-linecap:round;stroke-opacity:1"
     id="rect87"
     width="1024"
     height="1024"
     x="0"
     y="0" /><polygon
     stroke="black"
     stroke-width="1"
     fill="rgb(204, 204, 204)"
     fill-opacity="1"
     points="689.267,82.469 646.838,264.053 739.069,327.419 781.498,145.835 "
     id="polygon1"
     style="fill:#ccc9c4;fill-opacity:1;stroke:#ccc9c4;stroke-opacity:1" /><polygon
     stroke="black"
     stroke-width="1"
     fill="rgb(204, 204, 204)"
     fill-opacity="1"
     points="550.513,93.382 508.133,277.611 604.458,220.637 646.838,36.407 "
     id="polygon2"
     style="fill:#ccc9c4;fill-opacity:1;stroke:#ccc9c4;stroke-opacity:1" /><polygon
     stroke="black"
     stroke-width="1"
     fill="rgb(204, 204, 204)"
     fill-opacity="1"
     points="648.688,365.720 689.267,536.271 781.498,599.637 740.919,429.086 "
     id="polygon3"
     style="fill:#ccc9c4;fill-opacity:1;stroke:#ccc9c4;stroke-opacity:1" /><polygon
     stroke="black"
     stroke-width="1"
     fill="rgb(204, 204, 204)"
     fill-opacity="1"
     points="508.133,277.611 506.201,390.754 602.526,333.779 604.458,220.637 "
     id="polygon4"
     style="fill:#ccc9c4;fill-opacity:1;stroke:#ccc9c4;stroke-opacity:1" /><polygon
     stroke="black"
     stroke-width="1"
     fill="rgb(204, 204, 204)"
     fill-opacity="1"
     points="896.170,599.637 896.170,24.975 797.954,0.000 797.954,574.661 "
     id="polygon5"
     style="fill:#ccc9c4;fill-opacity:1;stroke:#ccc9c4;stroke-opacity:1" /><polygon
     stroke="black"
     stroke-width="1"
     fill="rgb(204, 204, 204)"
     fill-opacity="1"
     points="646.838,264.053 648.688,365.720 740.919,429.086 739.069,327.419 "
     id="polygon6"
     style="fill:#ccc9c4;fill-opacity:1;stroke:#ccc9c4;stroke-opacity:1" /><polygon
     stroke="black"
     stroke-width="1"
     fill="rgb(204, 204, 204)"
     fill-opacity="1"
     points="992.574,1024.000 992.574,389.220 896.170,378.704 896.170,1013.484 "
     id="polygon7"
     style="fill:#ccc9c4;fill-opacity:1;stroke:#ccc9c4;stroke-opacity:1" /><polygon
     stroke="black"
     stroke-width="1"
     fill="rgb(204, 204, 204)"
     fill-opacity="1"
     points="506.201,390.754 550.513,599.637 646.838,542.662 602.526,333.779 "
     id="polygon8"
     style="fill:#ccc9c4;fill-opacity:1;stroke:#ccc9c4;stroke-opacity:1" /><polygon
     stroke="black"
     stroke-width="1"
     fill="rgb(204, 204, 204)"
     fill-opacity="1"
     points="337.040,1022.716 506.201,1024.000 506.201,378.074 321.333,376.522 208.173,375.319 244.235,494.713 319.876,523.703 401.447,555.277 453.748,621.074 471.201,698.315 451.151,775.242 403.550,840.097 332.308,883.029 247.940,897.504 234.932,1021.703 "
     id="polygon9"
     style="fill:#2d2c2a;fill-opacity:1" /><polygon
     stroke="black"
     stroke-width="1"
     fill="rgb(204, 204, 204)"
     fill-opacity="1"
     points="234.932,1021.703 247.940,897.504 163.290,881.319 91.772,836.933 52.944,771.048 40.869,693.772 57.386,616.868 99.980,552.046 169.897,527.605 244.235,494.713 208.173,375.319 0.000,372.602 49.960,1019.383 "
     id="polygon10"
     style="fill:#2d2c2a;fill-opacity:1" /><polygon
     stroke="black"
     stroke-width="1"
     fill="rgb(204, 204, 204)"
     fill-opacity="1"
     points="506.201,372.602 503.418,290.010 398.848,286.874 401.631,369.467 "
     id="polygon11"
     style="fill:#ccc9c4;fill-opacity:1;stroke:#ccc9c4;stroke-opacity:1" /><polygon
     stroke="black"
     stroke-width="1"
     fill="rgb(204, 204, 204)"
     fill-opacity="1"
     points="838.853,672.751 791.010,616.212 715.237,599.637 637.516,611.735 569.678,650.665 522.053,710.500 506.201,793.166 521.381,878.002 565.090,951.602 630.674,1002.762 708.269,1024.000 787.276,1015.193 853.155,971.253 895.878,898.870 896.170,811.401 896.170,730.396 "
     id="polygon12"
     style="fill:#ccc9c4;fill-opacity:1" /><polygon
     stroke="black"
     stroke-width="1"
     fill="rgb(204, 204, 204)"
     fill-opacity="1"
     points="16.736,23.995 7.409,105.292 112.196,109.619 121.523,28.323 "
     id="polygon13"
     style="stroke:#000000;fill:#e2d8ce;fill-opacity:1" /><polygon
     stroke="black"
     stroke-width="1"
     fill="rgb(204, 204, 204)"
     fill-opacity="1"
     points="121.523,297.236 130.518,372.602 235.090,364.261 226.095,288.895 "
     id="polygon14"
     style="fill:#ccc9c4;fill-opacity:1;stroke:#ccc9c4;stroke-opacity:1" /><polygon
     stroke="black"
     stroke-width="1"
     fill="rgb(204, 204, 204)"
     fill-opacity="1"
     points="341.289,146.604 351.320,91.132 246.473,92.826 236.442,148.297 "
     id="polygon15"
     style="fill:#ccc9c4;fill-opacity:1;stroke:#ccc9c4;stroke-opacity:1" /><polygon
     stroke="black"
     stroke-width="1"
     fill="rgb(204, 204, 204)"
     fill-opacity="1"
     points="128.488,220.380 121.523,297.236 226.095,288.895 233.060,212.039 "
     id="polygon16"
     style="fill:#ccc9c4;fill-opacity:1;stroke:#ccc9c4;stroke-opacity:1" /><polygon
     stroke="black"
     stroke-width="1"
     fill="rgb(204, 204, 204)"
     fill-opacity="1"
     points="339.937,219.408 341.289,146.604 236.442,148.297 235.090,221.102 "
     id="polygon17"
     style="fill:#ccc9c4;fill-opacity:1;stroke:#ccc9c4;stroke-opacity:1" /><polygon
     stroke="black"
     stroke-width="1"
     fill="rgb(204, 204, 204)"
     fill-opacity="1"
     points="130.518,148.410 128.488,220.380 233.060,212.039 235.090,140.069 "
     id="polygon18"
     style="fill:#ccc9c4;fill-opacity:1;stroke:#ccc9c4;stroke-opacity:1" /><polygon
     stroke="black"
     stroke-width="1"
     fill="rgb(204, 204, 204)"
     fill-opacity="1"
     points="347.469,298.463 339.937,219.408 235.090,221.102 242.622,300.156 "
     id="polygon19"
     style="fill:#ccc9c4;fill-opacity:1;stroke:#ccc9c4;stroke-opacity:1" /><polygon
     stroke="black"
     stroke-width="1"
     fill="rgb(204, 204, 204)"
     fill-opacity="1"
     points="127.304,92.284 130.518,148.410 235.090,140.069 231.876,83.943 "
     id="polygon20"
     style="fill:#ccc9c4;fill-opacity:1;stroke:#ccc9c4;stroke-opacity:1" /><polygon
     stroke="black"
     stroke-width="1"
     fill="rgb(204, 204, 204)"
     fill-opacity="1"
     points="351.320,370.909 347.469,298.463 242.622,300.156 246.473,372.602 "
     id="polygon21"
     style="fill:#ccc9c4;fill-opacity:1;stroke:#ccc9c4;stroke-opacity:1" /><polygon
     stroke="black"
     stroke-width="1"
     fill="rgb(204, 204, 204)"
     fill-opacity="1"
     points="10.065,325.391 16.736,368.275 121.523,372.602 114.852,329.719 "
     id="polygon22"
     style="stroke:#000000;fill:#e2d8ce;fill-opacity:1" /><polygon
     stroke="black"
     stroke-width="1"
     fill="rgb(204, 204, 204)"
     fill-opacity="1"
     points="503.418,204.511 506.201,129.122 401.631,125.986 398.848,201.375 "
     id="polygon23"
     style="fill:#ccc9c4;fill-opacity:1;stroke:#ccc9c4;stroke-opacity:1" /><polygon
     stroke="black"
     stroke-width="1"
     fill="rgb(204, 204, 204)"
     fill-opacity="1"
     points="0.000,255.123 10.065,325.391 114.852,329.719 104.787,259.451 "
     id="polygon24"
     style="stroke:#000000;fill:#e2d8ce;fill-opacity:1" /><polygon
     stroke="black"
     stroke-width="1"
     fill="rgb(204, 204, 204)"
     fill-opacity="1"
     points="503.418,290.010 503.418,204.511 398.848,201.375 398.848,286.874 "
     id="polygon25"
     style="fill:#ccc9c4;fill-opacity:1;stroke:#ccc9c4;stroke-opacity:1" /><polygon
     stroke="black"
     stroke-width="1"
     fill="rgb(204, 204, 204)"
     fill-opacity="1"
     points="7.409,105.292 1.115,180.747 105.902,185.075 112.196,109.619 "
     id="polygon26"
     style="stroke:#000000;fill:#e2d8ce;fill-opacity:1" /><polygon
     stroke="black"
     stroke-width="1"
     fill="rgb(204, 204, 204)"
     fill-opacity="1"
     points="1.115,180.747 0.000,255.123 104.787,259.451 105.902,185.075 "
     id="polygon27"
     style="stroke:#000000;fill:#e2d8ce;fill-opacity:1" /><polygon
     stroke="black"
     stroke-width="1"
     fill="rgb(204, 204, 204)"
     fill-opacity="1"
     points="920.768,263.447 920.768,88.525 915.800,87.458 915.800,262.380 "
     id="polygon28"
     style="fill:#ccc9c4;fill-opacity:1;stroke:#ccc9c4;stroke-opacity:1" /><polygon
     stroke="black"
     stroke-width="1"
     fill="rgb(204, 204, 204)"
     fill-opacity="1"
     points="896.170,81.357 896.170,261.963 901.117,262.835 901.117,82.229 "
     id="polygon29"
     style="fill:#ccc9c4;fill-opacity:1;stroke:#ccc9c4;stroke-opacity:1" /><polygon
     stroke="black"
     stroke-width="1"
     fill="rgb(204, 204, 204)"
     fill-opacity="1"
     points="901.117,82.229 901.117,262.835 905.942,263.447 905.942,82.841 "
     id="polygon30"
     style="fill:#ccc9c4;fill-opacity:1;stroke:#ccc9c4;stroke-opacity:1" /><polygon
     stroke="black"
     stroke-width="1"
     fill="rgb(204, 204, 204)"
     fill-opacity="1"
     points="945.365,262.799 945.365,93.674 940.367,93.000 940.367,262.125 "
     id="polygon31"
     style="fill:#ccc9c4;fill-opacity:1;stroke:#ccc9c4;stroke-opacity:1" /><polygon
     stroke="black"
     stroke-width="1"
     fill="rgb(204, 204, 204)"
     fill-opacity="1"
     points="940.367,262.125 940.367,93.000 935.494,94.322 935.494,263.447 "
     id="polygon32"
     style="fill:#ccc9c4;fill-opacity:1;stroke:#ccc9c4;stroke-opacity:1" /><polygon
     stroke="black"
     stroke-width="1"
     fill="rgb(204, 204, 204)"
     fill-opacity="1"
     points="388.975,371.120 388.975,190.516 384.044,191.395 384.044,371.999 "
     id="polygon33"
     style="fill:#ccc9c4;fill-opacity:1;stroke:#ccc9c4;stroke-opacity:1" /><polygon
     stroke="black"
     stroke-width="1"
     fill="rgb(204, 204, 204)"
     fill-opacity="1"
     points="794.396,201.870 794.396,196.517 790.619,192.736 785.276,192.741 781.498,196.530 781.498,201.883 785.276,205.664 790.618,205.659 "
     id="polygon34"
     style="fill:#ccc9c4;fill-opacity:1;stroke:#ccc9c4;stroke-opacity:1" /><polygon
     stroke="black"
     stroke-width="1"
     fill="rgb(204, 204, 204)"
     fill-opacity="1"
     points="384.044,371.999 384.044,191.395 379.200,191.999 379.200,372.602 "
     id="polygon35"
     style="fill:#ccc9c4;fill-opacity:1;stroke:#ccc9c4;stroke-opacity:1" /><polygon
     stroke="black"
     stroke-width="1"
     fill="rgb(204, 204, 204)"
     fill-opacity="1"
     points="925.669,262.911 925.669,87.988 920.768,88.525 920.768,263.447 "
     id="polygon36"
     style="fill:#ccc9c4;fill-opacity:1;stroke:#ccc9c4;stroke-opacity:1" /><polygon
     stroke="black"
     stroke-width="1"
     fill="rgb(204, 204, 204)"
     fill-opacity="1"
     points="794.416,171.305 791.460,167.128 787.282,166.470 784.327,169.715 784.328,174.964 787.282,179.141 791.461,179.800 794.416,176.554 "
     id="polygon37"
     style="fill:#ccc9c4;fill-opacity:1;stroke:#ccc9c4;stroke-opacity:1" /><polygon
     stroke="black"
     stroke-width="1"
     fill="rgb(204, 204, 204)"
     fill-opacity="1"
     points="950.200,262.317 950.201,102.365 945.365,103.462 945.365,263.414 "
     id="polygon38"
     style="fill:#ccc9c4;fill-opacity:1;stroke:#ccc9c4;stroke-opacity:1" /><polygon
     stroke="black"
     stroke-width="1"
     fill="rgb(204, 204, 204)"
     fill-opacity="1"
     points="791.386,599.619 791.386,409.168 786.384,409.100 786.384,599.551 "
     id="polygon39"
     style="fill:#ccc9c4;fill-opacity:1;stroke:#ccc9c4;stroke-opacity:1" /><polygon
     stroke="black"
     stroke-width="1"
     fill="rgb(204, 204, 204)"
     fill-opacity="1"
     points="786.384,599.551 786.384,409.100 781.498,409.186 781.498,599.637 "
     id="polygon40"
     style="fill:#ccc9c4;fill-opacity:1;stroke:#ccc9c4;stroke-opacity:1" /><polygon
     stroke="black"
     stroke-width="1"
     fill="rgb(204, 204, 204)"
     fill-opacity="1"
     points="371.073,372.176 371.073,184.643 366.043,184.503 366.043,372.035 "
     id="polygon41"
     style="fill:#ccc9c4;fill-opacity:1;stroke:#ccc9c4;stroke-opacity:1" /><polygon
     stroke="black"
     stroke-width="1"
     fill="rgb(204, 204, 204)"
     fill-opacity="1"
     points="366.043,372.035 366.043,184.503 361.197,185.070 361.197,372.602 "
     id="polygon42"
     style="fill:#ccc9c4;fill-opacity:1;stroke:#ccc9c4;stroke-opacity:1" /><polygon
     stroke="black"
     stroke-width="1"
     fill="rgb(204, 204, 204)"
     fill-opacity="1"
     points="781.498,218.639 781.498,409.085 786.498,409.034 786.498,218.588 "
     id="polygon43"
     style="fill:#ccc9c4;fill-opacity:1;stroke:#ccc9c4;stroke-opacity:1" /><polygon
     stroke="black"
     stroke-width="1"
     fill="rgb(204, 204, 204)"
     fill-opacity="1"
     points="781.498,214.803 785.282,218.588 790.632,218.588 794.415,214.803 794.415,209.449 790.632,205.664 785.281,205.664 781.498,209.450 "
     id="polygon44"
     style="fill:#ccc9c4;fill-opacity:1;stroke:#ccc9c4;stroke-opacity:1" /><polygon
     stroke="black"
     stroke-width="1"
     fill="rgb(204, 204, 204)"
     fill-opacity="1"
     points="786.498,218.588 786.498,409.034 791.386,409.100 791.386,218.654 "
     id="polygon45"
     style="fill:#ccc9c4;fill-opacity:1;stroke:#ccc9c4;stroke-opacity:1" /><polygon
     stroke="black"
     stroke-width="1"
     fill="rgb(204, 204, 204)"
     fill-opacity="1"
     points="955.238,263.447 955.238,103.495 950.201,102.365 950.200,262.317 "
     id="polygon46"
     style="fill:#ccc9c4;fill-opacity:1;stroke:#ccc9c4;stroke-opacity:1" /><polygon
     stroke="black"
     stroke-width="1"
     fill="rgb(204, 204, 204)"
     fill-opacity="1"
     points="794.415,183.613 790.656,179.816 785.339,179.799 781.580,183.572 781.580,188.923 785.339,192.719 790.656,192.736 794.415,188.964 "
     id="polygon47"
     style="fill:#ccc9c4;fill-opacity:1;stroke:#ccc9c4;stroke-opacity:1" /><polygon
     stroke="black"
     stroke-width="1"
     fill="rgb(204, 204, 204)"
     fill-opacity="1"
     points="910.778,262.491 910.778,83.567 905.942,84.035 905.942,262.960 "
     id="polygon48"
     style="fill:#ccc9c4;fill-opacity:1;stroke:#ccc9c4;stroke-opacity:1" /><polygon
     stroke="black"
     stroke-width="1"
     fill="rgb(204, 204, 204)"
     fill-opacity="1"
     points="351.320,183.324 351.320,372.602 356.362,372.576 356.362,183.298 "
     id="polygon49"
     style="fill:#ccc9c4;fill-opacity:1;stroke:#ccc9c4;stroke-opacity:1" /><polygon
     stroke="black"
     stroke-width="1"
     fill="rgb(204, 204, 204)"
     fill-opacity="1"
     points="356.362,183.298 356.362,372.576 361.197,372.405 361.197,183.126 "
     id="polygon50"
     style="fill:#ccc9c4;fill-opacity:1;stroke:#ccc9c4;stroke-opacity:1" /><polygon
     stroke="black"
     stroke-width="1"
     fill="rgb(204, 204, 204)"
     fill-opacity="1"
     points="925.669,92.212 925.669,263.447 930.772,262.429 930.772,91.194 "
     id="polygon51"
     style="fill:#ccc9c4;fill-opacity:1;stroke:#ccc9c4;stroke-opacity:1" /><polygon
     stroke="black"
     stroke-width="1"
     fill="rgb(204, 204, 204)"
     fill-opacity="1"
     points="930.772,91.194 930.772,262.429 935.494,263.233 935.494,91.998 "
     id="polygon52"
     style="fill:#ccc9c4;fill-opacity:1;stroke:#ccc9c4;stroke-opacity:1" /><polygon
     stroke="black"
     stroke-width="1"
     fill="rgb(204, 204, 204)"
     fill-opacity="1"
     points="398.848,372.602 398.848,183.310 393.789,183.290 393.789,372.582 "
     id="polygon53"
     style="fill:#ccc9c4;fill-opacity:1;stroke:#ccc9c4;stroke-opacity:1" /><polygon
     stroke="black"
     stroke-width="1"
     fill="rgb(204, 204, 204)"
     fill-opacity="1"
     points="386.114,173.942 386.114,179.294 389.844,183.093 395.118,183.114 398.848,179.344 398.848,173.992 395.118,170.193 389.844,170.172 "
     id="polygon54"
     style="fill:#ccc9c4;fill-opacity:1;stroke:#ccc9c4;stroke-opacity:1" /><polygon
     stroke="black"
     stroke-width="1"
     fill="rgb(204, 204, 204)"
     fill-opacity="1"
     points="393.789,372.582 393.789,183.290 388.975,183.114 388.975,372.407 "
     id="polygon55"
     style="fill:#ccc9c4;fill-opacity:1;stroke:#ccc9c4;stroke-opacity:1" /><polygon
     stroke="black"
     stroke-width="1"
     fill="rgb(204, 204, 204)"
     fill-opacity="1"
     points="915.800,263.447 915.800,84.523 910.778,83.567 910.778,262.491 "
     id="polygon56"
     style="fill:#ccc9c4;fill-opacity:1;stroke:#ccc9c4;stroke-opacity:1" /><polygon
     stroke="black"
     stroke-width="1"
     fill="rgb(204, 204, 204)"
     fill-opacity="1"
     points="361.197,175.299 358.777,170.809 355.353,169.563 352.932,172.289 352.932,177.391 355.353,181.880 358.776,183.126 361.197,180.400 "
     id="polygon57"
     style="fill:#ccc9c4;fill-opacity:1;stroke:#ccc9c4;stroke-opacity:1" /><polygon
     stroke="black"
     stroke-width="1"
     fill="rgb(204, 204, 204)"
     fill-opacity="1"
     points="418.576,115.075 398.848,112.546 399.121,123.457 418.849,125.986 "
     id="polygon58"
     style="fill:#ccc9c4;fill-opacity:1;stroke:#ccc9c4;stroke-opacity:1" /><polygon
     stroke="black"
     stroke-width="1"
     fill="rgb(204, 204, 204)"
     fill-opacity="1"
     points="361.248,130.862 380.957,133.684 380.516,123.160 360.806,120.338 "
     id="polygon59"
     style="fill:#ccc9c4;fill-opacity:1;stroke:#ccc9c4;stroke-opacity:1" /><polygon
     stroke="black"
     stroke-width="1"
     fill="rgb(204, 204, 204)"
     fill-opacity="1"
     points="360.806,120.338 380.516,123.160 380.360,111.700 360.651,108.878 "
     id="polygon60"
     style="fill:#ccc9c4;fill-opacity:1;stroke:#ccc9c4;stroke-opacity:1" /><polygon
     stroke="black"
     stroke-width="1"
     fill="rgb(204, 204, 204)"
     fill-opacity="1"
     points="360.651,108.878 380.360,111.700 380.515,101.048 360.806,98.226 "
     id="polygon61"
     style="fill:#ccc9c4;fill-opacity:1;stroke:#ccc9c4;stroke-opacity:1" /><polygon
     stroke="black"
     stroke-width="1"
     fill="rgb(204, 204, 204)"
     fill-opacity="1"
     points="360.806,98.226 380.515,101.048 380.957,92.826 361.248,90.004 "
     id="polygon62"
     style="fill:#ccc9c4;fill-opacity:1;stroke:#ccc9c4;stroke-opacity:1" /><polygon
     stroke="black"
     stroke-width="1"
     fill="rgb(204, 204, 204)"
     fill-opacity="1"
     points="361.315,184.503 380.957,181.703 380.881,175.227 361.239,178.028 "
     id="polygon63"
     style="fill:#ccc9c4;fill-opacity:1;stroke:#ccc9c4;stroke-opacity:1" /><polygon
     stroke="black"
     stroke-width="1"
     fill="rgb(204, 204, 204)"
     fill-opacity="1"
     points="361.239,178.028 380.881,175.227 380.840,165.625 361.197,168.426 "
     id="polygon64"
     style="fill:#ccc9c4;fill-opacity:1;stroke:#ccc9c4;stroke-opacity:1" /><polygon
     stroke="black"
     stroke-width="1"
     fill="rgb(204, 204, 204)"
     fill-opacity="1"
     points="361.197,168.426 380.840,165.625 380.840,154.359 361.197,157.159 "
     id="polygon65"
     style="fill:#ccc9c4;fill-opacity:1;stroke:#ccc9c4;stroke-opacity:1" /><polygon
     stroke="black"
     stroke-width="1"
     fill="rgb(204, 204, 204)"
     fill-opacity="1"
     points="361.197,157.159 380.840,154.359 380.881,143.143 361.239,145.943 "
     id="polygon66"
     style="fill:#ccc9c4;fill-opacity:1;stroke:#ccc9c4;stroke-opacity:1" /><polygon
     stroke="black"
     stroke-width="1"
     fill="rgb(204, 204, 204)"
     fill-opacity="1"
     points="361.239,145.943 380.881,143.143 380.957,133.684 361.315,136.485 "
     id="polygon67"
     style="fill:#ccc9c4;fill-opacity:1;stroke:#ccc9c4;stroke-opacity:1" /><polygon
     stroke="black"
     stroke-width="1"
     fill="rgb(204, 204, 204)"
     fill-opacity="1"
     points="506.201,83.523 486.415,85.078 485.911,93.355 505.696,91.800 "
     id="polygon68"
     style="fill:#ccc9c4;fill-opacity:1;stroke:#ccc9c4;stroke-opacity:1" /><polygon
     stroke="black"
     stroke-width="1"
     fill="rgb(204, 204, 204)"
     fill-opacity="1"
     points="505.696,91.800 485.911,93.355 485.733,104.036 505.519,102.481 "
     id="polygon69"
     style="fill:#ccc9c4;fill-opacity:1;stroke:#ccc9c4;stroke-opacity:1" /><polygon
     stroke="black"
     stroke-width="1"
     fill="rgb(204, 204, 204)"
     fill-opacity="1"
     points="505.519,102.481 485.733,104.036 485.911,115.495 505.696,113.940 "
     id="polygon70"
     style="fill:#ccc9c4;fill-opacity:1;stroke:#ccc9c4;stroke-opacity:1" /><polygon
     stroke="black"
     stroke-width="1"
     fill="rgb(204, 204, 204)"
     fill-opacity="1"
     points="505.696,113.940 485.911,115.495 486.415,125.986 506.201,124.432 "
     id="polygon71"
     style="fill:#ccc9c4;fill-opacity:1;stroke:#ccc9c4;stroke-opacity:1" /><polygon
     stroke="black"
     stroke-width="1"
     fill="rgb(204, 204, 204)"
     fill-opacity="1"
     points="919.207,321.073 930.647,321.074 941.217,316.689 949.306,308.584 953.684,297.995 953.684,286.532 949.306,275.942 941.217,267.836 930.647,263.448 919.207,263.447 908.637,267.833 900.548,275.937 896.170,286.526 896.170,297.989 900.548,308.579 908.637,316.685 "
     id="polygon72"
     style="fill:#ccc9c4;fill-opacity:1;stroke:#ccc9c4;stroke-opacity:1" /><polygon
     stroke="black"
     stroke-width="1"
     fill="rgb(204, 204, 204)"
     fill-opacity="1"
     points="418.849,93.452 399.121,90.922 398.848,101.121 418.576,103.651 "
     id="polygon73"
     style="fill:#ccc9c4;fill-opacity:1;stroke:#ccc9c4;stroke-opacity:1" /><polygon
     stroke="black"
     stroke-width="1"
     fill="rgb(204, 204, 204)"
     fill-opacity="1"
     points="418.576,103.651 398.848,101.121 398.848,112.546 418.576,115.075 "
     id="polygon74"
     style="fill:#ccc9c4;fill-opacity:1;stroke:#ccc9c4;stroke-opacity:1" /><polygon
     stroke="black"
     stroke-width="1"
     fill="rgb(204, 204, 204)"
     fill-opacity="1"
     points="930.650,321.074 919.208,321.081 908.638,325.475 900.548,333.585 896.170,344.177 896.170,355.639 900.548,366.225 908.638,374.325 919.208,378.704 930.650,378.696 941.220,374.302 949.310,366.192 953.688,355.600 953.688,344.138 949.310,333.552 941.220,325.453 "
     id="polygon75"
     style="fill:#ccc9c4;fill-opacity:1;stroke:#ccc9c4;stroke-opacity:1" /><path
     style="fill:#e1d7cd;fill-opacity:1;stroke:#000000;stroke-width:1px;stroke-linecap:butt;stroke-linejoin:miter;stroke-opacity:1"
     d="M 8.9622934,488.62764 217.62562,406.61473 H 343.03928 L 506.201,492.65319 453.748,621.074 401.447,555.277 244.235,494.713 169.897,527.605 99.98,552.046 57.386,616.868 Z"
     id="path75"
     sodipodi:nodetypes="ccccccccccc" /><path
     id="rect81"
     style="fill:#333333;fill-opacity:1;stroke-linecap:round"
     d="M 295.42578 421.0332 L 295.42578 429.41992 L 196.35156 429.41992 L 196.35156 471.79883 L 191.17578 471.79883 L 196.35156 480.18555 L 300.61719 480.18555 L 300.61719 429.41992 L 300.60156 429.41992 L 295.42578 421.0332 z " /><path
     id="path81"
     style="fill:#333333;fill-opacity:1;stroke-linecap:round"
     d="M 439.39258 479.87891 A 39.642715 39.642715 0 0 0 399.75 519.52148 A 39.642715 39.642715 0 0 0 439.39258 559.16406 A 39.642715 39.642715 0 0 0 479.03516 519.52148 A 39.642715 39.642715 0 0 0 439.39258 479.87891 z M 439.39258 498.4082 A 21.114168 21.114168 0 0 1 460.50586 519.52148 A 21.114168 21.114168 0 0 1 439.39258 540.63672 A 21.114168 21.114168 0 0 1 418.27734 519.52148 A 21.114168 21.114168 0 0 1 439.39258 498.4082 z " /><circle
     style="fill:#333333;fill-opacity:1;stroke-linecap:round"
     id="path82"
     cx="439.39258"
     cy="519.52148"
     r="7.0220876" /><path
     sodipodi:type="star"
     style="fill:#151a1e;fill-opacity:1;stroke-linecap:round"
     id="path83"
     inkscape:flatsided="true"
     sodipodi:sides="5"
     sodipodi:cx="52.472076"
     sodipodi:cy="512"
     sodipodi:r1="24.950148"
     sodipodi:r2="20.185093"
     sodipodi:arg1="-0.52359878"
     sodipodi:arg2="0.10471976"
     inkscape:rounded="-2.5327e-16"
     inkscape:randomized="0"
     d="M 74.079538,499.52493 71.01365,528.69491 42.323937,534.79309 27.658608,509.392 47.284649,487.59507 Z"
     inkscape:transform-center-x="1.6030032"
     inkscape:transform-center-y="-0.80591649"
     transform="translate(9.4738902,0.80591647)" /><rect
     style="fill:#151a1e;fill-opacity:1;stroke-linecap:round"
     id="rect83"
     width="104.26566"
     height="50.765575"
     x="191.17528"
     y="421.03366"
     rx="0"
     ry="0" /><path
     id="path85"
     style="fill:#151a1e;fill-opacity:1;stroke-linecap:round"
     d="m 435.29905,472.85682 a 39.642715,39.642715 0 0 0 -39.64258,39.64257 39.642715,39.642715 0 0 0 39.64258,39.64258 39.642715,39.642715 0 0 0 39.64258,-39.64258 39.642715,39.642715 0 0 0 -39.64258,-39.64257 z m 0,18.52929 a 21.114168,21.114168 0 0 1 21.11328,21.11328 21.114168,21.114168 0 0 1 -21.11328,21.11524 21.114168,21.114168 0 0 1 -21.11524,-21.11524 21.114168,21.114168 0 0 1 21.11524,-21.11328 z" /><circle
     style="fill:#151a1e;fill-opacity:1;stroke-linecap:round"
     id="circle85"
     cx="436.81192"
     cy="517.03009"
     r="7.0220876" /><circle
     style="fill:#292621;fill-opacity:1;stroke:none;stroke-linecap:round;stroke-opacity:1"
     id="path86"
     cx="446.14682"
     cy="580.98358"
     r="6.3776908" /><circle
     style="fill:#292621;fill-opacity:1;stroke:none;stroke-linecap:round;stroke-opacity:1"
     id="path86-3"
     cx="363.37769"
     cy="523.37769"
     r="6.3776908" /><circle
     style="fill:#292621;fill-opacity:1;stroke:none;stroke-linecap:round;stroke-opacity:1"
     id="path86-6"
     cx="378.37769"
     cy="491.37769"
     r="6.3776908" /><circle
     style="fill:#292621;fill-opacity:1;stroke:none;stroke-linecap:round;stroke-opacity:1"
     id="path86-7"
     cx="396.37769"
     cy="462.37769"
     r="6.3776908" /><circle
     style="fill:#292621;fill-opacity:1;stroke:none;stroke-linecap:round;stroke-opacity:1"
     id="path86-5"
     cx="374.37769"
     cy="448.37769"
     r="6.3776908" /><circle
     style="fill:#292621;fill-opacity:1;stroke:none;stroke-linecap:round;stroke-opacity:1"
     id="path86-35"
     cx="350.37769"
     cy="436.37769"
     r="6.3776908" /><circle
     style="fill:#292621;fill-opacity:1;stroke:none;stroke-linecap:round;stroke-opacity:1"
     id="path86-62"
     cx="358.58304"
     cy="479.87769"
     r="6.3776908" /><circle
     style="fill:#292621;fill-opacity:1;stroke:none;stroke-linecap:round;stroke-opacity:1"
     id="path86-2"
     cx="321.73209"
     cy="491.37769"
     r="6.3776908" /><circle
     style="fill:#292621;fill-opacity:1;stroke:none;stroke-linecap:round;stroke-opacity:1"
     id="path86-70"
     cx="319.82626"
     cy="459.15448"
     r="6.3776908" /><circle
     style="fill:#292621;fill-opacity:1;stroke:none;stroke-linecap:round;stroke-opacity:1"
     id="path86-60"
     cx="181.37769"
     cy="506.37769"
     r="6.3776908" /><circle
     style="fill:#292621;fill-opacity:1;stroke:none;stroke-linecap:round;stroke-opacity:1"
     id="path86-626"
     cx="170.37769"
     cy="478.37769"
     r="6.3776908" /><circle
     style="fill:#292621;fill-opacity:1;stroke:none;stroke-linecap:round;stroke-opacity:1"
     id="path86-18"
     cx="160.37769"
     cy="450.37769"
     r="6.3776908" /><circle
     style="fill:#292621;fill-opacity:1;stroke:none;stroke-linecap:round;stroke-opacity:1"
     id="path86-79"
     cx="127.37769"
     cy="461.37769"
     r="6.3776908" /><circle
     style="fill:#292621;fill-opacity:1;stroke:none;stroke-linecap:round;stroke-opacity:1"
     id="path86-20"
     cx="98.377693"
     cy="473.37769"
     r="6.3776908" /><circle
     style="fill:#292621;fill-opacity:1;stroke:none;stroke-linecap:round;stroke-opacity:1"
     id="path86-23"
     cx="111.50949"
     cy="503.71402"
     r="6.3776908" /><circle
     style="fill:#292621;fill-opacity:1;stroke:none;stroke-linecap:round;stroke-opacity:1"
     id="path86-75"
     cx="139.80771"
     cy="491.71664"
     r="6.3776908" /><circle
     style="fill:#292621;fill-opacity:1;stroke:none;stroke-linecap:round;stroke-opacity:1"
     id="path86-92"
     cx="150.37769"
     cy="519.37769"
     r="6.3776908" /><circle
     style="fill:#292621;fill-opacity:1;stroke:none;stroke-linecap:round;stroke-opacity:1"
     id="path86-28"
     cx="120.37769"
     cy="531.37769"
     r="6.3776908" /><circle
     style="fill:#292621;fill-opacity:1;stroke:none;stroke-linecap:round;stroke-opacity:1"
     id="path86-93"
     cx="319.37769"
     cy="428.37769"
     r="6.3776908" /><circle
     style="fill:#292621;fill-opacity:1;stroke:none;stroke-linecap:round;stroke-opacity:1"
     id="path86-9"
     cx="337.62231"
     cy="507.70648"
     r="6.3776908" /><circle
     style="fill:#292621;fill-opacity:1;stroke:none;stroke-linecap:round;stroke-opacity:1"
     id="path86-1"
     cx="337.62231"
     cy="466"
     r="6.3776908" /><circle
     style="fill:#ffffff;fill-opacity:1;stroke:none;stroke-linecap:round;stroke-opacity:1"
     id="path87"
     cx="712.89661"
     cy="806.57764"
     r="44.254543" /></svg>
