<?xml version="1.0" encoding="UTF-8" standalone="no"?>
<svg
   width="1024"
   height="1024"
   viewBox="0 0 1024 1024"
   version="1.1"
   id="svg40"
   sodipodi:docname="Vertical_stabilizer.svg"
   inkscape:version="1.3.2 (091e20ef0f, 2023-11-25, custom)"
   xml:space="preserve"
   xmlns:inkscape="http://www.inkscape.org/namespaces/inkscape"
   xmlns:sodipodi="http://sodipodi.sourceforge.net/DTD/sodipodi-0.dtd"
   xmlns="http://www.w3.org/2000/svg"
   xmlns:svg="http://www.w3.org/2000/svg"><defs
     id="defs40" /><sodipodi:namedview
     id="namedview40"
     pagecolor="#505050"
     bordercolor="#ffffff"
     borderopacity="1"
     inkscape:showpageshadow="0"
     inkscape:pageopacity="0"
     inkscape:pagecheckerboard="1"
     inkscape:deskcolor="#d1d1d1"
     inkscape:zoom="0.48144531"
     inkscape:cx="510.96146"
     inkscape:cy="512"
     inkscape:window-width="1366"
     inkscape:window-height="724"
     inkscape:window-x="-1"
     inkscape:window-y="-1"
     inkscape:window-maximized="1"
     inkscape:current-layer="svg40" /><desc
     id="desc1">Boeing_747SP.blend, (Blender 3.3.9)</desc><rect
     style="fill:#ffffff;fill-opacity:1;stroke-width:15;stroke-linecap:square"
     id="rect1"
     width="1024"
     height="1024"
     x="0"
     y="0"
     rx="2.3779886"
     ry="2.3779886" /><path
     id="polygon1"
     d="m 195.54492,587.02734 30.49381,79.00598 16.55374,-2.00745 37.30946,-4.52361 185.07668,309.4178 7.17733,13.14575 -37.81445,42.00639 60.63448,-0.2151 109.89818,-0.3893 219.79638,-0.7783 25.84314,-0.3653 -51.70676,-53.40414 -465.37105,-368.45848 -68.94633,-6.71541 z"
     style="fill:#ffffff;fill-opacity:1;stroke-width:0.873744"
     sodipodi:nodetypes="ccccccccccccccc" /><path
     d="m 187.00781,93.074219 32.8467,84.851841 17.82918,-2.15604 40.18824,-4.85659 199.35896,332.31956 7.73113,14.11875 -40.46573,44.81846 -1.01073,0.004 -38.54719,0.13566 -38.54719,0.1375 12.38597,0.10268 12.38781,0.1045 53.36625,-0.18884 65.01162,-0.231 118.37605,-0.41801 236.75576,-0.83602 27.83903,-0.39234 -55.69644,-57.3551 -501.27888,-395.73018 -74.26619,-7.2143 z m 391.89828,410.158771 48.76837,58.29004 z"
     style="fill:#ffffff;fill-opacity:1;stroke-width:0.939787"
     id="path1" /><g
     id="g20"
     transform="matrix(0.00769231,0,0.00325115,0.00769231,296.84101,657.84528)"><rect
       width="7410"
       height="3900"
       fill="#b22234"
       id="rect3"
       x="0"
       y="0" /><path
       d="m 0,450 h 7410 m 0,600 H 0 m 0,600 h 7410 m 0,600 H 0 m 0,600 h 7410 m 0,600 H 0"
       stroke="#ffffff"
       stroke-width="300"
       id="path3" /><rect
       width="2964"
       height="2100"
       fill="#3c3b6e"
       id="rect4"
       x="0"
       y="0" /><g
       fill="#ffffff"
       id="g19"><g
         id="g16"><g
           id="g15"><g
             id="g14"><g
               id="g13"><path
                 id="path4"
                 d="M 247,90 317.53423,307.08204 132.87322,172.91796 H 361.12678 L 176.46577,307.08204 Z" /><path
                 id="use11"
                 d="M 247,510 317.53423,727.08204 132.87322,592.91796 H 361.12678 L 176.46577,727.08204 Z" /><path
                 id="use12"
                 d="m 247,930 70.53423,217.082 -184.66101,-134.164 h 228.25356 l -184.66101,134.164 z" /><path
                 id="use13"
                 d="m 247,1350 70.53423,217.082 -184.66101,-134.164 h 228.25356 l -184.66101,134.164 z" /></g><path
               id="use14"
               d="m 247,1770 70.53423,217.082 -184.66101,-134.164 h 228.25356 l -184.66101,134.164 z" /></g><g
             id="use15"
             transform="translate(247,210)"><path
               id="path106"
               d="M 247,90 317.53423,307.08204 132.87322,172.91796 H 361.12678 L 176.46577,307.08204 Z" /><path
               id="use107"
               d="M 247,510 317.53423,727.08204 132.87322,592.91796 H 361.12678 L 176.46577,727.08204 Z" /><path
               id="use108"
               d="m 247,930 70.53423,217.082 -184.66101,-134.164 h 228.25356 l -184.66101,134.164 z" /><path
               id="use109"
               d="m 247,1350 70.53423,217.082 -184.66101,-134.164 h 228.25356 l -184.66101,134.164 z" /></g></g><g
           id="use16"
           transform="translate(494)"><g
             id="g60"><g
               id="g59"><path
                 id="path56"
                 d="M 247,90 317.53423,307.08204 132.87322,172.91796 H 361.12678 L 176.46577,307.08204 Z" /><path
                 id="use57"
                 d="M 247,510 317.53423,727.08204 132.87322,592.91796 H 361.12678 L 176.46577,727.08204 Z" /><path
                 id="use58"
                 d="m 247,930 70.53423,217.082 -184.66101,-134.164 h 228.25356 l -184.66101,134.164 z" /><path
                 id="use59"
                 d="m 247,1350 70.53423,217.082 -184.66101,-134.164 h 228.25356 l -184.66101,134.164 z" /></g><path
               id="use60"
               d="m 247,1770 70.53423,217.082 -184.66101,-134.164 h 228.25356 l -184.66101,134.164 z" /></g><g
             id="use61"
             transform="translate(247,210)"><path
               id="path127"
               d="M 247,90 317.53423,307.08204 132.87322,172.91796 H 361.12678 L 176.46577,307.08204 Z" /><path
               id="use128"
               d="M 247,510 317.53423,727.08204 132.87322,592.91796 H 361.12678 L 176.46577,727.08204 Z" /><path
               id="use129"
               d="m 247,930 70.53423,217.082 -184.66101,-134.164 h 228.25356 l -184.66101,134.164 z" /><path
               id="use130"
               d="m 247,1350 70.53423,217.082 -184.66101,-134.164 h 228.25356 l -184.66101,134.164 z" /></g></g></g><g
         id="use17"
         transform="translate(988)"><g
           id="g39"><g
             id="g38"><g
               id="g37"><path
                 id="path34"
                 d="M 247,90 317.53423,307.08204 132.87322,172.91796 H 361.12678 L 176.46577,307.08204 Z" /><path
                 id="use35"
                 d="M 247,510 317.53423,727.08204 132.87322,592.91796 H 361.12678 L 176.46577,727.08204 Z" /><path
                 id="use36"
                 d="m 247,930 70.53423,217.082 -184.66101,-134.164 h 228.25356 l -184.66101,134.164 z" /><path
                 id="use37"
                 d="m 247,1350 70.53423,217.082 -184.66101,-134.164 h 228.25356 l -184.66101,134.164 z" /></g><path
               id="use38"
               d="m 247,1770 70.53423,217.082 -184.66101,-134.164 h 228.25356 l -184.66101,134.164 z" /></g><g
             id="use39"
             transform="translate(247,210)"><path
               id="path115"
               d="M 247,90 317.53423,307.08204 132.87322,172.91796 H 361.12678 L 176.46577,307.08204 Z" /><path
               id="use116"
               d="M 247,510 317.53423,727.08204 132.87322,592.91796 H 361.12678 L 176.46577,727.08204 Z" /><path
               id="use117"
               d="m 247,930 70.53423,217.082 -184.66101,-134.164 h 228.25356 l -184.66101,134.164 z" /><path
               id="use118"
               d="m 247,1350 70.53423,217.082 -184.66101,-134.164 h 228.25356 l -184.66101,134.164 z" /></g></g><g
           id="use40"
           transform="translate(494)"><g
             id="g85"><g
               id="g84"><path
                 id="path81"
                 d="M 247,90 317.53423,307.08204 132.87322,172.91796 H 361.12678 L 176.46577,307.08204 Z" /><path
                 id="use82"
                 d="M 247,510 317.53423,727.08204 132.87322,592.91796 H 361.12678 L 176.46577,727.08204 Z" /><path
                 id="use83"
                 d="m 247,930 70.53423,217.082 -184.66101,-134.164 h 228.25356 l -184.66101,134.164 z" /><path
                 id="use84"
                 d="m 247,1350 70.53423,217.082 -184.66101,-134.164 h 228.25356 l -184.66101,134.164 z" /></g><path
               id="use85"
               d="m 247,1770 70.53423,217.082 -184.66101,-134.164 h 228.25356 l -184.66101,134.164 z" /></g><g
             id="use86"
             transform="translate(247,210)"><path
               id="path142"
               d="M 247,90 317.53423,307.08204 132.87322,172.91796 H 361.12678 L 176.46577,307.08204 Z" /><path
               id="use143"
               d="M 247,510 317.53423,727.08204 132.87322,592.91796 H 361.12678 L 176.46577,727.08204 Z" /><path
               id="use144"
               d="m 247,930 70.53423,217.082 -184.66101,-134.164 h 228.25356 l -184.66101,134.164 z" /><path
               id="use145"
               d="m 247,1350 70.53423,217.082 -184.66101,-134.164 h 228.25356 l -184.66101,134.164 z" /></g></g></g><g
         id="use18"
         transform="translate(1976)"><g
           id="g65"><g
             id="g64"><path
               id="path61"
               d="M 247,90 317.53423,307.08204 132.87322,172.91796 H 361.12678 L 176.46577,307.08204 Z" /><path
               id="use62"
               d="M 247,510 317.53423,727.08204 132.87322,592.91796 H 361.12678 L 176.46577,727.08204 Z" /><path
               id="use63"
               d="m 247,930 70.53423,217.082 -184.66101,-134.164 h 228.25356 l -184.66101,134.164 z" /><path
               id="use64"
               d="m 247,1350 70.53423,217.082 -184.66101,-134.164 h 228.25356 l -184.66101,134.164 z" /></g><path
             id="use65"
             d="m 247,1770 70.53423,217.082 -184.66101,-134.164 h 228.25356 l -184.66101,134.164 z" /></g><g
           id="use66"
           transform="translate(247,210)"><path
             id="path130"
             d="M 247,90 317.53423,307.08204 132.87322,172.91796 H 361.12678 L 176.46577,307.08204 Z" /><path
             id="use131"
             d="M 247,510 317.53423,727.08204 132.87322,592.91796 H 361.12678 L 176.46577,727.08204 Z" /><path
             id="use132"
             d="m 247,930 70.53423,217.082 -184.66101,-134.164 h 228.25356 l -184.66101,134.164 z" /><path
             id="use133"
             d="m 247,1350 70.53423,217.082 -184.66101,-134.164 h 228.25356 l -184.66101,134.164 z" /></g></g><g
         id="use19"
         transform="translate(2470)"><g
           id="g98"><path
             id="path95"
             d="M 247,90 317.53423,307.08204 132.87322,172.91796 H 361.12678 L 176.46577,307.08204 Z" /><path
             id="use96"
             d="M 247,510 317.53423,727.08204 132.87322,592.91796 H 361.12678 L 176.46577,727.08204 Z" /><path
             id="use97"
             d="m 247,930 70.53423,217.082 -184.66101,-134.164 h 228.25356 l -184.66101,134.164 z" /><path
             id="use98"
             d="m 247,1350 70.53423,217.082 -184.66101,-134.164 h 228.25356 l -184.66101,134.164 z" /></g><path
           id="use99"
           d="m 247,1770 70.53423,217.082 -184.66101,-134.164 h 228.25356 l -184.66101,134.164 z" /></g></g></g><g
     transform="matrix(0.61361333,0,0,0.61361333,-685.97459,1575.8863)"
     id="g13322"><path
       d="M 434.28125,67.4375 380.25,121.75 H 334.40625 L 290.75,165.40625 h 53.40625 v 54.3125 l 54.3125,-54.3125 H 444 L 487.65625,121.75 h -53.375 z m -11,26.375 V 121.75 H 395.3125 Z M 338.8125,132.75 h 30.46875 l -21.6875,21.65625 h -30.4375 z m 46.15625,0 h 30.46875 l -22,21.65625 H 363 Z m 45.84375,0 h 30.46875 l -21.6875,21.65625 h -30.4375 z m -47.71875,32.34375 -27.9375,27.9375 v -27.625 z"
       transform="translate(1821.542,-1159.2251)"
       style="fill:#231f20;fill-rule:evenodd;stroke:none"
       id="path13300" /><path
       d="m 398.15625,198.09375 v 32.3125 h 9.125 c 9.72449,-1e-5 18.53125,-3.12088 18.53125,-16 -10e-6,-13.19746 -8.80675,-16.3125 -18.53125,-16.3125 z m 6.59375,5 h 3.78125 c 5.35421,0 10.65625,4.07705 10.65625,11.3125 10e-6,6.91711 -5.30205,11 -10.65625,11 H 404.75 Z"
       transform="translate(1821.542,-1159.2251)"
       style="fill:#231f20;fill-rule:evenodd;stroke:none"
       id="path13304" /><path
       d="m 470.75,198.03125 c -0.75972,-0.0207 -1.50475,0.0227 -2.25,0.0625 h -11.625 v 32.3125 h 6.59375 v -11.9375 h 0.9375 3.78125 c 2.80731,0 3.7614,0.95081 4.6875,3.46875 l 3.5,8.46875 h 7.84375 L 478.875,219.125 c -0.95509,-1.88122 -1.28085,-2.51367 -2.84375,-3.46875 10e-6,0 5.66215,-1.56338 5.34375,-7.84375 -10e-6,-7.69853 -5.30695,-9.63603 -10.625,-9.78125 z m -7.28125,5.375 h 4.40625 c 3.4441,0 6.2731,0.96217 6.5625,4.40625 v 0.90625 c -0.28939,3.47301 -3.1184,4.40625 -6.5625,4.40625 h -4.40625 z"
       transform="translate(1821.542,-1159.2251)"
       style="fill:#231f20;fill-rule:evenodd;stroke:none"
       id="path13312" /><path
       d="m 2253.9408,-928.81852 h 19.1595 v -5.3253 h -12.5897 v -27.00273 h -6.5698 z"
       style="fill:#231f20;fill-rule:evenodd;stroke:none"
       id="path13308" /></g><g
     id="g1"
     transform="matrix(2.384846,0,0,2.384846,309.97142,771.0897)"><path
       d="M 55.12,27.166 C 50.453,28.98 45.901,30.599 42.06,31.801 34.255,34.245 12.9,40.861 0,49.201 l 1.08,0.42 c 7.86,-4.44 12.969,-5.835 17.88,-7.38 5.34,-1.68 22.603,-5.72 30.42,-7.92 2.641,-0.743 5.734,-1.716 9.01,-2.9 -0.762,-1.063 -1.566,-2.129 -2.412,-3.193 -0.283,-0.359 -0.57,-0.713 -0.858,-1.062 z m 5.702,7.859 c -1.13,0.763 -2.077,1.372 -2.74,1.756 -3.84,2.22 -22.561,15 -26.82,17.94 -4.259,2.94 -16.08,14.1 -19.56,17.34 l -0.12,1.319 c 11.22,-10.08 14.74,-12.566 19.2,-15.959 5.52,-4.2 16.939,-11.97 20.82,-14.46 3.71,-2.38 7.056,-4.569 10.059,-6.572 -0.049,-0.082 -0.098,-0.164 -0.147,-0.247 -0.226,-0.371 -0.457,-0.743 -0.692,-1.117 z M 78.361,16.501 c -5.466,3.204 -14.081,7.071 -22.439,10.352 0.2,0.245 0.399,0.492 0.597,0.741 0.934,1.176 1.815,2.36 2.644,3.545 6.57,-2.42 13.779,-5.668 19.499,-9.599 -2.725,2.582 -11.734,9.315 -17.227,13.068 0.283,0.461 0.557,0.922 0.822,1.381 C 70.579,30.42 76.179,26.321 79.442,23.58 83.942,19.8 94.202,11.34 98.102,0 91.261,8.701 83.173,13.68 78.361,16.501 Z"
       fill="#fc3d21"
       id="path41" /><path
       d="M 40.436,46.72 C 39.551,45.606 38.327,44.114 37.408,42.957 36.179,41.41 35.042,39.847 34,38.286 c -0.34,0.085 -0.679,0.17 -1.018,0.255 1.258,1.963 2.655,3.923 4.177,5.839 1.112,1.4 2.123,2.527 2.641,3.228 0.105,0.142 0.313,0.456 0.594,0.874 0.324,-0.22 0.651,-0.442 0.981,-0.666 -0.319,-0.347 -0.634,-0.712 -0.939,-1.096 z m 6.46,5.864 c -0.727,-0.688 -2.49,-1.837 -4.325,-3.561 -0.405,0.278 -0.814,0.56 -1.224,0.844 1.185,1.67 2.799,3.721 4.063,4.319 1.904,0.902 2.417,-0.72 1.486,-1.602 z m 9.623,-24.99 C 46.027,14.388 33.21,7.133 27.684,11.524 c -4.292,3.41 -2.53,13.376 3.386,23.845 0.306,-0.105 0.609,-0.208 0.909,-0.31 -5.971,-10.2 -7.605,-19.679 -3.557,-22.896 5.087,-4.042 17.37,3.241 27.558,16.064 2.109,2.654 3.963,5.318 5.533,7.915 6.012,9.95 7.857,18.948 3.703,22.621 -1.271,1.124 -5.155,1.565 -10.243,-0.725 -0.071,0.089 0.043,0.33 0.132,0.389 4.392,1.766 8.599,2.439 10.723,0.752 5.104,-4.056 1.183,-18.379 -9.309,-31.585 z"
       id="path42"
       style="fill:#000000" /><path
       d="m 11.521,29.161 h 6.72 l 5.64,9.57 c 0,0 0,-6.93 0,-7.47 0,-0.84 -1.065,-1.935 -1.44,-2.1 0.45,0 4.38,0 4.65,0 -0.285,0.075 -1.2,1.185 -1.2,2.1 0,0.45 0,10.5 0,10.98 0,0.675 0.975,1.605 1.44,1.965 h -6.48 l -5.73,-9.615 c 0,0 0,7.17 0,7.56 0,0.75 0.735,1.47 1.5,2.085 h -4.95 c 0.705,-0.3 1.38,-1.245 1.44,-1.995 0.06,-0.75 0,-10.425 0,-10.845 0,-0.915 -0.885,-1.665 -1.59,-2.235 z"
       id="path43"
       style="fill:#0b3d91;fill-opacity:1" /><path
       d="m 72.991,44.206 h 8.94 c -0.495,-0.12 -1.05,-0.705 -1.35,-1.485 -0.3,-0.78 -5.04,-13.56 -5.04,-13.56 h -3.399 c -0.964,0.694 -1.997,1.426 -3.1,2.197 -0.003,0.028 -0.006,0.056 -0.011,0.083 -0.148,0.9 -2.808,10.534 -2.97,11.01 -0.225,0.66 -1.38,1.395 -1.845,1.785 h 4.815 c -0.48,-0.54 -0.87,-1.065 -0.78,-1.665 0.09,-0.6 0.36,-1.8 0.36,-1.8 h 4.98 c 0.225,0.6 0.393,1.139 0.48,1.65 0.105,0.615 -0.525,1.305 -1.08,1.785 z m -3.93,-5.355 1.68,-5.49 2.22,5.49 z m -0.757,-9.142 c 0.247,-0.182 0.495,-0.365 0.742,-0.548 h -1.305 c 0.13,0.12 0.345,0.309 0.563,0.548 z"
       id="path44"
       style="fill:#0b3d91;fill-opacity:1" /><path
       d="m 34.111,42.571 c 0.09,-0.6 0.36,-1.8 0.36,-1.8 h 4.98 c 0.225,0.6 0.393,1.139 0.48,1.65 0.105,0.615 -0.525,1.305 -1.08,1.785 h 7.871 c 0.164,-0.11 0.327,-0.22 0.49,-0.329 -0.305,-0.27 -0.586,-0.675 -0.771,-1.156 -0.3,-0.78 -5.04,-13.56 -5.04,-13.56 h -7.8 c 0.375,0.345 1.455,1.275 1.29,2.28 -0.147,0.9 -2.808,10.534 -2.97,11.01 -0.225,0.66 -1.38,1.395 -1.845,1.785 h 4.815 c -0.48,-0.54 -0.87,-1.065 -0.78,-1.665 z m 2.49,-9.21 2.22,5.49 h -3.9 z"
       id="path45"
       style="fill:#0b3d91;fill-opacity:1" /><path
       d="m 61.3,36.629 c -1.468,0.978 -3.017,1.999 -4.649,3.065 0.732,0.355 1.315,0.801 1.371,1.377 0.104,1.082 -2.07,1.605 -4.035,1.38 -0.393,-0.045 -0.779,-0.148 -1.147,-0.286 -0.408,0.263 -0.82,0.528 -1.238,0.796 -0.425,0.273 -0.941,0.609 -1.53,0.997 v 1.553 c 0.39,-0.765 1.243,-1.45 1.905,-1.485 0.285,-0.015 1.275,0.9 5.355,0.675 1.98,-0.109 5.805,-2.22 5.745,-4.65 -0.036,-1.436 -0.786,-2.556 -1.777,-3.422 z m -11.229,3.752 v 1.582 c 0.361,-0.241 0.717,-0.478 1.066,-0.709 -0.549,-0.382 -0.938,-0.739 -1.066,-0.873 z m 9.834,-4.745 c -0.38,-0.225 -0.765,-0.422 -1.134,-0.596 -1.92,-0.9 -3.93,-1.065 -4.35,-2.28 -0.296,-0.857 0.54,-1.65 2.58,-1.62 2.04,0.03 3.93,1.245 4.44,1.68 v -3.87 c -0.15,0.15 -0.808,0.905 -1.41,0.78 -1.155,-0.24 -3.12,-0.553 -5.37,-0.54 -2.58,0.015 -4.8,2.009 -4.875,4.53 -0.105,3.525 2.715,4.485 4.305,5.04 0.164,0.057 0.351,0.118 0.554,0.183 1.525,-0.992 2.731,-1.756 3.437,-2.163 0.474,-0.273 1.095,-0.665 1.823,-1.144 z"
       id="path46"
       style="fill:#0b3d91;fill-opacity:1" /></g><g
     transform="matrix(-0.61361333,0,0,0.61361333,2005.8647,1068.5604)"
     id="g7"><path
       d="M 434.28125,67.4375 380.25,121.75 H 334.40625 L 290.75,165.40625 h 53.40625 v 54.3125 l 54.3125,-54.3125 H 444 L 487.65625,121.75 h -53.375 z m -11,26.375 V 121.75 H 395.3125 Z M 338.8125,132.75 h 30.46875 l -21.6875,21.65625 h -30.4375 z m 46.15625,0 h 30.46875 l -22,21.65625 H 363 Z m 45.84375,0 h 30.46875 l -21.6875,21.65625 h -30.4375 z m -47.71875,32.34375 -27.9375,27.9375 v -27.625 z"
       transform="translate(1821.542,-1159.2251)"
       style="fill:#231f20;fill-rule:evenodd;stroke:none"
       id="path2" /><path
       d="m 398.15625,198.09375 v 32.3125 h 9.125 c 9.72449,-1e-5 18.53125,-3.12088 18.53125,-16 -10e-6,-13.19746 -8.80675,-16.3125 -18.53125,-16.3125 z m 6.59375,5 h 3.78125 c 5.35421,0 10.65625,4.07705 10.65625,11.3125 10e-6,6.91711 -5.30205,11 -10.65625,11 H 404.75 Z"
       transform="translate(1821.542,-1159.2251)"
       style="fill:#231f20;fill-rule:evenodd;stroke:none"
       id="path5" /><path
       d="m 470.75,198.03125 c -0.75972,-0.0207 -1.50475,0.0227 -2.25,0.0625 h -11.625 v 32.3125 h 6.59375 v -11.9375 h 0.9375 3.78125 c 2.80731,0 3.7614,0.95081 4.6875,3.46875 l 3.5,8.46875 h 7.84375 L 478.875,219.125 c -0.95509,-1.88122 -1.28085,-2.51367 -2.84375,-3.46875 10e-6,0 5.66215,-1.56338 5.34375,-7.84375 -10e-6,-7.69853 -5.30695,-9.63603 -10.625,-9.78125 z m -7.28125,5.375 h 4.40625 c 3.4441,0 6.2731,0.96217 6.5625,4.40625 v 0.90625 c -0.28939,3.47301 -3.1184,4.40625 -6.5625,4.40625 h -4.40625 z"
       transform="translate(1821.542,-1159.2251)"
       style="fill:#231f20;fill-rule:evenodd;stroke:none"
       id="path6" /><path
       d="m 2253.9408,-928.81852 h 19.1595 v -5.3253 h -12.5897 v -27.00273 h -6.5698 z"
       style="fill:#231f20;fill-rule:evenodd;stroke:none"
       id="path7" /></g><g
     id="g17"
     transform="matrix(-2.384846,0,0,2.384846,550.92444,278.75576)"><path
       d="M 55.12,27.166 C 50.453,28.98 45.901,30.599 42.06,31.801 34.255,34.245 12.9,40.861 0,49.201 l 1.08,0.42 c 7.86,-4.44 12.969,-5.835 17.88,-7.38 5.34,-1.68 22.603,-5.72 30.42,-7.92 2.641,-0.743 5.734,-1.716 9.01,-2.9 -0.762,-1.063 -1.566,-2.129 -2.412,-3.193 -0.283,-0.359 -0.57,-0.713 -0.858,-1.062 z m 5.702,7.859 c -1.13,0.763 -2.077,1.372 -2.74,1.756 -3.84,2.22 -22.561,15 -26.82,17.94 -4.259,2.94 -16.08,14.1 -19.56,17.34 l -0.12,1.319 c 11.22,-10.08 14.74,-12.566 19.2,-15.959 5.52,-4.2 16.939,-11.97 20.82,-14.46 3.71,-2.38 7.056,-4.569 10.059,-6.572 -0.049,-0.082 -0.098,-0.164 -0.147,-0.247 -0.226,-0.371 -0.457,-0.743 -0.692,-1.117 z M 78.361,16.501 c -5.466,3.204 -14.081,7.071 -22.439,10.352 0.2,0.245 0.399,0.492 0.597,0.741 0.934,1.176 1.815,2.36 2.644,3.545 6.57,-2.42 13.779,-5.668 19.499,-9.599 -2.725,2.582 -11.734,9.315 -17.227,13.068 0.283,0.461 0.557,0.922 0.822,1.381 C 70.579,30.42 76.179,26.321 79.442,23.58 83.942,19.8 94.202,11.34 98.102,0 91.261,8.701 83.173,13.68 78.361,16.501 Z"
       fill="#fc3d21"
       id="path8" /><path
       d="M 40.436,46.72 C 39.551,45.606 38.327,44.114 37.408,42.957 36.179,41.41 35.042,39.847 34,38.286 c -0.34,0.085 -0.679,0.17 -1.018,0.255 1.258,1.963 2.655,3.923 4.177,5.839 1.112,1.4 2.123,2.527 2.641,3.228 0.105,0.142 0.313,0.456 0.594,0.874 0.324,-0.22 0.651,-0.442 0.981,-0.666 -0.319,-0.347 -0.634,-0.712 -0.939,-1.096 z m 6.46,5.864 c -0.727,-0.688 -2.49,-1.837 -4.325,-3.561 -0.405,0.278 -0.814,0.56 -1.224,0.844 1.185,1.67 2.799,3.721 4.063,4.319 1.904,0.902 2.417,-0.72 1.486,-1.602 z m 9.623,-24.99 C 46.027,14.388 33.21,7.133 27.684,11.524 c -4.292,3.41 -2.53,13.376 3.386,23.845 0.306,-0.105 0.609,-0.208 0.909,-0.31 -5.971,-10.2 -7.605,-19.679 -3.557,-22.896 5.087,-4.042 17.37,3.241 27.558,16.064 2.109,2.654 3.963,5.318 5.533,7.915 6.012,9.95 7.857,18.948 3.703,22.621 -1.271,1.124 -5.155,1.565 -10.243,-0.725 -0.071,0.089 0.043,0.33 0.132,0.389 4.392,1.766 8.599,2.439 10.723,0.752 5.104,-4.056 1.183,-18.379 -9.309,-31.585 z"
       id="path9"
       style="fill:#000000" /><path
       d="m 11.521,29.161 h 6.72 l 5.64,9.57 c 0,0 0,-6.93 0,-7.47 0,-0.84 -1.065,-1.935 -1.44,-2.1 0.45,0 4.38,0 4.65,0 -0.285,0.075 -1.2,1.185 -1.2,2.1 0,0.45 0,10.5 0,10.98 0,0.675 0.975,1.605 1.44,1.965 h -6.48 l -5.73,-9.615 c 0,0 0,7.17 0,7.56 0,0.75 0.735,1.47 1.5,2.085 h -4.95 c 0.705,-0.3 1.38,-1.245 1.44,-1.995 0.06,-0.75 0,-10.425 0,-10.845 0,-0.915 -0.885,-1.665 -1.59,-2.235 z"
       id="path10"
       style="fill:#0b3d91;fill-opacity:1" /><path
       d="m 72.991,44.206 h 8.94 c -0.495,-0.12 -1.05,-0.705 -1.35,-1.485 -0.3,-0.78 -5.04,-13.56 -5.04,-13.56 h -3.399 c -0.964,0.694 -1.997,1.426 -3.1,2.197 -0.003,0.028 -0.006,0.056 -0.011,0.083 -0.148,0.9 -2.808,10.534 -2.97,11.01 -0.225,0.66 -1.38,1.395 -1.845,1.785 h 4.815 c -0.48,-0.54 -0.87,-1.065 -0.78,-1.665 0.09,-0.6 0.36,-1.8 0.36,-1.8 h 4.98 c 0.225,0.6 0.393,1.139 0.48,1.65 0.105,0.615 -0.525,1.305 -1.08,1.785 z m -3.93,-5.355 1.68,-5.49 2.22,5.49 z m -0.757,-9.142 c 0.247,-0.182 0.495,-0.365 0.742,-0.548 h -1.305 c 0.13,0.12 0.345,0.309 0.563,0.548 z"
       id="path11"
       style="fill:#0b3d91;fill-opacity:1" /><path
       d="m 34.111,42.571 c 0.09,-0.6 0.36,-1.8 0.36,-1.8 h 4.98 c 0.225,0.6 0.393,1.139 0.48,1.65 0.105,0.615 -0.525,1.305 -1.08,1.785 h 7.871 c 0.164,-0.11 0.327,-0.22 0.49,-0.329 -0.305,-0.27 -0.586,-0.675 -0.771,-1.156 -0.3,-0.78 -5.04,-13.56 -5.04,-13.56 h -7.8 c 0.375,0.345 1.455,1.275 1.29,2.28 -0.147,0.9 -2.808,10.534 -2.97,11.01 -0.225,0.66 -1.38,1.395 -1.845,1.785 h 4.815 c -0.48,-0.54 -0.87,-1.065 -0.78,-1.665 z m 2.49,-9.21 2.22,5.49 h -3.9 z"
       id="path12"
       style="fill:#0b3d91;fill-opacity:1" /><path
       d="m 61.3,36.629 c -1.468,0.978 -3.017,1.999 -4.649,3.065 0.732,0.355 1.315,0.801 1.371,1.377 0.104,1.082 -2.07,1.605 -4.035,1.38 -0.393,-0.045 -0.779,-0.148 -1.147,-0.286 -0.408,0.263 -0.82,0.528 -1.238,0.796 -0.425,0.273 -0.941,0.609 -1.53,0.997 v 1.553 c 0.39,-0.765 1.243,-1.45 1.905,-1.485 0.285,-0.015 1.275,0.9 5.355,0.675 1.98,-0.109 5.805,-2.22 5.745,-4.65 -0.036,-1.436 -0.786,-2.556 -1.777,-3.422 z m -11.229,3.752 v 1.582 c 0.361,-0.241 0.717,-0.478 1.066,-0.709 -0.549,-0.382 -0.938,-0.739 -1.066,-0.873 z m 9.834,-4.745 c -0.38,-0.225 -0.765,-0.422 -1.134,-0.596 -1.92,-0.9 -3.93,-1.065 -4.35,-2.28 -0.296,-0.857 0.54,-1.65 2.58,-1.62 2.04,0.03 3.93,1.245 4.44,1.68 v -3.87 c -0.15,0.15 -0.808,0.905 -1.41,0.78 -1.155,-0.24 -3.12,-0.553 -5.37,-0.54 -2.58,0.015 -4.8,2.009 -4.875,4.53 -0.105,3.525 2.715,4.485 4.305,5.04 0.164,0.057 0.351,0.118 0.554,0.183 1.525,-0.992 2.731,-1.756 3.437,-2.163 0.474,-0.273 1.095,-0.665 1.823,-1.144 z"
       id="path13"
       style="fill:#0b3d91;fill-opacity:1" /></g><g
     id="g86"
     transform="matrix(-0.00769231,0,0.00444116,0.00769231,346.88071,170.08433)"><rect
       width="7410"
       height="3900"
       fill="#b22234"
       id="rect17"
       x="0"
       y="0" /><path
       d="m 0,450 h 7410 m 0,600 H 0 m 0,600 h 7410 m 0,600 H 0 m 0,600 h 7410 m 0,600 H 0"
       stroke="#ffffff"
       stroke-width="300"
       id="path17" /><rect
       width="2964"
       height="2100"
       fill="#3c3b6e"
       id="rect18"
       x="0"
       y="0" /><g
       fill="#ffffff"
       id="g83"><g
         id="g41"><g
           id="g27"><g
             id="g22"><g
               id="g21"><path
                 id="path18"
                 d="M 247,90 317.53423,307.08204 132.87322,172.91796 H 361.12678 L 176.46577,307.08204 Z" /><path
                 id="path19"
                 d="M 247,510 317.53423,727.08204 132.87322,592.91796 H 361.12678 L 176.46577,727.08204 Z" /><path
                 id="path20"
                 d="m 247,930 70.53423,217.082 -184.66101,-134.164 h 228.25356 l -184.66101,134.164 z" /><path
                 id="path21"
                 d="m 247,1350 70.53423,217.082 -184.66101,-134.164 h 228.25356 l -184.66101,134.164 z" /></g><path
               id="path22"
               d="m 247,1770 70.53423,217.082 -184.66101,-134.164 h 228.25356 l -184.66101,134.164 z" /></g><g
             id="g26"
             transform="translate(247,210)"><path
               id="path23"
               d="M 247,90 317.53423,307.08204 132.87322,172.91796 H 361.12678 L 176.46577,307.08204 Z" /><path
               id="path24"
               d="M 247,510 317.53423,727.08204 132.87322,592.91796 H 361.12678 L 176.46577,727.08204 Z" /><path
               id="path25"
               d="m 247,930 70.53423,217.082 -184.66101,-134.164 h 228.25356 l -184.66101,134.164 z" /><path
               id="path26"
               d="m 247,1350 70.53423,217.082 -184.66101,-134.164 h 228.25356 l -184.66101,134.164 z" /></g></g><g
           id="g40"
           transform="translate(494)"><g
             id="g31"><g
               id="g30"><path
                 id="path27"
                 d="M 247,90 317.53423,307.08204 132.87322,172.91796 H 361.12678 L 176.46577,307.08204 Z" /><path
                 id="path28"
                 d="M 247,510 317.53423,727.08204 132.87322,592.91796 H 361.12678 L 176.46577,727.08204 Z" /><path
                 id="path29"
                 d="m 247,930 70.53423,217.082 -184.66101,-134.164 h 228.25356 l -184.66101,134.164 z" /><path
                 id="path30"
                 d="m 247,1350 70.53423,217.082 -184.66101,-134.164 h 228.25356 l -184.66101,134.164 z" /></g><path
               id="path31"
               d="m 247,1770 70.53423,217.082 -184.66101,-134.164 h 228.25356 l -184.66101,134.164 z" /></g><g
             id="g36"
             transform="translate(247,210)"><path
               id="path32"
               d="M 247,90 317.53423,307.08204 132.87322,172.91796 H 361.12678 L 176.46577,307.08204 Z" /><path
               id="path33"
               d="M 247,510 317.53423,727.08204 132.87322,592.91796 H 361.12678 L 176.46577,727.08204 Z" /><path
               id="path35"
               d="m 247,930 70.53423,217.082 -184.66101,-134.164 h 228.25356 l -184.66101,134.164 z" /><path
               id="path36"
               d="m 247,1350 70.53423,217.082 -184.66101,-134.164 h 228.25356 l -184.66101,134.164 z" /></g></g></g><g
         id="g68"
         transform="translate(988)"><g
           id="g56"><g
             id="g51"><g
               id="g50"><path
                 id="path47"
                 d="M 247,90 317.53423,307.08204 132.87322,172.91796 H 361.12678 L 176.46577,307.08204 Z" /><path
                 id="path48"
                 d="M 247,510 317.53423,727.08204 132.87322,592.91796 H 361.12678 L 176.46577,727.08204 Z" /><path
                 id="path49"
                 d="m 247,930 70.53423,217.082 -184.66101,-134.164 h 228.25356 l -184.66101,134.164 z" /><path
                 id="path50"
                 d="m 247,1350 70.53423,217.082 -184.66101,-134.164 h 228.25356 l -184.66101,134.164 z" /></g><path
               id="path51"
               d="m 247,1770 70.53423,217.082 -184.66101,-134.164 h 228.25356 l -184.66101,134.164 z" /></g><g
             id="g55"
             transform="translate(247,210)"><path
               id="path52"
               d="M 247,90 317.53423,307.08204 132.87322,172.91796 H 361.12678 L 176.46577,307.08204 Z" /><path
               id="path53"
               d="M 247,510 317.53423,727.08204 132.87322,592.91796 H 361.12678 L 176.46577,727.08204 Z" /><path
               id="path54"
               d="m 247,930 70.53423,217.082 -184.66101,-134.164 h 228.25356 l -184.66101,134.164 z" /><path
               id="path55"
               d="m 247,1350 70.53423,217.082 -184.66101,-134.164 h 228.25356 l -184.66101,134.164 z" /></g></g><g
           id="g67"
           transform="translate(494)"><g
             id="g62"><g
               id="g61"><path
                 id="path57"
                 d="M 247,90 317.53423,307.08204 132.87322,172.91796 H 361.12678 L 176.46577,307.08204 Z" /><path
                 id="path58"
                 d="M 247,510 317.53423,727.08204 132.87322,592.91796 H 361.12678 L 176.46577,727.08204 Z" /><path
                 id="path59"
                 d="m 247,930 70.53423,217.082 -184.66101,-134.164 h 228.25356 l -184.66101,134.164 z" /><path
                 id="path60"
                 d="m 247,1350 70.53423,217.082 -184.66101,-134.164 h 228.25356 l -184.66101,134.164 z" /></g><path
               id="path62"
               d="m 247,1770 70.53423,217.082 -184.66101,-134.164 h 228.25356 l -184.66101,134.164 z" /></g><g
             id="g66"
             transform="translate(247,210)"><path
               id="path63"
               d="M 247,90 317.53423,307.08204 132.87322,172.91796 H 361.12678 L 176.46577,307.08204 Z" /><path
               id="path64"
               d="M 247,510 317.53423,727.08204 132.87322,592.91796 H 361.12678 L 176.46577,727.08204 Z" /><path
               id="path65"
               d="m 247,930 70.53423,217.082 -184.66101,-134.164 h 228.25356 l -184.66101,134.164 z" /><path
               id="path66"
               d="m 247,1350 70.53423,217.082 -184.66101,-134.164 h 228.25356 l -184.66101,134.164 z" /></g></g></g><g
         id="g77"
         transform="translate(1976)"><g
           id="g72"><g
             id="g71"><path
               id="path68"
               d="M 247,90 317.53423,307.08204 132.87322,172.91796 H 361.12678 L 176.46577,307.08204 Z" /><path
               id="path69"
               d="M 247,510 317.53423,727.08204 132.87322,592.91796 H 361.12678 L 176.46577,727.08204 Z" /><path
               id="path70"
               d="m 247,930 70.53423,217.082 -184.66101,-134.164 h 228.25356 l -184.66101,134.164 z" /><path
               id="path71"
               d="m 247,1350 70.53423,217.082 -184.66101,-134.164 h 228.25356 l -184.66101,134.164 z" /></g><path
             id="path72"
             d="m 247,1770 70.53423,217.082 -184.66101,-134.164 h 228.25356 l -184.66101,134.164 z" /></g><g
           id="g76"
           transform="translate(247,210)"><path
             id="path73"
             d="M 247,90 317.53423,307.08204 132.87322,172.91796 H 361.12678 L 176.46577,307.08204 Z" /><path
             id="path74"
             d="M 247,510 317.53423,727.08204 132.87322,592.91796 H 361.12678 L 176.46577,727.08204 Z" /><path
             id="path75"
             d="m 247,930 70.53423,217.082 -184.66101,-134.164 h 228.25356 l -184.66101,134.164 z" /><path
             id="path76"
             d="m 247,1350 70.53423,217.082 -184.66101,-134.164 h 228.25356 l -184.66101,134.164 z" /></g></g><g
         id="g82"
         transform="translate(2470)"><g
           id="g80"><path
             id="path77"
             d="M 247,90 317.53423,307.08204 132.87322,172.91796 H 361.12678 L 176.46577,307.08204 Z" /><path
             id="path78"
             d="M 247,510 317.53423,727.08204 132.87322,592.91796 H 361.12678 L 176.46577,727.08204 Z" /><path
             id="path79"
             d="m 247,930 70.53423,217.082 -184.66101,-134.164 h 228.25356 l -184.66101,134.164 z" /><path
             id="path80"
             d="m 247,1350 70.53423,217.082 -184.66101,-134.164 h 228.25356 l -184.66101,134.164 z" /></g><path
           id="path82"
           d="m 247,1770 70.53423,217.082 -184.66101,-134.164 h 228.25356 l -184.66101,134.164 z" /></g></g></g><path
     style="fill:none;stroke:#8c9eb6;stroke-width:10;stroke-linecap:butt;stroke-linejoin:miter;stroke-opacity:1;stroke-dasharray:none"
     d="m 187.00781,93.074219 148.53054,14.428831 501.27888,395.73018 55.69644,57.3551"
     id="path86" /><path
     style="fill:none;stroke:#8c9eb6;stroke-width:10;stroke-linecap:butt;stroke-linejoin:miter;stroke-dasharray:none;stroke-opacity:1"
     d="m 195.54492,587.02734 137.89094,13.43424 461.38137,364.50748 55.69644,57.35514"
     id="path87"
     sodipodi:nodetypes="cccc" /></svg>
