<?xml version="1.0" encoding="UTF-8" standalone="no"?>
<svg
   width="1024"
   height="1024"
   viewBox="0 0 1024 1024"
   version="1.1"
   id="svg40"
   sodipodi:docname="Vertical_stabilizer.svg"
   inkscape:version="1.3.2 (091e20ef0f, 2023-11-25, custom)"
   xml:space="preserve"
   xmlns:inkscape="http://www.inkscape.org/namespaces/inkscape"
   xmlns:sodipodi="http://sodipodi.sourceforge.net/DTD/sodipodi-0.dtd"
   xmlns:xlink="http://www.w3.org/1999/xlink"
   xmlns="http://www.w3.org/2000/svg"
   xmlns:svg="http://www.w3.org/2000/svg"><defs
     id="defs40"><style
       id="style1">.cls-2{fill:#0033a1;}</style><linearGradient
       id="linearGradient41"
       inkscape:collect="always"><stop
         style="stop-color:#404040;stop-opacity:1;"
         offset="0"
         id="stop39" /><stop
         style="stop-color:#ffffff;stop-opacity:1;"
         offset="0.5"
         id="stop40" /><stop
         style="stop-color:#404040;stop-opacity:1;"
         offset="1"
         id="stop41" /></linearGradient><linearGradient
       inkscape:collect="always"
       xlink:href="#linearGradient41"
       id="linearGradient25"
       x1="540.76953"
       y1="66.293945"
       x2="674.01758"
       y2="66.293945"
       gradientUnits="userSpaceOnUse" /><style
       id="style1-3">.cls-2{fill:#0033a1;}</style><inkscape:perspective
       sodipodi:type="inkscape:persp3d"
       inkscape:vp_x="0 : 133 : 1"
       inkscape:vp_y="0 : 1000 : 0"
       inkscape:vp_z="697.69098 : 133 : 1"
       inkscape:persp3d-origin="348.84549 : 88.666667 : 1"
       id="perspective58" /><style
       id="style1-6">
      .cls-1 {
        fill: #0081c6;
        stroke-width: 0px;
      }
    </style><g
       id="s"><g
         id="c"><path
           id="t"
           d="M0,0v1h0.5z"
           transform="translate(0,-1)rotate(18)" /><use
           xlink:href="#t"
           transform="scale(-1,1)"
           id="use1" /></g><g
         id="a"><use
           xlink:href="#c"
           transform="rotate(72)"
           id="use2" /><use
           xlink:href="#c"
           transform="rotate(144)"
           id="use3" /></g><use
         xlink:href="#a"
         transform="scale(-1,1)"
         id="use4" /></g><clipPath
       id="a-3"><path
         id="path5695"
         d="m 714.047,23.099 99.853,0 0,34.16 -99.853,0 0,-34.16 z" /></clipPath></defs><sodipodi:namedview
     id="namedview40"
     pagecolor="#505050"
     bordercolor="#ffffff"
     borderopacity="1"
     inkscape:showpageshadow="0"
     inkscape:pageopacity="0"
     inkscape:pagecheckerboard="1"
     inkscape:deskcolor="#d1d1d1"
     inkscape:zoom="0.34176437"
     inkscape:cx="1167.471"
     inkscape:cy="457.91784"
     inkscape:window-width="1366"
     inkscape:window-height="724"
     inkscape:window-x="-1"
     inkscape:window-y="-1"
     inkscape:window-maximized="1"
     inkscape:current-layer="svg40"
     showguides="true"><sodipodi:guide
       position="724.60017,528.84599"
       orientation="0,-1"
       id="guide5"
       inkscape:locked="false" /></sodipodi:namedview><desc
     id="desc1">Boeing_747SP.blend, (Blender 3.3.9)</desc><rect
     style="fill:#ffffff;fill-opacity:1;stroke-width:15;stroke-linecap:square"
     id="rect1"
     width="1024"
     height="1024"
     x="0"
     y="0"
     rx="2.3779886"
     ry="2.3779886" /><path
     style="fill:#ffffff;fill-opacity:1;stroke:none;stroke-width:1px;stroke-linecap:butt;stroke-linejoin:miter;stroke-opacity:1"
     d="m 889.47266,1003.127 -566.44532,2 -148.4707,-409.65825 -34.91016,-90.39648 157.86133,15.37109 532.76953,421.58008 z"
     id="path2"
     sodipodi:nodetypes="ccccccc" /><path
     style="fill:#ffffff;fill-opacity:1;stroke:none;stroke-width:1px;stroke-linecap:butt;stroke-linejoin:miter;stroke-opacity:1"
     d="M 927.87305,534.64657 368.69922,536.62704 212.95703,126.99024 178.04687,36.59376 335.9082,51.964844 868.67773,473.54492 Z"
     id="path3"
     sodipodi:nodetypes="ccccccc" /><path
     style="fill:#00b3f0;fill-opacity:1;stroke:none;stroke-width:1px;stroke-linecap:butt;stroke-linejoin:miter;stroke-opacity:1"
     d="m 178.04687,36.59376 190.65235,500.03328 36.9305,-0.1308 L 209.74541,39.680272 Z"
     id="path14"
     sodipodi:nodetypes="ccccc" /><path
     style="fill:#223f9a;stroke:none;stroke-width:1px;stroke-linecap:butt;stroke-linejoin:miter;stroke-opacity:1;fill-opacity:1"
     d="M 209.74541,39.680272 314.15397,49.846617 869.94165,534.85175 405.62972,536.49624 Z"
     id="path15" /><path
     style="fill:#00b3f0;fill-opacity:1;stroke:none;stroke-width:1px;stroke-linecap:butt;stroke-linejoin:miter;stroke-opacity:1"
     d="m 139.64648,505.07227 183.38086,500.05473 36.9305,-0.1308 -188.61282,-496.83742 z"
     id="path16"
     sodipodi:nodetypes="ccccc" /><path
     style="fill:#223f9a;fill-opacity:1;stroke:none;stroke-width:1px;stroke-linecap:butt;stroke-linejoin:miter;stroke-opacity:1"
     d="m 171.34502,508.15878 104.40856,10.16634 548.51619,485.02658 -464.31193,1.6445 z"
     id="path17"
     sodipodi:nodetypes="ccccc" /><g
     id="g14"
     transform="matrix(1.585369,1.4075986,-1.4075986,1.585369,352.7852,563.20785)"
     style="fill:#ffffff"><g
       id="g5701"
       transform="matrix(3.3013592,0,0,-3.3013592,-2373.0332,174.08088)"
       clip-path="url(#a-3)"
       style="fill:#ffffff"><path
         style="fill:#ffffff"
         id="path5703"
         d="m 744.8711,44.7596 c 0.037,0.184 0.213,0.337 0.412,0.337 0.176,0 0.341,-0.132 0.4,-0.288 l 4.227,-15.397 h 6.925 l 3.528,20.009 h -3.049 l -2.714,-15.407 c -0.036,-0.194 -0.197,-0.346 -0.403,-0.346 -0.187,0 -0.347,0.135 -0.396,0.308 l -4.236,15.445 h -6.922 l -3.527,-20.009 h 3.045 l 2.71,15.348 m -11.8233,-8.564 -0.592,8.965 c -0.005,0.199 -0.138,0.388 -0.337,0.441 -0.22,0.055 -0.445,-0.06 -0.532,-0.256 l -9.029,-15.934 h -3.45 l 11.342,20.01 h 6.666 l 1.334,-20.01 h -4.948 l -0.145,2.181 c -0.024,0.466 -0.373,0.836 -0.837,0.836 h -7.484 l 1.688,2.985 h 5.612 c 0.41,0 0.743,0.36 0.712,0.782 m 37.6249,-0.0425 -0.788,8.882 c -0.021,0.232 -0.211,0.409 -0.45,0.409 -0.16,0 -0.303,-0.083 -0.386,-0.209 l -8.128,-15.823 h -3.372 l 10.269,20.009 h 6.666 l 1.774,-20.009 h -4.986 l -0.195,2.182 c -0.037,0.469 -0.377,0.833 -0.837,0.833 h -7.017 l 1.532,2.986 h 5.2 c 0.425,0 0.76,0.365 0.718,0.74" /></g></g><g
     id="g19"
     transform="matrix(-1.5930091,-1.3989463,-1.3989463,1.5930091,689.91676,354.9961)"
     style="fill:#ffffff"><g
       id="g18"
       transform="matrix(3.3013592,0,0,-3.3013592,-2373.0332,174.08088)"
       clip-path="url(#a-3)"
       style="fill:#ffffff"><path
         style="fill:#ffffff"
         id="path18"
         d="m 744.8711,44.7596 c 0.037,0.184 0.213,0.337 0.412,0.337 0.176,0 0.341,-0.132 0.4,-0.288 l 4.227,-15.397 h 6.925 l 3.528,20.009 h -3.049 l -2.714,-15.407 c -0.036,-0.194 -0.197,-0.346 -0.403,-0.346 -0.187,0 -0.347,0.135 -0.396,0.308 l -4.236,15.445 h -6.922 l -3.527,-20.009 h 3.045 l 2.71,15.348 m -11.8233,-8.564 -0.592,8.965 c -0.005,0.199 -0.138,0.388 -0.337,0.441 -0.22,0.055 -0.445,-0.06 -0.532,-0.256 l -9.029,-15.934 h -3.45 l 11.342,20.01 h 6.666 l 1.334,-20.01 h -4.948 l -0.145,2.181 c -0.024,0.466 -0.373,0.836 -0.837,0.836 h -7.484 l 1.688,2.985 h 5.612 c 0.41,0 0.743,0.36 0.712,0.782 m 37.6249,-0.0425 -0.788,8.882 c -0.021,0.232 -0.211,0.409 -0.45,0.409 -0.16,0 -0.303,-0.083 -0.386,-0.209 l -8.128,-15.823 h -3.372 l 10.269,20.009 h 6.666 l 1.774,-20.009 h -4.986 l -0.195,2.182 c -0.037,0.469 -0.377,0.833 -0.837,0.833 h -7.017 l 1.532,2.986 h 5.2 c 0.425,0 0.76,0.365 0.718,0.74" /></g></g></svg>
