<?xml version="1.0" encoding="UTF-8" standalone="no"?>
<svg
   width="1024"
   height="1024"
   viewBox="0 0 1024 1024"
   version="1.1"
   id="svg44"
   sodipodi:docname="Left_wing.svg"
   inkscape:version="1.3.2 (091e20ef0f, 2023-11-25, custom)"
   xmlns:inkscape="http://www.inkscape.org/namespaces/inkscape"
   xmlns:sodipodi="http://sodipodi.sourceforge.net/DTD/sodipodi-0.dtd"
   xmlns:xlink="http://www.w3.org/1999/xlink"
   xmlns="http://www.w3.org/2000/svg"
   xmlns:svg="http://www.w3.org/2000/svg">
  <defs
     id="defs44">
    <linearGradient
       id="linearGradient45"
       inkscape:collect="always">
      <stop
         style="stop-color:#808080;stop-opacity:1;"
         offset="0"
         id="stop45" />
      <stop
         style="stop-color:#d8d8d8;stop-opacity:1;"
         offset="0.5"
         id="stop47" />
      <stop
         style="stop-color:#808080;stop-opacity:1;"
         offset="1"
         id="stop46" />
    </linearGradient>
    <linearGradient
       inkscape:collect="always"
       xlink:href="#linearGradient45"
       id="linearGradient46"
       x1="577.57617"
       y1="568.55734"
       x2="599.70416"
       y2="568.55731"
       gradientUnits="userSpaceOnUse" />
    <linearGradient
       inkscape:collect="always"
       xlink:href="#linearGradient45"
       id="linearGradient52"
       x1="541.77643"
       y1="394.59998"
       x2="578.58136"
       y2="394.59998"
       gradientUnits="userSpaceOnUse" />
    <linearGradient
       inkscape:collect="always"
       xlink:href="#linearGradient45"
       id="linearGradient54"
       x1="542.04297"
       y1="849.50098"
       x2="578.07617"
       y2="849.50098"
       gradientUnits="userSpaceOnUse" />
  </defs>
  <sodipodi:namedview
     id="namedview44"
     pagecolor="#505050"
     bordercolor="#ffffff"
     borderopacity="1"
     inkscape:showpageshadow="0"
     inkscape:pageopacity="0"
     inkscape:pagecheckerboard="1"
     inkscape:deskcolor="#d1d1d1"
     inkscape:zoom="0.34043324"
     inkscape:cx="769.60757"
     inkscape:cy="465.58321"
     inkscape:window-width="1366"
     inkscape:window-height="724"
     inkscape:window-x="-1"
     inkscape:window-y="-1"
     inkscape:window-maximized="1"
     inkscape:current-layer="svg44" />
  <desc
     id="desc1">Boeing_747SP.blend, (Blender 3.3.9)</desc>
  <rect
     style="fill:#ff6600;fill-opacity:1;stroke:none;stroke-linecap:square;stroke-opacity:1"
     id="rect54"
     width="1024"
     height="1024"
     x="3.8146973e-06"
     y="0" />
  <polygon
     stroke="black"
     stroke-width="1"
     fill="rgb(204, 204, 204)"
     fill-opacity="1"
     points="18.530,803.731 271.178,1024.000 260.101,997.297 36.422,802.213 "
     id="polygon1"
     style="stroke:none;fill:#ff6600" />
  <path
     id="polygon2"
     style="fill:url(#linearGradient46);stroke:none;stroke-opacity:1"
     d="M 583.18359 113.08008 L 578.07617 433.32812 L 578.08398 464.48828 L 578.38867 1024 L 595.72266 1016.2461 L 607.88477 991.58984 L 597.91211 475.88672 L 598.00977 450.5293 L 607.88477 145.74219 L 597.36914 118.8125 L 583.18359 113.08008 z " />
  <polygon
     stroke="black"
     stroke-width="1"
     fill="rgb(204, 204, 204)"
     fill-opacity="1"
     points="254.011,126.728 207.537,75.286 200.739,115.361 242.369,151.635 "
     id="polygon3"
     style="stroke:none;fill:#ff6600" />
  <polygon
     stroke="black"
     stroke-width="1"
     fill="rgb(204, 204, 204)"
     fill-opacity="1"
     points="539.688,348.075 396.464,476.208 425.766,700.488 454.055,909.274 496.306,873.799 "
     id="polygon4"
     style="stroke:none;fill:#ff6600" />
  <polygon
     stroke="black"
     stroke-width="1"
     fill="rgb(204, 204, 204)"
     fill-opacity="1"
     points="263.583,692.368 129.335,575.391 36.422,802.213 260.101,997.297 "
     id="polygon5"
     style="stroke:none;fill:#ff6600" />
  <polygon
     stroke="black"
     stroke-width="1"
     fill="rgb(204, 204, 204)"
     fill-opacity="1"
     points="507.671,899.344 457.237,955.766 452.813,969.815 525.451,908.826 "
     id="polygon6"
     style="stroke:none;fill:#ff6600" />
  <path
     id="polygon7"
     style="fill:url(#linearGradient52);stroke:none;stroke-opacity:1"
     d="M 547.62891 114.11328 L 542.2793 672.50586 L 547.71094 675.375 L 554.58008 675.00195 L 578.07617 148.01562 L 565.75391 122.91797 L 547.62891 114.11328 z " />
  <polygon
     stroke="black"
     stroke-width="1"
     fill="rgb(204, 204, 204)"
     fill-opacity="1"
     points="629.689,836.947 631.978,1020.531 651.173,1024.000 651.173,816.985 "
     id="polygon8"
     style="stroke:none;stroke-opacity:1;fill:#ff6600;fill-opacity:1" />
  <polygon
     stroke="black"
     stroke-width="1"
     fill="rgb(204, 204, 204)"
     fill-opacity="1"
     points="607.884,510.704 608.164,530.883 616.625,530.916 616.625,509.292 "
     id="polygon9"
     style="stroke:none;stroke-opacity:1;fill:#ff6600;fill-opacity:1" />
  <polygon
     stroke="black"
     stroke-width="1"
     fill="rgb(204, 204, 204)"
     fill-opacity="1"
     points="242.369,151.635 200.739,115.361 167.306,325.619 133.536,546.165 263.149,667.016 "
     id="polygon10"
     style="stroke:none;fill:#ff6600" />
  <polygon
     stroke="black"
     stroke-width="1"
     fill="rgb(204, 204, 204)"
     fill-opacity="1"
     points="542.042,321.472 392.845,446.742 396.464,476.208 539.688,348.075 "
     id="polygon11"
     style="stroke:none;fill:#ff6600" />
  <polygon
     stroke="black"
     stroke-width="1"
     fill="rgb(204, 204, 204)"
     fill-opacity="1"
     points="528.412,24.330 300.833,214.548 392.845,446.742 542.042,321.472 "
     id="polygon14"
     style="stroke:none;fill:#ff6600" />
  <path
     id="polygon15"
     style="fill:url(#linearGradient54);stroke:none;stroke-opacity:1"
     d="M 554.58008 675.00195 L 547.71094 675.375 L 546.70508 703.42578 L 542.04297 703.62109 L 546.52734 1024 L 565.375 1022.918 L 578.07617 998.0918 L 553.23242 701.67578 L 554.58008 675.00195 z " />
  <polygon
     stroke="black"
     stroke-width="1"
     fill="rgb(204, 204, 204)"
     fill-opacity="1"
     points="385.609,486.696 381.874,459.981 365.456,477.668 369.978,503.770 "
     id="polygon16"
     style="stroke:none;fill:#ff6600" />
  <polygon
     stroke="black"
     stroke-width="1"
     fill="rgb(204, 204, 204)"
     fill-opacity="1"
     points="263.149,667.016 133.536,546.165 129.335,575.391 263.583,692.368 "
     id="polygon17"
     style="stroke:none;fill:#ff6600" />
  <polygon
     stroke="black"
     stroke-width="1"
     fill="rgb(204, 204, 204)"
     fill-opacity="1"
     points="121.756,536.586 117.441,563.165 129.335,575.391 133.536,546.165 "
     id="polygon18"
     style="stroke:none;fill:#ff6600" />
  <polygon
     stroke="black"
     stroke-width="1"
     fill="rgb(204, 204, 204)"
     fill-opacity="1"
     points="103.977,521.818 98.792,547.877 117.441,563.165 121.756,536.586 "
     id="polygon19"
     style="stroke:none;fill:#ff6600" />
  <polygon
     stroke="black"
     stroke-width="1"
     fill="rgb(204, 204, 204)"
     fill-opacity="1"
     points="135.176,0.833 188.597,57.408 207.537,75.286 "
     id="polygon22"
     style="stroke:none;fill:#ff6600" />
  <polygon
     stroke="black"
     stroke-width="1"
     fill="rgb(204, 204, 204)"
     fill-opacity="1"
     points="271.178,118.614 199.608,56.251 207.537,75.286 254.011,126.728 "
     id="polygon23"
     style="stroke:none;fill:#ff6600" />
  <polygon
     stroke="black"
     stroke-width="1"
     fill="rgb(204, 204, 204)"
     fill-opacity="1"
     points="644.953,816.985 644.953,609.969 631.978,610.377 629.689,793.206 "
     id="polygon25"
     style="stroke:none;stroke-opacity:1;fill:#ff6600;fill-opacity:1" />
  <polygon
     stroke="black"
     stroke-width="1"
     fill="rgb(204, 204, 204)"
     fill-opacity="1"
     points="396.464,476.208 392.845,446.742 381.874,459.981 385.609,486.696 "
     id="polygon26"
     style="stroke:none;fill:#ff6600" />
  <polygon
     stroke="black"
     stroke-width="1"
     fill="rgb(204, 204, 204)"
     fill-opacity="1"
     points="300.833,214.548 528.412,24.330 542.042,0.000 285.236,215.024 "
     id="polygon29"
     style="stroke:none;fill:#ff6600" />
  <polygon
     stroke="black"
     stroke-width="1"
     fill="rgb(204, 204, 204)"
     fill-opacity="1"
     points="496.306,873.799 454.055,909.274 457.237,955.766 507.671,899.344 "
     id="polygon31"
     style="stroke:none;fill:#ff6600" />
  <polygon
     stroke="black"
     stroke-width="1"
     fill="rgb(204, 204, 204)"
     fill-opacity="1"
     points="441.811,968.433 387.445,1024.000 457.237,955.766 "
     id="polygon32"
     style="stroke:none;fill:#ff6600" />
  <polygon
     stroke="black"
     stroke-width="1"
     fill="rgb(204, 204, 204)"
     fill-opacity="1"
     points="199.608,56.251 135.176,0.833 207.537,75.286 "
     id="polygon33"
     style="stroke:none;fill:#ff6600" />
  <polygon
     stroke="black"
     stroke-width="1"
     fill="rgb(204, 204, 204)"
     fill-opacity="1"
     points="457.237,955.766 387.445,1024.000 452.813,969.815 "
     id="polygon34"
     style="stroke:none;fill:#ff6600" />
  <polygon
     stroke="black"
     stroke-width="1"
     fill="rgb(204, 204, 204)"
     fill-opacity="1"
     points="18.530,803.731 36.422,802.213 129.335,575.391 128.469,577.005 0.000,780.678 "
     id="polygon35"
     style="stroke:none;fill:#ff6600" />
  <polygon
     stroke="black"
     stroke-width="1"
     fill="rgb(204, 204, 204)"
     fill-opacity="1"
     points="622.824,415.508 618.805,426.288 630.670,426.737 630.670,402.071 "
     id="polygon36"
     style="stroke:none;stroke-opacity:1;fill:#ff6600;fill-opacity:1" />
  <polygon
     stroke="black"
     stroke-width="1"
     fill="rgb(204, 204, 204)"
     fill-opacity="1"
     points="271.178,242.904 395.630,449.106 392.845,446.742 300.833,214.548 285.236,215.024 "
     id="polygon37"
     style="stroke:none;fill:#ff6600" />
  <polygon
     stroke="black"
     stroke-width="1"
     fill="rgb(204, 204, 204)"
     fill-opacity="1"
     points="622.247,505.794 629.849,529.217 629.849,490.558 618.805,490.512 "
     id="polygon38"
     style="stroke:none;stroke-opacity:1;fill:#ff6600;fill-opacity:1" />
  <polygon
     stroke="black"
     stroke-width="1"
     fill="rgb(204, 204, 204)"
     fill-opacity="1"
     points="618.805,1024.000 616.268,1011.425 614.476,1009.200 "
     id="polygon39"
     style="stroke:none;stroke-opacity:1;fill:#ff6600;fill-opacity:1" />
  <polygon
     stroke="black"
     stroke-width="1"
     fill="rgb(204, 204, 204)"
     fill-opacity="1"
     points="630.670,451.852 630.670,427.187 618.805,426.737 622.123,437.794 "
     id="polygon40"
     style="stroke:none;stroke-opacity:1;fill:#ff6600;fill-opacity:1" />
  <polygon
     stroke="black"
     stroke-width="1"
     fill="rgb(204, 204, 204)"
     fill-opacity="1"
     points="629.849,490.512 629.849,451.852 622.063,475.196 618.805,490.467 "
     id="polygon41"
     style="stroke:none;stroke-opacity:1;fill:#ff6600;fill-opacity:1" />
  <polygon
     stroke="black"
     stroke-width="1"
     fill="rgb(204, 204, 204)"
     fill-opacity="1"
     points="618.805,531.036 626.875,1011.484 628.716,1013.669 627.786,967.032 627.718,755.808 629.689,529.217 "
     id="polygon42"
     style="stroke:none;stroke-opacity:1;fill:#ff6600;fill-opacity:1" />
  <polygon
     stroke="black"
     stroke-width="1"
     fill="rgb(204, 204, 204)"
     fill-opacity="1"
     points="616.268,1011.425 618.805,530.916 607.884,532.493 610.810,755.632 613.893,968.553 614.476,1009.200 "
     id="polygon43"
     style="stroke:none;stroke-opacity:1;fill:#ff6600;fill-opacity:1" />
  <polygon
     stroke="black"
     stroke-width="1"
     fill="rgb(204, 204, 204)"
     fill-opacity="1"
     points="626.875,1011.484 629.689,1024.000 628.716,1013.669 "
     id="polygon44"
     style="stroke:none;stroke-opacity:1;fill:#ff6600;fill-opacity:1" />
</svg>
