<?xml version="1.0" encoding="UTF-8" standalone="no"?>
<svg
   width="1024"
   height="1024"
   viewBox="0 0 1024 1024"
   version="1.1"
   id="svg40"
   sodipodi:docname="Vertical_stabilizer.svg"
   inkscape:version="1.3.2 (091e20ef0f, 2023-11-25, custom)"
   xmlns:inkscape="http://www.inkscape.org/namespaces/inkscape"
   xmlns:sodipodi="http://sodipodi.sourceforge.net/DTD/sodipodi-0.dtd"
   xmlns="http://www.w3.org/2000/svg"
   xmlns:svg="http://www.w3.org/2000/svg">
  <defs
     id="defs40" />
  <sodipodi:namedview
     id="namedview40"
     pagecolor="#505050"
     bordercolor="#ffffff"
     borderopacity="1"
     inkscape:showpageshadow="0"
     inkscape:pageopacity="0"
     inkscape:pagecheckerboard="1"
     inkscape:deskcolor="#d1d1d1"
     inkscape:zoom="0.48238564"
     inkscape:cx="580.44845"
     inkscape:cy="413.56952"
     inkscape:window-width="1366"
     inkscape:window-height="724"
     inkscape:window-x="-1"
     inkscape:window-y="-1"
     inkscape:window-maximized="1"
     inkscape:current-layer="svg40" />
  <desc
     id="desc1">Boeing_747SP.blend, (Blender 3.3.9)</desc>
  <rect
     style="fill:#ff6600;fill-opacity:1;stroke-width:15;stroke-linecap:square"
     id="rect1"
     width="1024"
     height="1024"
     x="0"
     y="0"
     rx="2.3779886"
     ry="2.3779886" />
  <path
     d="m 187.00781,93.074219 32.76195,84.912811 17.78318,-2.15758 40.08455,-4.86008 198.84458,332.55838 7.71118,14.1289 -40.36132,44.85067 -1.00812,0.004 -38.44773,0.13576 -38.44774,0.1376 12.35401,0.10274 12.35585,0.10458 53.22856,-0.18898 64.84389,-0.23116 118.07061,-0.41831 236.1449,-0.83662 27.7672,-0.39262 -55.55273,-57.39632 -499.98551,-396.01457 -74.07457,-7.21948 z m 390.88713,410.453531 48.64254,58.33193 z"
     style="fill:#ff6600;fill-opacity:1;stroke-width:0.938911"
     id="path1" />
  <path
     style="fill:none;stroke:#ffffff;stroke-width:9.38911;stroke-linecap:butt;stroke-linejoin:miter;stroke-dasharray:none;stroke-opacity:1"
     d="M 866.7882,564.51329 815.00291,512.40573 332.20441,121.45467 189.73355,109.53239"
     id="path2"
     sodipodi:nodetypes="cccc" />
  <path
     id="polygon1"
     d="m 195.54492,587.02734 30.49382,79.09494 16.55374,-2.00972 37.30946,-4.5287 185.07668,309.76616 7.17732,13.16056 -37.81445,42.05362 60.63449,-0.2153 109.89818,-0.3897 219.79637,-0.7793 25.84314,-0.3656 -51.70676,-53.46428 -465.37105,-368.87331 -68.94632,-6.72298 z"
     style="fill:#ff6600;fill-opacity:1;stroke-width:0.874236"
     sodipodi:nodetypes="ccccccccccccccc" />
  <path
     style="fill:none;stroke:#ffffff;stroke-width:8.74236;stroke-linecap:butt;stroke-linejoin:miter;stroke-dasharray:none;stroke-opacity:1"
     d="M 826.23792,1028.0078 778.03778,979.47151 328.66387,615.31467 196.0564,604.2095"
     id="path3"
     sodipodi:nodetypes="cccc" />
</svg>
