<?xml version="1.0" encoding="UTF-8" standalone="no"?>
<svg
   width="1024"
   height="1024"
   viewBox="0 0 1024 1024"
   version="1.1"
   id="svg40"
   sodipodi:docname="Vertical_stabilizer.svg"
   inkscape:version="1.3.2 (091e20ef0f, 2023-11-25, custom)"
   xmlns:inkscape="http://www.inkscape.org/namespaces/inkscape"
   xmlns:sodipodi="http://sodipodi.sourceforge.net/DTD/sodipodi-0.dtd"
   xmlns="http://www.w3.org/2000/svg"
   xmlns:svg="http://www.w3.org/2000/svg">
  <defs
     id="defs40" />
  <sodipodi:namedview
     id="namedview40"
     pagecolor="#505050"
     bordercolor="#ffffff"
     borderopacity="1"
     inkscape:showpageshadow="0"
     inkscape:pageopacity="0"
     inkscape:pagecheckerboard="1"
     inkscape:deskcolor="#d1d1d1"
     inkscape:zoom="0.24072266"
     inkscape:cx="793.44422"
     inkscape:cy="413.33874"
     inkscape:window-width="1366"
     inkscape:window-height="724"
     inkscape:window-x="-1"
     inkscape:window-y="-1"
     inkscape:window-maximized="1"
     inkscape:current-layer="svg40"
     showguides="false" />
  <desc
     id="desc1">Boeing_747SP.blend, (Blender 3.3.9)</desc>
  <rect
     style="fill:#ffffff;fill-opacity:1;stroke-width:15;stroke-linecap:square"
     id="rect1"
     width="1024"
     height="1024"
     x="0"
     y="0"
     rx="2.3779886"
     ry="2.3779886" />
  <path
     id="polygon1"
     d="m 139.64648,505.07227 34.91016,90.39648 18.95117,-2.29687 42.71289,-5.17579 211.88086,354.02735 8.2168,15.04101 -43.29102,48.06255 69.41602,-0.2461 125.81445,-0.4454 251.62891,-0.8906 29.58594,-0.4179 -59.19532,-61.10356 -532.76953,-421.58008 -78.93164,-7.68359 z"
     style="fill:#ffffff;fill-opacity:1"
     sodipodi:nodetypes="ccccccccccccccc" />
  <path
     style="fill:#0039a6;stroke:none;stroke-width:1px;stroke-linecap:butt;stroke-linejoin:miter;stroke-opacity:1;fill-opacity:1"
     d="m 139.64649,505.07227 157.86132,15.37109 532.76953,421.58008 59.19532,61.10166 -559.17383,1.9805 z"
     id="path3" />
  <path
     d="m 178.04688,36.59375 34.91015,90.39453 18.94922,-2.29687 42.71289,-5.17383 211.88281,354.02734 8.2168,15.04102 -43.00781,47.74609 -1.07422,0.004 -40.96875,0.14453 -40.96875,0.14648 13.16406,0.10938 13.16602,0.11133 56.71875,-0.20118 69.0957,-0.24609 125.8125,-0.44531 251.62891,-0.89063 29.58789,-0.41797 L 868.67773,473.54492 335.9082,51.964844 256.97656,44.279297 Z m 416.51757,436.95117 51.83203,62.09766 z"
     style="fill:#ffffff;fill-opacity:1"
     id="path1" />
  <path
     style="fill:#0039a6;stroke:none;stroke-width:1px;stroke-linecap:butt;stroke-linejoin:miter;stroke-opacity:1;fill-opacity:1"
     d="m 178.04688,36.59375 157.86132,15.371094 532.76953,421.580076 59.19532,61.10165 -559.17383,1.98047 z"
     id="path2" />
  <path
     id="path7"
     style="fill:#0189b9;fill-opacity:1;stroke:none;stroke-width:1px;stroke-linecap:butt;stroke-linejoin:miter;stroke-opacity:1"
     d="m 353.04883,564.39268 c -70.8641,36.24881 -119.58,104.84248 -119.58,184.95508 0,0.67096 0.0674,1.3248 0.0742,1.99414 l 48.4844,127.16211 c 19.0775,22.40239 42.9018,41.26109 70.0742,55.31054 -14.0532,7.26617 -27.1748,15.85841 -39.2578,25.51172 l 17.455,45.77933 14.8457,-0.053 c 31.8117,-26.57699 74.8852,-43.20538 123.3125,-43.20504 47.8885,7e-5 90.5234,16.27651 122.2305,42.33594 l 75.6563,-0.2676 c -20.575,-28.94998 -48.5843,-53.06456 -81.5352,-70.10155 45.6129,-23.58374 81.8413,-60.65475 101.7559,-105.51172 l -46.0606,-36.44726 c -20.9831,64.94107 -88.6916,113.92565 -172.0469,113.92578 -100.7935,6.9e-4 -178.9217,-71.55202 -178.9218,-156.43359 0,-65.23705 46.2353,-122.45828 113.3554,-145.51563 z" />
  <text
     xml:space="preserve"
     style="font-size:122.016px;line-height:0;font-family:'Open Sans';-inkscape-font-specification:'Open Sans';text-decoration-color:#000000;letter-spacing:0px;word-spacing:0px;fill:#ffffff;stroke-width:0.688192;-inkscape-stroke:none;stop-color:#000000"
     x="684.6402"
     y="329.05811"
     id="text3"
     transform="rotate(45)"><tspan
       sodipodi:role="line"
       id="tspan3"
       x="684.6402"
       y="329.05811"
       style="font-style:normal;font-variant:normal;font-weight:normal;font-stretch:normal;font-family:BOEING-style;-inkscape-font-specification:BOEING-style;fill:#ffffff;stroke-width:0.688192">747</tspan></text>
  <path
     id="path6"
     style="fill:#0189b9;fill-opacity:1;stroke:none;stroke-width:1px;stroke-linecap:butt;stroke-linejoin:miter;stroke-opacity:1"
     d="m 391.44922,95.91412 c -70.8641,36.24881 -119.58,104.84248 -119.58,184.95508 0,0.67096 0.0674,1.3248 0.0742,1.99414 l 48.4844,127.16211 c 19.0775,22.40239 42.9018,41.26109 70.0742,55.31054 -14.0532,7.26617 -27.1748,15.85841 -39.2578,25.51172 l 17.455,45.77933 14.8457,-0.0528 c 31.8117,-26.57699 74.8852,-43.20538 123.3125,-43.20504 47.8885,7e-5 90.5234,16.27651 122.2305,42.33594 l 75.6563,-0.2676 c -20.575,-28.94998 -48.5843,-53.06456 -81.5352,-70.10155 45.6129,-23.58374 81.8413,-60.65475 101.7559,-105.51172 l -46.0606,-36.44726 c -20.9831,64.94107 -88.6916,113.92565 -172.0469,113.92578 -100.7935,6.9e-4 -178.9217,-71.55202 -178.9218,-156.43359 0,-65.23705 46.2353,-122.45828 113.3554,-145.51563 z" />
  <text
     xml:space="preserve"
     style="font-size:122.016px;line-height:0;font-family:'Open Sans';-inkscape-font-specification:'Open Sans';text-decoration-color:#000000;letter-spacing:0px;word-spacing:0px;fill:#ffffff;stroke-width:0.688192;-inkscape-stroke:none;stop-color:#000000"
     x="-730.79492"
     y="-32.062912"
     id="text4"
     transform="matrix(-0.70710678,-0.70710678,-0.70710678,0.70710678,0,0)"><tspan
       sodipodi:role="line"
       id="tspan4"
       x="-730.79492"
       y="-32.062912"
       style="font-style:normal;font-variant:normal;font-weight:normal;font-stretch:normal;font-family:BOEING-style;-inkscape-font-specification:BOEING-style;fill:#ffffff;stroke-width:0.688192">747</tspan></text>
</svg>
